<svg xmlns="http://www.w3.org/2000/svg" viewBox="0 0 154 118"><path d="M69.17 73.63c-2.04-1.11-4.9-3.14-8.6-6.11l-2.78-1.94C35.03 48.93 19.58 37.46 11.44 31.17L9.5 29.78C7.83 28.49 7 26.73 7 24.51v-5.27c0-3.7 1.29-6.84 3.89-9.44 2.59-2.59 5.73-3.89 9.44-3.89h115.45c3.7 0 6.84 1.3 9.44 3.89 2.59 2.59 3.89 5.74 3.89 9.44v5.27c0 2.22-.83 3.98-2.5 5.27l-1.39 1.11c-7.96 6.29-23.59 17.86-46.9 34.69l-2.78 1.94c-3.7 2.96-6.57 5-8.6 6.11-3.52 2.22-6.48 3.33-8.88 3.33-2.42 0-5.38-1.11-8.89-3.33zm34.41-1.11l-2.78 2.22c-4.26 3.33-7.77 5.74-10.55 7.22-4.44 2.59-8.51 3.89-12.21 3.89-3.7 0-7.77-1.2-12.21-3.61-2.59-1.48-6.11-3.88-10.55-7.22l-2.78-2.5C30.13 56.24 15.88 45.79 9.78 41.16c-.56-.37-1.16-.42-1.8-.14-.66.28-.98.79-.98 1.53v56.62c0 3.7 1.29 6.85 3.89 9.44 2.59 2.59 5.73 3.89 9.44 3.89h115.45c3.7 0 6.84-1.29 9.44-3.89 2.59-2.59 3.89-5.73 3.89-9.44V42.55c0-.74-.33-1.29-.97-1.67-.65-.37-1.25-.28-1.8.28-6.68 5.18-20.93 15.64-42.76 31.36z"/></svg>