<svg xmlns="http://www.w3.org/2000/svg" width="260.003" height="260"><g data-name="Group 5609"><path data-name="Path 4677" d="M91.684 194.614a36.778 36.778 0 0 0-15.9 4.883 6.988 6.988 0 0 0-1.421 10.984l45.087 45.087a15.144 15.144 0 0 0 16.48 3.293 225.8 225.8 0 0 1-34.569-66.771 26.565 26.565 0 0 1-9.677 2.524z" fill="#fc8676"/><path data-name="Path 4678" d="M127.879.247a15.057 15.057 0 0 0-7.982 4.182L70.308 54.018c-5.861-5.79-10.151-14.011-10.569-22.239a26.625 26.625 0 1 0-28.31 27.934 36.645 36.645 0 0 1 22.948 10.236L4.435 119.891a15.147 15.147 0 0 0 0 21.419l43.329 43.33a6.993 6.993 0 0 0 10.859-1.218 32.722 32.722 0 0 0 5.2-15.537 26.56 26.56 0 0 1 27.971-25.2c-.5-6.133-.764-12.329-.764-18.59A225.389 225.389 0 0 1 127.879.247z" fill="#ffae83"/><path data-name="Path 4679" d="M190.05 205.871a36.4 36.4 0 0 1 10.235 22.841 26.332 26.332 0 0 0 7.623 16.909 26.715 26.715 0 0 0 39.694-2.009 26.492 26.492 0 0 0-19.384-43.079c-8.228-.416-16.448-4.686-22.238-10.52l49.588-49.359a15.027 15.027 0 0 0 0-21.319l-45.087-44.878a7.006 7.006 0 0 0-10.983 1.415 36.47 36.47 0 0 0-4.882 15.823 26.337 26.337 0 0 1-7.623 16.909 26.715 26.715 0 0 1-39.694-2.009 26.491 26.491 0 0 1 19.384-43.078 32.849 32.849 0 0 0 15.535-5.172 6.941 6.941 0 0 0 1.218-10.808L140.107 4.409A15.163 15.163 0 0 0 126.674.246 223.6 223.6 0 0 0 89.82 123.521c0 6.232.266 12.4.764 18.5a26.449 26.449 0 0 1 10.018 50.376 224.378 224.378 0 0 0 34.572 66.463 15.079 15.079 0 0 0 4.937-3.278z" fill="#002d62"/></g></svg>