<?xml version="1.0" encoding="utf-8"?>
<!-- Generator: Adobe Illustrator 23.0.6, SVG Export Plug-In . SVG Version: 6.00 Build 0)  -->
<svg version="1.1" id="Layer_1" xmlns="http://www.w3.org/2000/svg" xmlns:xlink="http://www.w3.org/1999/xlink" x="0px" y="0px"
	 viewBox="0 0 47.2 41.2" enable-background="new 0 0 47.2 41.2" xml:space="preserve">
<path id="Polygon_2" fill="#D6B52B" d="M16.7,8.1c2.2-3.8,7.1-5.2,10.9-3c1.2,0.7,2.3,1.7,3,3l9.8,17.1c2.2,3.8,0.9,8.7-3,10.9
	c-1.2,0.7-2.6,1.1-4,1.1H13.8c-4.4,0-8-3.6-8-8c0-1.4,0.4-2.8,1.1-4L16.7,8.1z"/>
<path id="SRCD_-_Mockups_-_Style_Guide_-_v7_62_" fill="#FFFFFF" d="M20.7,28.9c0.1-1.6,1.4-2.9,3.1-2.9c1.6,0.1,2.9,1.4,2.9,3.1
	c-0.1,1.6-1.4,2.9-3,2.9c-1.6,0-3-1.3-3-3C20.6,29,20.6,28.9,20.7,28.9z M21.3,13.7l-0.2-4.4h4.9l-0.2,4.4l-0.7,10.2H22L21.3,13.7z"
	/>
</svg>
