<?xml version="1.0" encoding="utf-8"?>
<!-- Generator: Adobe Illustrator 23.0.6, SVG Export Plug-In . SVG Version: 6.00 Build 0)  -->
<svg version="1.1" id="Layer_1" xmlns="http://www.w3.org/2000/svg" xmlns:xlink="http://www.w3.org/1999/xlink" x="0px" y="0px"
	 viewBox="0 0 557.4 91" enable-background="new 0 0 557.4 91" xml:space="preserve">
<g>
	<g>
		<path fill="#014089" d="M58.1,71H44.3l-0.7-19.7L43.5,48c-0.1-3-0.2-5.3-0.2-6.9c0-3.8,0.2-7.6,0.5-11.4l-7.2,35.8H23.3l-7.7-35.8
			c0.5,5.9,0.7,11.1,0.7,15.7c0,2.6,0,4.6-0.1,5.9L15.7,71H1.8l3.9-52.8h17.5l7.1,35l6.4-35h17.6L58.1,71z M97.9,71l-2.4-10.8h-14
			L79.2,71H64.6l15.7-52.8h16.9L112.8,71H97.9z M83.8,50.2h9.6l-4.8-22C88.6,28.2,83.8,50.2,83.8,50.2z M150.4,18.6
			c3.1,1.2,5.8,2.9,8.2,5.2l-6.3,7.4c-3.6-2.9-7.5-4.3-11.5-4.3c-2.1,0-3.7,0.4-4.8,1.2c-1.1,0.8-1.6,1.9-1.6,3.3
			c0,1,0.3,1.8,0.8,2.5c0.6,0.7,1.5,1.3,2.8,1.9c1.3,0.6,3.4,1.4,6.2,2.3c5.4,1.7,9.4,3.9,11.9,6.5s3.8,6.2,3.8,10.8
			c0,3.3-0.9,6.3-2.6,8.9c-1.7,2.6-4.2,4.5-7.5,6c-3.3,1.4-7.1,2.1-11.5,2.1c-8.4,0-15.3-2.6-20.6-7.7l6.9-7.7
			c4.2,3.4,8.6,5.2,13.1,5.2c2.4,0,4.2-0.5,5.5-1.6c1.3-1,2-2.4,2-4.1c0-1.2-0.3-2.2-0.8-3s-1.4-1.5-2.7-2.1s-3.2-1.3-5.7-2.1
			c-6-1.9-10.2-4.1-12.6-6.8c-2.4-2.6-3.6-6-3.6-10c0-3.1,0.8-5.9,2.5-8.3s4.1-4.2,7.1-5.5c3-1.3,6.4-1.9,10.1-1.9
			C143.8,16.8,147.3,17.4,150.4,18.6z M207.8,18.2l-1.4,10.7h-12.5V71h-14.1V28.9h-13.2V18.2H207.8z"/>
	</g>
	<g>
		<path fill="#5F5F5F" d="M235.3,22.4l2.7,12.7l7.2-12.7h2.7L245.1,38h-2l1.1-6.2l1.3-6.3L238.4,38h-1.5L234,25.3l-1,6.7l-1,6h-2
			l2.7-15.6H235.3z M255.5,38c-0.1-0.2-0.1-0.4-0.1-0.6v-0.6c-1.1,1-2.2,1.5-3.4,1.4c-1,0-1.9-0.3-2.5-1c-0.6-0.6-0.9-1.4-0.9-2.4
			c0.1-1.2,0.6-2.2,1.6-2.9c1-0.7,2.3-1,4-1h2l0.1-0.9c0.1-0.7-0.1-1.2-0.4-1.6c-0.3-0.4-0.9-0.6-1.5-0.6c-0.7,0-1.3,0.1-1.8,0.5
			c-0.5,0.3-0.8,0.8-0.9,1.3h-2c0.1-0.7,0.3-1.3,0.8-1.8s1.1-0.9,1.8-1.2c0.7-0.3,1.5-0.4,2.3-0.4c1.2,0,2.2,0.4,2.8,1.1
			c0.7,0.7,1,1.6,0.8,2.8l-0.9,5.8l-0.1,0.8c0,0.4,0,0.8,0.1,1.2v0.2h-1.8L255.5,38z M252.5,36.5c0.6,0,1.2-0.1,1.8-0.4
			c0.6-0.3,1-0.7,1.4-1.3l0.4-2.4h-1.5c-1.2,0-2.2,0.2-2.8,0.6c-0.7,0.4-1,0.9-1.1,1.6c-0.1,0.5,0.1,1,0.4,1.4
			C251.4,36.3,251.9,36.5,252.5,36.5L252.5,36.5z M267.4,28.1l-0.9-0.1c-1.2,0-2.2,0.6-2.9,1.7l-1.4,8.3h-1.9l2-11.6h1.9l-0.3,1.4
			c0.8-1.1,1.8-1.6,2.9-1.6c0.2,0,0.5,0.1,0.9,0.2L267.4,28.1L267.4,28.1z M274.7,28.1l-0.9-0.1c-1.2,0-2.2,0.6-2.9,1.7l-1.4,8.3
			h-1.9l2-11.6h1.9l-0.3,1.4c0.8-1.1,1.8-1.6,2.9-1.6c0.2,0,0.5,0.1,0.9,0.2L274.7,28.1L274.7,28.1z M276.9,38H275l2-11.6h1.9
			L276.9,38z M278.5,22.1c0.3,0,0.6,0.1,0.8,0.3c0.2,0.2,0.3,0.5,0.3,0.8s-0.1,0.6-0.3,0.8s-0.5,0.3-0.8,0.3s-0.6-0.1-0.8-0.3
			s-0.3-0.5-0.3-0.8s0.1-0.6,0.3-0.8C277.9,22.3,278.2,22.1,278.5,22.1z M287.2,38c-0.1-0.2-0.1-0.4-0.1-0.6v-0.6
			c-1.1,1-2.2,1.5-3.4,1.4c-1,0-1.9-0.3-2.5-1c-0.6-0.6-0.9-1.4-0.9-2.4c0.1-1.2,0.6-2.2,1.6-2.9c1-0.7,2.3-1,4-1h2L288,30
			c0.1-0.7-0.1-1.2-0.4-1.6s-0.9-0.6-1.5-0.6c-0.7,0-1.3,0.1-1.8,0.5c-0.5,0.3-0.8,0.8-0.9,1.3h-2c0.1-0.7,0.3-1.3,0.8-1.8
			s1.1-0.9,1.8-1.2c0.7-0.3,1.5-0.4,2.3-0.4c1.2,0,2.2,0.4,2.8,1.1c0.7,0.7,1,1.6,0.8,2.8l-0.9,5.8l-0.1,0.8c0,0.4,0,0.8,0.1,1.2
			v0.2h-1.8V38z M284.1,36.5c0.6,0,1.2-0.1,1.8-0.4c0.6-0.3,1-0.7,1.4-1.3l0.4-2.4h-1.5c-1.2,0-2.2,0.2-2.8,0.6
			c-0.7,0.4-1,0.9-1.1,1.6c-0.1,0.5,0.1,1,0.4,1.4C283.1,36.3,283.5,36.5,284.1,36.5L284.1,36.5z M292.4,32.2c0.2-1.3,0.5-2.4,1-3.3
			s1.1-1.6,1.9-2.1c0.7-0.4,1.5-0.7,2.4-0.6c1.3,0,2.4,0.5,3.1,1.5l0.4-1.3h1.8l-2,11.4c-0.2,1.5-0.8,2.7-1.8,3.6
			c-1,0.9-2.2,1.3-3.7,1.3c-0.8,0-1.5-0.2-2.3-0.6s-1.3-0.8-1.7-1.5l1.1-1.2c0.7,1,1.6,1.6,2.8,1.6c0.9,0,1.7-0.2,2.3-0.8
			s1.1-1.3,1.3-2.3l0.2-1c-0.9,0.9-2.1,1.4-3.3,1.4c-0.7,0-1.4-0.2-1.9-0.6c-0.5-0.4-0.9-0.9-1.2-1.6c-0.3-0.7-0.5-1.5-0.5-2.3
			C292.3,33.3,292.3,32.8,292.4,32.2L292.4,32.2z M294.3,33.3c0,1,0.2,1.8,0.5,2.4s0.9,0.9,1.7,0.9c1.2,0,2.2-0.5,3-1.7l0.9-5.3
			c-0.4-1.1-1.2-1.6-2.3-1.7c-1.1,0-1.9,0.4-2.6,1.3s-1.1,2.1-1.2,3.6V33.3z M308.9,38.2c-1.4,0-2.6-0.6-3.4-1.6s-1.2-2.4-1-4
			l0.1-0.5c0.1-1.2,0.5-2.2,1-3.2s1.2-1.7,2.1-2.2c0.8-0.5,1.7-0.7,2.6-0.7c1.2,0,2.1,0.4,2.8,1.2c0.7,0.8,1.1,1.8,1.1,3.1v1.4
			l-0.1,0.9h-7.6c-0.1,1.1,0,1.9,0.5,2.7s1.2,1.1,2.1,1.1c1.1,0,2.2-0.5,3.2-1.5l1.1,0.9c-0.5,0.7-1.1,1.3-1.9,1.6
			C310.7,38,309.9,38.2,308.9,38.2L308.9,38.2z M310.2,27.8c-0.8,0-1.5,0.3-2.1,0.8s-1.1,1.4-1.4,2.5h5.7v-0.2
			c0.1-0.9,0-1.7-0.4-2.3C311.5,28.1,310.9,27.8,310.2,27.8L310.2,27.8z M329.8,34c0.2-1.1-0.4-2-1.8-2.5l-1.9-0.7l-0.6-0.3
			c-2.1-1-3.1-2.3-2.9-4c0.1-0.9,0.4-1.6,0.9-2.3c0.5-0.7,1.2-1.2,2.1-1.5c0.9-0.4,1.8-0.5,2.8-0.5c0.9,0,1.8,0.2,2.5,0.6
			s1.3,1,1.7,1.7c0.4,0.7,0.6,1.5,0.5,2.4h-2c0.1-1-0.1-1.7-0.6-2.2s-1.2-0.8-2.1-0.8c-1,0-1.8,0.2-2.5,0.7s-1,1.1-1.1,1.9
			c-0.1,1.1,0.5,1.9,2,2.4l1.6,0.6l0.8,0.3c2,0.9,3,2.3,2.8,4.1c-0.1,0.9-0.4,1.6-0.9,2.3c-0.5,0.6-1.2,1.1-2.1,1.5
			s-1.8,0.5-2.9,0.5c-1,0-1.9-0.2-2.7-0.6c-0.8-0.4-1.4-1-1.9-1.7c-0.4-0.7-0.6-1.5-0.6-2.4h2c-0.1,0.9,0.2,1.7,0.8,2.2
			c0.6,0.5,1.4,0.8,2.4,0.8s1.9-0.2,2.6-0.7C329.3,35.4,329.7,34.8,329.8,34L329.8,34z M338.6,23.6l-0.5,2.8h2.1l-0.3,1.5h-2.1
			l-1.2,7.2v0.5c0,0.6,0.4,0.8,0.9,0.8c0.2,0,0.6,0,0.9-0.1l-0.2,1.6c-0.5,0.1-0.9,0.2-1.4,0.2c-0.8,0-1.4-0.3-1.7-0.9
			c-0.4-0.6-0.5-1.3-0.5-2.2l1.2-7.2h-2.1l0.3-1.5h2.1l0.5-2.8h2L338.6,23.6z M347.8,28.1l-0.9-0.1c-1.2,0-2.2,0.6-2.9,1.7l-1.4,8.3
			h-1.9l2-11.6h1.9l-0.3,1.4c0.8-1.1,1.8-1.6,2.9-1.6c0.2,0,0.5,0.1,0.9,0.2L347.8,28.1L347.8,28.1z M352.9,38.2
			c-1.4,0-2.6-0.6-3.4-1.6s-1.2-2.4-1-4l0.1-0.5c0.1-1.2,0.5-2.2,1-3.2s1.2-1.7,2.1-2.2c0.8-0.5,1.7-0.7,2.6-0.7
			c1.2,0,2.1,0.4,2.8,1.2c0.7,0.8,1.1,1.8,1.1,3.1v1.4l-0.1,0.9h-7.6c-0.1,1.1,0,1.9,0.5,2.7s1.2,1.1,2.1,1.1c1.1,0,2.2-0.5,3.2-1.5
			l1.1,0.9c-0.5,0.7-1.1,1.3-1.9,1.6C354.7,38,353.8,38.2,352.9,38.2L352.9,38.2z M354.1,27.8c-0.8,0-1.5,0.3-2.1,0.8
			s-1.1,1.4-1.4,2.5h5.7v-0.2c0.1-0.9,0-1.7-0.4-2.3C355.5,28.1,354.9,27.8,354.1,27.8L354.1,27.8z M363.1,26.4l-0.3,1.5
			c1-1.1,2.2-1.7,3.6-1.7c1.1,0,1.9,0.4,2.4,1.1s0.7,1.8,0.6,3.1l-1.3,7.6h-1.9l1.3-7.6v-1c-0.1-1-0.7-1.5-1.8-1.5
			c-1.2,0-2.2,0.6-3.1,1.9l-1.4,8.3h-1.9l2-11.6L363.1,26.4L363.1,26.4z M371.7,32.2c0.2-1.3,0.5-2.4,1-3.3s1.1-1.6,1.9-2.1
			c0.7-0.4,1.5-0.7,2.4-0.6c1.3,0,2.4,0.5,3.1,1.5l0.4-1.3h1.8l-1.9,11.4c-0.2,1.5-0.8,2.7-1.8,3.6c-1,0.9-2.2,1.3-3.7,1.3
			c-0.8,0-1.5-0.2-2.3-0.6s-1.3-0.8-1.7-1.5l1.1-1.2c0.7,1,1.6,1.6,2.8,1.6c0.9,0,1.7-0.2,2.3-0.8s1.1-1.3,1.3-2.3l0.2-1
			c-0.9,0.9-2.1,1.4-3.3,1.4c-0.7,0-1.4-0.2-1.9-0.6c-0.5-0.4-0.9-0.9-1.2-1.6c-0.3-0.7-0.5-1.5-0.5-2.3L371.7,32.2L371.7,32.2z
			 M373.6,33.3c0,1,0.2,1.8,0.5,2.4s0.9,0.9,1.7,0.9c1.2,0,2.2-0.5,3-1.7l0.9-5.3c-0.4-1.1-1.2-1.6-2.3-1.7c-1.1,0-1.9,0.4-2.6,1.3
			s-1.1,2.1-1.2,3.6V33.3z M388.4,23.6l-0.5,2.8h2.1l-0.3,1.5h-2.1l-1.2,7.2v0.5c0,0.6,0.4,0.8,0.9,0.8c0.2,0,0.6,0,0.9-0.1
			l-0.2,1.6c-0.5,0.1-0.9,0.2-1.4,0.2c-0.8,0-1.4-0.3-1.7-0.9c-0.4-0.6-0.5-1.3-0.5-2.2l1.2-7.2h-2.1l0.3-1.5h2.1l0.5-2.8h2
			L388.4,23.6z M394,27.8c1-1.1,2.2-1.7,3.5-1.6c1.1,0,1.9,0.4,2.4,1.1s0.7,1.8,0.6,3.1l-1.3,7.6h-1.9l1.3-7.6v-1
			c-0.1-1-0.7-1.5-1.8-1.5c-1.2,0-2.2,0.6-3.1,1.9l-1.4,8.3h-1.9l2.9-16.5h1.9L394,27.8z M407.2,38.2c-1.4,0-2.6-0.6-3.4-1.6
			s-1.2-2.4-1-4l0.1-0.5c0.1-1.2,0.5-2.2,1-3.2s1.2-1.7,2.1-2.2c0.8-0.5,1.7-0.7,2.6-0.7c1.2,0,2.1,0.4,2.8,1.2
			c0.7,0.8,1.1,1.8,1.1,3.1v1.4l-0.1,0.9h-7.6c-0.1,1.1,0,1.9,0.5,2.7s1.2,1.1,2.1,1.1c1.1,0,2.2-0.5,3.2-1.5l1.1,0.9
			c-0.5,0.7-1.1,1.3-1.9,1.6C409,38,408.2,38.2,407.2,38.2L407.2,38.2z M408.4,27.8c-0.8,0-1.5,0.3-2.1,0.8s-1.1,1.4-1.4,2.5h5.7
			v-0.2c0.1-0.9,0-1.7-0.4-2.3C409.8,28.1,409.2,27.8,408.4,27.8L408.4,27.8z M417.4,26.4l-0.3,1.5c1-1.1,2.2-1.7,3.6-1.7
			c1.1,0,1.9,0.4,2.4,1.1s0.7,1.8,0.6,3.1l-1.3,7.6h-1.9l1.3-7.6v-1c-0.1-1-0.7-1.5-1.8-1.5c-1.2,0-2.2,0.6-3.1,1.9l-1.4,8.3h-1.9
			l2-11.6L417.4,26.4L417.4,26.4z M427.6,38h-1.9l2-11.6h1.9L427.6,38z M429.2,22.1c0.3,0,0.6,0.1,0.8,0.3c0.2,0.2,0.3,0.5,0.3,0.8
			s-0.1,0.6-0.3,0.8s-0.5,0.3-0.8,0.3s-0.6-0.1-0.8-0.3s-0.3-0.5-0.3-0.8s0.1-0.6,0.3-0.8C428.6,22.3,428.8,22.1,429.2,22.1z
			 M434.6,26.4l-0.3,1.5c1-1.1,2.2-1.7,3.6-1.7c1.1,0,1.9,0.4,2.4,1.1s0.7,1.8,0.6,3.1l-1.3,7.6h-1.9l1.3-7.6v-1
			c-0.1-1-0.7-1.5-1.8-1.5c-1.2,0-2.2,0.6-3.1,1.9l-1.4,8.3h-1.9l2-11.6L434.6,26.4L434.6,26.4z M443.2,32.2c0.2-1.3,0.5-2.4,1-3.3
			s1.1-1.6,1.9-2.1c0.7-0.4,1.5-0.7,2.4-0.6c1.3,0,2.4,0.5,3.1,1.5l0.4-1.3h1.8l-1.9,11.4c-0.2,1.5-0.8,2.7-1.8,3.6
			c-1,0.9-2.2,1.3-3.7,1.3c-0.8,0-1.5-0.2-2.3-0.6s-1.3-0.8-1.7-1.5l1.1-1.2c0.7,1,1.6,1.6,2.8,1.6c0.9,0,1.7-0.2,2.3-0.8
			s1.1-1.3,1.3-2.3l0.2-1c-0.9,0.9-2.1,1.4-3.3,1.4c-0.7,0-1.4-0.2-1.9-0.6c-0.5-0.4-0.9-0.9-1.2-1.6c-0.3-0.7-0.5-1.5-0.5-2.3
			C443.1,33.3,443.2,32.8,443.2,32.2L443.2,32.2z M445.1,33.3c0,1,0.2,1.8,0.5,2.4s0.9,0.9,1.7,0.9c1.2,0,2.2-0.5,3-1.7l0.9-5.3
			c-0.4-1.1-1.2-1.6-2.3-1.7c-1.1,0-1.9,0.4-2.6,1.3s-1.1,2.1-1.2,3.6V33.3z M467.1,31.7h-3.6l-1.1,6.3h-2l2.7-15.6h4.7
			c1.6,0,2.9,0.4,3.7,1.2c0.9,0.8,1.2,1.9,1.1,3.4c-0.1,1-0.4,1.8-1.1,2.6c-0.6,0.7-1.5,1.3-2.5,1.7l2.4,6.6V38h-2.1L467.1,31.7z
			 M463.8,30h3c1,0,1.9-0.3,2.6-0.8s1.1-1.3,1.2-2.2c0.1-0.9-0.1-1.6-0.5-2.1c-0.5-0.5-1.2-0.8-2.1-0.8h-3.1L463.8,30z M478.4,38.2
			c-1.4,0-2.6-0.6-3.4-1.6s-1.2-2.4-1-4l0.1-0.5c0.1-1.2,0.5-2.2,1-3.2s1.2-1.7,2.1-2.2c0.8-0.5,1.7-0.7,2.6-0.7
			c1.2,0,2.1,0.4,2.8,1.2c0.7,0.8,1.1,1.8,1.1,3.1v1.4l-0.1,0.9H476c-0.1,1.1,0,1.9,0.5,2.7s1.2,1.1,2.1,1.1c1.1,0,2.2-0.5,3.2-1.5
			l1.1,0.9c-0.5,0.7-1.1,1.3-1.9,1.6C480.2,38,479.3,38.2,478.4,38.2L478.4,38.2z M479.6,27.8c-0.8,0-1.5,0.3-2.1,0.8
			s-1.1,1.4-1.4,2.5h5.7v-0.2c0.1-0.9,0-1.7-0.4-2.3C481,28.1,480.4,27.8,479.6,27.8L479.6,27.8z M492,34.9c0.1-0.8-0.3-1.4-1.3-1.7
			l-2-0.6c-1.7-0.6-2.5-1.6-2.5-2.9c0-1,0.5-1.9,1.4-2.5c0.9-0.7,1.9-1,3.1-1s2.1,0.4,2.9,1c0.7,0.7,1.1,1.5,1.1,2.6h-1.9
			c0-0.6-0.2-1.1-0.5-1.4c-0.4-0.4-0.9-0.6-1.5-0.6c-0.7,0-1.3,0.2-1.7,0.5c-0.5,0.3-0.7,0.7-0.8,1.3c-0.1,0.7,0.3,1.2,1.2,1.5
			l1,0.3c1.3,0.3,2.3,0.8,2.8,1.3s0.8,1.2,0.8,2.1c0,0.7-0.3,1.4-0.7,1.9s-1,0.9-1.7,1.2s-1.5,0.4-2.3,0.4c-1.2,0-2.2-0.4-3.1-1.1
			c-0.8-0.7-1.2-1.6-1.2-2.7h1.9c0,0.7,0.2,1.2,0.6,1.6c0.4,0.4,1,0.6,1.7,0.6s1.3-0.1,1.8-0.4C491.6,35.8,491.9,35.4,492,34.9
			L492,34.9z M500.9,38.2c-1.4,0-2.6-0.6-3.4-1.6s-1.2-2.4-1-4l0.1-0.5c0.1-1.2,0.5-2.2,1-3.2s1.2-1.7,2.1-2.2
			c0.8-0.5,1.7-0.7,2.6-0.7c1.2,0,2.1,0.4,2.8,1.2c0.7,0.8,1.1,1.8,1.1,3.1v1.4l-0.1,0.9h-7.6c-0.1,1.1,0,1.9,0.5,2.7
			s1.2,1.1,2.1,1.1c1.1,0,2.2-0.5,3.2-1.5l1.1,0.9c-0.5,0.7-1.1,1.3-1.9,1.6C502.7,38,501.8,38.2,500.9,38.2L500.9,38.2z
			 M502.1,27.8c-0.8,0-1.5,0.3-2.1,0.8s-1.1,1.4-1.4,2.5h5.7v-0.2c0.1-0.9,0-1.7-0.4-2.3C503.5,28.1,502.9,27.8,502.1,27.8
			L502.1,27.8z M514.4,38c-0.1-0.2-0.1-0.4-0.1-0.6v-0.6c-1.1,1-2.2,1.5-3.4,1.4c-1,0-1.9-0.3-2.5-1c-0.6-0.6-0.9-1.4-0.9-2.4
			c0.1-1.2,0.6-2.2,1.6-2.9c1-0.7,2.3-1,4-1h2l0.1-0.9c0.1-0.7-0.1-1.2-0.4-1.6c-0.3-0.4-0.9-0.6-1.5-0.6c-0.7,0-1.3,0.1-1.8,0.5
			c-0.5,0.3-0.8,0.8-0.9,1.3h-2c0.1-0.7,0.3-1.3,0.8-1.8s1.1-0.9,1.8-1.2c0.7-0.3,1.5-0.4,2.3-0.4c1.2,0,2.2,0.4,2.8,1.1
			c0.7,0.7,1,1.6,0.8,2.8l-0.9,5.8l-0.1,0.8c0,0.4,0,0.8,0.1,1.2v0.2h-1.8V38z M511.3,36.5c0.6,0,1.2-0.1,1.8-0.4
			c0.6-0.3,1-0.7,1.4-1.3l0.4-2.4h-1.5c-1.2,0-2.2,0.2-2.8,0.6c-0.7,0.4-1,0.9-1.1,1.6c-0.1,0.5,0.1,1,0.4,1.4
			C510.3,36.3,510.7,36.5,511.3,36.5L511.3,36.5z M526.2,28.1l-0.9-0.1c-1.2,0-2.2,0.6-2.9,1.7L521,38h-2l2-11.6h1.9l-0.3,1.4
			c0.8-1.1,1.8-1.6,2.9-1.6c0.2,0,0.5,0.1,0.9,0.2L526.2,28.1L526.2,28.1z M531,36.6c0.7,0,1.3-0.2,1.9-0.6c0.6-0.4,0.9-1,1.1-1.6
			h1.8c-0.1,0.7-0.4,1.4-0.9,2s-1.1,1.1-1.8,1.4c-0.7,0.3-1.5,0.5-2.2,0.5c-1,0-1.8-0.3-2.5-0.8s-1.2-1.2-1.5-2.1
			c-0.3-0.9-0.4-1.9-0.3-3l0.1-0.5c0.1-1.1,0.5-2.1,1-3s1.2-1.6,2-2.1s1.7-0.7,2.8-0.7c1.2,0,2.2,0.4,2.9,1.2s1.1,1.8,1.1,3h-1.8
			c0-0.8-0.2-1.4-0.6-1.8c-0.4-0.5-1-0.7-1.7-0.7c-1,0-1.8,0.4-2.5,1.1s-1.1,1.9-1.3,3.2v0.3c0,0.5-0.1,0.9,0,1.4
			c0,0.8,0.3,1.5,0.7,2S530.3,36.6,531,36.6z M541,27.8c1-1.1,2.2-1.7,3.5-1.6c1.1,0,1.9,0.4,2.4,1.1s0.7,1.8,0.6,3.1l-1.3,7.6h-1.9
			l1.3-7.6v-1c-0.1-1-0.7-1.5-1.8-1.5c-1.2,0-2.2,0.6-3.1,1.9l-1.4,8.3h-1.9l2.9-16.5h1.9L541,27.8z"/>
	</g>
	<g>
		<path fill="#5F5F5F" d="M230.1,70.9c0.1-1.3,0.9-2.5,2.4-3.6l1.2-0.8l-0.5-0.8c-0.5-0.9-0.7-1.8-0.7-2.6c0.1-1.2,0.5-2.1,1.3-2.9
			c0.8-0.7,1.7-1.1,2.9-1c1,0,1.8,0.3,2.4,0.9c0.6,0.6,0.9,1.4,0.9,2.3c-0.1,1.2-0.8,2.4-2.3,3.4l-1.6,1.1l2.7,4.1
			c0.7-1,1.1-2,1.2-3.1h1.7c-0.2,1.8-0.8,3.4-1.9,4.6l1.7,2.6h-2.2l-0.8-1.2c-1.2,1-2.6,1.4-4.1,1.4c-1.4,0-2.4-0.4-3.3-1.2
			C230.4,73.2,230,72.1,230.1,70.9L230.1,70.9z M234.6,73.6c1,0,2-0.4,3.1-1.2l-2.9-4.6l-0.5,0.3c-1.3,0.9-2,1.8-2.1,2.7
			c-0.1,0.8,0.1,1.4,0.5,1.9S233.7,73.6,234.6,73.6z M234.5,63c-0.1,0.6,0.1,1.3,0.5,2l0.3,0.5l1.6-1.1c0.8-0.6,1.2-1.2,1.3-2
			c0-0.5-0.1-0.8-0.4-1.1c-0.3-0.3-0.7-0.5-1.2-0.5c-0.6,0-1.1,0.2-1.5,0.6C234.8,61.8,234.6,62.4,234.5,63L234.5,63z M248.8,75
			l2.7-15.6h4.1c1.3,0,2.4,0.3,3.3,1s1.6,1.5,2,2.6s0.5,2.4,0.4,3.8l-0.1,0.8c-0.3,2.3-1.2,4.1-2.7,5.5s-3.3,2-5.5,2h-4.2L248.8,75z
			 M253.2,61l-2.1,12.3h2c1.5,0,2.8-0.5,3.9-1.4s1.7-2.2,2.1-3.9c0.2-1.3,0.3-2.4,0.3-3.4c-0.1-1.1-0.5-2-1.1-2.6s-1.5-1-2.5-1
			H253.2L253.2,61z M264.7,75h-1.9l2-11.6h1.9L264.7,75z M266.3,59.1c0.3,0,0.6,0.1,0.8,0.3c0.2,0.2,0.3,0.5,0.3,0.8
			s-0.1,0.6-0.3,0.8s-0.5,0.3-0.8,0.3s-0.6-0.1-0.8-0.3s-0.3-0.5-0.3-0.8s0.1-0.6,0.3-0.8C265.7,59.3,265.9,59.1,266.3,59.1z
			 M275,71.9c0.1-0.8-0.3-1.4-1.3-1.7l-2-0.6c-1.7-0.6-2.5-1.6-2.5-2.9c0-1,0.5-1.9,1.4-2.5c0.9-0.7,1.9-1,3.1-1s2.1,0.4,2.9,1
			c0.7,0.7,1.1,1.5,1.1,2.6h-1.9c0-0.6-0.2-1.1-0.5-1.4c-0.4-0.4-0.9-0.6-1.5-0.6c-0.7,0-1.3,0.2-1.7,0.5c-0.5,0.3-0.7,0.7-0.8,1.3
			c-0.1,0.7,0.3,1.2,1.2,1.5l1,0.3c1.3,0.3,2.3,0.8,2.8,1.3s0.8,1.2,0.8,2.1c0,0.7-0.3,1.4-0.7,1.9s-1,0.9-1.7,1.2
			c-0.7,0.3-1.5,0.4-2.3,0.4c-1.2,0-2.2-0.4-3.1-1.1c-0.8-0.7-1.2-1.6-1.2-2.7h1.9c0,0.7,0.2,1.2,0.6,1.6s1,0.6,1.7,0.6
			s1.3-0.1,1.8-0.4C274.7,72.8,275,72.4,275,71.9L275,71.9z M286.2,71.9c0.1-0.8-0.3-1.4-1.3-1.7l-2-0.6c-1.7-0.6-2.5-1.6-2.5-2.9
			c0-1,0.5-1.9,1.4-2.5c0.9-0.7,1.9-1,3.1-1s2.1,0.4,2.9,1c0.7,0.7,1.1,1.5,1.1,2.6H287c0-0.6-0.2-1.1-0.5-1.4
			c-0.4-0.4-0.9-0.6-1.5-0.6c-0.7,0-1.3,0.2-1.7,0.5c-0.5,0.3-0.7,0.7-0.8,1.3c-0.1,0.7,0.3,1.2,1.2,1.5l1,0.3
			c1.3,0.3,2.3,0.8,2.8,1.3s0.8,1.2,0.8,2.1c0,0.7-0.3,1.4-0.7,1.9s-1,0.9-1.7,1.2c-0.7,0.3-1.5,0.4-2.3,0.4c-1.2,0-2.2-0.4-3.1-1.1
			c-0.8-0.7-1.2-1.6-1.2-2.7h1.9c0,0.7,0.2,1.2,0.6,1.6s1,0.6,1.7,0.6s1.3-0.1,1.8-0.4C285.8,72.8,286.1,72.4,286.2,71.9L286.2,71.9
			z M295.1,75.2c-1.4,0-2.6-0.6-3.4-1.6s-1.2-2.4-1-4l0.1-0.5c0.1-1.2,0.5-2.2,1-3.2s1.2-1.7,2.1-2.2c0.8-0.5,1.7-0.7,2.6-0.7
			c1.2,0,2.1,0.4,2.8,1.2c0.7,0.8,1.1,1.8,1.1,3.1v1.4l-0.1,0.9h-7.6c-0.1,1.1,0,1.9,0.5,2.7s1.2,1.1,2.1,1.1c1.1,0,2.2-0.5,3.2-1.5
			l1.1,0.9c-0.5,0.7-1.1,1.3-1.9,1.6C296.9,75,296,75.2,295.1,75.2L295.1,75.2z M296.3,64.8c-0.8,0-1.5,0.3-2.1,0.8
			s-1.1,1.4-1.4,2.5h5.7v-0.2c0.1-0.9,0-1.7-0.4-2.3C297.7,65.1,297.1,64.8,296.3,64.8L296.3,64.8z M305.3,63.4l-0.2,1.3
			c1-1,2.2-1.5,3.5-1.5c0.7,0,1.4,0.2,1.9,0.5c0.5,0.3,0.9,0.8,1.1,1.4c1.1-1.3,2.4-1.9,3.9-1.9c1.2,0,2,0.4,2.6,1.2
			c0.6,0.8,0.8,1.8,0.6,3l-1.3,7.6h-1.9l1.3-7.7v-1c-0.1-1-0.8-1.5-1.9-1.5c-0.7,0-1.4,0.2-1.9,0.7c-0.6,0.5-0.9,1.1-1.1,1.8
			l-1.3,7.7h-2l1.3-7.6c0.1-0.8,0-1.4-0.4-1.8s-0.9-0.7-1.6-0.7c-1.2,0-2.2,0.5-2.9,1.7l-1.5,8.5h-1.9l2-11.6L305.3,63.4L305.3,63.4
			z M322.4,75h-1.9l2-11.6h1.9L322.4,75z M324,59.1c0.3,0,0.6,0.1,0.8,0.3c0.2,0.2,0.3,0.5,0.3,0.8s-0.1,0.6-0.3,0.8
			s-0.5,0.3-0.8,0.3s-0.6-0.1-0.8-0.3s-0.3-0.5-0.3-0.8s0.1-0.6,0.3-0.8C323.4,59.3,323.7,59.1,324,59.1z M329.4,63.4l-0.3,1.5
			c1-1.1,2.2-1.7,3.6-1.7c1.1,0,1.9,0.4,2.4,1.1c0.5,0.7,0.7,1.8,0.6,3.1l-1.3,7.6h-1.9l1.3-7.6v-1c-0.1-1-0.7-1.5-1.8-1.5
			c-1.2,0-2.2,0.6-3.1,1.9l-1.4,8.3h-1.9l2-11.6L329.4,63.4L329.4,63.4z M344.6,75c-0.1-0.2-0.1-0.4-0.1-0.6v-0.6
			c-1.1,1-2.2,1.5-3.4,1.4c-1,0-1.9-0.3-2.5-1c-0.6-0.6-0.9-1.4-0.9-2.4c0.1-1.2,0.6-2.2,1.6-2.9c1-0.7,2.3-1,4-1h2l0.1-0.9
			c0.1-0.7-0.1-1.2-0.4-1.6s-0.9-0.6-1.5-0.6c-0.7,0-1.3,0.1-1.8,0.5c-0.5,0.3-0.8,0.8-0.9,1.3h-2c0.1-0.7,0.3-1.3,0.8-1.8
			s1.1-0.9,1.8-1.2c0.7-0.3,1.5-0.4,2.3-0.4c1.2,0,2.2,0.4,2.8,1.1c0.7,0.7,1,1.6,0.8,2.8l-0.9,5.8l-0.1,0.8c0,0.4,0,0.8,0.1,1.2
			v0.2h-1.8V75z M341.5,73.5c0.6,0,1.2-0.1,1.8-0.4c0.6-0.3,1-0.7,1.4-1.3l0.4-2.4h-1.5c-1.2,0-2.2,0.2-2.8,0.6
			c-0.7,0.4-1,0.9-1.1,1.6c-0.1,0.5,0.1,1,0.4,1.4C340.4,73.3,340.9,73.5,341.5,73.5L341.5,73.5z M354.3,60.6l-0.5,2.8h2.1l-0.3,1.5
			h-2.1l-1.2,7.2v0.5c0,0.6,0.4,0.8,0.9,0.8c0.2,0,0.6,0,0.9-0.1L354,75c-0.5,0.1-0.9,0.2-1.4,0.2c-0.8,0-1.4-0.3-1.7-0.9
			c-0.4-0.6-0.5-1.3-0.5-2.2l1.2-7.2h-2.1l0.3-1.5h2.1l0.5-2.8C352.4,60.6,354.3,60.6,354.3,60.6z M358.4,75h-1.9l2-11.6h1.9
			L358.4,75z M360,59.1c0.3,0,0.6,0.1,0.8,0.3c0.2,0.2,0.3,0.5,0.3,0.8s-0.1,0.6-0.3,0.8s-0.5,0.3-0.8,0.3s-0.6-0.1-0.8-0.3
			s-0.3-0.5-0.3-0.8s0.1-0.6,0.3-0.8C359.3,59.3,359.6,59.1,360,59.1z M368,63.2c1,0,1.8,0.3,2.5,0.8s1.2,1.2,1.5,2.1s0.4,1.9,0.3,3
			v0.2c-0.1,1.1-0.5,2.2-1,3.1s-1.2,1.6-2.1,2.1s-1.8,0.7-2.8,0.7s-1.8-0.3-2.5-0.8s-1.2-1.2-1.5-2.1s-0.4-1.9-0.3-2.9
			c0.1-1.2,0.4-2.3,1-3.2c0.5-1,1.2-1.7,2.1-2.2C366,63.4,367,63.1,368,63.2L368,63.2z M364,69.4c-0.1,0.5-0.1,0.9,0,1.4
			c0.1,0.8,0.3,1.5,0.8,2s1,0.8,1.7,0.8c0.6,0,1.2-0.1,1.8-0.5c0.5-0.3,1-0.9,1.4-1.5c0.4-0.7,0.6-1.5,0.7-2.3
			c0.1-0.7,0.1-1.2,0-1.7c-0.1-0.9-0.3-1.6-0.8-2.1c-0.4-0.5-1-0.8-1.7-0.8c-1,0-1.9,0.4-2.6,1.2c-0.7,0.8-1.1,1.9-1.3,3.2V69.4z
			 M377.7,63.4l-0.3,1.5c1-1.1,2.2-1.7,3.6-1.7c1.1,0,1.9,0.4,2.4,1.1c0.5,0.7,0.7,1.8,0.6,3.1l-1.3,7.6h-1.9l1.3-7.6v-1
			c-0.1-1-0.7-1.5-1.8-1.5c-1.2,0-2.2,0.6-3.1,1.9l-1.4,8.3h-1.9l2-11.6L377.7,63.4L377.7,63.4z M403.3,70c-0.3,1.6-1,2.9-2.2,3.8
			s-2.6,1.4-4.2,1.4c-1,0-1.8-0.3-2.5-0.7c-0.7-0.5-1.3-1.1-1.7-2c-0.4-0.9-0.6-1.8-0.7-2.8c0-0.6,0-1.2,0.1-1.7l0.2-1.3
			c0.3-2.3,1.2-4.2,2.5-5.6c1.3-1.4,2.9-2,4.8-2c1.5,0,2.6,0.5,3.5,1.4s1.3,2.2,1.4,3.8h-2c-0.1-2.2-1-3.4-2.6-3.5h-0.4
			c-1.4,0-2.5,0.5-3.4,1.5s-1.5,2.5-1.8,4.3l-0.2,1.6l-0.1,0.9c0,1.3,0.2,2.4,0.7,3.1c0.5,0.8,1.3,1.2,2.3,1.2c1.1,0,2-0.2,2.7-0.8
			s1.3-1.5,1.6-2.7L403.3,70L403.3,70z M410.1,75.2c-1.4,0-2.6-0.6-3.4-1.6s-1.2-2.4-1-4l0.1-0.5c0.1-1.2,0.5-2.2,1-3.2
			s1.2-1.7,2.1-2.2c0.8-0.5,1.7-0.7,2.6-0.7c1.2,0,2.1,0.4,2.8,1.2c0.7,0.8,1.1,1.8,1.1,3.1v1.4l-0.1,0.9h-7.6
			c-0.1,1.1,0,1.9,0.5,2.7s1.2,1.1,2.1,1.1c1.1,0,2.2-0.5,3.2-1.5l1.1,0.9c-0.5,0.7-1.1,1.3-1.9,1.6C411.9,75,411.1,75.2,410.1,75.2
			L410.1,75.2z M411.3,64.8c-0.8,0-1.5,0.3-2.1,0.8s-1.1,1.4-1.4,2.5h5.7v-0.2c0.1-0.9,0-1.7-0.4-2.3
			C412.7,65.1,412.1,64.8,411.3,64.8L411.3,64.8z M420.3,63.4l-0.3,1.5c1-1.1,2.2-1.7,3.6-1.7c1.1,0,1.9,0.4,2.4,1.1
			c0.5,0.7,0.7,1.8,0.6,3.1l-1.3,7.6h-1.9l1.3-7.6v-1c-0.1-1-0.7-1.5-1.8-1.5c-1.2,0-2.2,0.6-3.1,1.9l-1.4,8.3h-1.9l2-11.6
			L420.3,63.4L420.3,63.4z M433.5,60.6l-0.5,2.8h2.1l-0.3,1.5h-2.1l-1.2,7.2v0.5c0,0.6,0.4,0.8,0.9,0.8c0.2,0,0.6,0,0.9-0.1
			l-0.2,1.6c-0.5,0.1-0.9,0.2-1.4,0.2c-0.8,0-1.4-0.3-1.7-0.9c-0.4-0.6-0.5-1.3-0.5-2.2l1.2-7.2h-2.1l0.3-1.5h2.1l0.5-2.8h2
			L433.5,60.6z M440.5,75.2c-1.4,0-2.6-0.6-3.4-1.6s-1.2-2.4-1-4l0.1-0.5c0.1-1.2,0.5-2.2,1-3.2s1.2-1.7,2.1-2.2
			c0.8-0.5,1.7-0.7,2.6-0.7c1.2,0,2.1,0.4,2.8,1.2c0.7,0.8,1.1,1.8,1.1,3.1v1.4l-0.1,0.9H438c-0.1,1.1,0,1.9,0.5,2.7
			s1.2,1.1,2.1,1.1c1.1,0,2.2-0.5,3.2-1.5l1.1,0.9c-0.5,0.7-1.1,1.3-1.9,1.6C442.3,75,441.4,75.2,440.5,75.2L440.5,75.2z
			 M441.7,64.8c-0.8,0-1.5,0.3-2.1,0.8s-1.1,1.4-1.4,2.5h5.7v-0.2c0.1-0.9,0-1.7-0.4-2.3C443,65.1,442.5,64.8,441.7,64.8L441.7,64.8
			z M454.1,65.1l-0.9-0.1c-1.2,0-2.2,0.6-2.9,1.7l-1.4,8.3H447l2-11.6h1.9l-0.3,1.4c0.8-1.1,1.8-1.6,2.9-1.6c0.2,0,0.5,0.1,0.9,0.2
			C454.4,63.4,454.1,65.1,454.1,65.1z"/>
	</g>
</g>
</svg>
