<svg xmlns="http://www.w3.org/2000/svg" viewBox="0 0 439.5 60.8"><g fill="#1E3160"><path d="M234 13.8h1.5l.2.3.4.6.1.1.1.1.3.4.1.1.3.4.1.1.3.5.1.1.1.1.1.1.2.2.4.6.1.1.1.1.1.1.1.1.1.1.1.1.1.1.1.1.1.1.1.1.1.1.1.1.1.1.1.1.1.1.2-.4.1-.1.3-.5.1-.1.3-.4.1-.1.1-.1.2-.4.1-.1.2-.4.1-.1.1-.1.3-.5.1-.1.3-.5.1-.1.1-.1.1-.1.1-.1.1-.1.1-.1.1-.1.1-.1.1-.1.1-.1.3-.5h1.5v10.9h-1.4V16l-.1.1-.1.1-.2.2-.1.1-.2.2-.1.1-.2.3-.1.1-.4.6-.1.1-.1.1-.1.1-.1.1-.1.1-.1.1-.1.1-.1.1-.1.1-.2.2-.1.1-.2.3-.2.2-.1.1-.1.1-.1.1-.2.2-.1.1-.2.2-.1.1-.2.2-.1.1-.1.1h-.1l-.1-.1-.1-.1-.2-.2-.1-.1-.6-.9-.3-.5-.1-.1-.2-.3-.1-.1-.2-.3-.1-.1-.7-1-.3-.4-.1-.1-.3-.5-.1-.1-.1-.1-.2-.2-.1-.1-.1-.1v8.5H234V13.8zM254 24.7h-1.4v-1.2l-.4.4-.1.1-.1.1-.1.1-.1.1-.3.1-.4.2-.3.1h-.2l-.3.1H248.9l-.3-.1-.3-.1-.2-.1-.1-.1-.1-.1-.1-.1-.1-.1-.1-.1-.1-.1-.2-.2-.2-.2-.2-.3-.1-.1-.1-.2v-1.2l.1-.4.1-.1.1-.1.1-.1.2-.2.1-.1.2-.2.3-.2.3-.1.1-.1.4-.1.4-.1h1.5l.6.1.4.1h.4l.4.1V19.6l-.1-.3v-.1l-.1-.1-.1-.1-.1-.1-.1-.1-.1-.1-.1-.1-.1-.1-.1-.1-.1-.1-.1-.1-.1-.1H249l-.3.1-.3.1h-.1l-.1.1-.2.1-.1.1v-.1l-.1-.1-.1-.3-.1-.1v-.1l-.1-.2v-.1l.3-.1h.1l.1-.1.3-.1.1-.1H248.7l.4-.1h.1l.8-.1h1.9l.3.1.1.1.1.1.2.1.2.2.1.1.2.2.2.2.1.2.1.2.1.1.1.3v.5l.1.6v4.7zm-4-1h.8l.3-.1.6-.2.1-.1.1-.1.1-.1.3-.3.1-.1.2-.2.1-.1.1-.3V21h-.1l-.3-.1h-.1l-.3-.1-.3-.1-.6-.1H250l-.3.1-.4.1-.3.2-.1.1-.1.1-.1.1-.1.1-.2.2-.1.1-.1.1-.1.3V22.8l.1.1.1.1.2.2.3.2.1.1h.1l.3.1H249.6l.4.1zM256.6 16.6h1.4v1.9l.1-.1.1-.1.1-.1.1-.1.1-.1.1-.1.1-.1.1-.1.1-.1.1-.1.1-.1.1-.1.1-.1.1-.1.2-.1.1-.1.1-.1.1-.1.4-.1h1v1.3h-.7l-.3.1h-.2l-.1.1-.2.1-.1.1-.5.4-.2.2-.2.2-.1.1-.1.1-.1.1-.3.7v4.5h-1.4v-8zM263.1 16.6h1.4v1.9l.1-.1.1-.1.1-.1.1-.1.1-.1.1-.1.1-.1.1-.1.1-.1.1-.1.1-.1.1-.1.1-.1.1-.1.2-.1.1-.1.1-.1.1-.1.4-.1h1v1.3h-.7l-.3.1h-.2l-.1.1-.2.1-.1.1-.5.4-.2.2-.2.2-.1.1-.1.1-.1.1-.3.7v4.5h-1.4v-8zM269.5 13.6h1.6V15h-1.6v-1.4zm.1 3h1.4v8.1h-1.4v-8.1zM280.5 24.7h-1.4v-1.2l-.4.4-.1.1-.1.1-.1.1-.1.1-.3.1-.4.2-.3.1h-.2l-.3.1H275.4l-.3-.1-.3-.1-.2-.1-.1-.1-.1-.1-.1-.1-.1-.1-.1-.1-.1-.1-.2-.2-.2-.2-.2-.3-.1-.1-.1-.2v-1.2l.1-.4.1-.1.1-.1.1-.1.2-.2.1-.1.2-.2.3-.2.3-.1.1-.1.4-.1.4-.1h1.5l.6.1.4.1h.4l.4.1V19.6l-.1-.3v-.1l-.1-.1-.1-.1-.1-.1-.1-.1-.1-.1-.1-.1-.1-.1-.1-.1-.1-.1-.1-.1-.1-.1H275.5l-.3.1-.3.1h-.1l-.1.1-.2.1-.1.1v-.1l-.1-.1-.1-.3-.1-.1v-.1l-.1-.2v-.1l.3-.1h.1l.1-.1.3-.1.1-.1H275.2l.4-.1h.1l.8-.1h1.9l.3.1.1.1.1.1.2.1.2.2.1.1.2.2.2.2.1.2.1.2.1.1.1.3v.5l.1.6v4.7zm-4.1-1h.8l.3-.1.6-.2.1-.1.1-.1.1-.1.3-.3.1-.1.2-.2.1-.1.1-.3V21h-.1l-.3-.1h-.1l-.3-.1-.3-.1-.6-.1h-1.1l-.3.1-.4.1-.1.1-.1.1-.1.1-.1.1-.1.1-.2.2-.1.1-.1.1-.1.3V22.7l.1.1.1.1.2.2.3.2.1.1h.1l.3.1H276.2l.2.2zM289.4 16.6h1.4V24.2l-.1.5-.1.3-.1.1-.1.1v.1l-.1.1-.1.1-.3.4-.1.1-.1.1-.3.3-.1.1-.2.1-.3.1-.3.1h-.5l-.4.1-.6.1h-.6l-.8-.1-.4-.1h-.4l-.6-.2-.4-.2-.1-.1-.1-.1-.1-.1-.1-.1-.3-.2-.1.2.2-.4.1-.2.2-.3.1-.1.1.1.3.2.3.1.3.1.3.1h.1l.2.1H285.5l.4.1h1.5l.3-.1.3-.1.1-.1h.1l.2-.1.1-.1.2-.2.1-.1.2-.2.1-.1.1-.1.1-.1.1-.1.1-.3v-1.9l-.1.1-.1.1-.1.1-.1.1-.1.1-.1.1-.2.2-.1.1-.1.1-.4.2-.4.2-.3.1-.4.3h-.8l-.5-.1h-.5l-.1-.1h-.1l-.3-.1-.4-.2-.1-.1-.1-.1-.1-.1-.3-.3-.2-.2-.1-.1-.1-.1-.2-.3-.1-.1-.1-.3-.1-.3v-.4l-.1-.6v-.4l.1-.6V19.2l.2-.5.3-.5.2-.2.2-.2.3-.3.1-.1.2-.2.2-.1.1-.1.1-.1.1-.1.3-.1h2.1l.3.1h.1l.2.1.6.4.2.2.2.2.1.1.1.1.1.1v-1.4zm-2.9 6.2h.6l.3-.1h.2l.1-.1h.2l.1-.1.1-.1.4-.2.2-.2.2-.2.1-.1.1-.1.1-.3.1-.1.1-.2v-.1l.1-.3v-.8l-.1-.3v-.2l-.1-.1-.1-.1-.1-.3-.1-.1-.3-.3-.1-.1-.1-.1-.5-.3-.1-.1-.2-.1-.3-.1H285.9l-.3.1-.2.1-.3.1-.2.1-.1.1-.2.2-.1.1-.2.2-.2.3-.1.3v.1l-.1.5v.8l.1.4v.1l.1.3.2.4.1.1.1.1.1.1.3.3.1.1.1.1.1.1h.1l.1.1h1.1zM297.3 24.9H296.2l-.4-.1-.3-.1-.1-.1-.3-.1-.4-.3-.1-.1-.2-.2-.1-.1-.2-.2-.1-.1-.1-.1-.1-.1-.2-.3-.2-.5-.1-.3V19.9l.1-.5v-.1l.1-.3v-.1l.1-.3.1-.1.1-.1.1-.1.1-.1.1-.1.2-.2.1-.1.2-.2.1-.1.4-.3.2-.2.1-.1.3-.1.4-.1.4-.1h1.3l.4.1.3.1.3.1.1.1.1.1.5.3.1.1.1.1.3.3.1.1.2.3.1.1.2.4.1.3.1.3.1.4V21.3h-6.3v.5l.1.3v.1l.3.5.3.3.1.1.1.1.3.2.3.1.3.1H298.3l.4-.2.1-.1.1-.1.2-.2.3-.3.1-.1.2.2.2.2.1.1.1.1.1.1.1.1-.3.3-.1.1-.1.1-.5.4-.1.1-.1.1-.1.1-.1.1-.1.1-.1.1-.3.1-.4.1H297.4l-.1-.2zm-.2-7.3h-.7l-.2.1h-.1l-.1.1-.3.1-.1.1-.1.1-.1.1-.3.3-.2.3-.2.3-.1.2V20.1h4.9v-.3l-.1-.3V19.2l-.1-.1-.1-.2-.1-.1-.3-.4-.1-.1-.1-.1-.1-.1-.3-.2-.1-.1-.4-.1h-.1l-.5-.1zM309.1 16.5V16.8l.1.2v.1l.1.1.1.1.1.1.2.2.1.1.3.2.4.2H312.1l.5.1h.4l.5.2.4.2.1.1.2.1.2.1.1.1.1.1.3.3.1.6.1.1.1.1.1.1.1.1.1.1v.2l.1.3v1l-.1.4v.1l-.1.1v.1l-.1.1-.1.1-.1.1-.1.1-.1.1-.3.3-.4.3-.3.1-.4.2-.3.1h-.1l-.3.1h-1.5l-.7-.1-.7-.1h-.1l-.4-.1-.3-.1h-.1l-.1-.1-.1-.1-.1-.1-.1-.1-.1-.1-.1-.1-.1-.1-.1-.1-.5-.4-.2-.2.1-.1.1-.1.1-.1.1-.1.2-.2.1-.1.1-.1.1-.1.2.2.1.1.1.1.1.1.1.1.1.1.2.1.6.3.1.1h.1l.1.1H310.5l.3.1H312.7l.4-.1.1-.1.2-.1.2-.2.2-.2.1-.1.1-.1v-.2l.1-.3V20.8l-.1-.1-.1-.1-.1-.1-.1-.1-.4-.2-.5-.2h-.1l-.3-.1-.5-.1-.2-.1h-1l-.5-.1h-.1l-.4-.1H309.4l-.3-.1-.1-.1-.1-.1-.2-.1-.3-.3-.1-.1-.1-.1-.2-.3-.2-.4-.1-.1-.1-.3v-1.1l.1-.4.1-.2.1-.3.1-.3.1-.1.1-.1.1-.1.1-.1.2-.2.1-.1.1-.1.1-.1.4-.2.3-.1H311.4l.6.1H312.3l.3.1.3.1h.1l.5.2.3.1.4.2.1.1.1.1.5.4-.4.6-.1.1-.1.1-.2.2-.1-.1-.4-.3-.5-.3-.2-.1h-.1l-.1-.1-.1-.1h-.5l-.3-.1h-1l-.3.1h-.1l-.3.1-.3.1-.1.1-.1.1-.1.1-.1.1-.1.1-.1.1V16.5h-.1zM318.2 17.8h-1.1v-1.2h1.1v-2.4h1.4v2.4h2.5v1.2h-2.5v5l.1.3.1.1.1.1.1.1.1.1.1.1H320.9l.4-.1h.1l.1-.1.2-.1v1.2l-.1.1-.1.1-.3.1H320l-.4-.1-.1-.1h-.1l-.1-.1-.2-.2-.2-.2-.1-.1-.1-.1-.1-.1-.1-.1-.1-.2-.1-.1-.1-.4v-5.2zM324.2 16.6h1.4v1.9l.1-.1.1-.1.1-.1.1-.1.1-.1.1-.1.1-.1.1-.1.1-.1.1-.1.1-.1.1-.1.1-.1.1-.1.2-.1.1-.1.1-.1.1-.1.4-.1h1v1.3h-.7l-.3.1h-.2l-.1.1-.2.1-.1.1-.5.4-.2.2-.2.2-.1.1-.1.1-.1.1-.3.7v4.5h-1.4v-8zM334.1 24.9H333l-.4-.1-.3-.1-.1-.1-.3-.1-.4-.3-.1-.1-.2-.2-.1-.1-.2-.2-.1-.1-.1-.1-.1-.1-.2-.3-.2-.5-.2-.5v-2.1l.1-.5v-.1l.1-.3v-.1l.1-.3.1-.1.1-.1.1-.1.1-.1.1-.1.2-.2.1-.1.2-.2.1-.1.4-.3.2-.2.1-.1.3-.1.4-.1.4-.1h1.3l.4.1.3.1.3.1.1.1.1.1.5.3.1.1.1.1.3.3.1.1.2.3.1.1.2.4.1.3.1.3.1.4V21.3h-6.3v.5l.1.3v.1l.3.5.3.3.1.1.1.1.3.2.3.1.3.1H335l.4-.2.1-.1.1-.1.4-.2.3-.3.1-.1.2.2.2.2.1.1.1.1.1.1.1.1-.3.3-.1.1-.1.1-.5.4-.1.1-.1.1-.1.1-.1.1-.1.1-.1.1-.3.1-.4.1H334.3l-.2-.2zm-.2-7.3h-.7l-.2.1h-.1l-.1.1-.3.1-.1.1-.1.1-.1.1-.3.3-.2.3-.2.3-.1.2V20.1h4.9v-.3l-.1-.3V19.2l-.1-.1-.1-.2-.1-.1-.3-.4-.1-.1-.1-.1-.1-.1-.3-.2-.1-.1-.4-.1h-.1l-.5-.1zM339.7 16.6h1.4V18l.1-.1.2-.2.2-.2.2-.2.1-.1.1-.1.1-.1.1-.1.1-.1.2-.1.1-.1h.2l.4-.1h1l.4.1h.2l.4.2.1.1.1.1.2.2.1.1.1.1.2.2.1.1.1.1.2.4v.2l.1.3v5.8h-1.4V18.9l-.1-.3-.1-.1-.1-.2-.1-.1-.1-.1-.1-.1-.1-.1-.2-.2-.1-.1-.1-.1h-1.2l-.3.1-.3.1-.3.1-.2.2-.1.1-.2.2-.1.1-.1.1-.1.1-.1.1-.1.1-.1.1-.1.4v5.1h-1.4v-7.8zM355.9 16.6h1.4V24.2l-.1.5-.1.3h-.1l-.1.1v.1l-.1.1-.1.1-.3.4-.1.1-.1.1-.3.3-.1.1-.2.1-.3.1-.3.1h-.5l-.4.1-.6.1h-.6l-.8-.1-.4-.1h-.4l-.6-.2-.4-.2-.1-.1-.1-.1-.1-.1-.1-.1-.3-.2.1-.1.2-.4.1-.2.2-.3.1-.1.1.1.3.2.3.1.3.1.3.1h.1l.2.1H352.2l.4.1h1.5l.3-.1.3-.1.1-.1h.1l.2-.1.1-.1.2-.2.1-.1.2-.2.1-.1.1-.1.1-.1.1-.1.1-.3v-1.9l-.1.1-.1.1-.1.1-.1.1-.1.1-.1.1-.2.2-.1.1-.1.1-.4.2-.4.2-.3.1-.4.1h-.8l-.5-.1h-.5l-.1-.1h-.1l-.3-.1-.4-.2-.1-.1-.1-.1-.1-.1-.3-.3-.2-.2-.1-.1-.1-.1-.2-.3-.1-.1-.1-.3-.1-.3v-.4l-.1-.6v-.4l.1-.6V18.6l.2-.5.3-.5.2-.2.2-.2.3-.3.1-.1.2-.2.2-.1.1-.1.1-.1.1-.1.3-.1h2.1l.3.1h.1l.2.1.6.4.2.2.2.2.1.1.1.1.1.1v-.8zm-2.9 6.2h.6l.3-.1h.2l.1-.1h.2l.1-.1.1-.1.4-.2.2-.2.2-.2.1-.1.1-.1.1-.3.1-.1.1-.2v-.1l.1-.3v-.8l-.1-.3v-.2l-.1-.1-.1-.1-.1-.3-.1-.1-.3-.3-.1-.1-.1-.1-.5-.3-.1-.1-.2-.1-.3-.1H352.4l-.3.1-.2.1-.3.1-.2.1-.1.1-.2.2-.1.1-.2.2-.2.3-.1.3v.1l-.1.5v.8l.1.4v.1l.1.3.2.4.1.1.1.1.1.1.3.3.1.1.1.1.1.1h.1l.1.1h1.1zM360.4 17.8h-1.1v-1.2h1.1v-2.4h1.4v2.4h2.5v1.2h-2.5v5l.1.3.1.1.1.1.1.1.1.1.1.1H363.1l.4-.1h.1l.1-.1.2-.1v1.2l-.1.1-.1.1-.3.1h-1.1l-.4-.1-.1-.1h-.1l-.1-.1-.2-.2-.2-.2-.1-.1-.1-.1-.1-.1-.1-.1-.1-.2-.1-.1-.1-.4v-5.2zM366.4 13.3h1.4v4.6l.1-.1.2-.2.2-.2.2-.2.1-.1.1-.1.1-.1.1-.1.1-.1.2-.1.1-.1h.2l.4-.1h1l.4.1h.2l.4.2.1.1.1.1.2.2.1.1.1.1.2.2.1.1.1.1.2.4v.2l.1.3v5.8h-1.4V18.8l-.1-.3-.1-.1-.1-.2-.1-.1-.1-.1-.1-.1-.1-.1-.2-.2-.1-.1-.1-.1h-1.2l-.3.1-.3.1-.3.1-.2.2-.1.1-.2.2-.1.1-.1.1-.1.1-.1.1-.1.1-.1.1-.1.4v5.1H366v-11zM380 24.9H378.9l-.4-.1-.3-.1-.1-.1-.3-.1-.4-.3-.1-.1-.2-.2-.1-.1-.2-.2-.1-.1-.1-.1-.1-.1-.2-.3-.2-.5-.1-.3V19.9l.1-.5v-.1l-.1-.3v-.1l.1-.3.1-.1.1-.1.1-.1.1-.1.1-.1.2-.2.1-.1.2-.2.1-.1.4-.3.2-.2.1-.1.3-.1.4-.1.4-.1h1.3l.4.1.3.1.3.1.1.1.1.1.5.3.1.1.1.1.3.3.1.1.2.3.1.1.2.4.1.3.1.3.1.4V21.3h-6.3v.5l.1.3v.1l.3.5.3.3h.2l.1.1.3.2.3.1.3.1H380.9l.4-.2.1-.1.1-.1.2-.2.3-.3.1-.1.2.2.2.2.1.1.1.1.1.1.1.1-.3.3-.1.1-.1.1-.5.4-.1.1-.1.1-.1.1-.1.1-.1.1-.1.1-.3.1-.4.1H380v-.1zm-.2-7.3h-.7l-.2.1h-.1l-.1.1-.3.1-.1.1-.1.1-.1.1-.3.3-.2.3-.2.3-.1.2V20.1h4.9v-.3l-.1-.3V19.2l-.1-.1-.1-.2-.1-.1-.3-.4-.1-.1-.1-.1-.3-.2-.3-.2-.1-.1-.4-.1h-.4zM385.6 16.6h1.4V18l.1-.1.2-.2.2-.2.2-.2.1-.1.1-.1.1-.1.1-.1.1-.1.2-.1.1-.1h.2l.4-.1h1l.4.1h.2l.4.2.1.1.1.1.2.2.1.1.1.1.2.2.1.1.1.1.2.4v.2l.1.3v5.8H391V18.9l-.1-.3-.1-.1-.1-.2-.1-.1-.1-.1-.1-.1-.1-.1-.2-.2-.1-.1-.1-.1h-1.2l-.3.1-.3.1-.3.1-.2.2-.1.1-.2.2-.1.1-.1.1-.1.1-.1.1-.1.1-.1.1-.1.4v5.1h-1.4v-7.8zM395.4 13.6h1.6V15h-1.6v-1.4zm.1 3h1.4v8.1h-1.4v-8.1zM399.7 16.6h1.4V18l.1-.1.2-.2.2-.2.2-.2.1-.1.1-.1.1-.1.1-.1.1-.1.2-.1.1-.1h.2l.4-.1h1l.4.1h.2l.4.2.1.1.1.1.2.2.1.1.1.1.2.2.1.1.1.1.2.4v.2l.1.3v5.8h-1.4V18.9l-.1-.3-.1-.1-.1-.2-.1-.1-.1-.1-.1-.1-.1-.1-.2-.2-.1-.1-.1-.1h-1.2l-.3.1-.3.1-.3.1-.2.2-.1.1-.2.2-.1.1-.1.1-.1.1-.1.1-.1.1-.1.1-.1.4v5.1h-1.4v-7.8zM415.8 16.6h1.4V24.2l-.1.5-.1.3-.1.1-.1.1v.1l-.1.1-.1.1-.3.4-.1.1-.1.1-.3.3-.1.1-.2.1-.3.1-.3.1h-.5l-.4.1-.6.1h-.6l-.8-.1-.4-.1h-.4l-.6-.2-.4-.2-.1-.1-.1-.1-.1-.1-.1-.1-.3-.2.1-.1.2-.4.1-.2.2-.3.1-.1.1.1.3.2.3.1.3.1.3.1h.1l.2.1H412.1l.4.1h1.5l.3-.1.3-.1.1-.1h.1l.2-.1.1-.1.2-.2.1-.1.2-.2.1-.1.1-.1.1-.1.1-.1.1-.3v-1.9l-.1.1-.1.1-.1.1-.1.1-.1.1-.1.1-.2.2-.1.1-.1.1-.4.2-.4.2-.3.1-.4.1h-.8l-.5-.1h-.5l-.1-.1h-.1l-.3-.1-.4-.2-.1-.1-.1-.1-.1-.1-.3-.3-.2-.2-.1-.1-.1-.1-.2-.3-.1-.1-.1-.3-.1-.3v-.4l-.1-.6v-.4l.1-.6V18.7l.2-.5.3-.5.2-.2.2-.2.3-.3.1-.1.2-.2.2-.1.1-.1.1-.1.1-.1.3-.1h2.1l.3.1h.1l.2.1.6.4.2.2.2.2.1.1.1.1.1.1v-.9zm-2.9 6.2h.6l.3-.1h.2l.1-.1h.2l.1-.1.1-.1.4-.2.2-.2.2-.2.1-.1.1-.1.1-.3.1-.1.1-.2v-.1l.1-.3v-.8l-.1-.3v-.2l-.1-.1-.1-.1-.1-.3-.1-.1-.3-.3-.1-.1-.1-.1-.5-.3-.1-.1-.2-.1-.3-.1H412.3l-.3.1-.2.1-.3.1-.2.1-.1.1-.2.2-.1.1-.2.2-.2.3-.1.3v.1l-.1.5v.8l.1.4v.1l.1.3.2.4.1.1.1.1.1.1.3.3.1.1.1.1.1.1h.1l.1.1h1.1z"/></g><g fill="#1E3160"><path d="M234 29.8h6l.1.1h.1l.3.1.3.1.1.1.2.1.3.2.1.1.2.2.3.3.3.4.1.1.2.4.1.1.1.5v1.3l-.1.4-.1.1-.1.2-.1.1-.1.1-.1.1-.1.1-.1.1-.4.4-.2.1-.1.1-.3.1-.1.1h-.1l-.1.1h-.6l.2.2.3.4.1.1.1.1.4.5.6.8.1.1.4.5.3.4.6.9.3.4h-1.7l-.5-.6-.1-.1-.1-.1-.1-.1-.1-.1-.6-.8-.1-.1-.4-.5-.4-.5-.5-.7-.3-.4h-2.9v4.1H234V29.8zm1.4 5.5h4.3l.5-.2.3-.2.1-.1.3-.3.1-.2.1-.1.1-.1V32.6l-.1-.3-.1-.1-.1-.1-.2-.2-.1-.1-.1-.1-.3-.2-.1-.1H239.8l-.3-.1h-4v4zM248.8 40.9H247.7l-.4-.1-.3-.1-.1-.1-.3-.1-.4-.3-.1-.1-.2-.2-.1-.1-.2-.2-.1-.1-.1-.1-.1-.1-.2-.3-.2-.5-.1-.3V35.9l.1-.5v-.1l.1-.3v-.1l.1-.3.1-.1.1-.1.1-.1.1-.1.1-.1.2-.2.1-.1.2-.2.1-.1.4-.3.2-.2.1-.1.3-.1.4-.1.4-.1h1.3l.4.1.3.1.3.1.1.1.1.1.5.3.1.1.1.1.3.3.1.1.2.3.1.1.2.4-.1.2.1.3.1.4V37.2H246v.5l.1.3v.1l.3.5.3.3.1.1.1.1.3.2.3.1.3.1H249.7l.4-.2.1-.1.1-.1.2-.2.3-.3.1-.1.2.2.2.2.1.1.1.1.1.1.1.1-.3.3-.1.1-.1.1-.5.4-.1.1-.1.1-.1.1-.1.1-.1.1-.1.1-.3.1-.4.1h-.4l-.2-.1zm-.2-7.3h-.7l-.2.1h-.1l-.1.1-.3.1-.1.1-.1.1-.1.1-.3.3-.2.3-.2.3-.1.2V36.1h4.9v-.3l-.1-.3V35.2l-.1-.1-.1-.2-.1-.1-.3-.4-.1-.1-.1-.1-.1-.1-.3-.2-.1-.1-.4-.1h-.1l-.5-.1zM257.3 40.8H256.4l-.3-.1h-.4l-.2-.1h-.1l-.2-.1-.1-.1-.2-.1-.4-.2-.1-.1-.5-.3.2-.3.1-.1.2-.2.2-.3.1-.1.1.1.1.1.1.1.3.1.1.1.3.1h.2l.1.1.5.1H257.6l.3-.1.1-.1.2-.1.1-.1.1-.1.2-.2.1-.1V38.1l-.1-.2-.1-.2-.3-.3-.1-.1-.1-.1-.4-.1-.1-.1-.7-.2h-.1l-.7-.2-.3-.1-.4-.2-.5-.3-.2-.2-.2-.2-.1-.1-.1-.1v-.1l-.1-.3V34.4l.1-.3v-.2l.1-.1.1-.1.2-.3.1-.1.1-.1.2-.2.3-.1.3-.1.1-.1H256l.3-.1H257.8l.3.1h.4l.3.1h.2l.1.1.2.1.1.1.3.2.1.1.1.1-.1.1-.1.1-.4.6-.1.1-.3-.2-.1-.1-.1-.1-.1-.1-.1-.1h-.1l-.1-.1-.6-.2H256.4l-.3.1-.1.1-.1.1-.1.1-.1.1-.1.1V34.7l.1.2.1.1.1.1.2.2.2.1.1.1h.2l.4.1h.2l.4.1h.2l.1.1h.1l.1.1h.1l.2.1.4.2.1.1.1.1.1.1.1.1.1.1.3.3.1.3v1.1l.3.6-.1.3-.1.1-.2.4-.1.1-.2.2-.1.1-.1.1-.4.2-.1.1-.4.1H257.5l-.2.1zM266.1 40.9H265l-.4-.1-.3-.1-.1-.1-.3-.1-.4-.3-.1-.1-.2-.2-.1-.1-.2-.2-.1-.1-.1-.1-.1-.1-.2-.3-.2-.5-.2-.5v-2.1l.1-.5v-.1l.1-.3v-.1l.1-.3.1-.1.1-.1.1-.1.1-.1.1-.1.2-.2.1-.1.2-.2.1-.1.4-.3.2-.2.1-.1.3-.1.4-.1.4-.1h1.3l.4.1.3.1.3.1.1.1.1.1.5.3.1.1.1.1.3.3.1.1.2.3.1.1.2.4.1.3.1.3.1.4V37.3h-6.3v.5l.1.3v.1l.3.5.3.3.1.1.1.1.3.2.3.1.3.1H267l.4-.2.1-.1.1-.1.4-.2.3-.3.1-.1.2.2.2.2.1.1.1.1.1.1.1.1-.3.3-.1.1-.1.1-.5.4-.1.1-.1.1-.1.1-.1.1-.1.1-.1.1-.3.1-.4.1H266.3l-.2-.2zm-.2-7.3h-.7l-.2.1h-.1l-.1.1-.3.1-.1.1-.1.1-.1.1-.3.3-.2.3-.2.3-.1.2V36.1h4.9v-.3l-.1-.3V35.2l-.1-.1-.1-.2-.1-.1-.3-.4-.1-.1-.1-.1-.1-.1-.3-.2-.1-.1-.4-.1h-.1l-.5-.1zM278.4 40.7H277v-1.2l-.4.4-.1.1-.1.1-.1.1-.1.1-.3.1-.4.2-.3.1h-.2l-.3.1H273.4l-.3-.1-.3-.1-.2-.1-.1-.1-.1-.1-.1-.1-.1-.1-.1-.1-.1-.1-.2-.2-.2-.2-.2-.3-.1-.1-.1-.2v-1.2l.1-.4.1-.1.1-.1.1-.1.2-.2.1-.1.2-.2.3-.2.3-.1.1-.1.4-.1.4-.1h1.5l.6.1.4.1h.4l.5-.1V35.4l-.1-.3V35l-.1-.1-.1-.1-.1-.1-.1-.1-.1-.1-.1-.1-.1-.1-.1-.1-.1-.2-.1-.1-.1-.1H273.6l-.3.1-.3.1h-.1l-.1.1-.2.1-.1.1v-.1l-.1-.1-.1-.3-.1-.1v-.1l-.1-.2v-.1l.3-.1h.1l.1-.1.3-.1.1-.1H273.3l.4-.1h.1l.8-.1h1.9l.3.1.1.1.1.1.2.1.2.2.1.1.2.2.2.2.1.2.1.2.1.1.1.3v.5l.1.6v5zm-4.1-1h.8l.3-.1.6-.2.1-.1.1-.1.1-.1.3-.3.1-.1.2-.2.1-.1.1-.3V37h-.1l-.3-.1h-.1l-.3-.1-.3-.1-.6-.1h-1.1l-.3.1-.4.1-.1.1-.1.1-.1.1-.1.1-.1.1-.2.2-.1.1-.1.1-.1.3V38.7l.1.1.1.1.2.2.3.2.1.1.1.1.3.1H274.1l.2.1zM280.9 32.6h1.4v1.9l.1-.1.1-.1.1-.1.1-.1.1-.1.1-.1.1-.1.1-.1.1-.1.1-.1.1-.1.1-.1.1-.1.1-.1.2-.1.1-.1.1-.1.1-.1.4-.1h1v1.3h-.7l-.3.1h-.2l-.1.1-.2.1-.1.1-.5.4-.2.2-.2.2-.1.1-.1.1-.1.1-.3.7v4.5h-1.4v-8zM290.9 40.9h-.8l-.5-.1-.4-.1-.3-.1-.1-.1-.1-.1-.1-.1-.4-.3-.3-.3-.3-.3-.1-.1-.1-.1-.1-.2-.1-.1-.1-.3-.2-.4-.1-.3v-.4l-.1-.6v-.3l.1-.6v-.6l.1-.3.1-.3.1-.3.2-.4.2-.2.1-.1.1-.1.1-.1.4-.4.1-.1.3-.2.1-.1.1-.1.1-.1.3-.1H289.5l.5-.1H291.7l.4.1.4.2.1.1.4.2.1.1.1.1.5.5.1.1-.1.1-.1.1-.2.2-.1.1-.2.2-.1.1-.1.1-.1-.1-.1-.1-.1-.1-.1-.1-.2-.2-.1-.1-.1-.1-.1-.1-.4-.2h-1.7l-.3.1-.3.1-.3.2-.1.1-.3.3-.1.1-.1.1-.1.1-.1.1-.1.1-.1.2-.1.1-.1.3V37.1l.1.4.1.1.1.2.3.4.1.1.2.2.1.1.1.1.1.1.3.2.2.1.1.1.3.1.3.1h1.6l.3-.1.1-.1.1-.1.1-.1.1-.1.1-.1.1-.1.1-.1.1-.1.1-.1.1.1.4.4.3.3-.3.3-.3.3-.1.1-.1.1-.1.1-.1.1-.3.1-.1.1-.1.1h-.1l-.2.1-.3.1h-.8v.2zM296.1 29.3h1.4v4.6l.1-.1.2-.2.2-.2.2-.2.1-.1.1-.1.1-.1.1-.1.1-.1.2-.1.1-.1h.2l.4-.1h1l.4.1h.2l.4.2.1.1.1.1.2.2.1.1.1.1.2.2.1.1.1.1.2.4v.2l.1.3v5.8h-1.4V34.8l-.1-.3-.1-.1-.1-.2-.1-.1-.1-.1-.1-.1-.1-.1-.2-.2-.1-.1-.1-.1h-1.2l-.3.1-.3.1-.3.1-.2.2-.1.1-.2.2-.1.1-.1.1-.1.1-.1.1-.1.1-.1.1-.1.4v5.1h-1.4v-11zM313.7 40.8H312.4l-.1-.1h-.2l-.2-.1-.1-.1-.1-.1-.1-.1-.1-.1-.4-.3-.1-.1-.1-.1-.1-.1-.2-.2-.1-.1-.1-.3-.1-.4V37.1l.2-.4.2-.4.3-.3.3-.3.4-.3.3-.1.1-.1.2-.1.3-.1.2-.1-.2-.3-.1-.1-.1-.1-.1-.1-.2-.2-.1-.3-.1-.1-.1-.3v-1.1l.1-.3v-.1l.1-.2.1-.3.1-.3.3-.3.1-.1.4-.3.1-.1.2-.1.1-.1.3-.1.3-.1h1.5l.3.1.3.1.3.1-.4-.2.1.1.1.1.1.1.2.2.1.1.1.1.3.5.1.4v1.2l-.1.4-.1.1-.2.2-.2.2-.2.2-.5.4-.3.2-.1.1-.1.1-.6.3-.2.1.2.2.3.3.1.1.2.2.3.3.1.1.2.2.1.1.1.1.1.1.4.4.1.1.2-.3.1-.1.1-.3.3-.5.2-.4.1-.3.1-.1.1-.1.1-.1.1.1.1.1.1.1.1.1.4.2.1.1-.1.3-.1.1-.1.3-.1.1-.1.1-.1.1-.1.1-.1.1-.1.1-.1.1-.1.1-.1.1-.1.1-.1.1-.1.1-.2.2-.1.1-.1.1.3.3.1.1.1.1.2.2.1.1.2.2.2.2.1.1.1.1.4.4-.8.6-.1.1-.1.1-.1-.1-.1-.1-.2-.2-.2-.2-.1-.1-.1-.1-.8-.8-.2.2-.4.3-.1.1-.1.1-.3.2-.3.2-.5.3-.6.2-.3.1h.3zm-.2-1.2h.6l.3-.1h.2l.3-.1.1-.1.4-.2.4-.3.2-.2.1-.1.1-.1-.6-.7-.2-.2-.1-.1-.2-.2-.1-.1-.2-.2-.1-.1-.2-.2-.1-.1-.1-.1-.1-.1-.6-.7-.2.1-.2.1-.1.1-.2.1-.1.1-.1.1-.2.2-.1.1-.2.2-.1.1-.2.3-.1.3-.1.3v.5l.1.3v.1l.1.1.1.1.1.1.1.1.2.2.1.1.3.2.3.1.3.1h.2l-.1-.1zm2.4-7.3V32l-.1-.3v-.1l-.1-.1-.1-.1-.2-.2-.1-.1-.1-.1-.1-.1-.3-.1-.3-.1h-.6l-.2.1-.1.1-.1.1-.1.1-.1.1-.2.2-.1.1-.1.1v.1l-.1.3v.9l.1.2.2.3.1.1.3.4.1.1.2-.1.2-.1.3-.2.2-.1.1-.1.4-.3.2-.2.1-.1.1-.1.1-.1.1-.1v-.1l.1-.2.2.1zM326.6 40.7V29.8h4.2l.8.1.3.1h.1l.3.1.5.2.1.1.3.1.5.3.1.1.5.4.3.3.5.6.2.4.1.1.1.1.1.1.1.1.1.1v.1l.1.1.1.3v.1l.1.1.1.3V36.4l-.1.1v.4l-.1.1v.1l-.1.2-.3.5-.2.2-.1.1-.3.3-.3.3-.1.1-.1.1-.1.1-.2.2-.1.1-.5.3-.1.1-.3.1-.2.1-.1.1h-.1l-.1.1h-.5l-.3.1-.6.1h-4.7zm1.5-9.6v8.3H331.4l.3-.1.6-.2.2-.1.3-.1.1-.1.1-.1.1-.1.1-.1.3-.3.2-.2.2-.2.1-.1.1-.1.3-.6.1-.1v-.1l.1-.1V34.4l-.1-.3V33.8l-.1-.1v-.2l-.2-.4-.1-.1-.1-.1-.1-.1-.1-.1-.1-.1-.3-.3-.1-.1-.3-.3-.1-.1-.1-.1-.3-.1-.3-.1-.2-.1-.4-.1h-3.5zM338.7 29.6h1.6V31h-1.6v-1.4zm.1 3h1.4v8.1h-1.4v-8.1zM345.9 40.8H345l-.3-.1h-.4l-.2-.1h-.1l-.2-.1-.1-.1-.2-.1-.4-.2-.1-.1-.5-.3.2-.3.1-.1.2-.2.2-.3.1-.1.1.1.1.1.1.1.1.1.3.1.1.1.3.1h.2l.1.1.5.1H346.3l.3-.1.1-.1.2-.1.1-.1.1-.1.2-.2.1-.1V38.2l-.1-.2-.1-.2-.3-.3-.1-.1-.1-.1-.4-.1-.1-.1-.7-.2h-.1l-.7-.2-.3-.1-.4-.2-.5-.3-.2-.2-.2-.2-.1-.1-.1-.1v-.1l-.1-.3V34.5l.1-.3V34l.1-.1.1-.1.2-.3.1-.1.1-.1.2-.2.3-.1.3-.1.1-.1H344.7l.3-.1H346.5l.3.1h.4l.3.1h.2l.1.1.2.1.1.1.3.2.1.1.1.1-.1.1-.1.1-.4.6-.1.1-.3-.2-.1-.1-.1-.1-.1-.1-.1-.1h-.1l-.1-.1-.6-.2H345.1l-.3.1-.1.1-.1.1-.1.1-.1.1-.1.1V34.8l.1.2.1.1.1.1.2.2.2.1.1.1h.2l.4.1h.2l.4.1h.2l.1.1h.1l.1.1h.1l.2.1.4.2.1.1.1.1.1.1.1.1.1.1.3.3.1.3v1.1l-.1.3-.1.3-.1.1-.2.4-.1.1-.2.2-.1.1-.1.1-.4.2-.1.1-.4.1H345.8l.1.3zM353.7 40.8H352.8l-.3-.1h-.4l-.2-.1h-.1l-.2-.1-.1-.1-.2-.1-.4-.2-.1-.1-.5-.3.2-.3.1-.1.2-.2.2-.3.1-.1.1.1.1.1.1.1.1.1.3.1.1.1.3.1h.2l.1.1.5.1H354.1l.3-.1.1-.1.2-.1.1-.1.1-.1.2-.2.1-.1V38.2l-.1-.2h-.1l-.3-.3-.1-.1-.1-.1-.4-.1-.1-.1-.7-.2h-.1l-.7-.2-.3-.1-.4-.2-.5-.3-.3-.3-.2-.2-.1-.1-.1-.1v-.1l-.1-.3V34.6l.1-.3v-.2l.1-.1.1-.1.2-.3.1-.1.1-.1.2-.2.3-.1.3-.1.1-.1H352.4l.3-.1H354.2l.3.1h.4l.3.1h.2l.1.1.2.1.1.1.3.2.1.1.1.1-.1.1-.1.1-.4.6-.1.1-.3-.2-.1-.1-.1-.1-.1-.1V34h-.1l-.1-.1-.6-.2H352.9l-.3.1-.1.1-.1.1-.1.1-.1.1-.1.1V34.9l-.1.1.1.1.1.1.2.2.2.1.1.1h.2l.4.1h.2l.4.1h.2l.1.1h.1l.1.1h.1l.2.1.4.2.1.1.1.1.1.1.1.1.1.1.3.3.1.3v1.1l-.1.3-.1.3-.1.1-.2.4-.1.1-.2.2-.1.1-.1.1-.4.2-.1.1-.4.1H353.4l.3.3zM362.5 40.9H361.4l-.4-.1-.3-.1-.1-.1-.3-.1-.4-.3-.1-.1-.2-.2-.1-.1-.2-.2-.1-.1-.1-.1-.1-.1-.2-.3-.2-.5-.1-.3V35.9l.1-.5v-.1l.1-.3v-.1l.1-.3.1-.1.1-.1.1-.1.1-.1.1-.1.2-.2.1-.1.2-.2.1-.1.1-.5.2-.2.1-.1.3-.1.4-.1.4-.1h1.3l.4.1.3.1.3.1.1.1.1.1.5.3.1.1.1.1.3.3.1.1.2.3.1.1.2.4.1.3.1.3.1.4V37.1h-6.3v.5l.1.3v.1l.3.5.3.3.1.1.1.1.3.2.3.1.3.1H363.2l.4-.2.1-.1.1-.1.2-.2.3-.3.1-.1.2.2.2.2.1.1.1.1.1.1.1.1-.3.3-.1.1-.1.1-.5.4-.1.1-.1.1-.1.1-.1.1-.1.1-.1.1-.3.1-.4.1H362.3h.2zm-.2-7.3h-.7l-.2.1h-.1l-.1.1-.3.1-.1.1-.1.1-.1.1-.3.3-.2.3-.2.3-.1.2V36.1h4.9v-.3l-.1-.3V35.2l-.1-.1-.1-.2-.1-.1-.3-.4-.1-.1-.1-.1-.1-.1-.3-.2-.1-.1-.4-.1h-.1l-.5-.1zM368.1 32.6h1.4v1.3l.1-.1.1-.1.1-.1.1-.1.1-.1.3-.3.1-.1.2-.2.1-.1.1-.1.3-.1.3-.1h1.2l.3.1H373.2l.1.1.1.1.1.1.1.1.1.1.1.1.3.3.2.2.1.1.1.1.1.1.1-.1.1-.1.1-.1.3-.3.1-.1.1-.1.4-.3.2-.1.4-.1h1.5l.5.1H378.7l.1.1.3.1.1.1.1.1.1.1.1.1.1.1.1.1.1.1.1.1.1.1.1.1.1.3v6.7H379v-5.2l-.1-.3-.1-.3V35l-.1-.1-.2-.3-.1-.1-.1-.1-.2-.2-.3-.1H376.8l-.4.1h-.1l-.3.2-.2.2-.1.1-.2.2-.1.1-.1.1-.1.1v5.6h-1.4v-5.2l-.1-.3-.1-.4-.1-.1-.1-.1-.2-.2-.1-.1-.2-.2-.1-.1-.3-.1h-.1l-.3-.1H371l-.3.1-.2.2-.3.3-.1.1-.1.3-.1.3-.1.3v5.4h-1.4v-8.3zM383.1 29.6h1.6V31h-1.6v-1.4zm.1 3h1.4v8.1h-1.4v-8.1zM387.4 32.6h1.4V34l.1-.1.2-.2.2-.2.2-.2.1-.1.1-.1.1-.1.1-.1.1-.1.2-.1.1-.1h.2l.4-.1h1l.4.1h.2l.4.2.1.1.1.1.2.2.1.1.1.1.2.2.1.1.1.1.2.4v.2l.1.3v5.8h-1.4V34.9l-.1-.3-.1-.1-.1-.2-.1-.1-.1-.1-.1-.1-.1-.1-.2-.2-.1-.1-.1-.1h-1.2l-.3.1-.3.1-.3.1-.2.2-.1.1-.2.2-.1.1-.1.1-.1.1.2.4-.1.1-.1.1-.1.4v5.1h-1.4v-8.1zM403.8 40.7h-1.4v-1.2l-.4.4-.1.1-.1.1-.1.1-.1.1-.3.1-.4.2-.3.1h-.2l-.3.1H398.7l-.3-.1-.3-.1-.2-.1-.1-.1-.1-.1-.1-.1-.1-.1-.1-.1-.1-.1-.2-.2-.2-.2-.2-.3-.1-.1-.1-.2v-1.2l.1-.4.1-.1.1-.1.1-.1.2-.2.1-.1.2-.2.3-.2.3-.1.1-.1.4-.1.4-.1h1.5l.6.1.4.1h.4l.4.1V35.6l-.1-.3v-.1l-.1-.1-.1-.1-.1-.1-.1-.1-.1-.1-.1-.1-.1-.1-.1-.1-.1-.1-.1-.1-.1-.1H398.8l-.3.1-.3.1h-.1l-.1.1-.2.1-.1.1v-.1l-.1-.1-.1-.3-.1-.1v-.1l-.1-.2v-.1l.3-.1h.1l.1-.1.3-.1.1-.1H398.5l.4-.1h.1l.8-.1h1.9l.3.1.1.1.1.1.2.1.2.2.1.1.2.2.2.2.1.2.1.2.1.1.1.3v.5l.1.6v4.7zm-4.1-1h.8l.3-.1.6-.2.1-.1.1-.1.1-.1.3-.3.1-.1.2-.2.1-.1.1-.3V37h-.1l-.3-.1h-.1l-.3-.1-.3-.1-.6-.1H399.6l-.3.1-.4.1-.1.1-.1.1-.1.1-.1.1-.1.1-.2.2-.1.1-.1.1-.1.3V38.7l.1.1.1.1.2.2.3.2.1.1.1.1.3.1H399.4l.3.1zM406.7 33.8h-1.1v-1.2h1.1v-2.4h1.4v2.4h2.5v1.2h-2.5v5l.1.3.1.1.1.1.1.1.1.1.1.1H409.4l.4-.1h.1l.1-.1.2-.1v1.2l-.1.1-.1.1-.3.1h-1.2l-.4-.1-.1-.1h-.1l-.1-.1-.2-.2-.2-.2-.1-.1-.1-.1-.1-.1-.1-.1-.1-.2-.1-.1-.1-.4v-5.2zM412.8 29.6h1.6V31h-1.6v-1.4zm.1 3h1.4v8.1h-1.4v-8.1zM421 40.9H419.6l-.3-.1-.1-.1-.2-.1-.1-.1-.1-.1-.3-.2-.2-.2-.1-.1-.1-.1-.3-.3-.2-.2-.2-.2-.1-.3-.1-.1-.1-.1-.2-.4-.1-.3v-.4l-.1-.6v-.3l.1-.6v-.6l.3-.7.1-.1.1-.1.4-.6.3-.3.1-.1.1-.1.4-.3.3-.1.1-.1.1-.1.1-.1.4-.1H421.3l.4.1h.1l.4.1.1.1.1.1.1.1.3.1.2.2.1.1.1.1.1.1.1.1.1.1.1.1.1.1.2.2.2.2.1.1.1.1.1.3.1.1.2.4v.4l.1.6v.3l-.1.6v.5l-.1.1-.1.1v.1l-.2.4-.1.1-.1.1-.1.1-.1.1-.1.1-.4.4-.1.1-.6.4-.3.1-.3.1-.1.1-.4.1-.6.1H420.7l.3.4zm-.2-1.3h.6l.3-.1.3-.1.3-.1.4-.3.3-.3.1-.1.1-.1.1-.1.1-.1.1-.1.1-.2.1-.1v-2.2l-.1-.3-.3-.5-.2-.2-.2-.2-.1-.1-.3-.2-.1-.1-.1-.1-.1-.1-.3-.1-.3-.1h-.7l-.4.1-.3.1-.3.1-.4.3-.1.1-.2.2-.2.2-.3.4-.1.3-.1.1v.1l-.1.3v1l.1.3V37.6l.1.1v.1l.1.1.3.5.3.3.1.1.1.1.4.3.3.1.3.1h.5l-.2.2zM427.3 32.6h1.4V34l.1-.1.2-.2.2-.2.2-.2.1-.1.1-.1.1-.1.1-.1.1-.1.2-.1.1-.1h.2l.4-.1h1l.4.1h.2l.4.2.1.1.1.1.2.2.1.1.1.1.2.2.1.1.1.1.2.4v.2l.1.3v5.8h-1.4V34.9l-.1-.3-.1-.1-.1-.2-.1-.1-.1-.1-.1-.1-.1-.1-.2-.2-.1-.1-.1-.1h-1.2l-.3.1-.3.1-.3.1-.2.2-.1.1-.2.2-.1.1-.1.1-.1.1.3.4-.1.1-.1.1-.1.4v5.1h-1.4v-8.1z"/></g><g fill="#1E3160"><path d="M239.2 56.9H237l-.3-.1-.5-.2-.3-.2-.1-.1-.5-.3-.1-.1-.2-.2-.3-.3-.4-.6-.1-.3-.1-.1-.1-.1-.3-.7-.1-.4-.1-.6V50.8l.1-.6.1-.4.3-.7.3-.5.3-.5.2-.2.3-.3.1-.1.1-.1.1-.1.4-.3.1-.1.3-.1.1-.1.1-.1.1-.1.1-.1h.1l.1-.1.3-.1.7-.1H240.3l.7.2.1.1.2.1.5.3.1.1.4.3.1.1.1.1.2.2.1.1-.4.5-.5.6-.2-.2-.1-.1-.5-.4-.3-.2-.1-.1-.1-.1-.1-.1-.3-.1-.1-.1-.3-.1-.3-.1H238V47H237.7l-.3.1-.3.1-.1.1-.1.1-.1.1-.1.1-.1.1-.4.4-.3.3-.3.5-.1.1-.1.1-.1.1-.1.1v.1l-.1.2-.1.3V52.5l.1.1v.1l.1.1.1.1.1.1.2.2.2.2.1.1.3.3.3.3.2.2.3.7.7.3H238l.4.1H240.2l.3-.1.3-.1.1-.1.1-.1.1-.1.4-.2.1-.1.3-.3.1-.1.1-.1.1-.1.3.3.1.1.1.1.4.4-.1.1-.1.1-.2.2-.1.1-.1.1-.5.4-.5.3-.1.1-.1.1-.1.1h-.1l-.1.1-.3.1-.3.1-.3.1h-.9zM249.1 56.9H248l-.4-.1-.3-.1-.1-.1-.3-.1-.4-.3-.1-.1-.2-.2-.1-.1-.2-.2-.1-.1-.1-.1-.1-.1-.2-.3-.2-.5-.2-.5v-2.1l.1-.5v-.1l.1-.3v-.1l.1-.3.1-.1.1-.1.1-.1.1-.1.1-.1.2-.2.1-.1.2-.2.1-.1.4-.3.2-.2.1-.1.3-.1.4-.1.4-.1h1.3l.4.1.3.1.3.1.1.1.1.1.5.3.1.1.1.1.3.3.1.1.2.3.1.1.2.4.1.3.1.3.1.4V53.3h-6.3v.5l.1.3v.1l.3.5.3.3.1.1.1.1.3.2.3.1.3.1H250l.4-.2.1-.1.1-.1.2-.2.3-.3.1-.1.2.2.2.2.1.1.1.1.1.1.1.1-.3.3-.1.1-.1.1-.5.4-.1.1-.1.1-.1.1-.1.1-.1.1-.1.1-.3.1-.4.1H249.1v-.2zm-.2-7.3h-.7l-.2.1h-.1l-.1.1-.3.1-.1.1-.1.1-.1.1-.3.3-.2.3-.2.3-.1.2V52.1h4.9v-.3l-.1-.3V51.2l-.1-.1-.1-.2-.1-.1-.3-.4-.1-.1-.1-.1-.1-.1-.3-.2-.1-.1-.4-.1h-.1l-.5-.1zM254.7 48.6h1.4V50l.1-.1.2-.2.2-.2.2-.2.1-.1.1-.1.1-.1.1-.1.1-.1.2-.1.1-.1h.2l.4-.1h1l.4.1h.2l.4.2.1.1.1.1.2.2.1.1.1.1.2.2.1.1.1.1.2.4v.2l.1.3v5.8h-1.4V50.9l-.1-.3-.1-.1-.1-.2-.1-.1-.1-.1-.1-.1-.1-.1-.2-.2-.1-.1-.1-.1h-1.2l-.3.1-.3.1-.3.1-.2.2-.1.1-.2.2-.1.1-.1.1-.1.1-.1.1-.1.1-.1.1-.1.4v5.1h-1.4v-7.8zM264.9 49.8h-1.1v-1.2h1.1v-2.4h1.4v2.4h2.5v1.2h-2.5v5l.1.3.1.1.1.1.1.1.1.1.1.1H267.6l.4-.1h.1l.1-.1.2-.1v1.2l-.1.1-.1.1-.3.1h-1.2l-.4-.1-.1-.1h-.1l-.1-.1-.2-.2-.2-.2-.1-.1-.1-.1-.1-.1-.1-.1-.1-.2-.1-.1-.1-.4v-5.2zM274.5 56.9H273.4l-.4-.1-.3-.1-.1-.1-.3-.1-.4-.3-.1-.1-.2-.2-.1-.1-.2-.2-.1-.1-.1-.1-.1-.1-.2-.3-.2-.5-.1-.3V51.9l.1-.5v-.1l.1-.3v-.1l.1-.3.1-.1.1-.1.1-.1.1-.1.1-.1.2-.2.1-.1.2-.2.1-.1.1-.5.2-.2.1-.1.3-.1.4-.1.4-.1h1.3l.4.1.3.1.3.1.1.1.1.1.5.3.1.1.1.1.3.3.1.1.2.3.1.1.2.4.1.3.1.3.1.4V53.1h-6.3v.5l.1.3v.1l.3.5.3.3.1.1.1.1.3.2.3.1.3.1H275.2l.4-.2.1-.1.1-.1.2-.2.3-.3.1-.1.2.2.2.2.1.1.1.1.1.1.1.1-.3.3-.1.1-.1.1-.5.4-.1.1-.1.1-.1.1-.1.1-.1.1-.1.1-.3.1-.4.1H274.3h.2zm-.3-7.3h-.7l-.2.1h-.1l-.1.1-.3.1-.1.1-.1.1-.1.1-.3.3-.2.3-.2.3-.1.2V52.1h4.9v-.3l-.1-.3V51.2l-.1-.1-.1-.2-.1-.1-.3-.4-.1-.1-.1-.1-.1-.1-.3-.2-.1-.1-.4-.1h-.1l-.5-.1zM280.1 48.6h1.4v1.9l.1-.1.1-.1.1-.1.1-.1.1-.1.1-.1.1-.1.1-.1.1-.1.1-.1.1-.1.1-.1.1-.1.1-.1.2-.1.1-.1.1-.1.1-.1.4-.1h1v1.3h-.7l-.3.1h-.2l-.1.1-.2.1-.1.1-.5.4-.2.2-.2.2-.1.1-.1.1-.1.1-.3.7v4.5h-1.4v-8z"/></g><g fill="#1E3160"><path d="M47.2 12.8H57l.3.5.4.5.3.5.3.5.4.5.3.5.3.5.4.5.3.5.3.5.4.5.3.5.3.5.4.5.3.5.3.5.4.5.3.5.3.5.3.5.4.5.3.5.3.5.4.5.3.5.3.5.4.5.3.5.3.5.4.5.3.5.3.5.4.5.3.5.3.5.4.5.3.5.3-.5.4-.5.3-.5.3-.5.4-.5.3-.5.3-.5.4-.5.3-.5.4-.5.3-.5.3-.5.4-.5.3-.5.3-.5.4-.5.3-.5.3-.5-.3-.3.3-.5.3-.5.4-.5.3-.5.3-.5.4-.5.3-.5.3-.5.4-.5.3-.5.4-.5.3-.5.3-.5.4-.5.3-.5.3-.5.4-.5.3-.5H90.6V56.4h-9.1V27.4l-.4.5-.3.5-.4.5-.3.5-.4.5-.3.5-.4.5-.3.5-.4.5-.3.5-.4.5-.3.5-.4.5-.3.5-.4.5-.3.5-.4.5-.3.5-.4.5-.4.5-.3.5-.4.5-.3.5-.4.5-.3.5-.4.5-.3.5-.4.5-.3.5-.4.5-.3.5-.4.5-.3.5-.4.5.4.6-.4.5-.2.5-.4.5h-.2l-.3-.5-.4-.6-.3-.4-.4-.5-.3-.5-.4-.5-.2-.5-.4-.5-.3-.5-.4-.5-.2-.5-.4-.5-.3-.5-.4-.5-.3-.5-.4-.5-.2-.5-.4-.5-.3-.5-.3-.5-.3-.5-.3-.5-.4-.5-.3-.5-.4-.5-.3-.5-.3-.5-.3-.5-.4-.5-.3-.5-.3-.5-.3-.5-.4-.5-.3-.5-.4-.5-.3-.5-.3-.5-.3-.5V56.5H47.2V12.8zM116.9 12.5H125.5l.2.5.2.5.2.5.2.6.2.5.2.5.2.5.2.5.2.5.2.6.2.5.2.5.2.5.2.5.2.5.2.6.2.5.2.5.2.5.2.5.2.5.2.6.2.5.2.5.2.5.2.5.2.5.2.6.2.5.2.5.2.5.2.5.2.5.2.6.2.5.2.5.2.5.2.5.2.5.2.5.2.6.2.5.2.5.2.5.2.5.2.5.2.6.2.5.2.5.2.5.2.5.2.5.2.6.2.5.2.5.2.5.2.5.2.5.2.6.2.5.2.5.2.5.2.5.2.5.2.6.2.5.2.5.2.5.2.5.2.5.2.6.2.5.2.5.2.5.2.5.2.5.2.6.2.5.2.5.2.5h-.6 2.1H134.5l-.2-.5-.2-.5-.2-.6-.2-.5-.2-.5-.2-.5-.2-.6-.2-.5-.2-.5-.2-.5-.2-.5-.2-.6-.2-.5-.2-.5-.2-.5-.2-.6-.2-.5-.2-.5h-19.3l-.2.5-.2.5-.2.6-.2.5-.2.5-.2.5-.2.6-.2.5-.2.5-.2.5-.2.5-.2.6-.2.5-.2.5-.2.5-.2.6-.2.5-.2.5H98.1l.2-.5.2-.5.2-.5.2-.6.2-.5.2-.5.2-.5.2-.5.2-.5.2-.6.2-.5.2-.5.2-.5.2-.5.2-.5.2-.6.2-.5.2-.5.2-.5.2-.5.9 1.5.2-.6.2-.5.2-.5.2-.5.2-.5.2-.5.2-.6.2-.5.2-.5.2-.5.2-.5.2-.5.2-.6.2-.5.2-.5.2-.5.2-.5.2-.5.2-.6.2-.5.2-.5.2-.5.2-.5.2-.5.2-.5.2-.6.2-.5.2-.5.2-.5.2-.5.2-.5.2-.6.2-.5.2-.5.2-.5.2-.5.2-.5L112 24l.2-.5.2-.5.2-.5.2-.5.2-.5.2-.6.2-.5.2-.5.2-.5.2-.5.2-.5.2-.6.2-.5.2-.5.2-.5.2-.5.2-.5.2-.6.2-.5.2-.5.9-1.2zm10.3 25.8l-.2-.5-.2-.5-.2-.5-.2-.6-.2-.5-.2-.5-.2-.5-.2-.5-.2-.5-.2-.5-.2-.6-.2-.5-.2-.5-.2-.5-.2-.5-.2-.5-.2-.6-.2-.5-.2-.5-.2-.5-.2-.5-.2-.5-.2-.5-.2-.6-.2-.5-.2-.5-.2-.5-.2.5-.2.5-.2.5-.2.6-.2.5-.2.5-.2.5-.2.5-.2.5-.2.5-.2.6-.2.5-.2.5-.2.5-.2.5-.2.5-.2.6-.2.5-.2.5-.2.5-.2.5-.2.5-.2.5-.2.6-.2.5-.2.5-.2.5H127.9h-.7zM166.5 57.1h-1.2l-.5-.1-.6-.1h-.6l-.6-.1-.5-.1-.6-.1-.6-.1-.5-.1-.6-.1-.5-.1-.6-.2-.5-.1-.5-.2-.6-.2-.5-.2-.5-.2-.5-.2-.5-.2-.5-.2-.5-.2-.5-.2-.5-.3-.5-.3-.5-.3-.5-.4-.5-.3-.5-.4-.5-.4-.5-.4-.5-.4-.5-.4-.5-.4.4-.5.4-.5.4-.4.4-.5.4-.5.4-.5.4-.5.4-.4.4-.5.4-.5.4-.5.4-.4.4-.5.4-.5-.1.6.5.4.5.4.5.4.5.4.5.3.5.4.5.3.5.3.5.2.5.3.5.2.5.2.5.2.5.2.6.2.5.2.6.1.6.1.6.1.6.1.6.1.9-.1h1.4l.7-.1.7-.1.7-.1.5-.2.5-.2.5-.2.5-.3.5-.4.4-.5.4-.5.2-.5.1-.6.1-.7v-.1l-.1-.6-.1-.6-.2-.5-.3-.5-.5-.5-.5-.5-.5-.2-.5-.2-.5-.3-.6-.2-.7-.2-.5-.2-.5-.1-.5-.2-.5-.2-.6-.1-.6-.2-.7-.2-.7-.2-.7-.2-.7-.2-.7-.2-.6-.2-.6-.2-.6-.2-.6-.2-.5-.2-.5-.2-.5-.2-.6-.2-.6-.2-.5-.2-.5-.2-.5-.3-.5-.2-.5-.3-.4-.4-.4-.3-.5-.4-.4-.4-.4-.4-.4-.5-.4-.5-.4-.5-.3-.5-.2-.5-.2-.5-.2-.5-.1-.5-.2-.6.1-.7-.1-.6-.1-.7-.1-.7v-1.5l.1-.6.1-.7.1-.6.1-.6.1-.5.2-.6.2-.5.2-.5.2-.5.3-.5.3-.5.4-.5.4-.5.4-.4.4-.4.4-.4.5-.4.4-.4.5-.4.5-.3.5-.3.5-.3.5-.3.5-.2.6-.2.7-.2.5-.1.5-.2.6-.1.6-.1.6-.1.7-.1.6-.1h.7l.7-.1h2l.6.1.7.1.6.1.6.1.6.1.5.1.6.1.6.1.5.2.5.1.6.2.5.1.5.2.5.2.5.2.6.2.5.2.5.2.5.3.5.2.5.3.5.4.5.3.5.4.5.4.5.4.5.4-.4.5-.4.5-.3.5-.4.5-.4.5-.4.5-.3.5-.4.5-.4.5-.4.5-.4.5-.3.5-.4.5-.4.5-.5-.4-.5-.4-.5-.4-.5-.3-.5-.4-.5-.2-.5-.3-.5-.2-.5-.3-.5-.2-.5-.2-.6-.2-.6-.2-.5-.2-.6-.1-.5-.1-.6-.1-.5-.1-.6-.1-.5-.1H163.7l-.7.1-.6.1-.5.1-.5.2-.5.2-.4.2-.4.3-.5.4-.4.4-.3.5-.2.5-.1.5-.1.5v.1l.1.7.1.7.2.5.2.4.4.4.4.4.5.4.5.2.5.3.6.2.7.2.7.2.5.2.5.2.5.2.5.1.6.2.7.2.7.2.7.2.7.2.7.2.6.2.7.2.6.2.6.2.5.2.5.2.5.2.5.2.7.3.6.2.5.4.6.3.5.3.5.4.5.4.5.4.4.4.4.4.4.4.4.4.3.5.3.5.2.5.3.5.2.5.2.6.2.5.1.6.1.7.1.6.1.7v1.5l-.1.6-.1.6-.1.6-.1.6-.1.5-.2.5-.1.5-.2.5-.2.5-.3.6-.3.5-.3.5-.4.5-.4.5-.4.4-.4.4-.4.4-.4.4-.5.4-.4.3-.5.3-.5.3-.5.3-.5.2-.5.2-.5.2-.5.2-.6.2-.5.2-.5.1-.5.1-.6.1-.5.1-.6.1-.4-.1-.6.1-.6.1H166.5zM200.8 21.3H187.4V12.8H223.5V21.4H210V56.4H200.7V21.3z"/></g><path fill="#1E3160" d="M24.3 22.2h8.4v34.2h-8.4zM12.1 30.3h8.2v26.2h-8.2zM0 39.3h7.5v17.1H0zM25.9 2.4c-.5.5-3.8 3.8-3.5 8.8.2 5.4 4.2 8.4 4.8 8.8.7-.1-.1 0 .7-.1.8-1.3 2.7-4.9 2.4-8.8-.6-5-4.4-8.7-4.4-8.7"/><path fill="#FFF" d="M28.9 16.1c-2 2-3 4.1-2.3 4.8.7.7 2.8-.4 4.8-2.3 2-2 3-4.1 2.3-4.8-.7-.7-2.8.3-4.8 2.3"/><path fill="#89D2D7" d="M29.9 12.7c-2.4 2.3-3.2 5.7-3.4 6.9.1-.1.2-.3.3-.4l1.1-1.4c.2-.2.4-.5.6-.7.2-.2.4-.4.6-.7.4-.4.9-.8 1.4-1.2 1-.7 2-1.3 3.1-1.8-.9.7-1.8 1.5-2.7 2.3l-1.2 1.2c-.4.4-.8.9-1.1 1.3l-.6.8c-.2.2-.4.5-.6.7-.1.1-.2.2-.3.4 1.3-.2 4.6-.8 6.9-3.1 3-2.9 3.4-7.4 3.4-7.4s-4.5.2-7.5 3.1"/></svg>