<?xml version="1.0" encoding="utf-8"?>
<!-- Generator: Adobe Illustrator 24.1.0, SVG Export Plug-In . SVG Version: 6.00 Build 0)  -->
<svg version="1.1" id="Layer_1" xmlns="http://www.w3.org/2000/svg" xmlns:xlink="http://www.w3.org/1999/xlink" x="0px" y="0px"
	 viewBox="0 0 439.47 60.84" enable-background="new 0 0 439.47 60.84" xml:space="preserve">
<g>
	<path fill="#1E3160" d="M233.97,13.77h1.46l0.16,0.26l0.41,0.62l0.09,0.12l0.07,0.14l0.26,0.36l0.07,0.13l0.26,0.37l0.07,0.12
		l0.33,0.49l0.1,0.12l0.07,0.12l0.07,0.14l0.17,0.23l0.42,0.63l0.07,0.12l0.09,0.12l0.08,0.14l0.09,0.12l0.07,0.12l0.09,0.12
		l0.08,0.13l0.09,0.12l0.07,0.12l0.1,0.13l0.07,0.12l0.09,0.12l0.07,0.12l0.1,0.13l0.07,0.12l0.24-0.37l0.09-0.12l0.33-0.5
		l0.07-0.13l0.26-0.36l0.07-0.14l0.1-0.12l0.23-0.37l0.1-0.12l0.23-0.37l0.1-0.12l0.07-0.14l0.33-0.49l0.07-0.12l0.33-0.49l0.1-0.12
		l0.07-0.13l0.09-0.12l0.07-0.12l0.1-0.12l0.07-0.14l0.09-0.12l0.07-0.12l0.1-0.13l0.07-0.12l0.33-0.5h1.5v10.92h-1.44v-8.55
		l-0.09,0.12l-0.07,0.13l-0.18,0.24l-0.07,0.14L242.46,17l-0.07,0.14l-0.18,0.26l-0.07,0.12l-0.43,0.63l-0.07,0.12l-0.1,0.12
		l-0.09,0.13l-0.07,0.12l-0.1,0.12l-0.09,0.13l-0.07,0.12l-0.09,0.13l-0.1,0.12l-0.16,0.25l-0.1,0.12l-0.16,0.26l-0.17,0.23
		l-0.09,0.14l-0.09,0.12l-0.07,0.12l-0.18,0.25l-0.07,0.14l-0.18,0.24l-0.07,0.13l-0.18,0.24l-0.07,0.13l-0.09,0.12h-0.06l-0.1-0.12
		L239,21.52l-0.18-0.24l-0.08-0.13l-0.6-0.87l-0.33-0.5l-0.09-0.12l-0.16-0.26l-0.1-0.12l-0.16-0.26l-0.1-0.12l-0.67-1.01
		l-0.26-0.37l-0.09-0.12l-0.33-0.5l-0.09-0.12l-0.07-0.14l-0.18-0.23l-0.07-0.14l-0.09-0.12v8.52h-1.39V13.77z"/>
	<path fill="#1E3160" d="M254.04,24.69h-1.39v-1.17l-0.37,0.43l-0.1,0.09l-0.12,0.09l-0.12,0.1l-0.12,0.09l-0.26,0.15l-0.37,0.17
		l-0.26,0.09l-0.15,0.04l-0.3,0.06l-0.15,0.01l-0.17,0.02l-0.16,0.01h-0.3l-0.15-0.01l-0.13-0.02l-0.29-0.03l-0.27-0.06l-0.29-0.09
		l-0.15-0.06l-0.13-0.06l-0.13-0.08L248,24.38l-0.12-0.07l-0.12-0.09l-0.12-0.1l-0.21-0.21l-0.18-0.23l-0.17-0.27l-0.06-0.12
		l-0.09-0.24l-0.04-0.14l-0.03-0.15l-0.02-0.14l-0.01-0.15v-0.35l0.01-0.16l0.02-0.15l0.03-0.16l0.13-0.41l0.06-0.12l0.08-0.14
		l0.08-0.13l0.18-0.24l0.11-0.12l0.23-0.2l0.34-0.23l0.26-0.12l0.14-0.06l0.42-0.13l0.44-0.09l0.14-0.02l0.16-0.01h0.16l0.16-0.01
		h0.47l0.15,0.01h0.16l0.65,0.07l0.41,0.09l0.2,0.04l0.21,0.04l0.45,0.09v-0.44l-0.02-0.18l-0.06-0.31l-0.04-0.14l-0.06-0.14
		l-0.07-0.13l-0.07-0.12l-0.09-0.11l-0.09-0.1l-0.11-0.11l-0.1-0.09l-0.1-0.07l-0.12-0.06l-0.12-0.06l-0.14-0.06l-0.13-0.04
		l-0.15-0.04l-0.15-0.03l-0.17-0.03l-0.33-0.03h-0.34l-0.15,0.01h-0.15l-0.29,0.03l-0.15,0.03l-0.14,0.01l-0.12,0.03l-0.13,0.03
		l-0.28,0.1l-0.29,0.1l-0.14,0.05l-0.13,0.05l-0.16,0.05l-0.13,0.05l-0.04-0.13l-0.06-0.14l-0.09-0.28l-0.06-0.14l-0.04-0.13
		l-0.06-0.15l-0.04-0.13l0.27-0.12l0.13-0.04l0.13-0.05l0.29-0.1l0.14-0.05l0.14-0.04l0.13-0.04l0.15-0.04l0.39-0.09l0.14-0.03
		l0.75-0.07h0.51l0.18,0.01h0.17l0.17,0.03l0.16,0.01l0.17,0.03l0.15,0.03l0.16,0.04l0.13,0.03l0.29,0.11l0.12,0.06l0.14,0.06
		l0.22,0.13l0.23,0.17l0.1,0.09l0.18,0.18l0.17,0.21l0.15,0.23l0.12,0.24l0.07,0.12l0.09,0.27l0.04,0.15l0.03,0.13l0.03,0.15
		l0.06,0.64V24.69z M249.98,23.68h0.29l0.46-0.04l0.27-0.06l0.57-0.22l0.13-0.07l0.12-0.07l0.12-0.09l0.32-0.29l0.07-0.1l0.15-0.25
		l0.06-0.11l0.09-0.26l0.03-0.15l0.01-0.13V21l-0.12-0.04l-0.27-0.06l-0.14-0.03l-0.29-0.07l-0.29-0.06l-0.62-0.06l-0.17-0.01h-0.51
		l-0.33,0.03l-0.15,0.01l-0.3,0.06l-0.38,0.13L249,20.96l-0.1,0.06l-0.09,0.06l-0.14,0.11l-0.1,0.1l-0.17,0.23l-0.06,0.11
		l-0.06,0.13l-0.06,0.29v0.17l0.01,0.18l0.03,0.16l0.04,0.15l0.06,0.13l0.08,0.13l0.21,0.23l0.34,0.23l0.12,0.06l0.13,0.05
		l0.27,0.09l0.15,0.01l0.15,0.03L249.98,23.68z"/>
	<path fill="#1E3160" d="M256.59,16.57h1.39v1.9l0.06-0.13l0.07-0.12l0.06-0.13l0.08-0.12l0.09-0.12l0.07-0.11l0.09-0.11l0.09-0.12
		l0.09-0.1l0.1-0.1l0.11-0.09l0.1-0.1l0.1-0.08l0.12-0.09l0.24-0.14l0.12-0.06l0.12-0.08l0.14-0.06l0.4-0.12l0.15-0.03l0.15-0.01
		l0.15-0.03h0.46v1.34h-0.26l-0.32,0.03l-0.15,0.04l-0.3,0.06l-0.15,0.04l-0.13,0.06l-0.15,0.06l-0.13,0.06l-0.48,0.36l-0.21,0.21
		l-0.18,0.22l-0.09,0.12l-0.07,0.13l-0.08,0.12l-0.29,0.69l-0.03,0.13l-0.04,0.13l-0.03,0.13l-0.01,0.14l-0.03,0.13L258,20.95v0.16
		l-0.01,0.15v3.43h-1.39V16.57z"/>
	<path fill="#1E3160" d="M263.05,16.57h1.39v1.9l0.06-0.13l0.07-0.12l0.06-0.13l0.08-0.12l0.09-0.12l0.07-0.11l0.09-0.11l0.09-0.12
		l0.09-0.1l0.1-0.1l0.11-0.09l0.1-0.1l0.1-0.08l0.12-0.09l0.24-0.14l0.12-0.06l0.12-0.08l0.14-0.06l0.4-0.12l0.15-0.03l0.15-0.01
		l0.15-0.03h0.46v1.34h-0.26l-0.32,0.03l-0.15,0.04l-0.3,0.06l-0.15,0.04l-0.13,0.06l-0.15,0.06l-0.13,0.06l-0.48,0.36l-0.21,0.21
		l-0.18,0.22l-0.09,0.12L265,19.16l-0.08,0.12l-0.29,0.69l-0.03,0.13l-0.04,0.13l-0.03,0.13l-0.01,0.14l-0.03,0.13l-0.03,0.31v0.16
		l-0.01,0.15v3.43h-1.39V16.57z"/>
	<path fill="#1E3160" d="M269.54,13.61h1.57v1.34h-1.57V13.61z M269.64,16.57h1.39v8.12h-1.39V16.57z"/>
	<path fill="#1E3160" d="M280.47,24.69h-1.39v-1.17l-0.37,0.43l-0.1,0.09l-0.12,0.09l-0.12,0.1l-0.12,0.09l-0.26,0.15l-0.37,0.17
		l-0.26,0.09l-0.15,0.04l-0.3,0.06l-0.15,0.01l-0.17,0.02l-0.16,0.01h-0.3l-0.15-0.01l-0.13-0.02l-0.29-0.03l-0.27-0.06l-0.29-0.09
		l-0.15-0.06l-0.13-0.06l-0.13-0.08l-0.14-0.07l-0.12-0.07l-0.12-0.09l-0.12-0.1l-0.21-0.21l-0.18-0.23l-0.17-0.27l-0.06-0.12
		l-0.09-0.24l-0.04-0.14l-0.03-0.15l-0.02-0.14l-0.01-0.15v-0.35l0.01-0.16l0.02-0.15l0.03-0.16l0.13-0.41l0.06-0.12l0.08-0.14
		l0.08-0.13l0.18-0.24l0.11-0.12l0.23-0.2l0.34-0.23l0.26-0.12l0.14-0.06l0.42-0.13l0.44-0.09l0.14-0.02l0.16-0.01h0.16l0.16-0.01
		h0.47l0.15,0.01h0.16l0.65,0.07l0.41,0.09l0.2,0.04l0.21,0.04l0.45,0.09v-0.44l-0.02-0.18l-0.06-0.31l-0.04-0.14l-0.06-0.14
		l-0.07-0.13l-0.07-0.12l-0.09-0.11l-0.09-0.1l-0.11-0.11l-0.1-0.09l-0.1-0.07l-0.12-0.06l-0.12-0.06l-0.14-0.06l-0.13-0.04
		l-0.15-0.04l-0.15-0.03l-0.17-0.03l-0.33-0.03h-0.34l-0.15,0.01h-0.15l-0.29,0.03l-0.15,0.03l-0.14,0.01l-0.12,0.03l-0.13,0.03
		l-0.28,0.1l-0.29,0.1l-0.14,0.05l-0.13,0.05l-0.16,0.05l-0.13,0.05l-0.04-0.13l-0.06-0.14l-0.09-0.28l-0.06-0.14l-0.04-0.13
		l-0.06-0.15l-0.04-0.13l0.27-0.12l0.13-0.04l0.13-0.05l0.29-0.1l0.14-0.05l0.14-0.04l0.13-0.04l0.15-0.04l0.39-0.09l0.14-0.03
		l0.75-0.07h0.51l0.18,0.01h0.17l0.17,0.03l0.16,0.01l0.17,0.03l0.15,0.03l0.16,0.04l0.13,0.03l0.29,0.11l0.12,0.06l0.14,0.06
		L279.2,17l0.23,0.17l0.1,0.09l0.18,0.18l0.17,0.21l0.15,0.23l0.12,0.24l0.07,0.12l0.09,0.27l0.04,0.15l0.03,0.13l0.03,0.15
		l0.06,0.64V24.69z M276.41,23.68h0.29l0.46-0.04l0.27-0.06l0.57-0.22l0.13-0.07l0.12-0.07l0.12-0.09l0.32-0.29l0.07-0.1l0.15-0.25
		l0.06-0.11l0.09-0.26l0.03-0.15l0.01-0.13V21l-0.12-0.04l-0.27-0.06l-0.14-0.03l-0.29-0.07L278,20.74l-0.62-0.06l-0.17-0.01h-0.51
		l-0.33,0.03l-0.15,0.01l-0.3,0.06l-0.38,0.13l-0.12,0.06l-0.1,0.06l-0.09,0.06l-0.14,0.11l-0.1,0.1l-0.17,0.23l-0.06,0.11
		l-0.06,0.13l-0.06,0.29v0.17l0.01,0.18l0.03,0.16l0.04,0.15l0.06,0.13l0.08,0.13l0.21,0.23l0.34,0.23l0.12,0.06l0.13,0.05
		l0.27,0.09l0.15,0.01l0.15,0.03L276.41,23.68z"/>
	<path fill="#1E3160" d="M289.43,16.57h1.39v6.8l-0.02,0.18v0.18l-0.03,0.16l-0.01,0.17l-0.09,0.46l-0.09,0.3l-0.05,0.14l-0.06,0.13
		l-0.04,0.14l-0.07,0.12l-0.06,0.14l-0.32,0.45l-0.11,0.09l-0.09,0.11l-0.31,0.26l-0.1,0.1l-0.24,0.15l-0.27,0.14l-0.27,0.12
		l-0.13,0.04l-0.15,0.04l-0.13,0.04l-0.14,0.04l-0.45,0.09l-0.63,0.06h-0.64l-0.75-0.07l-0.45-0.09l-0.13-0.04l-0.15-0.03
		l-0.13-0.04l-0.56-0.18l-0.4-0.18l-0.14-0.06l-0.13-0.07l-0.12-0.08l-0.13-0.06l-0.26-0.16l0.07-0.14l0.23-0.4l0.07-0.15l0.16-0.26
		l0.07-0.14l0.12,0.09l0.26,0.15l0.27,0.15l0.26,0.12l0.27,0.12l0.13,0.04l0.15,0.07l0.13,0.03l0.14,0.04l0.15,0.03l0.43,0.09
		l0.29,0.03h0.15l0.16,0.01h0.33l0.48-0.04l0.3-0.06l0.29-0.09l0.13-0.07l0.12-0.04l0.23-0.13l0.12-0.09l0.21-0.17l0.09-0.09
		l0.18-0.21l0.08-0.12l0.07-0.12l0.06-0.12l0.06-0.13l0.09-0.29l0.04-0.15l0.03-0.15l0.03-0.17l0.02-0.16l0.01-0.18v-1.03
		l-0.09,0.12l-0.1,0.1l-0.09,0.12l-0.1,0.1l-0.11,0.09l-0.09,0.11l-0.23,0.19l-0.1,0.1l-0.12,0.09l-0.37,0.23l-0.36,0.18l-0.27,0.1
		l-0.43,0.09l-0.46,0.04h-0.32l-0.55-0.06l-0.15-0.03l-0.13-0.04l-0.14-0.04l-0.13-0.04l-0.13-0.06l-0.14-0.04l-0.27-0.12
		l-0.36-0.23l-0.12-0.09l-0.12-0.08l-0.1-0.1l-0.32-0.3l-0.2-0.23l-0.07-0.12l-0.09-0.12l-0.15-0.26l-0.07-0.14l-0.12-0.27
		l-0.09-0.26l-0.03-0.14l-0.04-0.13l-0.03-0.15l-0.06-0.6v-0.36l0.06-0.6l0.03-0.15l0.04-0.14l0.03-0.15l0.23-0.54l0.3-0.51
		l0.18-0.23l0.19-0.21l0.31-0.3l0.12-0.07l0.23-0.17l0.24-0.15l0.14-0.06l0.13-0.07l0.14-0.06l0.26-0.09l0.14-0.03l0.13-0.04
		l0.15-0.03l0.27-0.03l0.15-0.01l0.13-0.02h0.32l0.16,0.02l0.31,0.03l0.15,0.03l0.13,0.03l0.15,0.03l0.27,0.09l0.12,0.04l0.25,0.13
		l0.62,0.44l0.24,0.2l0.21,0.21l0.09,0.13l0.11,0.1l0.09,0.12V16.57z M286.52,22.83h0.29l0.3-0.03l0.3-0.06l0.15-0.04l0.15-0.07
		l0.15-0.04l0.13-0.06l0.14-0.07l0.36-0.24l0.23-0.2l0.19-0.22l0.07-0.11l0.09-0.12l0.15-0.27l0.06-0.13l0.05-0.15l0.04-0.15
		l0.06-0.3l0.01-0.15v-0.36l-0.01-0.16l-0.06-0.3l-0.04-0.15l-0.05-0.15l-0.06-0.14l-0.15-0.27l-0.09-0.12l-0.26-0.33l-0.11-0.1
		l-0.12-0.1l-0.5-0.31l-0.13-0.06l-0.15-0.06l-0.3-0.09l-0.15-0.03l-0.15-0.04l-0.3-0.03h-0.29l-0.3,0.03l-0.15,0.04l-0.15,0.03
		l-0.27,0.09l-0.15,0.06L285.24,18l-0.23,0.15l-0.11,0.09l-0.2,0.2l-0.1,0.1l-0.16,0.23l-0.15,0.26l-0.12,0.27l-0.04,0.15
		l-0.09,0.45l-0.02,0.16v0.36l0.02,0.17l0.09,0.45l0.04,0.14l0.12,0.27l0.23,0.37l0.09,0.1l0.11,0.1l0.1,0.11l0.33,0.27l0.12,0.07
		l0.12,0.06l0.13,0.07l0.14,0.04l0.13,0.07l0.15,0.04l0.13,0.03l0.15,0.03L286.52,22.83z"/>
	<path fill="#1E3160" d="M297.31,24.87h-0.33l-0.15-0.01l-0.15-0.02l-0.3-0.03l-0.13-0.03l-0.15-0.03l-0.41-0.13l-0.29-0.12
		l-0.15-0.06l-0.27-0.15l-0.39-0.27l-0.12-0.1l-0.22-0.21l-0.11-0.09l-0.18-0.23l-0.1-0.11l-0.07-0.12l-0.09-0.12l-0.15-0.26
		l-0.23-0.54l-0.1-0.27l-0.03-0.13l-0.04-0.14l-0.03-0.15l-0.02-0.13l-0.03-0.15l-0.01-0.15v-0.15l-0.02-0.16v-0.33l0.02-0.17v-0.15
		l0.03-0.15l0.01-0.15l0.09-0.45l0.04-0.15l0.11-0.29l0.04-0.14l0.12-0.27l0.08-0.12l0.06-0.13l0.07-0.12l0.09-0.12l0.07-0.12
		l0.18-0.21l0.09-0.12l0.23-0.21l0.1-0.11l0.38-0.29l0.25-0.16l0.14-0.06l0.27-0.14l0.4-0.13l0.43-0.09l0.3-0.03l0.15-0.02h0.31
		l0.16,0.02l0.32,0.03l0.44,0.09l0.29,0.09l0.27,0.12l0.13,0.07l0.15,0.07l0.5,0.34l0.1,0.1l0.12,0.11l0.29,0.34l0.09,0.12
		l0.16,0.26l0.08,0.14l0.21,0.43l0.11,0.3l0.09,0.3l0.09,0.45l0.01,0.15l0.03,0.15l0.02,0.15v0.16l0.01,0.15v0.37l-0.04,0.23h-6.28
		l0.01,0.15l0.03,0.15l0.04,0.13l0.03,0.13l0.09,0.27l0.04,0.12L295,22.6l0.27,0.33l0.1,0.1l0.12,0.1l0.26,0.18l0.29,0.15l0.27,0.1
		l0.14,0.03l0.13,0.04l0.15,0.03l0.26,0.03h0.32l0.45-0.04l0.13-0.03l0.14-0.04l0.13-0.04l0.12-0.03l0.37-0.18l0.12-0.08l0.14-0.07
		l0.23-0.18l0.34-0.3l0.11-0.11l0.21,0.2l0.23,0.18l0.11,0.11l0.1,0.09l0.1,0.1l0.11,0.1l-0.32,0.33l-0.11,0.1l-0.12,0.09
		l-0.47,0.37l-0.13,0.07l-0.12,0.07l-0.14,0.06l-0.12,0.07l-0.14,0.05l-0.13,0.06l-0.27,0.09l-0.45,0.09l-0.17,0.01l-0.17,0.04
		h-0.16L297.31,24.87z M297.1,17.57h-0.31l-0.17,0.01l-0.16,0.03l-0.15,0.05l-0.15,0.04l-0.14,0.06l-0.29,0.15L295.62,18l-0.12,0.1
		l-0.12,0.09l-0.31,0.34l-0.18,0.27l-0.15,0.3l-0.06,0.15l-0.04,0.13l-0.04,0.15l-0.04,0.13l-0.04,0.15l-0.03,0.17l-0.02,0.15h4.91
		l-0.03-0.3l-0.06-0.28l-0.04-0.14l-0.04-0.13l-0.04-0.14L299.08,19l-0.06-0.15l-0.07-0.13l-0.27-0.39l-0.12-0.11l-0.1-0.1
		l-0.12-0.1l-0.26-0.17l-0.14-0.07l-0.39-0.14l-0.15-0.03L297.1,17.57z"/>
	<path fill="#1E3160" d="M309.1,16.49v0.17l0.02,0.14l0.06,0.25l0.04,0.11l0.06,0.1l0.06,0.12l0.1,0.1l0.22,0.19l0.1,0.07l0.35,0.18
		l0.44,0.17l0.13,0.04l0.11,0.03l0.13,0.03l0.13,0.04l0.13,0.04l0.16,0.04l0.14,0.04l0.18,0.05l0.16,0.04l0.16,0.04l0.18,0.05
		l0.55,0.15l0.17,0.04l0.16,0.04l0.45,0.17l0.4,0.18l0.12,0.08l0.24,0.12l0.21,0.15l0.1,0.08l0.09,0.06l0.31,0.32l0.09,0.12
		l0.07,0.11l0.07,0.13l0.07,0.12l0.05,0.14l0.06,0.13l0.04,0.16l0.06,0.3l0.03,0.33v0.36l-0.03,0.3l-0.09,0.44l-0.04,0.14
		l-0.07,0.13l-0.04,0.13l-0.07,0.15l-0.09,0.13l-0.07,0.14l-0.11,0.12l-0.09,0.13l-0.34,0.33l-0.36,0.26l-0.27,0.15l-0.43,0.19
		l-0.3,0.09l-0.13,0.04l-0.3,0.06l-0.15,0.01l-0.15,0.03l-0.16,0.02h-0.15l-0.16,0.01h-0.47l-0.75-0.07l-0.72-0.15l-0.15-0.04
		l-0.4-0.14l-0.27-0.12l-0.14-0.04l-0.13-0.08l-0.14-0.06l-0.12-0.07l-0.13-0.06l-0.14-0.07l-0.12-0.1l-0.12-0.07l-0.13-0.09
		l-0.48-0.36l-0.23-0.21l0.1-0.12l0.09-0.12l0.11-0.1l0.09-0.12l0.2-0.23l0.1-0.11l0.09-0.12l0.11-0.12l0.23,0.2l0.12,0.09l0.12,0.1
		l0.12,0.09l0.12,0.07l0.12,0.1l0.24,0.15l0.62,0.31l0.13,0.06l0.14,0.04l0.13,0.05l0.15,0.04l0.13,0.04l0.3,0.06l0.15,0.01
		l0.16,0.03l0.15,0.01h0.16l0.17,0.01h0.33l0.33-0.03l0.15-0.03l0.15-0.01l0.4-0.13l0.12-0.07l0.24-0.12l0.23-0.18l0.2-0.21
		l0.09-0.12l0.07-0.12l0.04-0.12l0.04-0.14l0.07-0.28v-0.34l-0.04-0.16l-0.03-0.15l-0.04-0.15l-0.07-0.14l-0.09-0.12l-0.12-0.13
		l-0.13-0.12l-0.37-0.23l-0.47-0.2l-0.13-0.04l-0.26-0.07l-0.46-0.13l-0.18-0.05l-0.17-0.05l-0.17-0.05l-0.16-0.05L311,19.76
		l-0.16-0.05l-0.45-0.13l-0.14-0.04l-0.41-0.11l-0.12-0.04l-0.16-0.04l-0.29-0.14l-0.13-0.07l-0.12-0.06l-0.23-0.15l-0.34-0.27
		l-0.12-0.12l-0.1-0.12l-0.18-0.26l-0.21-0.4l-0.05-0.14l-0.06-0.29l-0.03-0.16l-0.03-0.31v-0.37l0.01-0.17l0.09-0.45l0.05-0.15
		l0.12-0.29l0.15-0.26l0.1-0.12l0.09-0.13l0.09-0.11l0.11-0.12l0.23-0.21l0.11-0.09l0.12-0.07l0.1-0.1l0.4-0.21l0.27-0.13l0.15-0.04
		l0.13-0.04l0.14-0.03l0.13-0.04l0.15-0.03l0.13-0.02l0.15-0.03l0.15-0.02h0.15l0.15-0.01h0.5l0.65,0.06l0.15,0.03l0.15,0.01
		l0.3,0.06l0.27,0.09l0.13,0.03l0.53,0.21l0.26,0.13l0.37,0.22l0.12,0.08l0.14,0.07l0.48,0.36l-0.45,0.61l-0.1,0.12l-0.09,0.14
		l-0.18,0.23l-0.12-0.1l-0.39-0.27l-0.51-0.3l-0.24-0.12l-0.13-0.04l-0.12-0.06l-0.14-0.05l-0.13-0.04l-0.15-0.03l-0.13-0.04
		l-0.14-0.01l-0.3-0.06l-0.13-0.01h-0.15l-0.15-0.01h-0.32l-0.3,0.03l-0.3,0.06l-0.13,0.03l-0.3,0.11l-0.27,0.15l-0.1,0.07
		l-0.14,0.12l-0.12,0.11l-0.1,0.13l-0.09,0.14l-0.06,0.14l-0.04,0.16l-0.03,0.14L309.1,16.49z"/>
	<path fill="#1E3160" d="M318.19,17.82h-1.1v-1.25h1.1V14.2h1.39v2.37h2.46v1.25h-2.46v4.69l0.03,0.18l0.03,0.15l0.12,0.26l0.07,0.1
		l0.09,0.09l0.11,0.08l0.1,0.06l0.12,0.06l0.14,0.04l0.15,0.01l0.14,0.03h0.32l0.15-0.01l0.44-0.09l0.13-0.04l0.15-0.06l0.15-0.08
		v1.18l-0.14,0.08l-0.13,0.06l-0.27,0.09l-0.15,0.04l-0.12,0.03l-0.13,0.01l-0.14,0.03h-0.13l-0.15,0.01h-0.32l-0.31-0.03
		l-0.44-0.09l-0.13-0.06l-0.14-0.04l-0.12-0.06l-0.24-0.15l-0.21-0.18l-0.09-0.1l-0.09-0.12l-0.07-0.12l-0.07-0.13l-0.06-0.15
		l-0.06-0.12l-0.09-0.43l-0.03-0.33V17.82z"/>
	<path fill="#1E3160" d="M324.21,16.57h1.39v1.9l0.06-0.13l0.07-0.12l0.06-0.13l0.08-0.12l0.09-0.12l0.07-0.11l0.09-0.11l0.09-0.12
		l0.09-0.1l0.1-0.1l0.11-0.09l0.1-0.1l0.1-0.08l0.12-0.09l0.24-0.14l0.12-0.06l0.12-0.08l0.14-0.06l0.4-0.12l0.15-0.03l0.15-0.01
		l0.15-0.03h0.46v1.34h-0.26l-0.32,0.03l-0.15,0.04l-0.3,0.06l-0.15,0.04l-0.13,0.06l-0.15,0.06l-0.13,0.06l-0.48,0.36l-0.21,0.21
		l-0.18,0.22l-0.09,0.12l-0.07,0.13l-0.08,0.12l-0.29,0.69l-0.03,0.13l-0.04,0.13l-0.03,0.13l-0.01,0.14l-0.03,0.13l-0.03,0.31v0.16
		l-0.01,0.15v3.43h-1.39V16.57z"/>
	<path fill="#1E3160" d="M334.12,24.87h-0.33l-0.15-0.01l-0.15-0.02l-0.3-0.03l-0.13-0.03l-0.15-0.03l-0.41-0.13l-0.29-0.12
		l-0.15-0.06l-0.27-0.15l-0.39-0.27l-0.12-0.1l-0.22-0.21l-0.11-0.09l-0.18-0.23l-0.1-0.11l-0.07-0.12l-0.09-0.12l-0.15-0.26
		l-0.23-0.54l-0.1-0.27l-0.03-0.13l-0.04-0.14l-0.03-0.15l-0.02-0.13l-0.03-0.15l-0.01-0.15v-0.15l-0.02-0.16v-0.33l0.02-0.17v-0.15
		l0.03-0.15l0.01-0.15l0.09-0.45l0.04-0.15l0.11-0.29l0.04-0.14l0.12-0.27l0.08-0.12l0.06-0.13l0.07-0.12l0.09-0.12l0.07-0.12
		l0.18-0.21l0.09-0.12l0.23-0.21l0.1-0.11l0.38-0.29l0.25-0.16l0.14-0.06l0.27-0.14l0.4-0.13l0.43-0.09l0.3-0.03l0.15-0.02h0.31
		l0.16,0.02l0.32,0.03l0.44,0.09l0.29,0.09l0.27,0.12l0.13,0.07l0.15,0.07l0.5,0.34l0.1,0.1l0.12,0.11l0.29,0.34l0.09,0.12
		l0.16,0.26l0.08,0.14l0.21,0.43l0.11,0.3l0.09,0.3l0.09,0.45l0.01,0.15l0.03,0.15l0.02,0.15v0.16l0.01,0.15v0.37l-0.04,0.23h-6.28
		l0.01,0.15l0.03,0.15l0.04,0.13l0.03,0.13l0.09,0.27l0.04,0.12l0.29,0.49l0.27,0.33l0.1,0.1l0.12,0.1l0.26,0.18l0.29,0.15l0.27,0.1
		l0.14,0.03l0.13,0.04l0.15,0.03l0.26,0.03h0.32l0.45-0.04l0.13-0.03l0.14-0.04l0.13-0.04l0.12-0.03l0.37-0.18l0.12-0.08l0.14-0.07
		l0.23-0.18l0.34-0.3l0.11-0.11l0.21,0.2l0.23,0.18l0.11,0.11l0.1,0.09l0.1,0.1l0.11,0.1l-0.32,0.33l-0.11,0.1l-0.12,0.09
		l-0.47,0.37l-0.13,0.07l-0.12,0.07l-0.14,0.06l-0.12,0.07l-0.14,0.05l-0.13,0.06l-0.27,0.09l-0.45,0.09l-0.17,0.01l-0.17,0.04
		h-0.16L334.12,24.87z M333.91,17.57h-0.31l-0.17,0.01l-0.16,0.03l-0.15,0.05l-0.15,0.04l-0.14,0.06l-0.29,0.15L332.43,18l-0.12,0.1
		l-0.12,0.09l-0.31,0.34l-0.18,0.27l-0.15,0.3l-0.06,0.15l-0.04,0.13l-0.04,0.15l-0.04,0.13l-0.04,0.15l-0.03,0.17l-0.02,0.15h4.91
		l-0.03-0.3l-0.06-0.28l-0.04-0.14l-0.04-0.13l-0.04-0.14L335.89,19l-0.06-0.15l-0.07-0.13l-0.27-0.39l-0.12-0.11l-0.1-0.1
		l-0.12-0.1l-0.26-0.17l-0.14-0.07l-0.39-0.14l-0.15-0.03L333.91,17.57z"/>
	<path fill="#1E3160" d="M339.74,16.57h1.39v1.37l0.07-0.12l0.18-0.24l0.21-0.24l0.21-0.21l0.12-0.09l0.12-0.11l0.13-0.09l0.14-0.07
		l0.13-0.08l0.15-0.07l0.15-0.06l0.17-0.04l0.43-0.09l0.15-0.01l0.17-0.02H344l0.15,0.02l0.3,0.03l0.42,0.09l0.12,0.04l0.14,0.04
		l0.4,0.21l0.12,0.07l0.12,0.09l0.21,0.2l0.11,0.09l0.09,0.12l0.18,0.22l0.07,0.14l0.07,0.12l0.18,0.42l0.03,0.13l0.04,0.13
		l0.06,0.27l0.01,0.15l0.03,0.15v0.15l0.01,0.15v5.25h-1.39v-4.87l-0.03-0.33l-0.03-0.16l-0.04-0.15l-0.09-0.27l-0.06-0.13
		l-0.13-0.24l-0.09-0.12l-0.07-0.1l-0.1-0.11l-0.12-0.1l-0.24-0.15l-0.13-0.07l-0.13-0.06l-0.15-0.04l-0.15-0.03l-0.17-0.03
		l-0.16-0.01h-0.34l-0.15,0.01l-0.3,0.06l-0.27,0.09l-0.27,0.12l-0.23,0.17l-0.11,0.09l-0.19,0.21l-0.1,0.12l-0.09,0.12l-0.07,0.13
		l-0.06,0.14l-0.07,0.13l-0.06,0.13l-0.09,0.41l-0.03,0.3v4.76h-1.39V16.57z"/>
	<path fill="#1E3160" d="M355.9,16.57h1.39v6.8l-0.02,0.18v0.18l-0.03,0.16l-0.01,0.17l-0.09,0.46l-0.09,0.3l-0.05,0.14l-0.06,0.13
		l-0.04,0.14l-0.07,0.12l-0.06,0.14l-0.32,0.45l-0.11,0.09l-0.09,0.11l-0.31,0.26l-0.1,0.1l-0.24,0.15l-0.27,0.14l-0.27,0.12
		l-0.13,0.04l-0.15,0.04l-0.13,0.04l-0.14,0.04l-0.45,0.09l-0.63,0.06h-0.64l-0.75-0.07l-0.45-0.09l-0.13-0.04l-0.15-0.03
		l-0.13-0.04l-0.56-0.18l-0.4-0.18l-0.14-0.06l-0.13-0.07l-0.12-0.08l-0.13-0.06l-0.26-0.16l0.07-0.14l0.23-0.4l0.07-0.15l0.16-0.26
		l0.07-0.14l0.12,0.09l0.26,0.15l0.27,0.15l0.26,0.12l0.27,0.12l0.13,0.04l0.15,0.07l0.13,0.03l0.14,0.04l0.15,0.03l0.43,0.09
		l0.29,0.03h0.15l0.16,0.01h0.33l0.48-0.04l0.3-0.06l0.29-0.09l0.13-0.07l0.12-0.04l0.23-0.13l0.12-0.09l0.21-0.17l0.09-0.09
		l0.18-0.21l0.08-0.12l0.07-0.12l0.06-0.12l0.06-0.13l0.09-0.29l0.04-0.15l0.03-0.15l0.03-0.17l0.02-0.16l0.01-0.18v-1.03
		l-0.09,0.12l-0.1,0.1l-0.09,0.12l-0.1,0.1l-0.11,0.09l-0.09,0.11l-0.23,0.19l-0.1,0.1l-0.12,0.09l-0.37,0.23l-0.36,0.18l-0.27,0.1
		l-0.43,0.09L353,24.07h-0.32l-0.55-0.06l-0.15-0.03l-0.13-0.04l-0.14-0.04l-0.13-0.04l-0.13-0.06l-0.14-0.04l-0.27-0.12l-0.36-0.23
		l-0.12-0.09l-0.12-0.08l-0.1-0.1l-0.32-0.3l-0.2-0.23l-0.07-0.12l-0.09-0.12l-0.15-0.26l-0.07-0.14l-0.12-0.27l-0.09-0.26
		l-0.03-0.14l-0.04-0.13l-0.03-0.15l-0.06-0.6v-0.36l0.06-0.6l0.03-0.15l0.04-0.14l0.03-0.15l0.23-0.54l0.3-0.51l0.18-0.23
		l0.19-0.21l0.31-0.3l0.12-0.07l0.23-0.17l0.24-0.15l0.14-0.06l0.13-0.07l0.14-0.06l0.26-0.09l0.14-0.03l0.13-0.04l0.15-0.03
		l0.27-0.03l0.15-0.01l0.13-0.02h0.32l0.16,0.02l0.31,0.03l0.15,0.03l0.13,0.03l0.15,0.03l0.27,0.09l0.12,0.04l0.25,0.13l0.62,0.44
		l0.24,0.2l0.21,0.21l0.09,0.13l0.11,0.1l0.09,0.12V16.57z M353,22.83h0.29l0.3-0.03l0.3-0.06l0.15-0.04l0.15-0.07l0.15-0.04
		l0.13-0.06l0.14-0.07l0.36-0.24l0.23-0.2l0.19-0.22l0.07-0.11l0.09-0.12l0.15-0.27l0.06-0.13l0.05-0.15l0.04-0.15l0.06-0.3
		l0.01-0.15v-0.36l-0.01-0.16l-0.06-0.3l-0.04-0.15l-0.05-0.15l-0.06-0.14l-0.15-0.27l-0.09-0.12l-0.26-0.33l-0.11-0.1l-0.12-0.1
		l-0.5-0.31l-0.13-0.06l-0.15-0.06l-0.3-0.09l-0.15-0.03l-0.15-0.04l-0.3-0.03H353l-0.3,0.03l-0.15,0.04l-0.15,0.03l-0.27,0.09
		l-0.15,0.06L351.72,18l-0.23,0.15l-0.11,0.09l-0.2,0.2l-0.1,0.1l-0.16,0.23l-0.15,0.26l-0.12,0.27l-0.04,0.15l-0.09,0.45
		l-0.02,0.16v0.36l0.02,0.17l0.09,0.45l0.04,0.14l0.12,0.27l0.23,0.37l0.09,0.1l0.11,0.1l0.1,0.11l0.33,0.27l0.12,0.07l0.12,0.06
		l0.13,0.07l0.14,0.04l0.13,0.07l0.15,0.04l0.13,0.03l0.15,0.03L353,22.83z"/>
	<path fill="#1E3160" d="M360.43,17.82h-1.1v-1.25h1.1V14.2h1.39v2.37h2.46v1.25h-2.46v4.69l0.03,0.18l0.03,0.15L362,23.1l0.07,0.1
		l0.09,0.09l0.11,0.08l0.1,0.06l0.12,0.06l0.14,0.04l0.15,0.01l0.14,0.03h0.32l0.15-0.01l0.44-0.09l0.13-0.04l0.15-0.06l0.15-0.08
		v1.18l-0.14,0.08l-0.13,0.06l-0.27,0.09l-0.15,0.04l-0.12,0.03l-0.13,0.01l-0.14,0.03h-0.13l-0.15,0.01h-0.32l-0.31-0.03
		l-0.44-0.09l-0.13-0.06l-0.14-0.04l-0.12-0.06l-0.24-0.15l-0.21-0.18l-0.09-0.1l-0.09-0.12l-0.07-0.12l-0.07-0.13l-0.06-0.15
		l-0.06-0.12l-0.09-0.43l-0.03-0.33V17.82z"/>
	<path fill="#1E3160" d="M366.45,13.3h1.39v4.64l0.07-0.12l0.18-0.24l0.21-0.24l0.21-0.21l0.12-0.09l0.12-0.11l0.13-0.09l0.14-0.07
		l0.13-0.08l0.15-0.07l0.15-0.06l0.17-0.04l0.43-0.09l0.15-0.01l0.17-0.02h0.33l0.15,0.02l0.3,0.03l0.42,0.09l0.12,0.04l0.14,0.04
		l0.4,0.21l0.12,0.07l0.12,0.09l0.21,0.2l0.11,0.09l0.09,0.12l0.18,0.22l0.07,0.14l0.07,0.12l0.18,0.42l0.03,0.13l0.04,0.13
		l0.06,0.27l0.01,0.15l0.03,0.15v0.15l0.01,0.15v5.25h-1.39v-4.87l-0.03-0.33l-0.03-0.16l-0.04-0.15L372,18.9l-0.06-0.13l-0.13-0.24
		l-0.09-0.12l-0.07-0.1l-0.1-0.11l-0.12-0.1l-0.24-0.15l-0.13-0.07l-0.13-0.06l-0.15-0.04l-0.15-0.03l-0.17-0.03l-0.16-0.01h-0.34
		l-0.15,0.01l-0.3,0.06l-0.27,0.09l-0.27,0.12l-0.23,0.17l-0.11,0.09l-0.19,0.21l-0.1,0.12l-0.09,0.12l-0.07,0.13l-0.06,0.14
		l-0.07,0.13l-0.06,0.13l-0.09,0.41l-0.03,0.3v4.76h-1.39V13.3z"/>
	<path fill="#1E3160" d="M379.97,24.87h-0.33l-0.15-0.01l-0.15-0.02l-0.3-0.03l-0.13-0.03l-0.15-0.03l-0.41-0.13l-0.29-0.12
		l-0.15-0.06l-0.27-0.15l-0.39-0.27l-0.12-0.1l-0.22-0.21l-0.11-0.09l-0.18-0.23l-0.1-0.11l-0.07-0.12l-0.09-0.12l-0.15-0.26
		l-0.23-0.54l-0.1-0.27l-0.03-0.13l-0.04-0.14l-0.03-0.15l-0.02-0.13l-0.03-0.15l-0.01-0.15v-0.15l-0.02-0.16v-0.33l0.02-0.17v-0.15
		l0.03-0.15l0.01-0.15l0.09-0.45l0.04-0.15l0.11-0.29l0.04-0.14l0.12-0.27l0.08-0.12l0.06-0.13l0.07-0.12l0.09-0.12l0.07-0.12
		l0.18-0.21l0.09-0.12l0.23-0.21l0.1-0.11l0.38-0.29l0.25-0.16l0.14-0.06l0.27-0.14l0.4-0.13l0.43-0.09l0.3-0.03l0.15-0.02h0.31
		l0.16,0.02l0.32,0.03l0.44,0.09l0.29,0.09l0.27,0.12l0.13,0.07l0.15,0.07l0.5,0.34l0.1,0.1l0.12,0.11l0.29,0.34l0.09,0.12
		l0.16,0.26l0.08,0.14l0.21,0.43l0.11,0.3l0.09,0.3l0.09,0.45l0.01,0.15l0.03,0.15l0.02,0.15v0.16l0.01,0.15v0.37l-0.04,0.23h-6.28
		l0.01,0.15l0.03,0.15l0.04,0.13l0.03,0.13l0.09,0.27l0.04,0.12l0.29,0.49l0.27,0.33l0.1,0.1l0.12,0.1l0.26,0.18l0.29,0.15l0.27,0.1
		l0.14,0.03l0.13,0.04l0.15,0.03l0.26,0.03h0.32l0.45-0.04l0.13-0.03l0.14-0.04l0.13-0.04l0.12-0.03l0.37-0.18l0.12-0.08l0.14-0.07
		l0.23-0.18l0.34-0.3l0.11-0.11l0.21,0.2l0.23,0.18l0.11,0.11l0.1,0.09l0.1,0.1l0.11,0.1l-0.32,0.33l-0.11,0.1l-0.12,0.09
		l-0.47,0.37L382,24.31l-0.12,0.07l-0.14,0.06l-0.12,0.07l-0.14,0.05l-0.13,0.06l-0.27,0.09l-0.45,0.09l-0.17,0.01l-0.17,0.04h-0.16
		L379.97,24.87z M379.77,17.57h-0.31l-0.17,0.01l-0.16,0.03l-0.15,0.05l-0.15,0.04l-0.14,0.06l-0.29,0.15L378.28,18l-0.12,0.1
		l-0.12,0.09l-0.31,0.34l-0.18,0.27l-0.15,0.3l-0.06,0.15l-0.04,0.13l-0.04,0.15l-0.04,0.13l-0.04,0.15l-0.03,0.17l-0.02,0.15h4.91
		l-0.03-0.3l-0.06-0.28l-0.04-0.14l-0.04-0.13l-0.04-0.14L381.75,19l-0.06-0.15l-0.07-0.13l-0.27-0.39l-0.12-0.11l-0.1-0.1
		l-0.12-0.1l-0.26-0.17l-0.14-0.07l-0.39-0.14l-0.15-0.03L379.77,17.57z"/>
	<path fill="#1E3160" d="M385.6,16.57h1.39v1.37l0.07-0.12l0.18-0.24l0.21-0.24l0.21-0.21l0.12-0.09l0.12-0.11l0.13-0.09l0.14-0.07
		l0.13-0.08l0.15-0.07l0.15-0.06l0.17-0.04l0.43-0.09l0.15-0.01l0.17-0.02h0.33l0.15,0.02l0.3,0.03l0.42,0.09l0.12,0.04l0.14,0.04
		l0.4,0.21l0.12,0.07l0.12,0.09l0.21,0.2l0.11,0.09l0.09,0.12l0.18,0.22l0.07,0.14l0.07,0.12l0.18,0.42l0.03,0.13l0.04,0.13
		l0.06,0.27l0.01,0.15l0.03,0.15v0.15l0.01,0.15v5.25h-1.39v-4.87l-0.03-0.33l-0.03-0.16l-0.04-0.15l-0.09-0.27l-0.06-0.13
		l-0.13-0.24l-0.09-0.12l-0.07-0.1l-0.1-0.11l-0.12-0.1l-0.24-0.15l-0.13-0.07l-0.13-0.06l-0.15-0.04l-0.15-0.03l-0.17-0.03
		l-0.16-0.01h-0.34l-0.15,0.01l-0.3,0.06l-0.27,0.09l-0.27,0.12l-0.23,0.17l-0.11,0.09l-0.19,0.21l-0.1,0.12l-0.09,0.12l-0.07,0.13
		l-0.06,0.14l-0.07,0.13l-0.06,0.13l-0.09,0.41l-0.03,0.3v4.76h-1.39V16.57z"/>
	<path fill="#1E3160" d="M395.38,13.61h1.57v1.34h-1.57V13.61z M395.47,16.57h1.39v8.12h-1.39V16.57z"/>
	<path fill="#1E3160" d="M399.68,16.57h1.39v1.37l0.07-0.12l0.18-0.24l0.21-0.24l0.21-0.21l0.12-0.09l0.12-0.11l0.13-0.09l0.14-0.07
		l0.13-0.08l0.15-0.07l0.15-0.06l0.17-0.04l0.43-0.09l0.15-0.01l0.17-0.02h0.33l0.15,0.02l0.3,0.03l0.42,0.09l0.12,0.04l0.14,0.04
		l0.4,0.21l0.12,0.07l0.12,0.09l0.21,0.2l0.11,0.09l0.09,0.12l0.18,0.22l0.07,0.14l0.07,0.12l0.18,0.42l0.03,0.13l0.04,0.13
		l0.06,0.27l0.01,0.15l0.03,0.15v0.15l0.01,0.15v5.25h-1.39v-4.87l-0.03-0.33l-0.03-0.16l-0.04-0.15l-0.09-0.27l-0.06-0.13
		l-0.13-0.24l-0.09-0.12l-0.07-0.1l-0.1-0.11l-0.12-0.1l-0.24-0.15l-0.13-0.07l-0.13-0.06l-0.15-0.04l-0.15-0.03l-0.17-0.03
		l-0.16-0.01h-0.34L403,17.71l-0.3,0.06l-0.27,0.09l-0.27,0.12l-0.23,0.17l-0.11,0.09l-0.19,0.21l-0.1,0.12l-0.09,0.12l-0.07,0.13
		l-0.06,0.14l-0.07,0.13l-0.06,0.13l-0.09,0.41l-0.03,0.3v4.76h-1.39V16.57z"/>
	<path fill="#1E3160" d="M415.83,16.57h1.39v6.8l-0.02,0.18v0.18l-0.03,0.16l-0.01,0.17l-0.09,0.46l-0.09,0.3l-0.05,0.14l-0.06,0.13
		l-0.04,0.14l-0.07,0.12l-0.06,0.14l-0.32,0.45l-0.11,0.09l-0.09,0.11l-0.31,0.26l-0.1,0.1l-0.24,0.15l-0.27,0.14l-0.27,0.12
		l-0.13,0.04l-0.15,0.04l-0.13,0.04l-0.14,0.04l-0.45,0.09l-0.63,0.06h-0.64l-0.75-0.07l-0.45-0.09l-0.13-0.04l-0.15-0.03
		l-0.13-0.04l-0.56-0.18l-0.4-0.18L410,26.52l-0.13-0.07l-0.12-0.08l-0.13-0.06l-0.26-0.16l0.07-0.14l0.23-0.4l0.07-0.15l0.16-0.26
		l0.07-0.14l0.12,0.09l0.26,0.15l0.27,0.15l0.26,0.12l0.27,0.12l0.13,0.04l0.15,0.07l0.13,0.03l0.14,0.04l0.15,0.03l0.43,0.09
		l0.29,0.03h0.15l0.16,0.01h0.33l0.48-0.04l0.3-0.06l0.29-0.09l0.13-0.07l0.12-0.04l0.23-0.13l0.12-0.09l0.21-0.17l0.09-0.09
		l0.18-0.21l0.08-0.12l0.07-0.12l0.06-0.12l0.06-0.13l0.09-0.29l0.04-0.15l0.03-0.15l0.03-0.17l0.02-0.16l0.01-0.18v-1.03
		l-0.09,0.12l-0.1,0.1l-0.09,0.12l-0.1,0.1l-0.11,0.09l-0.09,0.11l-0.23,0.19l-0.1,0.1l-0.12,0.09l-0.37,0.23l-0.36,0.18l-0.27,0.1
		l-0.43,0.09l-0.46,0.04h-0.32l-0.55-0.06l-0.15-0.03l-0.13-0.04l-0.14-0.04l-0.13-0.04l-0.13-0.06l-0.14-0.04l-0.27-0.12
		l-0.36-0.23l-0.12-0.09l-0.12-0.08l-0.1-0.1l-0.32-0.3l-0.2-0.23l-0.07-0.12l-0.09-0.12l-0.15-0.26l-0.07-0.14l-0.12-0.27
		l-0.09-0.26l-0.03-0.14l-0.04-0.13l-0.03-0.15l-0.06-0.6v-0.36l0.06-0.6l0.03-0.15l0.04-0.14l0.03-0.15l0.23-0.54l0.3-0.51
		l0.18-0.23l0.19-0.21l0.31-0.3l0.12-0.07l0.23-0.17l0.24-0.15l0.14-0.06l0.13-0.07l0.14-0.06l0.26-0.09l0.14-0.03l0.13-0.04
		l0.15-0.03l0.27-0.03l0.15-0.01l0.13-0.02h0.32l0.16,0.02l0.31,0.03l0.15,0.03l0.13,0.03l0.15,0.03l0.27,0.09l0.12,0.04l0.25,0.13
		l0.62,0.44l0.24,0.2l0.21,0.21l0.09,0.13l0.11,0.1l0.09,0.12V16.57z M412.93,22.83h0.29l0.3-0.03l0.3-0.06l0.15-0.04l0.15-0.07
		l0.15-0.04l0.13-0.06l0.14-0.07l0.36-0.24l0.23-0.2l0.19-0.22l0.07-0.11l0.09-0.12l0.15-0.27l0.06-0.13l0.05-0.15l0.04-0.15
		l0.06-0.3l0.01-0.15v-0.36l-0.01-0.16l-0.06-0.3l-0.04-0.15l-0.05-0.15l-0.06-0.14l-0.15-0.27l-0.09-0.12l-0.26-0.33l-0.11-0.1
		l-0.12-0.1l-0.5-0.31l-0.13-0.06l-0.15-0.06l-0.3-0.09l-0.15-0.03l-0.15-0.04l-0.3-0.03h-0.29l-0.3,0.03l-0.15,0.04l-0.15,0.03
		l-0.27,0.09l-0.15,0.06L411.65,18l-0.23,0.15l-0.11,0.09l-0.2,0.2l-0.1,0.1l-0.16,0.23l-0.15,0.26l-0.12,0.27l-0.04,0.15
		l-0.09,0.45l-0.02,0.16v0.36l0.02,0.17l0.09,0.45l0.04,0.14l0.12,0.27l0.23,0.37l0.09,0.1l0.11,0.1l0.1,0.11l0.33,0.27l0.12,0.07
		l0.12,0.06l0.13,0.07l0.14,0.04l0.13,0.07l0.15,0.04l0.13,0.03l0.15,0.03L412.93,22.83z"/>
</g>
<g>
	<path fill="#1E3160" d="M233.97,29.77h4.9l0.18,0.01h0.15l0.33,0.03l0.15,0.03l0.15,0.01l0.15,0.03l0.14,0.05l0.15,0.03l0.27,0.09
		l0.3,0.12l0.13,0.08l0.15,0.07l0.26,0.16l0.12,0.08l0.23,0.19l0.3,0.32l0.26,0.36l0.07,0.14l0.18,0.42l0.05,0.14l0.09,0.46
		l0.03,0.32v0.36l-0.01,0.17l-0.01,0.15l-0.01,0.17l-0.03,0.15l-0.14,0.43l-0.06,0.15l-0.07,0.15l-0.07,0.13l-0.09,0.13l-0.09,0.14
		L242,35.14l-0.11,0.12l-0.42,0.37l-0.24,0.15l-0.12,0.08L240.86,36l-0.13,0.06l-0.14,0.04l-0.15,0.07l-0.15,0.04l-0.13,0.04
		L240,36.3l-0.15,0.03l0.18,0.24l0.27,0.36l0.09,0.12l0.09,0.14l0.36,0.48l0.63,0.84l0.07,0.13l0.36,0.48l0.27,0.36l0.63,0.85
		l0.27,0.36h-1.74l-0.45-0.6l-0.07-0.12l-0.09-0.12l-0.1-0.12l-0.09-0.14l-0.63-0.83l-0.07-0.12l-0.36-0.47l-0.37-0.48l-0.52-0.73
		l-0.27-0.36h-2.91v4.09h-1.44V29.77z M235.41,35.29h3.35l0.47-0.04l0.15-0.04l0.15-0.03l0.15-0.04l0.45-0.18l0.26-0.15l0.12-0.09
		l0.31-0.3l0.15-0.24l0.08-0.12l0.06-0.14l0.04-0.13l0.04-0.15l0.03-0.15l0.01-0.15v-0.36l-0.01-0.15l-0.03-0.15l-0.03-0.13
		l-0.09-0.27l-0.07-0.12l-0.07-0.12l-0.18-0.21l-0.11-0.11l-0.1-0.09l-0.31-0.21l-0.12-0.06l-0.14-0.04l-0.12-0.04l-0.14-0.04
		l-0.3-0.06l-0.15-0.04l-0.5-0.04h-3.37V35.29z"/>
	<path fill="#1E3160" d="M248.8,40.87h-0.33l-0.15-0.02l-0.15-0.02l-0.3-0.03l-0.13-0.03l-0.15-0.03l-0.41-0.13l-0.29-0.12
		l-0.15-0.06l-0.27-0.15l-0.39-0.27l-0.12-0.1l-0.22-0.21l-0.11-0.09l-0.18-0.23l-0.1-0.11l-0.07-0.12l-0.09-0.12l-0.15-0.26
		l-0.23-0.54l-0.1-0.27l-0.03-0.13l-0.04-0.14l-0.03-0.15l-0.01-0.13l-0.03-0.15l-0.01-0.15v-0.15l-0.01-0.16v-0.33l0.01-0.17v-0.15
		l0.03-0.15l0.01-0.15l0.09-0.45l0.04-0.15l0.11-0.29l0.04-0.14l0.12-0.27l0.08-0.12l0.06-0.13l0.07-0.12l0.09-0.12l0.07-0.12
		l0.18-0.21l0.09-0.12l0.23-0.21l0.1-0.11l0.38-0.29l0.25-0.16l0.14-0.06l0.27-0.14l0.4-0.13l0.43-0.09l0.3-0.03l0.15-0.02h0.31
		l0.16,0.02l0.32,0.03l0.44,0.09l0.29,0.09l0.27,0.12l0.13,0.07l0.15,0.07l0.5,0.34l0.1,0.1l0.12,0.11l0.29,0.34l0.09,0.12
		l0.16,0.26l0.08,0.14l0.21,0.43l0.11,0.3l0.09,0.3l0.09,0.45l0.01,0.15l0.03,0.15l0.02,0.15v0.16l0.01,0.15v0.37l-0.04,0.23h-6.28
		l0.01,0.15l0.03,0.15l0.04,0.13l0.03,0.13l0.09,0.27l0.04,0.12l0.29,0.49l0.27,0.33l0.1,0.1l0.12,0.1l0.26,0.18l0.29,0.15l0.27,0.1
		l0.14,0.03l0.13,0.04l0.15,0.03l0.26,0.03h0.32l0.45-0.04l0.13-0.03l0.14-0.04l0.13-0.04l0.12-0.03l0.37-0.18l0.12-0.08l0.14-0.07
		l0.23-0.18l0.34-0.3l0.11-0.11l0.21,0.2l0.23,0.18l0.11,0.11l0.1,0.09l0.1,0.1l0.11,0.09l-0.32,0.33l-0.11,0.1l-0.12,0.09
		l-0.47,0.37l-0.13,0.07l-0.12,0.07l-0.14,0.06l-0.12,0.07l-0.14,0.05l-0.13,0.06l-0.27,0.09l-0.45,0.09l-0.17,0.01l-0.17,0.04
		h-0.16L248.8,40.87z M248.59,33.57h-0.31l-0.17,0.01l-0.16,0.03l-0.15,0.05l-0.15,0.04l-0.14,0.06l-0.29,0.15L247.11,34l-0.12,0.1
		l-0.12,0.09l-0.31,0.34l-0.18,0.27l-0.15,0.3l-0.06,0.15l-0.04,0.13l-0.04,0.15l-0.04,0.13l-0.04,0.15l-0.03,0.17l-0.01,0.15h4.91
		l-0.03-0.3l-0.06-0.28l-0.04-0.14l-0.04-0.13l-0.04-0.14L250.57,35l-0.06-0.15l-0.07-0.13l-0.27-0.39l-0.12-0.11l-0.1-0.1
		l-0.12-0.1l-0.26-0.17l-0.14-0.07l-0.39-0.14l-0.15-0.03L248.59,33.57z"/>
	<path fill="#1E3160" d="M257.28,40.83h-0.29l-0.14-0.01h-0.15l-0.15-0.01l-0.15-0.03l-0.14-0.01l-0.3-0.06l-0.15-0.04l-0.15-0.03
		l-0.15-0.04l-0.15-0.07l-0.15-0.04l-0.15-0.06l-0.13-0.06l-0.15-0.06l-0.4-0.21L254.26,40l-0.5-0.34l0.18-0.26l0.07-0.12l0.18-0.23
		l0.16-0.26l0.09-0.12l0.14,0.09l0.13,0.1l0.14,0.07l0.13,0.09l0.28,0.15l0.13,0.07l0.27,0.12l0.15,0.04l0.15,0.06l0.47,0.14
		l0.15,0.03l0.47,0.04h0.31l0.16-0.01l0.3-0.06l0.14-0.05l0.23-0.12l0.12-0.07l0.1-0.1l0.18-0.22l0.06-0.12l0.04-0.12l0.01-0.13
		l0.01-0.15V38.5l-0.01-0.18l-0.06-0.16L258.6,38l-0.3-0.26l-0.14-0.1l-0.1-0.06l-0.37-0.15l-0.14-0.07l-0.74-0.23l-0.14-0.04
		l-0.68-0.21l-0.29-0.1l-0.43-0.21l-0.5-0.34l-0.19-0.21l-0.18-0.24l-0.06-0.1l-0.06-0.12l-0.04-0.14l-0.06-0.27L254.15,35v-0.34
		l0.02-0.15l0.06-0.29l0.03-0.13l0.05-0.14l0.06-0.13l0.08-0.13l0.19-0.27l0.11-0.12l0.12-0.12l0.23-0.2l0.25-0.15l0.28-0.14
		l0.13-0.06l0.15-0.04l0.12-0.04l0.27-0.06l0.29-0.03l0.13-0.01l0.15-0.01h0.3l0.15,0.01h0.15l0.15,0.03l0.17,0.01l0.3,0.06
		l0.15,0.04l0.17,0.03l0.15,0.04l0.3,0.13l0.15,0.04l0.15,0.07l0.15,0.06l0.13,0.06l0.27,0.16l0.13,0.09l0.12,0.07l-0.07,0.14
		l-0.08,0.12l-0.39,0.65l-0.07,0.14l-0.26-0.15l-0.13-0.07l-0.12-0.06l-0.13-0.07l-0.14-0.07l-0.13-0.04l-0.13-0.06l-0.59-0.18
		l-0.15-0.04l-0.3-0.03l-0.13-0.01h-0.33l-0.18,0.03l-0.16,0.03l-0.29,0.09l-0.14,0.07l-0.1,0.07l-0.12,0.11l-0.11,0.12l-0.07,0.12
		l-0.04,0.14l-0.03,0.13l-0.01,0.15v0.03l0.01,0.16l0.05,0.17l0.08,0.13l0.08,0.1l0.21,0.18l0.23,0.14l0.11,0.06l0.14,0.04
		l0.13,0.04l0.44,0.14l0.15,0.05l0.44,0.14l0.13,0.04l0.13,0.04l0.12,0.05l0.13,0.04l0.14,0.06l0.13,0.04l0.15,0.06l0.42,0.21
		l0.13,0.09l0.14,0.07l0.1,0.11l0.12,0.09l0.11,0.1l0.27,0.34l0.12,0.28l0.04,0.15l0.03,0.15l0.03,0.17v0.37l-0.01,0.17L260,39.02
		l-0.09,0.28l-0.06,0.13l-0.23,0.37l-0.09,0.11l-0.2,0.2l-0.1,0.09l-0.12,0.09l-0.39,0.22l-0.13,0.07l-0.44,0.13l-0.13,0.03
		l-0.15,0.03l-0.13,0.01l-0.15,0.03h-0.15L257.28,40.83z"/>
	<path fill="#1E3160" d="M266.1,40.87h-0.33l-0.15-0.02l-0.15-0.02l-0.3-0.03l-0.13-0.03l-0.15-0.03l-0.41-0.13l-0.29-0.12
		l-0.15-0.06l-0.27-0.15l-0.39-0.27l-0.12-0.1l-0.22-0.21l-0.11-0.09l-0.18-0.23l-0.1-0.11l-0.07-0.12l-0.09-0.12l-0.15-0.26
		l-0.23-0.54l-0.1-0.27l-0.03-0.13l-0.04-0.14l-0.03-0.15l-0.02-0.13l-0.03-0.15l-0.01-0.15v-0.15l-0.02-0.16v-0.33l0.02-0.17v-0.15
		l0.03-0.15l0.01-0.15l0.09-0.45l0.04-0.15l0.11-0.29l0.04-0.14l0.12-0.27l0.08-0.12l0.06-0.13l0.07-0.12l0.09-0.12l0.07-0.12
		l0.18-0.21l0.09-0.12l0.23-0.21l0.1-0.11l0.38-0.29l0.25-0.16l0.14-0.06l0.27-0.14l0.4-0.13l0.43-0.09l0.3-0.03l0.15-0.02h0.31
		l0.16,0.02l0.32,0.03l0.44,0.09l0.29,0.09l0.27,0.12l0.13,0.07l0.15,0.07l0.5,0.34l0.1,0.1l0.12,0.11l0.29,0.34l0.09,0.12
		l0.16,0.26l0.08,0.14l0.21,0.43l0.11,0.3l0.09,0.3l0.09,0.45l0.01,0.15l0.03,0.15l0.02,0.15v0.16l0.01,0.15v0.37l-0.04,0.23h-6.28
		l0.01,0.15l0.03,0.15l0.04,0.13l0.03,0.13l0.09,0.27l0.04,0.12l0.29,0.49l0.27,0.33l0.1,0.1l0.12,0.1l0.26,0.18l0.29,0.15l0.27,0.1
		l0.14,0.03l0.13,0.04l0.15,0.03l0.26,0.03h0.32l0.45-0.04l0.13-0.03l0.14-0.04l0.13-0.04l0.12-0.03l0.37-0.18l0.12-0.08l0.14-0.07
		l0.23-0.18l0.34-0.3l0.11-0.11l0.21,0.2l0.23,0.18l0.11,0.11l0.1,0.09l0.1,0.1l0.11,0.09l-0.32,0.33l-0.11,0.1l-0.12,0.09
		l-0.47,0.37l-0.13,0.07l-0.12,0.07l-0.14,0.06l-0.12,0.07l-0.14,0.05l-0.13,0.06l-0.27,0.09l-0.45,0.09l-0.17,0.01l-0.17,0.04
		h-0.16L266.1,40.87z M265.9,33.57h-0.31l-0.17,0.01l-0.16,0.03l-0.15,0.05l-0.15,0.04l-0.14,0.06l-0.29,0.15L264.41,34l-0.12,0.1
		l-0.12,0.09l-0.31,0.34l-0.18,0.27l-0.15,0.3l-0.06,0.15l-0.04,0.13l-0.04,0.15l-0.04,0.13l-0.04,0.15l-0.03,0.17l-0.02,0.15h4.91
		l-0.03-0.3l-0.06-0.28l-0.04-0.14l-0.04-0.13l-0.04-0.14L267.88,35l-0.06-0.15l-0.07-0.13l-0.27-0.39l-0.12-0.11l-0.1-0.1
		l-0.12-0.1l-0.26-0.17l-0.14-0.07l-0.39-0.14l-0.15-0.03L265.9,33.57z"/>
	<path fill="#1E3160" d="M278.36,40.69h-1.39v-1.17l-0.37,0.43l-0.1,0.09l-0.12,0.09l-0.12,0.1l-0.12,0.09l-0.26,0.15l-0.37,0.17
		l-0.26,0.09l-0.15,0.04l-0.3,0.06l-0.15,0.01l-0.17,0.02l-0.16,0.02H274l-0.15-0.02l-0.13-0.02l-0.29-0.03l-0.27-0.06l-0.29-0.09
		l-0.15-0.06l-0.13-0.06l-0.13-0.08l-0.14-0.07l-0.12-0.07l-0.12-0.09l-0.12-0.1l-0.21-0.21l-0.18-0.23l-0.17-0.27l-0.06-0.12
		l-0.09-0.24l-0.04-0.14l-0.03-0.15l-0.02-0.14l-0.01-0.15v-0.35l0.01-0.16l0.02-0.15l0.03-0.16l0.13-0.41l0.06-0.12l0.08-0.14
		l0.08-0.13l0.18-0.24l0.11-0.12l0.23-0.2l0.34-0.23l0.26-0.12l0.14-0.06l0.42-0.13l0.44-0.09l0.14-0.02l0.16-0.01h0.16l0.16-0.01
		h0.47l0.15,0.01h0.16l0.65,0.07l0.41,0.09l0.2,0.04l0.21,0.04l0.45,0.09v-0.44l-0.02-0.18l-0.06-0.31l-0.04-0.14l-0.06-0.14
		l-0.07-0.13l-0.07-0.12l-0.09-0.11l-0.09-0.1l-0.11-0.11l-0.1-0.09l-0.1-0.07L276.05,34l-0.12-0.06l-0.14-0.06l-0.13-0.04
		l-0.15-0.04l-0.15-0.03l-0.17-0.03l-0.33-0.03h-0.34l-0.15,0.01h-0.15l-0.29,0.03l-0.15,0.03l-0.14,0.01l-0.12,0.03l-0.13,0.03
		l-0.28,0.1l-0.29,0.1l-0.14,0.05l-0.13,0.05l-0.16,0.05l-0.13,0.05l-0.04-0.13l-0.06-0.14l-0.09-0.28l-0.06-0.14l-0.04-0.13
		l-0.06-0.15l-0.04-0.13l0.27-0.12l0.13-0.04l0.13-0.05l0.29-0.1l0.14-0.05l0.14-0.04l0.13-0.04l0.15-0.04l0.39-0.09l0.14-0.03
		l0.75-0.07h0.51l0.18,0.01h0.17l0.17,0.03l0.16,0.01l0.17,0.03l0.15,0.03l0.16,0.04l0.13,0.03l0.29,0.11l0.12,0.06l0.14,0.06
		l0.22,0.13l0.23,0.17l0.1,0.09l0.18,0.18l0.17,0.21l0.15,0.23l0.12,0.24l0.07,0.12l0.09,0.27l0.04,0.15l0.03,0.13l0.03,0.15
		l0.06,0.64V40.69z M274.29,39.68h0.29l0.46-0.04l0.27-0.06l0.57-0.22l0.13-0.07l0.12-0.07l0.12-0.09l0.32-0.29l0.07-0.1l0.15-0.25
		l0.06-0.11l0.09-0.26l0.03-0.15l0.01-0.13V37l-0.12-0.04l-0.27-0.06l-0.14-0.03l-0.29-0.07l-0.29-0.06l-0.62-0.06l-0.17-0.01h-0.51
		l-0.33,0.03l-0.15,0.01l-0.3,0.06l-0.38,0.13l-0.12,0.06l-0.1,0.06l-0.09,0.06l-0.14,0.11l-0.1,0.1l-0.17,0.23l-0.06,0.11
		l-0.06,0.13l-0.06,0.29v0.17l0.01,0.18l0.03,0.16l0.04,0.15l0.06,0.13l0.08,0.13l0.21,0.23l0.34,0.23l0.12,0.06l0.13,0.05
		l0.27,0.08l0.15,0.01l0.15,0.03L274.29,39.68z"/>
	<path fill="#1E3160" d="M280.91,32.57h1.39v1.9l0.06-0.13l0.07-0.12l0.06-0.13l0.08-0.12l0.09-0.12l0.07-0.11l0.09-0.11l0.09-0.12
		l0.09-0.1l0.1-0.1l0.11-0.09l0.1-0.1l0.1-0.08l0.12-0.09l0.24-0.14l0.12-0.06l0.12-0.08l0.14-0.06l0.4-0.12l0.15-0.03l0.15-0.01
		l0.15-0.03h0.46v1.34h-0.26l-0.32,0.03l-0.15,0.04l-0.3,0.06l-0.15,0.04l-0.13,0.06l-0.15,0.06l-0.13,0.06l-0.48,0.36l-0.21,0.21
		l-0.18,0.22l-0.09,0.12l-0.07,0.13l-0.08,0.12l-0.29,0.69l-0.03,0.13l-0.04,0.13l-0.03,0.13l-0.01,0.14l-0.03,0.13l-0.03,0.31v0.16
		l-0.01,0.15v3.43h-1.39V32.57z"/>
	<path fill="#1E3160" d="M290.93,40.87h-0.33l-0.17-0.02l-0.15-0.02l-0.15-0.01l-0.46-0.09l-0.42-0.13l-0.29-0.12l-0.12-0.07
		l-0.13-0.06l-0.14-0.07l-0.36-0.26l-0.33-0.29l-0.3-0.32l-0.09-0.1l-0.1-0.12l-0.15-0.24l-0.09-0.13l-0.14-0.26l-0.18-0.4
		l-0.1-0.29l-0.03-0.15l-0.04-0.15l-0.03-0.13l-0.06-0.62v-0.33l0.06-0.62l0.03-0.15l0.04-0.13l0.03-0.15l0.04-0.15l0.11-0.29
		l0.12-0.27l0.14-0.26l0.24-0.37l0.19-0.23l0.1-0.12l0.11-0.11l0.09-0.1l0.45-0.37l0.12-0.09l0.26-0.15l0.13-0.07l0.13-0.06
		l0.14-0.07l0.29-0.11l0.13-0.04l0.15-0.04l0.46-0.09l0.3-0.03l0.17-0.02h0.33l0.15,0.02h0.15l0.15,0.01l0.15,0.03l0.13,0.03
		l0.15,0.01l0.45,0.13l0.4,0.18l0.14,0.06l0.36,0.23l0.12,0.09l0.11,0.07l0.52,0.47l0.1,0.1l-0.11,0.1l-0.09,0.11l-0.21,0.21
		l-0.09,0.12l-0.21,0.21l-0.09,0.11l-0.1,0.1l-0.11-0.1l-0.1-0.11l-0.12-0.09l-0.11-0.1l-0.22-0.17l-0.12-0.09l-0.12-0.07l-0.12-0.1
		l-0.39-0.18l-0.13-0.04l-0.15-0.04l-0.16-0.03l-0.15-0.02l-0.16-0.01h-0.34l-0.17,0.01l-0.15,0.04l-0.17,0.03l-0.3,0.09l-0.29,0.13
		l-0.27,0.17l-0.12,0.09l-0.33,0.31l-0.1,0.12l-0.11,0.12l-0.09,0.13l-0.07,0.14l-0.08,0.13l-0.07,0.15l-0.06,0.15l-0.09,0.27
		l-0.04,0.15l-0.01,0.13l-0.04,0.15l-0.03,0.29v0.34l0.03,0.31l0.04,0.13l0.01,0.15l0.13,0.42l0.06,0.15l0.07,0.15l0.26,0.4
		l0.09,0.12l0.22,0.23l0.12,0.1l0.12,0.11l0.12,0.09l0.27,0.17l0.15,0.06l0.13,0.06l0.26,0.09l0.29,0.06l0.15,0.02l0.15,0.01h0.31
		l0.16-0.01l0.15-0.02l0.15-0.03l0.15-0.04l0.13-0.04l0.15-0.04l0.26-0.13l0.12-0.07l0.13-0.09l0.12-0.07l0.12-0.09l0.11-0.09
		l0.12-0.09l0.1-0.1l0.12-0.11l0.1-0.1l0.1,0.1l0.44,0.42l0.33,0.32l-0.31,0.33l-0.32,0.29l-0.12,0.1l-0.12,0.07l-0.12,0.09
		l-0.12,0.08l-0.27,0.15l-0.13,0.06l-0.14,0.08l-0.15,0.04l-0.15,0.06l-0.29,0.09l-0.15,0.01l-0.13,0.03l-0.15,0.03l-0.15,0.02
		h-0.15L290.93,40.87z"/>
	<path fill="#1E3160" d="M296.07,29.3h1.39v4.64l0.07-0.12l0.18-0.24l0.21-0.24l0.21-0.21l0.12-0.09l0.12-0.11l0.13-0.09l0.14-0.07
		l0.13-0.08l0.15-0.07l0.15-0.06l0.17-0.04l0.43-0.09l0.15-0.01l0.17-0.02h0.33l0.15,0.02l0.3,0.03l0.42,0.09l0.12,0.04l0.14,0.04
		l0.4,0.21l0.12,0.07l0.12,0.09l0.21,0.2l0.11,0.09l0.09,0.12l0.18,0.22l0.07,0.14l0.07,0.12l0.18,0.42l0.03,0.13l0.04,0.13
		l0.06,0.27l0.01,0.15l0.03,0.15v0.15l0.01,0.15v5.25h-1.39v-4.87l-0.03-0.33l-0.03-0.16l-0.04-0.15l-0.09-0.27l-0.06-0.13
		l-0.13-0.24l-0.09-0.12l-0.07-0.1l-0.1-0.11l-0.12-0.1l-0.24-0.15l-0.13-0.07l-0.13-0.06l-0.15-0.04l-0.15-0.03l-0.17-0.03
		l-0.16-0.01h-0.34l-0.15,0.01l-0.3,0.06l-0.27,0.09l-0.27,0.12l-0.23,0.17l-0.11,0.09l-0.19,0.21l-0.1,0.12l-0.09,0.12l-0.07,0.13
		l-0.06,0.14l-0.07,0.13l-0.06,0.13l-0.09,0.41l-0.03,0.3v4.76h-1.39V29.3z"/>
	<path fill="#1E3160" d="M313.67,40.83h-0.33l-0.17-0.01l-0.15-0.01l-0.17-0.01l-0.15-0.01l-0.15-0.03l-0.15-0.04l-0.15-0.03
		l-0.14-0.06l-0.16-0.04l-0.15-0.08l-0.15-0.06l-0.14-0.07l-0.13-0.09l-0.14-0.08l-0.36-0.3l-0.1-0.1l-0.09-0.12l-0.11-0.12
		l-0.16-0.25l-0.08-0.14l-0.12-0.27l-0.13-0.39l-0.04-0.15L310,37.91v-0.35l0.01-0.17l0.01-0.15l0.04-0.15l0.04-0.15l0.03-0.15
		l0.18-0.43l0.24-0.39l0.29-0.33l0.32-0.27l0.36-0.27l0.27-0.15l0.13-0.1l0.16-0.06l0.31-0.15l0.16-0.06l-0.22-0.27l-0.1-0.14
		l-0.1-0.13l-0.07-0.14l-0.17-0.25l-0.12-0.26l-0.06-0.14l-0.1-0.29l-0.04-0.15l-0.03-0.15l-0.03-0.29v-0.35l0.01-0.15l0.06-0.3
		l0.03-0.13l0.05-0.15l0.12-0.27l0.15-0.26l0.29-0.34l0.11-0.1l0.37-0.27l0.13-0.07l0.16-0.07l0.13-0.08l0.3-0.1l0.29-0.09
		l0.16-0.03l0.15-0.01l0.17-0.01l0.16-0.02h0.32l0.16,0.02l0.27,0.03l0.28,0.06l0.28,0.09l0.28,0.12l0.12,0.08l0.14,0.07l0.12,0.07
		l0.11,0.09l0.21,0.2l0.1,0.1l0.09,0.11l0.29,0.49l0.13,0.41l0.03,0.15l0.03,0.28v0.34l-0.03,0.3l-0.03,0.15l-0.13,0.4l-0.06,0.13
		l-0.16,0.24l-0.18,0.23l-0.2,0.2l-0.47,0.37l-0.26,0.16l-0.14,0.07l-0.14,0.08l-0.62,0.27l-0.17,0.06l0.22,0.21l0.32,0.32l0.1,0.12
		l0.22,0.21l0.32,0.32l0.09,0.11l0.22,0.21l0.11,0.11l0.11,0.1l0.11,0.12l0.43,0.42l0.11,0.1l0.22-0.35l0.08-0.12l0.15-0.26
		l0.29-0.51l0.2-0.4l0.15-0.27l0.06-0.15l0.08-0.14l0.06-0.15l0.15,0.07l0.14,0.06l0.15,0.07l0.14,0.08l0.43,0.21l0.13,0.08
		l-0.12,0.26l-0.07,0.12l-0.12,0.27l-0.07,0.12l-0.06,0.13l-0.07,0.12l-0.06,0.13l-0.08,0.12l-0.06,0.12l-0.09,0.13l-0.07,0.14
		l-0.08,0.12l-0.07,0.14l-0.09,0.12l-0.07,0.14l-0.18,0.24l-0.07,0.12l-0.1,0.12l0.32,0.32l0.11,0.1l0.09,0.11l0.21,0.21l0.1,0.11
		l0.21,0.19l0.21,0.21l0.11,0.1l0.09,0.11l0.42,0.42l-0.85,0.64l-0.12,0.09l-0.12,0.09l-0.1-0.11l-0.11-0.1l-0.19-0.21l-0.21-0.21
		l-0.1-0.11l-0.1-0.12l-0.82-0.84l-0.23,0.23l-0.36,0.31l-0.13,0.09l-0.12,0.09l-0.26,0.18l-0.26,0.15l-0.53,0.27l-0.58,0.17
		l-0.31,0.06L313.67,40.83z M313.46,39.65h0.32l0.16-0.01l0.15-0.04l0.3-0.06l0.15-0.04l0.29-0.12l0.15-0.07l0.36-0.23l0.36-0.27
		l0.23-0.21l0.12-0.1l0.1-0.12l-0.63-0.67l-0.23-0.21l-0.1-0.12l-0.21-0.21l-0.1-0.12l-0.21-0.21l-0.1-0.12l-0.21-0.21l-0.1-0.13
		l-0.1-0.1l-0.12-0.1l-0.63-0.67l-0.16,0.07l-0.16,0.07l-0.15,0.06l-0.16,0.07l-0.12,0.08l-0.14,0.07l-0.22,0.16l-0.11,0.1
		l-0.18,0.18l-0.08,0.09l-0.18,0.27l-0.14,0.26l-0.09,0.27l-0.03,0.15l-0.01,0.14v0.35l0.06,0.3l0.04,0.15l0.07,0.14l0.06,0.15
		l0.07,0.13l0.09,0.13l0.21,0.21l0.12,0.1l0.26,0.18l0.3,0.12l0.27,0.09l0.15,0.04l0.14,0.01L313.46,39.65z M315.89,32.31v-0.3
		l-0.06-0.29l-0.04-0.13l-0.06-0.13l-0.07-0.12l-0.17-0.21l-0.12-0.09l-0.1-0.09l-0.12-0.06l-0.27-0.11l-0.29-0.06h-0.31l-0.17,0.03
		l-0.15,0.03l-0.15,0.05l-0.13,0.06l-0.12,0.07l-0.12,0.09l-0.12,0.1l-0.2,0.24l-0.07,0.12l-0.06,0.13l-0.04,0.14l-0.06,0.28v0.35
		l0.03,0.15l0.03,0.13l0.04,0.15l0.04,0.13l0.13,0.24l0.21,0.32l0.09,0.1l0.31,0.38l0.12,0.13l0.19-0.07l0.18-0.06l0.34-0.15
		l0.15-0.09l0.15-0.07l0.37-0.27l0.2-0.2l0.09-0.1l0.07-0.1l0.07-0.11l0.06-0.12l0.04-0.11l0.06-0.24L315.89,32.31z"/>
	<path fill="#1E3160" d="M326.61,40.69V29.77h4.16l0.76,0.07l0.3,0.06l0.15,0.04l0.28,0.06l0.54,0.18l0.15,0.08l0.3,0.12l0.54,0.3
		l0.14,0.09l0.47,0.36l0.33,0.31l0.49,0.57l0.24,0.37l0.07,0.14l0.07,0.12l0.07,0.14l0.06,0.15l0.08,0.14l0.04,0.13l0.06,0.13
		l0.09,0.27l0.03,0.14l0.05,0.15l0.06,0.29l0.01,0.14l0.03,0.15l0.03,0.3v0.15l0.01,0.15v0.33l-0.01,0.15v0.15l-0.03,0.3l-0.03,0.15
		l-0.01,0.15l-0.03,0.13l-0.03,0.15l-0.05,0.13L336,36.83l-0.04,0.13l-0.04,0.15l-0.06,0.13l-0.04,0.12l-0.08,0.15l-0.28,0.54
		l-0.17,0.25l-0.07,0.12l-0.28,0.34l-0.31,0.33l-0.11,0.09l-0.1,0.11l-0.1,0.09l-0.22,0.16l-0.12,0.09l-0.49,0.3l-0.13,0.07
		l-0.25,0.12l-0.15,0.06l-0.13,0.07l-0.13,0.04l-0.14,0.06l-0.13,0.04l-0.14,0.03l-0.14,0.04L332,40.52l-0.14,0.04l-0.3,0.06
		l-0.59,0.06l-0.17,0.01H326.61z M328.05,31.07v8.31h2.61l0.15-0.01h0.17l0.15-0.01l0.15-0.03l0.15-0.01l0.29-0.07l0.56-0.18
		l0.15-0.06l0.26-0.14l0.12-0.06l0.13-0.07l0.12-0.09l0.12-0.07l0.34-0.27l0.21-0.21l0.19-0.24l0.11-0.12l0.09-0.12l0.3-0.56
		l0.06-0.15l0.04-0.14l0.07-0.13l0.03-0.15l0.04-0.15l0.03-0.13l0.03-0.15l0.01-0.15l0.03-0.15v-0.16l0.02-0.15v-0.35l-0.02-0.16
		v-0.15l-0.03-0.15l-0.01-0.15l-0.06-0.3l-0.04-0.13l-0.03-0.15l-0.07-0.13l-0.04-0.15l-0.18-0.39l-0.08-0.12l-0.07-0.14l-0.07-0.12
		l-0.09-0.1l-0.08-0.12l-0.29-0.32l-0.1-0.1l-0.34-0.27l-0.12-0.07l-0.12-0.1l-0.26-0.15l-0.26-0.12l-0.15-0.08l-0.4-0.13
		l-0.15-0.03l-0.13-0.04l-0.15-0.03l-0.15-0.02l-0.15-0.03l-0.15-0.01h-0.17l-0.15-0.01H328.05z"/>
	<path fill="#1E3160" d="M338.74,29.61h1.57v1.34h-1.57V29.61z M338.83,32.57h1.39v8.12h-1.39V32.57z"/>
	<path fill="#1E3160" d="M345.9,40.83h-0.29l-0.14-0.01h-0.15l-0.15-0.01l-0.15-0.03l-0.14-0.01l-0.3-0.06l-0.15-0.04l-0.15-0.03
		l-0.15-0.04l-0.15-0.07l-0.15-0.04l-0.15-0.06l-0.13-0.06l-0.15-0.06l-0.4-0.21L342.88,40l-0.5-0.34l0.18-0.26l0.07-0.12l0.18-0.23
		l0.16-0.26l0.09-0.12l0.14,0.09l0.13,0.1l0.14,0.07l0.13,0.09l0.28,0.15l0.13,0.07l0.27,0.12l0.15,0.04l0.15,0.06l0.47,0.14
		l0.15,0.03l0.47,0.04h0.31l0.16-0.01l0.3-0.06l0.14-0.05l0.23-0.12l0.12-0.07l0.1-0.1l0.18-0.22l0.06-0.12l0.04-0.12l0.01-0.13
		l0.01-0.15V38.5l-0.01-0.18l-0.06-0.16L347.21,38l-0.3-0.26l-0.14-0.1l-0.1-0.06l-0.37-0.15l-0.14-0.07l-0.74-0.23l-0.14-0.04
		l-0.68-0.21l-0.29-0.1l-0.43-0.21l-0.5-0.34l-0.19-0.21l-0.18-0.24l-0.06-0.1l-0.06-0.12l-0.04-0.14l-0.06-0.27L342.77,35v-0.34
		l0.02-0.15l0.06-0.29l0.03-0.13l0.05-0.14l0.06-0.13l0.08-0.13l0.19-0.27l0.11-0.12l0.12-0.12l0.23-0.2l0.25-0.15l0.28-0.14
		l0.13-0.06l0.15-0.04l0.12-0.04l0.27-0.06l0.29-0.03l0.13-0.01l0.15-0.01h0.3l0.15,0.01h0.15l0.15,0.03l0.17,0.01l0.3,0.06
		l0.15,0.04l0.17,0.03l0.15,0.04l0.3,0.13l0.15,0.04l0.15,0.07l0.15,0.06l0.13,0.06l0.27,0.16l0.13,0.09l0.12,0.07l-0.07,0.14
		l-0.08,0.12l-0.39,0.65l-0.07,0.14l-0.26-0.15l-0.13-0.07l-0.12-0.06l-0.13-0.07l-0.14-0.07l-0.13-0.04l-0.13-0.06l-0.59-0.18
		l-0.15-0.04l-0.3-0.03l-0.13-0.01h-0.33l-0.18,0.03l-0.16,0.03l-0.29,0.09l-0.14,0.07l-0.1,0.07l-0.12,0.11l-0.11,0.12l-0.07,0.12
		l-0.04,0.14l-0.03,0.13l-0.01,0.15v0.03l0.01,0.16l0.05,0.17l0.08,0.13l0.08,0.1l0.21,0.18l0.23,0.14l0.11,0.06l0.14,0.04
		l0.13,0.04l0.44,0.14l0.15,0.05l0.44,0.14l0.13,0.04l0.13,0.04l0.12,0.05l0.13,0.04l0.14,0.06l0.13,0.04l0.15,0.06l0.42,0.21
		l0.13,0.09l0.14,0.07l0.1,0.11l0.12,0.09l0.11,0.1l0.27,0.34l0.12,0.28l0.04,0.15l0.03,0.15l0.03,0.17v0.37l-0.01,0.17l-0.06,0.31
		l-0.09,0.28l-0.06,0.13l-0.23,0.37l-0.09,0.11l-0.2,0.2l-0.1,0.09l-0.12,0.09l-0.39,0.22l-0.13,0.07l-0.44,0.13l-0.13,0.03
		l-0.15,0.03l-0.13,0.01l-0.15,0.03h-0.15L345.9,40.83z"/>
	<path fill="#1E3160" d="M353.67,40.83h-0.29l-0.14-0.01h-0.15l-0.15-0.01l-0.15-0.03l-0.14-0.01l-0.3-0.06l-0.15-0.04l-0.15-0.03
		l-0.15-0.04l-0.15-0.07l-0.15-0.04l-0.15-0.06l-0.13-0.06l-0.15-0.06l-0.4-0.21L350.64,40l-0.5-0.34l0.18-0.26l0.07-0.12l0.18-0.23
		l0.16-0.26l0.09-0.12l0.14,0.09l0.13,0.1l0.14,0.07l0.13,0.09l0.28,0.15l0.13,0.07l0.27,0.12l0.15,0.04l0.15,0.06l0.47,0.14
		l0.15,0.03l0.47,0.04h0.31l0.16-0.01l0.3-0.06l0.14-0.05l0.23-0.12l0.12-0.07l0.1-0.1l0.18-0.22l0.06-0.12l0.04-0.12l0.01-0.13
		l0.01-0.15V38.5l-0.01-0.18l-0.06-0.16L354.98,38l-0.3-0.26l-0.14-0.1l-0.1-0.06l-0.37-0.15l-0.14-0.07l-0.74-0.23l-0.14-0.04
		l-0.68-0.21l-0.29-0.1l-0.43-0.21l-0.5-0.34l-0.19-0.21l-0.18-0.24l-0.06-0.1l-0.06-0.12l-0.04-0.14l-0.06-0.27L350.53,35v-0.34
		l0.02-0.15l0.06-0.29l0.03-0.13l0.05-0.14l0.06-0.13l0.08-0.13l0.19-0.27l0.11-0.12l0.12-0.12l0.23-0.2l0.25-0.15l0.28-0.14
		l0.13-0.06l0.15-0.04l0.12-0.04l0.27-0.06l0.29-0.03l0.13-0.01l0.15-0.01h0.3l0.15,0.01h0.15l0.15,0.03l0.17,0.01l0.3,0.06
		l0.15,0.04l0.17,0.03l0.15,0.04l0.3,0.13l0.15,0.04l0.15,0.07l0.15,0.06l0.13,0.06l0.27,0.16l0.13,0.09l0.12,0.07l-0.07,0.14
		l-0.08,0.12l-0.39,0.65l-0.07,0.14l-0.26-0.15l-0.13-0.07l-0.12-0.06l-0.13-0.07l-0.14-0.07l-0.13-0.04l-0.13-0.06l-0.59-0.18
		l-0.15-0.04l-0.3-0.03l-0.13-0.01h-0.33L353,33.64l-0.16,0.03l-0.29,0.09l-0.14,0.07l-0.1,0.07l-0.12,0.11l-0.11,0.12l-0.07,0.12
		l-0.04,0.14l-0.03,0.13l-0.01,0.15v0.03l0.01,0.16l0.05,0.17l0.08,0.13l0.08,0.1l0.21,0.18l0.23,0.14l0.11,0.06l0.14,0.04
		l0.13,0.04l0.44,0.14l0.15,0.05l0.44,0.14l0.13,0.04l0.13,0.04l0.12,0.05l0.13,0.04l0.14,0.06l0.13,0.04l0.15,0.06l0.42,0.21
		l0.13,0.09l0.14,0.07l0.1,0.11l0.12,0.09l0.11,0.1l0.27,0.34l0.12,0.28l0.04,0.15l0.03,0.15l0.03,0.17v0.37l-0.01,0.17l-0.06,0.31
		l-0.09,0.28l-0.06,0.13l-0.23,0.37l-0.09,0.11l-0.2,0.2l-0.1,0.09l-0.12,0.09l-0.39,0.22l-0.13,0.07l-0.44,0.13l-0.13,0.03
		l-0.15,0.03l-0.13,0.01l-0.15,0.03h-0.15L353.67,40.83z"/>
	<path fill="#1E3160" d="M362.49,40.87h-0.33l-0.15-0.02l-0.15-0.02l-0.3-0.03l-0.13-0.03l-0.15-0.03l-0.41-0.13l-0.29-0.12
		l-0.15-0.06l-0.27-0.15l-0.39-0.27l-0.12-0.1l-0.22-0.21l-0.11-0.09l-0.18-0.23l-0.1-0.11l-0.07-0.12l-0.09-0.12l-0.15-0.26
		l-0.23-0.54l-0.1-0.27l-0.03-0.13l-0.04-0.14l-0.03-0.15l-0.02-0.13l-0.03-0.15l-0.01-0.15v-0.15l-0.02-0.16v-0.33l0.02-0.17v-0.15
		l0.03-0.15l0.01-0.15l0.09-0.45l0.04-0.15l0.11-0.29l0.04-0.14l0.12-0.27l0.08-0.12l0.06-0.13l0.07-0.12l0.09-0.12l0.07-0.12
		l0.18-0.21l0.09-0.12l0.23-0.21l0.1-0.11l0.38-0.29l0.25-0.16l0.14-0.06l0.27-0.14l0.4-0.13l0.43-0.09l0.3-0.03l0.15-0.02h0.31
		l0.16,0.02l0.32,0.03l0.44,0.09l0.29,0.09l0.27,0.12l0.13,0.07l0.15,0.07l0.5,0.34l0.1,0.1l0.12,0.11l0.29,0.34l0.09,0.12
		l0.16,0.26l0.08,0.14l0.21,0.43l0.11,0.3l0.09,0.3l0.09,0.45l0.01,0.15l0.03,0.15l0.02,0.15v0.16l0.01,0.15v0.37l-0.04,0.23h-6.28
		l0.01,0.15l0.03,0.15l0.04,0.13l0.03,0.13l0.09,0.27l0.04,0.12l0.29,0.49l0.27,0.33l0.1,0.1l0.12,0.1l0.26,0.18l0.29,0.15l0.27,0.1
		l0.14,0.03l0.13,0.04l0.15,0.03l0.26,0.03h0.32l0.45-0.04l0.13-0.03l0.14-0.04l0.13-0.04l0.12-0.03l0.37-0.18l0.12-0.08l0.14-0.07
		l0.23-0.18l0.34-0.3l0.11-0.11l0.21,0.2l0.23,0.18l0.11,0.11l0.1,0.09l0.1,0.1l0.11,0.09l-0.32,0.33l-0.11,0.1l-0.12,0.09
		l-0.47,0.37l-0.13,0.07l-0.12,0.07l-0.14,0.06l-0.12,0.07L364,40.57l-0.13,0.06l-0.27,0.09l-0.45,0.09l-0.17,0.01l-0.17,0.04h-0.16
		L362.49,40.87z M362.28,33.57h-0.31l-0.17,0.01l-0.16,0.03l-0.15,0.05l-0.15,0.04l-0.14,0.06l-0.29,0.15L360.8,34l-0.12,0.1
		l-0.12,0.09l-0.31,0.34l-0.18,0.27l-0.15,0.3l-0.06,0.15l-0.04,0.13l-0.04,0.15l-0.04,0.13l-0.04,0.15l-0.03,0.17l-0.02,0.15h4.91
		l-0.03-0.3l-0.06-0.28l-0.04-0.14l-0.04-0.13l-0.04-0.14L364.26,35l-0.06-0.15l-0.07-0.13l-0.27-0.39l-0.12-0.11l-0.1-0.1
		l-0.12-0.1l-0.26-0.17l-0.14-0.07l-0.39-0.14l-0.15-0.03L362.28,33.57z"/>
	<path fill="#1E3160" d="M368.11,32.57h1.39v1.33l0.07-0.12l0.09-0.1l0.09-0.12l0.09-0.1l0.09-0.12l0.31-0.3l0.11-0.09l0.25-0.16
		l0.14-0.08l0.13-0.06l0.31-0.12l0.27-0.06l0.15-0.03l0.15-0.01l0.15-0.02h0.33l0.18,0.02l0.15,0.01l0.31,0.06l0.13,0.04l0.15,0.04
		l0.12,0.06l0.13,0.06l0.12,0.07l0.12,0.07l0.12,0.1l0.12,0.09l0.31,0.32l0.18,0.23l0.07,0.14l0.07,0.12l0.07,0.13l0.09-0.13
		l0.1-0.12l0.09-0.12l0.33-0.35l0.12-0.1l0.12-0.11l0.39-0.25l0.24-0.12l0.4-0.13l0.15-0.03l0.13-0.03l0.17-0.03l0.15-0.01
		l0.17-0.02h0.33l0.17,0.02l0.15,0.01l0.46,0.09l0.15,0.04l0.13,0.04l0.14,0.06l0.25,0.14l0.12,0.07l0.1,0.09l0.12,0.1l0.1,0.09
		l0.1,0.1l0.08,0.11l0.09,0.1l0.07,0.1l0.07,0.12l0.08,0.12l0.12,0.26l0.04,0.13l0.04,0.15l0.04,0.13l0.03,0.15l0.04,0.15l0.03,0.17
		l0.04,0.49v5.25h-1.39v-4.87l-0.03-0.34l-0.06-0.31l-0.09-0.29l-0.04-0.13l-0.07-0.13l-0.22-0.34l-0.11-0.09l-0.1-0.1l-0.23-0.15
		l-0.26-0.12l-0.15-0.04l-0.13-0.03l-0.15-0.03l-0.16-0.01h-0.32l-0.13,0.01l-0.4,0.09l-0.12,0.04l-0.3,0.15l-0.25,0.19l-0.12,0.12
		l-0.18,0.2l-0.08,0.12l-0.07,0.13l-0.06,0.13l-0.04,0.14l-0.04,0.12l-0.04,0.14L375,35.44l-0.04,0.44v4.81h-1.39v-4.9l-0.03-0.33
		l-0.06-0.3l-0.14-0.42l-0.06-0.12l-0.07-0.12l-0.15-0.2l-0.1-0.11l-0.21-0.18l-0.12-0.08l-0.26-0.12l-0.13-0.04l-0.3-0.06
		l-0.15-0.01h-0.32l-0.13,0.01l-0.15,0.03l-0.13,0.03l-0.14,0.04l-0.12,0.04l-0.26,0.14l-0.23,0.16l-0.29,0.3l-0.09,0.12l-0.15,0.26
		l-0.11,0.27l-0.09,0.27l-0.03,0.13l-0.03,0.27l-0.01,0.15v4.76h-1.39V32.57z"/>
	<path fill="#1E3160" d="M383.09,29.61h1.57v1.34h-1.57V29.61z M383.19,32.57h1.39v8.12h-1.39V32.57z"/>
	<path fill="#1E3160" d="M387.39,32.57h1.39v1.37l0.07-0.12l0.18-0.24l0.21-0.24l0.21-0.21l0.12-0.09l0.12-0.11l0.13-0.09l0.14-0.07
		l0.13-0.08l0.15-0.07l0.15-0.06l0.17-0.04l0.43-0.09l0.15-0.01l0.17-0.02h0.33l0.15,0.02l0.3,0.03l0.42,0.09l0.12,0.04l0.14,0.04
		l0.4,0.21l0.12,0.07l0.12,0.09l0.21,0.2l0.11,0.09l0.09,0.12l0.18,0.22l0.07,0.14l0.07,0.12l0.18,0.42l0.03,0.13l0.04,0.13
		l0.06,0.27l0.01,0.15l0.03,0.15v0.15l0.01,0.15v5.25h-1.39v-4.87l-0.03-0.33l-0.03-0.16l-0.04-0.15l-0.09-0.27l-0.06-0.13
		l-0.13-0.24l-0.09-0.12l-0.07-0.1l-0.1-0.11l-0.12-0.1l-0.24-0.15l-0.13-0.07l-0.13-0.06l-0.15-0.04l-0.15-0.03l-0.17-0.03
		l-0.16-0.01h-0.34l-0.15,0.01l-0.3,0.06l-0.27,0.09l-0.27,0.12l-0.23,0.17l-0.11,0.09l-0.19,0.21l-0.1,0.12l-0.09,0.12l-0.07,0.13
		l-0.06,0.14l-0.07,0.13l-0.06,0.13l-0.09,0.41l-0.03,0.3v4.76h-1.39V32.57z"/>
	<path fill="#1E3160" d="M403.77,40.69h-1.39v-1.17L402,39.95l-0.1,0.09l-0.12,0.09l-0.12,0.1l-0.12,0.09l-0.26,0.15l-0.37,0.17
		l-0.26,0.09l-0.15,0.04l-0.3,0.06l-0.15,0.01l-0.17,0.02l-0.16,0.02h-0.3l-0.15-0.02l-0.13-0.02l-0.29-0.03l-0.27-0.06l-0.29-0.09
		l-0.15-0.06l-0.13-0.06l-0.13-0.08l-0.14-0.07l-0.12-0.07l-0.12-0.09l-0.12-0.1l-0.21-0.21l-0.18-0.23l-0.17-0.27l-0.06-0.12
		l-0.09-0.24l-0.04-0.14l-0.03-0.15l-0.02-0.14l-0.01-0.15v-0.35l0.01-0.16l0.02-0.15l0.03-0.16l0.13-0.41l0.06-0.12l0.08-0.14
		l0.08-0.13l0.18-0.24l0.11-0.12l0.23-0.2l0.34-0.23l0.26-0.12l0.14-0.06l0.42-0.13l0.44-0.09l0.14-0.02l0.16-0.01h0.16l0.16-0.01
		h0.47l0.15,0.01h0.16l0.65,0.07l0.41,0.09l0.2,0.04l0.21,0.04l0.45,0.09v-0.44l-0.02-0.18l-0.06-0.31l-0.04-0.14l-0.06-0.14
		l-0.07-0.13l-0.07-0.12l-0.09-0.11l-0.09-0.1l-0.11-0.11l-0.1-0.09l-0.1-0.07L401.46,34l-0.12-0.06l-0.14-0.06l-0.13-0.04
		l-0.15-0.04l-0.15-0.03l-0.17-0.03l-0.33-0.03h-0.34l-0.15,0.01h-0.15l-0.29,0.03l-0.15,0.03l-0.14,0.01l-0.12,0.03l-0.13,0.03
		l-0.28,0.1l-0.29,0.1l-0.14,0.05l-0.13,0.05l-0.16,0.05l-0.13,0.05l-0.04-0.13l-0.06-0.14l-0.09-0.28l-0.06-0.14l-0.04-0.13
		l-0.06-0.15l-0.04-0.13l0.27-0.12l0.13-0.04l0.13-0.05l0.29-0.1l0.14-0.05l0.14-0.04l0.13-0.04l0.15-0.04l0.39-0.09l0.14-0.03
		l0.75-0.07h0.51l0.18,0.01h0.17l0.17,0.03l0.16,0.01l0.17,0.03l0.15,0.03l0.16,0.04l0.13,0.03l0.29,0.11l0.12,0.06l0.14,0.06
		L402.5,33l0.23,0.17l0.1,0.09l0.18,0.18l0.17,0.21l0.15,0.23l0.12,0.24l0.07,0.12l0.09,0.27l0.04,0.15l0.03,0.13l0.03,0.15
		l0.06,0.64V40.69z M399.7,39.68H400l0.46-0.04l0.27-0.06l0.57-0.22l0.13-0.07l0.12-0.07l0.12-0.09l0.32-0.29l0.07-0.1l0.15-0.25
		l0.06-0.11l0.09-0.26l0.03-0.15l0.01-0.13V37l-0.12-0.04l-0.27-0.06l-0.14-0.03l-0.29-0.07l-0.29-0.06l-0.62-0.06l-0.17-0.01H400
		l-0.33,0.03l-0.15,0.01l-0.3,0.06l-0.38,0.13l-0.12,0.06l-0.1,0.06l-0.09,0.06l-0.14,0.11l-0.1,0.1l-0.17,0.23l-0.06,0.11
		L398,37.76l-0.06,0.29v0.17l0.01,0.18l0.03,0.16l0.04,0.15l0.06,0.13l0.08,0.13l0.21,0.23l0.34,0.23l0.12,0.06l0.13,0.05l0.27,0.08
		l0.15,0.01l0.15,0.03L399.7,39.68z"/>
	<path fill="#1E3160" d="M406.74,33.82h-1.1v-1.25h1.1V30.2h1.39v2.37h2.46v1.25h-2.46v4.69l0.03,0.18l0.03,0.15l0.12,0.26l0.07,0.1
		l0.09,0.09l0.11,0.08l0.1,0.06l0.12,0.06l0.14,0.04l0.15,0.01l0.14,0.03h0.32l0.15-0.01l0.44-0.09l0.13-0.04l0.15-0.06l0.15-0.08
		v1.18l-0.14,0.08l-0.13,0.06l-0.27,0.09l-0.15,0.04l-0.12,0.03l-0.13,0.01l-0.14,0.03h-0.13l-0.15,0.01h-0.32l-0.31-0.03
		l-0.44-0.09L408,40.64l-0.14-0.04l-0.12-0.06l-0.24-0.15l-0.21-0.18l-0.09-0.1l-0.09-0.12l-0.07-0.12l-0.07-0.13l-0.06-0.15
		l-0.06-0.12l-0.09-0.43l-0.03-0.33V33.82z"/>
	<path fill="#1E3160" d="M412.79,29.61h1.57v1.34h-1.57V29.61z M412.89,32.57h1.39v8.12h-1.39V32.57z"/>
	<path fill="#1E3160" d="M421.03,40.87h-0.3l-0.15-0.02h-0.15l-0.15-0.02l-0.15-0.03l-0.13-0.03l-0.15-0.01l-0.13-0.04l-0.14-0.03
		l-0.27-0.09l-0.12-0.06l-0.15-0.07l-0.13-0.07l-0.13-0.06l-0.26-0.15l-0.24-0.18l-0.1-0.09l-0.12-0.1l-0.32-0.31l-0.18-0.21
		l-0.18-0.24l-0.15-0.26l-0.08-0.12l-0.07-0.14l-0.18-0.4l-0.1-0.29l-0.03-0.15l-0.04-0.15l-0.03-0.13l-0.06-0.62v-0.33l0.06-0.62
		l0.03-0.15l0.04-0.13l0.03-0.15l0.04-0.15l0.3-0.69l0.08-0.12l0.07-0.13l0.45-0.59l0.32-0.31l0.12-0.09l0.1-0.1l0.37-0.26
		l0.27-0.15l0.14-0.06l0.13-0.07l0.13-0.05l0.41-0.13l0.13-0.03l0.15-0.03l0.13-0.03l0.15-0.03l0.15-0.01h0.15h0.15l0.3-0.02
		l0.15,0.04l0.15-0.02l0.15,0.01l0.42,0.09l0.13,0.03l0.4,0.13l0.14,0.05l0.13,0.07l0.14,0.06l0.27,0.15l0.24,0.17l0.12,0.07
		l0.12,0.09l0.1,0.11l0.12,0.09l0.1,0.1l0.09,0.11l0.11,0.1l0.18,0.23l0.17,0.24l0.07,0.13l0.07,0.12l0.12,0.27l0.07,0.14l0.15,0.42
		l0.03,0.15l0.04,0.15l0.03,0.15l0.06,0.62v0.34l-0.06,0.61l-0.03,0.15l-0.04,0.13l-0.03,0.15l-0.05,0.15l-0.06,0.14l-0.04,0.13
		l-0.2,0.42l-0.07,0.12l-0.07,0.13l-0.09,0.12l-0.1,0.12l-0.07,0.12l-0.4,0.42l-0.11,0.1l-0.59,0.44l-0.27,0.15l-0.27,0.12
		l-0.14,0.07l-0.4,0.13l-0.57,0.12l-0.15,0.02h-0.15L421.03,40.87z M420.75,39.61h0.3l0.16-0.02l0.14-0.02l0.3-0.06l0.27-0.09
		l0.27-0.12l0.4-0.25l0.34-0.31l0.09-0.12l0.11-0.12l0.07-0.13l0.09-0.14l0.07-0.13l0.07-0.15l0.07-0.15l0.04-0.12l0.03-0.15
		l0.04-0.14l0.03-0.13l0.04-0.44v-0.33l-0.03-0.3l-0.03-0.15l-0.03-0.13l-0.03-0.15l-0.04-0.13l-0.04-0.15l-0.12-0.25l-0.3-0.47
		l-0.17-0.21l-0.23-0.22l-0.12-0.09l-0.27-0.17l-0.14-0.08L422,33.9l-0.13-0.06l-0.27-0.09l-0.29-0.06l-0.14-0.02l-0.15-0.01h-0.3
		l-0.17,0.01l-0.43,0.08l-0.27,0.09l-0.27,0.13l-0.4,0.25l-0.12,0.09l-0.23,0.22l-0.2,0.24l-0.26,0.4l-0.12,0.3l-0.06,0.14
		l-0.03,0.13l-0.08,0.28l-0.04,0.43v0.33l0.03,0.29l0.07,0.28l0.03,0.15l0.04,0.13l0.06,0.14l0.04,0.13l0.06,0.12l0.3,0.47l0.3,0.31
		l0.12,0.12l0.12,0.09l0.4,0.25l0.27,0.13l0.27,0.09l0.15,0.03l0.13,0.03l0.15,0.02L420.75,39.61z"/>
	<path fill="#1E3160" d="M427.34,32.57h1.39v1.37l0.07-0.12l0.18-0.24l0.21-0.24l0.21-0.21l0.12-0.09l0.12-0.11l0.13-0.09l0.14-0.07
		l0.13-0.08l0.15-0.07l0.15-0.06l0.17-0.04l0.43-0.09l0.15-0.01l0.17-0.02h0.33l0.15,0.02l0.3,0.03l0.42,0.09l0.12,0.04l0.14,0.04
		l0.4,0.21l0.12,0.07l0.12,0.09l0.21,0.2l0.11,0.09l0.09,0.12l0.18,0.22l0.07,0.14l0.07,0.12l0.18,0.42l0.03,0.13l0.04,0.13
		l0.06,0.27l0.01,0.15l0.03,0.15v0.15l0.01,0.15v5.25h-1.39v-4.87l-0.03-0.33l-0.03-0.16l-0.04-0.15l-0.09-0.27l-0.06-0.13
		l-0.13-0.24l-0.09-0.12l-0.07-0.1l-0.1-0.11l-0.12-0.1l-0.24-0.15l-0.13-0.07l-0.13-0.06l-0.15-0.04l-0.15-0.03l-0.17-0.03
		l-0.16-0.01h-0.34l-0.15,0.01l-0.3,0.06l-0.27,0.09l-0.27,0.12l-0.23,0.17l-0.11,0.09l-0.19,0.21l-0.1,0.12l-0.09,0.12l-0.07,0.13
		l-0.06,0.14l-0.07,0.13l-0.06,0.13l-0.09,0.41l-0.03,0.3v4.76h-1.39V32.57z"/>
</g>
<g>
	<path fill="#1E3160" d="M239.23,56.87h-0.48l-0.17-0.02h-0.15l-0.15-0.02l-0.15-0.01l-0.15-0.03l-0.15-0.01l-0.15-0.03l-0.13-0.03
		l-0.15-0.04l-0.13-0.04l-0.15-0.04l-0.27-0.09l-0.55-0.25l-0.27-0.15L235.9,56l-0.49-0.34l-0.1-0.11l-0.23-0.19l-0.31-0.33
		l-0.43-0.62l-0.14-0.26l-0.07-0.14l-0.08-0.13l-0.27-0.7l-0.13-0.43l-0.11-0.58l-0.04-0.45l-0.02-0.15v-0.64l0.02-0.15l0.04-0.45
		l0.11-0.59l0.13-0.42l0.27-0.7l0.29-0.54l0.34-0.48l0.19-0.24l0.31-0.32l0.12-0.1l0.12-0.09l0.1-0.11l0.37-0.26l0.14-0.09
		l0.27-0.15l0.13-0.08l0.14-0.07l0.15-0.06l0.13-0.06l0.14-0.04l0.15-0.07l0.29-0.09l0.74-0.15l0.31-0.03h0.16l0.15-0.02h0.49
		l0.15,0.02l0.31,0.03l0.13,0.02l0.15,0.01l0.13,0.03l0.15,0.01l0.15,0.04l0.13,0.03l0.7,0.23l0.13,0.06l0.15,0.06l0.53,0.3
		l0.14,0.09l0.36,0.27l0.12,0.11l0.12,0.09l0.23,0.21l0.12,0.1l-0.42,0.47l-0.53,0.58l-0.24-0.2l-0.1-0.11l-0.5-0.36l-0.26-0.16
		l-0.12-0.08l-0.13-0.06l-0.12-0.07l-0.26-0.12l-0.13-0.05l-0.27-0.09l-0.27-0.06l-0.15-0.03l-0.15-0.01l-0.15-0.03h-0.17
		l-0.15-0.02h-0.31l-0.47,0.04l-0.3,0.06l-0.13,0.03l-0.15,0.04l-0.27,0.09l-0.26,0.12l-0.12,0.07l-0.13,0.06l-0.12,0.08l-0.12,0.09
		l-0.12,0.07l-0.42,0.37l-0.3,0.33l-0.33,0.47l-0.07,0.13l-0.06,0.14l-0.07,0.13l-0.07,0.14l-0.04,0.13l-0.06,0.15l-0.09,0.28
		l-0.04,0.15l-0.03,0.15l-0.04,0.15l-0.01,0.15l-0.01,0.17l-0.01,0.15l-0.01,0.17v0.34l0.01,0.15v0.15l0.01,0.13l0.03,0.15
		l0.01,0.13l0.04,0.14l0.03,0.15l0.04,0.14l0.03,0.13l0.04,0.14l0.06,0.12l0.04,0.15l0.07,0.14l0.07,0.13l0.06,0.14l0.15,0.25
		l0.18,0.24l0.07,0.11l0.3,0.33l0.31,0.29l0.23,0.17l0.24,0.15l0.66,0.31l0.13,0.04l0.15,0.04l0.43,0.09l0.3,0.03l0.17,0.01h0.3
		l0.15-0.01h0.15l0.15-0.01l0.14-0.03l0.13-0.01l0.13-0.03l0.15-0.04l0.15-0.03l0.3-0.11l0.27-0.12l0.14-0.07l0.13-0.06l0.13-0.09
		l0.38-0.25l0.1-0.09l0.33-0.26l0.1-0.1l0.11-0.09l0.1-0.11l0.31,0.31l0.1,0.11l0.11,0.09l0.42,0.42l-0.1,0.11l-0.12,0.1l-0.21,0.21
		l-0.12,0.09l-0.1,0.1l-0.47,0.37l-0.49,0.3l-0.12,0.06l-0.14,0.06l-0.13,0.07l-0.14,0.04l-0.13,0.06l-0.29,0.1l-0.3,0.09l-0.3,0.06
		L240,56.79l-0.45,0.04l-0.16,0.02L239.23,56.87z"/>
	<path fill="#1E3160" d="M249.08,56.87h-0.33l-0.15-0.02l-0.15-0.02l-0.3-0.03l-0.13-0.03l-0.15-0.03l-0.41-0.13l-0.29-0.12
		l-0.15-0.06l-0.27-0.15l-0.39-0.27l-0.12-0.1l-0.22-0.21l-0.11-0.09l-0.18-0.23l-0.1-0.11l-0.07-0.12l-0.09-0.12l-0.15-0.26
		l-0.23-0.54l-0.1-0.27l-0.03-0.13l-0.04-0.14l-0.03-0.15l-0.01-0.13l-0.03-0.15l-0.01-0.15v-0.15l-0.01-0.16v-0.33l0.01-0.17v-0.15
		l0.03-0.15l0.01-0.15l0.09-0.46l0.04-0.15l0.11-0.29l0.04-0.14l0.12-0.27l0.08-0.12l0.06-0.13l0.07-0.12l0.09-0.12l0.07-0.12
		l0.18-0.21l0.09-0.12l0.23-0.21l0.1-0.11l0.38-0.29l0.25-0.16l0.14-0.06l0.27-0.14l0.4-0.13l0.43-0.09l0.3-0.03l0.15-0.02h0.31
		l0.16,0.02l0.31,0.03l0.44,0.09l0.29,0.09l0.27,0.12l0.13,0.07l0.15,0.07l0.5,0.34l0.1,0.1l0.12,0.11l0.29,0.34l0.09,0.12
		l0.16,0.26L252,50.3l0.21,0.43l0.11,0.3l0.09,0.3l0.09,0.45l0.01,0.15l0.03,0.15l0.02,0.15v0.16l0.01,0.15v0.37l-0.04,0.23h-6.28
		l0.01,0.15l0.03,0.15l0.04,0.13l0.03,0.13l0.09,0.27l0.04,0.12l0.29,0.49l0.27,0.33l0.1,0.1l0.12,0.1l0.26,0.18l0.29,0.15l0.27,0.1
		l0.14,0.03l0.13,0.04l0.15,0.03l0.26,0.03h0.32l0.45-0.04l0.13-0.03l0.14-0.04l0.13-0.04l0.12-0.03l0.37-0.18l0.12-0.08l0.14-0.07
		l0.23-0.18l0.34-0.3l0.11-0.11l0.21,0.2l0.23,0.18l0.11,0.11l0.1,0.09l0.1,0.1l0.11,0.09l-0.31,0.33l-0.11,0.1l-0.12,0.09
		l-0.47,0.37l-0.13,0.07l-0.12,0.07l-0.14,0.06l-0.12,0.07l-0.14,0.05l-0.13,0.06l-0.27,0.09l-0.45,0.09l-0.17,0.01l-0.17,0.04
		h-0.16L249.08,56.87z M248.88,49.58h-0.31l-0.17,0.01l-0.16,0.03l-0.15,0.05l-0.15,0.04l-0.14,0.06l-0.29,0.15L247.39,50l-0.12,0.1
		l-0.12,0.09l-0.31,0.34l-0.18,0.27l-0.15,0.3l-0.06,0.15l-0.04,0.13l-0.04,0.15l-0.04,0.13l-0.04,0.15l-0.03,0.17l-0.01,0.15h4.91
		l-0.03-0.3l-0.06-0.28l-0.04-0.14l-0.04-0.13l-0.04-0.14L250.86,51l-0.06-0.15l-0.07-0.13l-0.27-0.39l-0.12-0.11l-0.1-0.1
		l-0.12-0.1l-0.26-0.17l-0.14-0.07l-0.39-0.14l-0.15-0.03L248.88,49.58z"/>
	<path fill="#1E3160" d="M254.71,48.57h1.39v1.37l0.07-0.12l0.18-0.24l0.21-0.24l0.21-0.21l0.12-0.09l0.12-0.11l0.13-0.09l0.14-0.07
		l0.13-0.08l0.15-0.07l0.15-0.06l0.17-0.04l0.43-0.09l0.15-0.01l0.17-0.02h0.33l0.15,0.02l0.3,0.03l0.42,0.09l0.12,0.04l0.14,0.04
		l0.4,0.21l0.12,0.07l0.12,0.09l0.21,0.2l0.11,0.09l0.09,0.12l0.18,0.22l0.07,0.14l0.07,0.12l0.18,0.42l0.03,0.13l0.04,0.13
		l0.06,0.27l0.01,0.15l0.03,0.15v0.15l0.01,0.15v5.25h-1.39v-4.87l-0.03-0.33l-0.03-0.16l-0.04-0.15l-0.09-0.27l-0.06-0.13
		l-0.13-0.24l-0.09-0.12l-0.07-0.1l-0.1-0.11l-0.12-0.1l-0.24-0.15l-0.13-0.07l-0.13-0.06l-0.15-0.04l-0.15-0.03l-0.17-0.03
		l-0.16-0.01h-0.34l-0.15,0.01l-0.3,0.06l-0.27,0.09l-0.27,0.12l-0.23,0.17l-0.11,0.09l-0.19,0.21l-0.1,0.12l-0.09,0.12l-0.07,0.13
		l-0.06,0.14l-0.07,0.13l-0.06,0.13l-0.09,0.41l-0.03,0.3v4.76h-1.39V48.57z"/>
	<path fill="#1E3160" d="M264.88,49.82h-1.1v-1.25h1.1V46.2h1.39v2.37h2.46v1.25h-2.46v4.69l0.03,0.18l0.03,0.15l0.12,0.26l0.07,0.1
		l0.09,0.09l0.11,0.08l0.1,0.06l0.12,0.06l0.14,0.04l0.15,0.01l0.14,0.03h0.32l0.15-0.01l0.44-0.09l0.13-0.04l0.15-0.06l0.15-0.08
		v1.18l-0.14,0.08l-0.13,0.06l-0.27,0.09l-0.15,0.04l-0.12,0.03l-0.13,0.01l-0.14,0.03h-0.13l-0.15,0.01h-0.32l-0.31-0.03
		l-0.44-0.09l-0.13-0.06L266,56.6l-0.12-0.06l-0.24-0.15l-0.21-0.18l-0.09-0.1l-0.09-0.12l-0.07-0.12l-0.07-0.13l-0.06-0.15
		L265,55.47l-0.09-0.43l-0.03-0.33V49.82z"/>
	<path fill="#1E3160" d="M274.46,56.87h-0.33l-0.15-0.02l-0.15-0.02l-0.3-0.03l-0.13-0.03l-0.15-0.03l-0.41-0.13l-0.29-0.12
		l-0.15-0.06l-0.27-0.15l-0.39-0.27l-0.12-0.1l-0.22-0.21l-0.11-0.09l-0.18-0.23l-0.1-0.11l-0.07-0.12l-0.09-0.12l-0.15-0.26
		l-0.23-0.54l-0.1-0.27l-0.03-0.13l-0.04-0.14l-0.03-0.15l-0.02-0.13l-0.03-0.15l-0.01-0.15v-0.15l-0.02-0.16v-0.33l0.02-0.17v-0.15
		l0.03-0.15l0.01-0.15l0.09-0.46l0.04-0.15l0.11-0.29l0.04-0.14l0.12-0.27l0.08-0.12l0.06-0.13l0.07-0.12l0.09-0.12l0.07-0.12
		l0.18-0.21l0.09-0.12l0.23-0.21l0.1-0.11l0.38-0.29l0.25-0.16l0.14-0.06l0.27-0.14l0.4-0.13l0.43-0.09l0.3-0.03l0.15-0.02h0.31
		l0.16,0.02l0.32,0.03l0.44,0.09l0.29,0.09l0.27,0.12l0.13,0.07l0.15,0.07l0.5,0.34l0.1,0.1l0.12,0.11l0.29,0.34l0.09,0.12
		l0.16,0.26l0.08,0.14l0.21,0.43l0.11,0.3l0.09,0.3l0.09,0.45l0.01,0.15l0.03,0.15l0.02,0.15v0.16l0.01,0.15v0.37l-0.04,0.23h-6.28
		l0.01,0.15l0.03,0.15l0.04,0.13l0.03,0.13l0.09,0.27l0.04,0.12l0.29,0.49l0.27,0.33l0.1,0.1l0.12,0.1l0.26,0.18l0.29,0.15l0.27,0.1
		l0.14,0.03l0.13,0.04l0.15,0.03l0.26,0.03h0.32l0.45-0.04l0.13-0.03l0.14-0.04l0.13-0.04l0.12-0.03l0.37-0.18l0.12-0.08l0.14-0.07
		l0.23-0.18l0.34-0.3l0.11-0.11l0.21,0.2l0.23,0.18l0.11,0.11l0.1,0.09l0.1,0.1l0.11,0.09l-0.32,0.33l-0.11,0.1l-0.12,0.09
		l-0.47,0.37l-0.13,0.07l-0.12,0.07l-0.14,0.06l-0.12,0.07l-0.14,0.05l-0.13,0.06l-0.27,0.09l-0.45,0.09l-0.17,0.01l-0.17,0.04
		h-0.16L274.46,56.87z M274.25,49.58h-0.31l-0.17,0.01l-0.16,0.03l-0.15,0.05l-0.15,0.04l-0.14,0.06l-0.29,0.15L272.76,50l-0.12,0.1
		l-0.12,0.09l-0.31,0.34l-0.18,0.27l-0.15,0.3l-0.06,0.15l-0.04,0.13l-0.04,0.15l-0.04,0.13l-0.04,0.15l-0.03,0.17l-0.02,0.15h4.91
		l-0.03-0.3l-0.06-0.28l-0.04-0.14l-0.04-0.13l-0.04-0.14L276.23,51l-0.06-0.15l-0.07-0.13l-0.27-0.39l-0.12-0.11l-0.1-0.1
		l-0.12-0.1l-0.26-0.17l-0.14-0.07l-0.39-0.14l-0.15-0.03L274.25,49.58z"/>
	<path fill="#1E3160" d="M280.08,48.57h1.39v1.9l0.06-0.13l0.07-0.12l0.06-0.13l0.08-0.12l0.09-0.12l0.07-0.11l0.09-0.11l0.09-0.12
		l0.09-0.1l0.1-0.1l0.11-0.09l0.1-0.1l0.1-0.08l0.12-0.09l0.24-0.14l0.12-0.06l0.12-0.08l0.14-0.05l0.4-0.12l0.15-0.03l0.15-0.01
		l0.15-0.03h0.46v1.34h-0.26l-0.32,0.03l-0.15,0.04l-0.3,0.06l-0.15,0.04l-0.13,0.06l-0.15,0.06l-0.13,0.06l-0.48,0.36l-0.21,0.21
		l-0.18,0.22l-0.09,0.12l-0.07,0.13l-0.08,0.12l-0.29,0.69l-0.03,0.13l-0.04,0.13l-0.03,0.13l-0.01,0.14l-0.03,0.13l-0.03,0.31v0.16
		l-0.01,0.15v3.43h-1.39V48.57z"/>
</g>
<g>
	<path fill="#1E3160" d="M47.19,12.79h0.6h0.54h0.6h0.6h0.6h0.54h0.6h0.6h0.54H53h0.6h0.54h0.6h0.6h0.6h0.54h0.6l0.3,0.54l0.36,0.48
		l0.3,0.54l0.3,0.48l0.36,0.54l0.3,0.48l0.3,0.54l0.36,0.48l0.3,0.54l0.3,0.48l0.36,0.54l0.3,0.48l0.3,0.54l0.36,0.48l0.3,0.54
		l0.3,0.48l0.36,0.54l0.3,0.48l0.3,0.54l0.3,0.48l0.36,0.54l0.3,0.48l0.3,0.54l0.36,0.48l0.3,0.54l0.3,0.48l0.36,0.54l0.3,0.48
		l0.3,0.54l0.36,0.48l0.3,0.54l0.3,0.48l0.36,0.54l0.3,0.48l0.3,0.54l0.36,0.48l0.3,0.54l0.3-0.54l0.36-0.48l0.3-0.54l0.3-0.48
		l0.36-0.54l0.3-0.48l0.3-0.54l0.36-0.48l0.3-0.54l0.36-0.48l0.3-0.54l0.3-0.48l0.36-0.54l0.3-0.48l0.3-0.54l0.36-0.48l0.3-0.54
		l0.3-0.48l0.36-0.54l0.3-0.48l0.3-0.54l0.36-0.48l0.3-0.54l0.3-0.48l0.36-0.54l0.3-0.48l0.3-0.54l0.36-0.48l0.3-0.54l0.36-0.48
		l0.3-0.54l0.3-0.48l0.36-0.54l0.3-0.48l0.3-0.54l0.36-0.48l0.3-0.54h0.6h0.54h0.6h0.6h0.6h0.54h0.6h0.6h0.54h0.6h0.6h0.54h0.6h0.6
		h0.6h0.54h0.6v0.6v0.6v0.6v0.6v0.6v0.6v0.6v0.6v0.6v0.6v0.6v0.6v0.6v0.6v0.6v0.6v0.6v0.6v0.54v0.6v0.6v0.6v0.6v0.6v0.6v0.6v0.6v0.6
		v0.6v0.6v0.6v0.6v0.6v0.6v0.6v0.6v0.6v0.6v0.6v0.6v0.6v0.6v0.6v0.6v0.6v0.6v0.6v0.6v0.6v0.6v0.6v0.6v0.6v0.6v0.54v0.6v0.6v0.6v0.6
		v0.6v0.6v0.6v0.6v0.6v0.6v0.6v0.6v0.6v0.6v0.6v0.6v0.6v0.6h-0.6h-0.6h-0.66h-0.6h-0.6h-0.6h-0.6h-0.66h-0.6h-0.6h-0.6h-0.6H82.7
		h-0.6h-0.6v-0.6v-0.6v-0.6v-0.6v-0.54v-0.6v-0.6v-0.6v-0.6v-0.6v-0.6v-0.6v-0.6v-0.6v-0.54v-0.6v-0.6v-0.6v-0.6v-0.6v-0.6v-0.6
		v-0.6v-0.6v-0.54v-0.6v-0.6v-0.6v-0.6v-0.6v-0.6v-0.6v-0.6v-0.6v-0.54v-0.6v-0.6v-0.6v-0.6v-0.6v-0.6v-0.6v-0.6v-0.6v-0.54v-0.6
		v-0.6v-0.6v-0.6l-0.36,0.48l-0.3,0.54l-0.36,0.48l-0.3,0.48l-0.36,0.54l-0.3,0.48l-0.36,0.54l-0.3,0.48l-0.36,0.48l-0.3,0.54
		l-0.36,0.48l-0.3,0.48l-0.36,0.54l-0.3,0.48l-0.36,0.54l-0.3,0.48l-0.36,0.48l-0.3,0.54l-0.36,0.48l-0.36,0.48l-0.3,0.54
		l-0.36,0.48l-0.3,0.48l-0.36,0.54l-0.3,0.48l-0.36,0.54l-0.3,0.48l-0.36,0.48l-0.3,0.54l-0.36,0.48l-0.3,0.48l-0.36,0.54l-0.3,0.48
		l-0.36,0.54l-0.3,0.48l-0.36,0.48l-0.3,0.54l-0.36,0.48h-0.24l-0.3-0.48l-0.36-0.54l-0.3-0.48l-0.36-0.48l-0.3-0.48l-0.36-0.54
		l-0.3-0.48l-0.36-0.48l-0.3-0.54l-0.36-0.48l-0.3-0.48l-0.36-0.48l-0.3-0.54l-0.36-0.48L63.75,39l-0.36-0.54l-0.3-0.48l-0.36-0.48
		l-0.3-0.54l-0.3-0.48L61.77,36l-0.3-0.48l-0.36-0.54l-0.3-0.48l-0.36-0.48l-0.3-0.54l-0.36-0.48l-0.3-0.48l-0.36-0.48l-0.3-0.54
		l-0.36-0.48l-0.3-0.48l-0.36-0.54l-0.3-0.48l-0.36-0.48l-0.3-0.48L56.49,28l-0.3-0.48v0.6v0.6v0.6v0.6v0.6v0.6v0.6v0.6v0.6v0.6v0.6
		v0.6v0.66v0.6v0.6v0.6v0.6v0.6V39v0.6v0.6v0.6v0.6V42v0.6v0.6v0.6v0.6V45v0.6v0.6v0.6v0.6V48v0.6v0.6v0.66v0.6v0.6v0.6v0.6v0.6v0.6
		v0.6v0.6v0.6v0.6v0.6h-0.6h-0.6h-0.6h-0.6h-0.6h-0.6h-0.6h-0.6h-0.6h-0.6h-0.6h-0.6h-0.6h-0.6h-0.6v-0.6v-0.6v-0.6v-0.6v-0.6v-0.6
		v-0.6v-0.6v-0.6v-0.6v-0.6v-0.6v-0.6v-0.6v-0.6v-0.6v-0.6v-0.6v-0.54v-0.6v-0.6v-0.6v-0.6v-0.6v-0.6v-0.6v-0.6v-0.6v-0.6v-0.6v-0.6
		v-0.6v-0.6v-0.6v-0.6v-0.6v-0.6v-0.6v-0.6v-0.6v-0.6v-0.6v-0.6v-0.6v-0.6v-0.6v-0.6v-0.6v-0.6v-0.6v-0.6v-0.6v-0.6v-0.6v-0.54v-0.6
		v-0.6v-0.6v-0.6v-0.6v-0.6v-0.6v-0.6v-0.6v-0.6v-0.6v-0.6v-0.6v-0.6v-0.6v-0.6v-0.6V12.79z"/>
	<path fill="#1E3160" d="M116.91,12.49h0.6h0.6h0.6h0.66h0.6h0.6h0.6h0.6h0.6h0.6h0.66h0.6h0.6h0.6l0.24,0.54l0.24,0.54l0.24,0.54
		l0.24,0.6l0.24,0.54l0.18,0.54l0.24,0.54l0.24,0.54l0.24,0.54l0.24,0.6l0.24,0.54l0.24,0.54l0.24,0.54l0.24,0.54l0.24,0.54
		l0.24,0.6l0.24,0.54l0.18,0.54l0.24,0.54l0.24,0.54l0.24,0.54l0.24,0.6l0.24,0.54l0.24,0.54l0.24,0.54l0.24,0.54l0.24,0.54
		l0.24,0.6l0.18,0.54l0.24,0.54l0.24,0.54l0.24,0.54l0.24,0.54l0.24,0.6l0.24,0.54l0.24,0.54l0.24,0.54l0.24,0.54l0.24,0.54
		l0.24,0.54l0.18,0.6l0.24,0.54l0.24,0.54l0.24,0.54l0.24,0.54l0.24,0.54l0.24,0.6l0.24,0.54l0.24,0.54l0.24,0.54l0.24,0.54
		l0.18,0.54l0.24,0.6l0.24,0.54l0.24,0.54l0.24,0.54l0.24,0.54l0.24,0.54l0.24,0.6l0.24,0.54l0.24,0.54l0.24,0.54l0.18,0.54
		l0.24,0.54l0.24,0.6l0.24,0.54l0.24,0.54l0.24,0.54l0.24,0.54l0.24,0.54l0.24,0.6l0.24,0.54l0.24,0.54l0.24,0.54l0.18,0.54
		l0.24,0.54l0.24,0.6l0.24,0.54l0.24,0.54l0.24,0.54h-0.6h-0.6h-0.6h-0.6h-0.6h-0.6h-0.6h-0.6h-0.66h-0.6h-0.6h-0.6h-0.6h-0.6h-0.6
		h-0.6l-0.24-0.54l-0.24-0.54l-0.18-0.6l-0.24-0.54l-0.24-0.54l-0.24-0.54l-0.18-0.6l-0.24-0.54l-0.24-0.54l-0.24-0.54l-0.24-0.54
		l-0.18-0.6l-0.24-0.54l-0.24-0.54l-0.24-0.54l-0.18-0.6l-0.24-0.54l-0.24-0.54h-0.6h-0.6h-0.6h-0.54h-0.6h-0.6h-0.6h-0.6h-0.6
		h-0.54h-0.6h-0.6h-0.6h-0.6h-0.6h-0.54h-0.6h-0.6h-0.6h-0.6h-0.6h-0.6h-0.54h-0.6h-0.6h-0.6h-0.6h-0.6h-0.54h-0.6h-0.6h-0.6
		l-0.24,0.54l-0.24,0.54l-0.18,0.6l-0.24,0.54l-0.24,0.54l-0.24,0.54l-0.18,0.6l-0.24,0.54l-0.24,0.54l-0.24,0.54l-0.24,0.54
		l-0.18,0.6l-0.24,0.54l-0.24,0.54l-0.24,0.54l-0.18,0.6l-0.24,0.54l-0.24,0.54h-0.6h-0.6h-0.54h-0.6h-0.6h-0.6h-0.6h-0.54h-0.6
		h-0.6h-0.6h-0.6h-0.6h-0.54h-0.6h-0.6l0.24-0.54l0.24-0.54l0.24-0.54l0.24-0.6l0.24-0.54l0.24-0.54l0.18-0.54l0.24-0.54l0.24-0.54
		l0.24-0.6l0.24-0.54l0.24-0.54l0.24-0.54l0.24-0.54l0.24-0.54l0.24-0.6l0.24-0.54l0.24-0.54l0.24-0.54l0.24-0.54l0.18-0.54
		l0.24-0.6l0.24-0.54l0.24-0.54l0.24-0.54l0.24-0.54l0.24-0.54l0.24-0.6l0.24-0.54l0.24-0.54l0.24-0.54l0.24-0.54l0.24-0.54
		l0.18-0.6l0.24-0.54l0.24-0.54l0.24-0.54l0.24-0.54l0.24-0.54l0.24-0.6l0.24-0.54l0.24-0.54l0.24-0.54l0.24-0.54l0.24-0.54
		l0.24-0.54l0.18-0.6l0.24-0.54l0.24-0.54l0.24-0.54l0.24-0.54l0.24-0.54l0.24-0.6l0.24-0.54l0.24-0.54l0.24-0.54l0.24-0.54
		l0.24-0.54l0.24-0.6l0.24-0.54l0.18-0.54l0.24-0.54l0.24-0.54l0.24-0.54l0.24-0.6l0.24-0.54l0.24-0.54l0.24-0.54l0.24-0.54
		l0.24-0.54l0.24-0.6l0.24-0.54l0.24-0.54l0.18-0.54l0.24-0.54l0.24-0.54l0.24-0.6l0.24-0.54l0.24-0.54L116.91,12.49z M127.17,38.29
		l-0.24-0.54l-0.24-0.54l-0.18-0.54l-0.24-0.6l-0.24-0.54L125.79,35l-0.18-0.54l-0.24-0.54l-0.24-0.54l-0.24-0.54l-0.24-0.6
		l-0.18-0.54l-0.24-0.54l-0.24-0.54l-0.24-0.54l-0.18-0.54l-0.24-0.6l-0.24-0.54l-0.24-0.54l-0.24-0.54l-0.18-0.54l-0.24-0.54
		l-0.24-0.54l-0.24-0.6l-0.18-0.54l-0.24-0.54l-0.24-0.54l-0.24,0.54l-0.24,0.54l-0.18,0.54l-0.24,0.6l-0.24,0.54l-0.24,0.54
		l-0.24,0.54l-0.24,0.54l-0.18,0.54l-0.24,0.54l-0.24,0.6l-0.24,0.54l-0.24,0.54l-0.18,0.54l-0.24,0.54l-0.24,0.54l-0.24,0.6
		l-0.24,0.54l-0.18,0.54l-0.24,0.54L116.25,35l-0.24,0.54l-0.24,0.54l-0.24,0.6l-0.18,0.54l-0.24,0.54l-0.24,0.54h0.6h0.6h0.54h0.6
		h0.6h0.6h0.54h0.6h0.6h0.6h0.54h0.6h0.6h0.6h0.54h0.6h0.6h0.6h0.54h0.6H127.17z"/>
	<path fill="#1E3160" d="M166.53,57.07h-0.6h-0.6l-0.54-0.06l-0.6-0.06h-0.6l-0.6-0.12l-0.54-0.06l-0.6-0.06l-0.6-0.12l-0.54-0.12
		l-0.6-0.12l-0.54-0.12l-0.6-0.18l-0.54-0.12l-0.54-0.18l-0.6-0.18l-0.54-0.24l-0.54-0.18l-0.54-0.24l-0.54-0.24l-0.54-0.24
		l-0.54-0.24l-0.54-0.24l-0.54-0.3l-0.48-0.3l-0.54-0.3l-0.48-0.36l-0.54-0.3l-0.48-0.36l-0.48-0.36l-0.48-0.36l-0.48-0.42
		l-0.48-0.36l-0.48-0.42l0.42-0.48l0.36-0.48l0.42-0.42l0.36-0.48l0.42-0.48l0.36-0.48l0.42-0.48l0.36-0.42l0.42-0.48l0.36-0.48
		l0.42-0.48l0.36-0.42l0.36-0.48l0.42-0.48l0.48,0.42l0.54,0.36l0.48,0.42l0.54,0.36l0.48,0.36l0.54,0.3l0.48,0.36l0.54,0.3
		l0.54,0.3l0.48,0.24l0.54,0.3l0.54,0.24l0.54,0.24l0.54,0.18l0.54,0.18l0.6,0.18l0.54,0.18l0.6,0.12l0.6,0.12l0.6,0.06l0.6,0.06
		l0.6,0.06l0.6,0.06h0.66h0.72l0.72-0.06l0.66-0.12l0.66-0.12l0.54-0.18l0.54-0.18l0.54-0.24l0.48-0.3l0.54-0.42l0.42-0.48
		l0.36-0.54l0.24-0.54l0.12-0.6l0.06-0.66v-0.12l-0.06-0.6l-0.12-0.6l-0.18-0.54l-0.3-0.48l-0.48-0.48l-0.54-0.48l-0.48-0.24
		l-0.48-0.24l-0.54-0.3l-0.6-0.24l-0.66-0.24l-0.48-0.18l-0.48-0.12l-0.54-0.18l-0.54-0.18l-0.6-0.12l-0.6-0.18l-0.66-0.18
		l-0.66-0.18l-0.66-0.18l-0.66-0.18l-0.66-0.18l-0.6-0.18l-0.6-0.18l-0.6-0.18l-0.6-0.18l-0.54-0.18l-0.54-0.18l-0.54-0.18
		l-0.6-0.24l-0.6-0.24l-0.54-0.24l-0.48-0.24l-0.54-0.3l-0.48-0.24l-0.48-0.3l-0.42-0.36l-0.42-0.3l-0.48-0.36l-0.42-0.42
		l-0.42-0.42l-0.36-0.48l-0.36-0.48l-0.36-0.48l-0.3-0.48l-0.24-0.54l-0.24-0.48l-0.18-0.54l-0.12-0.54l-0.18-0.6l-0.12-0.6
		l-0.06-0.6l-0.06-0.66l-0.06-0.66v-0.72v-0.12v-0.66l0.06-0.6l0.06-0.66l0.12-0.6l0.12-0.6l0.12-0.54l0.18-0.6l0.24-0.54l0.24-0.54
		l0.24-0.54l0.3-0.48l0.3-0.48l0.36-0.48l0.36-0.48l0.36-0.42l0.36-0.42l0.42-0.42l0.48-0.42l0.42-0.36l0.48-0.36l0.48-0.3l0.54-0.3
		l0.54-0.3l0.54-0.3l0.54-0.24l0.6-0.24l0.66-0.24l0.54-0.12l0.54-0.18l0.6-0.12l0.6-0.12l0.6-0.12l0.66-0.12l0.6-0.06h0.66
		l0.66-0.06h0.66h0.66h0.6l0.6,0.06l0.66,0.06l0.6,0.06l0.6,0.06l0.6,0.06l0.54,0.12l0.6,0.06l0.6,0.12l0.54,0.18l0.54,0.12
		l0.6,0.18l0.54,0.12l0.54,0.18l0.54,0.24l0.54,0.24l0.6,0.24l0.54,0.24l0.54,0.24l0.54,0.3l0.48,0.24l0.54,0.3l0.54,0.36l0.48,0.3
		l0.54,0.36l0.48,0.36l0.48,0.36l0.48,0.36l-0.36,0.48l-0.36,0.54l-0.3,0.48l-0.36,0.48l-0.36,0.48l-0.36,0.54l-0.3,0.48l-0.36,0.48
		l-0.36,0.54l-0.36,0.48l-0.36,0.48l-0.3,0.48l-0.36,0.54l-0.36,0.48l-0.54-0.36l-0.48-0.36l-0.54-0.36l-0.54-0.3l-0.54-0.36
		l-0.48-0.24l-0.54-0.3l-0.54-0.24l-0.48-0.3l-0.54-0.18l-0.48-0.24l-0.6-0.24l-0.6-0.18l-0.54-0.18l-0.6-0.12l-0.54-0.12l-0.6-0.12
		l-0.54-0.06l-0.6-0.06l-0.54-0.06h-0.6h-0.72l-0.66,0.06l-0.6,0.12l-0.54,0.12l-0.54,0.18l-0.48,0.18l-0.42,0.24l-0.42,0.3
		l-0.48,0.42l-0.36,0.42l-0.3,0.48l-0.18,0.48l-0.12,0.54l-0.06,0.54v0.12l0.06,0.72l0.12,0.66l0.24,0.54l0.24,0.36l0.36,0.36
		l0.42,0.36l0.48,0.36l0.48,0.24l0.48,0.3l0.6,0.24l0.66,0.24l0.72,0.24l0.48,0.18l0.54,0.18l0.54,0.18l0.54,0.12l0.6,0.18
		l0.66,0.18l0.66,0.18l0.72,0.18l0.66,0.18l0.66,0.18l0.6,0.18l0.66,0.18l0.6,0.18l0.6,0.18l0.54,0.24l0.54,0.18l0.54,0.18
		l0.54,0.24l0.66,0.3l0.6,0.24l0.54,0.36l0.6,0.3l0.48,0.3l0.54,0.36l0.48,0.36l0.48,0.36l0.42,0.42l0.36,0.42l0.42,0.42l0.36,0.42
		l0.3,0.48l0.3,0.48l0.24,0.48l0.3,0.48l0.18,0.54l0.18,0.6l0.18,0.54l0.12,0.6l0.12,0.66l0.06,0.6l0.06,0.66v0.72v0.12v0.66
		l-0.06,0.6l-0.06,0.6l-0.06,0.6l-0.12,0.6l-0.12,0.54l-0.18,0.54l-0.12,0.54l-0.24,0.54l-0.18,0.48l-0.3,0.6l-0.3,0.48l-0.3,0.54
		l-0.36,0.48l-0.36,0.48l-0.42,0.42l-0.42,0.42l-0.42,0.42l-0.42,0.36l-0.48,0.36l-0.42,0.3l-0.48,0.3l-0.48,0.3l-0.48,0.3
		l-0.54,0.24l-0.54,0.24l-0.54,0.18l-0.54,0.24l-0.6,0.18l-0.54,0.18l-0.54,0.12l-0.54,0.12l-0.6,0.12l-0.54,0.12l-0.6,0.06
		l-0.6,0.06l-0.6,0.06l-0.6,0.06h-0.66H166.53z"/>
	<path fill="#1E3160" d="M200.84,21.31h-0.6h-0.6h-0.66h-0.6h-0.6h-0.6h-0.6h-0.6h-0.66h-0.6h-0.6h-0.6h-0.6h-0.66h-0.6h-0.6h-0.6
		h-0.6h-0.6h-0.66H188h-0.6v-0.6v-0.6v-0.6v-0.66v-0.6v-0.6v-0.6v-0.6v-0.6v-0.6v-0.66v-0.6v-0.6v-0.6h0.6h0.6h0.6h0.6h0.6h0.6h0.6
		h0.6h0.6h0.6h0.6h0.6h0.6h0.6h0.6h0.6h0.6h0.6h0.6h0.6h0.6h0.6h0.6h0.6h0.6h0.6h0.6h0.6h0.6h0.66h0.6h0.6h0.6h0.6h0.6h0.6h0.6h0.6
		h0.6h0.6h0.6h0.6h0.6h0.6h0.6h0.6h0.6h0.6h0.6h0.6h0.6h0.6h0.6h0.6h0.6h0.6h0.6h0.6h0.6h0.6v0.6v0.6v0.6v0.66v0.6v0.6v0.6v0.6v0.6
		v0.6v0.66v0.6v0.6v0.6h-0.6h-0.6h-0.6H221h-0.6h-0.6h-0.6h-0.6H218h-0.6h-0.6h-0.66h-0.6h-0.6h-0.6h-0.6h-0.6h-0.6h-0.66h-0.6h-0.6
		h-0.6v0.6v0.6v0.6v0.6v0.6v0.6v0.6v0.54v0.6v0.6v0.6v0.6v0.6v0.6v0.6v0.6v0.6v0.6v0.6v0.6v0.6v0.6v0.54v0.6v0.6v0.6v0.6v0.6v0.6
		v0.6v0.6v0.6v0.6v0.6v0.6v0.6v0.54v0.6v0.6v0.6v0.6v0.6v0.6v0.6v0.6v0.6v0.6v0.6v0.6v0.6v0.6v0.54v0.6v0.6v0.6v0.6v0.6v0.6v0.6
		h-0.6h-0.66h-0.6h-0.6h-0.6h-0.66h-0.6h-0.6h-0.6h-0.66h-0.6h-0.6h-0.6h-0.66h-0.6v-0.6v-0.6v-0.6v-0.6v-0.6v-0.6v-0.6v-0.54v-0.6
		v-0.6v-0.6v-0.6v-0.6v-0.6v-0.6v-0.6v-0.6v-0.6v-0.6v-0.6v-0.6v-0.6v-0.54v-0.6v-0.6v-0.6v-0.6v-0.6v-0.6v-0.6v-0.6v-0.6v-0.6v-0.6
		v-0.6v-0.6v-0.54v-0.6v-0.6v-0.6v-0.6v-0.6v-0.6v-0.6v-0.6v-0.6v-0.6v-0.6v-0.6v-0.6v-0.6v-0.54v-0.6v-0.6v-0.6v-0.6v-0.6v-0.6
		V21.31z"/>
</g>
<rect x="24.27" y="22.22" fill="#1E3160" width="8.37" height="34.25"/>
<rect x="12.14" y="30.3" fill="#1E3160" width="8.21" height="26.18"/>
<rect y="39.35" fill="#1E3160" width="7.5" height="17.12"/>
<path fill="#1E3160" d="M25.89,2.4c-0.51,0.5-3.75,3.75-3.53,8.84c0.23,5.39,4.23,8.44,4.75,8.83c0.73-0.14-0.07,0.02,0.66-0.12
	c0.81-1.31,2.72-4.88,2.39-8.83C29.74,6.14,25.89,2.4,25.89,2.4"/>
<path fill="#FFFFFF" d="M28.9,16.09c-1.96,1.96-3.01,4.1-2.34,4.77c0.67,0.67,2.8-0.38,4.76-2.34c1.96-1.96,3-4.1,2.33-4.77
	C32.99,13.08,30.85,14.13,28.9,16.09"/>
<path fill="#89D2D7" d="M29.87,12.72c-2.43,2.34-3.17,5.7-3.36,6.93c0.11-0.14,0.22-0.27,0.33-0.41l1.08-1.39
	c0.19-0.23,0.38-0.46,0.58-0.69c0.2-0.23,0.41-0.44,0.62-0.66c0.43-0.42,0.88-0.82,1.35-1.19c0.95-0.73,1.98-1.35,3.08-1.81
	c-0.94,0.73-1.84,1.47-2.69,2.27c-0.42,0.4-0.83,0.81-1.22,1.23c-0.39,0.43-0.76,0.86-1.12,1.32l-0.55,0.69
	c-0.19,0.23-0.38,0.46-0.57,0.68c-0.1,0.12-0.21,0.24-0.32,0.36c1.35-0.18,4.56-0.83,6.89-3.08C37,14.07,37.4,9.58,37.4,9.58
	S32.89,9.81,29.87,12.72"/>
</svg>
