<?xml version="1.0" encoding="utf-8"?>
<!-- Generator: Adobe Illustrator 23.0.6, SVG Export Plug-In . SVG Version: 6.00 Build 0)  -->
<svg version="1.1" id="Layer_1" xmlns="http://www.w3.org/2000/svg" xmlns:xlink="http://www.w3.org/1999/xlink" x="0px" y="0px"
	 viewBox="0 0 572.3 308.1" enable-background="new 0 0 572.3 308.1" xml:space="preserve">
<g>
	<g>
		<g>
			<path fill="#BF5B5A" d="M128.1,181.2c0,0,3.8,28.9-14.7,44.1c-18.5,15.2,6,14.4,19.3,5.2C146.2,221.3,128.1,181.2,128.1,181.2z"
				/>
			<path fill="#51B0CB" d="M125.2,189.5c0,0-6.6,18.9-43.8,27.7c-16.2,2.7,15.2,16.8,27.4,7C125.8,210.7,125.2,189.5,125.2,189.5z"
				/>
			<path fill="#BF5B5A" d="M116.8,197.6c-18.3,8-39.2,4.3-48,2.2c-8.8-2.1,10.3,10.7,16.3,12C91,213.1,108.3,204.7,116.8,197.6z"/>
			<path fill="#AC2328" d="M128.1,181.2c0,0,3.8,28.9-14.7,44.1c-18.5,15.2,6,14.4,19.3,5.2C146.2,221.3,128.1,181.2,128.1,181.2z"
				/>
			<path fill="#3FB1C8" d="M125.2,189.5c0,0-6.6,18.9-43.8,27.7c-16.2,2.7,15.2,16.8,27.4,7C125.8,210.7,125.2,189.5,125.2,189.5z"
				/>
			<path fill="#3FB1C8" d="M135.5,180.9c-5.8-42.8-15.9-76.6-27.1-104.7c-6.3-16,22.6-12.4,27.1,0.4
				C145.8,106.1,135.5,180.9,135.5,180.9z"/>
			<path fill="#AC2328" d="M139,164.1c0,0,8.5-54,3.1-78.9c-2.1-9.7,13.6-2.2,15.5,6.2C161.7,109.9,139,164.1,139,164.1z"/>
			<path fill="#AC2328" d="M135.9,193.1c-8.5-22-27.5-68.5-73.6-118.8C45,55.6,86.4,53.1,96.7,68.4
				C120.5,103.8,135.9,193.1,135.9,193.1z"/>
			<path fill="#AC2328" d="M116.8,197.6c-18.3,8-39.2,4.3-48,2.2c-8.8-2.1,10.3,10.7,16.3,12C91,213.1,108.3,204.7,116.8,197.6z"/>
		</g>
		<g>
			<path fill="#6E6F71" d="M180.3,112.7c0-9.5-0.2-16-0.7-23.5c1.9,0.2,4.2,0.4,7,0.4c3.9,0,8.3-0.4,12.4-0.4c8,0,12.1,1.2,14.7,3.5
				c3.6,3,5.2,6.5,5.2,11.4c0,12.9-9.1,18.1-21.8,18.1h-4.3c0,8.5,0.1,17,0.7,25.4c-1.9-0.2-4.2-0.4-6.9-0.4c-2.8,0-5.1,0.2-7,0.4
				c0.5-7.4,0.7-14,0.7-23.5L180.3,112.7L180.3,112.7z M196.5,94.1c-1.4,0-2.6,0-3.6,0.1c-0.1,7.9-0.2,15.9-0.2,23.8
				c5.7,0,12.7-1.5,12.7-12.5C205.5,96.8,201.4,94.1,196.5,94.1z"/>
			<path fill="#6E6F71" d="M250.8,141.3h-0.2c-3.1,4.6-7.4,7.4-12.8,7.4c-8.5,0-13.2-4.7-13.2-15.6c0-5.8,0.4-9.8,0.4-14.2
				c0-3.5-0.3-8-0.4-12.3c1.4,0.3,3.9,0.4,6.4,0.4c2.5,0,4.9-0.2,6.4-0.4c-0.8,6.1-0.9,14.2-0.9,24.3c0,7,2.6,10.3,6.9,10.3
				c5.1,0,7.4-4.7,7.4-12.5v-3.4c0-6.9-0.2-12.9-0.7-18.8c1.4,0.2,3.7,0.4,6.4,0.4c2.6,0,4.8-0.2,6.4-0.4
				c-0.5,5.9-0.7,11.9-0.7,18.8v3.4c0,6.9,0.2,12.9,0.7,18.8c-2-0.2-4-0.4-6-0.4c-2,0-4,0.2-6.2,0.4L250.8,141.3z"/>
			<path fill="#6E6F71" d="M271.5,112.8c0-11.1-0.2-19.7-0.7-29.3c1.4,0.2,3.9,0.4,6.4,0.4c2.4,0,4.9-0.2,6.4-0.4
				c-0.4,9.6-0.7,18.2-0.7,29.3h0.2c1.9-4.6,6.3-7.3,11.3-7.3c9.6,0,16.4,9.1,16.4,20.3c0,16.8-10.3,22.9-19.1,22.9
				c-5.4,0-9.1-2.5-11.5-5.9c-2.4,1.4-4.8,3.3-7.3,5.2h-2c0.4-9.9,0.7-18.6,0.7-29.7L271.5,112.8L271.5,112.8z M290.1,145
				c4.8,0,8-5.7,8-19.4c0-9.8-2.6-14.7-7.3-14.7c-4.8,0-8,4.3-8,16.6C282.8,137.3,284.1,145,290.1,145z"/>
			<path fill="#6E6F71" d="M318.4,112.8c0-11.1-0.2-19.7-0.7-29.3c1.5,0.2,3.9,0.4,6.4,0.4s4.9-0.2,6.3-0.4
				c-0.4,9.6-0.7,18.2-0.7,29.3v5.5c0,11.1,0.3,19.7,0.7,29.3c-1.4-0.3-3.9-0.4-6.3-0.4c-2.5,0-4.9,0.1-6.4,0.4
				c0.4-9.6,0.7-18.2,0.7-29.3V112.8z"/>
			<path fill="#6E6F71" d="M345.7,84c3.7,0,6.7,3,6.7,6.7c0,3.7-3,6.7-6.7,6.7c-3.7,0-6.7-3-6.7-6.7C339,86.9,342,84,345.7,84z
				 M340,125.5c0-6.9-0.2-12.9-0.7-18.8c1.5,0.2,3.7,0.4,6.4,0.4c2.6,0,4.9-0.2,6.4-0.4c-0.5,5.9-0.7,11.9-0.7,18.8v3.4
				c0,6.9,0.2,12.9,0.7,18.8c-1.4-0.2-3.7-0.4-6.4-0.4c-2.6,0-4.8,0.2-6.4,0.4c0.5-5.9,0.7-11.9,0.7-18.8V125.5z"/>
			<path fill="#6E6F71" d="M391.4,118.4c-0.8-4.9-3.4-8.5-8.6-8.5c-6.6,0-10.2,6.5-10.2,17.4c0,10.3,4.4,15.9,12.6,15.9
				c3.5,0,7.2-1.9,8.7-4l1,0.9c-0.8,1.6-1.4,3.3-1.9,5c-2.4,1.9-6.3,3.6-11.4,3.6c-16.5,0-22-11.2-22-21.5
				c0-12.5,8.8-21.7,22.4-21.7c6.3,0,10.5,1.6,14.6,4c-1.4,2.2-2.6,5.8-3.2,8.8L391.4,118.4L391.4,118.4z"/>
			<path fill="#6E6F71" d="M201.9,180.2c-1.8-4.8-5.1-7.3-10.3-7.3c-5.2,0-8.8,3.5-8.8,7.6c0,12.5,25.8,9.4,25.8,28.6
				c0,11.3-9,19.1-22.4,19.1c-6.1,0-11.2-1.8-13.6-3.6c1.1-3.9,1.9-6.9,2.5-10.8h1.6c0.9,4.9,4.8,9.1,11.7,9.1
				c6.6,0,9.9-3.9,9.9-8.6c0-12.8-25.2-9.4-25.2-28.6c0-11.7,9-18.1,19.1-18.1c6.1,0,10.7,1.6,13.9,4.1c-1,2.6-1.6,4.6-2.7,8.4
				L201.9,180.2L201.9,180.2z"/>
			<path fill="#6E6F71" d="M236.8,186.6c-0.2,0.8-0.3,1.5-0.3,2.3c0,0.7,0.1,1.4,0.3,2.1l-7.4-0.2c-0.3,5.1-0.6,14.3-0.6,18.9
				c0,11.8,0.8,13.7,4.7,13.7c2.1,0,2.9-0.3,3.9-0.9v3.5c-2.2,1.4-6,2.2-9.2,2.2c-7,0-10.8-4.6-10.8-13.1c0-6.5,0.6-17.1,0.6-24.2
				L212,191c0.2-0.7,0.3-1.4,0.3-2.1c0-0.8-0.1-1.4-0.3-2.3l5.9,0.2c0-3.6-0.1-6.1-0.3-10.4c3.9-1.6,7.8-3.4,11.6-5.2l0.9,0.6
				c-0.4,3.6-0.8,9.9-0.8,15L236.8,186.6z"/>
			<path fill="#6E6F71" d="M254.7,196.5l0.2,0.2c3-7.8,7.1-11.4,12.8-11.4c0.5,0,0.9,0.1,1.4,0.1c-0.3,1.7-0.5,3.5-0.5,6.1
				c0,1.7,0,3.6,0.1,5.6l-0.8,0.7c-1.1-0.7-2.5-1.2-4.3-1.2c-5.1,0-8.2,3.9-8.2,8.4v3.4c0,6.9,0.2,12.9,0.7,18.8
				c-1.4-0.2-3.7-0.4-6.4-0.4s-4.8,0.2-6.3,0.4c0.5-5.9,0.7-11.9,0.7-18.8V205c0-6.9-0.2-12.9-0.7-18.8c1.9,0.2,3.9,0.4,5.9,0.4
				c1.9,0,3.9-0.2,5.8-0.4L254.7,196.5z"/>
			<path fill="#6E6F71" d="M274,191c4.6-3.8,10.5-5.9,15.9-5.9c9,0,15.5,3.8,15.5,13.8c0,7.2-0.2,13.1-0.2,19.2c0,5.3,1.5,5.8,5,5.8
				v2c-3.2,1.7-5.2,2.3-7.8,2.3c-4.2,0-6.7-2.4-8.1-6.2c-2.6,3.6-5.9,6.2-11,6.2c-8.6,0-12.1-5.7-12.1-11.1
				c0-7.4,4.9-10.5,12.5-12.4c9.5-2.3,10.3-3,10.3-6c0-4.1-3-7.4-8.1-7.4c-3.9,0-8.5,2.3-10.2,4.6h-0.6L274,191z M294.2,205.2
				c-4.8,2.7-11.2,2.3-11.2,10.9c0,4.2,1.9,6.4,4.8,6.4c3.7,0,6.2-2.9,6.2-8.4C294.1,209.2,294.2,207.1,294.2,205.2z"/>
			<path fill="#6E6F71" d="M336.1,186.6c-0.2,0.8-0.3,1.5-0.3,2.3c0,0.7,0.1,1.4,0.3,2.1l-7.5-0.2c-0.3,5.1-0.6,14.3-0.6,18.9
				c0,11.8,0.8,13.7,4.7,13.7c2.1,0,2.9-0.3,3.9-0.9v3.5c-2.2,1.4-6,2.2-9.2,2.2c-7,0-10.8-4.6-10.8-13.1c0-6.5,0.6-17.1,0.6-24.2
				l-5.9,0.1c0.2-0.7,0.2-1.4,0.2-2.1c0-0.8-0.1-1.4-0.2-2.3l5.9,0.2c0-3.6-0.1-6.1-0.3-10.4c3.9-1.6,7.8-3.4,11.6-5.2l0.9,0.6
				c-0.4,3.6-0.8,9.9-0.8,15L336.1,186.6z"/>
			<path fill="#6E6F71" d="M352,206.7c0,9.1,3.5,16.1,11.4,16.1c3.9,0,7.4-1.3,10.4-3.8l1,0.8l-1.9,4.8c-2.8,2.1-6.5,3.8-12.9,3.8
				c-11,0-20.6-6.6-20.6-21.4c0-14.7,8.3-21.8,19.7-21.8c11,0,17.3,7,17.3,18.8c0,1.4,0,2.2-0.1,2.8L352,206.7L352,206.7z
				 M365,202.9c-0.2-8.5-1.9-14-6.3-14c-5,0-6.6,7.4-6.8,14H365z"/>
			<path fill="#6E6F71" d="M411.7,189.2l-0.2,0.2c2.8,2,4.6,5.2,4.6,9.4c0,8.4-6.7,14.1-16.4,14.1c-1.2,0-2.4-0.1-3.8-0.1
				c-1.4,0-2.4,1.4-2.4,3.1c0,2.7,2,4.4,6.5,4.5l6.3,0.1c9.3,0.1,13.8,3.5,13.8,11.2c0,13.5-12.4,18.1-22.4,18.1
				c-10.5,0-16.9-4.7-16.9-11.3c0-5.3,3.4-8.6,8.3-10.5v-0.2c-2.9-1.3-4.8-3.4-4.8-6.5c0-3.7,3.2-7.7,7.9-9v-0.2
				c-3.4-0.8-6.1-2.4-8-4.6c-1.9-2.2-2.9-5.1-2.9-8.8c0-8.6,7.3-13.6,18-13.6c2,0,4.2,0.3,6.3,0.4c1.4,0.1,3,0.2,4.7,0.2
				c2.8,0,5.9-0.1,9-0.1c-0.1,0.7-0.2,1.4-0.2,2c0,0.7,0.1,1.4,0.2,2L411.7,189.2z M397.9,228.3c-3,0-4.8,0.3-6.1,0.9
				c-1.4,0.7-3.3,3.4-3.3,7.4c0,6.4,5.1,9.7,11.1,9.7c6.5,0,10.6-4.6,10.6-10.1C410.1,229.6,405.5,228.3,397.9,228.3z M393.1,199.7
				c0,7.4,3,10,5.6,10c3.7,0,5.5-3.2,5.5-10.8s-2.3-10.4-5.3-10.4C395,188.6,393.1,192.3,393.1,199.7z"/>
			<path fill="#6E6F71" d="M431.5,163.5c3.7,0,6.7,3,6.7,6.7c0,3.7-3,6.7-6.7,6.7c-3.7,0-6.7-3-6.7-6.7
				C424.8,166.4,427.8,163.5,431.5,163.5z M425.8,205c0-6.9-0.2-12.9-0.7-18.8c1.5,0.2,3.7,0.4,6.4,0.4c2.6,0,4.9-0.2,6.3-0.4
				c-0.5,5.9-0.7,12-0.7,18.8v3.4c0,6.9,0.2,12.9,0.7,18.8c-1.4-0.2-3.7-0.4-6.3-0.4c-2.6,0-4.8,0.2-6.4,0.4
				c0.5-5.9,0.7-11.9,0.7-18.8V205z"/>
			<path fill="#6E6F71" d="M457.4,206.7c0,9.1,3.5,16.1,11.4,16.1c3.9,0,7.4-1.3,10.4-3.8l1,0.8l-1.9,4.8c-2.8,2.1-6.5,3.8-12.9,3.8
				c-11,0-20.6-6.6-20.6-21.4c0-14.7,8.3-21.8,19.6-21.8c11,0,17.3,7,17.3,18.8c0,1.4,0,2.2-0.1,2.8L457.4,206.7L457.4,206.7z
				 M470.5,202.9c-0.2-8.5-1.9-14-6.3-14c-5,0-6.6,7.4-6.8,14H470.5z"/>
			<path fill="#6E6F71" d="M489.8,216.5c1.4,3.6,4.1,6.9,10,6.9c3.9,0,6.2-2.5,6.2-4.8c0-7.7-19.5-5.2-19.5-19.9
				c0-9.6,7.8-13.6,14.8-13.6c4.7,0,8.1,1.4,11.9,4c-1,2.2-1.7,5-2,7.4h-2.4c-0.6-2.7-3-7.1-8.4-7.1c-3.4,0-6,2-6,4.9
				c0,8.2,20,4.6,20,19.6c0,9.8-8,14.3-16.4,14.3c-5,0-9.3-2-11.7-3.6c0.7-2.7,1.1-5.4,1.3-8.1L489.8,216.5L489.8,216.5z"/>
		</g>
	</g>
</g>
</svg>
