<svg xmlns="http://www.w3.org/2000/svg" viewBox="0 0 1591.8 200.9"><g fill="#FFF"><path d="M761.7 13.1h5.9l.6 1 1.7 2.5.4.5.3.6 1 1.4.3.5 1 1.5.3.5 1.3 2 .4.5.3.5.3.6.7.9 1.7 2.5.3.5.4.5.3.6.4.5.3.5.4.5.3.5.4.5.3.5.4.5.3.5.4.5.3.5.4.5.3.5 1-1.5.4-.5 1.3-2 .3-.5 1-1.4.3-.6.4-.5.9-1.5.4-.5.9-1.5.4-.5.3-.6 1.3-2 .3-.5 1.3-2 .4-.5.3-.5.4-.5.3-.5.4-.5.3-.6.4-.5.3-.5.4-.5.3-.5 1.3-2h6.1v44h-5.8V22.7l-.4.5-.3.5-.7 1-.3.6-.7.9-.3.6-.7 1-.3.5-1.7 2.5-.3.5-.4.5-.4.5-.3.5-.4.5-.4.5-.3.5-.4.5-.4.5-.7 1-.4.5-.6 1-.7.9-.4.6-.4.5-.3.5-.7 1-.3.6-.7 1-.3.5-.7 1-.3.5-.4.5h-.2l-.4-.5-.3-.5-.7-1-.3-.5-2.4-3.5-1.3-2-.4-.5-.7-1-.4-.5-.7-1-.4-.5-2.7-4.1-1-1.5-.4-.5-1.3-2-.4-.5-.3-.6-.7-.9-.3-.6-.4-.5V57h-5.6V13.1zM842.6 57.1H837v-4.7l-1.5 1.7-.4.4-.5.4-.5.4-.5.4-1.1.6-1.5.7-1.1.4-.6.2-1.2.2-.6.1-.7.1-.7.1H825l-.6-.1-.5-.1-1.1-.1-1.1-.2-1.1-.4-.6-.2-.5-.2-.5-.3-.6-.3-.5-.3-.5-.4-.5-.4-.9-.8-.7-.9-.7-1.1-.2-.5-.4-1-.2-.6-.1-.6-.1-.6-.1-.6V47l.1-.6.1-.6.1-.6.5-1.6.2-.5.3-.6.3-.5.7-1 .4-.5.9-.8 1.4-.9 1-.5.6-.2 1.7-.5 1.8-.4.6-.1.7-.1h.6l.7-.1h1.9l.6.1h.7l2.6.3 1.7.3.8.2.8.2 1.8.4v-1.8l-.1-.7-.2-1.2-.2-.6-.2-.5-.3-.5-.3-.5-.4-.5-.4-.4-.4-.4-.4-.3-.4-.3-.5-.2-.5-.3-.6-.2-.5-.2-.6-.2-.6-.1-.7-.1-1.3-.1h-1.4l-.6.1h-.6l-1.2.1-.6.1-.6.1-.5.1-.5.1-1.1.4-1.2.4-.6.2-.5.2-.6.2-.5.2-.2-.5-.2-.6-.4-1.1-.2-.6-.2-.5-.2-.6-.2-.5 1.1-.5.5-.2.5-.2 1.1-.4.6-.2.5-.2.5-.2.6-.2 1.6-.4.6-.1 3-.3h2.1l.9-.2h.7l.7.1.7.1.7.1.6.1.6.2.5.1 1.2.4.5.2.6.2.9.5.9.7.4.4.7.7.7.8.6.9.5 1 .3.5.4 1.1.2.6.1.5.1.6.2 2.6v20.7zm-16.4-4h1.2l1.8-.2 1.1-.2 2.3-.9.5-.3.5-.3.5-.4 1.3-1.2.3-.4.6-1 .2-.5.4-1.1.1-.6.1-.5v-3.3l-.5-.2-1.1-.2-.6-.1-1.2-.3-1.1-.3-2.5-.2-.7-.1h-2.1l-1.3.1-.6.1-1.2.2-1.5.5-.5.2-.4.2-.4.2-.6.4-.4.4-.7.9-.2.5-.2.5-.2 1.2v.7l.1.7.1.6.2.6.2.5.3.5.8.9 1.4.9.5.2.5.2 1.1.3.6.1.6.1.7.6zM852.9 24.4h5.6v7.7l.2-.5.3-.5.2-.5.3-.5.4-.5.3-.4.4-.4.4-.5.4-.4.4-.4.4-.4.4-.4.4-.3.5-.4 1-.6.5-.2.5-.3.6-.2 1.6-.5.6-.1.6-.1.6-.1h1.9v5.4h-1l-1.3.1-.6.2-1.2.2-.6.2-.5.2-.6.2-.5.2-1.9 1.4-.8.8-.7.9-.4.5-.3.5-.3.5-1.2 2.8-.1.5-.2.5-.1.5-.1.6-.1.5-.1 1.2v.6l-.1.6v13.8h-5.6V24.4zM878.9 24.4h5.6v7.7l.2-.5.3-.5.2-.5.3-.5.4-.5.3-.4.4-.4.4-.5.4-.4.4-.4.4-.4.4-.4.4-.3.5-.4 1-.6.5-.2.5-.3.6-.2 1.6-.5.6-.1.6-.1.6-.1h1.9v5.4h-1l-1.3.1-.6.2-1.2.2-.6.2-.5.2-.6.2-.5.2-1.9 1.4-.8.8-.7.9-.4.5-.3.5-.3.5-1.2 2.8-.1.5-.2.5-.1.5-.1.6-.1.5-.1 1.2v.6l-.1.6v13.8h-5.6V24.4zM905.1 12.5h6.3v5.4h-6.3v-5.4zm.4 11.9h5.6v32.7h-5.6V24.4zM949.1 57.1h-5.6v-4.7l-1.5 1.7-.4.4-.5.4-.5.4-.5.4-1.1.6-1.5.7-1.1.4-.6.2-1.2.2-.6.1-.7.1-.7.1h-1.2l-.6-.1-.5-.1-1.1-.1-1.1-.2-1.1-.6-.6-.2-.5-.2-.5-.3-.6-.3-.5-.3-.5-.4-.5-.4-.9-.8-.7-.9-.7-1.1-.2-.5-.4-1-.2-.6-.1-.6-.1-.6-.1-.6v-1.4l.1-.6.1-.6.1-.6.5-1.6.2-.5.3-.6.3-.5.7-1 .4-.5.9-.8 1.4-.9 1-.5.6-.2 1.7-.5 1.8-.4.6-.1.7-.1h.6l.7-.1h1.9l.6.1h.7l2.6.3 1.7.3.8.2.8.2 1.8.4v-1.8l-.1-.7-.2-1.2-.2-.6-.2-.5-.3-.5-.3-.5-.4-.5-.4-.4-.4-.4-.4-.3-.4-.3-.5-.2-.5-.3-.6-.2-.5-.2-.6-.2-.6-.1-.7-.1-1.3-.1h-1.4l-.6.1h-.6l-1.2.1-.6.1-.6.1-.5.1-.5.1-.9.3-1.2.4-.6.2-.5.2-.6.2-.5.2-.2-.5-.2-.6-.4-1.1-.2-.6-.2-.5-.2-.6-.2-.5 1.1-.5.5-.2.5-.2 1.1-.4.6-.2.5-.2.5-.2.6-.2 1.6-.4.6-.1 3-.3h2.1l.7.1h.7l.7.1.7.1.7.1.6.1.6.2.5.1 1.2.4.5.2.6.2.9.5.9.7.4.4.7.7.7.8.6.9.5 1 .3.5.4 1.1.2.6.1.5.1.6.2 2.6v20.7zm-16.3-4h1.2l1.8-.2 1.1-.2 2.3-.9.5-.3.5-.3.5-.4 1.3-1.2.3-.4.6-1 .2-.5.4-1.1.1-.6.1-.5v-3.3l-.5-.2-1.1-.2-.6-.1-1.2-.3-1.1-.3-2.5-.2-.7-.1h-2l-1.3.1-.6.1-1.2.2-1.5.5-.5.2-.4.2-.4.2-.6.4-.4.4-.7.9-.2.5-.2.5-.2 1.2v.7l.1.7.1.6.2.6.2.5.3.5.8.9 1.4.9.5.2.5.2 1.1.3.6.1.6.1.6.6zM985.3 24.4h5.6v27.4l-.1.7v.7l-.1.6-.1.7-.4 1.9-.4 1.2-.2.6-.2.5-.2.6-.3.5-.2.6-1.3 1.8-.4.4-.4.4-1.3 1.1-.4.4-1 .6-1.1.6-1.1.5-.5.2-.6.2-.5.2-.6.1-1.8.4-2.5.2h-2.6l-3-.3-1.8-.4-.5-.1-.6-.1-.5-.2-2.2-.7-1.6-.7-.6-.2-.5-.3-.5-.3-.5-.2-1-.6.3-.6.9-1.6.3-.6.6-1.1.3-.6.3.1 1 .6 1.1.6 1 .5 1.1.5.5.2.6.3.5.1.6.2.6.1 1.7.4 1.2.1h.6l.6.1h1.3l1.9-.2 1.2-.2 1.2-.4.5-.3.5-.2.9-.5.5-.4.8-.7.4-.4.7-.9.3-.5.3-.5.2-.5.2-.5.4-1.1.1-.6.1-.6.1-.7.1-.6.1-.7V48l-.4.5-.4.4-.4.5-.4.4-.4.4-.4.4-.9.8-.4.4-.5.4-1.5.9-1.4.7-1.1.4-1.7.4-1.9.2h-1.3l-2.2-.2-.6-.1-.5-.2-.6-.1-.5-.2-.5-.2-.6-.2-1.1-.5-1.4-.9-.5-.4-.5-.3-.4-.4-1.3-1.2-.8-.9-.3-.5-.4-.5-.6-1-.3-.6-.5-1.1-.4-1.1-.1-.6.3-.6-.1-.6-.2-2.4v-1.4l.2-2.4.1-.6.2-.6.1-.6.9-2.2 1.2-2.1.7-.9.8-.9 1.3-1.2.5-.3.9-.7 1-.6.6-.2.5-.3.6-.2 1.1-.4.6-.1.5-.2.6-.1 1.1-.1.6-.1.5-.1h1.3l.6.1 1.3.1.6.1.5.1.6.1 1.1.4.5.2 1 .5 2.5 1.8 1 .8.9.8.4.5.4.4.4.5v-5.7zm-11.7 25.2h1.2l1.2-.1 1.2-.2.6-.2.6-.3.6-.2.5-.2.6-.3 1.4-1 .9-.8.8-.9.3-.4.4-.5.6-1.1.2-.5.2-.6.2-.6.2-1.2.1-.6v-1.4l-.1-.6-.2-1.2-.2-.6-.2-.6-.2-.6-.6-1.1-.4-.5-1.1-1.3-.4-.4-.5-.4-2-1.3-.5-.2-.6-.2-1.2-.4-.6-.1-.6-.1-1.2-.1h-1.2l-1.2.1-.6.1-.6.1-1.1.4-.6.2-1 .5-.9.6-.4.4-.8.8-.4.4-.6.9-.6 1-.5 1.1-.2.6-.4 1.8-.1.6v1.4l.1.7.4 1.8.2.6.5 1.1.9 1.5.4.4.4.4.4.4 1.3 1.1.5.3.5.2.5.3.6.2.5.3.6.2.5.1.6.1 1.1.1zM1017 57.9h-1.3l-.6-.1-.6-.1-1.2-.1-.5-.1-.6-.1-1.7-.5-1.2-.5-.6-.2-1.1-.6-1.6-1.1-.5-.4-.9-.9-.4-.4-.7-.9-.4-.4-.3-.5-.4-.5-.6-1-.9-2.2-.4-1.1-.1-.5-.2-.6-.1-.6-.1-.5-.1-.6-.1-.6v-.6l-.1-.6v-1.3l.1-.7V39l.1-.6.1-.6.4-1.8.2-.6.4-1.2.2-.6.5-1.1.3-.5.2-.5.3-.5.4-.5.3-.5.7-.8.4-.5.9-.8.4-.4 1.5-1.2 1-.6.6-.2 1.1-.6 1.6-.5 1.7-.4 1.2-.1.6-.1h1.3l.6.1 1.3.1 1.8.4 1.2.4 1.1.5.5.3.6.3 2 1.4.4.4.5.4 1.2 1.4.4.5.6 1 .3.6.8 1.7.4 1.2.4 1.2.4 1.8.1.6.1.6.1.6v.6l.1.6V42l-.1.9h-25.3l.1.6.1.6.1.5.1.5.4 1.1.2.5 1.2 2 1.1 1.3.4.4.5.4 1.1.7 1.2.6 1.1.4.6.1.5.1.6.1 1.1.1h1.3l1.8-.2.5-.1.6-.1.5-.2.5-.1 1.5-.7.5-.3.6-.3.9-.7 1.4-1.2.4-.4.8.8.9.7.4.4.4.4.4.4.4.4-1.3 1.3-.4.4-.5.4-1.9 1.5-.5.3-.5.3-.6.2-.5.3-.6.2-.5.2-1.1.4-1.8.4-.7.1-.7.1h-.6l-.7.1zm-.8-29.4h-1.3l-.7.1-.6.1-.6.2-.6.2-.6.2-1.2.6-.5.3-.5.4-.5.4-1.3 1.4-.7 1.1-.6 1.2-.2.6-.2.5-.2.6-.2.5-.1.6-.1.7-.1.6h19.8l-.1-1.2-.2-1.1-.2-.6-.1-.5-.2-.6-.3-.6-.2-.6-.3-.5-1.1-1.6-.5-.4-.4-.4-.5-.4-1-.7-.6-.3-1.6-.6-.6-.1-1.1-.1zM1085.8 57.1h-5.6v-4.7l-1.5 1.7-.4.4-.5.4-.5.4-.5.4-1.1.6-1.5.7-1.1.4-.6.2-1.2.2-.6.1-.7.1-.7.1h-1.2l-.6-.1-.5-.1-1.1-.1-1.1-.2-1.2-.4-.6-.2-.5-.2-.5-.3-.6-.3-.5-.3-.5-.4-.5-.4-.9-.8-.7-.9-.7-1.1-.2-.5-.4-1V50l-.1-.6-.1-.6-.1-.6v-1.4l.1-.6.1-.6.1-.6.5-1.6.2-.5.3-.6.3-.5.7-1 .4-.5.9-.8 1.4-.9 1-.5.6-.2 1.7-.5 1.8-.4.6-.1.7-.1h.6l.7-.1h1.9l.6.1h.7l2.6.3 1.7.3.8.2.8.2 1.8.4v-1.8l-.1-.7-.2-1.2-.2-.6-.2-.5-.3-.5-.3-.5-.4-.5-.4-.4-.4-.4-.4-.3-.4-.3-.5-.2-.5-.3-.6-.2-.5-.2-.6-.2-.6-.1-.7-.1-1.3-.1h-1.4l-.6.1h-.6l-1.2.1-.6.1-.6.1-.5.1-.5.1-1.1.4-1.2.4-.6.2-.5.2-.6.2-.5.2-.2-.5-.2-.6-.4-1.1-.2-.6-.2-.5-.2-.6-.2-.5 1.1-.5.5-.2.5-.2 1.2-.4.6-.2.5-.2.5-.2.6-.2 1.6-.4.6-.1 3-.3h2.1l.7.1h.7l.7.1.7.1.7.1.6.1.6.2.5.1 1.2.4.5.2.6.2.9.5.9.7.4.4.7.7.7.8.6.9.5 1 .3.5.4 1.1.2.6.1.5.1.6.2 2.6v20.6zm-16.4-4h1.2l1.8-.2 1.1-.2 2.3-.9.5-.3.5-.3.5-.4 1.3-1.2.3-.4.6-1 .2-.5.4-1.1.1-.6.1-.5v-3.3l-.5-.2-1.1-.2-.6-.1-1.2-.3-1.1-.3-2.5-.2-.7-.1h-2.1l-1.3.1-.6.1-1.2.2-1.5.5-.5.2-.4.2-.4.2-.6.4-.4.4-.7.9-.2.5-.2.5-.2 1.2v.7l.1.7.1.6.2.6.2.5.3.5.8.9 1.4.9.5.2.5.2 1.1.3.6.1.6.1.7.6zM1096 24.4h5.6v5.5l.3-.5.7-1 .8-1 .9-.8.5-.4.5-.4.5-.4.6-.3.5-.3.6-.3.6-.2.7-.2 1.7-.4.6-.1.7-.1h1.3l.6.1 1.2.1 1.7.4.5.2.6.2 1.6.9.5.3.5.4.8.8.4.4.4.5.7.9.3.6.3.5.7 1.7.1.5.2.5.2 1.1.1.6.1.6v.6l.1.6v21.2h-5.6V37.5l-.1-1.3-.1-.6-.1-.6-.4-1.1-.2-.5-.5-1-.4-.5-.3-.4-.4-.4-.5-.4-1-.6-.5-.3-.5-.2-.6-.2-.6-.1-.7-.1-.7-.1h-1.4l-.6.1-1.2.2-1.1.4-1.1.5-.9.7-.4.4-.8.9-.4.5-.4.5-.3.5-.2.6-.3.5-.2.5-.4 1.7-.1 1.2v19.2h-5.6V24.4zM1161.2 11.3h5.6v45.9h-5.6V51l-.3.5-.7.9-.4.5-1.2 1.3-.4.4-.4.4-.5.4-.4.4-1.5.9-.5.3-.6.2-.5.2-.6.2-1.6.4-.5.1-.6.1-.6.1h-1.2l-.6-.1-.6-.1-.6-.1-.5-.1-.6-.1-.5-.1-1.2-.4-1.6-.7-.6-.3-.9-.6-.6-.4-.4-.4-.5-.4-.9-.9-.8-.9-1-1.3-.6-.9-.3-.6-.3-.5-.7-1.7-.2-.5-.2-.5-.1-.6-.2-.6-.1-.6-.2-1.2-.1-.6v-.7l-.1-.6v-1.5l.1-.6V39l.1-.6.1-.6.1-.6.1-.6.2-.6.1-.5.4-1.2.7-1.7.9-1.6.3-.5.7-.9 1.2-1.3.9-.9.5-.4.4-.4 1.5-1 2.2-1 .6-.2.5-.2.5-.1.6-.1.5-.1 1.2-.1.6-.1h1.2l.6.1.6.1.5.1 1.6.4.6.2.5.2.6.2.5.3.6.2.9.6.5.4.5.3.9.7 1.5 1.7.4.5.4.4.3.4V11.3zm-11.5 41.6h1.2l.6-.1.6-.1 1.2-.2 1.7-.7.5-.3.6-.3.9-.7 1-.9.4-.4 1-1.3.3-.5.3-.5.2-.6.3-.5.6-1.7.2-1.2.1-1.3V40l-.1-1.3-.2-1.2-.4-1.1-.2-.6-.3-.5-.2-.6-.3-.5-.3-.5-.6-.9-.4-.4-.4-.4-1-.9-.9-.7-.6-.3-.5-.3-.6-.3-.5-.2-.6-.2-1.2-.2-.6-.1-.6-.1h-1.2l-.7.1-.6.1-.6.1-1.1.4-.5.2-1.2.4-.6.3-.9.7-.4.4-1.3 1.4-.4.5-.9 1.7-.2.6-.5 1.7-.1.6-.1.6-.1.7-.1.6v1.5l.1.6.1.7.4 1.8.2.5.2.6.2.6.9 1.7.4.5.4.5.4.4.4.5.4.4 1 .7.5.3.5.3.6.2.5.2.6.2 1.2.2.6.1.7.6zM1197.9 13.1h19.8l.7.1h.6l1.3.1.6.1.6.1.6.1.6.2.6.1 1.1.4 1.2.5.5.3.6.3 1 .7.5.3.9.8 1.2 1.3 1 1.4.3.6.7 1.7.2.6.4 1.9.1 1.3v1.4l-.1.7-.1.6-.1.7-.1.6-.6 1.7-.2.6-.3.6-.3.5-.4.5-.4.6-.4.5-.4.5-1.7 1.5-1 .6-.5.3-1 .5-.5.2-.6.2-.6.3-.6.2-.5.2-.7.2-.6.1.7 1 1.1 1.4.4.5.4.6 1.4 1.9 2.5 3.4.3.5 1.4 1.9 1.1 1.4 2.5 3.4 1.1 1.4h-7l-1.8-2.4-.3-.5-.4-.5-.4-.5-.4-.6-2.5-3.4-.3-.5-1.4-1.9-1.5-1.9-2.1-2.9-1.1-1.4h-11.7v16.5h-5.8V13.1zm5.8 22.3h13.5l1.9-.2.6-.1.6-.1.6-.2 1.8-.7 1-.6.5-.4 1.3-1.2.6-1 .3-.5.2-.6.2-.5.2-.6.1-.6.1-.6V26l-.1-.6-.1-.6-.1-.5-.4-1.1-.3-.5-.3-.5-.7-.8-.4-.4-.4-.4-1.3-.9-.5-.2-.6-.2-.5-.2-.6-.2-1.2-.2-.6-.1-2-.2h-13.6v17zM1257.6 57.9h-1.3l-.6-.1-.6-.1-1.2-.1-.5-.1-.6-.1-1.7-.5-1.2-.5-.6-.2-1.1-.6-1.6-1.1-.5-.4-.9-.9-.4-.4-.7-.9-.4-.4-.3-.5-.4-.5-.6-1-.9-2.2-.4-1.1-.1-.5-.2-.6-.1-.6-.1-.5-.1-.6-.1-.6v-.6l-.1-.6v-1.3l.1-.7V39l.1-.6.1-.6.4-1.8.2-.6.4-1.2.2-.6.5-1.1.3-.5.2-.5.3-.5.4-.5.3-.5.7-.8.4-.5.9-.8.4-.4 1.5-1.2 1-.6.6-.2 1.1-.6 1.6-.5 1.7-.4 1.2-.1.6-.1h1.3l.7.1 1.3.1 1.8.4 1.2.4 1.1.5.5.3.6.3 2 1.4.4.4.5.4 1.2 1.4.4.5.6 1 .3.6.8 1.7.4 1.2.4 1.2.4 1.8.1.6.1.6.1.6v.6l.1.6V42l-.1.9h-25.3l.1.6.1.6.1.5.1.5.4 1.1.2.5 1.2 2 1.1 1.3.4.4.5.4 1.1.7 1.2.6 1.1.4.6.1.5.1.6.1 1.1.1h1.3l1.8-.2.5-.1.6-.1.5-.2.5-.1 1.5-.7.5-.3.6-.3.9-.7 1.4-1.2.4-.4.8.8.9.7.4.4.4.4.4.4.4.4-1.3 1.3-.4.4-.5.4-1.9 1.5-.5.3-.5.3-.6.2-.5.3-.6.2-.5.2-1.1.4-1.8.4-.7.1-.7.1h-.6l-.8.1zm-.8-29.4h-1.3l-.7.1-.6.1-.6.2-.6.1-.6.2-1.2.6-.5.3-.5.4-.5.4-1.3 1.4-.7 1.1-.6 1.2-.2.6-.2.5-.2.6-.2.5-.1.6-.1.7-.1.6h19.8l-.1-1.2-.2-1.1-.2-.6-.1-.5-.2-.6-.3-.6-.2-.6-.3-.5-1.1-1.6-.5-.4-.4-.4-.5-.4-1-.7-.6-.3-1.6-.6-.6-.1h-1.1zM1280.8 11.3h5.6v45.9h-5.6V11.3zM1324.5 57.1h-5.6v-4.7l-1.5 1.7-.4.4-.5.4-.5.4-.5.4-1.1.6-1.5.7-1.1.4-.6.2-1.2.2-.6.1-.7.1-.7.1h-1.2l-.6-.1-.5-.1-1.1-.1-1.1-.2-1.2-.4-.6-.2-.5-.2-.5-.3-.6-.3-.5-.3-.5-.4-.5-.4-.9-.8-.7-.9-.7-1.1-.2-.5-.4-1-.2-.6-.1-.6-.1-.6-.1-.6V47l.1-.6.1-.6.1-.6.5-1.6.2-.5.3-.6.3-.5.7-1 .4-.5.9-.8 1.4-.9 1-.5.6-.2 1.7-.5 1.8-.4.6-.1.7-.1h.6l.7-.1h1.9l.6.1h.7l2.6.3 1.7.3.8.2.8.2 1.8.4v-1.8l-.1-.7-.2-1.2-.2-.6-.2-.5-.3-.5-.3-.5-.4-.5-.4-.4-.4-.4-.4-.3-.4-.3-.5-.2-.5-.3-.6-.2-.5-.2-.6-.2-.6-.1-.7-.1-1.3-.1h-1.4l-.6.1h-.6l-1.2.1-.6.1-.6.1-.5.1-.5.1-1.1.4-1.2.4-.6.2-.5.2-.6.2-.5.2-.2-.5-.2-.6-.4-1.1-.2-.6-.2-.5-.2-.6-.2-.5 1.1-.5.5-.2.5-.2 1.2-.4.6-.2.5-.2.5-.2.6-.2 1.6-.4.6-.1 3-.3h2.1l.7.1h.7l.7.1.7.1.7.1.6.1.6.2.5.1 1.2.4.5.2.6.2.9.5.9.7.4.4.7.7.7.8.6.9.5 1 .3.5.4 1.1.2.6.1.5.1.6.2 2.6v20.4zm-16.4-4h1.2l1.8-.2 1.1-.2 2.3-.9.5-.3.5-.3.5-.4 1.3-1.2.3-.4.6-1 .2-.5.4-1.1.1-.6.1-.5v-3.3l-.5-.2-1.1-.2-.6-.1-1.2-.3-1.1-.3-2.5-.2-.7-.1h-2.1l-1.2.2-.6.1-1.2.2-1.5.5-.5.2-.4.2-.4.2-.6.4-.4.4-.7.9-.2.5-.2.5-.2 1.2v.7l.1.7.1.6.2.6.2.5.3.5.8.9 1.4.9.5.2.5.2 1.1.3.6.1.6.1.6.5zM1336.2 29.4h-4.4v-5h4.4v-9.6h5.6v9.6h9.9v5h-9.9v18.9l.1.7.1.6.5 1 .3.4.4.4.4.3.4.2.5.2.6.2.6.1.6.1h1.3l.6-.1 1.8-.4.5-.2.6-.2.6-.3V56l-.6.3-.5.2-1.1.4-.6.2-.5.1-.5.1-.6.1h-.5l-.6.1h-1.3l-1.3-.1-1.8-.4-.5-.2-.6-.2-.5-.2-1-.6-.9-.7-.4-.4-.4-.5-.3-.5-.3-.5-.2-.6-.2-.5-.4-1.7-.1-1.3V29.4zM1360.6 12.5h6.3v5.4h-6.3v-5.4zm.4 11.9h5.6v32.7h-5.6V24.4zM1393.8 57.9h-1.2l-.6-.1h-.6l-.6-.1-.6-.1-.5-.1-.6-.1-.5-.2-.6-.1-1.1-.4-.5-.2-.6-.3-.5-.3-.5-.2-1-.6-1-.7-.4-.4-.5-.4-1.3-1.3-.7-.8-.7-1-.6-1-.3-.5-.3-.6-.7-1.6-.4-1.2-.1-.6-.2-.6-.1-.5-.2-2.5v-1.3l.2-2.5.1-.6.2-.5.1-.6.2-.6 1.2-2.8.3-.5.3-.5 1.8-2.4 1.3-1.3.5-.4.4-.4 1.5-1 1.1-.6.6-.2.5-.3.5-.2 1.7-.5.5-.1.6-.1.5-.1.6-.1.6-.1h1.2l1.2-.1.6.2.6-.1.6.1 1.7.4.5.1 1.6.5.6.2.5.3.6.2 1.1.6.9.7.5.3.5.4.4.4.5.4.4.4.4.4.4.4.7.9.7 1 .3.5.3.5.5 1.1.3.6.6 1.7.1.6.2.6.1.6.2 2.5v1.4l-.2 2.5-.1.6-.2.5-.1.6-.2.6-.2.6-.2.5-.8 1.7-.3.5-.3.5-.4.5-.4.4-.3.5-1.6 1.7-.4.4-2.4 1.8-1.1.6-1.1.5-.6.3-1.6.5-2.3.5-.6.1h-1.2zm-1.1-5.1h1.2l.6-.1.6-.1 1.2-.2 1.1-.4 1.1-.5 1.6-1 1.4-1.3.4-.5.4-.5.3-.5.4-.6.3-.5.3-.6.3-.6.2-.5.1-.6.2-.6.1-.5.2-1.8v-1.3l-.1-1.2-.1-.6-.1-.5-.1-.6-.2-.5-.2-.6-.5-1-1.2-1.9-.7-.9-.9-.9-.5-.4-1.1-.7-.6-.3-.6-.3-.5-.2-1.1-.4-1.2-.2-.6-.1-.6-.1h-1.2l-.7.1-1.7.3-1.1.4-1.1.5-1.6 1-.5.4-.9.9-.8 1-1 1.6-.5 1.2-.2.6-.1.5-.3 1.1-.2 1.7v1.4l.1 1.2.3 1.1.1.6.2.5.2.6.2.5.2.5 1.2 1.9 1.2 1.3.5.5.5.4 1.6 1 1.1.5 1.1.4.6.1.5.1.6.1.6.1zM1419.3 24.4h5.6v5.5l.3-.5.7-1 .8-1 .9-.8.5-.4.5-.4.5-.4.6-.3.5-.3.6-.3.6-.2.7-.2 1.7-.4.6-.1.7-.1h1.3l.6.1 1.2.1 1.7.4.5.2.6.2 1.6.9.5.3.5.4.8.8.4.4.4.5.7.9.3.6.3.5.7 1.7.1.5.2.5.2 1.1.1.6.1.6v.6l.1.6v21.2h-5.6V37.5l-.1-1.3-.1-.6-.1-.6-.4-1.1-.2-.5-.5-1-.4-.5-.3-.4-.4-.4-.5-.4-1-.6-.5-.3-.5-.2-.6-.2-.6-.1-.7-.1-.7-.1h-1.4l-.6.1-1.2.2-1.1.4-1.1.5-.9.7-.4.4-.8.9-.4.5-.4.5-.3.5-.2.6-.3.5-.2.5-.4 1.7-.1 1.2v19.2h-5.6V24.4zM1470.1 57.7h-1.2l-.6-.1h-.6l-.6-.1-.6-.1-.6-.1-1.2-.2-.6-.2-.6-.1-.6-.2-.6-.3-.6-.2-.6-.2-.5-.2-.6-.2-1.6-.9-.5-.4-2-1.4.7-1 .3-.5.7-.9.7-1 .4-.5.6.4.5.4.6.3.5.4 1.1.6.5.3 1.1.5.6.2.6.2 1.9.6.6.1 1.9.2h1.3l.6-.1 1.2-.2.6-.2.9-.5.5-.3.4-.4.7-.9.2-.5.2-.5.1-.5.1-.6v-.1l-.1-.7-.2-.7-.3-.6-1.2-1.1-.6-.4-.4-.2-1.5-.6-.6-.3-3-.9-.6-.2-2.7-.8-1.2-.4-1.7-.9-2-1.4-.8-.9-.7-1-.2-.4-.2-.5-.2-.6-.2-1.1-.1-.6v-1.4l.1-.6.2-1.2.1-.5.2-.6.2-.5.3-.5.8-1.1.4-.5.5-.5.9-.8 1-.6 1.1-.6.5-.2.6-.2.5-.2 1.1-.2 1.2-.1.5-.1.6-.1h1.2l.6.1h.6l.6.1.7.1 1.2.2.6.2.7.1.6.2 1.2.5.6.2.6.3.6.2.5.2 1.1.6.5.4.5.3-.3.6-.3.5-1.6 2.6-.3.6-1-.6-.5-.3-.5-.2-.5-.3-.6-.3-.5-.2-.5-.2-2.4-.7-.6-.1-1.2-.1-.5-.1h-1.3l-.7.1-.6.1-1.2.4-.6.3-.4.3-.5.4-.4.5-.3.5-.2.6-.1.5-.1.6v.3l.1.6.2.7.3.5.3.4.8.7.9.6.4.2.6.2.5.2 1.8.6.6.2 1.8.6.5.2.5.2.5.2.5.2.6.2.5.2.6.2 1.7.9.5.4.6.3.4.4.5.4.4.4 1.1 1.4.5 1.1.2.6.1.6.1.7v1.5l-.1.7-.2 1.3-.4 1.1-.2.5-.9 1.5-.4.4-.8.8-.4.4-.5.4-1.6.9-.5.3-1.8.5-.5.1-.6.1-.5.1-.6.1h-.6l-.4-.1zM1490.4 11.3h5.6V30l.3-.5.7-1 .8-1 .9-.8.5-.4.5-.4.5-.4.6-.3.5-.3.6-.3.6-.2.7-.2 1.7-.4.6-.1.7-.1h1.3l.6.1 1.2.1 1.7.4.5.2.6.2 1.6.9.5.3.5.4.8.8.4.4.4.5.7.9.3.6.3.5.7 1.7.1.5.2.5.2 1.1.1.6.1.6v.6l.1.6v21.2h-5.6V37.5l-.1-1.3-.1-.6-.1-.6-.4-1.1-.2-.5-.5-1-.4-.5-.3-.4-.4-.4-.5-.4-1-.6-.5-.3-.5-.2-.6-.2-.6-.1-.7-.1-.7-.1h-1.4l-.6.1-1.2.2-1.1.4-1.1.5-.9.7-.4.4-.8.9-.4.5-.4.5-.3.5-.3.2-.3.5-.2.5-.4 1.7-.1 1.2v19.2h-5.6V11.3zM1529.8 12.5h6.3v5.4h-6.3v-5.4zm.4 11.9h5.6v32.7h-5.6V24.4zM1547.2 24.4h5.6v6.2l.3-.5.4-.5.7-.8.4-.5.9-.8.4-.4.9-.7.4-.4.6-.3.9-.6.6-.3 1.2-.5.6-.2 1.7-.4.5-.1.6-.1.6-.1h1.2l.5.1.6.1.5.1 1.7.4 1.2.4.5.2.5.3.6.2 1.6.9.5.4.5.4.9.8.4.4.4.4.4.4 1.3 1.8.9 1.6.5 1.1.2.6.4 1.1.1.5.2.6.1.6.1.6.1.6.1.6v.7l.1.6v1.5l-.1.6v.7l-.1.6-.1.6-.1.6-.1.6-.2.6-.1.5-.2.6-.2.5-.2.5-.2.6-.3.6-.3.5-.3.5-.3.6-1 1.4-.4.4-.4.6-.4.4-1.3 1.2-.5.4-.5.4-1.6.9-.6.2-.5.3-.5.2-1.2.4-1.1.2-.6.1-.5.1-.6.1-.5.1h-1.2l-.7-.1-.5-.1-.6-.1-1.7-.4-.6-.2-1.2-.5-1.1-.5-1-.6-.5-.4-.5-.3-.8-.7-.4-.4-.5-.5-1.3-1.5-.4-.6v16h-5.6V24.4zm15.9 28.5h1.2l.7-.1.6-.1.6-.1.6-.2.5-.2 1.7-.7.5-.3 1-.7.9-.9 1.2-1.4.9-1.7.4-1.2.4-1.2.1-.6.2-2V40l-.1-1.3-.4-1.8-.2-.6-.2-.5-.9-1.8-.3-.6-.8-1-.4-.5-.5-.4-.4-.4-1-.7-1.1-.6-1.1-.5-.6-.2-1.2-.2-.6-.1-.6-.1h-1.2l-.6.1-.6.1-1.2.2-.6.2-.6.2-1.6.9-1 .7-1.3 1.3-1 1.3-.6 1-.2.6-.3.5-.2.6-.4 1.1-.2 1.2-.1 1.3v1.5l.1 1.3.2 1.2.2.6.2.5.2.6.3.5.2.6.6 1 .6.9.4.4 1.3 1.3 1 .7 1.1.6 1.1.5.6.2 1.2.2.6.1.7.2zM766.3 88.6v.7l.1.5.2 1 .2.5.2.4.2.5.4.4.9.8.4.3 1.4.7 1.8.7.5.2.5.1.5.1.5.1.5.1.6.2.6.2.7.2.6.2.7.2.7.2 2.2.6.7.2.6.2 1.8.7 1.6.7.5.3 1 .5.9.6.4.3.4.2 1.3 1.3.4.5.3.4.3.5.3.5.2.6.2.5.2.6.2 1.2.1 1.3v1.5l-.1 1.2-.4 1.8-.2.6-.3.5-.2.5-.3.6-.4.5-.3.6-.4.5-.4.5-1.4 1.3-1.4 1-1.1.6-1.7.7-1.2.4-.5.2-1.2.2-.6.1-.6.1-.7.1h-.6l-.6.1h-1.9l-3-.3-2.9-.6-.6-.2-1.6-.6-1.1-.5-.6-.2-.5-.3-.6-.2-.5-.3-.5-.2-.6-.3-.5-.4-.5-.3-.5-.4-1.9-1.5-.9-.9.4-.5.4-.5.4-.4.4-.5.8-.9.4-.4.4-.5.4-.5.9.8.5.4.5.4.5.4.5.3.5.4 1 .6 2.5 1.3.5.2.6.2.5.2.6.2.5.2 1.2.2.6.1.6.1.6.1h.6l.7.1h1.3l1.3-.1.6-.1.6-.1 1.6-.5.5-.3 1-.5.9-.7.8-.9.4-.5.3-.5.2-.5.2-.6.3-1.1v-1.4l-.1-.6-.1-.6-.2-.6-.3-.6-.4-.5-.5-.5-.5-.5-1.5-.9-1.9-.8-.5-.1-1.1-.3-1.8-.5-.7-.2-.7-.2-.7-.2-.7-.2-.7-.2-.7-.2-1.8-.5-.6-.2-1.7-.4-.5-.2-.6-.2-1.2-.6-.5-.3-.3-.1-.9-.6-1.4-1.1-.5-.5-.4-.5-.7-1-.8-1.6-.2-.6-.2-1.2-.1-.6-.1-1.3v-1.5l.1-.7.4-1.8.2-.6.5-1.2.6-1.1.4-.5.4-.5.4-.4.4-.5.9-.9.4-.4.5-.3.4-.4 1.6-.8 1.1-.5.6-.2.5-.2.6-.1.5-.2.6-.1.5-.1.6-.1.6-.1h.6l.6-.1h2l2.6.2.6.1.6.1 1.2.2 1.1.4.5.1 2.1.9 1 .5 1.5.9.5.3.6.3 1.9 1.5L789 85l-.4.5-.4.6-.7.9-.5-.4-1.6-1.1-2.1-1.2-1-.5-.5-.2-.5-.2-.6-.2-.5-.2-.6-.1-.5-.2-.6-.1-1.2-.2-.5-.1h-.6l-.6-.1h-1.3l-1.2.1-1.2.2-.5.1-1.2.5-1.1.6-.4.3-.6.5-.5.5-.4.5-.4.5-.2.6-.2.7-.1.6v.7zM803 93.9h-4.4v-5h4.4v-9.6h5.6v9.6h9.9v5h-9.9v18.9l.1.7.1.6.5 1 .3.4.4.4.4.3.4.2.5.2.6.2.6.1.6.1h1.3l.6-.1 1.8-.4.5-.2.6-.2.6-.3v4.7l-.6.3-.5.2-1.1.4-.6.2-.5.1-.5.1-.6.1h-.5l-.6.1h-1.3l-1.3-.1-1.8-.4-.5-.2-.6-.2-.5-.2-1-.6-.9-.7-.4-.4-.4-.5-.3-.5-.3-.5-.2-.6-.2-.5-.4-1.7-.1-1.3V93.9zM827.3 88.9h5.6v7.7l.2-.5.3-.5.2-.5.3-.5.4-.5.3-.4.4-.4.4-.5.4-.4.4-.4.4-.4.4-.4.4-.3.5-.4 1-.6.5-.2.5-.3.6-.2 1.6-.5.6-.1.6-.1.6-.1h1.9v5.4h-1l-1.3.1-.6.2-1.2.2-.6.2-.5.2-.6.2-.5.2-1.9 1.4-.8.8-.7.9-.4.5-.3.5-.3.5-1.2 2.8-.1.5-.2.5-.1.5-.1.6-.1.5-.1 1.2v.6l-.1.6v13.8h-5.6V88.9zM867.2 122.4h-1.3l-.6-.1-.6-.1-1.2-.1-.5-.1-.6-.1-1.7-.5-1.2-.5-.6-.2-1.1-.6-1.6-1.1-.5-.4-.9-.9-.4-.4-.7-.9-.4-.4-.3-.5-.4-.5-.6-1-.9-2.2-.4-1.1-.1-.5-.2-.6-.1-.6-.1-.5-.1-.6-.1-.6v-.6l-.1-.6v-1.3l.1-.7v-.6l.1-.6.1-.6.4-1.8.2-.6.4-1.2.2-.6.5-1.1.3-.5.2-.5.3-.5.4-.5.3-.5.7-.8.4-.5.9-.8.4-.4 1.5-1.2 1-.6.6-.2 1.1-.6 1.6-.5 1.7-.4 1.2-.1.6-.1h1.3l.6.1 1.3.1 1.8.4 1.2.4 1.1.5.5.3.6.3 2 1.4.5.2.5.4 1.2 1.4.4.5.7 1 .3.6.8 1.7.4 1.2.4 1.2.4 1.8.1.6.1.6.1.6v.6l.1.6v1.5l-.1.9h-25.3l.1.6.1.6.1.5.1.5.4 1.1.2.5 1.2 2 1.1 1.3.4.4.5.4 1.1.7 1.2.6 1.1.4.6.1.5.1.6.1 1.1.1h1.3l1.8-.2.5-.1.6-.1.5-.2.5-.1 1.5-.7.5-.3.6-.3.9-.7 1.4-1.2.4-.4.8.8.9.7.4.4.4.4.4.4.4.4-1.3 1.3-.4.4-.5.4-1.9 1.5-.5.3-.5.3-.6.2-.5.3-.6.2-.5.2-1.1.4-1.8.4-.7.1-.7.1h-.6l-.9.3zm-.8-29.4h-1.3l-.7.1-.6.1-.6.2-.6.2-.6.2-1.2.6-.5.3-.5.4-.5.4-1.3 1.4-.7 1.1-.6 1.2-.2.6-.2.5-.2.6-.2.5-.1.6-.1.7-.1.6h19.8l-.1-1.2-.2-1.1-.2-.6-.1-.5-.2-.6-.3-.6-.2-.6-.3-.5-1.1-1.6-.5-.4-.4-.4-.5-.4-1-.7-.6-.3-1.6-.6-.6-.1-1.1-.1zM889.9 88.9h5.6v5.5l.3-.5.7-1 .8-1 .9-.8.5-.4.5-.4.5-.4.6-.3.5-.3.6-.3.6-.2.7-.2 1.7-.4.6-.1.7-.1h1.3l.6.1 1.2.1 1.7.4.5.2.6.2 1.6.9.5.3.5.4.8.8.4.4.4.5.7.9.3.6.3.5.7 1.7.1.5.2.5.2 1.1.1.6.1.6v.6l.1.6v21.2H913V102l-.1-1.3-.1-.6-.1-.6-.4-1.1-.2-.5-.5-1-.4-.5-.3-.4-.4-.4-.5-.4-1-.6-.5-.3-.5-.2-.6-.2-.6-.1-.7-.1-.7-.1H904l-.6.1-1.2.2-1.1.4-1.1.5-.9.7-.4.4-.8.9-.4.5-.4.5-.3.5-.2.6-.3.5-.2.5-.4 1.7-.1 1.2V122H890V88.9zM955 88.9h5.6v27.4l-.1.7v.7l-.1.6-.1.7-.3 2-.4 1.2-.2.6-.2.5-.2.6-.3.5-.2.6-1.3 1.8-.4.4-.4.4-1.3 1.1-.4.4-1 .6-1.1.6-1.1.5-.5.2-.6.2-.5.2-.6.1-1.8.4-2.5.2h-2.6l-3-.3-1.8-.4-.5-.1-.6-.1-.5-.2-2.2-.7-1.6-.7-.6-.2-.5-.3-.5-.3-.5-.2-1-.6.3-.6.9-1.6.3-.6.6-1.1.3-.6.5.4 1 .6 1.1.6 1 .5 1.1.5.5.2.6.3.5.1.6.2.6.1 1.7.4 1.2.1h.6l.6.1h1.3l1.9-.2 1.2-.2 1.2-.4.5-.3.5-.2.9-.5.5-.4.8-.7.4-.4.7-.9.3-.5.3-.5.2-.5.2-.5.4-1.1.1-.6.1-.6.1-.7.1-.6.1-.7v-4.2l-.4.5-.4.4-.4.5-.4.4-.4.4-.4.4-.9.8-.4.4-.5.4-1.5.9-1.4.7-1.1.4-1.7.4-1.9.2H942l-2.2-.2-.6-.1-.5-.2-.6-.1-.5-.2-.5-.2-.6-.2-1.1-.5-1.4-.9-.5-.4-.5-.3-.4-.4-1.3-1.2-.8-.9-.3-.5-.4-.5-.6-1-.3-.6-.5-1.1-.4-1.1-.1-.6-.2-.5-.1-.6-.2-2.4v-2l.2-2.4.1-.6.2-.6.1-.6.9-2.2 1.2-2.1.7-.9.8-.9 1.3-1.2.5-.3.9-.7 1-.6.6-.2.5-.3.6-.2 1.1-.4.6-.1.5-.2.6-.1 1.1-.1.6-.1.5-.1h1.3l.7.1 1.3.1.6.1.5.1.6.1 1.1.4.5.2 1 .5 2.5 1.8 1 .8.9.8.4.5.4.4.4.5v-5.6zm-11.7 25.2h1.2l1.2-.1 1.2-.2.6-.2.6-.3.6-.2.5-.2.6-.3 1.4-1 .9-.8.8-.9.3-.4.4-.5.6-1.1.2-.5.2-.6.2-.6.2-1.2.1-.6V103l-.1-.6-.2-1.2-.2-.6-.2-.6-.2-.6-.6-1.1-.4-.5-1.1-1.3-.4-.4-.5-.4-2-1.3-.5-.2-.6-.2-1.2-.4-.6-.1-.6-.1-1.2-.1h-1.2l-1.2.1-.6.1-.6.1-1.1.4-.6.2-1 .5-.9.6-.4.4-.8.8-.4.4-.6.9-.6 1-.5 1.1-.2.6-.4 1.8-.1.6v1.4l.1.7.4 1.8.2.6.5 1.1.9 1.5.4.4.4.4.4.4 1.3 1.1.5.3.5.2.5.3.6.2.5.3.6.2.5.1.6.1 1.1.1zM973.3 93.9h-4.4v-5h4.4v-9.6h5.6v9.6h9.9v5h-9.9v18.9l.1.7.1.6.5 1 .3.4.4.4.4.3.4.2.5.2.6.2.6.1.6.1h1.3l.6-.1 1.8-.4.5-.2.6-.2.6-.3v4.7l-.6.3-.5.2-1.1.4-.6.2-.5.1-.5.1-.6.1h-.5l-.6.1H982l-1.3-.1-1.8-.4-.5-.2-.6-.2-.5-.2-1-.6-.9-.7-.4-.4-.4-.5-.3-.5-.3-.5-.2-.6-.2-.5-.4-1.7-.1-1.3V93.9zM997.5 75.8h5.6v18.7l.3-.5.7-1 .8-1 .9-.8.5-.4.5-.4.5-.4.6-.3.5-.3.6-.3.6-.2.7-.2 1.7-.4.6-.1.7-.1h1.3l.6.1 1.2.1 1.7.4.5.2.6.2 1.6.9.5.3.5.4.8.8.4.4.4.5.7.9.3.6.3.5.7 1.7.1.5.2.5.2 1.1.1.6.1.6v.6l.1.6v21.2h-5.6V102l-.1-1.3-.1-.6-.1-.6-.4-1.1-.2-.5-.5-1-.4-.5-.3-.4-.4-.4-.5-.4-1-.6-.5-.3-.5-.2-.6-.2-.6-.1-.7-.1-.7-.1h-1.4l-.6.1-1.2.2-1.1.4-1.1.5-.9.7-.4.4-.8.9-.4.5-.4.5-.3.5-.2.6-.3.5-.2.5-.4 1.7-.1 1.2V122h-5.6V75.8zM1052.1 122.4h-1.3l-.6-.1-.6-.1-1.2-.1-.5-.1-.6-.1-1.7-.5-1.2-.5-.6-.2-1.1-.6-1.6-1.1-.5-.4-.9-.9-.4-.4-.7-.9-.4-.4-.3-.5-.4-.5-.6-1-.9-2.2-.4-1.1-.1-.5-.2-.6-.1-.6-.1-.5-.1-.6-.1-.6v-.6l-.1-.6v-1.3l.1-.7v-.6l.1-.6.1-.6.4-1.8.2-.6.4-1.2.2-.6.5-1.1.3-.5.2-.5.3-.5.4-.5.3-.5.7-.8.4-.5.9-.8.4-.4 1.5-1.2 1-.6.6-.2 1.1-.6 1.6-.5 1.7-.4 1.2-.1.6-.1h1.3l.7.1 1.3.1 1.8.4 1.2.4 1.1.5.5.3.6.3 2 1.4.4.4.5.4 1.2 1.4.4.5.6 1 .3.6.8 1.7.4 1.2.4 1.2.4 1.8.1.6.1.6.1.6v.6l.1.6v1.5l-.1.9h-25.3l.1.6.1.6.1.5.1.5.4 1.1.2.5 1.2 2 1.1 1.3.4.4.5.4 1.1.7 1.2.6 1.1.4.6.1.5.1.6.1 1.1.1h1.3l1.8-.2.5-.1.6-.1.5-.2.5-.1 1.5-.7.5-.3.6-.3.9-.7 1.4-1.2.4-.4.8.8.9.7.4.4.4.4.4.4.4.4-1.3 1.3-.4.4-.5.4-1.9 1.5-.5.3-.5.3-.6.2-.5.3-.6.2-.5.2-1.1.4-1.8.4-.7.1-.7.1h-.6l-.8.1zm-.8-29.4h-1.3l-.7.1-.6.1-.6.2-.6.2-.6.2-1.2.6-.5.3-.5.4-.5.4-1.3 1.4-.7 1.1-.6 1.2-.2.6-.2.5-.2.6-.2.5-.1.6-.1.7-.1.6h19.8l-.1-1.2-.2-1.1-.2-.6-.1-.5-.2-.6-.3-.6-.2-.6-.3-.5-1.1-1.6-.5-.4-.4-.4-.5-.4-1-.7-.6-.3-1.6-.6-.6-.1-1.1-.1zM1074.8 88.9h5.6v5.5l.3-.5.7-1 .8-1 .9-.8.5-.4.5-.4.5-.4.6-.3.5-.3.6-.3.6-.2.7-.2 1.7-.4.6-.1.7-.1h1.3l.6.1 1.2.1 1.7.4.5.2.6.2 1.6.9.5.3.5.4.8.8.4.4.4.5.7.9.3.6.3.5.7 1.7.1.5.2.5.2 1.1.1.6.1.6v.6l.1.6v21.2h-5.6V102l-.1-1.3-.1-.6-.1-.6-.4-1.1-.2-.5-.5-1-.4-.5-.3-.4-.4-.4-.5-.4-1-.6-.5-.3-.5-.2-.6-.2-.6-.1-.7-.1-.7-.1h-1.4l-.6.1-1.2.2-1.1.4-1.1.5-.9.7-.4.4-.8.9-.4.5-.4.5-.3.5-.2.6-.3.5-.2.5-.4 1.7-.1 1.2V122h-5.6V88.9zM1114.2 77h6.3v5.4h-6.3V77zm.4 11.9h5.6v32.7h-5.6V88.9zM1131.5 88.9h5.6v5.5l.3-.5.7-1 .8-1 .9-.8.5-.4.5-.4.5-.4.6-.3.5-.3.6-.3.6-.2.7-.2 1.7-.4.6-.1.7-.1h1.3l.6.1 1.2.1 1.7.4.5.2.6.2 1.6.9.5.3.5.4.8.8.4.4.4.5.7.9.3.6.3.5.7 1.7.1.5.2.5.2 1.1.1.6.1.6v.6l.1.6v21.2h-5.6V102l-.1-1.3-.1-.6-.1-.6-.4-1.1-.2-.5-.5-1-.4-.5-.3-.4-.4-.4-.5-.4-1-.6-.5-.3-.5-.2-.6-.2-.6-.1-.7-.1-.7-.1h-1.4l-.6.1-1.2.2-1.1.4-1.1.5-.9.7-.4.4-.8.9-.4.5-.4.5-.3.5-.2.6-.3.5-.2.5-.4 1.7-.1 1.2V122h-5.6V88.9zM1196.6 88.9h5.6v27.4l-.1.7v.7l-.1.6-.1.7-.4 1.9-.4 1.2-.2.6-.2.5-.2.6-.3.5-.2.6-1.3 1.8-.4.4-.4.4-1.3 1.1-.4.4-1 .6-1.1.6-1.1.5-.5.2-.6.2-.5.2-.6.1-1.8.4-2.5.2h-2.6l-3-.3-1.8-.4-.5-.1-.6-.1-.5-.2-2.2-.7-1.6-.7-.6-.2-.5-.3-.5-.3-.5-.2-1-.6.3-.6.9-1.6.3-.6.6-1.1.3-.6.5.4 1 .6 1.1.6 1 .5 1.1.5.5.2.6.3.5.1.6.2.6.1 1.7.4 1.2.1h.6l.6.1h1.3l1.9-.2 1.2-.2 1.2-.4.5-.3.5-.2.9-.5.5-.4.8-.7.4-.4.7-.9.3-.5.3-.5.2-.5.2-.5.4-1.1.1-.6.1-.6.1-.7.1-.6.1-.7v-4.2l-.4.5-.4.4-.4.5-.4.4-.4.4-.4.4-.9.8-.4.4-.5.4-1.5.9-1.4.7-1.1.4-1.7.4-1.9.2h-1.3l-2.2-.2-.6-.1-.5-.2-.6-.1-.5-.2-.5-.2-.6-.2-1.1-.5-1.4-.9-.5-.4-.5-.3-.4-.4-1.3-1.2-.8-.9-.3-.5-.4-.5-.6-1-.3-.6-.5-1.1-.4-1.1-.1-.6-.2-.5-.1-.6-.2-2.4V103l.2-2.4.1-.6.2-.6.1-.6.9-2.2 1.2-2.1.7-.9.8-.9 1.3-1.2.5-.3.9-.7 1-.6.6-.2.5-.3.6-.2 1.1-.4.6-.1.5-.2.6-.1 1.1-.1.6-.1.5-.1h1.3l.6.1 1.3.1.6.1.5.1.6.1 1.1.4.5.2 1 .5 2.5 1.8 1 .8.9.8.4.5.4.4.4.5v-5.6zm-11.7 25.2h1.2l1.2-.1 1.2-.2.6-.2.6-.3.6-.2.5-.2.6-.3 1.4-1 .9-.8.8-.9.3-.4.4-.5.6-1.1.2-.5.2-.6.2-.6.2-1.2.1-.6V103l-.1-.6-.2-1.2-.2-.6-.2-.6-.2-.6-.6-1.1-.4-.5-1.1-1.3-.4-.4-.5-.4-2-1.3-.5-.2-.6-.2-1.2-.4-.6-.1-.6-.1-1.2-.1h-1.2l-1.2.1-.6.1-.6.1-1.1.4-.6.2-1 .5-.9.6-.4.4-.8.8-.4.4-.6.9-.6 1-.5 1.1-.2.6-.4 1.8-.1.6v1.4l.1.7.4 1.8.2.6.5 1.1.9 1.5.4.4.4.4.4.4 1.3 1.1.5.3.5.2.5.3.6.2.5.3.6.2.5.1.6.1 1.1.1zM1233.4 77.6h19.8l.7.1h.6l1.3.1.6.1.6.1.6.1.6.2.6.1 1.1.4 1.2.5.5.3.6.3 1 .7.5.3.9.8 1.2 1.3 1 1.4.3.6.7 1.7.2.6.4 1.9.1 1.3v1.4l-.1.7-.1.6-.1.7-.1.6-.6 1.7-.2.6-.3.6-.3.5-.4.5-.4.6-.4.5-.4.5-1.7 1.5-1 .6-.5.3-1 .5-.5.2-.6.2-.6.3-.6.2-.5.2-.7.2-.6.1.7 1 1.1 1.4.4.5.4.6 1.4 1.9 2.5 3.4.3.5 1.4 1.9 1.1 1.4 2.5 3.4 1.1 1.4h-7l-1.8-2.4-.3-.5-.4-.5-.4-.5-.4-.6-2.5-3.4-.3-.5-1.4-1.9-1.5-1.9-2.1-2.9-1.1-1.4h-11.7v16.5h-5.8V77.6zm5.8 22.3h13.5l1.9-.2.6-.1.6-.1.6-.2 1.8-.7 1-.6.5-.4 1.3-1.2.6-1 .3-.5.2-.6.2-.5.2-.6.1-.6.1-.6v-1.5l-.1-.6-.1-.6-.1-.5-.4-1.1-.3-.5-.3-.5-.7-.8-.4-.4-.4-.4-1.3-.9-.5-.2-.6-.2-.5-.2-.6-.2-1.2-.2-.6-.1-2-.2H1239v17zM1293.1 122.4h-1.3l-.6-.1-.6-.1-1.2-.1-.5-.1-.6-.1-1.7-.5-1.2-.5-.6-.2-1.1-.6-1.6-1.1-.5-.4-.9-.9-.4-.4-.7-.9-.4-.4-.3-.5-.4-.5-.6-1-.9-2.2-.4-1.1-.1-.5-.2-.6-.1-.6-.1-.5-.1-.6-.1-.6v-.6l-.1-.6v-1.3l.1-.7v-.6l.1-.6.1-.6.4-1.8.2-.6.4-1.2.2-.6.5-1.1.3-.5.2-.5.3-.5.4-.5.3-.5.7-.8.4-.5.9-.8.4-.4 1.5-1.2 1-.6.6-.2 1.1-.6 1.6-.5 1.7-.4 1.2-.1.6-.1h1.3l.7.1 1.3.1 1.8.4 1.2.4 1.1.5.5.3.6.3 2 1.4.4.4.5.4 1.2 1.4.4.5.6 1 .3.6.8 1.7.4 1.2.4 1.2.4 1.8.1.6.1.6.1.6v.6l.1.6v1.5l-.1.9h-25.3l.1.6.1.6.1.5.1.5.4 1.1.2.5 1.2 2 1.1 1.3.4.4.5.4 1.1.7 1.2.6 1.1.4.6.1.5.1.6.1 1.1.1h1.3l1.8-.2.5-.1.6-.1.5-.2.5-.1 1.5-.7.5-.3.6-.3.9-.7 1.4-1.2.4-.4.8.8.9.7.4.4.4.4.4.4.4.4-1.3 1.3-.4.4-.5.4-1.9 1.5-.5.3-.5.3-.6.2-.5.3-.6.2-.5.2-1.1.4-1.8.4-.7.1-.7.1h-.6l-.8.1zm-.8-29.4h-1.3l-.7.1-.6.1-.6.2-.6.2-.6.2-1.2.6-.5.3-.5.4-.5.4-1.3 1.4-.7 1.1-.6 1.2-.2.6-.2.5-.2.6-.2.5-.1.6-.1.7-.1.6h19.8l-.1-1.2-.2-1.1-.2-.6-.1-.5-.2-.6-.3-.6-.2-.6-.3-.5-1.1-1.6-.5-.4-.4-.4-.5-.4-1-.7-.6-.3-1.6-.6-.6-.1-1.1-.1zM1327.3 122.2h-1.2l-.6-.1h-.6l-.6-.1-.6-.1-.6-.1-1.2-.2-.6-.2-.6-.1-.6-.2-.6-.3-.6-.2-.6-.2-.5-.2-.6-.2-1.6-.9-.5-.4-2-1.4.7-1 .3-.5.7-.9.7-1 .4-.5.6.4.5.4.6.3.5.4 1.1.6.5.3 1.1.5.6.2.6.2 1.9.6.6.1 1.9.2h1.3l.6-.1 1.2-.2.6-.2.9-.5.5-.3.4-.4.7-.9.2-.5.2-.5.1-.5.1-.6v-.1l-.1-.7-.2-.7-.3-.6-1.2-1.1-.6-.4-.4-.2-1.5-.6-.6-.3-3-.9-.6-.2-2.7-.8-1.2-.4-1.7-.9-2-1.4-.8-.9-.7-1-.2-.4-.2-.5-.2-.6-.2-1.1-.1-.6v-1.4l.1-.6.2-1.2.1-.5.2-.6.2-.5.3-.5.8-1.1.4-.5.5-.5.9-.8 1-.6 1.1-.6.5-.2.6-.2.5-.2 1.1-.2 1.2-.1.5-.1.6-.1h1.2l.6.1h.6l.6.1.7.1 1.2.2.6.2.7.1.6.2 1.2.5.6.2.6.3.6.2.5.2 1.1.6.5.4.5.3-.3.6-.3.5-1.6 2.6-.3.6-1-.6-.5-.3-.5-.2-.5-.3-.6-.3-.5-.2-.5-.2-2.4-.7-.6-.1-1.2-.1-.5-.1h-1.3l-.7.1-.6.1-1.2.4-.6.3-.4.3-.5.4-.4.5-.3.5-.2.6-.1.5-.1.6v.1l.1.6.2.7.3.5.3.4.8.7.9.6.4.2.6.2.5.2 1.8.6.6.2 1.8.6.5.2.5.2.5.2.5.2.6.2.5.2.6.2 1.7.9.5.4.6.3.4.4.5.4.4.4 1.1 1.4.5 1.1.2.6.1.6.1.7v1.5l-.1.7-.2 1.3-.4 1.1-.2.5-.9 1.5-.4.4-.8.8-.4.4-.5.4-1.6.9-.5.3-1.8.5-.5.1-.6.1-.5.1-.6.1h-.6l-.4.1zM1362.9 122.4h-1.3l-.6-.1-.6-.1-1.2-.1-.5-.1-.6-.1-1.7-.5-1.2-.5-.6-.2-1.1-.6-1.6-1.1-.5-.4-.9-.9-.4-.4-.7-.9-.4-.4-.3-.5-.4-.5-.6-1-.9-2.2-.4-1.1-.1-.5-.2-.6-.1-.6-.1-.5-.1-.6-.1-.6v-.6l-.1-.6v-1.3l.1-.7v-.6l.1-.6.1-.6.4-1.8.2-.6.4-1.2.2-.6.5-1.1.3-.5.2-.5.3-.5.4-.5.3-.5.7-.8.4-.5.9-.8.4-.4 1.5-1.2 1-.6.6-.2 1.1-.6 1.6-.5 1.7-.4 1.2-.1.6-.1h1.3l.7.1 1.3.1 1.8.4 1.2.4 1.1.5.5.3.6.3 2 1.4.4.4.5.4 1.2 1.4.4.5.6 1 .3.6.8 1.7.4 1.2.4 1.2.4 1.8.1.6.1.6.1.6v.6l.1.6v1.5l-.1.9h-25.3l.1.6.1.6.1.5.1.5.4 1.1.2.5 1.2 2 1.1 1.3.4.4.5.4 1.1.7 1.2.6 1.1.4.6.1.5.1.6.1 1.1.1h1.3l1.8-.2.5-.1.6-.1.5-.2.5-.1 1.5-.7.5-.3.6-.3.9-.7 1.4-1.2.4-.4.8.8.9.7.4.4.4.4.4.4.4.4-1.3 1.3-.4.4-.5.4-1.9 1.5-.5.3-.5.3-.6.2-.5.3-.6.2-.5.2-1.1.4-1.8.4-.7.1-.7.1h-.6l-.8.1zm-.8-29.4h-1.3l-.7.1-.6.1-.6.2-.6.2-.6.2-1.2.6-.5.3-.5.4-.5.4-1.3 1.4-.7 1.1-.6 1.2-.2.6-.2.5-.2.6-.2.5-.1.6-.1.7-.1.6h19.8l-.1-1.2-.2-1.1-.2-.6-.1-.5-.2-.6-.3-.6-.2-.6-.3-.5-1.1-1.6-.5-.4-.4-.4-.5-.4-1-.7-.6-.3-1.6-.6-.6-.1-1.1-.1zM1412.3 121.6h-5.6v-4.7l-1.5 1.7-.4.4-.5.4-.5.4-.5.4-1.1.6-1.5.7-1.1.4-.6.2-1.2.2-.6.1-.7.1-.7.1h-1.2l-.6-.1-.5-.1-1.1-.1-1.1-.2-1.2-.4-.6-.2-.5-.2-.5-.3-.6-.3-.5-.3-.5-.4-.5-.4-.9-.8-.7-.9-.7-1.1-.2-.5-.4-1-.2-.6-.1-.6-.1-.6-.1-.6v-1.4l.1-.6.1-.6.1-.6.5-1.6.2-.5.3-.6.3-.5.7-1 .4-.5.9-.8 1.4-.9 1-.5.6-.2 1.7-.5 1.8-.4.6-.1.7-.1h.6l.7-.1h1.9l.6.1h.7l2.6.3 1.7.3.8.2.8.2 1.8.4v-1.8l-.1-.7-.2-1.2-.2-.6-.2-.5-.3-.5-.3-.5-.4-.5-.4-.4-.4-.4-.4-.3-.4-.3-.5-.2-.5-.3-.6-.2-.5-.2-.6-.2-.6-.1-.7-.1-1.3-.1h-1.4l-.6.1h-.6l-1.2.1-.6.1-.6.1-.5.1-.5.1-1.1.4-1.2.4-.6.2-.5.2-.6.2-.5.2-.2-.5-.2-.6-.4-1.1-.2-.6-.2-.5-.2-.6-.2-.5 1.1-.5.5-.2.5-.2 1.2-.4.6-.2.5-.2.5-.2.6-.2 1.6-.4.6-.1 3-.3h2.1l.7.1h.7l.7.1.7.1.7.1.6.1.6.2.5.1 1.2.4.5.2.6.2.9.5.9.7.4.4.7.7.7.8.6.9.5 1 .3.5.4 1.1.2.6.1.5.1.6.2 2.6v20.4zm-16.4-4h1.2l1.8-.2 1.1-.2 2.3-.9.5-.3.5-.3.5-.4 1.3-1.2.3-.4.6-1 .2-.5.4-1.1.1-.6.1-.5v-3.3l-.5-.2-1.1-.2-.6-.1-1.2-.3-1.1-.3-2.5-.2-.7-.1h-2.1l-1.3.1-.6.1-1.2.2-1.5.5-.5.2-.4.2-.4.2-.6.4-.4.4-.7.9-.2.5-.2.5-.2 1.2v.7l.1.7.1.6.2.6.2.5.3.5.8.9 1.4.9.5.2.5.2 1.1.3.6.1.6.1.7.6zM1422.6 88.9h5.6v7.7l.2-.5.3-.5.2-.5.3-.5.4-.5.3-.4.4-.4.4-.5.4-.4.4-.4.4-.4.4-.4.4-.3.5-.4 1-.6.5-.2.5-.3.6-.2 1.6-.5.6-.1.6-.1.6-.1h1.9v5.4h-1l-1.3.1-.6.2-1.2.2-.6.2-.5.2-.6.2-.5.2-1.9 1.4-.8.8-.7.9-.4.5-.3.5-.3.5-1.2 2.8-.1.5-.2.5-.1.5-.1.6-.1.5-.1 1.2v.6l-.1.6v13.8h-5.6V88.9zM1462.9 122.4h-1.3l-.7-.1-.6-.1-.6-.1-1.9-.4-1.7-.5-1.2-.5-.5-.3-.5-.2-.6-.3-1.4-1-1.3-1.2-1.2-1.3-.4-.4-.4-.5-.6-1-.4-.5-.6-1-.7-1.6-.4-1.2-.1-.6-.2-.6-.1-.5-.2-2.5v-1.3l.2-2.5.1-.6.2-.5.1-.6.2-.6.4-1.2.5-1.1.6-1 1-1.5.7-.9.4-.5.5-.4.4-.4 1.8-1.5.5-.4 1-.6.5-.3.5-.2.6-.3 1.2-.4.5-.2.6-.2 1.9-.4 1.2-.1.7-.1h1.3l.6.1h.6l.6.1.6.1.5.1.6.1 1.8.5 1.6.7.6.2 1.4.9.5.4.4.3 2.1 1.9.4.4-.4.4-.4.4-.9.8-.4.5-.9.8-.4.4-.4.4-.4-.4-.4-.4-.5-.4-.4-.4-.9-.7-.5-.4-.5-.3-.5-.4-1.6-.7-.5-.2-.6-.2-.6-.1-.6-.1-.6-.1h-1.4l-.7.1-.6.1-.7.1-1.2.4-1.2.5-1.1.7-.5.4-1.3 1.3-.4.5-.4.5-.4.5-.3.6-.3.5-.3.6-.2.6-.4 1.1-.2.6-.1.5-.1.6-.1 1.2v1.4l.1 1.3.1.5.1.6.5 1.7.2.6.3.6 1 1.6.4.5.9.9.5.4.5.4.5.4 1.1.7.6.2.5.2 1 .4 1.2.2.6.1.6.1h1.3l.6-.1.6-.1.6-.1.6-.2.5-.2.6-.2 1-.5.5-.3.5-.4.5-.3.5-.4.4-.4.5-.4.4-.4.5-.4.4-.4.4.4 1.8 1.7 1.3 1.3-1.3 1.3-1.3 1.2-.5.4-.5.3-.5.4-.5.3-1.1.6-.5.2-.6.3-.6.2-.6.2-1.2.4-.6.1-.5.1-.6.1-.6.1h-.6l-.1.5zM1483.7 75.8h5.6v18.7l.3-.5.7-1 .8-1 .9-.8.5-.4.5-.4.5-.4.6-.3.5-.3.6-.3.6-.2.7-.2 1.7-.4.6-.1.7-.1h1.3l.6.1 1.2.1 1.7.4.5.2.6.2 1.6.9.5.3.5.4.8.8.4.4.4.5.7.9.3.6.3.5.7 1.7.1.5.2.5.2 1.1.1.6.1.6v.6l.1.6v21.2h-5.6V102l-.1-1.3-.1-.6-.1-.6-.4-1.1-.2-.5-.5-1-.4-.5-.3-.4-.4-.4-.5-.4-1-.6-.5-.3-.5-.2-.6-.2-.6-.1-.7-.1-.7-.1h-1.4l-.6.1-1.2.2-1.1.4-1.1.5-.9.7-.4.4-.8.9-.4.5-.4.5-.3.5-.2.6-.4.1-.2.5-.4 1.7-.1 1.2v19.2h-5.6V75.8zM787.5 186.1h-5.6v-4.7l-1.5 1.7-.4.4-.5.4-.5.4-.5.4-1.1.6-1.5.7-1.1.4-.6.2-1.2.2-.6.1-.7.1-.7.1h-1l-.6-.1-.5-.1-1.1-.1-1.1-.2-1.1-.4-.6-.2-.5-.2-.5-.3-.6-.3-.5-.3-.5-.4-.5-.4-.9-.8-.7-.9-.7-1.1-.2-.5-.4-1-.2-.6-.1-.6-.1-.6-.1-.6V176l.1-.6.1-.6.1-.6.5-1.6.2-.5.3-.6.3-.5.7-1 .4-.5.9-.8 1.4-.9 1.1-.5.6-.2 1.7-.5 1.8-.4.6-.1.7-.1h.6l.7-.1h1.9l.6.1h.7l2.6.3 1.7.3.8.2.8.2 1.8.4v-1.8l-.1-.7-.2-1.2-.2-.6-.2-.5-.3-.5-.3-.5-.4-.5-.4-.4-.4-.4-.4-.3-.4-.3-.5-.2-.5-.3-.6-.2-.5-.2-.6-.2-.6-.1-.7-.1-1.3-.1h-1.4l-.6.1h-.6l-1.2.1-.6.1-.6.1-.5.1-.5.1-1.1.4-1.2.4-.6.2-.5.2-.6.2-.5.2-.2-.5-.2-.6-.4-1.1-.2-.6-.2-.5-.2-.6-.2-.5 1.1-.5.5-.2.5-.2 1.1-.4.6-.2.5-.2.5-.2.6-.2 1.6-.4.6-.1 3-.3h2.1l.7.1h.7l.7.1.7.1.7.1.6.1.6.2.5.1 1.2.4.5.2.6.2.9.5.9.7.4.4.7.7.7.8.6.9.5 1 .3.5.4 1.1.2.6.1.5.1.6.2 2.6v20.4zm-16.3-4h1.2l1.8-.2 1.1-.2 2.3-.9.5-.3.5-.3.5-.4 1.3-1.2.3-.4.6-1 .2-.5.4-1.1.1-.6.1-.5v-3.3l-.5-.2-1.1-.2-.6-.1-1.2-.3-1.1-.3-2.5-.2-.7-.1h-2.1l-1.3.2-.6.1-1.2.2-1.5.5-.5.2-.4.2-.4.2-.6.4-.4.4-.7.9-.2.5-.2.5-.2 1.2v.7l.1.7.1.6.2.6.2.5.3.5.8.9 1.4.9.5.2.5.2 1.1.3.6.1.6.1.7.5zM797.8 153.4h5.6v5.5l.3-.5.7-1 .8-1 .9-.8.5-.4.5-.4.5-.4.6-.3.5-.3.6-.3.6-.2.7-.2 1.7-.4.6-.1.7-.1h1.3l.6.1 1.2.1 1.7.4.5.2.6.2 1.6.9.5.3.5.4.8.8.4.4.4.5.7.9.3.6.3.5.7 1.7.1.5.2.5.2 1.1.1.6.1.6v.6l.1.6v21.2h-5.6v-19.6l-.1-1.3-.1-.6-.1-.6-.4-1.1-.2-.5-.5-1-.4-.5-.3-.4-.4-.4-.5-.4-1-.6-.5-.3-.5-.2-.6-.2-.6-.1-.7-.1-.7-.1h-1.4l-.6.1-1.2.2-1.1.4-1.1.5-.9.7-.4.4-.8.9-.4.5-.4.5-.3.5-.2.6-.3.5-.2.5-.4 1.7-.1 1.2v19.2h-5.6v-33.2zM863 140.3h5.6v45.9H863V180l-.3.5-.7.9-.4.5-1.2 1.3-.4.4-.4.4-.5.4-.4.4-1.5.9-.5.3-.6.2-.5.2-.6.2-1.6.4-.5.1-.6.1-.6.1h-1.2l-.6-.1-.6-.1-.6-.1-.5-.1-.6-.1-.5-.1-1.2-.4-1.6-.7-.6-.3-1-.6-.7-.7-.4-.4-.5-.4-.9-.9-.8-.9-1-1.3-.6-.9-.3-.6-.3-.5-.7-1.7-.2-.5-.2-.5-.1-.6-.2-.6-.1-.6-.2-1.2-.1-.6v-.7l-.1-.7v-1.5l.1-.6v-.7l.1-.6.1-.6.1-.6.1-.6.2-.6.1-.5.4-1.2.7-1.7.9-1.6.3-.5.7-.9 1.2-1.3.9-.9.5-.4.4-.4 1.5-1 2.2-1 .6-.2.5-.2.5-.1.6-.1.5-.1 1.2-.1.6-.1h1.2l.6.1.6.1.5.1 1.6.4.6.2.5.2.6.2.5.3.6.2.9.6.5.4.5.3.9.7 1.5 1.7.4.5.4.4.3.4v-18.8zm-11.6 41.6h1.2l.6-.1.6-.1 1.2-.2 1.7-.7.5-.3.6-.3.9-.7 1-.9.4-.4 1-1.3.3-.5.3-.5.2-.6.3-.5.6-1.7.2-1.2.1-1.3V169l-.1-1.3-.2-1.2-.4-1.1-.2-.6-.3-.5-.2-.6-.3-.5-.3-.5-.6-.9-.4-.4-.4-.4-1-.9-.9-.7-.6-.3-.5-.3-.6-.3-.5-.2-.6-.2-1.2-.2-.6-.1-.6-.1h-1.2l-.7.1-.6.1-.6.1-1.2.4-.5.2-1.1.5-.6.3-.9.7-.4.4-1.3 1.4-.4.5-.9 1.7-.2.6-.5 1.7-.1.6-.1.6-.1.7-.1.6v1.5l.1.6.1.7.4 1.8.2.5.2.6.2.6.9 1.7.4.5.4.5.4.4.4.5.4.4 1 .7.5.3.5.3.6.2.5.2.6.2 1.2.2.6.1.7.5zM899.7 186.1v-44h16.8l3.1.3 1.2.2.6.1 1.1.2 2.2.7.6.3 1.2.5 2.2 1.2.6.4 1.9 1.4 1.3 1.3 2 2.3 1 1.5.3.6.3.5.3.6.2.6.3.6.2.5.2.5.4 1.1.1.6.2.6.2 1.2.1.6.1.6.1 1.2v.6l.1.6v1.3l-.1.6v.6l-.1 1.2-.1.6-.1.6-.1.5-.1.6-.2.5-.1.6-.2.5-.2.6-.2.5-.2.5-.3.6-1.1 2.2-.7 1-.3.5-1.1 1.4-1.3 1.3-.4.4-.4.4-.4.4-.9.7-.5.4-2 1.2-.5.3-1 .5-.6.2-.5.3-.5.2-.6.2-.5.2-.6.1-.6.2-.6.1-.6.1-1.2.2-2.4.2-.7.1h-16.9zm5.8-38.7v33.5H916l.6-.1h.7l.6-.1.6-.1.6-.1 1.2-.3 2.2-.7.6-.2 1.1-.6.5-.2.5-.3.5-.4.5-.3 1.4-1.1.9-.8.8-1 .4-.5.4-.5 1.2-2.3.2-.6.2-.6.3-.5.1-.6.2-.6.1-.5.1-.6.1-.6.1-.6v-.7l.1-.6v-1.4l-.1-.7v-.6l-.1-.6-.1-.6-.2-1.2-.2-.5-.1-.6-.3-.5-.2-.6-.7-1.6-.3-.5-.3-.6-.3-.5-.4-.4-.3-.5-1.2-1.3-.4-.4-1.4-1.1-.5-.3-.5-.4-1-.6-1.1-.5-.6-.3-1.6-.5-.6-.1-.5-.2-.6-.1-.6-.1-.6-.1-.6-.1h-.7l-.6-.1h-10.6zM948.6 141.5h6.3v5.4h-6.3v-5.4zm.4 11.9h5.6v32.7H949v-32.7zM977.5 186.7h-1.2l-.6-.1h-.6l-.6-.1-.6-.1-.6-.1-1.2-.2-.6-.2-.6-.1-.6-.2-.6-.3-.6-.2-.6-.2-.5-.2-.6-.2-1.6-.9-.5-.4-2-1.4.7-1 .3-.5.7-.9.6-1 .4-.5.6.4.5.4.6.3.5.4 1.1.6.5.3 1.1.5.6.2.6.2 1.9.6.6.1 1.9.2h1.3l.6-.1 1.2-.2.6-.2.9-.5.5-.3.4-.4.7-.9.2-.5.2-.5.1-.5.1-.6v-.1l-.1-.7-.2-.7-.3-.6-1.2-1.1-.6-.4-.4-.2-1.5-.6-.6-.3-3-.9-.6-.2-2.7-.8-1.2-.4-1.7-.9-2-1.4-.8-.9-.7-1-.2-.4-.2-.5-.2-.6-.2-1.1-.1-.6v-1.4l.1-.6.2-1.2.1-.5.2-.6.2-.5.3-.5.8-1.1.4-.5.5-.5.9-.8 1-.6 1.1-.6.5-.2.6-.2.5-.2 1.1-.2 1.2-.1.5-.1.6-.1h1.2l.6.1h.6l.6.1.7.1 1.2.2.6.2.7.1.6.2 1.2.5.6.2.6.3.6.2.5.2 1.1.6.5.4.5.3-.3.6-.3.5-1.6 2.6-.3.6-1-.6-.5-.3-.5-.2-.5-.3-.6-.3-.5-.2-.5-.2-2.4-.7-.6-.1-1.2-.1-.5-.1h-1.3l-.7.1-.6.1-1.2.4-.6.3-.4.3-.5.4-.4.5-.3.5-.2.6-.1.5-.1.6v.1l.1.6.2.7.3.5.3.4.8.7.9.6.4.2.6.2.5.2 1.8.6.6.2 1.8.6.5.2.5.2.5.2.5.2.6.2.5.2.6.2 1.7.9.5.4.6.3.4.4.5.4.4.4 1.1 1.4.5 1.1.2.6.1.6.1.7v1.5l-.1.7-.2 1.3-.4 1.1-.2.5-.9 1.5-.4.4-.8.8-.4.4-.5.4-1.6.9-.5.3-1.8.5-.5.1-.6.1-.5.1-.6.1h-.6l-.3.1zM1008.7 186.7h-1.2l-.6-.1h-.6l-.6-.1-.6-.1-.6-.1-1.2-.2-.6-.2-.6-.1-.6-.2-.6-.3-.6-.2-.6-.2-.5-.2-.6-.2-1.6-.9-.5-.4-2-1.4.7-1 .3-.5.7-.9.6-1 .4-.5.6.4.5.4.6.3.5.4 1.1.6.5.3 1.1.5.6.2.6.2 1.9.6.6.1 1.9.2h1.3l.6-.1 1.2-.2.6-.2.9-.5.5-.3.4-.4.7-.9.2-.5.2-.5.1-.5.1-.6v-.1l-.1-.7-.2-.7-.3-.6-1.2-1.1-.6-.4-.4-.2-1.5-.6-.6-.3-3-.9-.6-.2-2.7-.8-1.2-.4-1.7-.9-2-1.4-.8-.9-.7-1-.2-.4-.2-.5-.2-.6-.2-1.1-.1-.6v-1.4l.1-.6.2-1.2.1-.5.2-.6.2-.5.3-.5.8-1.1.4-.5.5-.5.9-.8 1-.6 1.1-.6.5-.2.6-.2.5-.2 1.1-.2 1.2-.1.5-.1.6-.1h1.2l.6.1h.6l.6.1.7.1 1.2.2.6.2.7.1.6.2 1.2.5.6.2.6.3.6.2.5.2 1.1.6.5.4.5.3-.3.6-.3.5-1.6 2.6-.3.6-1-.6-.5-.3-.5-.2-.5-.3-.6-.3-.5-.2-.5-.2-2.4-.7-.6-.1-1.2-.1-.5-.1h-1.3l-.7.1-.6.1-1.2.4-.6.3-.4.3-.5.4-.4.5-.3.5-.2.6-.1.5-.1.6v.1l.1.6.2.7.3.5.3.4.8.7.9.6.4.2.6.2.5.2 1.8.6.6.2 1.8.6.5.2.5.2.5.2.5.2.6.2.5.2.6.2 1.7.9.5.4.6.3.4.4.5.4.4.4 1.1 1.4.5 1.1.2.6.1.6.1.7v1.5l-.1.7-.2 1.3-.4 1.1-.2.5-.9 1.5-.4.4-.8.8-.4.4-.5.4-1.6.9-.5.3-1.8.5-.5.1-.6.1-.5.1-.6.1h-.6l-.3.1zM1044.3 186.9h-1.3l-.6-.1-.6-.1-1.2-.1-.5-.1-.6-.1-1.7-.5-1.2-.5-.6-.2-1.1-.6-1.6-1.1-.5-.4-.9-.9-.4-.4-.7-.9-.4-.4-.3-.5-.4-.5-.6-1-.9-2.2-.4-1.1-.1-.5-.2-.6-.1-.6-.1-.5-.1-.6-.1-.6v-.6l-.1-.6v-1.3l.1-.7v-.6l.1-.6.1-.6.4-1.8.2-.6.4-1.2.2-.6.5-1.1.3-.5.2-.5.3-.5.4-.5.3-.5.7-.8.4-.5.9-.8.4-.4 1.5-1.2 1-.6.6-.2 1.1-.6 1.6-.5 1.7-.4 1.2-.1.6-.1h1.3l.7.1 1.3.1 1.8.4 1.2.4 1.1.5.5.3.6.3 2 1.4.4.4.5.4 1.2 1.4.4.5.6 1 .3.6.8 1.7.4 1.2.4 1.2.4 1.8.1.6.1.6.1.6v.7l.1.6v1.5l-.1.9h-25.3l.1.6.1.6.1.5.1.5.4 1.1.2.5 1.2 2 1.1 1.3.4.4.5.4 1.1.7 1.2.6 1.1.4.6.1.5.1.6.1 1.1.1h1.3l1.8-.2.5-.1.6-.1.5-.2.5-.1 1.5-.7.5-.3.6-.3.9-.7 1.4-1.2.4-.4.8.8.9.7.4.4.4.4.4.4.4.4-1.3 1.3-.4.4-.5.4-1.9 1.5-.5.3-.5.3-.6.2-.5.3-.6.2-.5.2-1.1.4-1.8.4-.7.1-.7.1h-1.4zm-.8-29.4h-1.3l-.7.1-.6.1-.6.2-.6.2-.6.2-1.2.6-.5.3-.5.4-.5.4-1.3 1.4-.7 1.1-.6 1.2-.2.6-.2.5-.2.6-.2.5-.1.6-.1.7-.1.6h19.8l-.1-1.2-.2-1.1-.2-.6-.1-.5-.2-.6-.3-.6-.2-.6-.3-.5-1.1-1.6-.5-.4-.4-.4-.5-.4-1-.7-.6-.3-1.6-.6-.6-.1-1.1-.1zM1067 153.4h5.6v5.3l.3-.5.4-.4.4-.5.4-.4.4-.5 1.3-1.2.4-.4 1-.7.6-.3.5-.2 1.3-.5 1.1-.2.6-.1.6-.1.6-.1h1.3l.7.1.6.1 1.3.2.5.2.6.2.5.2.5.2.5.3.5.3.5.4.5.4 1.3 1.3.7.9.3.6.3.5.3.5.4-.5.4-.5.4-.5 1.3-1.4.5-.4.5-.4 1.6-1 1-.5 1.6-.5.6-.1.5-.1.7-.1.6-.1.7-.1h1.3l.7.1.6.1 1.9.4.6.2.5.2.6.2 1 .6.5.3.4.4.5.4.4.4.4.4.3.4.4.4.3.4.3.5.3.5.5 1 .2.5.2.6.2.5.1.6.1.6.1.7.2 2v21.2h-5.6v-19.6l-.1-1.4-.2-1.3-.4-1.2-.2-.5-.3-.5-.9-1.4-.4-.4-.4-.4-.9-.6-1-.5-.6-.2-.5-.1-.6-.1-.7-.1h-1.3l-.5.1-1.6.4-.5.2-1.2.6-1 .8-.5.5-.7.8-.3.5-.3.5-.2.5-.2.6-.2.5-.2.6-.1.6-.2 1.8v19.4h-5.6v-19.8l-.1-1.3-.2-1.2-.6-1.7-.2-.5-.3-.5-.6-.8-.4-.4-.9-.7-.5-.3-1-.5-.5-.2-1.2-.2-.6-.1h-1.3l-.5.1-.6.1-.5.1-.6.2-.5.2-1 .6-.9.6-1.2 1.2-.4.5-.6 1-.4 1.1-.4 1.1-.1.5-.1 1.1-.1.6v19.2h-5.6v-33.1zM1127.3 141.5h6.3v5.4h-6.3v-5.4zm.4 11.9h5.6v32.7h-5.6v-32.7zM1144.7 153.4h5.6v5.5l.3-.5.7-1 .8-1 .9-.8.5-.4.5-.4.5-.4.6-.3.5-.3.6-.3.6-.2.7-.2 1.7-.4.6-.1.7-.1h1.3l.6.1 1.2.1 1.7.4.5.2.6.2 1.6.9.5.3.5.4.8.8.4.4.4.5.7.9.3.6.3.5.7 1.7.1.5.2.5.2 1.1.1.6.1.6v.6l.1.6v21.2h-5.6v-19.6l-.1-1.3-.1-.6-.1-.6-.4-1.1-.2-.5-.5-1-.4-.5-.3-.4-.4-.4-.5-.4-1-.6-.5-.3-.5-.2-.6-.2-.6-.1-.7-.1-.7-.1h-1.4l-.6.1-1.2.2-1.1.4-1.1.5-.9.7-.4.4-.8.9-.4.5-.4.5-.3.5-.2.6-.3.5-.2.5-.4 1.7-.1 1.2v19.2h-5.6v-33.2zM1210.7 186.1h-5.6v-4.7l-1.5 1.7-.4.4-.5.4-.5.4-.5.4-1.1.6-1.5.7-1.1.4-.6.2-1.2.2-.6.1-.7.1-.7.1h-1.2l-.6-.1-.5-.1-1.1-.1-1.1-.2-1.2-.4-.6-.2-.5-.2-.5-.3-.6-.3-.5-.3-.5-.4-.5-.4-.9-.8-.7-.9-.7-1.1-.2-.5-.4-1-.2-.6-.1-.6-.1-.6-.1-.6V176l.1-.6.1-.6.1-.6.5-1.6.2-.5.3-.6.3-.5.7-1 .4-.5.9-.8 1.4-.9 1-.5.6-.2 1.7-.5 1.8-.4.6-.1.7-.1h.6l.7-.1h1.9l.6.1h.7l2.6.3 1.7.3.8.2.8.2 1.8.4v-1.8l-.1-.7-.2-1.2-.2-.6-.2-.5-.3-.5-.3-.5-.4-.5-.4-.4-.4-.4-.4-.3-.4-.3-.5-.2-.5-.3-.6-.2-.5-.2-.6-.2-.6-.1-.7-.1-1.3-.1h-1.4l-.6.1h-.6l-1.2.1-.6.1-.6.1-.5.1-.5.1-1.1.4-1.2.4-.6.2-.5.2-.6.2-.5.2-.2-.5-.2-.6-.4-1.1-.2-.6-.2-.5-.2-.6-.2-.5 1.1-.5.5-.2.5-.2 1.2-.4.6-.2.5-.2.5-.2.6-.2 1.6-.4.6-.1 3-.3h2.1l.7.1h.7l.7.1.7.1.7.1.6.1.6.2.5.1 1.2.4.5.2.6.2.9.5.9.7.4.4.7.7.7.8.6.9.5 1 .3.5.4 1.1.2.6.1.5.1.6.2 2.6v20.4zm-16.4-4h1.2l1.8-.2 1.1-.2 2.3-.9.5-.3.5-.3.5-.4 1.3-1.2.3-.4.6-1 .2-.5.4-1.1.1-.6.1-.5v-3.3l-.5-.2-1.1-.2-.6-.1-1.2-.3-1.1-.3-2.5-.2-.7-.1h-2.1l-1.3.1-.6.1-1.2.2-1.5.5-.5.2-.4.2-.4.2-.6.4-.4.4-.7.9-.2.5-.2.5-.2 1.2v.7l.1.7.1.6.2.6.2.5.3.5.8.9 1.4.9.5.2.5.2 1.1.3.6.1.6.1.7.6zM1222.4 158.4h-4.4v-5h4.4v-9.6h5.6v9.6h9.9v5h-9.9v18.9l.1.7.1.6.5 1 .3.4.4.4.4.3.4.2.5.2.6.2.6.1.6.1h1.3l.6-.1 1.8-.4.5-.2.6-.2.6-.3v4.7l-.6.3-.5.2-1.1.3-.6.2-.5.1-.5.1-.6.1h-.5l-.6.1h-1.3l-1.3-.1-1.8-.4-.5-.2-.6-.2-.5-.2-1-.6-.9-.7-.4-.4-.4-.5-.3-.5-.3-.5-.2-.6-.2-.5-.4-1.7-.1-1.3v-19.6zM1246.8 141.5h6.3v5.4h-6.3v-5.4zm.4 11.9h5.6v32.7h-5.6v-32.7zM1280 186.9h-1.2l-.6-.1h-.6l-.6-.1-.6-.1-.5-.1-.6-.1-.5-.2-.6-.1-1.1-.4-.5-.2-.6-.3-.5-.3-.5-.2-1-.6-1-.7-.4-.4-.5-.4-1.3-1.3-.7-.8-.7-1-.6-1-.3-.5-.3-.6-.7-1.6-.4-1.2-.1-.6-.2-.6-.1-.5-.2-2.5v-1.3l.2-2.5.1-.6.2-.5.1-.6.2-.6 1.2-2.8.3-.5.3-.5 1.8-2.4 1.3-1.3.5-.4.4-.4 1.5-1 1.1-.6.6-.2.5-.3.5-.2 1.7-.5.5-.1.6-.1.5-.1.6-.1.6-.1h1.2l1.2-.1.6.2.6-.1.6.1 1.7.4.5.1 1.6.5.6.2.5.3.6.2 1.1.6.9.7.5.3.5.4.4.4.5.4.4.4.4.4.4.4.7.9.7 1 .3.5.3.5.5 1.1.3.6.6 1.7.1.6.2.6.1.6.2 2.5v1.4l-.2 2.5-.1.6-.2.5-.1.6-.2.6-.2.6-.2.5-.8 1.7-.3.5-.3.5-.4.5-.4.5-.3.5-1.6 1.7-.4.4-2.4 1.8-1.1.6-1.1.5-.6.3-1.6.5-2.3.5-.6.1h-.6l-.6-.1zm-1.1-5.1h1.2l.6-.1.6-.1 1.2-.2 1.1-.4 1.1-.5 1.6-1 1.4-1.3.4-.5.4-.5.3-.5.4-.6.3-.5.3-.6.3-.6.2-.5.1-.6.2-.6.1-.5.2-1.8v-1.3l-.1-1.2-.1-.6-.1-.5-.1-.6-.2-.5-.2-.6-.5-1-1.2-1.9-.7-.9-.9-.9-.5-.4-1.1-.7-.6-.3-.6-.3-.5-.2-1.1-.4-1.2-.2-.6-.1-.6-.1h-1.2l-.7.1-1.7.3-1.1.4-1.1.5-1.6 1-.5.4-.9.9-.8 1-1 1.6-.5 1.2-.2.6-.1.5-.3 1.1-.2 1.7v1.3l.1 1.2.3 1.1.1.6.2.5.2.6.2.5.2.5 1.2 1.9 1.2 1.3.5.5.5.4 1.6 1 1.1.5 1.1.4.6.1.5.1.6.1.6.2zM1305.5 153.4h5.6v5.5l.3-.5.7-1 .8-1 .9-.8.5-.4.5-.4.5-.4.6-.3.5-.3.6-.3.6-.2.7-.2 1.7-.4.6-.1.7-.1h1.3l.6.1 1.2.1 1.7.4.5.2.6.2 1.6.9.5.3.5.4.8.8.4.4.4.5.7.9.3.6.3.5.7 1.7.1.5.2.5.2 1.1.1.6.1.6v.6l.1.6v21.2h-5.6v-19.6l-.1-1.3-.1-.6-.1-.6-.4-1.1-.2-.5-.5-1-.4-.5-.3-.4-.4-.4-.5-.4-1-.6-.5-.3-.5-.2-.6-.2-.6-.1-.7-.1-.7-.1h-1.4l-.6.1-1.2.2-1.1.4-1.1.5-.9.7-.4.4-.8.9-.4.5-.4.5-.3.5-.2.6-.3.5-.2.5-.4 1.7-.1 1.2v19.2h-5.6v-33.2zM1386.2 186.9h-1.9l-.7-.1h-.6l-.6-.1-.6-.1-.6-.1-.6-.1-.6-.1-.5-.1-.6-.2-.5-.2-.6-.2-1.1-.4-2.2-1-1.1-.6-.5-.4-2-1.4-.4-.4-.9-.8-1.2-1.3-1.7-2.5-.6-1-.3-.6-.3-.5-1.1-2.8-.5-1.7-.4-2.3-.2-1.8-.1-.6v-2.6l.1-.6.2-1.8.4-2.4.5-1.7 1.1-2.8 1.2-2.2 1.4-1.9.8-1 1.3-1.3.5-.4.5-.4.4-.4 1.5-1 .6-.4 1.1-.6.5-.3.6-.3.6-.2.5-.2.6-.2.6-.3 1.2-.4 3-.6 1.3-.1h.6l.6-.1h2l.6.1 1.3.1.5.1.6.1.5.1.6.1.6.2.5.1 2.8.9.5.2.6.2 2.2 1.2.6.4 1.4 1.1.5.4.5.4.9.9.5.4-1.7 1.9-2.1 2.4-1-.8-.4-.4-2-1.4-1-.6-.5-.3-.5-.2-.5-.3-1-.5-.5-.2-1.1-.4-1.1-.2-.6-.1-.6-.1-.6-.1h-.7l-.6-.1h-1.3l-1.9.2-1.2.2-.5.1-.6.2-1.1.4-1.1.5-.5.3-.5.2-.5.3-.5.4-.5.3-1.7 1.5-1.2 1.3-1.3 1.9-.3.5-.2.6-.3.5-.3.6-.2.5-.2.6-.4 1.1-.2.6-.1.6-.1.6-.1.6-.1.7-.1.6-.1.7v1.4l.1.6v.6l.1.5.1.6.1.5.1.6.1.6.2.6.1.5.2.6.2.5.2.6.3.6.3.5.2.6.6 1 .7 1 .3.4 1.2 1.3 1.3 1.1.9.7 1 .6 2.7 1.3.5.2.6.2 1.7.4 1.2.1.7.1h1.2l.6-.1h.6l.6-.1.6-.1.5-.1.5-.1.6-.2.6-.1 1.2-.4 1.1-.5.6-.3.5-.2.5-.4 1.5-1 .4-.4 1.3-1 .4-.4.4-.4.4-.4 1.3 1.3.4.4.4.4 1.7 1.7-.4.4-.5.4-.8.9-.5.4-.4.4-1.9 1.5-2 1.2-.5.2-.6.2-.5.3-.6.2-.5.2-1.2.4-1.2.4-1.2.2-.5.1-1.8.2-.6.1-.7-.2zM1425.8 186.9h-1.3l-.6-.1-.6-.1-1.2-.1-.5-.1-.6-.1-1.7-.5-1.2-.5-.6-.2-1.1-.6-1.6-1.1-.5-.4-.9-.9-.4-.4-.7-.9-.4-.4-.3-.5-.4-.5-.6-1-.9-2.2-.4-1.1-.1-.5-.2-.6-.1-.6-.1-.5-.1-.6-.1-.6v-.6l-.1-.6v-1.3l.1-.7v-.6l.1-.6.1-.6.4-1.8.2-.6.4-1.2.2-.6.5-1.1.3-.5.2-.5.3-.5.4-.5.3-.5.7-.8.4-.5.9-.8.4-.4 1.5-1.2 1-.6.6-.2 1.1-.6 1.6-.5 1.7-.4 1.2-.1.6-.1h1.3l.7.1 1.3.1 1.8.4 1.2.4 1.1.5.5.3.6.3 2 1.4.4.4.5.4 1.2 1.4.4.5.6 1 .3.6.8 1.7.4 1.2.4 1.2.4 1.8.1.6.1.6.1.6v.7l.1.6v1.5l-.1.9h-25.3l.1.6.1.6.1.5.1.5.4 1.1.2.5 1.2 2 1.1 1.3.4.4.5.4 1.1.7 1.2.6 1.1.4.6.1.5.1.6.1 1.1.1h1.3l1.8-.2.5-.1.6-.1.5-.2.5-.1 1.5-.7.5-.3.6-.3.9-.7 1.4-1.2.4-.4.8.8.9.7.4.4.4.4.4.4.4.4-1.3 1.3-.4.4-.5.4-1.9 1.5-.5.3-.5.3-.6.2-.5.3-.6.2-.5.2-1.1.4-1.8.4-.7.1-.7.1h-1.4zm-.8-29.4h-1.3l-.7.1-.6.1-.6.2-.6.2-.6.2-1.2.6-.5.3-.5.4-.5.4-1.3 1.4-.7 1.1-.6 1.2-.2.6-.2.5-.2.6-.2.5-.1.6-.1.7-.1.6h19.8l-.1-1.2-.2-1.1-.2-.6-.1-.5-.2-.6-.3-.6-.2-.6-.3-.5-1.1-1.6-.5-.4-.4-.4-.5-.4-1-.7-.6-.3-1.6-.6-.6-.1-1.1-.1zM1448.5 153.4h5.6v5.5l.3-.5.7-1 .8-1 .9-.8.5-.4.5-.4.5-.4.6-.3.5-.3.6-.3.6-.2.7-.2 1.7-.4.6-.1.7-.1h1.3l.6.1 1.2.1 1.7.4.5.2.6.2 1.6.9.5.3.5.4.8.8.4.4.4.5.7.9.3.6.3.5.7 1.7.1.5.2.5.2 1.1.1.6.1.6v.6l.1.6v21.2h-5.6v-19.6l-.1-1.3-.1-.6-.1-.6-.4-1.1-.2-.5-.5-1-.4-.5-.3-.4-.4-.4-.5-.4-1-.6-.5-.3-.5-.2-.6-.2-.6-.1-.7-.1-.7-.1h-1.4l-.6.1-1.2.2-1.1.4-1.1.5-.9.7-.4.4-.8.9-.4.5-.4.5-.3.5-.2.6-.3.5-.2.5-.4 1.7-.1 1.2v19.2h-5.6v-33.2zM1489.5 158.4h-4.4v-5h4.4v-9.6h5.6v9.6h9.9v5h-9.9v18.9l.1.7.1.6.5 1 .3.4.4.4.4.3.4.2.5.2.6.2.6.1.6.1h1.3l.6-.1 1.8-.4.5-.2.6-.2.6-.3v4.7l-.6.3-.5.2-1.1.3-.6.2-.5.1-.5.1-.6.1h-.5l-.6.1h-1.3l-1.3-.1-1.8-.4-.5-.2-.6-.2-.5-.2-1-.6-.9-.7-.4-.4-.4-.5-.3-.5-.3-.5-.2-.6-.2-.5-.4-1.7-.1-1.3v-19.6zM1528.1 186.9h-1.3l-.6-.1-.6-.1-1.2-.1-.5-.1-.6-.1-1.7-.5-1.2-.5-.6-.2-1.1-.6-1.6-1.1-.5-.4-.9-.9-.4-.4-.7-.9-.4-.4-.3-.5-.4-.5-.6-1-.9-2.2-.4-1.1-.1-.5-.2-.6-.1-.6-.1-.5-.1-.6-.1-.6v-.6l-.1-.6v-1.3l.1-.7v-.6l.1-.6.1-.6.4-1.8.2-.6.4-1.2.2-.6.5-1.1.3-.5.2-.5.3-.5.4-.5.3-.5.7-.8.4-.5.9-.8.4-.4 1.5-1.2 1-.6.6-.2 1.1-.6 1.6-.5 1.7-.4 1.2-.1.6-.1h1.3l.7.1 1.3.1 1.8.4 1.2.4 1.1.5.5.3.6.3 2 1.4.4.4.5.4 1.2 1.4.4.5.6 1 .3.6.8 1.7.4 1.2.4 1.2.4 1.8.1.6.1.6.1.6v.7l.1.6v1.5l-.1.9h-25.3l.1.6.1.6.1.5.1.5.4 1.1.2.5 1.2 2 1.1 1.3.4.4.5.4 1.1.7 1.2.6 1.1.4.6.1.5.1.6.1 1.1.1h1.3l1.8-.2.5-.1.6-.1.5-.2.5-.1 1.5-.7.5-.3.6-.3.9-.7 1.4-1.2.4-.4.8.8.9.7.4.4.4.4.4.4.4.4-1.3 1.3-.4.4-.5.4-1.9 1.5-.5.3-.5.3-.6.2-.5.3-.6.2-.5.2-1.1.4-1.8.4-.7.1-.7.1h-1.4zm-.9-29.4h-1.3l-.7.1-.6.1-.6.2-.6.2-.6.2-1.2.6-.5.3-.5.4-.5.4-1.3 1.4-.7 1.1-.6 1.2-.2.6-.2.5-.2.6-.2.5-.1.6-.1.7-.1.6h19.8l-.1-1.2-.2-1.1-.2-.6-.1-.5-.2-.6-.3-.6-.2-.6-.3-.5-1.1-1.6-.5-.4-.4-.4-.5-.4-1-.7-.6-.3-1.6-.6-.6-.1-1.1-.1zM1550.7 153.4h5.6v7.7l.2-.5.3-.5.2-.5.3-.5.4-.5.3-.4.4-.4.4-.5.4-.4.4-.4.4-.4.4-.4.4-.3.5-.4 1-.6.5-.2.5-.3.6-.2 1.6-.5.6-.1.6-.1.6-.1h1.9v5.4h-1l-1.3.1-.6.2-1.2.2-.6.2-.5.2-.6.2-.5.2-1.9 1.4-.8.8-.7.9-.4.5-.3.5-.3.5-1.2 2.8-.1.5-.2.5-.1.5-.1.6-.1.5-.1 1.2v.6l-.1.6v13.8h-5.6v-32.4z"/><g><path d="M8.7 9.2H48.5l1.2 2.2 1.4 1.9 1.2 2.2 1.2 1.9 1.4 2.2 1.2 1.9 1.2 2.2 1.5 1.9 1.2 2.2 1.2 1.9 1.4 2.2 1.2 1.9L65 36l1.5 1.9 1.2 2.2 1.2 1.9 1.4 2.2 1.2 1.9 1.2 2.2 1.2 1.9 1.5 2.2 1.2 1.9 1.2 2.2 1.4 1.9 1.2 2.2 1.2 1.9 1.5 2.2 1.2 1.9 1.2 2.2 1.4 1.9 1.2 2.2 1.2 1.9 1.5 2.2 1.2 1.9 1.2 2.2 1.4 1.9 1.2 2.2L97 83l1.4-1.9L100 79l1.2-1.9 1.5-2.2 1.2-1.9 1.2-2.2 1.4-1.9 1.2-2.2 1.4-1.9 1.2-2.2 1.2-1.9 1.5-2.2 1.2-1.9 1.2-2.2 1.4-1.9 1.2-2.2 1.2-1.9 1.4-2.2 1.2-1.9 1.2-2.2 1.5-1.9 1.2-2.2 1.3-2 1.4-2.2 1.2-1.9 1.2-2.2 1.5-1.9 1.2-2.2 1.5-1.9 1.2-2.2 1.2-1.9 1.4-2.2 1.2-1.9 1.2-2.2 1.4-1.9 1.2-2.2H183.6V184.6H147V68l-1.5 1.9-1.2 2.2-1.5 1.9-1.2 1.9-1.5 2.2-1.2 1.9-1.5 2.2-1.2 1.9-1.5 1.9-1.2 2.2-1.5 1.9-1.2 1.9-1.5 2.2-1.2 1.9-1.5 2.2-1.2 1.9-1.5 1.9-1.2 2.2-1.5 1.9-1.5 1.9-1.2 2.2-1.5 1.9-1.2 1.9-1.5 2.2-1.2 1.9-1.5 2.2-1.2 1.9-1.5 1.9-1.2 2.2-1.5 1.9-1.2 1.9-1.5 2.2-1.2 1.9-1.5 2.2-1.2 1.9-1.5 1.9-1.2 2.2-1.5 1.9h-1l-1.2-1.9-1.5-2.2-1.2-1.9-1.5-1.9-1.2-1.9-1.5-2.2-1.2-1.9-1.5-1.9-1.2-2.2-1.5-1.9-1.2-1.9-1.5-1.9-1.2-2.2-1.5-1.9-1.2-1.9-1.5-2.2-1.2-1.9-1.5-1.9-1.2-2.2-1.2-1.9-1.5-1.9-1.2-1.9-1.5-2.2-1.2-1.9-1.5-1.9-1.2-2.2-1.5-1.9-1.2-1.9-1.5-1.9-1.2-2.2-1.5-1.9-1.2-1.9-1.5-2.2-1.2-1.9-1.5-1.9-1.2-1.9-1.5-2.2.4-2.2V184.4H8.7V9.2zM289.8 8H324l1 2.2 1 2.2 1 2.2 1 2.4 1 2.2.7 2.2 1 2.2 1 2.2 1 2.2 1 2.4 1 2.2 1 2.2 1 2.2 1 2.2 1 2.2 1 2.4 1 2.2.7 2.2 1 2.2 1 2.2 1 2.2 1 2.4 1 2.2 1 2.2 1 2.2 1 2.2 1 2.2 1 2.4.7 2.2 1 2.2 1 2.2 1 2.2 1 2.2 1 2.4 1 2.2 1 2.2 1 2.2 1 2.2 1 2.2 1 2.2.7 2.4 1 2.2 1 2.2 1 2.2 1 2.2 1 2.2 1 2.4 1 2.2 1 2.2 1 2.2 1 2.2.7 2.2 1 2.4 1 2.2 1 2.2 1 2.2 1 2.2 1 2.2 1 2.4 1 2.2 1 2.2 1 2.2.7 2.2 1 2.2 1 2.4 1 2.2 1 2.2 1 2.2 1 2.2 1 2.2 1 2.4 1 2.2 1 2.2 1 2.2.7 2.2 1 2.2 1 2.4 1 2.2 1 2.2 1 2.2H361l-1-2.2-1-2.2-.7-2.4-1-2.2-1-2.2-1-2.2-.7-2.4-1-2.2-1-2.2-1-2.2-1-2.2-.7-2.4-1-2.2-1-2.2-1-2.2-.7-2.4-1-2.2-1-2.2h-75.8l-1 2.2-1 2.2-.7 2.4-1 2.2-1 2.2-1 2.2-.7 2.4-1 2.2-1 2.2-1 2.2-1 2.2-.7 2.4-1 2.2-1 2.2-1 2.2-.7 2.4-1 2.2-1 2.2H213.8l1-2.2 1-2.2 1-2.2 1-2.4 1-2.2 1-2.2.7-2.2 1-2.2 1-2.2 1-2.4 1-2.2 1-2.2 1-2.2 1-2.2 1-2.2 1-2.4 1-2.2 1-2.2 1-2.2 1-2.2.7-2.2 1-2.4 1-2.2 1-2.2 1-2.2 1-2.2 1-2.2 1-2.4 1-2.2 1-2.2 1-2.2 1-2.2 1-2.2.7-2.4 1-2.2 1-2.2 1-2.2 1-2.2 1-2.2 1-2.4 1-2.2 1-2.2 1-2.2 1-2.2 1-2.2 1-2.2.7-2.4 1-2.2 1-2.2 1-2.2 1-2.2 1-2.2 1-2.4 1-2.2 1-2.2 1-2.2 1-2.2 1-2.2 1-2.4 1-2.2.7-2.2 1-2.2 1-2.2 1-2.2 1-2.4 1-2.2 1-2.2 1-2.2 1-2.2 1-2.2 1-2.4 1-2.2 1-2.2.7-2.2 1-2.2 1-2.2 1-2.4 1-2.2 1-2.2-1.2-2.2zm41.3 104l-1-2.2-1-2.2-.7-2.2-1-2.4-1-2.2-1-2.2-.7-2.2-1-2.2-1-2.2-1-2.2-1-2.4-.7-2.2-1-2.2-1-2.2-1-2.2-.7-2.2-1-2.4-1-2.2-1-2.2-1-2.2-.7-2.2-1-2.2-1-2.2-1-2.4-.7-2.2-1-2.2-1-2.2-1 2.2-1 2.2-.7 2.2-1 2.4-1 2.2-1 2.2-1 2.2-1 2.2-.7 2.2-1 2.2-1 2.4-1 2.2-1 2.2-.7 2.2-1 2.2-1 2.2-1 2.4-1 2.2-.7 2.2-1 2.2-1 2.2-1 2.2-1 2.2-1 2.4-.7 2.2-1 2.2-1 2.2H331.1zM489.6 187.7h-4.8l-2.2-.2-2.4-.2h-2.4l-2.4-.5-2.2-.2-2.4-.2-2.4-.5-2.2-.5-2.4-.5-2.2-.5-2.4-.7-2.2-.5-2.2-.7-2.4-.7-2.2-1-2.2-.7-2.2-1-2.2-1-2.2-1-2.2-1-2.2-1-2.2-1.2-1.9-1.2-2.2-1.2-1.9-1.5-2.2-1.2-1.9-1.5-1.9-1.5-1.9-1.5-1.9-1.7-1.9-1.5-1.9-1.7 1.7-1.9 1.5-1.9 1.7-1.7 1.5-1.9 1.7-1.9 1.5-1.9 1.7-1.9 1.5-1.7 1.7-1.9 1.5-1.9 1.7-1.9 1.5-1.7 1.5-1.9 1.7-1.9 1.9 1.7 2.2 1.5 1.9 1.7 2.2 1.5 1.9 1.5 2.2 1.2 1.9 1.5 2.2 1.2 2.2 1.2 1.9 1 2.2 1.2 2.2 1 2.2 1 2.2.7 2.2.7 2.4.7 2.2.7 2.4.5 2.4.5 2.4.2 2.4.2 2.4.2 2.4.2h5.6l2.9-.2 2.7-.5 2.7-.5 2.2-.7 2.2-.7 2.2-1 1.9-1.2 2.2-1.7 1.7-1.9 1.5-2.2 1-2.2.5-2.4.2-2.7v-.5l-.2-2.4-.5-2.4-.7-2.2-1.2-1.9-1.9-1.9-2.2-1.9-1.9-1-1.9-1-2.2-1.2-2.4-1-2.7-1-1.9-.7-1.9-.5-2.2-.7-2.2-.7-2.4-.5-2.4-.7-2.7-.7-2.7-.7-2.7-.7-2.7-.7-2.7-.7-2.4-.7-2.4-.7-2.4-.7-2.4-.7-2.2-.7-2.2-.7-2.2-.7-2.4-1-2.4-1-2.2-1-1.9-1-2.2-1.2-1.9-1-1.9-1.2-1.7-1.5-1.7-1.2-1.9-1.5-1.7-1.7-1.7-1.7-1.5-1.9-1.5-1.9L429 86l-1.2-1.9-1-2.2-1-1.9-.7-2.2-.5-2.2-.7-2.4-.5-2.4-.2-2.4-.2-2.7-.2-2.7v-6.1l.2-2.4.2-2.7.5-2.4.5-2.4.5-2.2.7-2.4 1-2.2 1-2.2 1-2.2 1.2-1.9 1.2-1.9 1.4-1.9 1.4-1.9 1.4-1.7 1.4-1.7 1.7-1.7 1.9-1.7 1.7-1.5 1.9-1.5 1.9-1.2 2.2-1.2 2.2-1.2 2.2-1.2 2.2-1 2.4-1 2.6-1 2.2-.5 2.2-.7 2.4-.5 2.4-.5 2.4-.5 2.7-.5 2.4-.2h2.7l2.7-.2H489.2l2.4.2 2.7.2 2.4.2 2.4.2 2.4.2 2.2.5 2.4.2 2.4.5 2.2.7 2.2.5 2.4.7 2.2.5 2.2.7 2.2 1 2.2 1 2.4 1 2.2 1 2.2 1 2.2 1.2 1.9 1 2.2 1.2 2.2 1.5 1.9 1.2 2.2 1.5 1.9 1.5 1.9 1.5 1.9 1.5-1.5 1.9-1.5 2.2-1.2 1.9-1.5 1.9-1.5 1.9-1.5 2.2-1.2 1.9-1.5 1.9-1.5 2.2-1.5 1.9-1.5 1.9-1.2 1.9-1.5 2.2-1.5 1.9-2.2-1.5-1.9-1.5-2.2-1.5-2.2-1.2-2.2-1.5-1.9-1-2.2-1.2-2.2-1-1.9-1.2-2.2-.7-1.9-1-2.4-1-2.4-.7-2.2-.7-2.4-.5-2.2-.5-2.4-.5-2.2-.2-2.4-.2-2.2-.2H480l-2.7.2-2.4.5-2.2.5-2.2.7-1.9.7-1.7 1-1.7 1.2-1.9 1.7-1.5 1.7-1.2 1.9-.7 1.9-.5 2.2-.2 2.2v.5l.2 2.9.5 2.7 1 2.2 1 1.5 1.5 1.5 1.7 1.5 1.9 1.5 1.9 1 1.9 1.2 2.4 1 2.7 1 2.9 1 1.9.7 2.2.7 2.2.7 2.2.5 2.4.7 2.7.7 2.7.7 2.9.7 2.7.7 2.7.7 2.4.7 2.7.7 2.4.7 2.4.7 2.2 1 2.2.7 2.2.7 2.2 1 2.7 1.2 2.4 1 2.2 1.5 2.4 1.2 1.9 1.2 2.2 1.5 1.9 1.5 1.9 1.5 1.7 1.7 1.5 1.7 1.7 1.7 1.5 1.7 1.2 1.9 1.2 1.9 1 1.9 1.2 1.9.7 2.2.7 2.4.7 2.2.5 2.4.5 2.7.2 2.4.2 2.7v6.1l-.2 2.4-.2 2.4-.2 2.4-.5 2.4-1.1 2-.7 2.2-.5 2.2-1 2.2-.7 1.9-1.2 2.4-1.2 1.9-1.2 2.2-1.5 2-1.4 1.9-1.7 1.7-1.7 1.7-1.7 1.7-1.7 1.5-1.9 1.5-1.7 1.2-1.9 1.2-1.9 1.2-1.9 1.2-2.2 1-2.2 1-2.2.7-2.2 1-2.4.7-2.2.7-2.2.5-2.2.5-2.4.5-2.2.5-2.4.2-2.4.2-2.4.2-2.4.2h-4.9zM627.9 43.5H573.8V9.2H718.1V43.4H665.2V184.6H627.9V43.5z"/></g></g></svg>