<?xml version="1.0" encoding="utf-8"?>
<!-- Generator: Adobe Illustrator 24.1.0, SVG Export Plug-In . SVG Version: 6.00 Build 0)  -->
<svg version="1.1" id="Layer_1" xmlns="http://www.w3.org/2000/svg" xmlns:xlink="http://www.w3.org/1999/xlink" x="0px" y="0px"
	 viewBox="0 0 442.26 60.24" enable-background="new 0 0 442.26 60.24" xml:space="preserve">
<g>
	<path fill="#FFFFFF" d="M233.97,12.05h1.46l0.16,0.26l0.41,0.62l0.09,0.12l0.07,0.14l0.26,0.36l0.07,0.13l0.26,0.37l0.07,0.12
		l0.33,0.49l0.1,0.12l0.07,0.12l0.07,0.14l0.17,0.23l0.42,0.63l0.07,0.12l0.09,0.12l0.08,0.14l0.09,0.12l0.07,0.12l0.09,0.12
		l0.08,0.13l0.09,0.12l0.07,0.12l0.1,0.13l0.07,0.12l0.09,0.12l0.07,0.12l0.1,0.13l0.07,0.12l0.24-0.37l0.09-0.12l0.33-0.5
		l0.07-0.13l0.26-0.36l0.07-0.14l0.1-0.12l0.23-0.37l0.1-0.12l0.23-0.37l0.1-0.12l0.07-0.14l0.33-0.49l0.07-0.12l0.33-0.49l0.1-0.12
		l0.07-0.13l0.09-0.12l0.07-0.12l0.1-0.12l0.07-0.14l0.09-0.12l0.07-0.12l0.1-0.13l0.07-0.12l0.33-0.5h1.5v10.92h-1.44v-8.55
		l-0.09,0.12l-0.07,0.13l-0.18,0.24l-0.07,0.14l-0.18,0.23l-0.07,0.14l-0.18,0.26l-0.07,0.12l-0.43,0.63l-0.07,0.12l-0.1,0.12
		l-0.09,0.13l-0.07,0.12l-0.1,0.12l-0.09,0.13l-0.07,0.12l-0.09,0.13l-0.1,0.12l-0.16,0.25l-0.1,0.12l-0.16,0.26l-0.17,0.23
		l-0.09,0.14l-0.09,0.12l-0.07,0.12l-0.18,0.25l-0.07,0.14l-0.18,0.24l-0.07,0.13l-0.18,0.24l-0.07,0.13l-0.09,0.12h-0.06l-0.1-0.12
		L239,19.81l-0.18-0.24l-0.08-0.13l-0.6-0.87l-0.33-0.5l-0.09-0.12l-0.16-0.26l-0.1-0.12l-0.16-0.26l-0.1-0.12l-0.67-1.01
		l-0.26-0.37l-0.09-0.12l-0.33-0.5l-0.09-0.12l-0.07-0.14l-0.18-0.23l-0.07-0.14l-0.09-0.12v8.52h-1.39V12.05z"/>
	<path fill="#FFFFFF" d="M254.04,22.97h-1.39V21.8l-0.37,0.43l-0.1,0.09l-0.12,0.09l-0.12,0.1l-0.12,0.09l-0.26,0.15l-0.37,0.17
		L250.91,23l-0.15,0.04l-0.3,0.06l-0.15,0.01l-0.17,0.02l-0.16,0.01h-0.3l-0.15-0.01l-0.13-0.02l-0.29-0.03l-0.27-0.06l-0.29-0.09
		l-0.15-0.06l-0.13-0.06l-0.13-0.08L248,22.67l-0.12-0.07l-0.12-0.09l-0.12-0.1l-0.21-0.21l-0.18-0.23l-0.17-0.27l-0.06-0.12
		l-0.09-0.24l-0.04-0.14l-0.03-0.15l-0.02-0.14l-0.01-0.15v-0.35l0.01-0.16l0.02-0.15l0.03-0.16l0.13-0.41l0.06-0.12l0.08-0.14
		l0.08-0.13l0.18-0.24l0.11-0.12l0.23-0.2l0.34-0.23l0.26-0.12l0.14-0.06l0.42-0.13l0.44-0.09l0.14-0.02l0.16-0.01h0.16l0.16-0.01
		h0.47l0.15,0.01h0.16l0.65,0.07l0.41,0.09l0.2,0.04l0.21,0.04l0.45,0.09v-0.44l-0.02-0.18l-0.06-0.31l-0.04-0.14l-0.06-0.14
		l-0.07-0.13l-0.07-0.12l-0.09-0.11l-0.09-0.1l-0.11-0.11l-0.1-0.09l-0.1-0.07l-0.12-0.06l-0.12-0.06l-0.14-0.06l-0.13-0.04
		l-0.15-0.04l-0.15-0.03l-0.17-0.03l-0.33-0.03h-0.34L250.06,16h-0.15l-0.29,0.03l-0.15,0.03l-0.14,0.01l-0.12,0.03l-0.13,0.03
		l-0.28,0.1l-0.29,0.1l-0.14,0.05l-0.13,0.05l-0.16,0.05l-0.13,0.05l-0.04-0.13l-0.06-0.14l-0.09-0.28l-0.06-0.14l-0.04-0.13
		l-0.06-0.15l-0.04-0.13l0.27-0.12l0.13-0.04l0.13-0.05l0.29-0.1l0.14-0.05l0.14-0.04l0.13-0.04l0.15-0.04l0.39-0.09l0.14-0.03
		l0.75-0.07h0.51l0.18,0.01h0.17l0.17,0.03l0.16,0.01l0.17,0.03l0.15,0.03l0.16,0.04l0.13,0.03l0.29,0.11l0.12,0.06l0.14,0.06
		l0.22,0.13l0.23,0.17l0.1,0.09l0.18,0.18l0.17,0.21l0.15,0.23l0.12,0.24l0.07,0.12l0.09,0.27l0.04,0.15l0.03,0.13l0.03,0.15
		l0.06,0.64V22.97z M249.98,21.96h0.29l0.46-0.04l0.27-0.06l0.57-0.22l0.13-0.07l0.12-0.07l0.12-0.09l0.32-0.29l0.07-0.1l0.15-0.25
		l0.06-0.11l0.09-0.26l0.03-0.15l0.01-0.13v-0.83l-0.12-0.04l-0.27-0.06l-0.14-0.03l-0.29-0.07l-0.29-0.06l-0.62-0.06l-0.17-0.01
		h-0.51l-0.33,0.03l-0.15,0.01l-0.3,0.06l-0.38,0.13L249,19.24l-0.1,0.06l-0.09,0.06l-0.14,0.11l-0.1,0.1l-0.17,0.23l-0.06,0.11
		l-0.06,0.13l-0.06,0.29v0.17l0.01,0.18l0.03,0.16l0.04,0.15l0.06,0.13l0.08,0.13l0.21,0.23l0.34,0.23l0.12,0.06l0.13,0.05
		l0.27,0.09l0.15,0.01l0.15,0.03L249.98,21.96z"/>
	<path fill="#FFFFFF" d="M256.59,14.86h1.39v1.9l0.06-0.13l0.07-0.12l0.06-0.13l0.08-0.12l0.09-0.12l0.07-0.11l0.09-0.11l0.09-0.12
		l0.09-0.1l0.1-0.1l0.11-0.09l0.1-0.1l0.1-0.08l0.12-0.09l0.24-0.14l0.12-0.06l0.12-0.08l0.14-0.06l0.4-0.12l0.15-0.03l0.15-0.01
		l0.15-0.03h0.46v1.34h-0.26l-0.32,0.03l-0.15,0.04l-0.3,0.06l-0.15,0.04l-0.13,0.06l-0.15,0.06l-0.13,0.06l-0.48,0.36l-0.21,0.21
		l-0.18,0.22l-0.09,0.12l-0.07,0.13l-0.08,0.12l-0.29,0.69l-0.03,0.13l-0.04,0.13l-0.03,0.13l-0.01,0.14l-0.03,0.13L258,19.23v0.16
		l-0.01,0.15v3.43h-1.39V14.86z"/>
	<path fill="#FFFFFF" d="M263.05,14.86h1.39v1.9l0.06-0.13l0.07-0.12l0.06-0.13l0.08-0.12l0.09-0.12l0.07-0.11l0.09-0.11l0.09-0.12
		l0.09-0.1l0.1-0.1l0.11-0.09l0.1-0.1l0.1-0.08l0.12-0.09l0.24-0.14l0.12-0.06l0.12-0.08l0.14-0.06l0.4-0.12l0.15-0.03l0.15-0.01
		l0.15-0.03h0.46v1.34h-0.26l-0.32,0.03l-0.15,0.04l-0.3,0.06l-0.15,0.04l-0.13,0.06l-0.15,0.06l-0.13,0.06l-0.48,0.36l-0.21,0.21
		l-0.18,0.22l-0.09,0.12L265,17.45l-0.08,0.12l-0.29,0.69l-0.03,0.13l-0.04,0.13l-0.03,0.13l-0.01,0.14l-0.03,0.13l-0.03,0.31v0.16
		l-0.01,0.15v3.43h-1.39V14.86z"/>
	<path fill="#FFFFFF" d="M269.54,11.9h1.57v1.34h-1.57V11.9z M269.64,14.86h1.39v8.12h-1.39V14.86z"/>
	<path fill="#FFFFFF" d="M280.47,22.97h-1.39V21.8l-0.37,0.43l-0.1,0.09l-0.12,0.09l-0.12,0.1l-0.12,0.09l-0.26,0.15l-0.37,0.17
		L277.34,23l-0.15,0.04l-0.3,0.06l-0.15,0.01l-0.17,0.02l-0.16,0.01h-0.3l-0.15-0.01l-0.13-0.02l-0.29-0.03l-0.27-0.06l-0.29-0.09
		l-0.15-0.06l-0.13-0.06l-0.13-0.08l-0.14-0.07l-0.12-0.07l-0.12-0.09l-0.12-0.1l-0.21-0.21l-0.18-0.23l-0.17-0.27l-0.06-0.12
		l-0.09-0.24l-0.04-0.14l-0.03-0.15l-0.02-0.14l-0.01-0.15v-0.35l0.01-0.16l0.02-0.15l0.03-0.16l0.13-0.41l0.06-0.12l0.08-0.14
		l0.08-0.13l0.18-0.24l0.11-0.12l0.23-0.2l0.34-0.23l0.26-0.12l0.14-0.06l0.42-0.13l0.44-0.09l0.14-0.02l0.16-0.01h0.16l0.16-0.01
		h0.47l0.15,0.01h0.16l0.65,0.07l0.41,0.09l0.2,0.04l0.21,0.04l0.45,0.09v-0.44l-0.02-0.18l-0.06-0.31l-0.04-0.14l-0.06-0.14
		l-0.07-0.13l-0.07-0.12l-0.09-0.11l-0.09-0.1l-0.11-0.11l-0.1-0.09l-0.1-0.07l-0.12-0.06l-0.12-0.06l-0.14-0.06l-0.13-0.04
		l-0.15-0.04l-0.15-0.03l-0.17-0.03l-0.33-0.03h-0.34L276.49,16h-0.15l-0.29,0.03l-0.15,0.03l-0.14,0.01l-0.12,0.03l-0.13,0.03
		l-0.28,0.1l-0.29,0.1l-0.14,0.05l-0.13,0.05l-0.16,0.05l-0.13,0.05l-0.04-0.13l-0.06-0.14l-0.09-0.28l-0.06-0.14l-0.04-0.13
		l-0.06-0.15l-0.04-0.13l0.27-0.12l0.13-0.04l0.13-0.05l0.29-0.1l0.14-0.05l0.14-0.04l0.13-0.04l0.15-0.04l0.39-0.09l0.14-0.03
		l0.75-0.07h0.51l0.18,0.01h0.17l0.17,0.03l0.16,0.01l0.17,0.03l0.15,0.03l0.16,0.04l0.13,0.03l0.29,0.11l0.12,0.06l0.14,0.06
		l0.22,0.13l0.23,0.17l0.1,0.09l0.18,0.18l0.17,0.21l0.15,0.23l0.12,0.24l0.07,0.12l0.09,0.27l0.04,0.15l0.03,0.13l0.03,0.15
		l0.06,0.64V22.97z M276.41,21.96h0.29l0.46-0.04l0.27-0.06l0.57-0.22l0.13-0.07l0.12-0.07l0.12-0.09l0.32-0.29l0.07-0.1l0.15-0.25
		l0.06-0.11l0.09-0.26l0.03-0.15l0.01-0.13v-0.83l-0.12-0.04l-0.27-0.06l-0.14-0.03l-0.29-0.07L278,19.02l-0.62-0.06l-0.17-0.01
		h-0.51l-0.33,0.03l-0.15,0.01l-0.3,0.06l-0.38,0.13l-0.12,0.06l-0.1,0.06l-0.09,0.06l-0.14,0.11l-0.1,0.1l-0.17,0.23l-0.06,0.11
		l-0.06,0.13l-0.06,0.29v0.17l0.01,0.18l0.03,0.16l0.04,0.15l0.06,0.13l0.08,0.13l0.21,0.23l0.34,0.23l0.12,0.06l0.13,0.05
		l0.27,0.09l0.15,0.01l0.15,0.03L276.41,21.96z"/>
	<path fill="#FFFFFF" d="M289.43,14.86h1.39v6.8l-0.02,0.18v0.18l-0.03,0.16l-0.01,0.17l-0.09,0.46l-0.09,0.3l-0.05,0.14l-0.06,0.13
		l-0.04,0.14l-0.07,0.12l-0.06,0.14l-0.32,0.45l-0.11,0.09l-0.09,0.11l-0.31,0.26l-0.1,0.1l-0.24,0.15l-0.27,0.14l-0.27,0.12
		l-0.13,0.04l-0.15,0.04l-0.13,0.04l-0.14,0.04l-0.45,0.09l-0.63,0.06h-0.64l-0.75-0.07l-0.45-0.09l-0.13-0.04l-0.15-0.03
		l-0.13-0.04l-0.56-0.18l-0.4-0.18l-0.14-0.06l-0.13-0.07l-0.12-0.08l-0.13-0.06l-0.26-0.16l0.07-0.14l0.23-0.4l0.07-0.15l0.16-0.26
		l0.07-0.14l0.12,0.09l0.26,0.15l0.27,0.15l0.26,0.12l0.27,0.12l0.13,0.04l0.15,0.07l0.13,0.03l0.14,0.04l0.15,0.03l0.43,0.09
		l0.29,0.03h0.15l0.16,0.01h0.33l0.48-0.04l0.3-0.06l0.29-0.09l0.13-0.07l0.12-0.04l0.23-0.13l0.12-0.09l0.21-0.17l0.09-0.09
		l0.18-0.21l0.08-0.12l0.07-0.12l0.06-0.12l0.06-0.13l0.09-0.29l0.04-0.15l0.03-0.15l0.03-0.17l0.02-0.16l0.01-0.18V20.7l-0.09,0.12
		l-0.1,0.1l-0.09,0.12l-0.1,0.1l-0.11,0.09l-0.09,0.11l-0.23,0.19l-0.1,0.1l-0.12,0.09l-0.37,0.23l-0.36,0.18l-0.27,0.1l-0.43,0.09
		l-0.46,0.04h-0.32l-0.55-0.06l-0.15-0.03l-0.13-0.04l-0.14-0.04l-0.13-0.04l-0.13-0.06l-0.14-0.04l-0.27-0.12l-0.36-0.23
		l-0.12-0.09l-0.12-0.08l-0.1-0.1l-0.32-0.3l-0.2-0.23l-0.07-0.12l-0.09-0.12l-0.15-0.26l-0.07-0.14l-0.12-0.27l-0.09-0.26
		l-0.03-0.14l-0.04-0.13l-0.03-0.15l-0.06-0.6v-0.36l0.06-0.6l0.03-0.15l0.04-0.14l0.03-0.15l0.23-0.54l0.3-0.51l0.18-0.23
		l0.19-0.21l0.31-0.3l0.12-0.07l0.23-0.17l0.24-0.15l0.14-0.06l0.13-0.07l0.14-0.06l0.26-0.09l0.14-0.03l0.13-0.04l0.15-0.03
		l0.27-0.03l0.15-0.01l0.13-0.02h0.32l0.16,0.02l0.31,0.03l0.15,0.03l0.13,0.03l0.15,0.03l0.27,0.09l0.12,0.04l0.25,0.13l0.62,0.44
		l0.24,0.2l0.21,0.21l0.09,0.13l0.11,0.1l0.09,0.12V14.86z M286.52,21.11h0.29l0.3-0.03l0.3-0.06l0.15-0.04l0.15-0.07l0.15-0.04
		l0.13-0.06l0.14-0.07l0.36-0.24l0.23-0.2l0.19-0.22l0.07-0.11l0.09-0.12l0.15-0.27l0.06-0.13l0.05-0.15l0.04-0.15l0.06-0.3
		l0.01-0.15v-0.36l-0.01-0.16l-0.06-0.3l-0.04-0.15l-0.05-0.15l-0.06-0.14l-0.15-0.27l-0.09-0.12l-0.26-0.33l-0.11-0.1l-0.12-0.1
		l-0.5-0.31l-0.13-0.06l-0.15-0.06l-0.3-0.09l-0.15-0.03l-0.15-0.04l-0.3-0.03h-0.29l-0.3,0.03l-0.15,0.04l-0.15,0.03l-0.27,0.09
		l-0.15,0.06l-0.26,0.12l-0.23,0.15l-0.11,0.09l-0.2,0.2l-0.1,0.1l-0.16,0.23l-0.15,0.26l-0.12,0.27l-0.04,0.15l-0.09,0.45
		l-0.02,0.16v0.36l0.02,0.17l0.09,0.45l0.04,0.14l0.12,0.27l0.23,0.37l0.09,0.1l0.11,0.1l0.1,0.11l0.33,0.27l0.12,0.07l0.12,0.06
		l0.13,0.07l0.14,0.04l0.13,0.07l0.15,0.04l0.13,0.03l0.15,0.03L286.52,21.11z"/>
	<path fill="#FFFFFF" d="M297.31,23.16h-0.33l-0.15-0.01l-0.15-0.02l-0.3-0.03l-0.13-0.03l-0.15-0.03l-0.41-0.13l-0.29-0.12
		l-0.15-0.06l-0.27-0.15l-0.39-0.27l-0.12-0.1l-0.22-0.21l-0.11-0.09l-0.18-0.23l-0.1-0.11l-0.07-0.12l-0.09-0.12l-0.15-0.26
		l-0.23-0.54l-0.1-0.27l-0.03-0.13l-0.04-0.14l-0.03-0.15l-0.02-0.13l-0.03-0.15l-0.01-0.15v-0.15l-0.02-0.16v-0.33l0.02-0.17v-0.15
		l0.03-0.15l0.01-0.15l0.09-0.45l0.04-0.15l0.11-0.29l0.04-0.14l0.12-0.27l0.08-0.12l0.06-0.13l0.07-0.12l0.09-0.12l0.07-0.12
		l0.18-0.21l0.09-0.12l0.23-0.21l0.1-0.11l0.38-0.29l0.25-0.16l0.14-0.06l0.27-0.14l0.4-0.13l0.43-0.09l0.3-0.03l0.15-0.02h0.31
		l0.16,0.02l0.32,0.03l0.44,0.09l0.29,0.09l0.27,0.12l0.13,0.07l0.15,0.07l0.5,0.34l0.1,0.1l0.12,0.11l0.29,0.34l0.09,0.12
		l0.16,0.26l0.08,0.14l0.21,0.43l0.11,0.3l0.09,0.3l0.09,0.45l0.01,0.15l0.03,0.15l0.02,0.15v0.16l0.01,0.15v0.37l-0.04,0.23h-6.28
		l0.01,0.15l0.03,0.15l0.04,0.13l0.03,0.13l0.09,0.27l0.04,0.12l0.29,0.49l0.27,0.33l0.1,0.1l0.12,0.1l0.26,0.18l0.29,0.15l0.27,0.1
		l0.14,0.03l0.13,0.04l0.15,0.03l0.26,0.03h0.32l0.45-0.04l0.13-0.03l0.14-0.04l0.13-0.04l0.12-0.03l0.37-0.18l0.12-0.08l0.14-0.07
		l0.23-0.18l0.34-0.3l0.11-0.11l0.21,0.2l0.23,0.18l0.11,0.11l0.1,0.09l0.1,0.1l0.11,0.1l-0.32,0.33l-0.11,0.1l-0.12,0.09
		l-0.47,0.37l-0.13,0.07l-0.12,0.07l-0.14,0.06l-0.12,0.07l-0.14,0.05l-0.13,0.06L298.42,23l-0.45,0.09l-0.17,0.01l-0.17,0.04h-0.16
		L297.31,23.16z M297.1,15.86h-0.31l-0.17,0.01l-0.16,0.03l-0.15,0.05L296.16,16l-0.14,0.06l-0.29,0.15l-0.12,0.08l-0.12,0.1
		l-0.12,0.09l-0.31,0.34l-0.18,0.27l-0.15,0.3l-0.06,0.15l-0.04,0.13l-0.04,0.15l-0.04,0.13l-0.04,0.15l-0.03,0.17l-0.02,0.15h4.91
		l-0.03-0.3l-0.06-0.28l-0.04-0.14l-0.04-0.13l-0.04-0.14l-0.07-0.15l-0.06-0.15L298.95,17l-0.27-0.39l-0.12-0.11l-0.1-0.1
		l-0.12-0.1l-0.26-0.17l-0.14-0.07l-0.39-0.14l-0.15-0.03L297.1,15.86z"/>
	<path fill="#FFFFFF" d="M309.1,14.77v0.17l0.02,0.14l0.06,0.25l0.04,0.11l0.06,0.1l0.06,0.12l0.1,0.1l0.22,0.19l0.1,0.07l0.35,0.18
		l0.44,0.17l0.13,0.04l0.11,0.03l0.13,0.03l0.13,0.04l0.13,0.04l0.16,0.04l0.14,0.04l0.18,0.05l0.16,0.04l0.16,0.04l0.18,0.05
		l0.55,0.15l0.17,0.04l0.16,0.04l0.45,0.17l0.4,0.18l0.12,0.08l0.24,0.12l0.21,0.15l0.1,0.08l0.09,0.06l0.31,0.32l0.09,0.12
		l0.07,0.11l0.07,0.13l0.07,0.12l0.05,0.14l0.06,0.13l0.04,0.16l0.06,0.3l0.03,0.33v0.36l-0.03,0.3l-0.09,0.44L315.33,21l-0.07,0.13
		l-0.04,0.13l-0.07,0.15l-0.09,0.13l-0.07,0.14l-0.11,0.12l-0.09,0.13l-0.34,0.33l-0.36,0.26l-0.27,0.15l-0.43,0.19l-0.3,0.09
		l-0.13,0.04l-0.3,0.06l-0.15,0.01l-0.15,0.03l-0.16,0.02h-0.15l-0.16,0.01h-0.47l-0.75-0.07l-0.72-0.15l-0.15-0.04l-0.4-0.14
		l-0.27-0.12l-0.14-0.04l-0.13-0.08l-0.14-0.06l-0.12-0.07l-0.13-0.06l-0.14-0.07l-0.12-0.1l-0.12-0.07l-0.13-0.09l-0.48-0.36
		l-0.23-0.21l0.1-0.12l0.09-0.12l0.11-0.1l0.09-0.12l0.2-0.23l0.1-0.11l0.09-0.12l0.11-0.12l0.23,0.2l0.12,0.09l0.12,0.1l0.12,0.09
		l0.12,0.07l0.12,0.1l0.24,0.15l0.62,0.31l0.13,0.06l0.14,0.04l0.13,0.05l0.15,0.04l0.13,0.04l0.3,0.06l0.15,0.01l0.16,0.03
		l0.15,0.01h0.16l0.17,0.01h0.33l0.33-0.03l0.15-0.03l0.15-0.01l0.4-0.13l0.12-0.07l0.24-0.12l0.23-0.18l0.2-0.21l0.09-0.12
		l0.07-0.12l0.04-0.12l0.04-0.14l0.07-0.28v-0.34l-0.04-0.16l-0.03-0.15l-0.04-0.15l-0.07-0.14l-0.09-0.12l-0.12-0.13l-0.13-0.12
		l-0.37-0.23l-0.47-0.2l-0.13-0.04l-0.26-0.07l-0.46-0.13l-0.18-0.05l-0.17-0.05l-0.17-0.05l-0.16-0.05L311,18.04l-0.16-0.05
		l-0.45-0.13l-0.14-0.04l-0.41-0.11l-0.12-0.04l-0.16-0.04l-0.29-0.14l-0.13-0.07l-0.12-0.06l-0.23-0.15l-0.34-0.27l-0.12-0.12
		l-0.1-0.12l-0.18-0.26l-0.21-0.4l-0.05-0.14l-0.06-0.29l-0.03-0.16l-0.03-0.31v-0.37l0.01-0.17l0.09-0.45l0.05-0.15l0.12-0.29
		l0.15-0.26l0.1-0.12l0.09-0.13l0.09-0.11l0.11-0.12l0.23-0.21l0.11-0.09l0.12-0.07l0.1-0.1l0.4-0.21l0.27-0.13l0.15-0.04l0.13-0.04
		l0.14-0.03l0.13-0.04l0.15-0.03l0.13-0.02l0.15-0.03l0.15-0.02h0.15l0.15-0.01h0.5l0.65,0.06l0.15,0.03l0.15,0.01l0.3,0.06
		l0.27,0.09l0.13,0.03l0.53,0.21l0.26,0.13l0.37,0.22l0.12,0.08l0.14,0.07l0.48,0.36l-0.45,0.61l-0.1,0.12l-0.09,0.14l-0.18,0.23
		l-0.12-0.1L313.84,14l-0.51-0.3l-0.24-0.12l-0.13-0.04l-0.12-0.06l-0.14-0.05l-0.13-0.04l-0.15-0.03l-0.13-0.04l-0.14-0.01
		l-0.3-0.06l-0.13-0.01h-0.15l-0.15-0.01h-0.32l-0.3,0.03l-0.3,0.06l-0.13,0.03l-0.3,0.11l-0.27,0.15l-0.1,0.07l-0.14,0.12
		l-0.12,0.11l-0.1,0.13l-0.09,0.14l-0.06,0.14l-0.04,0.16l-0.03,0.14L309.1,14.77z"/>
	<path fill="#FFFFFF" d="M318.19,16.1h-1.1v-1.25h1.1v-2.37h1.39v2.37h2.46v1.25h-2.46v4.69l0.03,0.18l0.03,0.15l0.12,0.26l0.07,0.1
		l0.09,0.09l0.11,0.08l0.1,0.06l0.12,0.06l0.14,0.04l0.15,0.01l0.14,0.03h0.32l0.15-0.01l0.44-0.09l0.13-0.04l0.15-0.06l0.15-0.08
		v1.18l-0.14,0.08l-0.13,0.06l-0.27,0.09l-0.15,0.04l-0.12,0.03l-0.13,0.01l-0.14,0.03h-0.13l-0.15,0.01h-0.32l-0.31-0.03
		l-0.44-0.09l-0.13-0.06l-0.14-0.04l-0.12-0.06l-0.24-0.15l-0.21-0.18l-0.09-0.1l-0.09-0.12l-0.07-0.12l-0.07-0.13l-0.06-0.15
		l-0.06-0.12l-0.09-0.43l-0.03-0.33V16.1z"/>
	<path fill="#FFFFFF" d="M324.21,14.86h1.39v1.9l0.06-0.13l0.07-0.12l0.06-0.13l0.08-0.12l0.09-0.12l0.07-0.11l0.09-0.11l0.09-0.12
		l0.09-0.1l0.1-0.1l0.11-0.09l0.1-0.1l0.1-0.08l0.12-0.09l0.24-0.14l0.12-0.06l0.12-0.08l0.14-0.06l0.4-0.12l0.15-0.03l0.15-0.01
		l0.15-0.03h0.46v1.34h-0.26l-0.32,0.03l-0.15,0.04l-0.3,0.06l-0.15,0.04l-0.13,0.06l-0.15,0.06l-0.13,0.06l-0.48,0.36l-0.21,0.21
		l-0.18,0.22l-0.09,0.12l-0.07,0.13l-0.08,0.12l-0.29,0.69l-0.03,0.13l-0.04,0.13l-0.03,0.13l-0.01,0.14l-0.03,0.13l-0.03,0.31v0.16
		l-0.01,0.15v3.43h-1.39V14.86z"/>
	<path fill="#FFFFFF" d="M334.12,23.16h-0.33l-0.15-0.01l-0.15-0.02l-0.3-0.03l-0.13-0.03l-0.15-0.03l-0.41-0.13l-0.29-0.12
		l-0.15-0.06l-0.27-0.15l-0.39-0.27l-0.12-0.1l-0.22-0.21l-0.11-0.09l-0.18-0.23l-0.1-0.11l-0.07-0.12l-0.09-0.12l-0.15-0.26
		l-0.23-0.54l-0.1-0.27l-0.03-0.13l-0.04-0.14l-0.03-0.15l-0.02-0.13l-0.03-0.15l-0.01-0.15v-0.15l-0.02-0.16v-0.33l0.02-0.17v-0.15
		l0.03-0.15l0.01-0.15l0.09-0.45l0.04-0.15l0.11-0.29l0.04-0.14l0.12-0.27l0.08-0.12l0.06-0.13l0.07-0.12l0.09-0.12l0.07-0.12
		l0.18-0.21l0.09-0.12l0.23-0.21l0.1-0.11l0.38-0.29l0.25-0.16l0.14-0.06l0.27-0.14l0.4-0.13l0.43-0.09l0.3-0.03l0.15-0.02h0.31
		l0.16,0.02l0.32,0.03l0.44,0.09l0.29,0.09l0.27,0.12l0.13,0.07l0.15,0.07l0.5,0.34l0.1,0.1l0.12,0.11l0.29,0.34l0.09,0.12
		l0.16,0.26l0.08,0.14l0.21,0.43l0.11,0.3l0.09,0.3l0.09,0.45l0.01,0.15l0.03,0.15l0.02,0.15v0.16l0.01,0.15v0.37l-0.04,0.23h-6.28
		l0.01,0.15l0.03,0.15l0.04,0.13l0.03,0.13l0.09,0.27l0.04,0.12l0.29,0.49l0.27,0.33l0.1,0.1l0.12,0.1l0.26,0.18l0.29,0.15l0.27,0.1
		l0.14,0.03l0.13,0.04l0.15,0.03l0.26,0.03h0.32l0.45-0.04l0.13-0.03l0.14-0.04l0.13-0.04l0.12-0.03l0.37-0.18l0.12-0.08l0.14-0.07
		l0.23-0.18l0.34-0.3l0.11-0.11l0.21,0.2l0.23,0.18l0.11,0.11l0.1,0.09l0.1,0.1l0.11,0.1l-0.32,0.33l-0.11,0.1l-0.12,0.09
		l-0.47,0.37l-0.13,0.07l-0.12,0.07l-0.14,0.06l-0.12,0.07l-0.14,0.05l-0.13,0.06L335.23,23l-0.45,0.09l-0.17,0.01l-0.17,0.04h-0.16
		L334.12,23.16z M333.91,15.86h-0.31l-0.17,0.01l-0.16,0.03l-0.15,0.05L332.97,16l-0.14,0.06l-0.29,0.15l-0.12,0.08l-0.12,0.1
		l-0.12,0.09l-0.31,0.34l-0.18,0.27l-0.15,0.3l-0.06,0.15l-0.04,0.13l-0.04,0.15l-0.04,0.13l-0.04,0.15l-0.03,0.17l-0.02,0.15h4.91
		l-0.03-0.3l-0.06-0.28l-0.04-0.14l-0.04-0.13l-0.04-0.14l-0.07-0.15l-0.06-0.15L335.76,17l-0.27-0.39l-0.12-0.11l-0.1-0.1
		l-0.12-0.1l-0.26-0.17l-0.14-0.07l-0.39-0.14l-0.15-0.03L333.91,15.86z"/>
	<path fill="#FFFFFF" d="M339.74,14.86h1.39v1.37l0.07-0.12l0.18-0.24l0.21-0.24l0.21-0.21l0.12-0.09l0.12-0.11l0.13-0.09l0.14-0.07
		l0.13-0.08l0.15-0.07l0.15-0.06l0.17-0.04l0.43-0.09l0.15-0.01l0.17-0.02H344l0.15,0.02l0.3,0.03l0.42,0.09l0.12,0.04l0.14,0.04
		l0.4,0.21l0.12,0.07l0.12,0.09l0.21,0.2l0.11,0.09l0.09,0.12l0.18,0.22l0.07,0.14l0.07,0.12l0.18,0.42l0.03,0.13l0.04,0.13
		l0.06,0.27l0.01,0.15l0.03,0.15v0.15l0.01,0.15v5.25h-1.39V18.1l-0.03-0.33l-0.03-0.16l-0.04-0.15l-0.09-0.27l-0.06-0.13
		l-0.13-0.24l-0.09-0.12l-0.07-0.1l-0.1-0.11l-0.12-0.1l-0.24-0.15l-0.13-0.07l-0.13-0.06l-0.15-0.04l-0.15-0.03l-0.17-0.03
		l-0.16-0.01h-0.34l-0.15,0.01l-0.3,0.06l-0.27,0.09l-0.27,0.12l-0.23,0.17l-0.11,0.09l-0.19,0.21l-0.1,0.12l-0.09,0.12l-0.07,0.13
		l-0.06,0.14l-0.07,0.13l-0.06,0.13l-0.09,0.41l-0.03,0.3v4.76h-1.39V14.86z"/>
	<path fill="#FFFFFF" d="M355.9,14.86h1.39v6.8l-0.02,0.18v0.18l-0.03,0.16l-0.01,0.17l-0.09,0.46l-0.09,0.3l-0.05,0.14l-0.06,0.13
		l-0.04,0.14l-0.07,0.12l-0.06,0.14l-0.32,0.45l-0.11,0.09l-0.09,0.11l-0.31,0.26l-0.1,0.1l-0.24,0.15l-0.27,0.14l-0.27,0.12
		l-0.13,0.04l-0.15,0.04l-0.13,0.04l-0.14,0.04l-0.45,0.09l-0.63,0.06h-0.64l-0.75-0.07l-0.45-0.09l-0.13-0.04l-0.15-0.03
		l-0.13-0.04l-0.56-0.18l-0.4-0.18l-0.14-0.06l-0.13-0.07l-0.12-0.08l-0.13-0.06l-0.26-0.16l0.07-0.14l0.23-0.4l0.07-0.15l0.16-0.26
		l0.07-0.14l0.12,0.09l0.26,0.15l0.27,0.15l0.26,0.12l0.27,0.12l0.13,0.04l0.15,0.07l0.13,0.03l0.14,0.04l0.15,0.03l0.43,0.09
		l0.29,0.03h0.15l0.16,0.01h0.33l0.48-0.04l0.3-0.06l0.29-0.09l0.13-0.07l0.12-0.04l0.23-0.13l0.12-0.09l0.21-0.17l0.09-0.09
		l0.18-0.21l0.08-0.12l0.07-0.12l0.06-0.12l0.06-0.13l0.09-0.29l0.04-0.15l0.03-0.15l0.03-0.17l0.02-0.16l0.01-0.18V20.7l-0.09,0.12
		l-0.1,0.1l-0.09,0.12l-0.1,0.1l-0.11,0.09l-0.09,0.11l-0.23,0.19l-0.1,0.1l-0.12,0.09l-0.37,0.23l-0.36,0.18l-0.27,0.1l-0.43,0.09
		L353,22.36h-0.32l-0.55-0.06l-0.15-0.03l-0.13-0.04l-0.14-0.04l-0.13-0.04l-0.13-0.06l-0.14-0.04l-0.27-0.12l-0.36-0.23l-0.12-0.09
		l-0.12-0.08l-0.1-0.1l-0.32-0.3l-0.2-0.23l-0.07-0.12l-0.09-0.12l-0.15-0.26l-0.07-0.14l-0.12-0.27l-0.09-0.26l-0.03-0.14
		l-0.04-0.13l-0.03-0.15l-0.06-0.6v-0.36l0.06-0.6l0.03-0.15l0.04-0.14l0.03-0.15l0.23-0.54l0.3-0.51l0.18-0.23l0.19-0.21l0.31-0.3
		l0.12-0.07l0.23-0.17l0.24-0.15l0.14-0.06l0.13-0.07l0.14-0.06l0.26-0.09l0.14-0.03l0.13-0.04l0.15-0.03l0.27-0.03l0.15-0.01
		l0.13-0.02h0.32l0.16,0.02l0.31,0.03l0.15,0.03l0.13,0.03l0.15,0.03l0.27,0.09l0.12,0.04l0.25,0.13l0.62,0.44l0.24,0.2l0.21,0.21
		l0.09,0.13l0.11,0.1l0.09,0.12V14.86z M353,21.11h0.29l0.3-0.03l0.3-0.06l0.15-0.04l0.15-0.07l0.15-0.04l0.13-0.06l0.14-0.07
		l0.36-0.24l0.23-0.2l0.19-0.22l0.07-0.11l0.09-0.12l0.15-0.27l0.06-0.13l0.05-0.15l0.04-0.15l0.06-0.3l0.01-0.15v-0.36l-0.01-0.16
		l-0.06-0.3l-0.04-0.15l-0.05-0.15l-0.06-0.14l-0.15-0.27l-0.09-0.12l-0.26-0.33l-0.11-0.1l-0.12-0.1l-0.5-0.31l-0.13-0.06
		l-0.15-0.06l-0.3-0.09l-0.15-0.03l-0.15-0.04l-0.3-0.03H353l-0.3,0.03l-0.15,0.04l-0.15,0.03l-0.27,0.09l-0.15,0.06l-0.26,0.12
		l-0.23,0.15l-0.11,0.09l-0.2,0.2l-0.1,0.1l-0.16,0.23l-0.15,0.26l-0.12,0.27l-0.04,0.15l-0.09,0.45l-0.02,0.16v0.36l0.02,0.17
		l0.09,0.45l0.04,0.14l0.12,0.27l0.23,0.37l0.09,0.1l0.11,0.1l0.1,0.11l0.33,0.27l0.12,0.07l0.12,0.06l0.13,0.07l0.14,0.04
		l0.13,0.07l0.15,0.04l0.13,0.03l0.15,0.03L353,21.11z"/>
	<path fill="#FFFFFF" d="M360.43,16.1h-1.1v-1.25h1.1v-2.37h1.39v2.37h2.46v1.25h-2.46v4.69l0.03,0.18l0.03,0.15l0.12,0.26l0.07,0.1
		l0.09,0.09l0.11,0.08l0.1,0.06l0.12,0.06l0.14,0.04l0.15,0.01l0.14,0.03h0.32l0.15-0.01l0.44-0.09l0.13-0.04l0.15-0.06l0.15-0.08
		v1.18l-0.14,0.08l-0.13,0.06l-0.27,0.09l-0.15,0.04l-0.12,0.03l-0.13,0.01l-0.14,0.03h-0.13l-0.15,0.01h-0.32l-0.31-0.03
		l-0.44-0.09l-0.13-0.06l-0.14-0.04l-0.12-0.06l-0.24-0.15l-0.21-0.18l-0.09-0.1l-0.09-0.12l-0.07-0.12l-0.07-0.13l-0.06-0.15
		l-0.06-0.12l-0.09-0.43l-0.03-0.33V16.1z"/>
	<path fill="#FFFFFF" d="M366.45,11.59h1.39v4.64l0.07-0.12l0.18-0.24l0.21-0.24l0.21-0.21l0.12-0.09l0.12-0.11l0.13-0.09l0.14-0.07
		l0.13-0.08l0.15-0.07l0.15-0.06l0.17-0.04l0.43-0.09l0.15-0.01l0.17-0.02h0.33l0.15,0.02l0.3,0.03l0.42,0.09l0.12,0.04l0.14,0.04
		l0.4,0.21l0.12,0.07l0.12,0.09l0.21,0.2l0.11,0.09l0.09,0.12l0.18,0.22l0.07,0.14l0.07,0.12l0.18,0.42l0.03,0.13l0.04,0.13
		l0.06,0.27l0.01,0.15l0.03,0.15v0.15l0.01,0.15v5.25h-1.39V18.1l-0.03-0.33l-0.03-0.16l-0.04-0.15L372,17.18l-0.06-0.13l-0.13-0.24
		l-0.09-0.12l-0.07-0.1l-0.1-0.11l-0.12-0.1l-0.24-0.15l-0.13-0.07l-0.13-0.06l-0.15-0.04l-0.15-0.03l-0.17-0.03l-0.16-0.01h-0.34
		l-0.15,0.01l-0.3,0.06l-0.27,0.09l-0.27,0.12l-0.23,0.17l-0.11,0.09l-0.19,0.21l-0.1,0.12l-0.09,0.12l-0.07,0.13l-0.06,0.14
		l-0.07,0.13l-0.06,0.13l-0.09,0.41l-0.03,0.3v4.76h-1.39V11.59z"/>
	<path fill="#FFFFFF" d="M379.97,23.16h-0.33l-0.15-0.01l-0.15-0.02l-0.3-0.03l-0.13-0.03l-0.15-0.03l-0.41-0.13l-0.29-0.12
		l-0.15-0.06l-0.27-0.15l-0.39-0.27l-0.12-0.1l-0.22-0.21l-0.11-0.09l-0.18-0.23l-0.1-0.11l-0.07-0.12l-0.09-0.12l-0.15-0.26
		l-0.23-0.54l-0.1-0.27l-0.03-0.13l-0.04-0.14l-0.03-0.15l-0.02-0.13l-0.03-0.15l-0.01-0.15v-0.15l-0.02-0.16v-0.33l0.02-0.17v-0.15
		l0.03-0.15l0.01-0.15l0.09-0.45l0.04-0.15l0.11-0.29l0.04-0.14l0.12-0.27l0.08-0.12l0.06-0.13l0.07-0.12l0.09-0.12l0.07-0.12
		l0.18-0.21l0.09-0.12l0.23-0.21l0.1-0.11l0.38-0.29l0.25-0.16l0.14-0.06l0.27-0.14l0.4-0.13l0.43-0.09l0.3-0.03l0.15-0.02h0.31
		l0.16,0.02l0.32,0.03l0.44,0.09L381,14.9l0.27,0.12l0.13,0.07l0.15,0.07l0.5,0.34l0.1,0.1l0.12,0.11l0.29,0.34l0.09,0.12l0.16,0.26
		l0.08,0.14l0.21,0.43l0.11,0.3l0.09,0.3l0.09,0.45l0.01,0.15l0.03,0.15l0.02,0.15v0.16l0.01,0.15v0.37l-0.04,0.23h-6.28l0.01,0.15
		l0.03,0.15l0.04,0.13l0.03,0.13l0.09,0.27l0.04,0.12l0.29,0.49l0.27,0.33l0.1,0.1l0.12,0.1l0.26,0.18l0.29,0.15l0.27,0.1l0.14,0.03
		l0.13,0.04l0.15,0.03l0.26,0.03h0.32l0.45-0.04l0.13-0.03l0.14-0.04l0.13-0.04l0.12-0.03l0.37-0.18l0.12-0.08l0.14-0.07l0.23-0.18
		l0.34-0.3l0.11-0.11l0.21,0.2l0.23,0.18l0.11,0.11l0.1,0.09l0.1,0.1l0.11,0.1l-0.32,0.33l-0.11,0.1l-0.12,0.09l-0.47,0.37L382,22.6
		l-0.12,0.07l-0.14,0.06l-0.12,0.07l-0.14,0.05l-0.13,0.06L381.09,23l-0.45,0.09l-0.17,0.01l-0.17,0.04h-0.16L379.97,23.16z
		 M379.77,15.86h-0.31l-0.17,0.01l-0.16,0.03l-0.15,0.05L378.82,16l-0.14,0.06l-0.29,0.15l-0.12,0.08l-0.12,0.1l-0.12,0.09
		l-0.31,0.34l-0.18,0.27l-0.15,0.3l-0.06,0.15l-0.04,0.13l-0.04,0.15l-0.04,0.13l-0.04,0.15l-0.03,0.17l-0.02,0.15h4.91l-0.03-0.3
		l-0.06-0.28l-0.04-0.14l-0.04-0.13l-0.04-0.14l-0.07-0.15l-0.06-0.15L381.62,17l-0.27-0.39l-0.12-0.11l-0.1-0.1L381,16.3
		l-0.26-0.17l-0.14-0.07l-0.39-0.14l-0.15-0.03L379.77,15.86z"/>
	<path fill="#FFFFFF" d="M385.6,14.86h1.39v1.37l0.07-0.12l0.18-0.24l0.21-0.24l0.21-0.21l0.12-0.09l0.12-0.11l0.13-0.09l0.14-0.07
		l0.13-0.08l0.15-0.07l0.15-0.06l0.17-0.04l0.43-0.09l0.15-0.01l0.17-0.02h0.33L390,14.7l0.3,0.03l0.42,0.09l0.12,0.04l0.14,0.04
		l0.4,0.21l0.12,0.07l0.12,0.09l0.21,0.2l0.11,0.09l0.09,0.12l0.18,0.22l0.07,0.14l0.07,0.12l0.18,0.42l0.03,0.13l0.04,0.13
		l0.06,0.27l0.01,0.15l0.03,0.15v0.15l0.01,0.15v5.25h-1.39V18.1l-0.03-0.33l-0.03-0.16l-0.04-0.15l-0.09-0.27l-0.06-0.13
		l-0.13-0.24l-0.09-0.12l-0.07-0.1l-0.1-0.11l-0.12-0.1l-0.24-0.15l-0.13-0.07l-0.13-0.06l-0.15-0.04l-0.15-0.03l-0.17-0.03
		l-0.16-0.01h-0.34l-0.15,0.01l-0.3,0.06l-0.27,0.09l-0.27,0.12l-0.23,0.17l-0.11,0.09l-0.19,0.21l-0.1,0.12l-0.09,0.12l-0.07,0.13
		l-0.06,0.14l-0.07,0.13l-0.06,0.13l-0.09,0.41l-0.03,0.3v4.76h-1.39V14.86z"/>
	<path fill="#FFFFFF" d="M395.38,11.9h1.57v1.34h-1.57V11.9z M395.47,14.86h1.39v8.12h-1.39V14.86z"/>
	<path fill="#FFFFFF" d="M399.68,14.86h1.39v1.37l0.07-0.12l0.18-0.24l0.21-0.24l0.21-0.21l0.12-0.09l0.12-0.11l0.13-0.09l0.14-0.07
		l0.13-0.08l0.15-0.07l0.15-0.06l0.17-0.04l0.43-0.09l0.15-0.01l0.17-0.02h0.33l0.15,0.02l0.3,0.03l0.42,0.09l0.12,0.04l0.14,0.04
		l0.4,0.21l0.12,0.07l0.12,0.09l0.21,0.2l0.11,0.09l0.09,0.12l0.18,0.22l0.07,0.14l0.07,0.12l0.18,0.42l0.03,0.13l0.04,0.13
		l0.06,0.27l0.01,0.15l0.03,0.15v0.15l0.01,0.15v5.25h-1.39V18.1l-0.03-0.33l-0.03-0.16l-0.04-0.15l-0.09-0.27l-0.06-0.13
		l-0.13-0.24l-0.09-0.12l-0.07-0.1l-0.1-0.11l-0.12-0.1l-0.24-0.15l-0.13-0.07l-0.13-0.06l-0.15-0.04l-0.15-0.03l-0.17-0.03
		l-0.16-0.01h-0.34L403,15.99l-0.3,0.06l-0.27,0.09l-0.27,0.12l-0.23,0.17l-0.11,0.09l-0.19,0.21l-0.1,0.12l-0.09,0.12l-0.07,0.13
		l-0.06,0.14l-0.07,0.13l-0.06,0.13l-0.09,0.41l-0.03,0.3v4.76h-1.39V14.86z"/>
	<path fill="#FFFFFF" d="M415.83,14.86h1.39v6.8l-0.02,0.18v0.18l-0.03,0.16l-0.01,0.17l-0.09,0.46l-0.09,0.3l-0.05,0.14l-0.06,0.13
		l-0.04,0.14l-0.07,0.12l-0.06,0.14l-0.32,0.45l-0.11,0.09l-0.09,0.11l-0.31,0.26l-0.1,0.1l-0.24,0.15l-0.27,0.14l-0.27,0.12
		l-0.13,0.04l-0.15,0.04l-0.13,0.04l-0.14,0.04l-0.45,0.09l-0.63,0.06h-0.64l-0.75-0.07l-0.45-0.09l-0.13-0.04l-0.15-0.03
		l-0.13-0.04l-0.56-0.18l-0.4-0.18L410,24.81l-0.13-0.07l-0.12-0.08l-0.13-0.06l-0.26-0.16l0.07-0.14l0.23-0.4l0.07-0.15l0.16-0.26
		l0.07-0.14l0.12,0.09l0.26,0.15l0.27,0.15l0.26,0.12l0.27,0.12l0.13,0.04l0.15,0.07l0.13,0.03l0.14,0.04l0.15,0.03l0.43,0.09
		l0.29,0.03h0.15l0.16,0.01h0.33l0.48-0.04l0.3-0.06l0.29-0.09l0.13-0.07l0.12-0.04l0.23-0.13l0.12-0.09l0.21-0.17l0.09-0.09
		l0.18-0.21l0.08-0.12l0.07-0.12l0.06-0.12l0.06-0.13l0.09-0.29l0.04-0.15l0.03-0.15l0.03-0.17l0.02-0.16l0.01-0.18V20.7l-0.09,0.12
		l-0.1,0.1l-0.09,0.12l-0.1,0.1l-0.11,0.09l-0.09,0.11l-0.23,0.19l-0.1,0.1l-0.12,0.09l-0.37,0.23l-0.36,0.18l-0.27,0.1l-0.43,0.09
		l-0.46,0.04h-0.32l-0.55-0.06l-0.15-0.03l-0.13-0.04l-0.14-0.04l-0.13-0.04l-0.13-0.06l-0.14-0.04l-0.27-0.12l-0.36-0.23
		l-0.12-0.09l-0.12-0.08l-0.1-0.1l-0.32-0.3l-0.2-0.23l-0.07-0.12l-0.09-0.12l-0.15-0.26l-0.07-0.14l-0.12-0.27l-0.09-0.26
		l-0.03-0.14l-0.04-0.13l-0.03-0.15l-0.06-0.6v-0.36l0.06-0.6l0.03-0.15l0.04-0.14l0.03-0.15l0.23-0.54l0.3-0.51l0.18-0.23
		l0.19-0.21l0.31-0.3l0.12-0.07l0.23-0.17l0.24-0.15l0.14-0.06l0.13-0.07l0.14-0.06l0.26-0.09l0.14-0.03l0.13-0.04l0.15-0.03
		l0.27-0.03l0.15-0.01l0.13-0.02h0.32l0.16,0.02l0.31,0.03l0.15,0.03l0.13,0.03l0.15,0.03l0.27,0.09l0.12,0.04l0.25,0.13l0.62,0.44
		l0.24,0.2l0.21,0.21l0.09,0.13l0.11,0.1l0.09,0.12V14.86z M412.93,21.11h0.29l0.3-0.03l0.3-0.06l0.15-0.04l0.15-0.07l0.15-0.04
		l0.13-0.06l0.14-0.07l0.36-0.24l0.23-0.2l0.19-0.22l0.07-0.11l0.09-0.12l0.15-0.27l0.06-0.13l0.05-0.15l0.04-0.15l0.06-0.3
		l0.01-0.15v-0.36l-0.01-0.16l-0.06-0.3l-0.04-0.15l-0.05-0.15l-0.06-0.14l-0.15-0.27l-0.09-0.12l-0.26-0.33l-0.11-0.1l-0.12-0.1
		l-0.5-0.31l-0.13-0.06l-0.15-0.06l-0.3-0.09l-0.15-0.03l-0.15-0.04l-0.3-0.03h-0.29l-0.3,0.03l-0.15,0.04l-0.15,0.03l-0.27,0.09
		l-0.15,0.06l-0.26,0.12l-0.23,0.15l-0.11,0.09l-0.2,0.2l-0.1,0.1l-0.16,0.23l-0.15,0.26l-0.12,0.27l-0.04,0.15l-0.09,0.45
		l-0.02,0.16v0.36l0.02,0.17l0.09,0.45l0.04,0.14l0.12,0.27l0.23,0.37l0.09,0.1l0.11,0.1l0.1,0.11l0.33,0.27l0.12,0.07l0.12,0.06
		l0.13,0.07l0.14,0.04l0.13,0.07l0.15,0.04l0.13,0.03l0.15,0.03L412.93,21.11z"/>
</g>
<g>
	<path fill="#FFFFFF" d="M233.97,28.05h4.9l0.18,0.01h0.15l0.33,0.03l0.15,0.03l0.15,0.01l0.15,0.03l0.14,0.05l0.15,0.03l0.27,0.09
		l0.3,0.12l0.13,0.08l0.15,0.07l0.26,0.16l0.12,0.08l0.23,0.19l0.3,0.32l0.26,0.36l0.07,0.14l0.18,0.42l0.05,0.14l0.09,0.46
		l0.03,0.32v0.36l-0.01,0.17l-0.01,0.15l-0.01,0.17l-0.03,0.15l-0.14,0.43l-0.06,0.15l-0.07,0.15l-0.07,0.13l-0.09,0.13l-0.09,0.14
		L242,33.43l-0.11,0.12l-0.42,0.37l-0.24,0.15l-0.12,0.08l-0.26,0.13l-0.13,0.06l-0.14,0.04l-0.15,0.07l-0.15,0.04l-0.13,0.04
		L240,34.59l-0.15,0.03l0.18,0.24l0.27,0.36l0.09,0.12l0.09,0.14l0.36,0.48l0.63,0.84l0.07,0.13l0.36,0.48l0.27,0.36l0.63,0.85
		l0.27,0.36h-1.74l-0.45-0.6l-0.07-0.12l-0.09-0.12l-0.1-0.12l-0.09-0.14l-0.63-0.83l-0.07-0.12l-0.36-0.47l-0.37-0.48l-0.52-0.73
		l-0.27-0.36h-2.91v4.09h-1.44V28.05z M235.41,33.57h3.35l0.47-0.04l0.15-0.04l0.15-0.03l0.15-0.04l0.45-0.18l0.26-0.15l0.12-0.09
		l0.31-0.3l0.15-0.24l0.08-0.12l0.06-0.14l0.04-0.13l0.04-0.15l0.03-0.15l0.01-0.15v-0.36l-0.01-0.15l-0.03-0.15l-0.03-0.13
		l-0.09-0.27l-0.07-0.12l-0.07-0.12l-0.18-0.21l-0.11-0.11l-0.1-0.09l-0.31-0.21l-0.12-0.06l-0.14-0.04l-0.12-0.04l-0.14-0.04
		l-0.3-0.06l-0.15-0.04l-0.5-0.04h-3.37V33.57z"/>
	<path fill="#FFFFFF" d="M248.8,39.16h-0.33l-0.15-0.02l-0.15-0.02l-0.3-0.03l-0.13-0.03l-0.15-0.03l-0.41-0.13l-0.29-0.12
		l-0.15-0.06l-0.27-0.15l-0.39-0.27l-0.12-0.1l-0.22-0.21l-0.11-0.09l-0.18-0.23l-0.1-0.11l-0.07-0.12l-0.09-0.12l-0.15-0.26
		l-0.23-0.54l-0.1-0.27l-0.03-0.13l-0.04-0.14l-0.03-0.15l-0.01-0.13l-0.03-0.15l-0.01-0.15v-0.15l-0.01-0.16v-0.33l0.01-0.17v-0.15
		l0.03-0.15l0.01-0.15l0.09-0.45l0.04-0.15l0.11-0.29l0.04-0.14l0.12-0.27l0.08-0.12l0.06-0.13l0.07-0.12l0.09-0.12l0.07-0.12
		l0.18-0.21l0.09-0.12l0.23-0.21l0.1-0.11l0.38-0.29l0.25-0.16l0.14-0.06l0.27-0.14l0.4-0.13l0.43-0.09l0.3-0.03l0.15-0.02h0.31
		l0.16,0.02l0.32,0.03l0.44,0.09l0.29,0.09l0.27,0.12l0.13,0.07l0.15,0.07l0.5,0.34l0.1,0.1l0.12,0.11l0.29,0.34l0.09,0.12
		l0.16,0.26l0.08,0.14l0.21,0.43l0.11,0.3l0.09,0.3l0.09,0.45l0.01,0.15l0.03,0.15l0.02,0.15v0.16l0.01,0.15v0.37l-0.04,0.23h-6.28
		l0.01,0.15l0.03,0.15l0.04,0.13l0.03,0.13l0.09,0.27l0.04,0.12l0.29,0.49l0.27,0.33l0.1,0.1l0.12,0.1l0.26,0.18l0.29,0.15l0.27,0.1
		l0.14,0.03l0.13,0.04l0.15,0.03l0.26,0.03h0.32l0.45-0.04l0.13-0.03l0.14-0.04l0.13-0.04l0.12-0.03l0.37-0.18l0.12-0.08l0.14-0.07
		l0.23-0.18l0.34-0.3l0.11-0.11l0.21,0.2l0.23,0.18l0.11,0.11l0.1,0.09l0.1,0.1l0.11,0.09l-0.32,0.33l-0.11,0.1l-0.12,0.09
		l-0.47,0.37l-0.13,0.07l-0.12,0.07l-0.14,0.06l-0.12,0.07l-0.14,0.05l-0.13,0.06L249.91,39l-0.45,0.09l-0.17,0.01l-0.17,0.04h-0.16
		L248.8,39.16z M248.59,31.86h-0.31l-0.17,0.01l-0.16,0.03l-0.15,0.05L247.65,32l-0.14,0.06l-0.29,0.15l-0.12,0.08l-0.12,0.1
		l-0.12,0.09l-0.31,0.34l-0.18,0.27l-0.15,0.3l-0.06,0.15l-0.04,0.13l-0.04,0.15l-0.04,0.13l-0.04,0.15l-0.03,0.17l-0.01,0.15h4.91
		l-0.03-0.3l-0.06-0.28l-0.04-0.14l-0.04-0.13l-0.04-0.14l-0.07-0.15l-0.06-0.15L250.44,33l-0.27-0.39l-0.12-0.11l-0.1-0.1
		l-0.12-0.1l-0.26-0.17l-0.14-0.07l-0.39-0.14l-0.15-0.03L248.59,31.86z"/>
	<path fill="#FFFFFF" d="M257.28,39.12h-0.29l-0.14-0.01h-0.15l-0.15-0.01l-0.15-0.03l-0.14-0.01l-0.3-0.06l-0.15-0.04l-0.15-0.03
		l-0.15-0.04l-0.15-0.07l-0.15-0.04l-0.15-0.06l-0.13-0.06l-0.15-0.06l-0.4-0.21l-0.13-0.09l-0.5-0.34l0.18-0.26l0.07-0.12
		l0.18-0.23l0.16-0.26l0.09-0.12l0.14,0.09l0.13,0.1l0.14,0.07l0.13,0.09l0.28,0.15l0.13,0.07l0.27,0.12l0.15,0.04l0.15,0.06
		l0.47,0.14l0.15,0.03l0.47,0.04h0.31l0.16-0.01l0.3-0.06l0.14-0.05l0.23-0.12l0.12-0.07l0.1-0.1l0.18-0.22l0.06-0.12l0.04-0.12
		l0.01-0.13l0.01-0.15v-0.03l-0.01-0.18l-0.06-0.16l-0.07-0.15l-0.3-0.26l-0.14-0.1l-0.1-0.06l-0.37-0.15l-0.14-0.07l-0.74-0.23
		l-0.14-0.04l-0.68-0.21l-0.29-0.1l-0.43-0.21l-0.5-0.34l-0.19-0.21l-0.18-0.24l-0.06-0.1l-0.06-0.12l-0.04-0.14l-0.06-0.27
		l-0.02-0.15v-0.34l0.02-0.15l0.06-0.29l0.03-0.13l0.05-0.14l0.06-0.13l0.08-0.13l0.19-0.27l0.11-0.12l0.12-0.12l0.23-0.2l0.25-0.15
		l0.28-0.14l0.13-0.06l0.15-0.04l0.12-0.04l0.27-0.06l0.29-0.03l0.13-0.01l0.15-0.01h0.3l0.15,0.01h0.15l0.15,0.03l0.17,0.01
		l0.3,0.06l0.15,0.04l0.17,0.03l0.15,0.04l0.3,0.13l0.15,0.04l0.15,0.07l0.15,0.06l0.13,0.06l0.27,0.16l0.13,0.09l0.12,0.07
		l-0.07,0.14l-0.08,0.12l-0.39,0.65l-0.07,0.14l-0.26-0.15l-0.13-0.07l-0.12-0.06l-0.13-0.07l-0.14-0.07l-0.13-0.04l-0.13-0.06
		l-0.59-0.18l-0.15-0.04l-0.3-0.03l-0.13-0.01h-0.33l-0.18,0.03l-0.16,0.03l-0.29,0.09l-0.14,0.07l-0.1,0.07l-0.12,0.11l-0.11,0.12
		l-0.07,0.12l-0.04,0.14l-0.03,0.13l-0.01,0.15v0.03l0.01,0.16l0.05,0.17l0.08,0.13l0.08,0.1l0.21,0.18l0.23,0.14l0.11,0.06
		l0.14,0.04l0.13,0.04l0.44,0.14l0.15,0.05l0.44,0.14l0.13,0.04l0.13,0.04l0.12,0.05l0.13,0.04l0.14,0.06l0.13,0.04l0.15,0.06
		l0.42,0.21l0.13,0.09l0.14,0.07l0.1,0.11l0.12,0.09l0.11,0.1l0.27,0.34l0.12,0.28l0.04,0.15l0.03,0.15l0.03,0.17v0.37l-0.01,0.17
		L260,37.3l-0.09,0.28l-0.06,0.13l-0.23,0.37l-0.09,0.11l-0.2,0.2l-0.1,0.09l-0.12,0.09l-0.39,0.22l-0.13,0.07L258.15,39l-0.13,0.03
		l-0.15,0.03l-0.13,0.01l-0.15,0.03h-0.15L257.28,39.12z"/>
	<path fill="#FFFFFF" d="M266.1,39.16h-0.33l-0.15-0.02l-0.15-0.02l-0.3-0.03l-0.13-0.03l-0.15-0.03l-0.41-0.13l-0.29-0.12
		l-0.15-0.06l-0.27-0.15l-0.39-0.27l-0.12-0.1l-0.22-0.21l-0.11-0.09l-0.18-0.23l-0.1-0.11l-0.07-0.12l-0.09-0.12l-0.15-0.26
		l-0.23-0.54l-0.1-0.27l-0.03-0.13l-0.04-0.14l-0.03-0.15l-0.02-0.13l-0.03-0.15l-0.01-0.15v-0.15l-0.02-0.16v-0.33l0.02-0.17v-0.15
		l0.03-0.15l0.01-0.15l0.09-0.45l0.04-0.15l0.11-0.29l0.04-0.14l0.12-0.27l0.08-0.12l0.06-0.13l0.07-0.12l0.09-0.12l0.07-0.12
		l0.18-0.21l0.09-0.12l0.23-0.21l0.1-0.11l0.38-0.29l0.25-0.16l0.14-0.06l0.27-0.14l0.4-0.13l0.43-0.09l0.3-0.03l0.15-0.02h0.31
		l0.16,0.02l0.32,0.03l0.44,0.09l0.29,0.09l0.27,0.12l0.13,0.07l0.15,0.07l0.5,0.34l0.1,0.1l0.12,0.11l0.29,0.34l0.09,0.12
		l0.16,0.26l0.08,0.14l0.21,0.43l0.11,0.3l0.09,0.3l0.09,0.45l0.01,0.15l0.03,0.15l0.02,0.15v0.16l0.01,0.15v0.37l-0.04,0.23h-6.28
		l0.01,0.15l0.03,0.15l0.04,0.13l0.03,0.13l0.09,0.27l0.04,0.12l0.29,0.49l0.27,0.33l0.1,0.1l0.12,0.1l0.26,0.18l0.29,0.15l0.27,0.1
		l0.14,0.03l0.13,0.04l0.15,0.03l0.26,0.03h0.32l0.45-0.04l0.13-0.03l0.14-0.04l0.13-0.04l0.12-0.03l0.37-0.18l0.12-0.08l0.14-0.07
		l0.23-0.18l0.34-0.3l0.11-0.11l0.21,0.2l0.23,0.18l0.11,0.11l0.1,0.09l0.1,0.1l0.11,0.09l-0.32,0.33l-0.11,0.1l-0.12,0.09
		l-0.47,0.37l-0.13,0.07l-0.12,0.07l-0.14,0.06l-0.12,0.07l-0.14,0.05l-0.13,0.06L267.22,39l-0.45,0.09l-0.17,0.01l-0.17,0.04h-0.16
		L266.1,39.16z M265.9,31.86h-0.31l-0.17,0.01l-0.16,0.03l-0.15,0.05L264.95,32l-0.14,0.06l-0.29,0.15l-0.12,0.08l-0.12,0.1
		l-0.12,0.09l-0.31,0.34l-0.18,0.27l-0.15,0.3l-0.06,0.15l-0.04,0.13l-0.04,0.15l-0.04,0.13l-0.04,0.15l-0.03,0.17l-0.02,0.15h4.91
		l-0.03-0.3l-0.06-0.28l-0.04-0.14l-0.04-0.13l-0.04-0.14l-0.07-0.15l-0.06-0.15L267.74,33l-0.27-0.39l-0.12-0.11l-0.1-0.1
		l-0.12-0.1l-0.26-0.17l-0.14-0.07l-0.39-0.14l-0.15-0.03L265.9,31.86z"/>
	<path fill="#FFFFFF" d="M278.36,38.97h-1.39V37.8l-0.37,0.43l-0.1,0.09l-0.12,0.09l-0.12,0.1l-0.12,0.09l-0.26,0.15l-0.37,0.17
		L275.23,39l-0.15,0.04l-0.3,0.06l-0.15,0.01l-0.17,0.02l-0.16,0.02H274l-0.15-0.02l-0.13-0.02l-0.29-0.03l-0.27-0.06l-0.29-0.09
		l-0.15-0.06l-0.13-0.06l-0.13-0.08l-0.14-0.07l-0.12-0.07l-0.12-0.09l-0.12-0.1l-0.21-0.21l-0.18-0.23l-0.17-0.27l-0.06-0.12
		l-0.09-0.24l-0.04-0.14l-0.03-0.15l-0.02-0.14l-0.01-0.15v-0.35l0.01-0.16l0.02-0.15l0.03-0.16l0.13-0.41l0.06-0.12l0.08-0.14
		l0.08-0.13l0.18-0.24l0.11-0.12l0.23-0.2l0.34-0.23l0.26-0.12l0.14-0.06l0.42-0.13l0.44-0.09l0.14-0.02l0.16-0.01h0.16l0.16-0.01
		h0.47l0.15,0.01h0.16l0.65,0.07l0.41,0.09l0.2,0.04l0.21,0.04l0.45,0.09v-0.44l-0.02-0.18l-0.06-0.31l-0.04-0.14l-0.06-0.14
		l-0.07-0.13l-0.07-0.12l-0.09-0.11l-0.09-0.1l-0.11-0.11l-0.1-0.09l-0.1-0.07l-0.12-0.06l-0.12-0.06l-0.14-0.06l-0.13-0.04
		l-0.15-0.04l-0.15-0.03l-0.17-0.03l-0.33-0.03h-0.34L274.37,32h-0.15l-0.29,0.03l-0.15,0.03l-0.14,0.01l-0.12,0.03l-0.13,0.03
		l-0.28,0.1l-0.29,0.1l-0.14,0.05l-0.13,0.05l-0.16,0.05l-0.13,0.05l-0.04-0.13l-0.06-0.14l-0.09-0.28l-0.06-0.14l-0.04-0.13
		l-0.06-0.15l-0.04-0.13l0.27-0.12l0.13-0.04l0.13-0.05l0.29-0.1l0.14-0.05l0.14-0.04l0.13-0.04l0.15-0.04l0.39-0.09l0.14-0.03
		l0.75-0.07h0.51l0.18,0.01h0.17l0.17,0.03l0.16,0.01l0.17,0.03l0.15,0.03l0.16,0.04l0.13,0.03l0.29,0.11l0.12,0.06l0.14,0.06
		l0.22,0.13l0.23,0.17l0.1,0.09l0.18,0.18l0.17,0.21l0.15,0.23l0.12,0.24l0.07,0.12l0.09,0.27l0.04,0.15l0.03,0.13l0.03,0.15
		l0.06,0.64V38.97z M274.29,37.96h0.29l0.46-0.04l0.27-0.06l0.57-0.22l0.13-0.07l0.12-0.07l0.12-0.09l0.32-0.29l0.07-0.1l0.15-0.25
		l0.06-0.11l0.09-0.26l0.03-0.15l0.01-0.13v-0.83l-0.12-0.04l-0.27-0.06l-0.14-0.03l-0.29-0.07l-0.29-0.06l-0.62-0.06l-0.17-0.01
		h-0.51l-0.33,0.03l-0.15,0.01l-0.3,0.06l-0.38,0.13l-0.12,0.06l-0.1,0.06l-0.09,0.06l-0.14,0.11l-0.1,0.1l-0.17,0.23l-0.06,0.11
		l-0.06,0.13l-0.06,0.29v0.17l0.01,0.18l0.03,0.16l0.04,0.15l0.06,0.13l0.08,0.13l0.21,0.23l0.34,0.23l0.12,0.06l0.13,0.05
		l0.27,0.08l0.15,0.01l0.15,0.03L274.29,37.96z"/>
	<path fill="#FFFFFF" d="M280.91,30.86h1.39v1.9l0.06-0.13l0.07-0.12l0.06-0.13l0.08-0.12l0.09-0.12l0.07-0.11l0.09-0.11l0.09-0.12
		l0.09-0.1l0.1-0.1l0.11-0.09l0.1-0.1l0.1-0.08l0.12-0.09l0.24-0.14l0.12-0.06l0.12-0.08l0.14-0.06l0.4-0.12l0.15-0.03l0.15-0.01
		l0.15-0.03h0.46v1.34h-0.26l-0.32,0.03l-0.15,0.04l-0.3,0.06l-0.15,0.04l-0.13,0.06l-0.15,0.06l-0.13,0.06l-0.48,0.36l-0.21,0.21
		l-0.18,0.22l-0.09,0.12l-0.07,0.13l-0.08,0.12l-0.29,0.69l-0.03,0.13l-0.04,0.13l-0.03,0.13l-0.01,0.14l-0.03,0.13l-0.03,0.31v0.16
		l-0.01,0.15v3.43h-1.39V30.86z"/>
	<path fill="#FFFFFF" d="M290.93,39.16h-0.33l-0.17-0.02l-0.15-0.02l-0.15-0.01l-0.46-0.09l-0.42-0.13l-0.29-0.12l-0.12-0.07
		l-0.13-0.06l-0.14-0.07l-0.36-0.26l-0.33-0.29l-0.3-0.32l-0.09-0.1l-0.1-0.12l-0.15-0.24l-0.09-0.13l-0.14-0.26l-0.18-0.4
		l-0.1-0.29L286.71,36l-0.04-0.15l-0.03-0.13l-0.06-0.62v-0.33l0.06-0.62l0.03-0.15l0.04-0.13l0.03-0.15l0.04-0.15l0.11-0.29
		l0.12-0.27l0.14-0.26l0.24-0.37l0.19-0.23l0.1-0.12l0.11-0.11l0.09-0.1l0.45-0.37l0.12-0.09l0.26-0.15l0.13-0.07l0.13-0.06
		l0.14-0.07l0.29-0.11l0.13-0.04l0.15-0.04l0.46-0.09l0.3-0.03l0.17-0.02h0.33l0.15,0.02h0.15l0.15,0.01l0.15,0.03l0.13,0.03
		l0.15,0.01l0.45,0.13l0.4,0.18l0.14,0.06l0.36,0.23l0.12,0.09l0.11,0.07l0.52,0.47l0.1,0.1l-0.11,0.1l-0.09,0.11l-0.21,0.21
		l-0.09,0.12l-0.21,0.21l-0.09,0.11l-0.1,0.1l-0.11-0.1l-0.1-0.11l-0.12-0.09l-0.11-0.1l-0.22-0.17l-0.12-0.09l-0.12-0.07l-0.12-0.1
		l-0.39-0.18l-0.13-0.04l-0.15-0.04l-0.16-0.03l-0.15-0.02l-0.16-0.01h-0.34l-0.17,0.01l-0.15,0.04L290.12,32l-0.3,0.09l-0.29,0.13
		l-0.27,0.17l-0.12,0.09l-0.33,0.31l-0.1,0.12l-0.11,0.12l-0.09,0.13l-0.07,0.14l-0.08,0.13l-0.07,0.15l-0.06,0.15l-0.09,0.27
		l-0.04,0.15l-0.01,0.13l-0.04,0.15l-0.03,0.29v0.34l0.03,0.31l0.04,0.13l0.01,0.15l0.13,0.42l0.06,0.15l0.07,0.15l0.26,0.4
		l0.09,0.12l0.22,0.23l0.12,0.1l0.12,0.11l0.12,0.09l0.27,0.17l0.15,0.06l0.13,0.06l0.26,0.09l0.29,0.06l0.15,0.02l0.15,0.01h0.31
		l0.16-0.01l0.15-0.02l0.15-0.03l0.15-0.04l0.13-0.04l0.15-0.04l0.26-0.13l0.12-0.07l0.13-0.09l0.12-0.07l0.12-0.09l0.11-0.09
		l0.12-0.09l0.1-0.1l0.12-0.11l0.1-0.1l0.1,0.1l0.44,0.42l0.33,0.32l-0.31,0.33l-0.32,0.29l-0.12,0.1l-0.12,0.07l-0.12,0.09
		l-0.12,0.08l-0.27,0.15l-0.13,0.06l-0.14,0.08l-0.15,0.04l-0.15,0.06l-0.29,0.09l-0.15,0.01l-0.13,0.03l-0.15,0.03l-0.15,0.02
		h-0.15L290.93,39.16z"/>
	<path fill="#FFFFFF" d="M296.07,27.59h1.39v4.64l0.07-0.12l0.18-0.24l0.21-0.24l0.21-0.21l0.12-0.09l0.12-0.11l0.13-0.09l0.14-0.07
		l0.13-0.08l0.15-0.07l0.15-0.06l0.17-0.04l0.43-0.09l0.15-0.01l0.17-0.02h0.33l0.15,0.02l0.3,0.03l0.42,0.09l0.12,0.04l0.14,0.04
		l0.4,0.21l0.12,0.07l0.12,0.09l0.21,0.2l0.11,0.09l0.09,0.12l0.18,0.22l0.07,0.14l0.07,0.12l0.18,0.42l0.03,0.13l0.04,0.13
		l0.06,0.27l0.01,0.15l0.03,0.15v0.15l0.01,0.15v5.25h-1.39V34.1l-0.03-0.33l-0.03-0.16l-0.04-0.15l-0.09-0.27l-0.06-0.13
		l-0.13-0.24l-0.09-0.12l-0.07-0.1l-0.1-0.11l-0.12-0.1l-0.24-0.15l-0.13-0.07l-0.13-0.06l-0.15-0.04l-0.15-0.03l-0.17-0.03
		l-0.16-0.01h-0.34l-0.15,0.01l-0.3,0.06l-0.27,0.09l-0.27,0.12l-0.23,0.17l-0.11,0.09l-0.19,0.21l-0.1,0.12l-0.09,0.12l-0.07,0.13
		l-0.06,0.14l-0.07,0.13l-0.06,0.13l-0.09,0.41l-0.03,0.3v4.76h-1.39V27.59z"/>
	<path fill="#FFFFFF" d="M313.67,39.12h-0.33l-0.17-0.01l-0.15-0.01l-0.17-0.01l-0.15-0.01l-0.15-0.03l-0.15-0.04l-0.15-0.03
		l-0.14-0.06l-0.16-0.04l-0.15-0.08l-0.15-0.06l-0.14-0.07l-0.13-0.09l-0.14-0.08l-0.36-0.3l-0.1-0.1l-0.09-0.12l-0.11-0.12
		l-0.16-0.25l-0.08-0.14l-0.12-0.27l-0.13-0.39l-0.04-0.15L310,36.19v-0.35l0.01-0.17l0.01-0.15l0.04-0.15l0.04-0.15l0.03-0.15
		l0.18-0.43l0.24-0.39l0.29-0.33l0.32-0.27l0.36-0.27l0.27-0.15l0.13-0.1l0.16-0.06l0.31-0.15l0.16-0.06l-0.22-0.27l-0.1-0.14
		l-0.1-0.13l-0.07-0.14l-0.17-0.25l-0.12-0.26l-0.06-0.14l-0.1-0.29l-0.04-0.15l-0.03-0.15l-0.03-0.29v-0.35l0.01-0.15l0.06-0.3
		l0.03-0.13l0.05-0.15l0.12-0.27l0.15-0.26l0.29-0.34l0.11-0.1l0.37-0.27l0.13-0.07l0.16-0.07l0.13-0.08l0.3-0.1l0.29-0.09
		l0.16-0.03l0.15-0.01l0.17-0.01l0.16-0.02h0.32l0.16,0.02l0.27,0.03l0.28,0.06l0.28,0.09l0.28,0.12l0.12,0.08l0.14,0.07l0.12,0.07
		l0.11,0.09l0.21,0.2l0.1,0.1l0.09,0.11l0.29,0.49l0.13,0.41l0.03,0.15l0.03,0.28v0.34l-0.03,0.3l-0.03,0.15l-0.13,0.4l-0.06,0.13
		l-0.16,0.24l-0.18,0.23l-0.2,0.2l-0.47,0.37l-0.26,0.16l-0.14,0.07l-0.14,0.08l-0.62,0.27l-0.17,0.06l0.22,0.21l0.32,0.32l0.1,0.12
		l0.22,0.21l0.32,0.32l0.09,0.11l0.22,0.21l0.11,0.11l0.11,0.1l0.11,0.12l0.43,0.42l0.11,0.1l0.22-0.35l0.08-0.12l0.15-0.26
		l0.29-0.51l0.2-0.4l0.15-0.27l0.06-0.15l0.08-0.14l0.06-0.15l0.15,0.07l0.14,0.06l0.15,0.07l0.14,0.08l0.43,0.21l0.13,0.08
		l-0.12,0.26l-0.07,0.12l-0.12,0.27l-0.07,0.12l-0.06,0.13l-0.07,0.12l-0.06,0.13l-0.08,0.12l-0.06,0.12l-0.09,0.13l-0.07,0.14
		l-0.08,0.12l-0.07,0.14l-0.09,0.12l-0.07,0.14l-0.18,0.24l-0.07,0.12l-0.1,0.12l0.32,0.32l0.11,0.1l0.09,0.11l0.21,0.21l0.1,0.11
		l0.21,0.19l0.21,0.21l0.11,0.1l0.09,0.11l0.42,0.42l-0.85,0.64l-0.12,0.09l-0.12,0.09l-0.1-0.11l-0.11-0.1l-0.19-0.21l-0.21-0.21
		l-0.1-0.11l-0.1-0.12l-0.82-0.84l-0.23,0.23l-0.36,0.31l-0.13,0.09l-0.12,0.09l-0.26,0.18l-0.26,0.15l-0.53,0.27L314.58,39
		l-0.31,0.06L313.67,39.12z M313.46,37.93h0.32l0.16-0.01l0.15-0.04l0.3-0.06l0.15-0.04l0.29-0.12l0.15-0.07l0.36-0.23l0.36-0.27
		l0.23-0.21l0.12-0.1l0.1-0.12l-0.63-0.67l-0.23-0.21l-0.1-0.12l-0.21-0.21l-0.1-0.12l-0.21-0.21l-0.1-0.12l-0.21-0.21l-0.1-0.13
		l-0.1-0.1l-0.12-0.1l-0.63-0.67l-0.16,0.07l-0.16,0.07l-0.15,0.06l-0.16,0.07l-0.12,0.08l-0.14,0.07l-0.22,0.16l-0.11,0.1
		l-0.18,0.18l-0.08,0.09l-0.18,0.27l-0.14,0.26l-0.09,0.27l-0.03,0.15l-0.01,0.14v0.35l0.06,0.3l0.04,0.15l0.07,0.14l0.06,0.15
		l0.07,0.13l0.09,0.13l0.21,0.21l0.12,0.1l0.26,0.18l0.3,0.12l0.27,0.09l0.15,0.04l0.14,0.01L313.46,37.93z M315.89,30.59v-0.3
		L315.83,30l-0.04-0.13l-0.06-0.13l-0.07-0.12l-0.17-0.21l-0.12-0.09l-0.1-0.09l-0.12-0.06l-0.27-0.11L314.59,29h-0.31l-0.17,0.03
		l-0.15,0.03l-0.15,0.05l-0.13,0.06l-0.12,0.07l-0.12,0.09l-0.12,0.1l-0.2,0.24l-0.07,0.12l-0.06,0.13l-0.04,0.14l-0.06,0.28v0.35
		l0.03,0.15l0.03,0.13l0.04,0.15l0.04,0.13l0.13,0.24l0.21,0.32l0.09,0.1l0.31,0.38l0.12,0.13l0.19-0.07l0.18-0.06l0.34-0.15
		l0.15-0.09l0.15-0.07l0.37-0.27l0.2-0.2l0.09-0.1l0.07-0.1l0.07-0.11l0.06-0.12l0.04-0.11l0.06-0.24L315.89,30.59z"/>
	<path fill="#FFFFFF" d="M326.61,38.97V28.05h4.16l0.76,0.07l0.3,0.06l0.15,0.04l0.28,0.06l0.54,0.18l0.15,0.08l0.3,0.12l0.54,0.3
		l0.14,0.09l0.47,0.36l0.33,0.31l0.49,0.57l0.24,0.37l0.07,0.14l0.07,0.12l0.07,0.14l0.06,0.15l0.08,0.14l0.04,0.13l0.06,0.13
		l0.09,0.27l0.03,0.14l0.05,0.15l0.06,0.29l0.01,0.14l0.03,0.15l0.03,0.3v0.15l0.01,0.15v0.33l-0.01,0.15v0.15l-0.03,0.3l-0.03,0.15
		l-0.01,0.15l-0.03,0.13l-0.03,0.15l-0.05,0.13L336,35.12l-0.04,0.13l-0.04,0.15l-0.06,0.13l-0.04,0.12l-0.08,0.15l-0.28,0.54
		l-0.17,0.25l-0.07,0.12l-0.28,0.34l-0.31,0.33l-0.11,0.09l-0.1,0.11l-0.1,0.09l-0.22,0.16l-0.12,0.09l-0.49,0.3l-0.13,0.07
		l-0.25,0.12l-0.15,0.06l-0.13,0.07l-0.13,0.04l-0.14,0.06l-0.13,0.04l-0.14,0.03l-0.14,0.04L332,38.8l-0.14,0.04l-0.3,0.06
		l-0.59,0.06l-0.17,0.01H326.61z M328.05,29.36v8.31h2.61l0.15-0.01h0.17l0.15-0.01l0.15-0.03l0.15-0.01l0.29-0.07l0.56-0.18
		l0.15-0.06l0.26-0.14l0.12-0.06l0.13-0.07l0.12-0.09l0.12-0.07l0.34-0.27l0.21-0.21l0.19-0.24l0.11-0.12l0.09-0.12l0.3-0.56
		l0.06-0.15l0.04-0.14l0.07-0.13l0.03-0.15l0.04-0.15l0.03-0.13l0.03-0.15l0.01-0.15l0.03-0.15v-0.16l0.02-0.15v-0.35l-0.02-0.16
		v-0.15l-0.03-0.15l-0.01-0.15l-0.06-0.3l-0.04-0.13l-0.03-0.15l-0.07-0.13l-0.04-0.15l-0.18-0.39l-0.08-0.12l-0.07-0.14l-0.07-0.12
		l-0.09-0.1l-0.08-0.12l-0.29-0.32l-0.1-0.1l-0.34-0.27l-0.12-0.07l-0.12-0.1l-0.26-0.15l-0.26-0.12l-0.15-0.08l-0.4-0.13
		l-0.15-0.03l-0.13-0.04l-0.15-0.03l-0.15-0.02l-0.15-0.03l-0.15-0.01h-0.17l-0.15-0.01H328.05z"/>
	<path fill="#FFFFFF" d="M338.74,27.9h1.57v1.34h-1.57V27.9z M338.83,30.86h1.39v8.12h-1.39V30.86z"/>
	<path fill="#FFFFFF" d="M345.9,39.12h-0.29l-0.14-0.01h-0.15l-0.15-0.01l-0.15-0.03l-0.14-0.01l-0.3-0.06l-0.15-0.04l-0.15-0.03
		l-0.15-0.04l-0.15-0.07l-0.15-0.04l-0.15-0.06l-0.13-0.06l-0.15-0.06l-0.4-0.21l-0.13-0.09l-0.5-0.34l0.18-0.26l0.07-0.12
		l0.18-0.23l0.16-0.26l0.09-0.12l0.14,0.09l0.13,0.1l0.14,0.07l0.13,0.09l0.28,0.15l0.13,0.07l0.27,0.12l0.15,0.04l0.15,0.06
		l0.47,0.14l0.15,0.03l0.47,0.04h0.31l0.16-0.01l0.3-0.06l0.14-0.05l0.23-0.12l0.12-0.07l0.1-0.1l0.18-0.22l0.06-0.12l0.04-0.12
		l0.01-0.13l0.01-0.15v-0.03l-0.01-0.18l-0.06-0.16l-0.07-0.15l-0.3-0.26l-0.14-0.1l-0.1-0.06l-0.37-0.15l-0.14-0.07l-0.74-0.23
		l-0.14-0.04l-0.68-0.21l-0.29-0.1l-0.43-0.21l-0.5-0.34l-0.19-0.21l-0.18-0.24l-0.06-0.1l-0.06-0.12l-0.04-0.14l-0.06-0.27
		l-0.02-0.15v-0.34l0.02-0.15l0.06-0.29l0.03-0.13l0.05-0.14l0.06-0.13l0.08-0.13l0.19-0.27l0.11-0.12l0.12-0.12l0.23-0.2l0.25-0.15
		l0.28-0.14l0.13-0.06l0.15-0.04l0.12-0.04l0.27-0.06l0.29-0.03l0.13-0.01l0.15-0.01h0.3l0.15,0.01h0.15l0.15,0.03l0.17,0.01
		l0.3,0.06l0.15,0.04l0.17,0.03l0.15,0.04l0.3,0.13l0.15,0.04l0.15,0.07l0.15,0.06l0.13,0.06l0.27,0.16l0.13,0.09l0.12,0.07
		l-0.07,0.14l-0.08,0.12l-0.39,0.65l-0.07,0.14l-0.26-0.15l-0.13-0.07l-0.12-0.06l-0.13-0.07l-0.14-0.07l-0.13-0.04l-0.13-0.06
		l-0.59-0.18l-0.15-0.04l-0.3-0.03l-0.13-0.01h-0.33l-0.18,0.03l-0.16,0.03l-0.29,0.09l-0.14,0.07l-0.1,0.07l-0.12,0.11l-0.11,0.12
		l-0.07,0.12l-0.04,0.14l-0.03,0.13l-0.01,0.15v0.03l0.01,0.16l0.05,0.17l0.08,0.13l0.08,0.1l0.21,0.18l0.23,0.14l0.11,0.06
		l0.14,0.04l0.13,0.04l0.44,0.14l0.15,0.05l0.44,0.14l0.13,0.04l0.13,0.04l0.12,0.05l0.13,0.04l0.14,0.06l0.13,0.04l0.15,0.06
		l0.42,0.21l0.13,0.09l0.14,0.07l0.1,0.11l0.12,0.09l0.11,0.1l0.27,0.34l0.12,0.28l0.04,0.15l0.03,0.15l0.03,0.17v0.37l-0.01,0.17
		l-0.06,0.31l-0.09,0.28l-0.06,0.13l-0.23,0.37l-0.09,0.11l-0.2,0.2l-0.1,0.09l-0.12,0.09l-0.39,0.22l-0.13,0.07L346.77,39
		l-0.13,0.03l-0.15,0.03l-0.13,0.01l-0.15,0.03h-0.15L345.9,39.12z"/>
	<path fill="#FFFFFF" d="M353.67,39.12h-0.29l-0.14-0.01h-0.15l-0.15-0.01l-0.15-0.03l-0.14-0.01l-0.3-0.06l-0.15-0.04l-0.15-0.03
		l-0.15-0.04l-0.15-0.07l-0.15-0.04l-0.15-0.06l-0.13-0.06l-0.15-0.06l-0.4-0.21l-0.13-0.09l-0.5-0.34l0.18-0.26l0.07-0.12
		l0.18-0.23l0.16-0.26l0.09-0.12l0.14,0.09l0.13,0.1l0.14,0.07l0.13,0.09l0.28,0.15l0.13,0.07l0.27,0.12l0.15,0.04l0.15,0.06
		l0.47,0.14l0.15,0.03l0.47,0.04h0.31l0.16-0.01l0.3-0.06l0.14-0.05l0.23-0.12l0.12-0.07l0.1-0.1l0.18-0.22l0.06-0.12l0.04-0.12
		l0.01-0.13l0.01-0.15v-0.03l-0.01-0.18l-0.06-0.16l-0.07-0.15l-0.3-0.26l-0.14-0.1l-0.1-0.06l-0.37-0.15l-0.14-0.07l-0.74-0.23
		l-0.14-0.04l-0.68-0.21l-0.29-0.1l-0.43-0.21l-0.5-0.34l-0.19-0.21l-0.18-0.24l-0.06-0.1l-0.06-0.12l-0.04-0.14l-0.06-0.27
		l-0.02-0.15v-0.34l0.02-0.15l0.06-0.29l0.03-0.13l0.05-0.14l0.06-0.13l0.08-0.13l0.19-0.27l0.11-0.12l0.12-0.12l0.23-0.2l0.25-0.15
		l0.28-0.14l0.13-0.06l0.15-0.04l0.12-0.04l0.27-0.06l0.29-0.03l0.13-0.01l0.15-0.01h0.3l0.15,0.01h0.15l0.15,0.03l0.17,0.01
		l0.3,0.06l0.15,0.04l0.17,0.03l0.15,0.04l0.3,0.13l0.15,0.04l0.15,0.07l0.15,0.06l0.13,0.06l0.27,0.16l0.13,0.09l0.12,0.07
		l-0.07,0.14l-0.08,0.12l-0.39,0.65l-0.07,0.14l-0.26-0.15l-0.13-0.07l-0.12-0.06l-0.13-0.07l-0.14-0.07l-0.13-0.04l-0.13-0.06
		l-0.59-0.18l-0.15-0.04l-0.3-0.03l-0.13-0.01h-0.33L353,31.93l-0.16,0.03l-0.29,0.09l-0.14,0.07l-0.1,0.07l-0.12,0.11l-0.11,0.12
		l-0.07,0.12l-0.04,0.14l-0.03,0.13l-0.01,0.15v0.03l0.01,0.16l0.05,0.17l0.08,0.13l0.08,0.1l0.21,0.18l0.23,0.14l0.11,0.06
		l0.14,0.04l0.13,0.04l0.44,0.14l0.15,0.05l0.44,0.14l0.13,0.04l0.13,0.04l0.12,0.05l0.13,0.04l0.14,0.06l0.13,0.04l0.15,0.06
		l0.42,0.21l0.13,0.09l0.14,0.07l0.1,0.11l0.12,0.09l0.11,0.1l0.27,0.34l0.12,0.28l0.04,0.15l0.03,0.15l0.03,0.17v0.37l-0.01,0.17
		l-0.06,0.31l-0.09,0.28l-0.06,0.13l-0.23,0.37l-0.09,0.11l-0.2,0.2l-0.1,0.09l-0.12,0.09l-0.39,0.22l-0.13,0.07L354.54,39
		l-0.13,0.03l-0.15,0.03l-0.13,0.01l-0.15,0.03h-0.15L353.67,39.12z"/>
	<path fill="#FFFFFF" d="M362.49,39.16h-0.33l-0.15-0.02l-0.15-0.02l-0.3-0.03l-0.13-0.03l-0.15-0.03l-0.41-0.13l-0.29-0.12
		l-0.15-0.06l-0.27-0.15l-0.39-0.27l-0.12-0.1l-0.22-0.21l-0.11-0.09l-0.18-0.23l-0.1-0.11l-0.07-0.12l-0.09-0.12l-0.15-0.26
		l-0.23-0.54l-0.1-0.27l-0.03-0.13l-0.04-0.14l-0.03-0.15l-0.02-0.13l-0.03-0.15l-0.01-0.15v-0.15l-0.02-0.16v-0.33l0.02-0.17v-0.15
		l0.03-0.15l0.01-0.15l0.09-0.45l0.04-0.15l0.11-0.29l0.04-0.14l0.12-0.27l0.08-0.12l0.06-0.13l0.07-0.12l0.09-0.12l0.07-0.12
		l0.18-0.21l0.09-0.12l0.23-0.21l0.1-0.11l0.38-0.29l0.25-0.16l0.14-0.06l0.27-0.14l0.4-0.13l0.43-0.09l0.3-0.03l0.15-0.02h0.31
		l0.16,0.02l0.32,0.03l0.44,0.09l0.29,0.09l0.27,0.12l0.13,0.07l0.15,0.07l0.5,0.34l0.1,0.1l0.12,0.11l0.29,0.34l0.09,0.12
		l0.16,0.26l0.08,0.14l0.21,0.43l0.11,0.3l0.09,0.3l0.09,0.45l0.01,0.15l0.03,0.15l0.02,0.15v0.16l0.01,0.15v0.37l-0.04,0.23h-6.28
		l0.01,0.15l0.03,0.15l0.04,0.13l0.03,0.13l0.09,0.27l0.04,0.12l0.29,0.49l0.27,0.33l0.1,0.1l0.12,0.1l0.26,0.18l0.29,0.15l0.27,0.1
		l0.14,0.03l0.13,0.04l0.15,0.03l0.26,0.03h0.32l0.45-0.04l0.13-0.03l0.14-0.04l0.13-0.04l0.12-0.03l0.37-0.18l0.12-0.08l0.14-0.07
		l0.23-0.18l0.34-0.3l0.11-0.11l0.21,0.2l0.23,0.18l0.11,0.11l0.1,0.09l0.1,0.1l0.11,0.09l-0.32,0.33l-0.11,0.1l-0.12,0.09
		l-0.47,0.37l-0.13,0.07l-0.12,0.07l-0.14,0.06l-0.12,0.07L364,38.86l-0.13,0.06L363.6,39l-0.45,0.09l-0.17,0.01l-0.17,0.04h-0.16
		L362.49,39.16z M362.28,31.86h-0.31l-0.17,0.01l-0.16,0.03l-0.15,0.05L361.34,32l-0.14,0.06l-0.29,0.15l-0.12,0.08l-0.12,0.1
		l-0.12,0.09l-0.31,0.34l-0.18,0.27l-0.15,0.3l-0.06,0.15l-0.04,0.13l-0.04,0.15l-0.04,0.13l-0.04,0.15l-0.03,0.17l-0.02,0.15h4.91
		l-0.03-0.3l-0.06-0.28l-0.04-0.14l-0.04-0.13l-0.04-0.14l-0.07-0.15l-0.06-0.15L364.13,33l-0.27-0.39l-0.12-0.11l-0.1-0.1
		l-0.12-0.1l-0.26-0.17l-0.14-0.07l-0.39-0.14l-0.15-0.03L362.28,31.86z"/>
	<path fill="#FFFFFF" d="M368.11,30.86h1.39v1.33l0.07-0.12l0.09-0.1l0.09-0.12l0.09-0.1l0.09-0.12l0.31-0.3l0.11-0.09l0.25-0.16
		l0.14-0.08l0.13-0.06l0.31-0.12l0.27-0.06l0.15-0.03l0.15-0.01l0.15-0.02h0.33l0.18,0.02l0.15,0.01l0.31,0.06l0.13,0.04l0.15,0.04
		l0.12,0.06l0.13,0.06l0.12,0.07l0.12,0.07l0.12,0.1l0.12,0.09l0.31,0.32l0.18,0.23l0.07,0.14l0.07,0.12l0.07,0.13l0.09-0.13
		l0.1-0.12l0.09-0.12l0.33-0.35l0.12-0.1l0.12-0.11l0.39-0.25l0.24-0.12l0.4-0.13l0.15-0.03l0.13-0.03l0.17-0.03l0.15-0.01
		l0.17-0.02h0.33l0.17,0.02l0.15,0.01l0.46,0.09l0.15,0.04l0.13,0.04l0.14,0.06l0.25,0.14l0.12,0.07l0.1,0.09l0.12,0.1l0.1,0.09
		l0.1,0.1l0.08,0.11l0.09,0.1l0.07,0.1l0.07,0.12l0.08,0.12l0.12,0.26l0.04,0.13l0.04,0.15l0.04,0.13l0.03,0.15l0.04,0.15l0.03,0.17
		l0.04,0.49v5.25h-1.39V34.1l-0.03-0.34l-0.06-0.31l-0.09-0.29l-0.04-0.13l-0.07-0.13l-0.22-0.34l-0.11-0.09l-0.1-0.1l-0.23-0.15
		l-0.26-0.12l-0.15-0.04l-0.13-0.03l-0.15-0.03l-0.16-0.01h-0.32l-0.13,0.01l-0.4,0.09l-0.12,0.04l-0.3,0.15l-0.25,0.19l-0.12,0.12
		l-0.18,0.2l-0.08,0.12l-0.07,0.13l-0.06,0.13l-0.04,0.14l-0.04,0.12l-0.04,0.14L375,33.73l-0.04,0.44v4.81h-1.39v-4.9l-0.03-0.33
		l-0.06-0.3l-0.14-0.42l-0.06-0.12l-0.07-0.12l-0.15-0.2l-0.1-0.11l-0.21-0.18l-0.12-0.08l-0.26-0.12l-0.13-0.04l-0.3-0.06
		l-0.15-0.01h-0.32l-0.13,0.01l-0.15,0.03l-0.13,0.03l-0.14,0.04l-0.12,0.04l-0.26,0.14l-0.23,0.16l-0.29,0.3l-0.09,0.12l-0.15,0.26
		l-0.11,0.27l-0.09,0.27l-0.03,0.13l-0.03,0.27l-0.01,0.15v4.76h-1.39V30.86z"/>
	<path fill="#FFFFFF" d="M383.09,27.9h1.57v1.34h-1.57V27.9z M383.19,30.86h1.39v8.12h-1.39V30.86z"/>
	<path fill="#FFFFFF" d="M387.39,30.86h1.39v1.37l0.07-0.12l0.18-0.24l0.21-0.24l0.21-0.21l0.12-0.09l0.12-0.11l0.13-0.09l0.14-0.07
		l0.13-0.08l0.15-0.07l0.15-0.06l0.17-0.04l0.43-0.09l0.15-0.01l0.17-0.02h0.33l0.15,0.02l0.3,0.03l0.42,0.09l0.12,0.04l0.14,0.04
		l0.4,0.21l0.12,0.07l0.12,0.09l0.21,0.2l0.11,0.09l0.09,0.12l0.18,0.22l0.07,0.14l0.07,0.12l0.18,0.42l0.03,0.13l0.04,0.13
		l0.06,0.27l0.01,0.15l0.03,0.15v0.15l0.01,0.15v5.25h-1.39V34.1l-0.03-0.33l-0.03-0.16l-0.04-0.15l-0.09-0.27l-0.06-0.13
		l-0.13-0.24l-0.09-0.12l-0.07-0.1l-0.1-0.11l-0.12-0.1l-0.24-0.15l-0.13-0.07l-0.13-0.06l-0.15-0.04l-0.15-0.03l-0.17-0.03
		l-0.16-0.01h-0.34l-0.15,0.01l-0.3,0.06l-0.27,0.09l-0.27,0.12l-0.23,0.17l-0.11,0.09l-0.19,0.21l-0.1,0.12l-0.09,0.12l-0.07,0.13
		l-0.06,0.14l-0.07,0.13l-0.06,0.13l-0.09,0.41l-0.03,0.3v4.76h-1.39V30.86z"/>
	<path fill="#FFFFFF" d="M403.77,38.97h-1.39V37.8L402,38.23l-0.1,0.09l-0.12,0.09l-0.12,0.1l-0.12,0.09l-0.26,0.15l-0.37,0.17
		L400.64,39l-0.15,0.04l-0.3,0.06l-0.15,0.01l-0.17,0.02l-0.16,0.02h-0.3l-0.15-0.02l-0.13-0.02l-0.29-0.03l-0.27-0.06l-0.29-0.09
		l-0.15-0.06l-0.13-0.06l-0.13-0.08l-0.14-0.07l-0.12-0.07l-0.12-0.09l-0.12-0.1l-0.21-0.21l-0.18-0.23l-0.17-0.27l-0.06-0.12
		l-0.09-0.24l-0.04-0.14l-0.03-0.15l-0.02-0.14l-0.01-0.15v-0.35l0.01-0.16l0.02-0.15l0.03-0.16l0.13-0.41l0.06-0.12l0.08-0.14
		l0.08-0.13l0.18-0.24l0.11-0.12l0.23-0.2l0.34-0.23l0.26-0.12l0.14-0.06l0.42-0.13l0.44-0.09l0.14-0.02l0.16-0.01h0.16l0.16-0.01
		h0.47l0.15,0.01h0.16l0.65,0.07l0.41,0.09l0.2,0.04l0.21,0.04l0.45,0.09v-0.44l-0.02-0.18l-0.06-0.31l-0.04-0.14l-0.06-0.14
		l-0.07-0.13l-0.07-0.12l-0.09-0.11l-0.09-0.1l-0.11-0.11l-0.1-0.09l-0.1-0.07l-0.12-0.06l-0.12-0.06l-0.14-0.06l-0.13-0.04
		l-0.15-0.04l-0.15-0.03l-0.17-0.03l-0.33-0.03h-0.34L399.78,32h-0.15l-0.29,0.03l-0.15,0.03l-0.14,0.01l-0.12,0.03l-0.13,0.03
		l-0.28,0.1l-0.29,0.1l-0.14,0.05l-0.13,0.05l-0.16,0.05l-0.13,0.05l-0.04-0.13l-0.06-0.14l-0.09-0.28l-0.06-0.14l-0.04-0.13
		l-0.06-0.15l-0.04-0.13l0.27-0.12l0.13-0.04l0.13-0.05l0.29-0.1l0.14-0.05l0.14-0.04l0.13-0.04l0.15-0.04l0.39-0.09l0.14-0.03
		l0.75-0.07h0.51l0.18,0.01h0.17l0.17,0.03l0.16,0.01l0.17,0.03l0.15,0.03l0.16,0.04l0.13,0.03l0.29,0.11l0.12,0.06l0.14,0.06
		l0.22,0.13l0.23,0.17l0.1,0.09l0.18,0.18l0.17,0.21l0.15,0.23l0.12,0.24l0.07,0.12l0.09,0.27l0.04,0.15l0.03,0.13l0.03,0.15
		l0.06,0.64V38.97z M399.7,37.96H400l0.46-0.04l0.27-0.06l0.57-0.22l0.13-0.07l0.12-0.07l0.12-0.09l0.32-0.29l0.07-0.1l0.15-0.25
		l0.06-0.11l0.09-0.26l0.03-0.15l0.01-0.13v-0.83l-0.12-0.04l-0.27-0.06l-0.14-0.03l-0.29-0.07l-0.29-0.06l-0.62-0.06l-0.17-0.01
		H400l-0.33,0.03l-0.15,0.01l-0.3,0.06l-0.38,0.13l-0.12,0.06l-0.1,0.06l-0.09,0.06l-0.14,0.11l-0.1,0.1l-0.17,0.23l-0.06,0.11
		L398,36.04l-0.06,0.29v0.17l0.01,0.18l0.03,0.16l0.04,0.15l0.06,0.13l0.08,0.13l0.21,0.23l0.34,0.23l0.12,0.06l0.13,0.05l0.27,0.08
		l0.15,0.01l0.15,0.03L399.7,37.96z"/>
	<path fill="#FFFFFF" d="M406.74,32.1h-1.1v-1.25h1.1v-2.37h1.39v2.37h2.46v1.25h-2.46v4.69l0.03,0.18l0.03,0.15l0.12,0.26l0.07,0.1
		l0.09,0.09l0.11,0.08l0.1,0.06l0.12,0.06l0.14,0.04l0.15,0.01l0.14,0.03h0.32l0.15-0.01l0.44-0.09l0.13-0.04l0.15-0.06l0.15-0.08
		v1.18l-0.14,0.08l-0.13,0.06l-0.27,0.09l-0.15,0.04l-0.12,0.03l-0.13,0.01l-0.14,0.03h-0.13l-0.15,0.01h-0.32l-0.31-0.03
		l-0.44-0.09L408,38.93l-0.14-0.04l-0.12-0.06l-0.24-0.15l-0.21-0.18l-0.09-0.1l-0.09-0.12l-0.07-0.12l-0.07-0.13l-0.06-0.15
		l-0.06-0.12l-0.09-0.43L406.74,37V32.1z"/>
	<path fill="#FFFFFF" d="M412.79,27.9h1.57v1.34h-1.57V27.9z M412.89,30.86h1.39v8.12h-1.39V30.86z"/>
	<path fill="#FFFFFF" d="M421.03,39.16h-0.3l-0.15-0.02h-0.15l-0.15-0.02l-0.15-0.03l-0.13-0.03l-0.15-0.01L419.7,39l-0.14-0.03
		l-0.27-0.09l-0.12-0.06l-0.15-0.07l-0.13-0.07l-0.13-0.06l-0.26-0.15l-0.24-0.18l-0.1-0.09l-0.12-0.1l-0.32-0.31l-0.18-0.21
		l-0.18-0.24l-0.15-0.26l-0.08-0.12l-0.07-0.14l-0.18-0.4l-0.1-0.29L416.75,36l-0.04-0.15l-0.03-0.13l-0.06-0.62v-0.33l0.06-0.62
		l0.03-0.15l0.04-0.13l0.03-0.15l0.04-0.15l0.3-0.69l0.08-0.12l0.07-0.13l0.45-0.59l0.32-0.31l0.12-0.09l0.1-0.1l0.37-0.26
		l0.27-0.15l0.14-0.06l0.13-0.07l0.13-0.05l0.41-0.13l0.13-0.03l0.15-0.03l0.13-0.03l0.15-0.03l0.15-0.01h0.15h0.15l0.3-0.02
		l0.15,0.04l0.15-0.02l0.15,0.01l0.42,0.09l0.13,0.03l0.4,0.13l0.14,0.05l0.13,0.07l0.14,0.06l0.27,0.15l0.24,0.17l0.12,0.07
		l0.12,0.09l0.1,0.11l0.12,0.09l0.1,0.1l0.09,0.11l0.11,0.1l0.18,0.23l0.17,0.24l0.07,0.13l0.07,0.12l0.12,0.27l0.07,0.14l0.15,0.42
		l0.03,0.15l0.04,0.15l0.03,0.15l0.06,0.62v0.34l-0.06,0.61l-0.03,0.15l-0.04,0.13l-0.03,0.15l-0.05,0.15l-0.06,0.14l-0.04,0.13
		l-0.2,0.42l-0.07,0.12l-0.07,0.13l-0.09,0.12l-0.1,0.12l-0.07,0.12l-0.4,0.42l-0.11,0.1l-0.59,0.44l-0.27,0.15l-0.27,0.12
		l-0.14,0.07l-0.4,0.13l-0.57,0.12l-0.15,0.02h-0.15L421.03,39.16z M420.75,37.9h0.3l0.16-0.02l0.14-0.02l0.3-0.06l0.27-0.09
		l0.27-0.12l0.4-0.25l0.34-0.31l0.09-0.12l0.11-0.12l0.07-0.13l0.09-0.14l0.07-0.13l0.07-0.15l0.07-0.15l0.04-0.12l0.03-0.15
		l0.04-0.14l0.03-0.13l0.04-0.44v-0.33l-0.03-0.3l-0.03-0.15l-0.03-0.13l-0.03-0.15l-0.04-0.13l-0.04-0.15l-0.12-0.25l-0.3-0.47
		l-0.17-0.21l-0.23-0.22l-0.12-0.09l-0.27-0.17l-0.14-0.08L422,32.18l-0.13-0.06l-0.27-0.09l-0.29-0.06l-0.14-0.02l-0.15-0.01h-0.3
		l-0.17,0.01l-0.43,0.08l-0.27,0.09l-0.27,0.13l-0.4,0.25l-0.12,0.09l-0.23,0.22l-0.2,0.24l-0.26,0.4l-0.12,0.3l-0.06,0.14
		l-0.03,0.13l-0.08,0.28l-0.04,0.43v0.33l0.03,0.29l0.07,0.28l0.03,0.15l0.04,0.13l0.06,0.14l0.04,0.13l0.06,0.12l0.3,0.47l0.3,0.31
		l0.12,0.12l0.12,0.09l0.4,0.25l0.27,0.13l0.27,0.09l0.15,0.03l0.13,0.03l0.15,0.02L420.75,37.9z"/>
	<path fill="#FFFFFF" d="M427.34,30.86h1.39v1.37l0.07-0.12l0.18-0.24l0.21-0.24l0.21-0.21l0.12-0.09l0.12-0.11l0.13-0.09l0.14-0.07
		l0.13-0.08l0.15-0.07l0.15-0.06l0.17-0.04l0.43-0.09l0.15-0.01l0.17-0.02h0.33l0.15,0.02l0.3,0.03l0.42,0.09l0.12,0.04l0.14,0.04
		l0.4,0.21l0.12,0.07l0.12,0.09l0.21,0.2l0.11,0.09l0.09,0.12l0.18,0.22l0.07,0.14l0.07,0.12l0.18,0.42l0.03,0.13l0.04,0.13
		l0.06,0.27l0.01,0.15l0.03,0.15v0.15l0.01,0.15v5.25h-1.39V34.1l-0.03-0.33l-0.03-0.16l-0.04-0.15l-0.09-0.27l-0.06-0.13
		l-0.13-0.24l-0.09-0.12l-0.07-0.1l-0.1-0.11l-0.12-0.1l-0.24-0.15l-0.13-0.07l-0.13-0.06l-0.15-0.04l-0.15-0.03l-0.17-0.03
		l-0.16-0.01h-0.34l-0.15,0.01l-0.3,0.06l-0.27,0.09l-0.27,0.12l-0.23,0.17l-0.11,0.09l-0.19,0.21l-0.1,0.12l-0.09,0.12l-0.07,0.13
		l-0.06,0.14l-0.07,0.13l-0.06,0.13l-0.09,0.41l-0.03,0.3v4.76h-1.39V30.86z"/>
</g>
<g>
	<path fill="#FFFFFF" d="M239.23,55.16h-0.48l-0.17-0.02h-0.15l-0.15-0.02l-0.15-0.01l-0.15-0.03l-0.15-0.01l-0.15-0.03L237.56,55
		l-0.15-0.04l-0.13-0.04l-0.15-0.04l-0.27-0.09l-0.55-0.25l-0.27-0.15l-0.12-0.09l-0.49-0.34l-0.1-0.11l-0.23-0.19l-0.31-0.33
		l-0.43-0.62l-0.14-0.26l-0.07-0.14l-0.08-0.13l-0.27-0.7l-0.13-0.43l-0.11-0.58l-0.04-0.45l-0.02-0.15v-0.64l0.02-0.15l0.04-0.45
		l0.11-0.59l0.13-0.42l0.27-0.7l0.29-0.54l0.34-0.48l0.19-0.24l0.31-0.32l0.12-0.1l0.12-0.09l0.1-0.11l0.37-0.26l0.14-0.09
		l0.27-0.15l0.13-0.08l0.14-0.07l0.15-0.06l0.13-0.06l0.14-0.04l0.15-0.07l0.29-0.09l0.74-0.15l0.31-0.03h0.16l0.15-0.02h0.49
		l0.15,0.02l0.31,0.03l0.13,0.02l0.15,0.01l0.13,0.03l0.15,0.01l0.15,0.04l0.13,0.03l0.7,0.23l0.13,0.06l0.15,0.06l0.53,0.3
		l0.14,0.09l0.36,0.27l0.12,0.11l0.12,0.09l0.23,0.21l0.12,0.1l-0.42,0.47l-0.53,0.58l-0.24-0.2l-0.1-0.11l-0.5-0.36l-0.26-0.16
		l-0.12-0.08l-0.13-0.06l-0.12-0.07l-0.26-0.12l-0.13-0.05l-0.27-0.09l-0.27-0.06l-0.15-0.03l-0.15-0.01l-0.15-0.03h-0.17
		l-0.15-0.02h-0.31l-0.47,0.04l-0.3,0.06l-0.13,0.03l-0.15,0.04l-0.27,0.09l-0.26,0.12l-0.12,0.07l-0.13,0.06l-0.12,0.08l-0.12,0.09
		l-0.12,0.07l-0.42,0.37l-0.3,0.33l-0.33,0.47l-0.07,0.13l-0.06,0.14l-0.07,0.13l-0.07,0.14l-0.04,0.13l-0.06,0.15l-0.09,0.28
		l-0.04,0.15l-0.03,0.15l-0.04,0.15l-0.01,0.15L234.94,49l-0.01,0.15l-0.01,0.17v0.34l0.01,0.15v0.15l0.01,0.13l0.03,0.15l0.01,0.13
		l0.04,0.14l0.03,0.15l0.04,0.14l0.03,0.13l0.04,0.14l0.06,0.12l0.04,0.15l0.07,0.14l0.07,0.13l0.06,0.14l0.15,0.25l0.18,0.24
		l0.07,0.11l0.3,0.33l0.31,0.29l0.23,0.17l0.24,0.15l0.66,0.31l0.13,0.04l0.15,0.04l0.43,0.09l0.3,0.03l0.17,0.01h0.3l0.15-0.01
		h0.15l0.15-0.01l0.14-0.03l0.13-0.01l0.13-0.03l0.15-0.04l0.15-0.03l0.3-0.11l0.27-0.12l0.14-0.07l0.13-0.06l0.13-0.09l0.38-0.25
		l0.1-0.09l0.33-0.26l0.1-0.1l0.11-0.09l0.1-0.11l0.31,0.31l0.1,0.11l0.11,0.09l0.42,0.42l-0.1,0.11l-0.12,0.1l-0.21,0.21
		l-0.12,0.09l-0.1,0.1l-0.47,0.37l-0.49,0.3l-0.12,0.06l-0.14,0.06l-0.13,0.07l-0.14,0.04l-0.13,0.06l-0.29,0.1l-0.3,0.09l-0.3,0.06
		L240,55.08l-0.45,0.04l-0.16,0.02L239.23,55.16z"/>
	<path fill="#FFFFFF" d="M249.08,55.16h-0.33l-0.15-0.02l-0.15-0.02l-0.3-0.03l-0.13-0.03l-0.15-0.03l-0.41-0.13l-0.29-0.12
		l-0.15-0.06l-0.27-0.15l-0.39-0.27l-0.12-0.1l-0.22-0.21l-0.11-0.09l-0.18-0.23l-0.1-0.11l-0.07-0.12l-0.09-0.12l-0.15-0.26
		l-0.23-0.54l-0.1-0.27l-0.03-0.13l-0.04-0.14l-0.03-0.15l-0.01-0.13l-0.03-0.15l-0.01-0.15v-0.15l-0.01-0.16v-0.33l0.01-0.17v-0.15
		l0.03-0.15l0.01-0.15l0.09-0.46l0.04-0.15l0.11-0.29l0.04-0.14l0.12-0.27l0.08-0.12l0.06-0.13l0.07-0.12l0.09-0.12l0.07-0.12
		l0.18-0.21l0.09-0.12l0.23-0.21l0.1-0.11l0.38-0.29l0.25-0.16l0.14-0.06l0.27-0.14l0.4-0.13l0.43-0.09l0.3-0.03l0.15-0.02h0.31
		l0.16,0.02l0.31,0.03l0.44,0.09l0.29,0.09l0.27,0.12l0.13,0.07l0.15,0.07l0.5,0.34l0.1,0.1l0.12,0.11l0.29,0.34l0.09,0.12
		l0.16,0.26l0.08,0.14l0.21,0.43l0.11,0.3l0.09,0.3l0.09,0.45l0.01,0.15l0.03,0.15l0.02,0.15v0.16l0.01,0.15v0.37l-0.04,0.23h-6.28
		l0.01,0.15l0.03,0.15l0.04,0.13l0.03,0.13l0.09,0.27l0.04,0.12l0.29,0.49l0.27,0.33l0.1,0.1l0.12,0.1l0.26,0.18l0.29,0.15l0.27,0.1
		l0.14,0.03l0.13,0.04l0.15,0.03l0.26,0.03h0.32l0.45-0.04l0.13-0.03l0.14-0.04l0.13-0.04l0.12-0.03l0.37-0.18l0.12-0.08l0.14-0.07
		l0.23-0.18l0.34-0.3l0.11-0.11l0.21,0.2l0.23,0.18l0.11,0.11l0.1,0.09l0.1,0.1l0.11,0.09l-0.31,0.33l-0.11,0.1l-0.12,0.09
		l-0.47,0.37l-0.13,0.07l-0.12,0.07l-0.14,0.06l-0.12,0.07l-0.14,0.05l-0.13,0.06L250.2,55l-0.45,0.09l-0.17,0.01l-0.17,0.04h-0.16
		L249.08,55.16z M248.88,47.86h-0.31l-0.17,0.01l-0.16,0.03l-0.15,0.05L247.93,48l-0.14,0.06l-0.29,0.15l-0.12,0.08l-0.12,0.1
		l-0.12,0.09l-0.31,0.34l-0.18,0.27l-0.15,0.3l-0.06,0.15l-0.04,0.13l-0.04,0.15l-0.04,0.13l-0.04,0.15l-0.03,0.17l-0.01,0.15h4.91
		l-0.03-0.3l-0.06-0.28l-0.04-0.14l-0.04-0.13l-0.04-0.14l-0.07-0.15l-0.06-0.15L250.72,49l-0.27-0.39l-0.12-0.11l-0.1-0.1
		l-0.12-0.1l-0.26-0.17l-0.14-0.07l-0.39-0.14l-0.15-0.03L248.88,47.86z"/>
	<path fill="#FFFFFF" d="M254.71,46.86h1.39v1.37l0.07-0.12l0.18-0.24l0.21-0.24l0.21-0.21l0.12-0.09l0.12-0.11l0.13-0.09l0.14-0.07
		l0.13-0.08l0.15-0.07l0.15-0.06l0.17-0.04l0.43-0.09l0.15-0.01l0.17-0.02h0.33l0.15,0.02l0.3,0.03l0.42,0.09l0.12,0.04l0.14,0.04
		l0.4,0.21l0.12,0.07l0.12,0.09l0.21,0.2l0.11,0.09l0.09,0.12l0.18,0.22l0.07,0.14l0.07,0.12l0.18,0.42l0.03,0.13l0.04,0.13
		l0.06,0.27l0.01,0.15l0.03,0.15v0.15l0.01,0.15v5.25h-1.39V50.1l-0.03-0.33l-0.03-0.16l-0.04-0.15l-0.09-0.27l-0.06-0.13
		l-0.13-0.24l-0.09-0.12l-0.07-0.1l-0.1-0.11l-0.12-0.1l-0.24-0.15l-0.13-0.07l-0.13-0.06l-0.15-0.04l-0.15-0.03l-0.17-0.03
		l-0.16-0.01h-0.34l-0.15,0.01l-0.3,0.06l-0.27,0.09l-0.27,0.12l-0.23,0.17l-0.11,0.09l-0.19,0.21l-0.1,0.12l-0.09,0.12l-0.07,0.13
		l-0.06,0.14l-0.07,0.13l-0.06,0.13l-0.09,0.41l-0.03,0.3v4.76h-1.39V46.86z"/>
	<path fill="#FFFFFF" d="M264.88,48.1h-1.1v-1.25h1.1v-2.37h1.39v2.37h2.46v1.25h-2.46v4.69l0.03,0.18l0.03,0.15l0.12,0.26l0.07,0.1
		l0.09,0.09l0.11,0.08l0.1,0.06l0.12,0.06l0.14,0.04l0.15,0.01l0.14,0.03h0.32l0.15-0.01l0.44-0.09l0.13-0.04l0.15-0.06l0.15-0.08
		v1.18l-0.14,0.08l-0.13,0.06l-0.27,0.09l-0.15,0.04l-0.12,0.03l-0.13,0.01l-0.14,0.03h-0.13l-0.15,0.01h-0.32l-0.31-0.03
		l-0.44-0.09l-0.13-0.06L266,54.89l-0.12-0.06l-0.24-0.15l-0.21-0.18l-0.09-0.1l-0.09-0.12l-0.07-0.12l-0.07-0.13l-0.06-0.15
		L265,53.76l-0.09-0.43L264.88,53V48.1z"/>
	<path fill="#FFFFFF" d="M274.46,55.16h-0.33l-0.15-0.02l-0.15-0.02l-0.3-0.03l-0.13-0.03l-0.15-0.03l-0.41-0.13l-0.29-0.12
		l-0.15-0.06l-0.27-0.15l-0.39-0.27l-0.12-0.1l-0.22-0.21l-0.11-0.09l-0.18-0.23l-0.1-0.11l-0.07-0.12l-0.09-0.12l-0.15-0.26
		l-0.23-0.54l-0.1-0.27l-0.03-0.13l-0.04-0.14l-0.03-0.15l-0.02-0.13l-0.03-0.15l-0.01-0.15v-0.15l-0.02-0.16v-0.33l0.02-0.17v-0.15
		l0.03-0.15l0.01-0.15l0.09-0.46l0.04-0.15l0.11-0.29l0.04-0.14l0.12-0.27l0.08-0.12l0.06-0.13l0.07-0.12l0.09-0.12l0.07-0.12
		l0.18-0.21l0.09-0.12l0.23-0.21l0.1-0.11l0.38-0.29l0.25-0.16l0.14-0.06l0.27-0.14l0.4-0.13l0.43-0.09l0.3-0.03l0.15-0.02h0.31
		l0.16,0.02l0.32,0.03l0.44,0.09l0.29,0.09l0.27,0.12l0.13,0.07l0.15,0.07l0.5,0.34l0.1,0.1l0.12,0.11l0.29,0.34l0.09,0.12
		l0.16,0.26l0.08,0.14l0.21,0.43l0.11,0.3l0.09,0.3l0.09,0.45l0.01,0.15l0.03,0.15l0.02,0.15v0.16l0.01,0.15v0.37l-0.04,0.23h-6.28
		l0.01,0.15l0.03,0.15l0.04,0.13l0.03,0.13l0.09,0.27l0.04,0.12l0.29,0.49l0.27,0.33l0.1,0.1l0.12,0.1l0.26,0.18l0.29,0.15l0.27,0.1
		l0.14,0.03l0.13,0.04l0.15,0.03l0.26,0.03h0.32l0.45-0.04l0.13-0.03l0.14-0.04l0.13-0.04l0.12-0.03l0.37-0.18l0.12-0.08l0.14-0.07
		l0.23-0.18l0.34-0.3l0.11-0.11l0.21,0.2l0.23,0.18l0.11,0.11l0.1,0.09l0.1,0.1l0.11,0.09l-0.32,0.33l-0.11,0.1l-0.12,0.09
		l-0.47,0.37l-0.13,0.07l-0.12,0.07l-0.14,0.06l-0.12,0.07l-0.14,0.05l-0.13,0.06L275.57,55l-0.45,0.09l-0.17,0.01l-0.17,0.04h-0.16
		L274.46,55.16z M274.25,47.86h-0.31l-0.17,0.01l-0.16,0.03l-0.15,0.05L273.3,48l-0.14,0.06l-0.29,0.15l-0.12,0.08l-0.12,0.1
		l-0.12,0.09l-0.31,0.34l-0.18,0.27l-0.15,0.3l-0.06,0.15l-0.04,0.13l-0.04,0.15l-0.04,0.13l-0.04,0.15l-0.03,0.17l-0.02,0.15h4.91
		l-0.03-0.3l-0.06-0.28l-0.04-0.14l-0.04-0.13l-0.04-0.14l-0.07-0.15l-0.06-0.15L276.1,49l-0.27-0.39l-0.12-0.11l-0.1-0.1l-0.12-0.1
		l-0.26-0.17l-0.14-0.07l-0.39-0.14l-0.15-0.03L274.25,47.86z"/>
	<path fill="#FFFFFF" d="M280.08,46.86h1.39v1.9l0.06-0.13l0.07-0.12l0.06-0.13l0.08-0.12l0.09-0.12l0.07-0.11l0.09-0.11l0.09-0.12
		l0.09-0.1l0.1-0.1l0.11-0.09l0.1-0.1l0.1-0.08l0.12-0.09l0.24-0.14l0.12-0.06l0.12-0.08l0.14-0.05l0.4-0.12l0.15-0.03l0.15-0.01
		l0.15-0.03h0.46v1.34h-0.26l-0.32,0.03l-0.15,0.04l-0.3,0.06l-0.15,0.04l-0.13,0.06l-0.15,0.06l-0.13,0.06l-0.48,0.36l-0.21,0.21
		l-0.18,0.22l-0.09,0.12l-0.07,0.13l-0.08,0.12l-0.29,0.69l-0.03,0.13l-0.04,0.13l-0.03,0.13l-0.01,0.14l-0.03,0.13l-0.03,0.31v0.16
		l-0.01,0.15v3.43h-1.39V46.86z"/>
</g>
<g>
	<path fill="#FFFFFF" d="M47.19,11.08h0.6h0.54h0.6h0.6h0.6h0.54h0.6h0.6h0.54H53h0.6h0.54h0.6h0.6h0.6h0.54h0.6l0.3,0.54l0.36,0.48
		l0.3,0.54l0.3,0.48l0.36,0.54l0.3,0.48l0.3,0.54l0.36,0.48l0.3,0.54l0.3,0.48l0.36,0.54l0.3,0.48l0.3,0.54l0.36,0.48l0.3,0.54
		l0.3,0.48l0.36,0.54l0.3,0.48l0.3,0.54l0.3,0.48l0.36,0.54l0.3,0.48l0.3,0.54l0.36,0.48l0.3,0.54l0.3,0.48l0.36,0.54l0.3,0.48
		l0.3,0.54l0.36,0.48l0.3,0.54l0.3,0.48l0.36,0.54l0.3,0.48l0.3,0.54l0.36,0.48l0.3,0.54l0.3-0.54l0.36-0.48l0.3-0.54l0.3-0.48
		l0.36-0.54l0.3-0.48l0.3-0.54l0.36-0.48l0.3-0.54l0.36-0.48l0.3-0.54l0.3-0.48l0.36-0.54l0.3-0.48l0.3-0.54l0.36-0.48l0.3-0.54
		l0.3-0.48l0.36-0.54l0.3-0.48l0.3-0.54l0.36-0.48l0.3-0.54l0.3-0.48l0.36-0.54l0.3-0.48l0.3-0.54l0.36-0.48l0.3-0.54l0.36-0.48
		l0.3-0.54l0.3-0.48l0.36-0.54l0.3-0.48l0.3-0.54l0.36-0.48l0.3-0.54h0.6h0.54h0.6h0.6h0.6h0.54h0.6h0.6h0.54h0.6h0.6h0.54h0.6h0.6
		h0.6h0.54h0.6v0.6v0.6v0.6v0.6v0.6v0.6v0.6v0.6v0.6v0.6v0.6v0.6v0.6v0.6v0.6v0.6v0.6v0.6v0.54v0.6v0.6v0.6v0.6v0.6v0.6v0.6v0.6v0.6
		v0.6v0.6v0.6v0.6v0.6v0.6v0.6v0.6v0.6v0.6v0.6v0.6v0.6v0.6v0.6v0.6v0.6v0.6v0.6v0.6v0.6v0.6v0.6v0.6v0.6v0.6v0.54v0.6v0.6v0.6v0.6
		v0.6v0.6v0.6v0.6v0.6v0.6v0.6v0.6v0.6v0.6v0.6v0.6v0.6v0.6h-0.6h-0.6h-0.66h-0.6h-0.6h-0.6h-0.6h-0.66h-0.6h-0.6h-0.6h-0.6H82.7
		h-0.6h-0.6v-0.6v-0.6v-0.6v-0.6v-0.54v-0.6v-0.6v-0.6v-0.6v-0.6v-0.6v-0.6v-0.6v-0.6v-0.54v-0.6v-0.6v-0.6v-0.6v-0.6v-0.6v-0.6
		v-0.6v-0.6v-0.54v-0.6v-0.6v-0.6v-0.6v-0.6v-0.6v-0.6v-0.6v-0.6v-0.54v-0.6v-0.6v-0.6v-0.6v-0.6v-0.6v-0.6v-0.6v-0.6v-0.54v-0.6
		v-0.6v-0.6v-0.6l-0.36,0.48l-0.3,0.54l-0.36,0.48l-0.3,0.48l-0.36,0.54l-0.3,0.48l-0.36,0.54l-0.3,0.48l-0.36,0.48l-0.3,0.54
		l-0.36,0.48l-0.3,0.48l-0.36,0.54l-0.3,0.48l-0.36,0.54l-0.3,0.48l-0.36,0.48l-0.3,0.54l-0.36,0.48l-0.36,0.48l-0.3,0.54
		l-0.36,0.48l-0.3,0.48l-0.36,0.54l-0.3,0.48l-0.36,0.54l-0.3,0.48l-0.36,0.48l-0.3,0.54l-0.36,0.48l-0.3,0.48l-0.36,0.54l-0.3,0.48
		l-0.36,0.54l-0.3,0.48l-0.36,0.48l-0.3,0.54l-0.36,0.48h-0.24l-0.3-0.48l-0.36-0.54l-0.3-0.48l-0.36-0.48l-0.3-0.48l-0.36-0.54
		l-0.3-0.48l-0.36-0.48l-0.3-0.54l-0.36-0.48l-0.3-0.48l-0.36-0.48l-0.3-0.54l-0.36-0.48l-0.3-0.48l-0.36-0.54l-0.3-0.48l-0.36-0.48
		l-0.3-0.54l-0.3-0.48l-0.36-0.48l-0.3-0.48l-0.36-0.54l-0.3-0.48l-0.36-0.48l-0.3-0.54l-0.36-0.48l-0.3-0.48l-0.36-0.48l-0.3-0.54
		l-0.36-0.48l-0.3-0.48l-0.36-0.54l-0.3-0.48l-0.36-0.48l-0.3-0.48l-0.36-0.54l-0.3-0.48v0.6v0.6v0.6v0.6v0.6v0.6v0.6v0.6v0.6v0.6
		v0.6v0.6v0.66v0.6v0.6v0.6v0.6v0.6v0.6v0.6v0.6v0.6v0.6v0.6v0.6v0.6v0.6v0.6v0.6v0.6v0.6v0.6v0.6v0.6v0.6v0.6v0.66v0.6v0.6v0.6v0.6
		v0.6v0.6v0.6v0.6v0.6v0.6v0.6h-0.6h-0.6h-0.6h-0.6h-0.6h-0.6h-0.6h-0.6h-0.6h-0.6h-0.6h-0.6h-0.6h-0.6h-0.6v-0.6v-0.6v-0.6v-0.6
		v-0.6v-0.6v-0.6v-0.6v-0.6v-0.6v-0.6v-0.6v-0.6v-0.6v-0.6v-0.6v-0.6v-0.6v-0.54v-0.6v-0.6v-0.6v-0.6v-0.6v-0.6v-0.6v-0.6v-0.6v-0.6
		v-0.6v-0.6v-0.6v-0.6v-0.6v-0.6v-0.6v-0.6v-0.6v-0.6v-0.6v-0.6v-0.6v-0.6v-0.6v-0.6v-0.6v-0.6v-0.6v-0.6v-0.6v-0.6v-0.6v-0.6v-0.6
		v-0.54v-0.6v-0.6v-0.6v-0.6v-0.6v-0.6v-0.6v-0.6v-0.6v-0.6v-0.6v-0.6v-0.6v-0.6v-0.6v-0.6v-0.6V11.08z"/>
	<path fill="#FFFFFF" d="M116.91,10.78h0.6h0.6h0.6h0.66h0.6h0.6h0.6h0.6h0.6h0.6h0.66h0.6h0.6h0.6l0.24,0.54l0.24,0.54l0.24,0.54
		l0.24,0.6l0.24,0.54l0.18,0.54l0.24,0.54l0.24,0.54l0.24,0.54l0.24,0.6l0.24,0.54l0.24,0.54l0.24,0.54l0.24,0.54l0.24,0.54
		l0.24,0.6l0.24,0.54l0.18,0.54l0.24,0.54l0.24,0.54l0.24,0.54l0.24,0.6l0.24,0.54l0.24,0.54l0.24,0.54l0.24,0.54l0.24,0.54
		l0.24,0.6l0.18,0.54l0.24,0.54l0.24,0.54l0.24,0.54l0.24,0.54l0.24,0.6l0.24,0.54l0.24,0.54l0.24,0.54l0.24,0.54l0.24,0.54
		l0.24,0.54l0.18,0.6l0.24,0.54l0.24,0.54l0.24,0.54l0.24,0.54l0.24,0.54l0.24,0.6l0.24,0.54l0.24,0.54l0.24,0.54l0.24,0.54
		l0.18,0.54l0.24,0.6l0.24,0.54l0.24,0.54l0.24,0.54l0.24,0.54l0.24,0.54l0.24,0.6l0.24,0.54l0.24,0.54l0.24,0.54l0.18,0.54
		l0.24,0.54l0.24,0.6l0.24,0.54l0.24,0.54l0.24,0.54l0.24,0.54l0.24,0.54l0.24,0.6l0.24,0.54l0.24,0.54l0.24,0.54l0.18,0.54
		l0.24,0.54l0.24,0.6l0.24,0.54l0.24,0.54l0.24,0.54h-0.6h-0.6h-0.6h-0.6h-0.6h-0.6h-0.6h-0.6h-0.66h-0.6h-0.6h-0.6h-0.6h-0.6h-0.6
		h-0.6l-0.24-0.54l-0.24-0.54l-0.18-0.6l-0.24-0.54L133.41,52l-0.24-0.54l-0.18-0.6l-0.24-0.54l-0.24-0.54l-0.24-0.54l-0.24-0.54
		l-0.18-0.6l-0.24-0.54l-0.24-0.54l-0.24-0.54l-0.18-0.6l-0.24-0.54l-0.24-0.54h-0.6h-0.6h-0.6h-0.54h-0.6h-0.6h-0.6h-0.6h-0.6
		h-0.54h-0.6h-0.6h-0.6h-0.6h-0.6h-0.54h-0.6h-0.6h-0.6h-0.6h-0.6h-0.6h-0.54h-0.6h-0.6h-0.6h-0.6h-0.6h-0.54h-0.6h-0.6h-0.6
		l-0.24,0.54l-0.24,0.54l-0.18,0.6l-0.24,0.54l-0.24,0.54l-0.24,0.54l-0.18,0.6l-0.24,0.54l-0.24,0.54l-0.24,0.54l-0.24,0.54
		l-0.18,0.6L108.63,52l-0.24,0.54l-0.24,0.54l-0.18,0.6l-0.24,0.54l-0.24,0.54h-0.6h-0.6h-0.54h-0.6h-0.6h-0.6h-0.6h-0.54h-0.6h-0.6
		h-0.6h-0.6h-0.6h-0.54h-0.6h-0.6l0.24-0.54l0.24-0.54l0.24-0.54l0.24-0.6L99.27,52l0.24-0.54l0.18-0.54l0.24-0.54l0.24-0.54
		l0.24-0.6l0.24-0.54l0.24-0.54l0.24-0.54l0.24-0.54l0.24-0.54l0.24-0.6l0.24-0.54l0.24-0.54l0.24-0.54l0.24-0.54l0.18-0.54
		l0.24-0.6l0.24-0.54l0.24-0.54l0.24-0.54l0.24-0.54l0.24-0.54l0.24-0.6l0.24-0.54l0.24-0.54l0.24-0.54l0.24-0.54l0.24-0.54
		l0.18-0.6l0.24-0.54l0.24-0.54l0.24-0.54l0.24-0.54l0.24-0.54l0.24-0.6l0.24-0.54l0.24-0.54l0.24-0.54l0.24-0.54l0.24-0.54
		l0.24-0.54l0.18-0.6l0.24-0.54l0.24-0.54l0.24-0.54l0.24-0.54l0.24-0.54l0.24-0.6l0.24-0.54l0.24-0.54l0.24-0.54l0.24-0.54
		l0.24-0.54l0.24-0.6l0.24-0.54l0.18-0.54l0.24-0.54l0.24-0.54l0.24-0.54l0.24-0.6l0.24-0.54l0.24-0.54l0.24-0.54l0.24-0.54
		l0.24-0.54l0.24-0.6l0.24-0.54l0.24-0.54l0.18-0.54l0.24-0.54l0.24-0.54l0.24-0.6l0.24-0.54l0.24-0.54L116.91,10.78z M127.17,36.58
		l-0.24-0.54l-0.24-0.54l-0.18-0.54l-0.24-0.6l-0.24-0.54l-0.24-0.54l-0.18-0.54l-0.24-0.54l-0.24-0.54l-0.24-0.54l-0.24-0.6
		l-0.18-0.54l-0.24-0.54l-0.24-0.54l-0.24-0.54l-0.18-0.54l-0.24-0.6l-0.24-0.54l-0.24-0.54l-0.24-0.54l-0.18-0.54l-0.24-0.54
		L121.95,24l-0.24-0.6l-0.18-0.54l-0.24-0.54l-0.24-0.54l-0.24,0.54l-0.24,0.54l-0.18,0.54l-0.24,0.6l-0.24,0.54l-0.24,0.54
		l-0.24,0.54l-0.24,0.54l-0.18,0.54l-0.24,0.54l-0.24,0.6l-0.24,0.54l-0.24,0.54l-0.18,0.54l-0.24,0.54l-0.24,0.54l-0.24,0.6
		l-0.24,0.54l-0.18,0.54l-0.24,0.54l-0.24,0.54l-0.24,0.54l-0.24,0.54l-0.24,0.6l-0.18,0.54l-0.24,0.54l-0.24,0.54h0.6h0.6h0.54h0.6
		h0.6h0.6h0.54h0.6h0.6h0.6h0.54h0.6h0.6h0.6h0.54h0.6h0.6h0.6h0.54h0.6H127.17z"/>
	<path fill="#FFFFFF" d="M166.53,55.36h-0.6h-0.6l-0.54-0.06l-0.6-0.06h-0.6l-0.6-0.12l-0.54-0.06l-0.6-0.06l-0.6-0.12l-0.54-0.12
		l-0.6-0.12l-0.54-0.12l-0.6-0.18l-0.54-0.12l-0.54-0.18l-0.6-0.18l-0.54-0.24l-0.54-0.18l-0.54-0.24l-0.54-0.24l-0.54-0.24
		l-0.54-0.24l-0.54-0.24l-0.54-0.3l-0.48-0.3l-0.54-0.3l-0.48-0.36l-0.54-0.3l-0.48-0.36l-0.48-0.36l-0.48-0.36l-0.48-0.42
		l-0.48-0.36l-0.48-0.42l0.42-0.48l0.36-0.48l0.42-0.42l0.36-0.48l0.42-0.48l0.36-0.48l0.42-0.48l0.36-0.42l0.42-0.48l0.36-0.48
		l0.42-0.48l0.36-0.42l0.36-0.48l0.42-0.48l0.48,0.42l0.54,0.36l0.48,0.42l0.54,0.36l0.48,0.36l0.54,0.3l0.48,0.36l0.54,0.3
		l0.54,0.3l0.48,0.24l0.54,0.3l0.54,0.24l0.54,0.24l0.54,0.18l0.54,0.18l0.6,0.18l0.54,0.18l0.6,0.12l0.6,0.12l0.6,0.06l0.6,0.06
		l0.6,0.06l0.6,0.06h0.66h0.72l0.72-0.06l0.66-0.12l0.66-0.12l0.54-0.18l0.54-0.18l0.54-0.24l0.48-0.3l0.54-0.42l0.42-0.48
		l0.36-0.54l0.24-0.54l0.12-0.6l0.06-0.66V42.7l-0.06-0.6l-0.12-0.6l-0.18-0.54l-0.3-0.48L172.17,40l-0.54-0.48l-0.48-0.24
		l-0.48-0.24l-0.54-0.3l-0.6-0.24l-0.66-0.24l-0.48-0.18l-0.48-0.12l-0.54-0.18l-0.54-0.18l-0.6-0.12l-0.6-0.18l-0.66-0.18
		l-0.66-0.18l-0.66-0.18l-0.66-0.18l-0.66-0.18l-0.6-0.18l-0.6-0.18l-0.6-0.18l-0.6-0.18l-0.54-0.18l-0.54-0.18l-0.54-0.18
		l-0.6-0.24l-0.6-0.24l-0.54-0.24l-0.48-0.24l-0.54-0.3l-0.48-0.24l-0.48-0.3l-0.42-0.36l-0.42-0.3l-0.48-0.36l-0.42-0.42
		l-0.42-0.42L152.07,31l-0.36-0.48l-0.36-0.48l-0.3-0.48l-0.24-0.54l-0.24-0.48L150.39,28l-0.12-0.54l-0.18-0.6l-0.12-0.6l-0.06-0.6
		L149.85,25l-0.06-0.66v-0.72V23.5v-0.66l0.06-0.6l0.06-0.66l0.12-0.6l0.12-0.6l0.12-0.54l0.18-0.6l0.24-0.54l0.24-0.54l0.24-0.54
		l0.3-0.48l0.3-0.48l0.36-0.48l0.36-0.48l0.36-0.42l0.36-0.42l0.42-0.42l0.48-0.42l0.42-0.36l0.48-0.36l0.48-0.3l0.54-0.3l0.54-0.3
		l0.54-0.3l0.54-0.24l0.6-0.24l0.66-0.24l0.54-0.12l0.54-0.18l0.6-0.12l0.6-0.12l0.6-0.12l0.66-0.12l0.6-0.06h0.66l0.66-0.06h0.66
		h0.66h0.6l0.6,0.06l0.66,0.06l0.6,0.06l0.6,0.06l0.6,0.06l0.54,0.12l0.6,0.06l0.6,0.12l0.54,0.18l0.54,0.12l0.6,0.18l0.54,0.12
		l0.54,0.18l0.54,0.24l0.54,0.24l0.6,0.24l0.54,0.24l0.54,0.24l0.54,0.3l0.48,0.24l0.54,0.3l0.54,0.36l0.48,0.3l0.54,0.36l0.48,0.36
		l0.48,0.36l0.48,0.36l-0.36,0.48l-0.36,0.54l-0.3,0.48l-0.36,0.48l-0.36,0.48L179.01,19l-0.3,0.48l-0.36,0.48l-0.36,0.54
		l-0.36,0.48l-0.36,0.48l-0.3,0.48l-0.36,0.54l-0.36,0.48l-0.54-0.36l-0.48-0.36l-0.54-0.36l-0.54-0.3l-0.54-0.36l-0.48-0.24
		l-0.54-0.3l-0.54-0.24l-0.48-0.3l-0.54-0.18l-0.48-0.24l-0.6-0.24l-0.6-0.18l-0.54-0.18l-0.6-0.12l-0.54-0.12l-0.6-0.12l-0.54-0.06
		l-0.6-0.06l-0.54-0.06h-0.6h-0.72l-0.66,0.06l-0.6,0.12l-0.54,0.12l-0.54,0.18l-0.48,0.18l-0.42,0.24l-0.42,0.3l-0.48,0.42
		l-0.36,0.42l-0.3,0.48l-0.18,0.48l-0.12,0.54l-0.06,0.54v0.12l0.06,0.72l0.12,0.66l0.24,0.54l0.24,0.36l0.36,0.36l0.42,0.36
		l0.48,0.36l0.48,0.24l0.48,0.3l0.6,0.24l0.66,0.24l0.72,0.24l0.48,0.18l0.54,0.18l0.54,0.18l0.54,0.12l0.6,0.18l0.66,0.18
		l0.66,0.18l0.72,0.18l0.66,0.18l0.66,0.18l0.6,0.18l0.66,0.18l0.6,0.18l0.6,0.18l0.54,0.24l0.54,0.18l0.54,0.18l0.54,0.24l0.66,0.3
		l0.6,0.24l0.54,0.36l0.6,0.3l0.48,0.3l0.54,0.36l0.48,0.36l0.48,0.36l0.42,0.42l0.36,0.42l0.42,0.42l0.36,0.42l0.3,0.48l0.3,0.48
		l0.24,0.48l0.3,0.48l0.18,0.54l0.18,0.6l0.18,0.54l0.12,0.6l0.12,0.66l0.06,0.6l0.06,0.66v0.72v0.12v0.66l-0.06,0.6l-0.06,0.6
		l-0.06,0.6l-0.12,0.6l-0.12,0.54l-0.18,0.54l-0.12,0.54l-0.24,0.54l-0.18,0.48l-0.3,0.6l-0.3,0.48l-0.3,0.54l-0.36,0.48l-0.36,0.48
		l-0.42,0.42l-0.42,0.42l-0.42,0.42l-0.42,0.36l-0.48,0.36l-0.42,0.3l-0.48,0.3l-0.48,0.3l-0.48,0.3l-0.54,0.24l-0.54,0.24
		l-0.54,0.18l-0.54,0.24l-0.6,0.18l-0.54,0.18l-0.54,0.12l-0.54,0.12l-0.6,0.12l-0.54,0.12l-0.6,0.06l-0.6,0.06l-0.6,0.06l-0.6,0.06
		h-0.66H166.53z"/>
	<path fill="#FFFFFF" d="M200.84,19.6h-0.6h-0.6h-0.66h-0.6h-0.6h-0.6h-0.6h-0.6h-0.66h-0.6h-0.6h-0.6h-0.6h-0.66h-0.6h-0.6h-0.6
		h-0.6h-0.6h-0.66H188h-0.6V19v-0.6v-0.6v-0.66v-0.6v-0.6v-0.6v-0.6v-0.6v-0.6v-0.66v-0.6v-0.6v-0.6h0.6h0.6h0.6h0.6h0.6h0.6h0.6
		h0.6h0.6h0.6h0.6h0.6h0.6h0.6h0.6h0.6h0.6h0.6h0.6h0.6h0.6h0.6h0.6h0.6h0.6h0.6h0.6h0.6h0.6h0.66h0.6h0.6h0.6h0.6h0.6h0.6h0.6h0.6
		h0.6h0.6h0.6h0.6h0.6h0.6h0.6h0.6h0.6h0.6h0.6h0.6h0.6h0.6h0.6h0.6h0.6h0.6h0.6h0.6h0.6h0.6v0.6v0.6v0.6v0.66v0.6v0.6v0.6v0.6v0.6
		v0.6v0.66v0.6V19v0.6h-0.6h-0.6h-0.6H221h-0.6h-0.6h-0.6h-0.6H218h-0.6h-0.6h-0.66h-0.6h-0.6h-0.6h-0.6h-0.6h-0.6h-0.66h-0.6h-0.6
		h-0.6v0.6v0.6v0.6V22v0.6v0.6v0.6v0.54v0.6v0.6v0.6v0.6v0.6v0.6v0.6v0.6v0.6v0.6v0.6v0.6v0.6v0.6v0.54v0.6v0.6v0.6v0.6v0.6v0.6v0.6
		v0.6v0.6v0.6v0.6v0.6v0.6v0.54v0.6v0.6v0.6v0.6v0.6v0.6v0.6v0.6v0.6v0.6v0.6v0.6v0.6v0.6v0.54v0.6v0.6v0.6v0.6v0.6v0.6v0.6h-0.6
		h-0.66h-0.6h-0.6h-0.6h-0.66h-0.6h-0.6h-0.6h-0.66h-0.6h-0.6h-0.6h-0.66h-0.6v-0.6v-0.6v-0.6v-0.6v-0.6v-0.6v-0.6v-0.54v-0.6v-0.6
		v-0.6v-0.6v-0.6v-0.6v-0.6v-0.6v-0.6v-0.6v-0.6v-0.6v-0.6v-0.6v-0.54v-0.6v-0.6v-0.6v-0.6v-0.6v-0.6v-0.6v-0.6v-0.6v-0.6v-0.6v-0.6
		v-0.6v-0.54v-0.6v-0.6v-0.6v-0.6v-0.6v-0.6v-0.6v-0.6v-0.6v-0.6v-0.6v-0.6v-0.6v-0.6V23.8v-0.6v-0.6V22v-0.6v-0.6v-0.6V19.6z"/>
</g>
<rect x="24.27" y="20.51" fill="#FFFFFF" width="8.37" height="34.25"/>
<rect x="12.14" y="28.58" fill="#FFFFFF" width="8.21" height="26.18"/>
<rect y="37.63" fill="#FFFFFF" width="7.5" height="17.12"/>
<path fill="#FFFFFF" d="M37.4,7.86c0,0-4.2,0.22-7.21,2.86c0.01-0.43,0.01-0.87-0.02-1.31c-0.42-4.99-4.27-8.73-4.27-8.73
	c-0.51,0.5-3.75,3.75-3.53,8.84c0.19,4.41,2.89,7.25,4.16,8.35c0,0.02-0.01,0.04-0.01,0.06c0.01-0.01,0.02-0.03,0.03-0.04
	c0.26,0.22,0.45,0.37,0.55,0.45c0,0-0.01,0.01-0.01,0.01c0,0,0.01,0,0.02,0c0,0,0.01,0.01,0.01,0.01c0.73-0.14-0.07,0.02,0.66-0.12
	l0,0c1.56-0.29,4.2-1.04,6.2-2.97C37,12.36,37.4,7.86,37.4,7.86 M30.86,14.06c-0.42,0.4-0.83,0.81-1.22,1.23
	c-0.29,0.32-0.56,0.65-0.83,0.98c0.25-0.55,0.49-1.16,0.7-1.83c0.31-0.29,0.62-0.58,0.95-0.84c0.95-0.73,1.98-1.35,3.08-1.81
	C32.61,12.53,31.7,13.26,30.86,14.06z"/>
</svg>
