<svg id="Layer_1" data-name="Layer 1" xmlns="http://www.w3.org/2000/svg" viewBox="0 0 244.97 52.96"><defs><style>.cls-1{fill:#f47932;}.cls-2{fill:none;stroke:#231f20;stroke-width:0.5px;}.cls-3{fill:#808285;}</style></defs><title>NCFMR</title><path class="cls-1" d="M188.3,405.44v-22h10.53c4.14,0,7.61,1.89,7.61,5.75,0,2.71-2.28,4.35-4.75,4.81v.06c2.92.4,5.29,2.25,5.29,5.39,0,6.39-8.15,6-8.37,6Zm9.65-4.26a2.38,2.38,0,1,0,.43-4.75h-4v4.75Zm-3.56-9,3.1,0c1.64,0,2.71-.64,2.71-2.31a2.26,2.26,0,0,0-2.49-2.13h-3.32Z" transform="translate(-188.3 -375.02)"/><path class="cls-1" d="M223.3,397.22h-4.47V393h10.56v11.75c-4.93.73-5.87,1.19-11.17,1.19-6.85-.21-11-4.56-11-11.44s4.17-11.23,11-11.44c5.32-.15,10.92.64,11,7h-6.09c-.3-2.13-2-2.77-4-2.77-4.11,0-5.57,3.62-5.57,7.18,0,4.32,2.16,7.18,6.54,7.18a16.45,16.45,0,0,0,3.16-.37Z" transform="translate(-188.3 -375.02)"/><path d="M238.22,406a6.35,6.35,0,0,1-6.53-6.17h2.13c.06,3.37,2.55,4.34,5.5,4.34,2.46,0,5.29-1.43,5.29-4.22,0-2.19-1.58-3.22-3.43-3.83-3.55-1.19-9-2.31-9-7,0-3.83,3.52-5.92,7-5.92,2.89,0,6.65,1,7.14,5.23H244.2c-.06-2.7-2.52-3.4-4.77-3.4s-5.1,1.15-5.1,3.83c0,6.23,12.4,3.4,12.4,11C246.72,404.54,242.62,406,238.22,406Z" transform="translate(-188.3 -375.02)"/><path d="M251,383.61V397.8c.15,4,2.43,6.38,6,6.38s5.89-2.4,6-6.38V383.61h2v14.22c-.06,4.71-2.7,8.17-8,8.17s-8-3.46-8-8.17V383.61Z" transform="translate(-188.3 -375.02)"/><path d="M268.62,403.63a1.37,1.37,0,0,1,.41,1,1.39,1.39,0,0,1-.41,1,1.42,1.42,0,0,1-2.42-1,1.37,1.37,0,0,1,.41-1,1.39,1.39,0,0,1,2,0Zm.21-.22a1.66,1.66,0,0,0-1.21-.5,1.68,1.68,0,0,0-1.18.46,1.64,1.64,0,0,0-.54,1.25,1.72,1.72,0,1,0,2.93-1.21Zm-1,1.08a.46.46,0,0,1-.27.07h-.19V404h.12a.83.83,0,0,1,.29,0,.22.22,0,0,1,.15.22A.26.26,0,0,1,267.83,404.49Zm-.46.41h.21l.17,0a.22.22,0,0,1,.14.14.91.91,0,0,1,0,.23,1.3,1.3,0,0,0,0,.26h.48l0-.05a.26.26,0,0,1,0-.06.54.54,0,0,1,0-.06v-.17a.51.51,0,0,0-.17-.43.66.66,0,0,0-.27-.11.63.63,0,0,0,.33-.13.42.42,0,0,0,.13-.35.48.48,0,0,0-.25-.46.9.9,0,0,0-.37-.1h-.92v1.9h.5Z" transform="translate(-188.3 -375.02)"/><line class="cls-2" x1="88.94" x2="88.94" y2="39.28"/><path d="M188.3,422H191c1.09,0,1.9.48,1.9,1.48a1.33,1.33,0,0,1-1,1.37v0c.78.16,1.18.58,1.18,1.29,0,1.4-1.23,1.69-2.28,1.69H188.3Zm1.56,2.31h.44c.51,0,1-.13,1-.62s-.5-.59-1-.59h-.45Zm0,2.43h.46c.57,0,1.16-.08,1.16-.68s-.61-.7-1.15-.7h-.48Z" transform="translate(-188.3 -375.02)"/><path d="M199.83,421.94a3,3,0,1,1-2.93,3A2.7,2.7,0,0,1,199.83,421.94Zm0,4.9c.95,0,1.32-.91,1.32-1.87s-.38-1.87-1.32-1.87-1.32.86-1.32,1.87S198.89,426.83,199.83,426.83Z" transform="translate(-188.3 -375.02)"/><path d="M206.34,422h1.59l.75,4.49h0l.79-4.49h2l.82,4.49h0l.76-4.49h1.52l-1.31,5.85h-2l-.83-4.49h0l-.77,4.49h-2Z" transform="translate(-188.3 -375.02)"/><path d="M218.39,422h1.56v4.69h2.41v1.16h-4Z" transform="translate(-188.3 -375.02)"/><path d="M226.31,422h1.56v5.85h-1.56Z" transform="translate(-188.3 -375.02)"/><path d="M232.24,422h2l2,4h0l0-4h1.43v5.85h-1.94l-2-4h0l.05,4h-1.43Z" transform="translate(-188.3 -375.02)"/><path d="M247.33,427.72a8.61,8.61,0,0,1-2.26.27c-1.56,0-3.36-.79-3.36-3s1.55-3.05,3.7-3.05a5.63,5.63,0,0,1,1.77.26l-.13,1.28a3,3,0,0,0-1.42-.38c-1.27,0-2.3.53-2.3,1.89a1.79,1.79,0,0,0,2,1.85,1.37,1.37,0,0,0,.55-.1v-1.16h-.91v-1.11h2.42Z" transform="translate(-188.3 -375.02)"/><path d="M262.78,427.72a8.61,8.61,0,0,1-2.26.27c-1.56,0-3.36-.79-3.36-3s1.55-3.05,3.69-3.05a5.63,5.63,0,0,1,1.77.26l-.13,1.28a3,3,0,0,0-1.43-.38c-1.27,0-2.3.53-2.3,1.89a1.79,1.79,0,0,0,2,1.85,1.37,1.37,0,0,0,.55-.1v-1.16h-.91v-1.11h2.42Z" transform="translate(-188.3 -375.02)"/><path d="M267,422h2.78c1,0,1.89.47,1.89,1.47a1.37,1.37,0,0,1-1.12,1.48v0c.5.13.54.58.83,1.29l.57,1.59h-1.63l-.34-1.05c-.32-1-.52-1.26-1.1-1.26h-.33v2.31H267Zm1.56,2.43H269c.5,0,1.14,0,1.14-.68s-.54-.65-1.14-.65h-.41Z" transform="translate(-188.3 -375.02)"/><path d="M275.81,422h4.12v1.11h-2.56v1.21h2.42v1.11h-2.42v1.32H280v1.11h-4.21Z" transform="translate(-188.3 -375.02)"/><path d="M284.12,422h4.12v1.11h-2.56v1.21h2.42v1.11h-2.42v1.32h2.66v1.11h-4.21Z" transform="translate(-188.3 -375.02)"/><path d="M292.49,422h2l2,4h0l0-4h1.42v5.85h-1.93l-2-4h0l.05,4h-1.43Z" transform="translate(-188.3 -375.02)"/><path d="M307.94,426.45a3.44,3.44,0,0,0,1.61.39c.49,0,1-.1,1-.57,0-1.09-2.77-.4-2.77-2.53,0-1.41,1.38-1.79,2.55-1.79a5,5,0,0,1,1.51.22l-.1,1.21a3.09,3.09,0,0,0-1.3-.27c-.39,0-1,0-1,.54,0,.95,2.77.31,2.77,2.42,0,1.52-1.28,1.93-2.57,1.93a6.06,6.06,0,0,1-1.74-.25Z" transform="translate(-188.3 -375.02)"/><path d="M317.23,423.2h-1.44V422h4.44v1.16h-1.44v4.69h-1.56Z" transform="translate(-188.3 -375.02)"/><path d="M325.19,422h1.91l2.26,5.85h-1.71l-.44-1.25H325l-.46,1.25H323Zm1,1.21h0l-.75,2.29h1.46Z" transform="translate(-188.3 -375.02)"/><path d="M333.59,423.2h-1.44V422h4.44v1.16h-1.44v4.69h-1.56Z" transform="translate(-188.3 -375.02)"/><path d="M340.39,422h4.12v1.11h-2.56v1.21h2.42v1.11h-2.42v1.32h2.65v1.11h-4.21Z" transform="translate(-188.3 -375.02)"/><path d="M359.53,425.67c0,1.6-1,2.32-2.56,2.32s-2.57-.72-2.57-2.32V422H356v3.37c0,.77.21,1.43,1,1.43s1-.66,1-1.43V422h1.56Z" transform="translate(-188.3 -375.02)"/><path d="M363.74,422h2l2,4h0l0-4h1.43v5.85h-1.94l-2-4h0l.05,4h-1.44Z" transform="translate(-188.3 -375.02)"/><path d="M373.5,422h1.56v5.85H373.5Z" transform="translate(-188.3 -375.02)"/><path d="M378.95,422h1.66l1.3,4.59h0l1.3-4.59h1.6l-2,5.85h-1.93Z" transform="translate(-188.3 -375.02)"/><path d="M388.6,422h4.13v1.11h-2.57v1.21h2.42v1.11h-2.42v1.32h2.66v1.11H388.6Z" transform="translate(-188.3 -375.02)"/><path d="M396.91,422h2.78c1,0,1.88.47,1.88,1.47a1.37,1.37,0,0,1-1.12,1.48v0c.5.13.54.58.83,1.29l.57,1.59h-1.63l-.34-1.05c-.32-1-.52-1.26-1.1-1.26h-.33v2.31h-1.56Zm1.56,2.43h.41c.5,0,1.14,0,1.14-.68s-.54-.65-1.14-.65h-.41Z" transform="translate(-188.3 -375.02)"/><path d="M405.74,426.45a3.45,3.45,0,0,0,1.61.39c.5,0,1-.1,1-.57,0-1.09-2.77-.4-2.77-2.53,0-1.41,1.38-1.79,2.55-1.79a5,5,0,0,1,1.51.22l-.1,1.21a3.09,3.09,0,0,0-1.3-.27c-.39,0-1,0-1,.54,0,.95,2.77.31,2.77,2.42,0,1.52-1.28,1.93-2.58,1.93a6.06,6.06,0,0,1-1.74-.25Z" transform="translate(-188.3 -375.02)"/><path d="M414.11,422h1.56v5.85h-1.56Z" transform="translate(-188.3 -375.02)"/><path d="M421,423.2h-1.44V422H424v1.16h-1.44v4.69H421Z" transform="translate(-188.3 -375.02)"/><path d="M429.57,425.69,427.41,422h1.79l1.15,2.35,1.13-2.35h1.79l-2.15,3.65v2.2h-1.56Z" transform="translate(-188.3 -375.02)"/><path class="cls-1" d="M290.57,379h2.55l2.18,11.07h0V379h1.73v13.32h-2.66L292.23,381h0v11.36h-1.62Z" transform="translate(-188.3 -375.02)"/><path class="cls-1" d="M298.33,385c0-1.37.83-2,2.47-2s2.45.63,2.45,2.25v7.12h-1.62v-1c-.2.2-.31.39-.5.57a1.81,1.81,0,0,1-1.24.5c-1,0-1.7-.31-1.7-2.53,0-1.86.15-2.29.63-2.79s.7-.57,2.69-.57v-1.49c0-.53-.13-.89-.72-.89s-.74.2-.74.77v.85h-1.73Zm2.64,2.8c-.81,0-1,.44-1,1.9s.13,1.55.68,1.55.9-.44.9-1.07v-2.38Z" transform="translate(-188.3 -375.02)"/><path class="cls-1" d="M304.84,384.31H304v-1.22h.87v-1.75l1.73-.61v2.36h1.07v1.22h-1.07v6c0,.7.31.83.83.83a1.35,1.35,0,0,0,.44-.06v1.22c-.2,0-.65.06-1.12.06-1.38,0-1.88-.41-1.88-1.24Z" transform="translate(-188.3 -375.02)"/><path class="cls-1" d="M308.33,379h1.73v1.84h-1.73Zm0,4.06h1.73v9.26h-1.73Z" transform="translate(-188.3 -375.02)"/><path class="cls-1" d="M311.35,385.47a2.26,2.26,0,0,1,2.45-2.49,2.17,2.17,0,0,1,2.47,2.31V390a2.26,2.26,0,0,1-2.45,2.49,2.17,2.17,0,0,1-2.47-2.31Zm1.73,4.61c0,.74.18,1.16.74,1.16s.72-.42.72-1.16v-4.72c0-.74-.18-1.16-.72-1.16s-.74.42-.74,1.16Z" transform="translate(-188.3 -375.02)"/><path class="cls-1" d="M317.51,383.09h1.62v.77h0a1.72,1.72,0,0,1,.67-.65,1.78,1.78,0,0,1,.94-.24c.87,0,1.62.46,1.62,1.83v7.55h-1.73v-7.21c0-.48-.13-.83-.66-.83s-.76.26-.76,1v7.07h-1.73Z" transform="translate(-188.3 -375.02)"/><path class="cls-1" d="M323.62,385c0-1.37.83-2,2.47-2s2.45.63,2.45,2.25v7.12h-1.62v-1c-.2.2-.31.39-.5.57a1.81,1.81,0,0,1-1.24.5c-1,0-1.7-.31-1.7-2.53,0-1.86.15-2.29.63-2.79s.7-.57,2.69-.57v-1.49c0-.53-.13-.89-.72-.89s-.74.2-.74.77v.85h-1.73Zm2.64,2.8c-.81,0-1,.44-1,1.9s.13,1.55.68,1.55.9-.44.9-1.07v-2.38Z" transform="translate(-188.3 -375.02)"/><path class="cls-1" d="M329.85,379h1.73v13.32h-1.73Z" transform="translate(-188.3 -375.02)"/><path class="cls-1" d="M336.18,382.43c0-1.86.61-3.51,3.12-3.51,1.83,0,2.67.92,2.67,2.42v1.33h-1.73v-.92c0-.85-.29-1.38-1.07-1.38-1,0-1.14.68-1.14,2.29v6.53c0,1.57.5,1.84,1.09,1.84s1.13-.48,1.13-1.59v-.92H342V390c0,1.4-.57,2.47-2.71,2.47-2.32,0-3.08-1.24-3.08-3.3Z" transform="translate(-188.3 -375.02)"/><path class="cls-1" d="M342.75,385.47a2.28,2.28,0,0,1,2.51-2.49c1.38,0,2.53.59,2.53,2.31v3h-3.3v2c0,.87.3,1.11.85,1.11s.83-.46.83-1.2v-.85h1.62v1.31c0,.94-.66,1.84-2.58,1.84a2.16,2.16,0,0,1-2.45-2.31Zm1.73,1.59h1.68v-1.81c0-.83-.24-1.16-.83-1.16s-.85.35-.85,1Z" transform="translate(-188.3 -375.02)"/><path class="cls-1" d="M349,383.09h1.62v.77h0a1.72,1.72,0,0,1,.67-.65,1.78,1.78,0,0,1,.94-.24c.87,0,1.62.46,1.62,1.83v7.55h-1.73v-7.21c0-.48-.13-.83-.66-.83s-.76.26-.76,1v7.07H349Z" transform="translate(-188.3 -375.02)"/><path class="cls-1" d="M355.44,384.31h-.87v-1.22h.87v-1.75l1.73-.61v2.36h1.07v1.22h-1.07v6c0,.7.31.83.83.83a1.35,1.35,0,0,0,.44-.06v1.22c-.2,0-.65.06-1.12.06-1.38,0-1.88-.41-1.88-1.24Z" transform="translate(-188.3 -375.02)"/><path class="cls-1" d="M358.79,385.47A2.28,2.28,0,0,1,361.3,383c1.38,0,2.53.59,2.53,2.31v3h-3.3v2c0,.87.3,1.11.85,1.11s.83-.46.83-1.2v-.85h1.62v1.31c0,.94-.66,1.84-2.58,1.84a2.16,2.16,0,0,1-2.45-2.31Zm1.73,1.59h1.68v-1.81c0-.83-.24-1.16-.83-1.16s-.85.35-.85,1Z" transform="translate(-188.3 -375.02)"/><path class="cls-1" d="M365,383.09h1.62v1h0c.41-.87.7-1.07,1.55-1.07v1.73c-.87,0-1.48.24-1.48,1.2v6.44H365Z" transform="translate(-188.3 -375.02)"/><path class="cls-3" d="M372.53,384.31h-.87v-1.22h.87v-2.18c0-1.31.37-1.88,2.21-1.88h.59v1.33H375c-.54,0-.76.26-.76.79v1.94h1.07v1.22h-1.07v8h-1.73Z" transform="translate(-188.3 -375.02)"/><path class="cls-3" d="M375.95,385.47A2.26,2.26,0,0,1,378.4,383a2.17,2.17,0,0,1,2.47,2.31V390a2.26,2.26,0,0,1-2.45,2.49,2.17,2.17,0,0,1-2.47-2.31Zm1.73,4.61c0,.74.18,1.16.74,1.16s.72-.42.72-1.16v-4.72c0-.74-.18-1.16-.72-1.16s-.74.42-.74,1.16Z" transform="translate(-188.3 -375.02)"/><path class="cls-3" d="M382.11,383.09h1.62v1h0c.41-.87.7-1.07,1.55-1.07v1.73c-.87,0-1.48.24-1.48,1.2v6.44h-1.73Z" transform="translate(-188.3 -375.02)"/><path class="cls-1" d="M290.57,396.5h5v1.55h-3.17v4.17h3v1.55h-3v6.05h-1.84Z" transform="translate(-188.3 -375.02)"/><path class="cls-1" d="M296.06,402.46c0-1.37.83-2,2.47-2s2.45.63,2.45,2.25v7.12h-1.62v-1c-.2.2-.31.39-.5.57a1.81,1.81,0,0,1-1.24.5c-1,0-1.7-.31-1.7-2.53,0-1.86.15-2.29.63-2.79s.7-.57,2.69-.57v-1.49c0-.53-.13-.88-.72-.88s-.74.2-.74.77v.85h-1.73Zm2.64,2.8c-.81,0-1,.44-1,1.9s.13,1.55.68,1.55.9-.44.9-1.07v-2.38Z" transform="translate(-188.3 -375.02)"/><path class="cls-1" d="M302.39,400.56H304v.78h0a1.94,1.94,0,0,1,1.64-.89,1.76,1.76,0,0,1,1.51.89,1.72,1.72,0,0,1,1.53-.89c.94,0,1.7.46,1.7,1.83v7.54H308.7v-7.21c0-.48-.13-.83-.66-.83s-.76.26-.76,1v7.07h-1.73v-7.21c0-.48-.13-.83-.66-.83s-.76.26-.76,1v7.07h-1.73Z" transform="translate(-188.3 -375.02)"/><path class="cls-1" d="M311.89,396.5h1.73v1.84h-1.73Zm0,4.06h1.73v9.26h-1.73Z" transform="translate(-188.3 -375.02)"/><path class="cls-1" d="M315,396.5h1.73v13.32H315Z" transform="translate(-188.3 -375.02)"/><path class="cls-1" d="M317.51,400.56h1.84l1.14,6.7h0l1.16-6.7h1.73l-3,12.62h-1.62l.81-3.49Z" transform="translate(-188.3 -375.02)"/><path class="cls-3" d="M332.11,405.88h0v-2.79h1.55v2.67a4.51,4.51,0,0,1-.42,2.29l.81,1.77h-1.84l-.17-.39a3.62,3.62,0,0,1-1.86.5c-2.12,0-2.6-1.24-2.6-3.41,0-1.59.09-3.25,1.49-3.93a6.79,6.79,0,0,1-1-3.3c0-1.83,1-2.79,2.34-2.79,1.68,0,2.36,1,2.36,2.53a4.88,4.88,0,0,1-1.92,3.8Zm-2.44-1.9a4.59,4.59,0,0,0-.33,2.42c0,1.51.22,2.21,1,2.21a1.28,1.28,0,0,0,1.09-.55Zm0-4.78a5.22,5.22,0,0,0,.61,2.44,3.57,3.57,0,0,0,1-2.53c0-.81-.26-1.27-.79-1.27S329.65,398.33,329.65,399.2Z" transform="translate(-188.3 -375.02)"/><path class="cls-1" d="M337.86,396.5h2.93l1.7,10.15h0l1.7-10.15h2.86v13.32h-1.73v-12h0l-1.88,12h-1.84l-2.07-12h0v12h-1.62Z" transform="translate(-188.3 -375.02)"/><path class="cls-1" d="M348.35,402.46c0-1.37.83-2,2.47-2s2.45.63,2.45,2.25v7.12h-1.62v-1c-.2.2-.31.39-.5.57a1.81,1.81,0,0,1-1.24.5c-1,0-1.7-.31-1.7-2.53,0-1.86.15-2.29.63-2.79s.7-.57,2.69-.57v-1.49c0-.53-.13-.88-.72-.88s-.74.2-.74.77v.85h-1.73Zm2.64,2.8c-.81,0-1,.44-1,1.9s.13,1.55.68,1.55.9-.44.9-1.07v-2.38Z" transform="translate(-188.3 -375.02)"/><path class="cls-1" d="M354.53,400.56h1.62v1h0c.41-.87.7-1.07,1.55-1.07v1.73c-.87,0-1.48.24-1.48,1.2v6.44h-1.73Z" transform="translate(-188.3 -375.02)"/><path class="cls-1" d="M358.29,400.56h1.62v1h0c.41-.87.7-1.07,1.55-1.07v1.73c-.87,0-1.48.24-1.48,1.2v6.44h-1.73Z" transform="translate(-188.3 -375.02)"/><path class="cls-1" d="M362.11,396.5h1.73v1.84h-1.73Zm0,4.06h1.73v9.26h-1.73Z" transform="translate(-188.3 -375.02)"/><path class="cls-1" d="M365.12,402.46c0-1.37.83-2,2.47-2s2.45.63,2.45,2.25v7.12h-1.62v-1c-.2.2-.31.39-.5.57a1.81,1.81,0,0,1-1.24.5c-1,0-1.7-.31-1.7-2.53,0-1.86.15-2.29.63-2.79s.7-.57,2.69-.57v-1.49c0-.53-.13-.88-.72-.88s-.74.2-.74.77v.85h-1.73Zm2.64,2.8c-.81,0-1,.44-1,1.9s.13,1.55.68,1.55.9-.44.9-1.07v-2.38Z" transform="translate(-188.3 -375.02)"/><path class="cls-1" d="M371.45,410.67h1.73v.72c0,.54.17.79.65.79s.65-.28.65-1.05v-2.31h0a1.65,1.65,0,0,1-1.53.78c-1,0-1.62-.78-1.62-2.14v-4.87c0-1.37.61-2.14,1.62-2.14a1.73,1.73,0,0,1,1.64.94h0v-.83h1.62v10.17a2.25,2.25,0,0,1-2.49,2.56c-1.25,0-2.27-.48-2.27-1.84Zm1.57-3.62c0,1.07.29,1.33.76,1.33s.7-.29.7-1v-4.76c0-.65-.28-1-.77-1s-.68.18-.68,1Z" transform="translate(-188.3 -375.02)"/><path class="cls-1" d="M377.37,402.94a2.28,2.28,0,0,1,2.51-2.49c1.38,0,2.53.59,2.53,2.31v3h-3.3v2c0,.87.3,1.11.85,1.11s.83-.46.83-1.2v-.85h1.62v1.31c0,.94-.66,1.84-2.58,1.84a2.16,2.16,0,0,1-2.45-2.31Zm1.73,1.59h1.68v-1.81c0-.83-.24-1.16-.83-1.16s-.85.35-.85,1Z" transform="translate(-188.3 -375.02)"/><path class="cls-1" d="M387.07,396.5h2.86c2.69,0,3,.72,3,3.63,0,1.79-.24,2.56-1.75,3v0c1.25.13,1.68.77,1.68,2v2.9a9.16,9.16,0,0,0,.11,1.7H391.2a2.3,2.3,0,0,1-.22-1.2v-3c0-1.25-.22-1.59-1.44-1.59h-.63v5.79h-1.84Zm1.84,6h.48c1.46,0,1.66-.28,1.66-2.27s-.11-2.16-1.25-2.16h-.89Z" transform="translate(-188.3 -375.02)"/><path class="cls-1" d="M394.11,402.94a2.28,2.28,0,0,1,2.51-2.49c1.38,0,2.53.59,2.53,2.31v3h-3.3v2c0,.87.3,1.11.85,1.11s.83-.46.83-1.2v-.85h1.62v1.31c0,.94-.66,1.84-2.58,1.84a2.16,2.16,0,0,1-2.45-2.31Zm1.73,1.59h1.68v-1.81c0-.83-.24-1.16-.83-1.16s-.85.35-.85,1Z" transform="translate(-188.3 -375.02)"/><path class="cls-1" d="M403.06,403.55v-.88c0-.72-.15-1-.61-1s-.59.2-.59.85c0,.94.07,1,1.24,2,1.35,1.18,1.6,1.57,1.6,2.91,0,1.81-.63,2.49-2.47,2.49-1.33,0-2.07-.55-2.07-1.9v-1.31h1.62V408c0,.57.24.72.65.72.57,0,.65-.29.65-1,0-1-.06-1.14-1.05-2l-.39-.33c-1.38-1.18-1.4-1.33-1.4-2.6,0-1.75.85-2.31,2.4-2.31,1.29,0,2,.57,2,1.68v1.42Z" transform="translate(-188.3 -375.02)"/><path class="cls-1" d="M405.71,402.94a2.28,2.28,0,0,1,2.51-2.49c1.38,0,2.53.59,2.53,2.31v3h-3.3v2c0,.87.3,1.11.85,1.11s.83-.46.83-1.2v-.85h1.62v1.31c0,.94-.66,1.84-2.58,1.84a2.16,2.16,0,0,1-2.45-2.31Zm1.73,1.59h1.68v-1.81c0-.83-.24-1.16-.83-1.16s-.85.35-.85,1Z" transform="translate(-188.3 -375.02)"/><path class="cls-1" d="M411.89,402.46c0-1.37.83-2,2.47-2s2.45.63,2.45,2.25v7.12H415.2v-1c-.2.2-.31.39-.5.57a1.81,1.81,0,0,1-1.24.5c-1,0-1.7-.31-1.7-2.53,0-1.86.15-2.29.63-2.79s.7-.57,2.69-.57v-1.49c0-.53-.13-.88-.72-.88s-.74.2-.74.77v.85h-1.73Zm2.64,2.8c-.81,0-1,.44-1,1.9s.13,1.55.68,1.55.9-.44.9-1.07v-2.38Z" transform="translate(-188.3 -375.02)"/><path class="cls-1" d="M418.07,400.56h1.62v1h0c.41-.87.7-1.07,1.55-1.07v1.73c-.87,0-1.48.24-1.48,1.2v6.44h-1.73Z" transform="translate(-188.3 -375.02)"/><path class="cls-1" d="M421.6,402.94a2.26,2.26,0,0,1,2.43-2.49c1.57,0,2.25.77,2.25,1.84v1.38h-1.62v-1c0-.7-.26-1-.67-1s-.66.37-.66,1.09v5.09c0,.55.2.87.66.87s.67-.33.67-.9v-1.11h1.62v1.4c0,1.4-1.16,1.83-2.23,1.83a2.16,2.16,0,0,1-2.45-2.31Z" transform="translate(-188.3 -375.02)"/><path class="cls-1" d="M427.29,396.5H429v4.83h0a1.42,1.42,0,0,1,.61-.66,1.9,1.9,0,0,1,.89-.22c.87,0,1.62.46,1.62,1.83v7.54h-1.73v-7.21c0-.48-.13-.83-.66-.83s-.76.26-.76,1v7.07h-1.73Z" transform="translate(-188.3 -375.02)"/></svg>