<svg xmlns="http://www.w3.org/2000/svg" width="259" height="259"><g data-name="Group 5610"><path data-name="Path 4686" d="M240.6 56.233a20.075 20.075 0 000-28.389l-14.482-14.482a20.074 20.074 0 00-28.389 0L178.041 33.05l42.871 42.872z" fill="#fc8676"/><path data-name="Path 4692" d="M45.171 40.256l19.422-19.423L52.747 8.987a12.709 12.709 0 00-17.974 0L8.986 34.774a12.709 12.709 0 000 17.973l197.268 197.267a12.708 12.708 0 0017.975.003l25.788-25.787a12.709 12.709 0 00-.003-17.976l-11.947-11.947-19.422 19.422a3.476 3.476 0 01-4.916 0 3.476 3.476 0 010-4.916l19.422-19.422L217 173.24l-7.405 7.405a3.477 3.477 0 11-4.916-4.917l7.405-7.404-16.156-16.156-19.422 19.422a3.476 3.476 0 11-4.916-4.915l19.423-19.422-16.156-16.156-7.405 7.404a3.477 3.477 0 11-4.917-4.916l7.405-7.405-16.155-16.155-19.422 19.422a3.477 3.477 0 11-4.917-4.917l19.422-19.422-16.15-16.15-7.405 7.405a3.476 3.476 0 01-4.916 0 3.477 3.477 0 010-4.916l7.405-7.405L111.65 67.89 92.227 87.311a3.477 3.477 0 01-4.916-4.916l19.422-19.422L90.58 46.82l-7.405 7.404a3.477 3.477 0 11-4.917-4.916l7.405-7.405L69.51 25.75 50.088 45.172a3.477 3.477 0 11-4.917-4.916z" fill="#002d62"/><path data-name="Path 4687" d="M9.793 244.169l62.29-19.419L220.911 75.922 178.04 33.051 29.212 181.879z" fill="#ffae83"/></g></svg>