<svg xmlns="http://www.w3.org/2000/svg" width="260.359" height="262.794"><g data-name="Group 5601"><path data-name="Path 4689" d="M230.993 69.959l-46.83-28.874a8.7 8.7 0 01-4.135-7.407V8.703a8.7 8.7 0 00-8.7-8.7h-5.7a8.7 8.7 0 00-8.7 8.7 8.7 8.7 0 01-13.269 7.407L122.134 2.839a8.7 8.7 0 00-9.134 0L4.138 69.959a8.7 8.7 0 00-2.84 11.975l1.857 3.012a8.7 8.7 0 0011.975 2.841l4.891-3.015a8.7 8.7 0 0113.27 7.407v115.387a8.7 8.7 0 008.7 8.7h151.152a8.7 8.7 0 008.7-8.7V92.179a8.7 8.7 0 0113.269-7.407l4.891 3.015a8.7 8.7 0 0011.975-2.841l1.857-3.012a8.7 8.7 0 00-2.842-11.975z" fill="#002d62"/><path data-name="Path 4691" d="M163.459 186.625a3.935 3.935 0 014.783.589l6.326 6.326a3.918 3.918 0 010 5.541 3.919 3.919 0 000 5.542l52.452 52.451a19.53 19.53 0 0027.621 0 19.532 19.532 0 000-27.621l-52.452-52.451a3.918 3.918 0 00-5.541 0 3.919 3.919 0 01-5.542 0l-6.326-6.327a3.935 3.935 0 01-.59-4.78c12.955-22.132-43.111 33.831-20.731 20.73z" fill="#fc8676"/><path data-name="Path 4690" d="M93.518 95.874a57.78 57.78 0 000 81.713 57.78 57.78 0 0081.714 0 57.779 57.779 0 000-81.713 57.78 57.78 0 00-81.714 0zm70.9 21.066a7.249 7.249 0 01-10.252 0 28.02 28.02 0 00-39.581 0 7.249 7.249 0 01-10.252 0 7.249 7.249 0 010-10.251 42.535 42.535 0 0160.084 0 7.249 7.249 0 010 10.251z" fill="#ffae83"/></g></svg>