<svg xmlns="http://www.w3.org/2000/svg" viewBox="0 0 442.3 60.2"><g fill="#FFF"><path d="M234 12.1h1.5l.2.3.4.6.1.1.1.1.3.4.1.1.3.4.1.1.3.5.1.1.1.1.1.1.2.2.4.6.1.1.1.1.1.1.1.1.1.1.1.1.1.1.1.1.1.1.1.1.1.1.1.1.1.1.1.1.1.1.2-.4.1-.1.3-.5.1-.1.3-.4.1-.1.1-.1.2-.4.1-.1.2-.4-.5.3.1-.1.3-.5.1-.1.3-.5.1-.1.1-.1.1-.1.1-.1.1-.1.1-.1.1-.1.1-.1.1-.1.1-.1.3-.5h1.5V23h-1.4v-8.5l-.1.1-.1.1-.2.2-.1.1-.2.2-.1.1-.2.3-.1.1-.4.6-.1.1-.1.1-.1.1-.1.1-.1.1-.1.1-.1.1-.1.1-.1.1-.2.2-.1.1-.2.3-.2.2-.1.1-.1.1-.1.1-.2.2-.1.1-.2.2-.1.1-.2.2-.1.1-.1.1h-.1l-.1-.1-.1-.1-.2-.2-.1-.1-.6-.9-.3-.5-.1-.1-.2-.3-.1-.1-.2-.3-.1-.1-.7-1-.3-.4-.1-.1-.3-.5-.1-.1-.1-.1-.2-.2-.1-.1-.1-.1V23h-.6V12.1zM254 23h-1.4v-1.2l-.4.4-.1.1-.1.1-.1.1-.1.1-.3.1-.4.2-.3.1h-.2l-.3.1H248.9l-.3-.1-.3-.1-.2-.1-.1-.1-.1-.1-.1-.1-.1-.1-.1-.1-.1-.1-.2-.2-.2-.2-.2-.3-.1-.1-.1-.2V20l.1-.4.1-.1.1-.1.1-.1.2-.2.1-.1.2-.2.3-.2.3-.1.1-.1.4-.1.4-.1h1.5l.6.1.4.1h.4l.4.1V17.9l-.1-.3v-.1l-.1-.1-.1-.1-.1-.1-.1-.1-.1-.1-.1-.1-.1-.1-.1-.1-.1-.1-.1-.1-.1-.1H249l-.3.1-.3.1h-.1l-.1.1-.2.1-.1.1v-.1l-.1-.1-.1-.3-.1-.1v-.1l-.1-.2v-.1l.3-.1h.1l.1-.1.3-.1.1-.1H248.7l.4-.1h.1l.8-.1h1.9l.3.1.1.1.1.1.2.1.2.2.1.1.2.2.2.2.1.2.1.2.1.1.1.3v.5l.1.6V23zm-4-1h.8l.3-.1.6-.2.1-.1.1-.1.1-.1.3-.3.1-.1.2-.2.1-.1.1-.3v-1h-.1l-.3-.1h-.1l-.3-.1-.3-.1-.7-.1h-1.1l-.3.1-.4.1-.1.1-.1.1-.1.1-.1.1-.1.1-.2.2-.1.1-.1.1-.1.3V21.1l.1.1.1.1.2.2.3.2.1.1h.1l.3.1H249.7l.3.1zM256.6 14.9h1.4v1.9l.1-.1.1-.1.1-.1.1-.1.1-.1.1-.1.1-.1.1-.1.1-.1.1-.1.1-.1.1-.1.1-.1.1-.1.2-.1.1-.1.1-.1.1-.1.4-.1h1v1.3h-.7l-.3.1h-.2l-.1.1-.2.1-.1.1-.5.4-.2.2-.2.2-.1.1-.1.1-.1.1-.3.7V23h-1.4v-8.1zM263.1 14.9h1.4v1.9l.1-.1.1-.1.1-.1.1-.1.1-.1.1-.1.1-.1.1-.1.1-.1.1-.1.1-.1.1-.1.1-.1.1-.1.2-.1-.1-.3.1-.1.1-.1.4-.1h1V16h-.7l-.3.1h-.2l-.1.1-.2.1-.1.1-.5.4-.2.2-.2.2-.1.1-.1.1-.1.1-.3.7V23h-1.4v-8.1zM269.5 11.9h1.6v1.3h-1.6v-1.3zm.1 3h1.4V23h-1.4v-8.1zM280.5 23h-1.4v-1.2l-.4.4-.1.1-.1.1-.1.1-.1.1-.3.1-.4.2-.3.1h-.2l-.3.1H275.4l-.3-.1-.3-.1-.2-.1-.1-.1-.1-.1-.1-.1-.1-.1-.1-.1-.1-.1-.2-.2-.2-.2-.2-.3-.1-.1-.1-.2V20l.1-.4.1-.1.1-.1.1-.1.2-.2.1-.1.2-.2.3-.2.3-.1.1-.1.4-.1.4-.1h1.5l.6.1.4.1h.4l.4.1V17.9l-.1-.3v-.1l-.1-.1-.1-.1-.1-.1-.1-.1-.1-.1-.1-.1-.1-.1-.1-.1-.1-.1-.1-.1-.1-.1H275.5l-.3.1-.3.1h-.1l-.1.1-.2.1-.1.1v-.1l-.1-.1-.1-.3-.1-.1v-.1l-.1-.2v-.1l.3-.1h.1l.1-.1.3-.1.1-.1H275.2l.4-.1h.1l.8-.1h1.9l.3.1.1.1.1.1.2.1.2.2.1.1.2.2.2.2.1.2.1.2.1.1.1.3v.5l.1.6V23zm-4.1-1h.8l.3-.1.6-.2.1-.1.1-.1.1-.1.3-.3.1-.1.2-.2.1-.1.1-.3v-1h-.1l-.3-.1h-.1l-.3-.1-.4-.2-.6-.1h-1.1l-.3.1-.4.1-.1.1-.1.1-.1.1-.1.1-.1.1-.2.2-.1.1-.1.1-.1.3V21l.1.1.1.1.2.2.3.2.1.1h.1l.3.1H276.1l.3.2zM289.4 14.9h1.4v7.5l-.1.5-.1.3-.1.1-.1.1v.1l-.1.1-.1.1-.3.4-.1.1-.1.1-.3.3-.1.1-.2.1-.3.1-.3.1h-.5l-.4.1-.6.1h-.6l-.8-.1-.4-.1h-.4l-.6-.2-.4-.2-.1-.1-.1-.1-.1-.1-.1-.1-.3-.2.1-.1.2-.4.1-.2.2-.3.1-.1.1.1.3.2.3.1.3.1.3.1h.1l.2.1H285.7l.4.1h1.5l.3-.1.3-.1-.2.5h.1l.2-.1.1-.1.2-.2.1-.1.2-.2.1-.1.1-.1.1-.1.1-.1.1-.3v-1.9l-.1.1-.1.1-.1.1-.1.1-.1.1-.1.1-.2.2-.1.1-.1.1-.4.3-.4.2-.3.1-.4.1h-.8l-.5-.1h-.5l-.1-.1h-.1l-.3-.1-.4-.2-.1-.1-.1-.1-.1-.1-.3-.3-.2-.2-.1-.1-.1-.1-.2-.3-.1-.1-.1-.3-.1-.3v-.4l-.1-.6v-.4l.1-.6V17.6l.2-.5.3-.5.2-.2.2-.2.3-.3.1-.1.2-.2.2-.1.1-.1.1-.1.1-.1.3-.1h2.1l.3.1h.1l.2.1.6.4.2.2.2.2.1.1.1.1.1.1v-1.5zm-2.9 6.2h.6l.3-.1h.2l.1-.1h.2l.1-.1.1-.1.4-.2.2-.2.2-.2.1-.1.1-.1.1-.3.1-.1.1-.2v-.1l.1-.3v-.8l-.1-.3v-.2l-.1-.1-.1-.1-.1-.3-.1-.1-.3-.3-.1-.1-.1-.1-.5-.3-.1-.1-.2-.1-.3-.1H285.9l-.3.1-.2.1-.3.1-.2.1-.1.1-.2.2-.1.1-.2.2-.2.3-.1.3v.1l-.1.5v.8l.1.4v.1l.1.3.2.4.1.1.1.1.1.1.3.3.1.1.1.1.1.1h.1l.1.1h1.1zM297.3 23.2H296.2l-.4-.1-.3-.1-.1-.1-.3-.1-.4-.3-.1-.1-.2-.2-.1-.1-.2-.2-.1-.1-.1-.1-.1-.1-.2-.3-.2-.5-.1-.3v-2l.1-.5v-.1l.1-.3v-.1l.1-.3.1-.1.1-.1.1-.1.1-.1.1-.1.2-.2.1-.1.2-.2.1-.1.4-.3.2-.2.1-.1.3-.1.4-.1.4-.1h1.3l.4.1.3.1.3.1.1.1.1.1.5.3.1.1.1.1.3.3.1.1.2.3.1.1.2.4.1.3.1.3.1.4V19.9h-6.3v.5l.1.3v.1l.3.5.3.3.1.1.1.1.3.2.3.1.3.1H298.3l.4-.2.1-.1.1-.1.2-.2.3-.3.1-.1.2.2.2.2.1.1.1.1.1.1.1.1-.3.3-.1.1-.1.1-.5.4-.1.1-.1.1-.1.1-.1.1-.1.1-.1.1-.3.1-.4.1H297.4l-.1-.5zm-.2-7.3h-.7l-.2.1h-.1l-.1.1-.3.1-.1.1-.1.1-.1.1-.3.3-.2.3-.2.3-.1.2V18.4h4.9v-.3l-.1-.3V17.5l-.1-.1-.1-.2-.1-.1-.3-.4-.1-.1-.1-.1-.1-.1-.3-.2-.1-.1-.4-.1h-.1l-.5-.1zM309.1 14.8V15.1l.1.2v.1l.1.1.1.1.1.1.2.2.1.1.3.2.4.2H312.1l.5.1h.4l.5.2.4.2.1.1.2.1.2.1.1.1.1.1.3.3.1.1.1.1.1.1.1.1.1.1.1.1v.2l.1.3v1l-.1.4v.1l-.1.1v.1l-.1.1-.1.1-.1.1-.1.1-.1.1-.3.3-.4.3-.3.1-.4.2-.3.1h-.1l-.3.1h-1.5l-.7-.1-.7-.1h-.1l-.4-.1-.3-.1h-.1l-.1-.1-.1-.1-.1-.1-.1-.1-.1-.1-.1-.1-.1-.1-.1-.1-.5-.4-.2-.2.1-.1.1-.1.1-.1.1-.1.2-.2.1-.1.1-.1.1-.1.2.2.1.1.1.1.1.1.1.1.1.1.2.1.6.3.1.1h.1l.1.1H310.5l.3.1H312.7l.4-.1.1-.1.2-.1.2-.2.2-.2.1-.1.1-.1v-.2l.1-.3V18.6l-.1-.1-.1-.1-.1-.1-.1-.1-.4-.2-.5-.2h-.1l-.3-.1-.5-.1-.2-.1h-1l-.5-.1h-.1l-.4-.1H309.4l-.3-.1-.1-.1-.1-.1-.2-.1-.3-.3-.1-.1-.1-.1-.2-.3-.2-.4-.1-.1-.1-.3v-1.1l.1-.4.1-.2.1-.3.1-.3.1-.1.1-.1.1-.1.1-.1.2-.2.1-.1.1-.1.1-.1.4-.2.3-.1H311.4l.6.1H312.3l.3.1.3.1h.1l.5.2.3.1.4.2.1.1.1.1.5.4-.4.6-.1.1-.1.1-.2.2-.1-.1-.4-.3-.5-.3-.2-.1h-.1l-.1-.1-.1-.1h-.5l-.3-.1h-1l-.3.1h-.1l-.3.1-.3.1-.1.1-.1.1-.1.1-.1.1-.1.1-.1.1V14.3l-.1.5zM318.2 16.1h-1.1v-1.2h1.1v-2.4h1.4v2.4h2.5v1.2h-2.5v5l.1.3.1.1.1.1.1.1.1.1.1.1H320.9l.4-.1h.1l.1-.1.2-.1v1.2l-.1.1-.1.1-.3.1H320l-.4-.1-.1-.1h-.1l-.1-.1-.2-.2-.2-.2-.1-.1-.1-.1-.1-.1-.1-.1-.1-.2-.1-.1-.1-.4v-5.2zM324.2 14.9h1.4v1.9l.1-.1.1-.1.1-.1.1-.1.1-.1-.1-.3.1-.1.1-.1.1-.1.1-.1.1-.1.1-.1.1-.1.1-.1.2-.1.1-.1.1-.1.1-.1.4-.1h1V16h-.7l-.3.1h-.2l-.1.1-.2.1-.1.1-.5.4-.2.2-.2.2-.1.1-.1.1-.1.1-.3.7V23h-1.4v-8.1zM334.1 23.2H333l-.4-.1-.3-.1-.1-.1-.3-.1-.4-.3-.1-.1-.2-.2-.1-.1-.2-.2-.1-.1-.1-.1-.1-.1-.2-.3-.2-.5-.1-.3v-2l.1-.5v-.1l.1-.3v-.1l.1-.3.1-.1.1-.1.1-.1.1-.1.1-.1.2-.2.1-.1.2-.2.1-.1.4-.3.2-.2.1-.1.3-.1.4-.1.4-.1h1.3l.4.1.3.1.3.1.1.1.1.1.5.3.1.1.1.1.3.3.1.1.2.3.1.1.2.4.1.3.1.3.1.4V19.9h-6.3v.5l.1.3v.1l.3.5.3.3.1.1.1.1.3.2.3.1.3.1H335.1l.4-.2.1-.1.1-.1.2-.2.3-.3.1-.1.2.2.2.2.1.1.1.1.1.1.1.1h-.1l-.1.1-.1.1-.5.4-.1.1-.1.1-.1.1-.1.1-.1.1-.1.1-.3.1-.4.1H334.4l-.3-.2zm-.2-7.3h-.7l-.2.1h-.1l-.1.1-.3.1-.1.1-.1.1-.1.1-.3.3-.2.3-.2.3-.1.2V18.4h4.9v-.3l-.1-.3V17.5l-.1-.1-.1-.2-.1-.1-.3-.4-.1-.1-.1-.1-.1-.1-.3-.2-.1-.1-.4-.1h-.1l-.5-.1zM339.7 14.9h1.4v1.4l.1-.1.2-.2.2-.2.2-.2.1-.1.1-.1.1-.1.1-.1.1-.1.2-.1.1-.1h.2l.4-.1h1l.4.1h.2l.4.2.1.1.1.1.2.2.1.1.1.1.2.2.1.1.1.1.2.4v.2l.1.3v6h-1.4V17.4l-.1-.3-.1-.1-.1-.2-.1-.1-.1-.1-.1-.1-.1-.1-.2-.2-.1-.1-.1-.1h-1.2l-.3.1-.3.1-.3.1-.2.2-.1.1-.2.2-.1.1-.1.1-.1.1-.1.1-.1.1-.1.1-.1.4V23h-1.4v-8.1zM355.9 14.9h1.4v7.5l-.1.5-.1.3-.1.1-.1.1v.1l-.1.1-.1.1-.3.4-.1.1-.1.1-.3.3-.1.1-.2.1-.3.1-.3.1h-.5l-.4.1-.6.1h-.6l-.8-.1-.4-.1h-.4l-.6-.2-.4-.2-.1-.1-.1-.1-.1-.1-.1-.1-.3-.2.1-.1.2-.4.1-.2.2-.3.1-.1.1.1.3.2.3.1.3.1.3.1h.1l.2.1H352.2l.4.1h1.5l.3-.1.3-.1.1-.1h.1l.2-.1.1-.1.2-.2.1-.1.2-.2.1-.1.1-.1.1-.1.1-.1.1-.3v-1.9l-.1.1-.1.1-.1.1-.1.1-.1.1-.1.1-.2.2-.1.1-.1.1-.4.2-.4.2-.3.1-.4.1h-.8l-.5-.1h-.5l-.1-.1h-.1l-.3-.1-.4-.2-.1-.1-.1-.1-.1-.1-.3-.3-.2-.2-.1-.1-.1-.1-.2-.3-.1-.1-.1-.3-.1-.3v-.4l-.1-.6v-.4l.1-.6V16.9l.2-.5.3-.5.2-.2.2-.2.3-.3.1-.1.2-.2.2-.1.1-.1.1-.1.1-.1.3-.1h2.1l.3.1h.1l.2.1.6.4.2.2.2.2.1.1.1.1.1.1v-.8zm-2.9 6.2h.6l.3-.1h.2l.1-.1h.2l.1-.1.1-.1.4-.2.2-.2.2-.2.1-.1.1-.1.1-.3.1-.1.1-.2v-.1l.1-.3v-.8l-.1-.3v-.2l-.1-.1-.1-.1-.1-.3-.1-.1-.3-.3-.1-.1-.1-.1-.5-.3-.1-.1-.2-.1-.3-.1H352.4l-.3.1-.2.1-.3.1-.2.1-.1.1-.2.2-.1.1-.2.2-.2.3-.1.3v.1l-.1.5v.8l.1.4v.1l.1.3.2.4.1.1.1.1.1.1.3.3.1.1.1.1.1.1h.1l.1.1h1.1zM360.4 16.1h-1.1v-1.2h1.1v-2.4h1.4v2.4h2.5v1.2h-2.5v5l.1.3.1.1.1.1.1.1.1.1.1.1H363.1l.4-.1h.1l.1-.1.2-.1v1.2l-.1.1-.1.1-.3.1h-1.1l-.4-.1-.1-.1h-.1l-.1-.1-.2-.2-.2-.2-.1-.1-.1-.1-.1-.1-.1-.1-.1-.2-.1-.1-.1-.4v-5.2zM366.4 11.6h1.4v4.6l.1-.1.2-.2.2-.2.2-.2.1-.1.1-.1.1-.1.1-.1.1-.1.2-.1.1-.1h.2l.4-.1h1l.4.1h.2l.4.2.1.1.1.1.2.2.1.1.1.1.2.2.1.1.1.1.2.4v.2l.1.3V23h-1.4V17.4l-.1-.3-.1-.1-.1-.2-.1-.1-.1-.1-.1-.1-.1-.1-.2-.2-.1-.1-.1-.1h-1.2l-.3.1-.3.1-.3.1-.2.2-.1.1-.2.2-.1.1-.1.1-.1.1-.1.1-.1.1-.1.1-.1.4V23H366V11.6zM380 23.2H378.9l-.4-.1-.3-.1-.1-.1-.3-.1-.4-.3-.1-.1-.2-.2-.1-.1-.2-.2-.1-.1-.1-.1-.1-.1-.2-.3-.2-.5-.1-.3v-2l.1-.5v-.1l.1-.3v-.1l.1-.3.1-.1.1-.1.1-.1.1-.1.1-.1.2-.2.1-.1.2-.2.1-.1.4-.3.2-.2.1-.1.3-.1.4-.1.4-.1h1.3l.4.1.3.1.3.1.1.1.1.1.5.3.1.1.1.1.3.3.1.1.2.3.1.1.2.4.1.3.1.3.1.4V19.9h-6.3v.5l.1.3v.1l.3.5.3.3.1.1.1.1.3.2.3.1.3.1H381l.4-.2.1-.1.1-.1.2-.2.3-.3.1-.1.2.2.2.2.1.1.1.1.1.1.1.1-.3.3-.1.1-.1.1-.5.4-.1.1-.1.1-.1.1-.1.1-.1.1-.1.1-.3.1-.4.1H380.1l-.1-.5zm-.2-7.3h-.7l-.1.1h-.1l-.1.1-.3.1-.1.1-.1.1-.1.1-.3.3-.2.3-.2.3-.1.2V18.4h4.9v-.3l-.1-.3V17.5l-.1-.1-.1-.2-.1-.1-.3-.4-.1-.1-.1-.1-.1-.1-.3-.2-.1-.1-.4-.1h-.1l-.6-.1zM385.6 14.9h1.4v1.4l.1-.1.2-.2.2-.2.2-.2.1-.1.1-.1.1-.1.1-.1.1-.1.2-.1.1-.1h.2l.4-.1h1l.4.1h.2l.4.2.1.1.1.1.2.2.1.1.1.1.2.2.1.1.1.1.2.4v.2l.1.3v6H391V17.4l-.1-.3-.1-.1-.1-.2-.1-.1-.1-.1-.1-.1-.1-.1-.2-.2-.1-.1-.1-.1h-1.2l-.3.1-.3.1-.3.1-.2.2-.1.1-.2.2-.1.1-.1.1-.1.1-.1.1-.1.1-.1.1-.1.4V23h-1.4v-8.1zM395.4 11.9h1.6v1.3h-1.6v-1.3zm.1 3h1.4V23h-1.4v-8.1zM399.7 14.9h1.4v1.4l.1-.1.2-.2.2-.2.2-.2.1-.1.1-.1.1-.1.1-.1.1-.1.2-.1.1-.1h.2l.4-.1h1l.4.1h.2l.4.2.1.1.1.1.2.2.1.1.1.1.2.2.1.1.1.1.2.4v.2l.1.3v6h-1.4V17.4l-.1-.3-.1-.1-.1-.2-.1-.1-.1-.1-.1-.1-.1-.1-.2-.2-.1-.1-.1-.1h-1.2l-.3.1-.3.1-.3.1-.2.2-.1.1-.2.2-.1.1-.1.1-.1.1-.1.1-.1.1-.1.1-.1.4V23h-1.4v-8.1zM415.8 14.9h1.4v7.5l-.1.5-.1.3-.1.1-.1.1v.1l-.1.1-.1.1-.3.4-.1.1-.1.1-.3.3-.1.1-.2.1-.3.1-.3.1h-.5l-.4.1-.6.1h-.6l-.8-.1-.4-.1h-.4l-.6-.2-.4-.2-.1-.1-.1-.1-.1-.1-.1-.1-.3-.2.1-.1.2-.4.1-.2.2-.3.1-.1.1.1.3.2.3.1.3.1.3.1h.1l.2.1H412.1l.4.1h1.5l.3-.1.3-.1.1-.1h.1l.2-.1.1-.1.2-.2.1-.1.2-.2.1-.1.1-.1.1-.1.1-.1.1-.3v-1.9l-.1.1-.1.1-.1.1-.1.1-.1.1-.1.1-.2.2-.1.1-.1.1-.4.2-.4.2-.3.1-.4.1h-.8l-.5-.1h-.5l-.1-.1h-.1l-.3-.1-.4-.2-.1-.1-.1-.1-.1-.1-.3-.3-.2-.2-.1-.1-.1-.1-.2-.3-.1-.1-.1-.3-.1-.3v-.4l-.1-.6v-.4l.1-.6V16.9l.2-.5.3-.5.2-.2.2-.2.3-.3.1-.1.2-.2.2-.1.1-.1.1-.1.1-.1.3-.1h2.1l.3.1h.1l.2.1.6.4.2.2.2.2.1.1.1.1.1.1v-.8zm-2.9 6.2h.6l.3-.1h.2l.1-.1h.2l.1-.1.1-.1.4-.2.2-.2.2-.2.1-.1.1-.1.1-.3.1-.1.1-.2v-.1l.1-.3v-.8l-.1-.3v-.2l-.1-.1-.1-.1-.1-.3-.1-.1-.3-.3-.1-.1-.1-.1-.5-.3-.1-.1-.2-.1-.3-.1H412.3l-.3.1-.2.1-.3.1-.2.1-.1.1-.2.2-.1.1-.2.2-.2.3-.1.3v.1l-.1.5v.8l.1.4v.1l.1.3.2.4.1.1.1.1.1.1.3.3.1.1.1.1.1.1h.1l.1.1h1.1z"/></g><g fill="#FFF"><path d="M234 28.1h6l.1.1h.1l.3.1.3.1.1.1.2.1.3.2.1.1.2.2.3.3.3.4.1.1.2.4.1.1.1.5v1.3l-.1.4-.1.1-.1.2-.1.1-.1.1-.1.1-.1.1-.1.1-.4.4-.2.1-.1.1-.3.1-.1.1h-.1l-.1.1h-.6l.2.2.3.4.1.1.1.1.4.5.6.8.1.1.4.5.3.4.6.9.3.4h-1.7l-.5-.6-.1-.1-.1-.1-.1-.1-.1-.1-.6-.8-.1-.1-.4-.5-.4-.5-.5-.7-.3-.4h-2.9V39H234V28.1zm1.4 5.5h4.3l.5-.2.3-.2.1-.1.3-.3.1-.2.1-.1.1-.1V31l-.1-.3-.1-.1-.1-.1-.2-.2-.1-.1-.1-.1-.3-.2-.1-.1H239.8l-.3-.1h-4v3.9zM248.8 39.2H247.7l-.4-.1-.3-.1-.1-.1-.3-.1-.4-.3-.1-.1-.2-.2-.1-.1-.2-.2-.1-.1-.1-.1-.1-.1-.2-.3-.2-.5-.1-.3v-2l.1-.5v-.1l.1-.3v-.1l.1-.3.1-.1.1-.1.1-.1.1-.1.1-.1.2-.2.1-.1.2-.2.1-.1.4-.3.2-.2.1-.1.3-.1.4-.1.4-.1h1.3l.4.1.3.1.3.1.1.1.1.1.5.3.1.1.1.1.3.3.1.1.2.3.1.1.2.4.1.3.1.3.1.4V35.9H246v.5l.1.3v.1l.3.5.3.3.1.1.1.1.3.2.3.1.3.1H249.7l.4-.2.1-.1.1-.1.2-.2.5-.6.1-.1.2.2.2.2.1.1.1.1.1.1.1.1-.3.3-.1.1-.1.1-.5.4-.1.1-.1.1-.1.1-.1.1-.1.1-.1.1-.3.1-.4.1H249l-.2-.2zm-.2-7.3h-.7l-.2.1h-.1l-.1.1-.3.1-.1.1-.1.1-.1.1-.3.3-.2.3-.2.3-.1.2V34.4h4.9v-.3l-.1-.3V33.5l-.1-.1-.1-.2-.1-.1-.3-.4-.1-.1-.1-.1-.1-.1-.3-.2-.1-.1-.4-.1h-.1l-.5-.1zM257.3 39.1H256.4l-.4-.1h-.4l-.2-.1h-.1l-.2-.1-.1-.1-.2-.1-.4-.2-.1-.1-.5-.3.2-.3.1-.1.2-.2.2-.3.1-.1.1.1.1.1.1.1.1.1.3.1.1.1.3.1h.2l.1.1.5.1H257.6l.3-.1.1-.1.2-.1.1-.1.1-.1.2-.2.1-.1V36.5l-.1-.2-.1-.2-.3-.3-.1-.1-.1-.1-.4-.1-.1-.1-.7-.2h-.1l-.7-.2-.3-.1-.4-.2-.5-.3-.2-.2-.2-.2-.1-.1-.1-.1v-.1l-.1-.3V32.8l.1-.3v-.2l.1-.1.1-.1.2-.3.1-.1.1-.1.2-.2.3-.1.3-.1.1-.1H256l.3-.1H257.8l.3.1h.4l.3.1h.2l.1.1.2.1.1.1.3.2.1.1.1.1-.1.1-.1.1-.4.6-.1.1-.3-.2-.1-.1-.1-.1-.1-.1-.1-.1h-.1l-.1-.1-.6-.2H256.4l-.3.1-.1.1-.1.1-.1.1-.1.1-.1.1V33.1l.1.2.1.1.1.1.2.2.2.1.1.1h.2l.4.1h.2l.4.1h.2l.1.1h.1l.1.1h.1l.2.1.4.2.1.1.1.1.1.1.1.1.1.1.3.3.4.6v1.1l-.1.3-.1.3-.1.1-.2.4-.1.1-.2.2-.1.1-.1.1-.4.2-.1.1-.4.1h-.8zM266.1 39.2H265l-.4-.1-.3-.1-.1-.1-.3-.1-.4-.3-.1-.1-.4-.4-.1-.1-.2-.2-.1-.1-.1-.1-.1-.1-.2-.3-.2-.5-.1-.3v-2l.1-.5v-.1l.1-.3v-.1l.1-.3.1-.1.1-.1.1-.1.1-.1.1-.1.2-.2.1-.1.2-.2.1-.1.4-.3.2-.2.1-.1.3-.1.4-.1.4-.1h1.3l.4.1.3.1.3.1.1.1.1.1.5.3.1.1.1.1.3.3.1.1.2.3.1.1.2.4.1.3.1.3.1.4V35.7h-6.3v.5l.1.3v.1l.3.5.3.3.1.1.1.1.3.2.3.1.3.1H266.9l.4-.2.1-.1.1-.1.2-.2.3-.3.1-.1.2.2.2.2.1.1.1.1.1.1.1.1.1.2-.1.1-.1.1-.5.4-.1.1-.1.1-.1.1-.1.1-.1.1-.1.1-.3.1-.4.1H266.4l-.3-.2zm-.2-7.3h-.7l-.2.1h-.1l-.1.1-.3.1-.1.1-.1.1-.1.1-.3.3-.2.3-.2.3-.1.2V34.4h4.9v-.3l-.1-.3V33.5l-.1-.1-.1-.2-.1-.1-.3-.4-.1-.1-.1-.1-.1-.1-.3-.2-.1-.1-.4-.1h-.1l-.5-.1zM278.4 39H277v-1.2l-.4.4-.1.1-.1.1-.1.1-.1.1-.3.1-.4.2-.3.1h-.2l-.3.1H273.4l-.3-.1-.3-.1-.2-.1-.1-.1-.1-.1-.1-.1-.1-.1-.1-.1-.1-.1-.2-.2-.2-.2-.2-.3-.1-.1-.1-.2V36l.1-.4.1-.1.1-.1.1-.1.2-.2.1-.1.2-.2.3-.2.3-.1.1-.1.4-.1.4-.1h1.5l.6.1.4.1h.4l.4.1V33.9l-.1-.3v-.1l-.1-.1-.1-.1-.1-.1-.1-.1-.1-.1-.1-.1-.1-.1-.1-.1-.1-.1-.1-.1-.1-.1H273.5l-.3.1-.3.1h-.1l-.1.1-.2.1-.1.1v-.1l-.1-.1-.1-.3-.1-.1v-.1l-.1-.2v-.1l.3-.1h.1l.1-.1.3-.1.1-.1H273.2l.4-.1h.1l.8-.1h1.9l.3.1.1.1.1.1.2.1.2.2.1.1.2.2.2.2.1.2.1.2.1.1.1.3v.5l.1.6V39zm-4.1-1h.8l.3-.1.6-.2.1-.1.1-.1.1-.1.3-.3.1-.1.2-.2.1-.1.1-.3v-1h-.1l-.3-.1h-.1l-.3-.1-.3-.1-.6-.1h-1.1l-.3.1-.4.1-.1.1-.1.1-.1.1-.1.1-.1.1-.2.2-.1.1-.1.1-.1.3V37.1l.1.1.1.1.2.2.3.2.1.1.1.1.3.1h.5zM280.9 30.9h1.4v1.9l.1-.1.1-.1.1-.1.1-.1.1-.1.1-.1.1-.1.1-.1.1-.1.1-.1.1-.1.1-.1.1-.1.1-.1.2-.1.1-.1V31l.1-.1.4-.1h1v1.3h-.7l-.3.1h-.2l-.1.1-.2.1-.1.1-.5.4-.2.2-.2.2-.1.1-.1.1-.1.1-.3.7V39H281v-8.1zM290.9 39.2h-.8l-.5-.1-.4-.1-.3-.1-.1-.1-.1-.1-.1-.1-.4-.3-.3-.3-.3-.3-.1-.1-.1-.1-.1-.2-.1-.1-.1-.3-.2-.4-.1-.3v-.4l-.1-.6v-.3l.1-.6v-.6l.1-.3.1-.4.1-.3.2-.4.2-.2.1-.1.1-.1.1-.1.4-.4.1-.1.3-.2.1-.1.1-.1.1-.1.3-.1H289.5l.5-.1H291.7l.4.1.4.2.1.1.4.2.1.1.1.1.5.5.1.1-.1.1-.1.1-.2.2-.1.1-.2.2-.1.1-.1.1.1.1-.1-.1-.1-.1-.1-.1-.2-.2-.1-.1-.1-.1-.1-.1-.4-.2h-1.7l-.3.1-.3.1-.3.2-.1.1-.3.3-.1.1-.1.1-.1.1-.1.1-.1.1-.1.2-.1.1-.1.3V35.5l.1.4.1.1.1.2.3.4.1.1.2.2.1.1.1.1.1.1.3.2.2.1.1.1.3.1.3.1h1.6l.3-.1.1-.1.1-.1.1-.1.1-.1.1-.1.1-.1.1-.1.1-.1.1-.1.1.1.4.4.3.3-.3.3-.3.3-.1.1-.1.1-.1.1-.1.1-.3.1-.1.1-.1.1h-.1l-.2.1-.3.1h-.8l-.2.1zM296.1 27.6h1.4v4.6l.1-.1.2-.2.2-.2.2-.2.1-.1.1-.1.1-.1.1-.1.1-.1.2-.1.1-.1h.2l.4-.1h1l.4.1h.2l.4.2.1.1.1.1.2.2.1.1.1.1.2.2.1.1.1.1.2.4v.2l.1.3V39h-1.4V33.4l-.1-.3-.1-.1-.1-.2-.1-.1-.1-.1-.1-.1-.1-.1-.2-.2-.1-.1-.1-.1h-1.2l-.3.1-.3.1-.3.1-.2.2-.1.1-.2.2-.1.1-.1.1-.1.1-.1.1-.1.1-.1.1-.1.4V39h-1.4V27.6zM313.7 39.1H312.4l-.1-.1h-.2l-.2-.1-.1-.1-.1-.1-.1-.1-.1-.1-.4-.3-.1-.1-.1-.1-.1-.1-.2-.2-.1-.1-.1-.3-.1-.4V35.4l.2-.4.2-.4.3-.3.3-.3.4-.3.3-.1.1-.1.2-.1.3-.1.2-.1-.2-.3-.1-.1-.1-.1-.1-.1-.2-.2-.1-.3-.1-.1-.1-.3v-1.1l.1-.3v-.1l.1-.2.1-.3.1-.3.3-.3.1-.1.4-.3.1-.1.2-.1.1-.1.3-.1.3-.1h1.5l.3.1.3.1.3.1.1.1.1.1.1.1.1.1.2.2.1.1.1.1.3.5.1.4v1.2l-.1.4-.1.1-.2.2-.2.2-.2.2-.5.4-.3.2-.1.1-.1.1-.6.3-.2.1.2.2.3.3.1.1.2.2.3.3.1.1.2.2.1.1.1.1.1.1.4.4.1.1.2-.3.1-.1.1-.3.3-.5.1-.7.1-.3.1-.1.1-.1.1-.1.1.1.1.1.1.1.1.1.4.2.1.1-.1.3-.1.1-.1.3-.1.1-.1.1-.1.1-.1.1-.1.1-.1.1-.1.1-.1.1-.1.1-.1.1-.1.1-.1.1-.2.2-.1.1-.1.1.3.3.1.1.1.1.2.2.1.1.2.2.2.2.1.1.1.1.4.4-.8.6-.1.1-.1.1-.1-.1-.1-.1-.2-.2-.2-.2-.1-.1-.1-.1-.8-.8-.2.2-.4.3-.1.1-.1.1-.3.2-.3.2-.5.3-.6.2-.3.1h-.1zm-.2-1.2h.6l.3-.1h.2l.3-.1.1-.1.4-.2.4-.3.2-.2.1-.1.1-.1-.6-.7-.2-.2-.1-.1-.2-.2-.1-.1-.2-.2-.1-.1-.2-.2-.1-.1-.1-.1-.1-.1-.6-.7-.2.1-.2.1-.1.1-.2.1-.1.1-.1.1-.2.2-.1.1-.2.2-.1.1-.2.3-.1.3-.1.3v.5l.1.3v.1l.1.1.1.1.1.1.1.1.2.2.1.1.3.2.3.1.3.1h.2l-.1-.1zm2.4-7.3v-.3l-.1-.3v-.1l-.1-.1-.1-.1-.2-.2-.1-.1-.1-.1-.1-.1-.3-.1-.3-.1h-.6l-.2.1-.1.1-.1.1-.1.1-.1.1-.2.2-.1.1-.1.1v.1l-.1.3v.9l.1.2.2.3.1.1.3.4.1.1.2-.1.2-.1.3-.2.2-.1.1-.1.4-.3.2-.2.1-.1.1-.1.1-.1.1-.1v-.1l.1-.2.2.1zM326.6 39V28.1h4.2l.8.1.3.1h.1l.3.1.5.2.1.1.3.1.5.3.1.1.5.4.3.3.5.6.2.4.1.1.1.1.1.1.1.1.1.1v.1l.1.1.1.3v.1l.1.1.1.3V34.9l-.2.1v.4l-.1.1v.1l-.1.2-.3.5-.2.2-.1.1-.3.3-.3.3-.1.1-.1.1-.1.1-.2.2-.1.1-.5.3-.1.1-.3.1-.2.1-.1.1h-.1l-.1.1h-.5l-.3.1-.8.3h-4.4zm1.5-9.6v8.3H331.4l.3-.1.6-.2.2-.1.3-.1.1-.1.1-.1.1-.1.1-.1.3-.3.2-.2.2-.2.1-.1.1-.1.3-.6.1-.1v-.1l.1-.1V32.7l-.1-.3V32.1l-.1-.1v-.2l-.2-.4-.1-.1-.1-.1-.1-.1.1-.1-.1-.1-.3-.3-.1-.1-.3-.3-.1-.1-.1-.1-.3-.1-.3-.1-.2-.1-.4-.1h-3.7zM338.7 27.9h1.6v1.3h-1.6v-1.3zm.1 3h1.4V39h-1.4v-8.1zM345.9 39.1H345l-.3-.1h-.4l-.2-.1h-.1l-.2-.1-.1-.1-.2-.1-.4-.2-.1-.1-.5-.3.2-.3.1-.1.2-.2.2-.3.1-.1.1.1.1.1.1.1.1.1.3.1.1.1.3.1h.2l.1.1.5.1H346.3l.3-.1.1-.1.2-.1.1-.1.1-.1.2-.2.1-.1V36.5l-.1-.2-.1-.2-.3-.3-.1-.1-.1-.1-.4-.1-.1-.1-.7-.2h-.1l-.7-.2-.3-.1-.4-.2-.5-.3-.2-.2-.2-.2-.1-.1-.1-.1v-.1l-.1-.3V32.8l.1-.3v-.2l.1-.1.1-.1.2-.3.1-.1.1-.1.2-.2.3-.1.3-.1.1-.1H344.7l.3-.1H346.5l.3.1h.4l.3.1h.2l.1.1.2.1.1.1.3.2.1.1.1.1-.1.1-.1.1-.4.6-.1.1-.3-.2-.1-.1-.1-.1-.1-.1-.1-.1h-.1l-.1-.1-.6-.2H345.1l-.3.1-.1.1-.1.1-.1.1-.1.1-.1.1V33.1l.1.2.1.1.1.1.2.2.2.1.1.1h.2l.4.1h.2l.4.1h.2l.1.1h.1l.1.1h.1l.2.1.4.2.1.1.1.1.1.1.1.1.1.1.3.3.1.3v1.1l-.1.3-.1.3-.1.1-.2.4-.1.1-.2.2-.1.1-.1.1-.4.2-.1.1-.4.1H345.8l.1.3zM353.7 39.1H352.8l-.3-.1h-.4l-.2-.1h-.1l-.2-.1-.1-.1-.2-.1-.4-.2-.1-.1-.5-.3.2-.3.1-.1.2-.2.2-.3.1-.1h-.1l.1.1.1.1.1.1.3.1.1.1.3.1h.2l.1.1.5.1H353.9l.3-.1.1-.1.2-.1.1-.1.1-.1.2-.2.1-.1V36.4l-.1-.2-.1-.2-.3-.3-.1-.1-.1-.1-.4-.1-.1-.1-.7-.2h-.1l-.7-.2-.3-.1-.4-.2-.5-.3-.2-.2-.2-.2-.1-.1-.1-.1v-.1l-.1-.3V32.7l.1-.3v-.2l.1-.1.1-.1.2-.3.1-.1.1-.1.2-.2.3-.1.4-.2.1-.1H352.4l.3-.1H354.2l.3.1h.4l.3.1h.2l.1.1.2.1.1.1.3.2.1.1.1.1-.1.1-.1.1-.4.6-.1.1-.3-.2-.1-.1-.1-.1-.1-.1-.1-.1h-.1l-.1-.1-.6-.2H352.8l-.3.1-.1.1-.1.1-.1.1-.1.1-.1.1V32.9l.1.2.1.1.1.1.2.2.2.1.1.1h.2l.4.1h.2l.4.1h.2l.1.1h.1l.1.1h.1l.2.1.4.2.1.1.1.1.1.1.1.1.1.1.3.3.1.3v1.1l-.1.3-.1.3-.1.1-.2.4-.1.1-.2.2-.1.1-.1.1-.4.2-.1.1-.4.1H353.5l.2.5zM362.5 39.2H361.4l-.4-.1-.3-.1-.1-.1-.3-.1-.4-.3-.1-.1-.2-.2-.1-.1-.2-.2-.1-.1-.1-.1-.1-.1-.2-.3-.2-.5-.1-.3v-2l.1-.5v-.1l.1-.3v-.1l.1-.3.1-.1.1-.1.1-.1.1-.1.1-.1.2-.2.1-.1.2-.2.1-.1.4-.3.2-.2.1-.1.3-.1.4-.1.4-.1h1.3l.4.1.3.1.3.1.1.1.1.1.5.3.1.1.1.1.3.3.1.1.2.3.1.1.2.4.1.3.1.3.1.4V35.9h-6.3v.5l.1.3v.1l.3.5.3.3.1.1.1.1.3.2.3.1.3.1H363.5l.4-.2.1-.1.1-.1.2-.2.3-.3.1-.1.2.2.2.2.1.1.1.1.1.1.1.1-.3.3-.1.1-.1.1-.5.4-.1.1-.1.1-.1.1-.1.1-.1.1-.1.1-.3.1-.4.1H362.6l-.1-.5zm-.2-7.3h-.7l-.2.1h-.1l-.1.1-.3.1-.1.1-.1.1-.1.1-.3.3-.2.3-.2.3-.1.2V34.4h4.9v-.3l-.1-.3V33.5l-.1-.1-.1-.2-.1-.1-.3-.4-.1-.1-.1-.1-.1-.1-.3-.2-.1-.1-.4-.1h-.1l-.5-.1zM368.1 30.9h1.4v1.3l.1-.1.1-.1.1-.1.1-.1.1-.1.3-.3.1-.1.2-.2.1-.1.1-.1.3-.1.3-.1h1.2l.3.1H373.2l.1.1.1.1.1.1.1.1.1.1.1.1.3.3.2.2.1.1.1.1.1.1.1-.1.1-.1.1-.1.3-.3.1-.1.1-.1.4-.3.2-.1.4-.1h1.5l.5.1H378.7l.1.1.3.1.1.1.1.1.1.1.1.1.1.1.1.1.1.1.1.1.1.1.1.1.1.3V39H379v-5.2l-.1-.3-.1-.3v-.1l-.1-.1-.2-.3-.1-.1-.1-.1-.2-.2-.3-.1H376.8l-.4.1h-.1l-.3.2-.2.2-.1.1-.2.2-.1.1-.1.1-.1.1V39h-1.4v-5.2l-.1-.3-.1-.4-.1-.1-.1-.1-.2-.2-.1-.1-.2-.2-.1-.1-.3-.1h-.1l-.3-.1H371l-.3.1-.2.2-.3.3-.1.1-.1.3-.1.3-.1.3V39h-1.4v-8.1zM383.1 27.9h1.6v1.3h-1.6v-1.3zm.1 3h1.4V39h-1.4v-8.1zM387.4 30.9h1.4v1.4l.1-.1.2-.2.2-.2.2-.2.1-.1.1-.1.1-.1.1-.1.1-.1.2-.1.1-.1h.2l.4-.1h1l.4.1h.2l.4.2.1.1.1.1.2.2.1.1.1.1.2.2.1.1.1.1.2.4v.2l.1.3v6h-1.4V33.4l-.1-.3-.1-.1-.1-.2-.1-.1-.1-.1-.1-.1-.1-.1-.2-.2-.1-.1-.1-.1h-1.2l-.3.1-.3.1-.3.1-.2.2-.1.1-.2.2-.1.1-.1.1-.1.1-.1.1-.1.1-.1.1-.1.4V39H387v-8.1zM403.8 39h-1.4v-1.2l-.4.4-.1.1-.1.1-.1.1-.1.1-.3.1-.4.2-.3.1h-.2l-.3.1H398.7l-.3-.1-.3-.1-.2-.1-.1-.1-.1-.1-.1-.1-.1-.1-.1-.1-.1-.1-.2-.2h-.1l-.2-.3-.1-.1-.1-.2v-1.2l.1-.4.1-.1.1-.1.1-.1.2-.2.1-.1.2-.2.3-.2.3-.1.1-.1.4-.1.4-.1h1.5l.6.1.4.1h.4l.4.1V34.1l-.1-.3v-.1l-.1-.1-.1-.1-.1-.1-.1-.1-.1-.1-.1-.1-.1-.1-.1-.1-.1-.1-.1-.1-.1-.1H398.9l-.3.1-.3.1h-.1l-.1.1-.2.1-.1.1V33l-.1-.1-.1-.3-.1-.1v-.1l-.1-.2v-.1l.3-.1h.1l.1-.1.3-.1.1-.1H398.6l.4-.1h.1l.8-.1h1.9l.2-.5.1.1.1.1.2.1.2.2.1.1.2.2.2.2.1.2.1.2.1.1.1.3v.5l.1.6V39zm-4.1-1h.8l.3-.1.6-.2.1-.1.1-.1.1-.1.3-.3.1-.1.2-.2.1-.1.1-.3v-1h-.1l-.3-.1h-.1l-.3-.1-.3-.1-.6-.1H399.6l-.3.1-.4.1-.1.1-.1.1-.1.1-.1.1-.1.1-.2.2-.1.1h-.1l-.1.3V37l.1.1.1.1.2.2.3.2.1.1.1.1.3.1H399.4l.3.1zM406.7 32.1h-1.1v-1.2h1.1v-2.4h1.4v2.4h2.5v1.2h-2.5v5l.1.3.1.1.1.1.1.1.1.1.1.1H409.4l.4-.1h.1l.1-.1.2-.1v1.2l-.1.1-.1.1h-1.2l-.4-.1-.1-.1h-.1l-.1-.1-.2-.2-.2-.2-.1-.1-.1-.1-.1-.1h-.4l-.1-.2-.1-.1-.1-.4v-5.2zM412.8 27.9h1.6v1.3h-1.6v-1.3zm.1 3h1.4V39h-1.4v-8.1zM421 39.2H419.6l-.3-.1-.1-.1-.2-.1-.1-.1-.1-.1-.3-.2-.2-.2-.1-.1-.1-.1-.3-.3-.2-.2-.2-.2-.1-.3-.1-.1-.1-.1-.2-.4-.1-.3v-.4l-.1-.6v-.3l.1-.6v-.6l.3-.7.1-.1.1-.1.4-.6.3-.3.1-.1.1-.1.4-.3.3-.1.1-.1.1-.1.1-.1.4-.1H421.3l.4.1h.1l.4.1.1.1.1.1.1.1.3.1.2.2.1.1.1.1.1.1.1.1.1.1.5-.2.1.1.2.2.2.2.1.1.1.1.1.3.1.1.2.4v.4l.1.6v.3l-.1.6v.5l-.1.1-.1.1v.1l-.2.4-.1.1-.1.1-.1.1-.1.1-.1.1-.4.4-.1.1-.6.4-.3.1-.3.1-.1.1-.4.7-.6.1H421.1l-.1.1zm-.2-1.3h.6l.3-.1.3-.1.3-.1.4-.3.3-.3.1-.1.1-.1.1-.1.1-.1.1-.1.1-.2.1-.1V34l-.1-.3-.3-.5-.2-.2-.2-.2-.1-.1-.3-.2-.1-.1-.1-.1-.1-.1-.3-.1-.3-.1h-.7l-.4.1-.3.1-.3.1-.4.3-.1.1-.2.2-.2.2-.3.4-.1.3-.1.1v.1l-.1.3v1l.1.3V35.9l.1.1v.1l.1.1.3.5.3.3.1.1.1.1.4.3.3.1.3.1h.5l-.2.2zM427.3 30.9h1.4v1.4l.1-.1.2-.2.2-.2.2-.2.1-.1.1-.1.1-.1.1-.1.1-.1.2-.1.1-.1h.2l.4-.1h1l.4.1h.2l.4.2.1.1.1.1.2.2.1.1.1.1.2.2.4.1.1.1.2.4v.2l.1.3v6H433V33.4l-.1-.3-.1-.1-.1-.2-.1-.1-.1-.1-.1-.1-.1-.1-.2-.2-.1-.1-.1-.1h-1.2l-.3.1-.3.1-.3.1-.2.2-.1.1-.2.2-.1.1-.1.1-.1.1-.1.1-.1.1-.1.1-.1.4V39h-1.4v-8.1z"/></g><g fill="#FFF"><path d="M239.2 55.2H237l-.3-.1-.5-.2-.3-.2-.1-.1-.5-.3-.1-.1-.2-.2-.3-.3-.4-.6-.1-.3-.1-.1-.1-.1-.3-.7-.1-.4-.1-.6V49.1l.1-.6.1-.4.3-.7.3-.5.3-.5.2-.2.3-.3.1-.1.1-.1.1-.1.4-.3.1-.1.3-.1.1-.1.1-.1.1-.1.1-.1h.1l.1-.1.3-.1.7-.1H240.3l.7.2.1.1.2.1.5.3.1.1.4.3.1.1.1.1.2.2.1.1-.4.5-.5.6-.2-.2-.1-.1-.5-.4-.3-.2-.1-.1-.1-.1-.1-.1-.3-.1-.1-.1-.3-.1-.3-.1H238l-.3.1H237.4l-.3.1-.3.1-.1.1-.1.1-.1.1-.1.1-.1.1-.4.4-.3.3-.3.5-.1.1-.1.1-.1.1-.1.1v.1l-.1.2-.1.3V50.9l.1.1v.1l.1.1.1.1.1.1.2.2.2.2.1.1.3.3.3.3.2.2.2.2.7.3H237.6l.4.1H239.8l.3-.1.3-.1.1-.1.1-.1.1-.1.4-.2.1-.1.3-.3.1-.1.1-.1.1-.1.3.3.1.1.1.1.4.4-.1.1-.1.1-.2.2-.1.1-.1.1-.5.4-.5.3-.1.1-.1.1-.1.1h-.1l-.1.1-.3.1-.3.1-.3.1h-.8l.3.4zM249.1 55.2H248l-.4-.1-.3-.1-.1-.1-.3-.1-.4-.3-.1-.1-.4-.4-.1-.1-.2-.2-.1-.1-.1-.1-.1-.1-.2-.3-.2-.5-.1-.3v-2l.1-.5v-.1l.1-.3v-.1l.1-.3.1-.1.1-.1.1-.1.1-.1.1-.1.2-.2.1-.1.2-.2.1-.1.4-.3.2-.2.1-.1.3-.1.4-.1.4-.1h1.3l.4.1.3.1.3.1.1.1.1.1.5.3.1.1.1.1.3.3.1.1.2.3.1.1.2.4.1.3.1.3.1.4V51.7h-6.3v.5l.1.3v.1l.3.5.3.3.1.1.1.1.3.2.3.1.3.1H249.9l.4-.2.1-.1.1-.1.2-.2.3-.3.1-.1.2.2.2.2.1.1.1.1.1.1.1.1-.3.3-.1.1-.1.1-.5.4-.1.1-.1.1-.1.1-.1.1-.1.1-.1.1-.3.1-.4.1H249l.1-.3zm-.2-7.3h-.7l-.2.1h-.1l-.1.1-.3.1-.1.1-.1.1-.1.1-.3.3-.2.3-.2.3-.1.2V50.4h4.9v-.3l-.1-.3V49.5l-.1-.1-.1-.2-.1-.1-.3-.4-.1-.1-.1-.1-.1-.1-.3-.2-.1-.1-.4-.1h-.1l-.5-.1zM254.7 46.9h1.4v1.4l.1-.1.2-.2.2-.2.2-.2.1-.1.1-.1.1-.1.1-.1.1-.1.2-.1.1-.1h.2l.4-.1h1l.4.1h.2l.4.2.1.1.1.1.2.2.1.1.1.1.2.2.1.1.1.1.2.4v.2l.1.3v6h-1.4V49.4l-.1-.3-.1-.1-.1-.2-.1-.1-.1-.1-.1-.1-.1-.1-.2-.2-.1-.1-.1-.1h-1.2l-.3.1-.3.1-.3.1-.2.2-.1.1-.2.2-.1.1-.1.1-.1.1-.1.1-.1.1-.1.1-.1.4V55h-1.4v-8.1zM264.9 48.1h-1.1v-1.2h1.1v-2.4h1.4v2.4h2.5v1.2h-2.5v5l.1.3.1.1.1.1.1.1.1.1.1.1H267.6l.4-.1h.1l.1-.1.2-.1v1.2l-.1.1-.1.1-.3.1h-1.2l-.4-.1-.1-.1h-.1l-.1-.1-.2-.2-.2-.2-.1-.1-.1-.1-.1-.1-.1-.1-.1-.2-.1-.1-.1-.4v-5.2zM274.5 55.2H273.4l-.4-.1-.3-.1-.1-.1-.3-.1-.4-.3-.1-.1-.2-.2-.1-.1-.2-.2-.1-.1-.1-.1-.1-.1-.2-.3-.2-.5-.1-.3v-2l.1-.5v-.1l.1-.3v-.1l.1-.3.1-.1.1-.1.1-.1.1-.1.1-.1.2-.2.1-.1.2-.2.1-.1.4-.3.2-.2.1-.1.3-.1.4-.1.4-.1h1.3l.4.1.3.1.3.1.1.1.1.1.5.3.1.1.1.1.3.3.1.1.2.3.1.1.2.4.1.3.1.3.1.4V51.9h-6.3v.5l.1.3v.1l.3.5.3.3.1.1.1.1.3.2.3.1.3.1H275.5l.4-.2.1-.1.1-.1.2-.2.3-.3.1-.1.2.2.2.2.1.1.1.1.1.1.1.1-.3.3-.1.1-.1.1-.5.4-.1.1-.1.1-.1.1-.1.1-.1.1-.1.1-.3.1-.4.1H274.6l-.1-.5zm-.3-7.3h-.7l-.2.1h-.1l-.1.1-.3.1-.1.1-.1.1-.1.1-.3.3-.2.3-.2.3-.1.2V50.4h4.9v-.3l-.1-.3V49.5l-.1-.1-.1-.2-.1-.1-.3-.4-.1-.1-.1-.1-.1-.1-.3-.2-.1-.1-.4-.1h-.1l-.5-.1zM280.1 46.9h1.4v1.9l.1-.1.1-.1.1-.1.1-.1.1-.1.1-.1.1-.1.1-.1.1-.1.1-.1.1-.1.1-.1.1-.1.1-.1.2-.1.1-.1.1-.1.1-.1.4-.1h1v1.3h-.7l-.3.1h-.2l-.1.1-.2.1-.1.1-.5.4-.2.2-.2.2-.1.1-.1.1-.1.1-.3.7V55h-1.4v-8.1z"/></g><g fill="#FFF"><path d="M47.2 11.1H57l.3.5.4.5.3.5.3.5.4.5.3.5.3.5.4.5.3.5.3.5.4.5.3.5.3.5.4.5.3.5.3.5.4.5.3.5.3.5.3.5.4.5.3.5.3.5.4.5.3.5.3.5.4.5.3.5.3.5.4.5.3.5.3.5.4.5.3.5.3.5.4.5.3.5.3-.5.4-.5.3-.5.3-.5.4-.5.3-.5.3-.5.4-.5.3-.5.4-.5.3-.5.3-.5.4-.5.3-.5.3-.5.4-.5.3-.5.3-.5.4-.5.3-.5.3-.5.4-.5.3-.5.3-.5.4-.5.3-.5.3-.5.4-.5.3-.5.4-.5.3-.5.3-.5.4-.5.3-.5.3-.5.4-.5.3-.5h4.6-.3 4.6V54.8h-9.1V25.6l-.4.5-.3.5-.4.5-.3.5-.4.5-.3.5-.4.5-.3.5-.4.5-.3.5-.4.5-.3.5-.4.5-.3.5-.4.5-.3.5-.4.5-.3.5-.4.5-.4.5-.3.5-.4.5-.3.5-.4.5-.3.5-.4.5-.3.5-.4.5-.3.5-.4.5-.3.5-.4.5-.3.5-.4.5-.3.5-.4.5-.3.5-.4.5h-.2l-.3-.5.4-.4-.3-.5-.4-.5-.3-.4-.4-.5-.3-.5-.3-.5-.3-.5-.4-.5-.3-.5-.4-.5-.3-.5-.3-.5-.3-.5-.4-.5-.3-.5-.4-.5-.3-.5-.3-.5-.4-.5-.3-.5-.4-.5-.3-.5-.4-.5-.3-.5-.4-.5-.3-.5-.4-.5-.3-.5-.4-.5-.3-.5-.4-.5-.3-.5-.4-.5-.3-.5-.4-.5-.3-.5V54.8H47.2V11.1zM116.9 10.8H125.5l.2.5.2.5.2.5.2.6.2.5.2.5.2.5.2.5.2.5.2.6.2.5.2.5.2.5.2.5.7 1 .2.6.2.5.2.5.2.5.2.5.2.5.2.6.2.5.2.5.2.5.2.5.2.5.2.6.2.5.2.5.2.5.2.5.2.5.2.6.2.5.2.5.2.5.2.5.2.5.2.5.2.6.2.5.2.5.2.5.2.5.2.5.2.6.2.5.2.5.2.5.2.5.2.5.2.6.2.5.2.5.2.5.2.5.2.5.2.6.2.5.2.5.2.5.2.5.2.5.2.6.2.5.2.5.2.5.2.5.2.5.2.6.2.5.2.5.2.5L143 52l.2.5.2.6.2.5.2.5.2.5H134.5l-.2-.5-.2-.5-.2-.6-.2-.5-.2-.5-.2-.5-.2-.6-.2-.5-.2-.5-.2-.5-.2-.5-.2-.6-.2-.5-.2-.5-.2-.5-.2-.6-.2-.5-.2-.5h-19.3l-.2.5-.2.5-.2.6-.2.5-.2.5-.2.5-.2.6-.2.5-.2.5-.2.5-.2.5-.2.6-.2.5-.2.5-.2.5-.2.6-.2.5-.2.5H98.1l.2-.5.2-.5.2-.5.2-.6.2-.5.2-.5.2-.5.2-.5.2-.5.2-.6.2-.5.2-.5.2-.5.2-.5.2-.5.2-.6.2-.5.2-.5.2-.5.2-.5.2-.5.2-.6.2-.5.2-.5.2-.5.2-.5.2-.5.2-.6.2-.5.2-.5.2-.5.2-.5.2-.5L106 36l.2-.5.2-.5.2-.5.2-.5.2-.5.2-.6.2-.5.2-.5.2-.5.2-.5.2-.5.2-.5.2-.6.2-.5.2-.5.2-.5.2-.5.2-.5.2-.6.2-.5.2-.5.2-.5.2-.5.2-.5.2-.6.2-.5.2-.5.2-.5.2-.5.2-.5.2-.6.2-.5.2-.5.2-.5.2-.5.2-.5.2-.6.2-.5.2-.5.2-.5.2-.5.2-.5.2-.6.2-.5.2-.5 1.9-2zm10.3 25.8l-.2-.5-.2-.5-.2-.5-.2-.6-.2-.5-.2-.5-.2-.5-.2-.5-.2-.5-.2-.5-.2-.6-.2-.5-.2-.5-.2-.5-.2-.5-.2-.5-.2-.6-.2-.5-.2-.5-.2-.5-.2-.5-.2-.5-.2-.5-.2-.6-.2-.5-.2-.5-.2-.5-.2.5-.2.5-.2.5-.2.6-.2.5-.2.5-.2.5-.2.5-.2.5-.2.5-.2.6-.2.5-.2.5-.2.5-.2.5-.2.5-.2.6-.2.5-.2.5-.2.5-.2.5-.2.5-.2.5-.2.6-.2.5-.2.5-.2.5H127.9h-.7zM166.5 55.4h-1.2l-.5-.1-.6-.1h-.6l-.6-.1-.5-.1-.6-.1-.6-.1-.5-.1-.6-.1-.5-.1-.6-.2-.5-.1-.5-.2-.6-.2-.5-.2-.5-.2-.5-.2-.5-.2-.5-.2-.5-.2-.5-.2-.5-.3-.5-.3-.5-.3-.5-.4-.5-.3-.5-.4-1-.4-.5-.4-.5-.4-.5-.4-.5-.4.4-.5.4-.5.4-.4.4-.5.4-.5.4-.5.4-.5.4-.4.4-.5.4-.5.4-.5.4-.4.4-.5.4-.5.5.4.5.4.5.4.5.4.5.4.5.3.5.4.5.3.5.3.5.2.5.3.5.2.5.2.5.2.5.2.6.2.5.2.6.1.6.1.6.1.6.1.6.1.6.1h1.4l.7-.1.7-.1.7-.1.5-.2.5-.2.5-.2.5-.3.5-.4.4-.5.4-.5.2-.5.1-.6.1-.7v-.1l-.1-.6-.1-.6-.2-.5-.3-.5-.5-.5-.5-.5-.5-.2-.5-.2-.5-.3-.6-.2-.7-.2-.5-.2-.5-.1-.5-.2-.5-.2-.6-.1-.6-.2-.7-.2-.7-.2-.7-.2-.7-.2-.7-.2-.6-.2-.6-.2-.6-.2-.6-.2-.5-.2-.5-.2-.5-.2-.6-.2-.6-.2-.5-.2-.5-.2-.5-.3-.5-.2-.5-.3-.4-.4-.4-.3-.5-.4-.4-.4-.4-.4-.4-.5-.4-.5-.4-.5-.3-.5-.2-.5-.2-.5-.2-.5-.1-.5-.2-.6-.1-.6-.1-.6-.1-.7-.1-.7v-1.5l.1-.6.1-.7.5-.6.1-.6.1-.5.2-.6.2-.5.2-.5.2-.5.3-.5.3-.5.4-.5.4-.5.4-.4.4-.4.4-.4.5-.4.4-.4.5-.4.5-.3.5-.3.5-.3.5-.3.5-.2.6-.2.7-.2.5-.1.5-.2.6-.1.6-.1.6-.1.7-.1.6-.1h.7l.7-.1h2l.6.1.7.1.6.1.6.1.6.1.5.1.6.1.6.1.5.2.5.1.6.2.5.1.5.2.5.2.5.2.6.2.5.2.5.2.5.3.5.2.5.3.5.4.5.3.5.4.5.4.5.4.5.4-.4.5-.4.5-.3.5-.4.5-.4.5.1.1-.3.5-.4.5-.4.5-.4.5-.4.5-.3.5-.4.5-.4.5-.5-.4-.5-.4-.5-.4-.5-.3-.5-.4-.5-.2-.5-.3-.5-.2-.5-.3-.5-.1-.5-.2-.6-.2-.6-.2-.5-.2-.6-.1-.5-.1-.6-.1-.5-.1-.6-.1-.5-.1H164.2l-.7.1-.6.1-.5.1-.5.2-.5.2-.4.2-.4.3-.5.4-.4.4-.3.5-.2.5-.1.5-.1.5v.1l.1.7.1.7.2.5.2.4.4.4.4.4.5.4.5.2.5.3.6.2.7.2.7.2.5.2.5.2.5.2.5.1.6.2.7.2.7.2.7.2.7.2.7.2.6.2.7.2.6.2.6.2.5.2.5.2.5.2.5.2.7.3.6.2.5.4.6.3.5.3.5.4.5.4.5.4.4.4.4.4.4.4.4.4.3.5.3.5.2.5.3.5.2.5.2.6.2.5.1.6.1.7.1.6.1.7v1.5l-.1.6-.1.6-.1.6-.1.6-.1.5-.2.5-.1.5-.2.5-.2.5-.3.6-.3.5-.3.5-.4.5-.4.5-.4.4-.4.4-.4.4-.4.4-.5.4-.4.3-.5.3-.5.3-.5.3-.5.2-.5.2-.5.2-.5.2-.6.2-.5.2-.5.1-.5.1-.6.1-.5.1-.6.1-.6.1-.6.1-.6.1h-1.6zM200.8 19.6H187.4V11H223.5V19.6H210V54.8H200.7V19.6z"/></g><path fill="#FFF" d="M24.3 20.5h8.4v34.2h-8.4zM12.1 28.6h8.2v26.2h-8.2zM0 37.6h7.5v17.1H0zM37.4 7.9s-4.2.2-7.2 2.9V9.5c-.4-5-4.3-8.7-4.3-8.7-.5.5-3.8 3.8-3.5 8.8.2 4.4 2.9 7.2 4.2 8.4v.1c.3.2.4.4.5.4.7-.1-.1 0 .7-.1 1.6-.3 4.2-1 6.2-3 3-3 3.4-7.5 3.4-7.5m-6.5 6.2l-1.2 1.2c-.3.3-.6.6-.8 1 .2-.5.5-1.2.7-1.8.3-.3.6-.6 1-.8 1-.7 2-1.3 3.1-1.8-1.1.6-2 1.4-2.8 2.2z"/></svg>