<svg xmlns="http://www.w3.org/2000/svg" xmlns:xlink="http://www.w3.org/1999/xlink" viewBox="0 0 557.4 91"><defs><path id="a" d="M0 0h557.4v91H0z"/></defs><clipPath id="b"><use xlink:href="#a" overflow="visible"/></clipPath><g clip-path="url(#b)"><g fill="#014089"><path d="M58.1 71H44.3l-.7-19.7-.1-3.3c-.1-3-.2-5.3-.2-6.9 0-3.8.2-7.6.5-11.4l-7.2 35.8H23.3l-7.7-35.8c.5 5.9.7 11.1.7 15.7 0 2.6 0 4.6-.1 5.9L15.7 71H1.8l3.9-52.8h17.5l7.1 35 6.4-35h17.6L58.1 71zM97.9 71l-2.4-10.8h-14L79.2 71H64.6l15.7-52.8h16.9L112.8 71H97.9zM83.8 50.2h9.6l-4.8-22-4.8 22zM150.4 18.6c3.1 1.2 5.8 2.9 8.2 5.2l-6.3 7.4c-3.6-2.9-7.5-4.3-11.5-4.3-2.1 0-3.7.4-4.8 1.2-1.1.8-1.6 1.9-1.6 3.3 0 1 .3 1.8.8 2.5.6.7 1.5 1.3 2.8 1.9 1.3.6 3.4 1.4 6.2 2.3 5.4 1.7 9.4 3.9 11.9 6.5s3.8 6.2 3.8 10.8c0 3.3-.9 6.3-2.6 8.9-1.7 2.6-4.2 4.5-7.5 6-3.3 1.4-7.1 2.1-11.5 2.1-8.4 0-15.3-2.6-20.6-7.7l6.9-7.7c4.2 3.4 8.6 5.2 13.1 5.2 2.4 0 4.2-.5 5.5-1.6 1.3-1 2-2.4 2-4.1 0-1.2-.3-2.2-.8-3-.5-.8-1.4-1.5-2.7-2.1-1.3-.6-3.2-1.3-5.7-2.1-6-1.9-10.2-4.1-12.6-6.8-2.4-2.6-3.6-6-3.6-10 0-3.1.8-5.9 2.5-8.3 1.7-2.4 4.1-4.2 7.1-5.5 3-1.3 6.4-1.9 10.1-1.9 4.3 0 7.8.6 10.9 1.8zM207.8 18.2l-1.4 10.7h-12.5V71h-14.1V28.9h-13.2V18.2h41.2z"/></g><g fill="#5F5F5F"><path d="M235.3 22.4l2.7 12.7 7.2-12.7h2.7L245.1 38h-2l1.1-6.2 1.3-6.3-7.1 12.5h-1.5L234 25.3l-1 6.7-1 6h-2l2.7-15.6h2.6zM255.5 38c-.1-.2-.1-.4-.1-.6v-.6c-1.1 1-2.2 1.5-3.4 1.4-1 0-1.9-.3-2.5-1-.6-.6-.9-1.4-.9-2.4.1-1.2.6-2.2 1.6-2.9 1-.7 2.3-1 4-1h2l.1-.9c.1-.7-.1-1.2-.4-1.6-.3-.4-.9-.6-1.5-.6-.7 0-1.3.1-1.8.5-.5.3-.8.8-.9 1.3h-2c.1-.7.3-1.3.8-1.8s1.1-.9 1.8-1.2c.7-.3 1.5-.4 2.3-.4 1.2 0 2.2.4 2.8 1.1.7.7 1 1.6.8 2.8l-.9 5.8-.1.8c0 .4 0 .8.1 1.2v.2h-1.8zm-3-1.5c.6 0 1.2-.1 1.8-.4.6-.3 1-.7 1.4-1.3l.4-2.4h-1.5c-1.2 0-2.2.2-2.8.6-.7.4-1 .9-1.1 1.6-.1.5.1 1 .4 1.4.3.3.8.5 1.4.5zM267.4 28.1l-.9-.1c-1.2 0-2.2.6-2.9 1.7l-1.4 8.3h-1.9l2-11.6h1.9l-.3 1.4c.8-1.1 1.8-1.6 2.9-1.6.2 0 .5.1.9.2l-.3 1.7zM274.7 28.1l-.9-.1c-1.2 0-2.2.6-2.9 1.7l-1.4 8.3h-1.9l2-11.6h1.9l-.3 1.4c.8-1.1 1.8-1.6 2.9-1.6.2 0 .5.1.9.2l-.3 1.7zM276.9 38H275l2-11.6h1.9l-2 11.6zm1.6-15.9c.3 0 .6.1.8.3.2.2.3.5.3.8 0 .3-.1.6-.3.8s-.5.3-.8.3c-.3 0-.6-.1-.8-.3s-.3-.5-.3-.8c0-.3.1-.6.3-.8.2-.1.5-.3.8-.3zM287.2 38c-.1-.2-.1-.4-.1-.6v-.6c-1.1 1-2.2 1.5-3.4 1.4-1 0-1.9-.3-2.5-1-.6-.6-.9-1.4-.9-2.4.1-1.2.6-2.2 1.6-2.9 1-.7 2.3-1 4-1h2l.1-.9c.1-.7-.1-1.2-.4-1.6-.3-.4-.9-.6-1.5-.6-.7 0-1.3.1-1.8.5-.5.3-.8.8-.9 1.3h-2c.1-.7.3-1.3.8-1.8s1.1-.9 1.8-1.2c.7-.3 1.5-.4 2.3-.4 1.2 0 2.2.4 2.8 1.1.7.7 1 1.6.8 2.8l-.9 5.8-.1.8c0 .4 0 .8.1 1.2v.2h-1.8zm-3.1-1.5c.6 0 1.2-.1 1.8-.4.6-.3 1-.7 1.4-1.3l.4-2.4h-1.5c-1.2 0-2.2.2-2.8.6-.7.4-1 .9-1.1 1.6-.1.5.1 1 .4 1.4.4.3.8.5 1.4.5zM292.4 32.2c.2-1.3.5-2.4 1-3.3.5-.9 1.1-1.6 1.9-2.1.7-.4 1.5-.7 2.4-.6 1.3 0 2.4.5 3.1 1.5l.4-1.3h1.8l-2 11.4c-.2 1.5-.8 2.7-1.8 3.6-1 .9-2.2 1.3-3.7 1.3-.8 0-1.5-.2-2.3-.6s-1.3-.8-1.7-1.5l1.1-1.2c.7 1 1.6 1.6 2.8 1.6.9 0 1.7-.2 2.3-.8s1.1-1.3 1.3-2.3l.2-1c-.9.9-2.1 1.4-3.3 1.4-.7 0-1.4-.2-1.9-.6-.5-.4-.9-.9-1.2-1.6-.3-.7-.5-1.5-.5-2.3 0-.5 0-1 .1-1.6zm1.9 1.1c0 1 .2 1.8.5 2.4s.9.9 1.7.9c1.2 0 2.2-.5 3-1.7l.9-5.3c-.4-1.1-1.2-1.6-2.3-1.7-1.1 0-1.9.4-2.6 1.3-.7.9-1.1 2.1-1.2 3.6v.5zM308.9 38.2c-1.4 0-2.6-.6-3.4-1.6s-1.2-2.4-1-4l.1-.5c.1-1.2.5-2.2 1-3.2s1.2-1.7 2.1-2.2c.8-.5 1.7-.7 2.6-.7 1.2 0 2.1.4 2.8 1.2.7.8 1.1 1.8 1.1 3.1v1.4l-.1.9h-7.6c-.1 1.1 0 1.9.5 2.7s1.2 1.1 2.1 1.1c1.1 0 2.2-.5 3.2-1.5l1.1.9c-.5.7-1.1 1.3-1.9 1.6-.8.6-1.6.8-2.6.8zm1.3-10.4c-.8 0-1.5.3-2.1.8s-1.1 1.4-1.4 2.5h5.7v-.2c.1-.9 0-1.7-.4-2.3-.5-.5-1.1-.8-1.8-.8zM329.8 34c.2-1.1-.4-2-1.8-2.5l-1.9-.7-.6-.3c-2.1-1-3.1-2.3-2.9-4 .1-.9.4-1.6.9-2.3.5-.7 1.2-1.2 2.1-1.5.9-.4 1.8-.5 2.8-.5.9 0 1.8.2 2.5.6s1.3 1 1.7 1.7c.4.7.6 1.5.5 2.4h-2c.1-1-.1-1.7-.6-2.2-.5-.5-1.2-.8-2.1-.8-1 0-1.8.2-2.5.7-.7.5-1 1.1-1.1 1.9-.1 1.1.5 1.9 2 2.4l1.6.6.8.3c2 .9 3 2.3 2.8 4.1-.1.9-.4 1.6-.9 2.3-.5.6-1.2 1.1-2.1 1.5s-1.8.5-2.9.5c-1 0-1.9-.2-2.7-.6-.8-.4-1.4-1-1.9-1.7-.4-.7-.6-1.5-.6-2.4h2c-.1.9.2 1.7.8 2.2.6.5 1.4.8 2.4.8s1.9-.2 2.6-.7c.6-.4 1-1 1.1-1.8zM338.6 23.6l-.5 2.8h2.1l-.3 1.5h-2.1l-1.2 7.2v.5c0 .6.4.8.9.8.2 0 .6 0 .9-.1l-.2 1.6c-.5.1-.9.2-1.4.2-.8 0-1.4-.3-1.7-.9-.4-.6-.5-1.3-.5-2.2l1.2-7.2h-2.1l.3-1.5h2.1l.5-2.8h2zM347.8 28.1l-.9-.1c-1.2 0-2.2.6-2.9 1.7l-1.4 8.3h-1.9l2-11.6h1.9l-.3 1.4c.8-1.1 1.8-1.6 2.9-1.6.2 0 .5.1.9.2l-.3 1.7zM352.9 38.2c-1.4 0-2.6-.6-3.4-1.6s-1.2-2.4-1-4l.1-.5c.1-1.2.5-2.2 1-3.2s1.2-1.7 2.1-2.2c.8-.5 1.7-.7 2.6-.7 1.2 0 2.1.4 2.8 1.2.7.8 1.1 1.8 1.1 3.1v1.4l-.1.9h-7.6c-.1 1.1 0 1.9.5 2.7s1.2 1.1 2.1 1.1c1.1 0 2.2-.5 3.2-1.5l1.1.9c-.5.7-1.1 1.3-1.9 1.6-.8.6-1.7.8-2.6.8zm1.2-10.4c-.8 0-1.5.3-2.1.8s-1.1 1.4-1.4 2.5h5.7v-.2c.1-.9 0-1.7-.4-2.3-.4-.5-1-.8-1.8-.8zM363.1 26.4l-.3 1.5c1-1.1 2.2-1.7 3.6-1.7 1.1 0 1.9.4 2.4 1.1.5.7.7 1.8.6 3.1l-1.3 7.6h-1.9l1.3-7.6v-1c-.1-1-.7-1.5-1.8-1.5-1.2 0-2.2.6-3.1 1.9l-1.4 8.3h-1.9l2-11.6 1.8-.1zM371.7 32.2c.2-1.3.5-2.4 1-3.3.5-.9 1.1-1.6 1.9-2.1.7-.4 1.5-.7 2.4-.6 1.3 0 2.4.5 3.1 1.5l.4-1.3h1.8l-1.9 11.4c-.2 1.5-.8 2.7-1.8 3.6-1 .9-2.2 1.3-3.7 1.3-.8 0-1.5-.2-2.3-.6s-1.3-.8-1.7-1.5l1.1-1.2c.7 1 1.6 1.6 2.8 1.6.9 0 1.7-.2 2.3-.8s1.1-1.3 1.3-2.3l.2-1c-.9.9-2.1 1.4-3.3 1.4-.7 0-1.4-.2-1.9-.6-.5-.4-.9-.9-1.2-1.6-.3-.7-.5-1.5-.5-2.3v-1.6zm1.9 1.1c0 1 .2 1.8.5 2.4s.9.9 1.7.9c1.2 0 2.2-.5 3-1.7l.9-5.3c-.4-1.1-1.2-1.6-2.3-1.7-1.1 0-1.9.4-2.6 1.3-.7.9-1.1 2.1-1.2 3.6v.5zM388.4 23.6l-.5 2.8h2.1l-.3 1.5h-2.1l-1.2 7.2v.5c0 .6.4.8.9.8.2 0 .6 0 .9-.1l-.2 1.6c-.5.1-.9.2-1.4.2-.8 0-1.4-.3-1.7-.9-.4-.6-.5-1.3-.5-2.2l1.2-7.2h-2.1l.3-1.5h2.1l.5-2.8h2zM394 27.8c1-1.1 2.2-1.7 3.5-1.6 1.1 0 1.9.4 2.4 1.1.5.7.7 1.8.6 3.1l-1.3 7.6h-1.9l1.3-7.6v-1c-.1-1-.7-1.5-1.8-1.5-1.2 0-2.2.6-3.1 1.9l-1.4 8.3h-1.9l2.9-16.5h1.9l-1.2 6.2zM407.2 38.2c-1.4 0-2.6-.6-3.4-1.6s-1.2-2.4-1-4l.1-.5c.1-1.2.5-2.2 1-3.2s1.2-1.7 2.1-2.2c.8-.5 1.7-.7 2.6-.7 1.2 0 2.1.4 2.8 1.2.7.8 1.1 1.8 1.1 3.1v1.4l-.1.9h-7.6c-.1 1.1 0 1.9.5 2.7s1.2 1.1 2.1 1.1c1.1 0 2.2-.5 3.2-1.5l1.1.9c-.5.7-1.1 1.3-1.9 1.6-.8.6-1.6.8-2.6.8zm1.2-10.4c-.8 0-1.5.3-2.1.8s-1.1 1.4-1.4 2.5h5.7v-.2c.1-.9 0-1.7-.4-2.3-.4-.5-1-.8-1.8-.8zM417.4 26.4l-.3 1.5c1-1.1 2.2-1.7 3.6-1.7 1.1 0 1.9.4 2.4 1.1.5.7.7 1.8.6 3.1l-1.3 7.6h-1.9l1.3-7.6v-1c-.1-1-.7-1.5-1.8-1.5-1.2 0-2.2.6-3.1 1.9l-1.4 8.3h-1.9l2-11.6 1.8-.1zM427.6 38h-1.9l2-11.6h1.9l-2 11.6zm1.6-15.9c.3 0 .6.1.8.3.2.2.3.5.3.8 0 .3-.1.6-.3.8s-.5.3-.8.3c-.3 0-.6-.1-.8-.3s-.3-.5-.3-.8c0-.3.1-.6.3-.8.2-.1.4-.3.8-.3zM434.6 26.4l-.3 1.5c1-1.1 2.2-1.7 3.6-1.7 1.1 0 1.9.4 2.4 1.1.5.7.7 1.8.6 3.1l-1.3 7.6h-1.9l1.3-7.6v-1c-.1-1-.7-1.5-1.8-1.5-1.2 0-2.2.6-3.1 1.9l-1.4 8.3h-1.9l2-11.6 1.8-.1zM443.2 32.2c.2-1.3.5-2.4 1-3.3.5-.9 1.1-1.6 1.9-2.1.7-.4 1.5-.7 2.4-.6 1.3 0 2.4.5 3.1 1.5l.4-1.3h1.8l-1.9 11.4c-.2 1.5-.8 2.7-1.8 3.6-1 .9-2.2 1.3-3.7 1.3-.8 0-1.5-.2-2.3-.6s-1.3-.8-1.7-1.5l1.1-1.2c.7 1 1.6 1.6 2.8 1.6.9 0 1.7-.2 2.3-.8s1.1-1.3 1.3-2.3l.2-1c-.9.9-2.1 1.4-3.3 1.4-.7 0-1.4-.2-1.9-.6-.5-.4-.9-.9-1.2-1.6-.3-.7-.5-1.5-.5-2.3-.1-.5 0-1 0-1.6zm1.9 1.1c0 1 .2 1.8.5 2.4s.9.9 1.7.9c1.2 0 2.2-.5 3-1.7l.9-5.3c-.4-1.1-1.2-1.6-2.3-1.7-1.1 0-1.9.4-2.6 1.3-.7.9-1.1 2.1-1.2 3.6v.5zM467.1 31.7h-3.6l-1.1 6.3h-2l2.7-15.6h4.7c1.6 0 2.9.4 3.7 1.2.9.8 1.2 1.9 1.1 3.4-.1 1-.4 1.8-1.1 2.6-.6.7-1.5 1.3-2.5 1.7l2.4 6.6v.1h-2.1l-2.2-6.3zm-3.3-1.7h3c1 0 1.9-.3 2.6-.8.7-.5 1.1-1.3 1.2-2.2.1-.9-.1-1.6-.5-2.1-.5-.5-1.2-.8-2.1-.8h-3.1l-1.1 5.9zM478.4 38.2c-1.4 0-2.6-.6-3.4-1.6s-1.2-2.4-1-4l.1-.5c.1-1.2.5-2.2 1-3.2s1.2-1.7 2.1-2.2c.8-.5 1.7-.7 2.6-.7 1.2 0 2.1.4 2.8 1.2.7.8 1.1 1.8 1.1 3.1v1.4l-.1.9H476c-.1 1.1 0 1.9.5 2.7s1.2 1.1 2.1 1.1c1.1 0 2.2-.5 3.2-1.5l1.1.9c-.5.7-1.1 1.3-1.9 1.6-.8.6-1.7.8-2.6.8zm1.2-10.4c-.8 0-1.5.3-2.1.8s-1.1 1.4-1.4 2.5h5.7v-.2c.1-.9 0-1.7-.4-2.3-.4-.5-1-.8-1.8-.8zM492 34.9c.1-.8-.3-1.4-1.3-1.7l-2-.6c-1.7-.6-2.5-1.6-2.5-2.9 0-1 .5-1.9 1.4-2.5.9-.7 1.9-1 3.1-1 1.2 0 2.1.4 2.9 1 .7.7 1.1 1.5 1.1 2.6h-1.9c0-.6-.2-1.1-.5-1.4-.4-.4-.9-.6-1.5-.6-.7 0-1.3.2-1.7.5-.5.3-.7.7-.8 1.3-.1.7.3 1.2 1.2 1.5l1 .3c1.3.3 2.3.8 2.8 1.3s.8 1.2.8 2.1c0 .7-.3 1.4-.7 1.9s-1 .9-1.7 1.2c-.7.3-1.5.4-2.3.4-1.2 0-2.2-.4-3.1-1.1-.8-.7-1.2-1.6-1.2-2.7h1.9c0 .7.2 1.2.6 1.6.4.4 1 .6 1.7.6s1.3-.1 1.8-.4c.5-.5.8-.9.9-1.4zM500.9 38.2c-1.4 0-2.6-.6-3.4-1.6s-1.2-2.4-1-4l.1-.5c.1-1.2.5-2.2 1-3.2s1.2-1.7 2.1-2.2c.8-.5 1.7-.7 2.6-.7 1.2 0 2.1.4 2.8 1.2.7.8 1.1 1.8 1.1 3.1v1.4l-.1.9h-7.6c-.1 1.1 0 1.9.5 2.7s1.2 1.1 2.1 1.1c1.1 0 2.2-.5 3.2-1.5l1.1.9c-.5.7-1.1 1.3-1.9 1.6-.8.6-1.7.8-2.6.8zm1.2-10.4c-.8 0-1.5.3-2.1.8s-1.1 1.4-1.4 2.5h5.7v-.2c.1-.9 0-1.7-.4-2.3-.4-.5-1-.8-1.8-.8zM514.4 38c-.1-.2-.1-.4-.1-.6v-.6c-1.1 1-2.2 1.5-3.4 1.4-1 0-1.9-.3-2.5-1-.6-.6-.9-1.4-.9-2.4.1-1.2.6-2.2 1.6-2.9 1-.7 2.3-1 4-1h2l.1-.9c.1-.7-.1-1.2-.4-1.6-.3-.4-.9-.6-1.5-.6-.7 0-1.3.1-1.8.5-.5.3-.8.8-.9 1.3h-2c.1-.7.3-1.3.8-1.8s1.1-.9 1.8-1.2c.7-.3 1.5-.4 2.3-.4 1.2 0 2.2.4 2.8 1.1.7.7 1 1.6.8 2.8l-.9 5.8-.1.8c0 .4 0 .8.1 1.2v.2h-1.8zm-3.1-1.5c.6 0 1.2-.1 1.8-.4.6-.3 1-.7 1.4-1.3l.4-2.4h-1.5c-1.2 0-2.2.2-2.8.6-.7.4-1 .9-1.1 1.6-.1.5.1 1 .4 1.4.4.3.8.5 1.4.5zM526.2 28.1l-.9-.1c-1.2 0-2.2.6-2.9 1.7L521 38h-2l2-11.6h1.9l-.3 1.4c.8-1.1 1.8-1.6 2.9-1.6.2 0 .5.1.9.2l-.2 1.7zM531 36.6c.7 0 1.3-.2 1.9-.6.6-.4.9-1 1.1-1.6h1.8c-.1.7-.4 1.4-.9 2s-1.1 1.1-1.8 1.4c-.7.3-1.5.5-2.2.5-1 0-1.8-.3-2.5-.8s-1.2-1.2-1.5-2.1c-.3-.9-.4-1.9-.3-3l.1-.5c.1-1.1.5-2.1 1-3s1.2-1.6 2-2.1 1.7-.7 2.8-.7c1.2 0 2.2.4 2.9 1.2s1.1 1.8 1.1 3h-1.8c0-.8-.2-1.4-.6-1.8-.4-.5-1-.7-1.7-.7-1 0-1.8.4-2.5 1.1s-1.1 1.9-1.3 3.2v.3c0 .5-.1.9 0 1.4 0 .8.3 1.5.7 2 .4.5 1 .8 1.7.8zM541 27.8c1-1.1 2.2-1.7 3.5-1.6 1.1 0 1.9.4 2.4 1.1.5.7.7 1.8.6 3.1l-1.3 7.6h-1.9l1.3-7.6v-1c-.1-1-.7-1.5-1.8-1.5-1.2 0-2.2.6-3.1 1.9l-1.4 8.3h-1.9l2.9-16.5h1.9l-1.2 6.2z"/></g><g fill="#5F5F5F"><path d="M230.1 70.9c.1-1.3.9-2.5 2.4-3.6l1.2-.8-.5-.8c-.5-.9-.7-1.8-.7-2.6.1-1.2.5-2.1 1.3-2.9.8-.7 1.7-1.1 2.9-1 1 0 1.8.3 2.4.9.6.6.9 1.4.9 2.3-.1 1.2-.8 2.4-2.3 3.4l-1.6 1.1 2.7 4.1c.7-1 1.1-2 1.2-3.1h1.7c-.2 1.8-.8 3.4-1.9 4.6l1.7 2.6h-2.2l-.8-1.2c-1.2 1-2.6 1.4-4.1 1.4-1.4 0-2.4-.4-3.3-1.2-.7-.9-1.1-2-1-3.2zm4.5 2.7c1 0 2-.4 3.1-1.2l-2.9-4.6-.5.3c-1.3.9-2 1.8-2.1 2.7-.1.8.1 1.4.5 1.9s1 .9 1.9.9zm-.1-10.6c-.1.6.1 1.3.5 2l.3.5 1.6-1.1c.8-.6 1.2-1.2 1.3-2 0-.5-.1-.8-.4-1.1-.3-.3-.7-.5-1.2-.5-.6 0-1.1.2-1.5.6-.3.4-.5 1-.6 1.6zM248.8 75l2.7-15.6h4.1c1.3 0 2.4.3 3.3 1s1.6 1.5 2 2.6c.4 1.1.5 2.4.4 3.8l-.1.8c-.3 2.3-1.2 4.1-2.7 5.5-1.5 1.4-3.3 2-5.5 2h-4.2zm4.4-14l-2.1 12.3h2c1.5 0 2.8-.5 3.9-1.4s1.7-2.2 2.1-3.9c.2-1.3.3-2.4.3-3.4-.1-1.1-.5-2-1.1-2.6-.6-.6-1.5-1-2.5-1h-2.6zM264.7 75h-1.9l2-11.6h1.9l-2 11.6zm1.6-15.9c.3 0 .6.1.8.3.2.2.3.5.3.8 0 .3-.1.6-.3.8s-.5.3-.8.3c-.3 0-.6-.1-.8-.3s-.3-.5-.3-.8c0-.3.1-.6.3-.8.2-.1.4-.3.8-.3zM275 71.9c.1-.8-.3-1.4-1.3-1.7l-2-.6c-1.7-.6-2.5-1.6-2.5-2.9 0-1 .5-1.9 1.4-2.5.9-.7 1.9-1 3.1-1 1.2 0 2.1.4 2.9 1 .7.7 1.1 1.5 1.1 2.6h-1.9c0-.6-.2-1.1-.5-1.4-.4-.4-.9-.6-1.5-.6-.7 0-1.3.2-1.7.5-.5.3-.7.7-.8 1.3-.1.7.3 1.2 1.2 1.5l1 .3c1.3.3 2.3.8 2.8 1.3s.8 1.2.8 2.1c0 .7-.3 1.4-.7 1.9s-1 .9-1.7 1.2c-.7.3-1.5.4-2.3.4-1.2 0-2.2-.4-3.1-1.1-.8-.7-1.2-1.6-1.2-2.7h1.9c0 .7.2 1.2.6 1.6.4.4 1 .6 1.7.6s1.3-.1 1.8-.4c.6-.5.9-.9.9-1.4zM286.2 71.9c.1-.8-.3-1.4-1.3-1.7l-2-.6c-1.7-.6-2.5-1.6-2.5-2.9 0-1 .5-1.9 1.4-2.5.9-.7 1.9-1 3.1-1 1.2 0 2.1.4 2.9 1 .7.7 1.1 1.5 1.1 2.6H287c0-.6-.2-1.1-.5-1.4-.4-.4-.9-.6-1.5-.6-.7 0-1.3.2-1.7.5-.5.3-.7.7-.8 1.3-.1.7.3 1.2 1.2 1.5l1 .3c1.3.3 2.3.8 2.8 1.3s.8 1.2.8 2.1c0 .7-.3 1.4-.7 1.9s-1 .9-1.7 1.2c-.7.3-1.5.4-2.3.4-1.2 0-2.2-.4-3.1-1.1-.8-.7-1.2-1.6-1.2-2.7h1.9c0 .7.2 1.2.6 1.6.4.4 1 .6 1.7.6s1.3-.1 1.8-.4c.5-.5.8-.9.9-1.4zM295.1 75.2c-1.4 0-2.6-.6-3.4-1.6s-1.2-2.4-1-4l.1-.5c.1-1.2.5-2.2 1-3.2s1.2-1.7 2.1-2.2c.8-.5 1.7-.7 2.6-.7 1.2 0 2.1.4 2.8 1.2.7.8 1.1 1.8 1.1 3.1v1.4l-.1.9h-7.6c-.1 1.1 0 1.9.5 2.7s1.2 1.1 2.1 1.1c1.1 0 2.2-.5 3.2-1.5l1.1.9c-.5.7-1.1 1.3-1.9 1.6-.8.6-1.7.8-2.6.8zm1.2-10.4c-.8 0-1.5.3-2.1.8s-1.1 1.4-1.4 2.5h5.7v-.2c.1-.9 0-1.7-.4-2.3-.4-.5-1-.8-1.8-.8zM305.3 63.4l-.2 1.3c1-1 2.2-1.5 3.5-1.5.7 0 1.4.2 1.9.5s.9.8 1.1 1.4c1.1-1.3 2.4-1.9 3.9-1.9 1.2 0 2 .4 2.6 1.2.6.8.8 1.8.6 3l-1.3 7.6h-1.9l1.3-7.7v-1c-.1-1-.8-1.5-1.9-1.5-.7 0-1.4.2-1.9.7-.6.5-.9 1.1-1.1 1.8l-1.3 7.7h-2l1.3-7.6c.1-.8 0-1.4-.4-1.8s-.9-.7-1.6-.7c-1.2 0-2.2.5-2.9 1.7l-1.5 8.5h-1.9l2-11.6 1.7-.1zM322.4 75h-1.9l2-11.6h1.9l-2 11.6zm1.6-15.9c.3 0 .6.1.8.3.2.2.3.5.3.8 0 .3-.1.6-.3.8s-.5.3-.8.3c-.3 0-.6-.1-.8-.3s-.3-.5-.3-.8c0-.3.1-.6.3-.8.2-.1.5-.3.8-.3zM329.4 63.4l-.3 1.5c1-1.1 2.2-1.7 3.6-1.7 1.1 0 1.9.4 2.4 1.1.5.7.7 1.8.6 3.1l-1.3 7.6h-1.9l1.3-7.6v-1c-.1-1-.7-1.5-1.8-1.5-1.2 0-2.2.6-3.1 1.9l-1.4 8.3h-1.9l2-11.6 1.8-.1zM344.6 75c-.1-.2-.1-.4-.1-.6v-.6c-1.1 1-2.2 1.5-3.4 1.4-1 0-1.9-.3-2.5-1-.6-.6-.9-1.4-.9-2.4.1-1.2.6-2.2 1.6-2.9 1-.7 2.3-1 4-1h2l.1-.9c.1-.7-.1-1.2-.4-1.6-.3-.4-.9-.6-1.5-.6-.7 0-1.3.1-1.8.5-.5.3-.8.8-.9 1.3h-2c.1-.7.3-1.3.8-1.8s1.1-.9 1.8-1.2c.7-.3 1.5-.4 2.3-.4 1.2 0 2.2.4 2.8 1.1.7.7 1 1.6.8 2.8l-.9 5.8-.1.8c0 .4 0 .8.1 1.2v.2h-1.8zm-3.1-1.5c.6 0 1.2-.1 1.8-.4.6-.3 1-.7 1.4-1.3l.4-2.4h-1.5c-1.2 0-2.2.2-2.8.6-.7.4-1 .9-1.1 1.6-.1.5.1 1 .4 1.4.3.3.8.5 1.4.5zM354.3 60.6l-.5 2.8h2.1l-.3 1.5h-2.1l-1.2 7.2v.5c0 .6.4.8.9.8.2 0 .6 0 .9-.1L354 75c-.5.1-.9.2-1.4.2-.8 0-1.4-.3-1.7-.9-.4-.6-.5-1.3-.5-2.2l1.2-7.2h-2.1l.3-1.5h2.1l.5-2.8h1.9zM358.4 75h-1.9l2-11.6h1.9l-2 11.6zm1.6-15.9c.3 0 .6.1.8.3.2.2.3.5.3.8 0 .3-.1.6-.3.8s-.5.3-.8.3c-.3 0-.6-.1-.8-.3s-.3-.5-.3-.8c0-.3.1-.6.3-.8.1-.1.4-.3.8-.3zM368 63.2c1 0 1.8.3 2.5.8s1.2 1.2 1.5 2.1c.3.9.4 1.9.3 3v.2c-.1 1.1-.5 2.2-1 3.1-.5.9-1.2 1.6-2.1 2.1-.9.5-1.8.7-2.8.7-1 0-1.8-.3-2.5-.8s-1.2-1.2-1.5-2.1-.4-1.9-.3-2.9c.1-1.2.4-2.3 1-3.2.5-1 1.2-1.7 2.1-2.2.8-.6 1.8-.9 2.8-.8zm-4 6.2c-.1.5-.1.9 0 1.4.1.8.3 1.5.8 2s1 .8 1.7.8c.6 0 1.2-.1 1.8-.5.5-.3 1-.9 1.4-1.5.4-.7.6-1.5.7-2.3.1-.7.1-1.2 0-1.7-.1-.9-.3-1.6-.8-2.1-.4-.5-1-.8-1.7-.8-1 0-1.9.4-2.6 1.2-.7.8-1.1 1.9-1.3 3.2v.3zM377.7 63.4l-.3 1.5c1-1.1 2.2-1.7 3.6-1.7 1.1 0 1.9.4 2.4 1.1.5.7.7 1.8.6 3.1l-1.3 7.6h-1.9l1.3-7.6v-1c-.1-1-.7-1.5-1.8-1.5-1.2 0-2.2.6-3.1 1.9l-1.4 8.3h-1.9l2-11.6 1.8-.1zM403.3 70c-.3 1.6-1 2.9-2.2 3.8s-2.6 1.4-4.2 1.4c-1 0-1.8-.3-2.5-.7-.7-.5-1.3-1.1-1.7-2-.4-.9-.6-1.8-.7-2.8 0-.6 0-1.2.1-1.7l.2-1.3c.3-2.3 1.2-4.2 2.5-5.6 1.3-1.4 2.9-2 4.8-2 1.5 0 2.6.5 3.5 1.4.9.9 1.3 2.2 1.4 3.8h-2c-.1-2.2-1-3.4-2.6-3.5h-.4c-1.4 0-2.5.5-3.4 1.5-.9 1-1.5 2.5-1.8 4.3l-.2 1.6-.1.9c0 1.3.2 2.4.7 3.1.5.8 1.3 1.2 2.3 1.2 1.1 0 2-.2 2.7-.8s1.3-1.5 1.6-2.7l2 .1zM410.1 75.2c-1.4 0-2.6-.6-3.4-1.6s-1.2-2.4-1-4l.1-.5c.1-1.2.5-2.2 1-3.2s1.2-1.7 2.1-2.2c.8-.5 1.7-.7 2.6-.7 1.2 0 2.1.4 2.8 1.2.7.8 1.1 1.8 1.1 3.1v1.4l-.1.9h-7.6c-.1 1.1 0 1.9.5 2.7s1.2 1.1 2.1 1.1c1.1 0 2.2-.5 3.2-1.5l1.1.9c-.5.7-1.1 1.3-1.9 1.6-.8.6-1.6.8-2.6.8zm1.2-10.4c-.8 0-1.5.3-2.1.8s-1.1 1.4-1.4 2.5h5.7v-.2c.1-.9 0-1.7-.4-2.3-.4-.5-1-.8-1.8-.8zM420.3 63.4l-.3 1.5c1-1.1 2.2-1.7 3.6-1.7 1.1 0 1.9.4 2.4 1.1.5.7.7 1.8.6 3.1l-1.3 7.6h-1.9l1.3-7.6v-1c-.1-1-.7-1.5-1.8-1.5-1.2 0-2.2.6-3.1 1.9l-1.4 8.3h-1.9l2-11.6 1.8-.1zM433.5 60.6l-.5 2.8h2.1l-.3 1.5h-2.1l-1.2 7.2v.5c0 .6.4.8.9.8.2 0 .6 0 .9-.1l-.2 1.6c-.5.1-.9.2-1.4.2-.8 0-1.4-.3-1.7-.9-.4-.6-.5-1.3-.5-2.2l1.2-7.2h-2.1l.3-1.5h2.1l.5-2.8h2zM440.5 75.2c-1.4 0-2.6-.6-3.4-1.6s-1.2-2.4-1-4l.1-.5c.1-1.2.5-2.2 1-3.2s1.2-1.7 2.1-2.2c.8-.5 1.7-.7 2.6-.7 1.2 0 2.1.4 2.8 1.2.7.8 1.1 1.8 1.1 3.1v1.4l-.1.9H438c-.1 1.1 0 1.9.5 2.7s1.2 1.1 2.1 1.1c1.1 0 2.2-.5 3.2-1.5l1.1.9c-.5.7-1.1 1.3-1.9 1.6-.7.6-1.6.8-2.5.8zm1.2-10.4c-.8 0-1.5.3-2.1.8s-1.1 1.4-1.4 2.5h5.7v-.2c.1-.9 0-1.7-.4-2.3-.5-.5-1-.8-1.8-.8zM454.1 65.1l-.9-.1c-1.2 0-2.2.6-2.9 1.7l-1.4 8.3H447l2-11.6h1.9l-.3 1.4c.8-1.1 1.8-1.6 2.9-1.6.2 0 .5.1.9.2l-.3 1.7z"/></g></g></svg>