<svg xmlns="http://www.w3.org/2000/svg" width="260.359" height="262.794" viewBox="0 0 260.359 262.794">
  <g id="Group_5601" data-name="Group 5601" transform="translate(709.243 -1171.972)">
    <path id="Path_4689" data-name="Path 4689" d="M-478.25,1241.931l-46.83-28.874a8.7,8.7,0,0,1-4.135-7.407v-24.975a8.7,8.7,0,0,0-8.7-8.7h-5.7a8.7,8.7,0,0,0-8.7,8.7h0a8.7,8.7,0,0,1-13.269,7.407l-21.525-13.271a8.7,8.7,0,0,0-9.134,0l-108.862,67.12a8.7,8.7,0,0,0-2.84,11.975l1.857,3.012a8.7,8.7,0,0,0,11.975,2.841l4.891-3.015a8.7,8.7,0,0,1,13.27,7.407v115.387a8.7,8.7,0,0,0,8.7,8.7H-516.1a8.7,8.7,0,0,0,8.7-8.7V1264.151a8.7,8.7,0,0,1,13.269-7.407l4.891,3.015a8.7,8.7,0,0,0,11.975-2.841l1.857-3.012A8.7,8.7,0,0,0-478.25,1241.931Z" fill="#002d62"/>
    <path id="Path_4691" data-name="Path 4691" d="M-507.586,1397.407a3.935,3.935,0,0,1,4.783.589l6.326,6.326a3.918,3.918,0,0,1,0,5.541h0a3.919,3.919,0,0,0,0,5.542l52.452,52.451a19.53,19.53,0,0,0,27.621,0h0a19.532,19.532,0,0,0,0-27.621l-52.452-52.451a3.918,3.918,0,0,0-5.541,0h0a3.919,3.919,0,0,1-5.542,0l-6.326-6.327a3.935,3.935,0,0,1-.59-4.78C-473.9,1354.545-529.966,1410.508-507.586,1397.407Z" transform="translate(-38.198 -38.81)" fill="#fc8676"/>
    <path id="Path_4690" data-name="Path 4690" d="M-597.221,1286.918a57.78,57.78,0,0,0,0,81.713,57.78,57.78,0,0,0,81.714,0,57.779,57.779,0,0,0,0-81.713A57.78,57.78,0,0,0-597.221,1286.918Zm70.9,21.066a7.249,7.249,0,0,1-10.252,0,28.02,28.02,0,0,0-39.581,0,7.249,7.249,0,0,1-10.252,0,7.249,7.249,0,0,1,0-10.251,42.535,42.535,0,0,1,60.084,0A7.249,7.249,0,0,1-526.322,1307.984Z" transform="translate(-18.504 -19.072)" fill="#ffae83"/>
  </g>
</svg>
