<svg xmlns="http://www.w3.org/2000/svg" width="259" height="259" viewBox="0 0 259 259">
  <g id="Group_5610" data-name="Group 5610" transform="translate(-810 -1643.351)">
    <path id="Path_4686" data-name="Path 4686" d="M1689.93,209.711a20.075,20.075,0,0,0,0-28.389l-14.482-14.482a20.074,20.074,0,0,0-28.389,0l-19.688,19.688,42.871,42.872Z" transform="translate(-639.33 1489.873)" fill="#fc8676"/>
    <path id="Path_4692" data-name="Path 4692" d="M29.463,27.467V0H12.709A12.709,12.709,0,0,0,0,12.709V49.178A12.709,12.709,0,0,0,12.709,61.886H291.687A12.708,12.708,0,0,0,304.4,49.178V12.709A12.709,12.709,0,0,0,291.687,0H274.792V27.467a3.476,3.476,0,0,1-3.476,3.476h0a3.476,3.476,0,0,1-3.477-3.476V0H245V10.472a3.476,3.476,0,1,1-6.953,0V0H215.2V27.467a3.476,3.476,0,1,1-6.952,0V0H185.4V10.472a3.477,3.477,0,1,1-6.953,0V0H155.6V27.467a3.476,3.476,0,1,1-6.953,0V0H125.807V10.472a3.476,3.476,0,0,1-3.476,3.477h0a3.477,3.477,0,0,1-3.476-3.477V0H96.01V27.467a3.477,3.477,0,0,1-6.953,0V0H66.213V10.472a3.476,3.476,0,1,1-6.953,0V0H36.416V27.467a3.476,3.476,0,1,1-6.953,0Z" transform="translate(853.76 1643.351) rotate(45)" fill="#002d62"/>
    <path id="Path_4687" data-name="Path 4687" d="M1379.909,409.684l62.29-19.419,148.828-148.828-42.871-42.871L1399.328,347.394Z" transform="translate(-560.116 1477.836)" fill="#ffae83"/>
  </g>
</svg>
