<?xml version="1.0" encoding="utf-8"?>
<!-- Generator: Adobe Illustrator 24.1.0, SVG Export Plug-In . SVG Version: 6.00 Build 0)  -->
<svg version="1.1" id="Layer_1" xmlns="http://www.w3.org/2000/svg" xmlns:xlink="http://www.w3.org/1999/xlink" x="0px" y="0px"
	 viewBox="0 0 439.5 60.8" enable-background="new 0 0 439.5 60.8" xml:space="preserve">
<g>
	<path fill="#1E3160" d="M234,13.8h1.5l0.2,0.3l0.4,0.6l0.1,0.1l0.1,0.1l0.3,0.4l0.1,0.1l0.3,0.4l0.1,0.1l0.3,0.5l0.1,0.1l0.1,0.1
		l0.1,0.1l0.2,0.2l0.4,0.6l0.1,0.1l0.1,0.1l0.1,0.1l0.1,0.1l0.1,0.1l0.1,0.1l0.1,0.1l0.1,0.1l0.1,0.1l0.1,0.1l0.1,0.1l0.1,0.1
		l0.1,0.1l0.1,0.1l0.1,0.1l0.2-0.4l0.1-0.1l0.3-0.5l0.1-0.1l0.3-0.4l0.1-0.1l0.1-0.1l0.2-0.4l0.1-0.1l0.2-0.4l0.1-0.1l0.1-0.1
		l0.3-0.5l0.1-0.1l0.3-0.5l0.1-0.1l0.1-0.1l0.1-0.1l0.1-0.1l0.1-0.1l0.1-0.1l0.1-0.1l0.1-0.1l0.1-0.1l0.1-0.1l0.3-0.5h1.5v10.9h-1.4
		v-8.5l-0.1,0.1l-0.1,0.1l-0.2,0.2l-0.1,0.1l-0.2,0.2l-0.1,0.1l-0.2,0.3l-0.1,0.1l-0.4,0.6l-0.1,0.1l-0.1,0.1l-0.1,0.1l-0.1,0.1
		l-0.1,0.1l-0.1,0.1l-0.1,0.1l-0.1,0.1l-0.1,0.1l-0.2,0.2l-0.1,0.1l-0.2,0.3l-0.2,0.2l-0.1,0.1l-0.1,0.1l-0.1,0.1l-0.2,0.2l-0.1,0.1
		l-0.2,0.2l-0.1,0.1l-0.2,0.2l-0.1,0.1l-0.1,0.1h-0.1l-0.1-0.1l-0.1-0.1l-0.2-0.2l-0.1-0.1l-0.6-0.9l-0.3-0.5l-0.1-0.1l-0.2-0.3
		l-0.1-0.1l-0.2-0.3l-0.1-0.1l-0.7-1l-0.3-0.4l-0.1-0.1l-0.3-0.5l-0.1-0.1l-0.1-0.1l-0.2-0.2l-0.1-0.1l-0.1-0.1v8.5H234V13.8z"/>
	<path fill="#1E3160" d="M254,24.7h-1.4v-1.2l-0.4,0.4l-0.1,0.1l-0.1,0.1l-0.1,0.1l-0.1,0.1l-0.3,0.1l-0.4,0.2l-0.3,0.1l-0.2,0
		l-0.3,0.1l-0.1,0l-0.2,0l-0.2,0h-0.3l-0.2,0l-0.1,0l-0.3,0l-0.3-0.1l-0.3-0.1l-0.2-0.1l-0.1-0.1l-0.1-0.1l-0.1-0.1l-0.1-0.1
		l-0.1-0.1l-0.1-0.1l-0.2-0.2l-0.2-0.2l-0.2-0.3l-0.1-0.1l-0.1-0.2l0-0.1l0-0.1l0-0.1l0-0.1v-0.3l0-0.2l0-0.1l0-0.2l0.1-0.4l0.1-0.1
		l0.1-0.1l0.1-0.1l0.2-0.2l0.1-0.1l0.2-0.2l0.3-0.2l0.3-0.1l0.1-0.1l0.4-0.1l0.4-0.1l0.1,0l0.2,0h0.2l0.2,0h0.5l0.1,0h0.2l0.6,0.1
		l0.4,0.1l0.2,0l0.2,0l0.4,0.1v-0.4l0-0.2l-0.1-0.3l0-0.1l-0.1-0.1l-0.1-0.1l-0.1-0.1l-0.1-0.1l-0.1-0.1l-0.1-0.1l-0.1-0.1l-0.1-0.1
		l-0.1-0.1l-0.1-0.1l-0.1-0.1l-0.1,0l-0.2,0l-0.1,0l-0.2,0l-0.3,0h-0.3l-0.1,0h-0.2l-0.3,0l-0.1,0l-0.1,0l-0.1,0l-0.1,0l-0.3,0.1
		l-0.3,0.1l-0.1,0l-0.1,0.1l-0.2,0.1l-0.1,0.1l0-0.1l-0.1-0.1l-0.1-0.3l-0.1-0.1l0-0.1l-0.1-0.2l0-0.1l0.3-0.1l0.1,0l0.1-0.1
		l0.3-0.1l0.1-0.1l0.1,0l0.1,0l0.1,0l0.4-0.1l0.1,0l0.8-0.1h0.5l0.2,0h0.2l0.2,0l0.2,0l0.2,0l0.1,0l0.2,0l0.1,0l0.3,0.1l0.1,0.1
		l0.1,0.1l0.2,0.1l0.2,0.2l0.1,0.1l0.2,0.2l0.2,0.2l0.1,0.2l0.1,0.2l0.1,0.1l0.1,0.3l0,0.2l0,0.1l0,0.2l0.1,0.6V24.7z M250,23.7h0.3
		l0.5,0l0.3-0.1l0.6-0.2l0.1-0.1l0.1-0.1l0.1-0.1l0.3-0.3l0.1-0.1l0.2-0.2l0.1-0.1l0.1-0.3l0-0.1l0-0.1V21l-0.1,0l-0.3-0.1l-0.1,0
		l-0.3-0.1l-0.3-0.1l-0.6-0.1l-0.2,0h-0.5l-0.3,0l-0.1,0l-0.3,0.1l-0.4,0.1L249,21l-0.1,0.1l-0.1,0.1l-0.1,0.1l-0.1,0.1l-0.2,0.2
		l-0.1,0.1l-0.1,0.1l-0.1,0.3v0.2l0,0.2l0,0.2l0,0.1l0.1,0.1l0.1,0.1l0.2,0.2l0.3,0.2l0.1,0.1l0.1,0l0.3,0.1l0.2,0l0.1,0L250,23.7z"
		/>
	<path fill="#1E3160" d="M256.6,16.6h1.4v1.9l0.1-0.1l0.1-0.1l0.1-0.1l0.1-0.1l0.1-0.1l0.1-0.1l0.1-0.1l0.1-0.1l0.1-0.1l0.1-0.1
		l0.1-0.1l0.1-0.1l0.1-0.1l0.1-0.1l0.2-0.1l0.1-0.1l0.1-0.1l0.1-0.1l0.4-0.1l0.2,0l0.1,0l0.2,0h0.5v1.3h-0.3l-0.3,0l-0.1,0l-0.3,0.1
		l-0.2,0l-0.1,0.1l-0.2,0.1l-0.1,0.1l-0.5,0.4l-0.2,0.2l-0.2,0.2l-0.1,0.1l-0.1,0.1l-0.1,0.1l-0.3,0.7l0,0.1l0,0.1l0,0.1l0,0.1
		l0,0.1l0,0.3v0.2l0,0.1v3.4h-1.4V16.6z"/>
	<path fill="#1E3160" d="M263.1,16.6h1.4v1.9l0.1-0.1l0.1-0.1l0.1-0.1l0.1-0.1l0.1-0.1l0.1-0.1l0.1-0.1l0.1-0.1l0.1-0.1l0.1-0.1
		l0.1-0.1l0.1-0.1l0.1-0.1l0.1-0.1l0.2-0.1l0.1-0.1l0.1-0.1l0.1-0.1l0.4-0.1l0.2,0l0.1,0l0.2,0h0.5v1.3h-0.3l-0.3,0l-0.1,0l-0.3,0.1
		l-0.2,0l-0.1,0.1l-0.2,0.1l-0.1,0.1l-0.5,0.4l-0.2,0.2l-0.2,0.2l-0.1,0.1l-0.1,0.1l-0.1,0.1l-0.3,0.7l0,0.1l0,0.1l0,0.1l0,0.1
		l0,0.1l0,0.3v0.2l0,0.1v3.4h-1.4V16.6z"/>
	<path fill="#1E3160" d="M269.5,13.6h1.6V15h-1.6V13.6z M269.6,16.6h1.4v8.1h-1.4V16.6z"/>
	<path fill="#1E3160" d="M280.5,24.7h-1.4v-1.2l-0.4,0.4l-0.1,0.1l-0.1,0.1l-0.1,0.1l-0.1,0.1l-0.3,0.1l-0.4,0.2l-0.3,0.1l-0.2,0
		l-0.3,0.1l-0.1,0l-0.2,0l-0.2,0h-0.3l-0.2,0l-0.1,0l-0.3,0l-0.3-0.1l-0.3-0.1l-0.2-0.1l-0.1-0.1l-0.1-0.1l-0.1-0.1l-0.1-0.1
		l-0.1-0.1l-0.1-0.1l-0.2-0.2l-0.2-0.2l-0.2-0.3l-0.1-0.1l-0.1-0.2l0-0.1l0-0.1l0-0.1l0-0.1v-0.3l0-0.2l0-0.1l0-0.2l0.1-0.4l0.1-0.1
		l0.1-0.1l0.1-0.1l0.2-0.2l0.1-0.1l0.2-0.2l0.3-0.2l0.3-0.1l0.1-0.1l0.4-0.1l0.4-0.1l0.1,0l0.2,0h0.2l0.2,0h0.5l0.1,0h0.2l0.6,0.1
		l0.4,0.1l0.2,0l0.2,0l0.4,0.1v-0.4l0-0.2l-0.1-0.3l0-0.1l-0.1-0.1l-0.1-0.1l-0.1-0.1l-0.1-0.1l-0.1-0.1l-0.1-0.1l-0.1-0.1l-0.1-0.1
		l-0.1-0.1l-0.1-0.1l-0.1-0.1l-0.1,0l-0.2,0l-0.1,0l-0.2,0l-0.3,0h-0.3l-0.1,0h-0.2l-0.3,0l-0.1,0l-0.1,0l-0.1,0l-0.1,0l-0.3,0.1
		l-0.3,0.1l-0.1,0l-0.1,0.1l-0.2,0.1l-0.1,0.1l0-0.1l-0.1-0.1l-0.1-0.3l-0.1-0.1l0-0.1l-0.1-0.2l0-0.1l0.3-0.1l0.1,0l0.1-0.1
		l0.3-0.1l0.1-0.1l0.1,0l0.1,0l0.1,0l0.4-0.1l0.1,0l0.8-0.1h0.5l0.2,0h0.2l0.2,0l0.2,0l0.2,0l0.1,0l0.2,0l0.1,0l0.3,0.1l0.1,0.1
		l0.1,0.1l0.2,0.1l0.2,0.2l0.1,0.1l0.2,0.2l0.2,0.2l0.1,0.2l0.1,0.2l0.1,0.1l0.1,0.3l0,0.2l0,0.1l0,0.2l0.1,0.6V24.7z M276.4,23.7
		h0.3l0.5,0l0.3-0.1l0.6-0.2l0.1-0.1l0.1-0.1l0.1-0.1l0.3-0.3l0.1-0.1l0.2-0.2l0.1-0.1l0.1-0.3l0-0.1l0-0.1V21l-0.1,0l-0.3-0.1
		l-0.1,0l-0.3-0.1l-0.3-0.1l-0.6-0.1l-0.2,0h-0.5l-0.3,0l-0.1,0l-0.3,0.1l-0.4,0.1l-0.1,0.1l-0.1,0.1l-0.1,0.1l-0.1,0.1l-0.1,0.1
		l-0.2,0.2l-0.1,0.1l-0.1,0.1l-0.1,0.3v0.2l0,0.2l0,0.2l0,0.1l0.1,0.1l0.1,0.1l0.2,0.2l0.3,0.2l0.1,0.1l0.1,0l0.3,0.1l0.2,0l0.1,0
		L276.4,23.7z"/>
	<path fill="#1E3160" d="M289.4,16.6h1.4v6.8l0,0.2v0.2l0,0.2l0,0.2l-0.1,0.5l-0.1,0.3l-0.1,0.1l-0.1,0.1l0,0.1l-0.1,0.1l-0.1,0.1
		l-0.3,0.4l-0.1,0.1l-0.1,0.1l-0.3,0.3l-0.1,0.1l-0.2,0.1l-0.3,0.1l-0.3,0.1l-0.1,0l-0.2,0l-0.1,0l-0.1,0l-0.4,0.1l-0.6,0.1h-0.6
		l-0.8-0.1l-0.4-0.1l-0.1,0l-0.2,0l-0.1,0l-0.6-0.2l-0.4-0.2l-0.1-0.1l-0.1-0.1l-0.1-0.1l-0.1-0.1l-0.3-0.2L283,26l0.2-0.4l0.1-0.2
		l0.2-0.3l0.1-0.1l0.1,0.1l0.3,0.2l0.3,0.1l0.3,0.1l0.3,0.1l0.1,0l0.2,0.1l0.1,0l0.1,0l0.1,0l0.4,0.1l0.3,0h0.2l0.2,0h0.3l0.5,0
		l0.3-0.1l0.3-0.1l0.1-0.1l0.1,0l0.2-0.1l0.1-0.1l0.2-0.2l0.1-0.1l0.2-0.2l0.1-0.1l0.1-0.1l0.1-0.1l0.1-0.1l0.1-0.3l0-0.2l0-0.1
		l0-0.2l0-0.2l0-0.2v-1l-0.1,0.1l-0.1,0.1l-0.1,0.1l-0.1,0.1l-0.1,0.1l-0.1,0.1l-0.2,0.2l-0.1,0.1l-0.1,0.1l-0.4,0.2l-0.4,0.2
		l-0.3,0.1L287,24l-0.5,0h-0.3l-0.5-0.1l-0.2,0l-0.1,0l-0.1,0l-0.1,0l-0.1-0.1l-0.1,0l-0.3-0.1l-0.4-0.2l-0.1-0.1l-0.1-0.1l-0.1-0.1
		l-0.3-0.3l-0.2-0.2l-0.1-0.1l-0.1-0.1l-0.2-0.3l-0.1-0.1l-0.1-0.3l-0.1-0.3l0-0.1l0-0.1l0-0.2l-0.1-0.6v-0.4l0.1-0.6l0-0.1l0-0.1
		l0-0.1l0.2-0.5l0.3-0.5l0.2-0.2l0.2-0.2l0.3-0.3l0.1-0.1l0.2-0.2l0.2-0.1l0.1-0.1l0.1-0.1l0.1-0.1l0.3-0.1l0.1,0l0.1,0l0.2,0l0.3,0
		l0.1,0l0.1,0h0.3l0.2,0l0.3,0l0.2,0l0.1,0l0.1,0l0.3,0.1l0.1,0l0.2,0.1l0.6,0.4l0.2,0.2l0.2,0.2l0.1,0.1l0.1,0.1l0.1,0.1V16.6z
		 M286.5,22.8h0.3l0.3,0l0.3-0.1l0.2,0l0.1-0.1l0.2,0l0.1-0.1l0.1-0.1l0.4-0.2l0.2-0.2l0.2-0.2l0.1-0.1l0.1-0.1l0.1-0.3l0.1-0.1
		l0.1-0.2l0-0.1l0.1-0.3l0-0.2v-0.4l0-0.2l-0.1-0.3l0-0.2l-0.1-0.1l-0.1-0.1l-0.1-0.3l-0.1-0.1l-0.3-0.3l-0.1-0.1l-0.1-0.1l-0.5-0.3
		l-0.1-0.1l-0.2-0.1l-0.3-0.1l-0.1,0l-0.2,0l-0.3,0h-0.3l-0.3,0l-0.2,0l-0.1,0l-0.3,0.1l-0.2,0.1l-0.3,0.1l-0.2,0.1l-0.1,0.1
		l-0.2,0.2l-0.1,0.1l-0.2,0.2l-0.2,0.3l-0.1,0.3l0,0.1l-0.1,0.5l0,0.2v0.4l0,0.2l0.1,0.4l0,0.1l0.1,0.3l0.2,0.4l0.1,0.1l0.1,0.1
		l0.1,0.1l0.3,0.3l0.1,0.1l0.1,0.1l0.1,0.1l0.1,0l0.1,0.1l0.2,0l0.1,0l0.2,0L286.5,22.8z"/>
	<path fill="#1E3160" d="M297.3,24.9H297l-0.1,0l-0.2,0l-0.3,0l-0.1,0l-0.1,0l-0.4-0.1l-0.3-0.1l-0.1-0.1l-0.3-0.1l-0.4-0.3
		l-0.1-0.1l-0.2-0.2l-0.1-0.1l-0.2-0.2l-0.1-0.1l-0.1-0.1l-0.1-0.1l-0.2-0.3l-0.2-0.5l-0.1-0.3l0-0.1l0-0.1l0-0.1l0-0.1l0-0.2l0-0.1
		V21l0-0.2v-0.3l0-0.2v-0.1l0-0.2l0-0.1l0.1-0.5l0-0.1l0.1-0.3l0-0.1l0.1-0.3l0.1-0.1l0.1-0.1l0.1-0.1l0.1-0.1l0.1-0.1l0.2-0.2
		l0.1-0.1l0.2-0.2l0.1-0.1l0.4-0.3l0.2-0.2l0.1-0.1l0.3-0.1l0.4-0.1l0.4-0.1l0.3,0l0.2,0h0.3l0.2,0l0.3,0l0.4,0.1l0.3,0.1l0.3,0.1
		l0.1,0.1l0.1,0.1l0.5,0.3l0.1,0.1l0.1,0.1l0.3,0.3l0.1,0.1l0.2,0.3l0.1,0.1l0.2,0.4l0.1,0.3l0.1,0.3l0.1,0.4l0,0.2l0,0.1l0,0.2v0.2
		l0,0.2v0.4l0,0.2h-6.3l0,0.1l0,0.2l0,0.1l0,0.1l0.1,0.3l0,0.1l0.3,0.5l0.3,0.3l0.1,0.1l0.1,0.1l0.3,0.2l0.3,0.1l0.3,0.1l0.1,0
		l0.1,0l0.2,0l0.3,0h0.3l0.5,0l0.1,0l0.1,0l0.1,0l0.1,0l0.4-0.2l0.1-0.1l0.1-0.1l0.2-0.2l0.3-0.3l0.1-0.1l0.2,0.2l0.2,0.2l0.1,0.1
		l0.1,0.1l0.1,0.1l0.1,0.1l-0.3,0.3l-0.1,0.1l-0.1,0.1l-0.5,0.4l-0.1,0.1l-0.1,0.1l-0.1,0.1l-0.1,0.1l-0.1,0.1l-0.1,0.1l-0.3,0.1
		l-0.4,0.1l-0.2,0l-0.2,0h-0.2L297.3,24.9z M297.1,17.6h-0.3l-0.2,0l-0.2,0l-0.2,0.1l-0.1,0l-0.1,0.1l-0.3,0.1l-0.1,0.1l-0.1,0.1
		l-0.1,0.1l-0.3,0.3l-0.2,0.3l-0.2,0.3l-0.1,0.2l0,0.1l0,0.2l0,0.1l0,0.1l0,0.2l0,0.1h4.9l0-0.3l-0.1-0.3l0-0.1l0-0.1l0-0.1
		l-0.1-0.1l-0.1-0.2l-0.1-0.1l-0.3-0.4l-0.1-0.1l-0.1-0.1l-0.1-0.1l-0.3-0.2l-0.1-0.1l-0.4-0.1l-0.1,0L297.1,17.6z"/>
	<path fill="#1E3160" d="M309.1,16.5v0.2l0,0.1l0.1,0.2l0,0.1l0.1,0.1l0.1,0.1l0.1,0.1l0.2,0.2l0.1,0.1l0.3,0.2l0.4,0.2l0.1,0l0.1,0
		l0.1,0l0.1,0l0.1,0l0.2,0l0.1,0l0.2,0l0.2,0l0.2,0l0.2,0l0.5,0.1l0.2,0l0.2,0l0.5,0.2l0.4,0.2l0.1,0.1l0.2,0.1l0.2,0.1l0.1,0.1
		l0.1,0.1l0.3,0.3L315,20l0.1,0.1l0.1,0.1l0.1,0.1l0.1,0.1l0.1,0.1l0,0.2l0.1,0.3l0,0.3v0.4l0,0.3l-0.1,0.4l0,0.1l-0.1,0.1l0,0.1
		l-0.1,0.1l-0.1,0.1l-0.1,0.1l-0.1,0.1l-0.1,0.1l-0.3,0.3l-0.4,0.3l-0.3,0.1l-0.4,0.2l-0.3,0.1l-0.1,0l-0.3,0.1l-0.1,0l-0.2,0
		l-0.2,0H312l-0.2,0h-0.5l-0.7-0.1l-0.7-0.1l-0.1,0l-0.4-0.1l-0.3-0.1l-0.1,0l-0.1-0.1l-0.1-0.1l-0.1-0.1l-0.1-0.1l-0.1-0.1
		l-0.1-0.1l-0.1-0.1l-0.1-0.1l-0.5-0.4l-0.2-0.2l0.1-0.1l0.1-0.1l0.1-0.1l0.1-0.1l0.2-0.2l0.1-0.1l0.1-0.1l0.1-0.1l0.2,0.2l0.1,0.1
		l0.1,0.1l0.1,0.1l0.1,0.1l0.1,0.1l0.2,0.1l0.6,0.3l0.1,0.1l0.1,0l0.1,0.1l0.2,0l0.1,0l0.3,0.1l0.2,0l0.2,0l0.2,0h0.2l0.2,0h0.3
		l0.3,0l0.1,0l0.2,0l0.4-0.1l0.1-0.1l0.2-0.1l0.2-0.2l0.2-0.2l0.1-0.1l0.1-0.1l0-0.1l0-0.1l0.1-0.3v-0.3l0-0.2l0-0.2l0-0.1l-0.1-0.1
		l-0.1-0.1l-0.1-0.1l-0.1-0.1l-0.4-0.2l-0.5-0.2l-0.1,0l-0.3-0.1l-0.5-0.1l-0.2-0.1l-0.2,0l-0.2,0l-0.2,0l-0.2,0l-0.2,0l-0.5-0.1
		l-0.1,0l-0.4-0.1l-0.1,0l-0.2,0l-0.3-0.1l-0.1-0.1l-0.1-0.1l-0.2-0.1l-0.3-0.3l-0.1-0.1l-0.1-0.1l-0.2-0.3l-0.2-0.4l-0.1-0.1
		l-0.1-0.3l0-0.2l0-0.3v-0.4l0-0.2l0.1-0.4l0.1-0.2l0.1-0.3l0.1-0.3l0.1-0.1l0.1-0.1l0.1-0.1l0.1-0.1l0.2-0.2l0.1-0.1l0.1-0.1
		l0.1-0.1l0.4-0.2l0.3-0.1l0.1,0l0.1,0l0.1,0l0.1,0l0.2,0l0.1,0l0.2,0l0.1,0h0.2l0.1,0h0.5l0.6,0.1l0.1,0l0.2,0l0.3,0.1l0.3,0.1
		l0.1,0l0.5,0.2l0.3,0.1l0.4,0.2l0.1,0.1l0.1,0.1l0.5,0.4l-0.4,0.6l-0.1,0.1l-0.1,0.1l-0.2,0.2l-0.1-0.1l-0.4-0.3l-0.5-0.3l-0.2-0.1
		l-0.1,0l-0.1-0.1l-0.1-0.1l-0.1,0l-0.2,0l-0.1,0l-0.1,0l-0.3-0.1l-0.1,0h-0.1l-0.2,0h-0.3l-0.3,0l-0.3,0.1l-0.1,0l-0.3,0.1
		l-0.3,0.1l-0.1,0.1l-0.1,0.1l-0.1,0.1l-0.1,0.1l-0.1,0.1l-0.1,0.1l0,0.2l0,0.1L309.1,16.5z"/>
	<path fill="#1E3160" d="M318.2,17.8h-1.1v-1.2h1.1v-2.4h1.4v2.4h2.5v1.2h-2.5v4.7l0,0.2l0,0.1l0.1,0.3l0.1,0.1l0.1,0.1l0.1,0.1
		l0.1,0.1l0.1,0.1l0.1,0l0.1,0l0.1,0h0.3l0.1,0l0.4-0.1l0.1,0l0.1-0.1l0.2-0.1v1.2l-0.1,0.1l-0.1,0.1l-0.3,0.1l-0.1,0l-0.1,0l-0.1,0
		l-0.1,0h-0.1l-0.1,0h-0.3l-0.3,0l-0.4-0.1l-0.1-0.1l-0.1,0l-0.1-0.1l-0.2-0.2l-0.2-0.2l-0.1-0.1l-0.1-0.1l-0.1-0.1l-0.1-0.1
		l-0.1-0.2l-0.1-0.1l-0.1-0.4l0-0.3V17.8z"/>
	<path fill="#1E3160" d="M324.2,16.6h1.4v1.9l0.1-0.1l0.1-0.1l0.1-0.1l0.1-0.1l0.1-0.1l0.1-0.1l0.1-0.1l0.1-0.1l0.1-0.1l0.1-0.1
		l0.1-0.1l0.1-0.1l0.1-0.1l0.1-0.1l0.2-0.1l0.1-0.1l0.1-0.1l0.1-0.1l0.4-0.1l0.2,0l0.1,0l0.2,0h0.5v1.3h-0.3l-0.3,0l-0.1,0l-0.3,0.1
		l-0.2,0l-0.1,0.1l-0.2,0.1l-0.1,0.1l-0.5,0.4l-0.2,0.2l-0.2,0.2l-0.1,0.1l-0.1,0.1l-0.1,0.1l-0.3,0.7l0,0.1l0,0.1l0,0.1l0,0.1
		l0,0.1l0,0.3v0.2l0,0.1v3.4h-1.4V16.6z"/>
	<path fill="#1E3160" d="M334.1,24.9h-0.3l-0.1,0l-0.2,0l-0.3,0l-0.1,0l-0.1,0l-0.4-0.1l-0.3-0.1l-0.1-0.1l-0.3-0.1l-0.4-0.3
		l-0.1-0.1l-0.2-0.2l-0.1-0.1l-0.2-0.2l-0.1-0.1l-0.1-0.1l-0.1-0.1l-0.2-0.3l-0.2-0.5L330,22l0-0.1l0-0.1l0-0.1l0-0.1l0-0.2l0-0.1
		V21l0-0.2v-0.3l0-0.2v-0.1l0-0.2l0-0.1l0.1-0.5l0-0.1l0.1-0.3l0-0.1l0.1-0.3l0.1-0.1l0.1-0.1l0.1-0.1l0.1-0.1l0.1-0.1l0.2-0.2
		l0.1-0.1l0.2-0.2l0.1-0.1l0.4-0.3l0.2-0.2l0.1-0.1l0.3-0.1l0.4-0.1l0.4-0.1l0.3,0l0.2,0h0.3l0.2,0l0.3,0l0.4,0.1l0.3,0.1l0.3,0.1
		l0.1,0.1l0.1,0.1l0.5,0.3l0.1,0.1l0.1,0.1l0.3,0.3l0.1,0.1l0.2,0.3l0.1,0.1l0.2,0.4l0.1,0.3l0.1,0.3l0.1,0.4l0,0.2l0,0.1l0,0.2v0.2
		l0,0.2v0.4l0,0.2h-6.3l0,0.1l0,0.2l0,0.1l0,0.1l0.1,0.3l0,0.1l0.3,0.5l0.3,0.3l0.1,0.1l0.1,0.1l0.3,0.2l0.3,0.1l0.3,0.1l0.1,0
		l0.1,0l0.2,0l0.3,0h0.3l0.5,0l0.1,0l0.1,0l0.1,0l0.1,0l0.4-0.2l0.1-0.1l0.1-0.1L336,23l0.3-0.3l0.1-0.1l0.2,0.2l0.2,0.2l0.1,0.1
		l0.1,0.1l0.1,0.1l0.1,0.1l-0.3,0.3l-0.1,0.1l-0.1,0.1l-0.5,0.4l-0.1,0.1l-0.1,0.1l-0.1,0.1l-0.1,0.1l-0.1,0.1l-0.1,0.1l-0.3,0.1
		l-0.4,0.1l-0.2,0l-0.2,0h-0.2L334.1,24.9z M333.9,17.6h-0.3l-0.2,0l-0.2,0l-0.2,0.1l-0.1,0l-0.1,0.1l-0.3,0.1l-0.1,0.1l-0.1,0.1
		l-0.1,0.1l-0.3,0.3l-0.2,0.3l-0.2,0.3l-0.1,0.2l0,0.1l0,0.2l0,0.1l0,0.1l0,0.2l0,0.1h4.9l0-0.3l-0.1-0.3l0-0.1l0-0.1l0-0.1
		l-0.1-0.1l-0.1-0.2l-0.1-0.1l-0.3-0.4l-0.1-0.1l-0.1-0.1l-0.1-0.1l-0.3-0.2l-0.1-0.1l-0.4-0.1l-0.1,0L333.9,17.6z"/>
	<path fill="#1E3160" d="M339.7,16.6h1.4v1.4l0.1-0.1l0.2-0.2l0.2-0.2l0.2-0.2l0.1-0.1l0.1-0.1l0.1-0.1l0.1-0.1l0.1-0.1l0.2-0.1
		l0.1-0.1l0.2,0l0.4-0.1l0.1,0l0.2,0h0.3l0.1,0l0.3,0l0.4,0.1l0.1,0l0.1,0l0.4,0.2l0.1,0.1l0.1,0.1l0.2,0.2l0.1,0.1l0.1,0.1l0.2,0.2
		l0.1,0.1l0.1,0.1l0.2,0.4l0,0.1l0,0.1l0.1,0.3l0,0.2l0,0.1v0.2l0,0.1v5.2h-1.4v-4.9l0-0.3l0-0.2l0-0.2l-0.1-0.3l-0.1-0.1l-0.1-0.2
		l-0.1-0.1l-0.1-0.1l-0.1-0.1l-0.1-0.1l-0.2-0.2l-0.1-0.1l-0.1-0.1l-0.2,0l-0.1,0l-0.2,0l-0.2,0h-0.3l-0.2,0l-0.3,0.1l-0.3,0.1
		l-0.3,0.1l-0.2,0.2l-0.1,0.1l-0.2,0.2l-0.1,0.1l-0.1,0.1l-0.1,0.1l-0.1,0.1l-0.1,0.1l-0.1,0.1l-0.1,0.4l0,0.3v4.8h-1.4V16.6z"/>
	<path fill="#1E3160" d="M355.9,16.6h1.4v6.8l0,0.2v0.2l0,0.2l0,0.2l-0.1,0.5l-0.1,0.3L357,25l-0.1,0.1l0,0.1l-0.1,0.1l-0.1,0.1
		l-0.3,0.4l-0.1,0.1l-0.1,0.1l-0.3,0.3l-0.1,0.1l-0.2,0.1l-0.3,0.1l-0.3,0.1l-0.1,0l-0.2,0l-0.1,0l-0.1,0l-0.4,0.1l-0.6,0.1h-0.6
		l-0.8-0.1l-0.4-0.1l-0.1,0l-0.2,0l-0.1,0l-0.6-0.2l-0.4-0.2l-0.1-0.1l-0.1-0.1l-0.1-0.1l-0.1-0.1l-0.3-0.2l0.1-0.1l0.2-0.4l0.1-0.2
		l0.2-0.3l0.1-0.1l0.1,0.1l0.3,0.2l0.3,0.1l0.3,0.1l0.3,0.1l0.1,0l0.2,0.1l0.1,0l0.1,0l0.1,0l0.4,0.1l0.3,0h0.2l0.2,0h0.3l0.5,0
		l0.3-0.1l0.3-0.1l0.1-0.1l0.1,0l0.2-0.1l0.1-0.1l0.2-0.2l0.1-0.1l0.2-0.2l0.1-0.1l0.1-0.1l0.1-0.1l0.1-0.1l0.1-0.3l0-0.2l0-0.1
		l0-0.2l0-0.2l0-0.2v-1l-0.1,0.1l-0.1,0.1l-0.1,0.1l-0.1,0.1l-0.1,0.1l-0.1,0.1l-0.2,0.2l-0.1,0.1l-0.1,0.1l-0.4,0.2l-0.4,0.2
		l-0.3,0.1l-0.4,0.1l-0.5,0h-0.3l-0.5-0.1l-0.2,0l-0.1,0l-0.1,0l-0.1,0l-0.1-0.1l-0.1,0l-0.3-0.1l-0.4-0.2l-0.1-0.1l-0.1-0.1
		l-0.1-0.1l-0.3-0.3l-0.2-0.2l-0.1-0.1l-0.1-0.1l-0.2-0.3l-0.1-0.1l-0.1-0.3l-0.1-0.3l0-0.1l0-0.1l0-0.2l-0.1-0.6v-0.4l0.1-0.6
		l0-0.1l0-0.1l0-0.1l0.2-0.5l0.3-0.5l0.2-0.2l0.2-0.2l0.3-0.3l0.1-0.1l0.2-0.2l0.2-0.1l0.1-0.1l0.1-0.1l0.1-0.1l0.3-0.1l0.1,0l0.1,0
		l0.2,0l0.3,0l0.1,0l0.1,0h0.3l0.2,0l0.3,0l0.2,0l0.1,0l0.1,0l0.3,0.1l0.1,0l0.2,0.1l0.6,0.4l0.2,0.2l0.2,0.2l0.1,0.1l0.1,0.1
		l0.1,0.1V16.6z M353,22.8h0.3l0.3,0l0.3-0.1l0.2,0l0.1-0.1l0.2,0l0.1-0.1l0.1-0.1l0.4-0.2l0.2-0.2l0.2-0.2l0.1-0.1l0.1-0.1l0.1-0.3
		l0.1-0.1l0.1-0.2l0-0.1l0.1-0.3l0-0.2v-0.4l0-0.2l-0.1-0.3l0-0.2l-0.1-0.1l-0.1-0.1l-0.1-0.3l-0.1-0.1l-0.3-0.3l-0.1-0.1l-0.1-0.1
		l-0.5-0.3l-0.1-0.1l-0.2-0.1l-0.3-0.1l-0.1,0l-0.2,0l-0.3,0H353l-0.3,0l-0.2,0l-0.1,0l-0.3,0.1l-0.2,0.1l-0.3,0.1l-0.2,0.1
		l-0.1,0.1l-0.2,0.2l-0.1,0.1l-0.2,0.2l-0.2,0.3l-0.1,0.3l0,0.1l-0.1,0.5l0,0.2v0.4l0,0.2l0.1,0.4l0,0.1l0.1,0.3l0.2,0.4l0.1,0.1
		l0.1,0.1l0.1,0.1l0.3,0.3l0.1,0.1l0.1,0.1l0.1,0.1l0.1,0l0.1,0.1l0.2,0l0.1,0l0.2,0L353,22.8z"/>
	<path fill="#1E3160" d="M360.4,17.8h-1.1v-1.2h1.1v-2.4h1.4v2.4h2.5v1.2h-2.5v4.7l0,0.2l0,0.1l0.1,0.3l0.1,0.1l0.1,0.1l0.1,0.1
		l0.1,0.1l0.1,0.1l0.1,0l0.1,0l0.1,0h0.3l0.1,0l0.4-0.1l0.1,0l0.1-0.1l0.2-0.1v1.2l-0.1,0.1l-0.1,0.1l-0.3,0.1l-0.1,0l-0.1,0l-0.1,0
		l-0.1,0H363l-0.1,0h-0.3l-0.3,0l-0.4-0.1l-0.1-0.1l-0.1,0l-0.1-0.1l-0.2-0.2l-0.2-0.2l-0.1-0.1l-0.1-0.1l-0.1-0.1l-0.1-0.1
		l-0.1-0.2l-0.1-0.1l-0.1-0.4l0-0.3V17.8z"/>
	<path fill="#1E3160" d="M366.4,13.3h1.4v4.6l0.1-0.1l0.2-0.2l0.2-0.2l0.2-0.2l0.1-0.1l0.1-0.1l0.1-0.1l0.1-0.1l0.1-0.1l0.2-0.1
		l0.1-0.1l0.2,0l0.4-0.1l0.1,0l0.2,0h0.3l0.1,0l0.3,0l0.4,0.1l0.1,0l0.1,0l0.4,0.2l0.1,0.1l0.1,0.1l0.2,0.2l0.1,0.1l0.1,0.1l0.2,0.2
		l0.1,0.1l0.1,0.1l0.2,0.4l0,0.1l0,0.1l0.1,0.3l0,0.2l0,0.1v0.2l0,0.1v5.2h-1.4v-4.9l0-0.3l0-0.2l0-0.2l-0.1-0.3l-0.1-0.1l-0.1-0.2
		l-0.1-0.1l-0.1-0.1l-0.1-0.1l-0.1-0.1l-0.2-0.2l-0.1-0.1l-0.1-0.1l-0.2,0l-0.1,0l-0.2,0l-0.2,0h-0.3l-0.2,0l-0.3,0.1l-0.3,0.1
		l-0.3,0.1l-0.2,0.2l-0.1,0.1l-0.2,0.2l-0.1,0.1l-0.1,0.1l-0.1,0.1l-0.1,0.1l-0.1,0.1l-0.1,0.1l-0.1,0.4l0,0.3v4.8h-1.4V13.3z"/>
	<path fill="#1E3160" d="M380,24.9h-0.3l-0.1,0l-0.2,0l-0.3,0l-0.1,0l-0.1,0l-0.4-0.1l-0.3-0.1l-0.1-0.1l-0.3-0.1l-0.4-0.3l-0.1-0.1
		l-0.2-0.2l-0.1-0.1l-0.2-0.2l-0.1-0.1l-0.1-0.1l-0.1-0.1l-0.2-0.3l-0.2-0.5l-0.1-0.3l0-0.1l0-0.1l0-0.1l0-0.1l0-0.2l0-0.1V21l0-0.2
		v-0.3l0-0.2v-0.1l0-0.2l0-0.1l0.1-0.5l0-0.1L376,19l0-0.1l0.1-0.3l0.1-0.1l0.1-0.1l0.1-0.1l0.1-0.1l0.1-0.1l0.2-0.2l0.1-0.1
		l0.2-0.2l0.1-0.1l0.4-0.3l0.2-0.2l0.1-0.1l0.3-0.1l0.4-0.1l0.4-0.1l0.3,0l0.2,0h0.3l0.2,0l0.3,0l0.4,0.1l0.3,0.1l0.3,0.1l0.1,0.1
		l0.1,0.1l0.5,0.3l0.1,0.1l0.1,0.1l0.3,0.3l0.1,0.1l0.2,0.3l0.1,0.1l0.2,0.4l0.1,0.3l0.1,0.3l0.1,0.4l0,0.2l0,0.1l0,0.2v0.2l0,0.2
		v0.4l0,0.2h-6.3l0,0.1l0,0.2l0,0.1l0,0.1l0.1,0.3l0,0.1l0.3,0.5l0.3,0.3L378,23l0.1,0.1l0.3,0.2l0.3,0.1l0.3,0.1l0.1,0l0.1,0l0.2,0
		l0.3,0h0.3l0.5,0l0.1,0l0.1,0l0.1,0l0.1,0l0.4-0.2l0.1-0.1l0.1-0.1l0.2-0.2l0.3-0.3l0.1-0.1l0.2,0.2l0.2,0.2l0.1,0.1l0.1,0.1
		l0.1,0.1l0.1,0.1l-0.3,0.3l-0.1,0.1l-0.1,0.1l-0.5,0.4l-0.1,0.1l-0.1,0.1l-0.1,0.1l-0.1,0.1l-0.1,0.1l-0.1,0.1l-0.3,0.1l-0.4,0.1
		l-0.2,0l-0.2,0h-0.2L380,24.9z M379.8,17.6h-0.3l-0.2,0l-0.2,0l-0.2,0.1l-0.1,0l-0.1,0.1l-0.3,0.1l-0.1,0.1l-0.1,0.1l-0.1,0.1
		l-0.3,0.3l-0.2,0.3l-0.2,0.3l-0.1,0.2l0,0.1l0,0.2l0,0.1l0,0.1l0,0.2l0,0.1h4.9l0-0.3l-0.1-0.3l0-0.1l0-0.1l0-0.1l-0.1-0.1
		l-0.1-0.2l-0.1-0.1l-0.3-0.4l-0.1-0.1l-0.1-0.1L381,18l-0.3-0.2l-0.1-0.1l-0.4-0.1l-0.1,0L379.8,17.6z"/>
	<path fill="#1E3160" d="M385.6,16.6h1.4v1.4l0.1-0.1l0.2-0.2l0.2-0.2l0.2-0.2l0.1-0.1l0.1-0.1l0.1-0.1l0.1-0.1l0.1-0.1l0.2-0.1
		l0.1-0.1l0.2,0l0.4-0.1l0.1,0l0.2,0h0.3l0.1,0l0.3,0l0.4,0.1l0.1,0l0.1,0l0.4,0.2l0.1,0.1l0.1,0.1l0.2,0.2l0.1,0.1l0.1,0.1l0.2,0.2
		l0.1,0.1l0.1,0.1l0.2,0.4l0,0.1l0,0.1l0.1,0.3l0,0.2l0,0.1v0.2l0,0.1v5.2h-1.4v-4.9l0-0.3l0-0.2l0-0.2l-0.1-0.3l-0.1-0.1l-0.1-0.2
		l-0.1-0.1l-0.1-0.1l-0.1-0.1l-0.1-0.1l-0.2-0.2l-0.1-0.1l-0.1-0.1l-0.2,0l-0.1,0l-0.2,0l-0.2,0h-0.3l-0.2,0l-0.3,0.1l-0.3,0.1
		l-0.3,0.1l-0.2,0.2l-0.1,0.1l-0.2,0.2l-0.1,0.1l-0.1,0.1l-0.1,0.1l-0.1,0.1l-0.1,0.1l-0.1,0.1l-0.1,0.4l0,0.3v4.8h-1.4V16.6z"/>
	<path fill="#1E3160" d="M395.4,13.6h1.6V15h-1.6V13.6z M395.5,16.6h1.4v8.1h-1.4V16.6z"/>
	<path fill="#1E3160" d="M399.7,16.6h1.4v1.4l0.1-0.1l0.2-0.2l0.2-0.2l0.2-0.2l0.1-0.1l0.1-0.1l0.1-0.1l0.1-0.1l0.1-0.1l0.2-0.1
		l0.1-0.1l0.2,0l0.4-0.1l0.1,0l0.2,0h0.3l0.1,0l0.3,0l0.4,0.1l0.1,0l0.1,0l0.4,0.2l0.1,0.1l0.1,0.1l0.2,0.2l0.1,0.1l0.1,0.1l0.2,0.2
		l0.1,0.1l0.1,0.1l0.2,0.4l0,0.1l0,0.1l0.1,0.3l0,0.2l0,0.1v0.2l0,0.1v5.2h-1.4v-4.9l0-0.3l0-0.2l0-0.2l-0.1-0.3l-0.1-0.1l-0.1-0.2
		l-0.1-0.1l-0.1-0.1l-0.1-0.1l-0.1-0.1l-0.2-0.2l-0.1-0.1l-0.1-0.1l-0.2,0l-0.1,0l-0.2,0l-0.2,0h-0.3l-0.2,0l-0.3,0.1l-0.3,0.1
		l-0.3,0.1l-0.2,0.2l-0.1,0.1l-0.2,0.2l-0.1,0.1l-0.1,0.1l-0.1,0.1l-0.1,0.1l-0.1,0.1l-0.1,0.1l-0.1,0.4l0,0.3v4.8h-1.4V16.6z"/>
	<path fill="#1E3160" d="M415.8,16.6h1.4v6.8l0,0.2v0.2l0,0.2l0,0.2l-0.1,0.5l-0.1,0.3l-0.1,0.1l-0.1,0.1l0,0.1l-0.1,0.1l-0.1,0.1
		l-0.3,0.4l-0.1,0.1l-0.1,0.1l-0.3,0.3l-0.1,0.1l-0.2,0.1l-0.3,0.1l-0.3,0.1l-0.1,0l-0.2,0l-0.1,0l-0.1,0l-0.4,0.1l-0.6,0.1h-0.6
		l-0.8-0.1l-0.4-0.1l-0.1,0l-0.2,0l-0.1,0l-0.6-0.2l-0.4-0.2l-0.1-0.1l-0.1-0.1l-0.1-0.1l-0.1-0.1l-0.3-0.2l0.1-0.1l0.2-0.4l0.1-0.2
		l0.2-0.3l0.1-0.1l0.1,0.1l0.3,0.2l0.3,0.1l0.3,0.1l0.3,0.1l0.1,0l0.2,0.1l0.1,0l0.1,0l0.1,0l0.4,0.1l0.3,0h0.2l0.2,0h0.3l0.5,0
		l0.3-0.1l0.3-0.1l0.1-0.1l0.1,0l0.2-0.1l0.1-0.1l0.2-0.2l0.1-0.1l0.2-0.2l0.1-0.1l0.1-0.1l0.1-0.1l0.1-0.1l0.1-0.3l0-0.2l0-0.1
		l0-0.2l0-0.2l0-0.2v-1l-0.1,0.1l-0.1,0.1l-0.1,0.1l-0.1,0.1l-0.1,0.1l-0.1,0.1l-0.2,0.2l-0.1,0.1l-0.1,0.1l-0.4,0.2l-0.4,0.2
		l-0.3,0.1l-0.4,0.1l-0.5,0h-0.3l-0.5-0.1l-0.2,0l-0.1,0l-0.1,0l-0.1,0l-0.1-0.1l-0.1,0l-0.3-0.1l-0.4-0.2l-0.1-0.1l-0.1-0.1
		l-0.1-0.1l-0.3-0.3l-0.2-0.2l-0.1-0.1l-0.1-0.1l-0.2-0.3l-0.1-0.1l-0.1-0.3l-0.1-0.3l0-0.1l0-0.1l0-0.2l-0.1-0.6v-0.4l0.1-0.6
		l0-0.1l0-0.1l0-0.1l0.2-0.5l0.3-0.5l0.2-0.2l0.2-0.2l0.3-0.3l0.1-0.1l0.2-0.2l0.2-0.1l0.1-0.1l0.1-0.1l0.1-0.1l0.3-0.1l0.1,0l0.1,0
		l0.2,0l0.3,0l0.1,0l0.1,0h0.3l0.2,0l0.3,0l0.2,0l0.1,0l0.1,0l0.3,0.1l0.1,0l0.2,0.1l0.6,0.4l0.2,0.2l0.2,0.2l0.1,0.1l0.1,0.1
		l0.1,0.1V16.6z M412.9,22.8h0.3l0.3,0l0.3-0.1l0.2,0l0.1-0.1l0.2,0l0.1-0.1l0.1-0.1l0.4-0.2l0.2-0.2l0.2-0.2l0.1-0.1l0.1-0.1
		l0.1-0.3l0.1-0.1l0.1-0.2l0-0.1l0.1-0.3l0-0.2v-0.4l0-0.2l-0.1-0.3l0-0.2l-0.1-0.1l-0.1-0.1l-0.1-0.3l-0.1-0.1l-0.3-0.3l-0.1-0.1
		l-0.1-0.1l-0.5-0.3l-0.1-0.1l-0.2-0.1l-0.3-0.1l-0.1,0l-0.2,0l-0.3,0h-0.3l-0.3,0l-0.2,0l-0.1,0l-0.3,0.1l-0.2,0.1l-0.3,0.1
		l-0.2,0.1l-0.1,0.1l-0.2,0.2l-0.1,0.1l-0.2,0.2l-0.2,0.3l-0.1,0.3l0,0.1l-0.1,0.5l0,0.2v0.4l0,0.2l0.1,0.4l0,0.1l0.1,0.3l0.2,0.4
		l0.1,0.1l0.1,0.1l0.1,0.1l0.3,0.3l0.1,0.1l0.1,0.1l0.1,0.1l0.1,0l0.1,0.1l0.2,0l0.1,0l0.2,0L412.9,22.8z"/>
</g>
<g>
	<path fill="#1E3160" d="M234,29.8h4.9l0.2,0h0.2l0.3,0l0.1,0l0.2,0l0.1,0l0.1,0.1l0.1,0l0.3,0.1l0.3,0.1l0.1,0.1l0.2,0.1l0.3,0.2
		l0.1,0.1l0.2,0.2l0.3,0.3l0.3,0.4l0.1,0.1l0.2,0.4l0.1,0.1l0.1,0.5l0,0.3v0.4l0,0.2l0,0.1l0,0.2l0,0.1l-0.1,0.4l-0.1,0.1l-0.1,0.2
		l-0.1,0.1l-0.1,0.1l-0.1,0.1l-0.1,0.1l-0.1,0.1l-0.4,0.4l-0.2,0.1l-0.1,0.1l-0.3,0.1l-0.1,0.1l-0.1,0l-0.1,0.1l-0.2,0l-0.1,0
		l-0.2,0l-0.1,0l0.2,0.2l0.3,0.4l0.1,0.1l0.1,0.1l0.4,0.5l0.6,0.8l0.1,0.1l0.4,0.5l0.3,0.4l0.6,0.9l0.3,0.4h-1.7l-0.5-0.6l-0.1-0.1
		l-0.1-0.1l-0.1-0.1l-0.1-0.1l-0.6-0.8l-0.1-0.1l-0.4-0.5l-0.4-0.5l-0.5-0.7l-0.3-0.4h-2.9v4.1H234V29.8z M235.4,35.3h3.4l0.5,0
		l0.1,0l0.2,0l0.1,0l0.5-0.2l0.3-0.2l0.1-0.1l0.3-0.3l0.1-0.2l0.1-0.1l0.1-0.1l0-0.1l0-0.2l0-0.1l0-0.2V33l0-0.1l0-0.2l0-0.1
		l-0.1-0.3l-0.1-0.1l-0.1-0.1l-0.2-0.2l-0.1-0.1l-0.1-0.1l-0.3-0.2l-0.1-0.1l-0.1,0l-0.1,0l-0.1,0l-0.3-0.1l-0.1,0l-0.5,0h-3.4V35.3
		z"/>
	<path fill="#1E3160" d="M248.8,40.9h-0.3l-0.1,0l-0.2,0l-0.3,0l-0.1,0l-0.1,0l-0.4-0.1l-0.3-0.1l-0.1-0.1l-0.3-0.1l-0.4-0.3
		l-0.1-0.1l-0.2-0.2l-0.1-0.1l-0.2-0.2l-0.1-0.1l-0.1-0.1l-0.1-0.1l-0.2-0.3l-0.2-0.5l-0.1-0.3l0-0.1l0-0.1l0-0.1l0-0.1l0-0.2l0-0.1
		V37l0-0.2v-0.3l0-0.2v-0.1l0-0.2l0-0.1l0.1-0.5l0-0.1l0.1-0.3l0-0.1l0.1-0.3l0.1-0.1l0.1-0.1l0.1-0.1l0.1-0.1l0.1-0.1l0.2-0.2
		l0.1-0.1l0.2-0.2l0.1-0.1l0.4-0.3l0.2-0.2l0.1-0.1l0.3-0.1l0.4-0.1l0.4-0.1l0.3,0l0.2,0h0.3l0.2,0l0.3,0l0.4,0.1l0.3,0.1l0.3,0.1
		l0.1,0.1l0.1,0.1l0.5,0.3l0.1,0.1l0.1,0.1l0.3,0.3l0.1,0.1l0.2,0.3l0.1,0.1l0.2,0.4L252,35l0.1,0.3l0.1,0.4l0,0.2l0,0.1l0,0.2v0.2
		l0,0.2v0.4l0,0.2H246l0,0.1l0,0.2l0,0.1l0,0.1l0.1,0.3l0,0.1l0.3,0.5l0.3,0.3l0.1,0.1l0.1,0.1l0.3,0.2l0.3,0.1l0.3,0.1l0.1,0l0.1,0
		l0.2,0l0.3,0h0.3l0.5,0l0.1,0l0.1,0l0.1,0l0.1,0l0.4-0.2l0.1-0.1l0.1-0.1l0.2-0.2l0.3-0.3l0.1-0.1l0.2,0.2l0.2,0.2l0.1,0.1l0.1,0.1
		l0.1,0.1l0.1,0.1l-0.3,0.3l-0.1,0.1l-0.1,0.1l-0.5,0.4l-0.1,0.1l-0.1,0.1l-0.1,0.1l-0.1,0.1l-0.1,0.1l-0.1,0.1l-0.3,0.1l-0.4,0.1
		l-0.2,0l-0.2,0H249L248.8,40.9z M248.6,33.6h-0.3l-0.2,0l-0.2,0l-0.2,0.1l-0.1,0l-0.1,0.1l-0.3,0.1l-0.1,0.1l-0.1,0.1l-0.1,0.1
		l-0.3,0.3l-0.2,0.3l-0.2,0.3l-0.1,0.2l0,0.1l0,0.2l0,0.1l0,0.1l0,0.2l0,0.1h4.9l0-0.3l-0.1-0.3l0-0.1l0-0.1l0-0.1l-0.1-0.1
		l-0.1-0.2l-0.1-0.1l-0.3-0.4l-0.1-0.1l-0.1-0.1l-0.1-0.1l-0.3-0.2l-0.1-0.1l-0.4-0.1l-0.1,0L248.6,33.6z"/>
	<path fill="#1E3160" d="M257.3,40.8H257l-0.1,0h-0.1l-0.2,0l-0.1,0l-0.1,0l-0.3-0.1l-0.1,0l-0.2,0l-0.1,0l-0.2-0.1l-0.1,0l-0.2-0.1
		l-0.1-0.1l-0.2-0.1l-0.4-0.2l-0.1-0.1l-0.5-0.3l0.2-0.3l0.1-0.1l0.2-0.2l0.2-0.3l0.1-0.1l0.1,0.1l0.1,0.1l0.1,0.1L255,39l0.3,0.1
		l0.1,0.1l0.3,0.1l0.2,0l0.1,0.1l0.5,0.1l0.1,0l0.5,0h0.3l0.2,0l0.3-0.1l0.1-0.1l0.2-0.1l0.1-0.1l0.1-0.1l0.2-0.2l0.1-0.1l0-0.1
		l0-0.1l0-0.2v0l0-0.2l-0.1-0.2l-0.1-0.2l-0.3-0.3l-0.1-0.1l-0.1-0.1l-0.4-0.1l-0.1-0.1l-0.7-0.2l-0.1,0l-0.7-0.2l-0.3-0.1l-0.4-0.2
		l-0.5-0.3l-0.2-0.2l-0.2-0.2l-0.1-0.1l-0.1-0.1l0-0.1l-0.1-0.3l0-0.1v-0.3l0-0.2l0.1-0.3l0-0.1l0-0.1l0.1-0.1l0.1-0.1l0.2-0.3
		l0.1-0.1l0.1-0.1l0.2-0.2l0.3-0.1l0.3-0.1l0.1-0.1l0.2,0l0.1,0l0.3-0.1l0.3,0l0.1,0l0.2,0h0.3l0.1,0h0.2l0.1,0l0.2,0l0.3,0.1l0.1,0
		l0.2,0l0.1,0l0.3,0.1l0.2,0l0.1,0.1l0.2,0.1l0.1,0.1l0.3,0.2l0.1,0.1l0.1,0.1l-0.1,0.1l-0.1,0.1l-0.4,0.6l-0.1,0.1l-0.3-0.2
		l-0.1-0.1l-0.1-0.1l-0.1-0.1l-0.1-0.1l-0.1,0l-0.1-0.1l-0.6-0.2l-0.2,0l-0.3,0l-0.1,0h-0.3l-0.2,0l-0.2,0l-0.3,0.1l-0.1,0.1
		l-0.1,0.1l-0.1,0.1l-0.1,0.1l-0.1,0.1l0,0.1l0,0.1l0,0.2v0l0,0.2l0.1,0.2l0.1,0.1l0.1,0.1l0.2,0.2l0.2,0.1l0.1,0.1l0.1,0l0.1,0
		l0.4,0.1l0.2,0l0.4,0.1l0.1,0l0.1,0l0.1,0.1l0.1,0l0.1,0.1l0.1,0l0.2,0.1l0.4,0.2l0.1,0.1l0.1,0.1l0.1,0.1l0.1,0.1l0.1,0.1l0.3,0.3
		l0.1,0.3l0,0.2l0,0.1l0,0.2v0.4l0,0.2L260,39l-0.1,0.3l-0.1,0.1l-0.2,0.4l-0.1,0.1l-0.2,0.2l-0.1,0.1l-0.1,0.1l-0.4,0.2l-0.1,0.1
		l-0.4,0.1l-0.1,0l-0.2,0l-0.1,0l-0.2,0h-0.1L257.3,40.8z"/>
	<path fill="#1E3160" d="M266.1,40.9h-0.3l-0.1,0l-0.2,0l-0.3,0l-0.1,0l-0.1,0l-0.4-0.1l-0.3-0.1l-0.1-0.1l-0.3-0.1l-0.4-0.3
		l-0.1-0.1l-0.2-0.2l-0.1-0.1l-0.2-0.2l-0.1-0.1l-0.1-0.1l-0.1-0.1l-0.2-0.3l-0.2-0.5L262,38l0-0.1l0-0.1l0-0.1l0-0.1l0-0.2l0-0.1
		V37l0-0.2v-0.3l0-0.2v-0.1l0-0.2l0-0.1l0.1-0.5l0-0.1l0.1-0.3l0-0.1l0.1-0.3l0.1-0.1l0.1-0.1l0.1-0.1l0.1-0.1l0.1-0.1l0.2-0.2
		l0.1-0.1l0.2-0.2l0.1-0.1l0.4-0.3l0.2-0.2l0.1-0.1l0.3-0.1l0.4-0.1l0.4-0.1l0.3,0l0.2,0h0.3l0.2,0l0.3,0l0.4,0.1l0.3,0.1l0.3,0.1
		l0.1,0.1l0.1,0.1l0.5,0.3l0.1,0.1l0.1,0.1l0.3,0.3l0.1,0.1l0.2,0.3l0.1,0.1l0.2,0.4l0.1,0.3l0.1,0.3l0.1,0.4l0,0.2l0,0.1l0,0.2v0.2
		l0,0.2v0.4l0,0.2h-6.3l0,0.1l0,0.2l0,0.1l0,0.1l0.1,0.3l0,0.1l0.3,0.5l0.3,0.3l0.1,0.1l0.1,0.1l0.3,0.2l0.3,0.1l0.3,0.1l0.1,0
		l0.1,0l0.2,0l0.3,0h0.3l0.5,0l0.1,0l0.1,0l0.1,0l0.1,0l0.4-0.2l0.1-0.1l0.1-0.1L268,39l0.3-0.3l0.1-0.1l0.2,0.2l0.2,0.2l0.1,0.1
		l0.1,0.1l0.1,0.1l0.1,0.1l-0.3,0.3l-0.1,0.1l-0.1,0.1l-0.5,0.4l-0.1,0.1l-0.1,0.1l-0.1,0.1l-0.1,0.1l-0.1,0.1l-0.1,0.1l-0.3,0.1
		l-0.4,0.1l-0.2,0l-0.2,0h-0.2L266.1,40.9z M265.9,33.6h-0.3l-0.2,0l-0.2,0l-0.2,0.1l-0.1,0l-0.1,0.1l-0.3,0.1l-0.1,0.1l-0.1,0.1
		l-0.1,0.1l-0.3,0.3l-0.2,0.3l-0.2,0.3l-0.1,0.2l0,0.1l0,0.2l0,0.1l0,0.1l0,0.2l0,0.1h4.9l0-0.3l-0.1-0.3l0-0.1l0-0.1l0-0.1
		l-0.1-0.1l-0.1-0.2l-0.1-0.1l-0.3-0.4l-0.1-0.1l-0.1-0.1l-0.1-0.1l-0.3-0.2l-0.1-0.1l-0.4-0.1l-0.1,0L265.9,33.6z"/>
	<path fill="#1E3160" d="M278.4,40.7H277v-1.2l-0.4,0.4l-0.1,0.1l-0.1,0.1l-0.1,0.1l-0.1,0.1l-0.3,0.1l-0.4,0.2l-0.3,0.1l-0.2,0
		l-0.3,0.1l-0.1,0l-0.2,0l-0.2,0H274l-0.2,0l-0.1,0l-0.3,0l-0.3-0.1l-0.3-0.1l-0.2-0.1l-0.1-0.1l-0.1-0.1l-0.1-0.1l-0.1-0.1
		l-0.1-0.1l-0.1-0.1l-0.2-0.2l-0.2-0.2l-0.2-0.3l-0.1-0.1l-0.1-0.2l0-0.1l0-0.1l0-0.1l0-0.1v-0.3l0-0.2l0-0.1l0-0.2l0.1-0.4l0.1-0.1
		l0.1-0.1l0.1-0.1l0.2-0.2l0.1-0.1l0.2-0.2l0.3-0.2l0.3-0.1l0.1-0.1l0.4-0.1l0.4-0.1l0.1,0l0.2,0h0.2l0.2,0h0.5l0.1,0h0.2l0.6,0.1
		l0.4,0.1l0.2,0l0.2,0L277,36v-0.4l0-0.2l-0.1-0.3l0-0.1l-0.1-0.1l-0.1-0.1l-0.1-0.1l-0.1-0.1l-0.1-0.1l-0.1-0.1l-0.1-0.1l-0.1-0.1
		L276,34l-0.1-0.1l-0.1-0.1l-0.1,0l-0.2,0l-0.1,0l-0.2,0l-0.3,0h-0.3l-0.1,0h-0.2l-0.3,0l-0.1,0l-0.1,0l-0.1,0l-0.1,0l-0.3,0.1
		l-0.3,0.1l-0.1,0l-0.1,0.1l-0.2,0.1l-0.1,0.1l0-0.1l-0.1-0.1l-0.1-0.3l-0.1-0.1l0-0.1l-0.1-0.2l0-0.1l0.3-0.1l0.1,0l0.1-0.1
		l0.3-0.1l0.1-0.1l0.1,0l0.1,0l0.1,0l0.4-0.1l0.1,0l0.8-0.1h0.5l0.2,0h0.2l0.2,0l0.2,0l0.2,0l0.1,0l0.2,0l0.1,0l0.3,0.1l0.1,0.1
		l0.1,0.1l0.2,0.1l0.2,0.2l0.1,0.1l0.2,0.2l0.2,0.2l0.1,0.2l0.1,0.2l0.1,0.1l0.1,0.3l0,0.2l0,0.1l0,0.2l0.1,0.6V40.7z M274.3,39.7
		h0.3l0.5,0l0.3-0.1l0.6-0.2l0.1-0.1l0.1-0.1l0.1-0.1l0.3-0.3l0.1-0.1l0.2-0.2l0.1-0.1l0.1-0.3l0-0.1l0-0.1V37l-0.1,0l-0.3-0.1
		l-0.1,0l-0.3-0.1l-0.3-0.1l-0.6-0.1l-0.2,0h-0.5l-0.3,0l-0.1,0l-0.3,0.1l-0.4,0.1l-0.1,0.1l-0.1,0.1l-0.1,0.1l-0.1,0.1l-0.1,0.1
		l-0.2,0.2l-0.1,0.1l-0.1,0.1l-0.1,0.3v0.2l0,0.2l0,0.2l0,0.1l0.1,0.1l0.1,0.1l0.2,0.2l0.3,0.2l0.1,0.1l0.1,0.1l0.3,0.1l0.2,0l0.1,0
		L274.3,39.7z"/>
	<path fill="#1E3160" d="M280.9,32.6h1.4v1.9l0.1-0.1l0.1-0.1l0.1-0.1l0.1-0.1l0.1-0.1l0.1-0.1l0.1-0.1l0.1-0.1l0.1-0.1l0.1-0.1
		l0.1-0.1l0.1-0.1l0.1-0.1l0.1-0.1l0.2-0.1l0.1-0.1l0.1-0.1l0.1-0.1l0.4-0.1l0.2,0l0.1,0l0.2,0h0.5v1.3h-0.3l-0.3,0l-0.1,0l-0.3,0.1
		l-0.2,0l-0.1,0.1l-0.2,0.1l-0.1,0.1l-0.5,0.4l-0.2,0.2l-0.2,0.2l-0.1,0.1l-0.1,0.1l-0.1,0.1l-0.3,0.7l0,0.1l0,0.1l0,0.1l0,0.1
		l0,0.1l0,0.3v0.2l0,0.1v3.4h-1.4V32.6z"/>
	<path fill="#1E3160" d="M290.9,40.9h-0.3l-0.2,0l-0.1,0l-0.2,0l-0.5-0.1l-0.4-0.1l-0.3-0.1l-0.1-0.1l-0.1-0.1l-0.1-0.1l-0.4-0.3
		l-0.3-0.3l-0.3-0.3l-0.1-0.1l-0.1-0.1l-0.1-0.2l-0.1-0.1l-0.1-0.3l-0.2-0.4l-0.1-0.3l0-0.2l0-0.1l0-0.1l-0.1-0.6v-0.3l0.1-0.6
		l0-0.2l0-0.1l0-0.2l0-0.1l0.1-0.3l0.1-0.3l0.1-0.3l0.2-0.4l0.2-0.2l0.1-0.1l0.1-0.1l0.1-0.1l0.4-0.4l0.1-0.1l0.3-0.2l0.1-0.1
		l0.1-0.1l0.1-0.1l0.3-0.1l0.1,0l0.2,0l0.5-0.1l0.3,0l0.2,0h0.3l0.1,0h0.2l0.1,0l0.2,0l0.1,0l0.2,0l0.4,0.1l0.4,0.2l0.1,0.1l0.4,0.2
		l0.1,0.1l0.1,0.1l0.5,0.5l0.1,0.1l-0.1,0.1l-0.1,0.1l-0.2,0.2l-0.1,0.1l-0.2,0.2l-0.1,0.1l-0.1,0.1l-0.1-0.1l-0.1-0.1l-0.1-0.1
		l-0.1-0.1l-0.2-0.2l-0.1-0.1l-0.1-0.1l-0.1-0.1l-0.4-0.2l-0.1,0l-0.2,0l-0.2,0l-0.2,0l-0.2,0h-0.3l-0.2,0l-0.1,0l-0.2,0l-0.3,0.1
		l-0.3,0.1l-0.3,0.2l-0.1,0.1l-0.3,0.3l-0.1,0.1l-0.1,0.1l-0.1,0.1l-0.1,0.1l-0.1,0.1l-0.1,0.2l-0.1,0.1l-0.1,0.3l0,0.2l0,0.1l0,0.2
		l0,0.3v0.3l0,0.3l0,0.1l0,0.1l0.1,0.4l0.1,0.1l0.1,0.2l0.3,0.4l0.1,0.1l0.2,0.2l0.1,0.1l0.1,0.1l0.1,0.1l0.3,0.2l0.2,0.1l0.1,0.1
		l0.3,0.1l0.3,0.1l0.1,0l0.2,0h0.3l0.2,0l0.2,0l0.1,0l0.2,0l0.1,0l0.2,0l0.3-0.1l0.1-0.1l0.1-0.1l0.1-0.1l0.1-0.1l0.1-0.1l0.1-0.1
		l0.1-0.1l0.1-0.1l0.1-0.1l0.1,0.1l0.4,0.4l0.3,0.3l-0.3,0.3l-0.3,0.3l-0.1,0.1l-0.1,0.1l-0.1,0.1l-0.1,0.1l-0.3,0.1l-0.1,0.1
		l-0.1,0.1l-0.1,0l-0.2,0.1l-0.3,0.1l-0.2,0l-0.1,0l-0.2,0l-0.1,0h-0.2L290.9,40.9z"/>
	<path fill="#1E3160" d="M296.1,29.3h1.4v4.6l0.1-0.1l0.2-0.2l0.2-0.2l0.2-0.2l0.1-0.1l0.1-0.1l0.1-0.1l0.1-0.1l0.1-0.1l0.2-0.1
		l0.1-0.1l0.2,0l0.4-0.1l0.1,0l0.2,0h0.3l0.1,0l0.3,0l0.4,0.1l0.1,0l0.1,0l0.4,0.2l0.1,0.1l0.1,0.1l0.2,0.2l0.1,0.1l0.1,0.1l0.2,0.2
		l0.1,0.1l0.1,0.1l0.2,0.4l0,0.1l0,0.1l0.1,0.3l0,0.2l0,0.1v0.2l0,0.1v5.2h-1.4v-4.9l0-0.3l0-0.2l0-0.2l-0.1-0.3l-0.1-0.1l-0.1-0.2
		l-0.1-0.1l-0.1-0.1l-0.1-0.1l-0.1-0.1l-0.2-0.2l-0.1-0.1l-0.1-0.1l-0.2,0l-0.1,0l-0.2,0l-0.2,0h-0.3l-0.2,0l-0.3,0.1l-0.3,0.1
		l-0.3,0.1l-0.2,0.2l-0.1,0.1l-0.2,0.2l-0.1,0.1l-0.1,0.1l-0.1,0.1l-0.1,0.1l-0.1,0.1l-0.1,0.1l-0.1,0.4l0,0.3v4.8h-1.4V29.3z"/>
	<path fill="#1E3160" d="M313.7,40.8h-0.3l-0.2,0l-0.1,0l-0.2,0l-0.1,0l-0.2,0l-0.1,0l-0.1,0l-0.1-0.1l-0.2,0l-0.2-0.1l-0.1-0.1
		l-0.1-0.1l-0.1-0.1l-0.1-0.1l-0.4-0.3l-0.1-0.1l-0.1-0.1l-0.1-0.1l-0.2-0.2l-0.1-0.1l-0.1-0.3l-0.1-0.4l0-0.1l0-0.4v-0.3l0-0.2
		l0-0.1l0-0.1l0-0.2l0-0.1l0.2-0.4l0.2-0.4l0.3-0.3l0.3-0.3l0.4-0.3l0.3-0.1l0.1-0.1l0.2-0.1l0.3-0.1l0.2-0.1l-0.2-0.3l-0.1-0.1
		l-0.1-0.1l-0.1-0.1l-0.2-0.2l-0.1-0.3l-0.1-0.1l-0.1-0.3l0-0.1l0-0.2l0-0.3v-0.4l0-0.1l0.1-0.3l0-0.1l0.1-0.2l0.1-0.3l0.1-0.3
		l0.3-0.3l0.1-0.1l0.4-0.3l0.1-0.1l0.2-0.1l0.1-0.1l0.3-0.1l0.3-0.1l0.2,0l0.1,0l0.2,0l0.2,0h0.3l0.2,0l0.3,0l0.3,0.1l0.3,0.1
		l0.3,0.1L316,30l0.1,0.1l0.1,0.1l0.1,0.1l0.2,0.2l0.1,0.1l0.1,0.1l0.3,0.5l0.1,0.4l0,0.1l0,0.3v0.3l0,0.3l0,0.2l-0.1,0.4l-0.1,0.1
		l-0.2,0.2l-0.2,0.2l-0.2,0.2l-0.5,0.4l-0.3,0.2l-0.1,0.1l-0.1,0.1l-0.6,0.3l-0.2,0.1l0.2,0.2l0.3,0.3l0.1,0.1l0.2,0.2l0.3,0.3
		l0.1,0.1l0.2,0.2l0.1,0.1l0.1,0.1l0.1,0.1l0.4,0.4l0.1,0.1l0.2-0.3l0.1-0.1l0.1-0.3l0.3-0.5l0.2-0.4l0.1-0.3l0.1-0.1l0.1-0.1
		l0.1-0.1l0.1,0.1l0.1,0.1l0.1,0.1l0.1,0.1l0.4,0.2l0.1,0.1l-0.1,0.3l-0.1,0.1l-0.1,0.3l-0.1,0.1l-0.1,0.1l-0.1,0.1l-0.1,0.1
		l-0.1,0.1l-0.1,0.1l-0.1,0.1l-0.1,0.1l-0.1,0.1l-0.1,0.1l-0.1,0.1l-0.1,0.1l-0.2,0.2l-0.1,0.1l-0.1,0.1l0.3,0.3l0.1,0.1l0.1,0.1
		l0.2,0.2l0.1,0.1l0.2,0.2l0.2,0.2l0.1,0.1l0.1,0.1l0.4,0.4l-0.8,0.6l-0.1,0.1l-0.1,0.1l-0.1-0.1l-0.1-0.1l-0.2-0.2l-0.2-0.2
		l-0.1-0.1l-0.1-0.1l-0.8-0.8l-0.2,0.2l-0.4,0.3l-0.1,0.1l-0.1,0.1l-0.3,0.2l-0.3,0.2l-0.5,0.3l-0.6,0.2l-0.3,0.1L313.7,40.8z
		 M313.5,39.6h0.3l0.2,0l0.1,0l0.3-0.1l0.2,0l0.3-0.1l0.1-0.1l0.4-0.2l0.4-0.3l0.2-0.2l0.1-0.1l0.1-0.1l-0.6-0.7l-0.2-0.2l-0.1-0.1
		l-0.2-0.2l-0.1-0.1l-0.2-0.2l-0.1-0.1l-0.2-0.2l-0.1-0.1l-0.1-0.1l-0.1-0.1l-0.6-0.7l-0.2,0.1l-0.2,0.1l-0.1,0.1l-0.2,0.1l-0.1,0.1
		l-0.1,0.1l-0.2,0.2l-0.1,0.1l-0.2,0.2l-0.1,0.1l-0.2,0.3l-0.1,0.3l-0.1,0.3l0,0.1l0,0.1v0.3l0.1,0.3l0,0.1l0.1,0.1l0.1,0.1l0.1,0.1
		l0.1,0.1l0.2,0.2l0.1,0.1l0.3,0.2l0.3,0.1l0.3,0.1l0.1,0l0.1,0L313.5,39.6z M315.9,32.3V32l-0.1-0.3l0-0.1l-0.1-0.1l-0.1-0.1
		l-0.2-0.2l-0.1-0.1l-0.1-0.1l-0.1-0.1l-0.3-0.1l-0.3-0.1h-0.3l-0.2,0l-0.1,0l-0.2,0.1l-0.1,0.1l-0.1,0.1l-0.1,0.1l-0.1,0.1
		l-0.2,0.2l-0.1,0.1l-0.1,0.1l0,0.1l-0.1,0.3v0.4l0,0.1l0,0.1l0,0.2l0,0.1l0.1,0.2l0.2,0.3l0.1,0.1l0.3,0.4l0.1,0.1l0.2-0.1l0.2-0.1
		l0.3-0.2l0.2-0.1l0.1-0.1l0.4-0.3l0.2-0.2l0.1-0.1l0.1-0.1l0.1-0.1l0.1-0.1l0-0.1l0.1-0.2L315.9,32.3z"/>
	<path fill="#1E3160" d="M326.6,40.7V29.8h4.2l0.8,0.1l0.3,0.1l0.1,0l0.3,0.1l0.5,0.2l0.1,0.1l0.3,0.1l0.5,0.3l0.1,0.1l0.5,0.4
		l0.3,0.3l0.5,0.6l0.2,0.4l0.1,0.1l0.1,0.1l0.1,0.1l0.1,0.1l0.1,0.1l0,0.1l0.1,0.1l0.1,0.3l0,0.1l0.1,0.1l0.1,0.3l0,0.1l0,0.1l0,0.3
		v0.1l0,0.2v0.3l0,0.1v0.2l0,0.3l0,0.1l0,0.2l0,0.1l0,0.2l-0.1,0.1l0,0.1l0,0.1l0,0.2l-0.1,0.1l0,0.1l-0.1,0.2l-0.3,0.5l-0.2,0.2
		l-0.1,0.1l-0.3,0.3l-0.3,0.3l-0.1,0.1l-0.1,0.1l-0.1,0.1l-0.2,0.2l-0.1,0.1l-0.5,0.3l-0.1,0.1l-0.3,0.1l-0.2,0.1l-0.1,0.1l-0.1,0
		l-0.1,0.1l-0.1,0l-0.1,0l-0.1,0l-0.1,0l-0.1,0l-0.3,0.1l-0.6,0.1l-0.2,0H326.6z M328.1,31.1v8.3h2.6l0.1,0h0.2l0.1,0l0.2,0l0.1,0
		l0.3-0.1l0.6-0.2l0.2-0.1l0.3-0.1l0.1-0.1l0.1-0.1l0.1-0.1l0.1-0.1l0.3-0.3l0.2-0.2l0.2-0.2l0.1-0.1l0.1-0.1l0.3-0.6l0.1-0.1l0-0.1
		l0.1-0.1l0-0.1l0-0.2l0-0.1l0-0.2l0-0.1l0-0.2v-0.2l0-0.2v-0.3l0-0.2v-0.2l0-0.1l0-0.2l-0.1-0.3l0-0.1l0-0.2l-0.1-0.1l0-0.2
		l-0.2-0.4l-0.1-0.1l-0.1-0.1l-0.1-0.1l-0.1-0.1l-0.1-0.1l-0.3-0.3l-0.1-0.1l-0.3-0.3l-0.1-0.1l-0.1-0.1l-0.3-0.1l-0.3-0.1l-0.2-0.1
		l-0.4-0.1l-0.2,0l-0.1,0l-0.2,0l-0.1,0l-0.2,0l-0.1,0h-0.2l-0.1,0H328.1z"/>
	<path fill="#1E3160" d="M338.7,29.6h1.6V31h-1.6V29.6z M338.8,32.6h1.4v8.1h-1.4V32.6z"/>
	<path fill="#1E3160" d="M345.9,40.8h-0.3l-0.1,0h-0.1l-0.2,0l-0.1,0l-0.1,0l-0.3-0.1l-0.1,0l-0.2,0l-0.1,0l-0.2-0.1l-0.1,0
		l-0.2-0.1l-0.1-0.1l-0.2-0.1l-0.4-0.2l-0.1-0.1l-0.5-0.3l0.2-0.3l0.1-0.1l0.2-0.2l0.2-0.3l0.1-0.1l0.1,0.1l0.1,0.1l0.1,0.1l0.1,0.1
		l0.3,0.1l0.1,0.1l0.3,0.1l0.2,0l0.1,0.1l0.5,0.1l0.1,0l0.5,0h0.3l0.2,0l0.3-0.1l0.1-0.1l0.2-0.1l0.1-0.1l0.1-0.1l0.2-0.2l0.1-0.1
		l0-0.1l0-0.1l0-0.2v0l0-0.2l-0.1-0.2l-0.1-0.2l-0.3-0.3l-0.1-0.1l-0.1-0.1l-0.4-0.1l-0.1-0.1l-0.7-0.2l-0.1,0l-0.7-0.2l-0.3-0.1
		l-0.4-0.2l-0.5-0.3l-0.2-0.2l-0.2-0.2l-0.1-0.1l-0.1-0.1l0-0.1l-0.1-0.3l0-0.1v-0.3l0-0.2l0.1-0.3l0-0.1l0-0.1l0.1-0.1l0.1-0.1
		l0.2-0.3l0.1-0.1l0.1-0.1l0.2-0.2l0.3-0.1l0.3-0.1l0.1-0.1l0.2,0l0.1,0l0.3-0.1l0.3,0l0.1,0l0.2,0h0.3l0.1,0h0.2l0.1,0l0.2,0
		l0.3,0.1l0.1,0l0.2,0l0.1,0l0.3,0.1l0.2,0l0.1,0.1l0.2,0.1l0.1,0.1l0.3,0.2l0.1,0.1l0.1,0.1l-0.1,0.1l-0.1,0.1l-0.4,0.6l-0.1,0.1
		l-0.3-0.2l-0.1-0.1l-0.1-0.1l-0.1-0.1l-0.1-0.1l-0.1,0l-0.1-0.1l-0.6-0.2l-0.2,0l-0.3,0l-0.1,0h-0.3l-0.2,0l-0.2,0l-0.3,0.1
		l-0.1,0.1l-0.1,0.1l-0.1,0.1l-0.1,0.1l-0.1,0.1l0,0.1l0,0.1l0,0.2v0l0,0.2l0.1,0.2l0.1,0.1l0.1,0.1l0.2,0.2l0.2,0.1l0.1,0.1l0.1,0
		l0.1,0l0.4,0.1l0.2,0l0.4,0.1l0.1,0l0.1,0l0.1,0.1l0.1,0l0.1,0.1l0.1,0l0.2,0.1l0.4,0.2l0.1,0.1l0.1,0.1l0.1,0.1l0.1,0.1l0.1,0.1
		l0.3,0.3l0.1,0.3l0,0.2l0,0.1l0,0.2v0.4l0,0.2l-0.1,0.3l-0.1,0.3l-0.1,0.1l-0.2,0.4l-0.1,0.1l-0.2,0.2l-0.1,0.1l-0.1,0.1l-0.4,0.2
		l-0.1,0.1l-0.4,0.1l-0.1,0l-0.2,0l-0.1,0l-0.2,0h-0.1L345.9,40.8z"/>
	<path fill="#1E3160" d="M353.7,40.8h-0.3l-0.1,0h-0.1l-0.2,0l-0.1,0l-0.1,0l-0.3-0.1l-0.1,0l-0.2,0l-0.1,0l-0.2-0.1l-0.1,0
		l-0.2-0.1l-0.1-0.1l-0.2-0.1l-0.4-0.2l-0.1-0.1l-0.5-0.3l0.2-0.3l0.1-0.1l0.2-0.2l0.2-0.3l0.1-0.1l0.1,0.1l0.1,0.1l0.1,0.1l0.1,0.1
		l0.3,0.1l0.1,0.1l0.3,0.1l0.2,0l0.1,0.1l0.5,0.1l0.1,0l0.5,0h0.3l0.2,0l0.3-0.1l0.1-0.1l0.2-0.1l0.1-0.1l0.1-0.1l0.2-0.2l0.1-0.1
		l0-0.1l0-0.1l0-0.2v0l0-0.2l-0.1-0.2L355,38l-0.3-0.3l-0.1-0.1l-0.1-0.1l-0.4-0.1l-0.1-0.1l-0.7-0.2l-0.1,0l-0.7-0.2l-0.3-0.1
		l-0.4-0.2l-0.5-0.3L351,36l-0.2-0.2l-0.1-0.1l-0.1-0.1l0-0.1l-0.1-0.3l0-0.1v-0.3l0-0.2l0.1-0.3l0-0.1l0-0.1l0.1-0.1l0.1-0.1
		l0.2-0.3l0.1-0.1l0.1-0.1l0.2-0.2l0.3-0.1l0.3-0.1l0.1-0.1l0.2,0l0.1,0l0.3-0.1l0.3,0l0.1,0l0.2,0h0.3l0.1,0h0.2l0.1,0l0.2,0
		l0.3,0.1l0.1,0l0.2,0l0.1,0l0.3,0.1l0.2,0l0.1,0.1l0.2,0.1l0.1,0.1l0.3,0.2l0.1,0.1l0.1,0.1l-0.1,0.1l-0.1,0.1l-0.4,0.6l-0.1,0.1
		l-0.3-0.2l-0.1-0.1l-0.1-0.1l-0.1-0.1L355,34l-0.1,0l-0.1-0.1l-0.6-0.2l-0.2,0l-0.3,0l-0.1,0h-0.3l-0.2,0l-0.2,0l-0.3,0.1l-0.1,0.1
		l-0.1,0.1l-0.1,0.1l-0.1,0.1l-0.1,0.1l0,0.1l0,0.1l0,0.2v0l0,0.2L352,35l0.1,0.1l0.1,0.1l0.2,0.2l0.2,0.1l0.1,0.1l0.1,0l0.1,0
		l0.4,0.1l0.2,0l0.4,0.1l0.1,0l0.1,0l0.1,0.1l0.1,0l0.1,0.1l0.1,0l0.2,0.1l0.4,0.2l0.1,0.1l0.1,0.1l0.1,0.1l0.1,0.1l0.1,0.1l0.3,0.3
		l0.1,0.3l0,0.2l0,0.1l0,0.2v0.4l0,0.2l-0.1,0.3l-0.1,0.3l-0.1,0.1l-0.2,0.4l-0.1,0.1l-0.2,0.2l-0.1,0.1l-0.1,0.1l-0.4,0.2l-0.1,0.1
		l-0.4,0.1l-0.1,0l-0.2,0l-0.1,0l-0.2,0h-0.1L353.7,40.8z"/>
	<path fill="#1E3160" d="M362.5,40.9h-0.3l-0.1,0l-0.2,0l-0.3,0l-0.1,0l-0.1,0l-0.4-0.1l-0.3-0.1l-0.1-0.1l-0.3-0.1l-0.4-0.3
		l-0.1-0.1l-0.2-0.2l-0.1-0.1l-0.2-0.2l-0.1-0.1l-0.1-0.1l-0.1-0.1l-0.2-0.3l-0.2-0.5l-0.1-0.3l0-0.1l0-0.1l0-0.1l0-0.1l0-0.2l0-0.1
		V37l0-0.2v-0.3l0-0.2v-0.1l0-0.2l0-0.1l0.1-0.5l0-0.1l0.1-0.3l0-0.1l0.1-0.3l0.1-0.1l0.1-0.1l0.1-0.1l0.1-0.1l0.1-0.1l0.2-0.2
		l0.1-0.1l0.2-0.2l0.1-0.1L360,33l0.2-0.2l0.1-0.1l0.3-0.1l0.4-0.1l0.4-0.1l0.3,0l0.2,0h0.3l0.2,0l0.3,0l0.4,0.1l0.3,0.1l0.3,0.1
		l0.1,0.1l0.1,0.1l0.5,0.3l0.1,0.1l0.1,0.1l0.3,0.3l0.1,0.1l0.2,0.3l0.1,0.1l0.2,0.4l0.1,0.3l0.1,0.3l0.1,0.4l0,0.2l0,0.1l0,0.2v0.2
		l0,0.2v0.4l0,0.2h-6.3l0,0.1l0,0.2l0,0.1l0,0.1l0.1,0.3l0,0.1l0.3,0.5l0.3,0.3l0.1,0.1l0.1,0.1l0.3,0.2l0.3,0.1l0.3,0.1l0.1,0
		l0.1,0l0.2,0l0.3,0h0.3l0.5,0l0.1,0l0.1,0l0.1,0l0.1,0l0.4-0.2l0.1-0.1l0.1-0.1l0.2-0.2l0.3-0.3l0.1-0.1l0.2,0.2l0.2,0.2l0.1,0.1
		l0.1,0.1l0.1,0.1l0.1,0.1l-0.3,0.3l-0.1,0.1l-0.1,0.1l-0.5,0.4l-0.1,0.1l-0.1,0.1l-0.1,0.1l-0.1,0.1l-0.1,0.1l-0.1,0.1l-0.3,0.1
		l-0.4,0.1l-0.2,0l-0.2,0h-0.2L362.5,40.9z M362.3,33.6H362l-0.2,0l-0.2,0l-0.2,0.1l-0.1,0l-0.1,0.1l-0.3,0.1l-0.1,0.1l-0.1,0.1
		l-0.1,0.1l-0.3,0.3l-0.2,0.3l-0.2,0.3l-0.1,0.2l0,0.1l0,0.2l0,0.1l0,0.1l0,0.2l0,0.1h4.9l0-0.3l-0.1-0.3l0-0.1l0-0.1l0-0.1
		l-0.1-0.1l-0.1-0.2l-0.1-0.1l-0.3-0.4l-0.1-0.1l-0.1-0.1l-0.1-0.1l-0.3-0.2l-0.1-0.1l-0.4-0.1l-0.1,0L362.3,33.6z"/>
	<path fill="#1E3160" d="M368.1,32.6h1.4v1.3l0.1-0.1l0.1-0.1l0.1-0.1l0.1-0.1l0.1-0.1l0.3-0.3l0.1-0.1l0.2-0.2l0.1-0.1l0.1-0.1
		l0.3-0.1l0.3-0.1l0.2,0l0.1,0l0.2,0h0.3l0.2,0l0.2,0l0.3,0.1l0.1,0l0.2,0l0.1,0.1l0.1,0.1l0.1,0.1l0.1,0.1l0.1,0.1l0.1,0.1l0.3,0.3
		l0.2,0.2l0.1,0.1l0.1,0.1l0.1,0.1l0.1-0.1l0.1-0.1l0.1-0.1l0.3-0.3l0.1-0.1l0.1-0.1l0.4-0.3l0.2-0.1l0.4-0.1l0.2,0l0.1,0l0.2,0
		l0.1,0l0.2,0h0.3l0.2,0l0.2,0l0.5,0.1l0.2,0l0.1,0l0.1,0.1l0.3,0.1l0.1,0.1l0.1,0.1l0.1,0.1l0.1,0.1l0.1,0.1l0.1,0.1l0.1,0.1
		l0.1,0.1l0.1,0.1l0.1,0.1l0.1,0.3l0,0.1l0,0.2l0,0.1l0,0.2l0,0.1l0,0.2l0,0.5v5.3H379v-4.9l0-0.3l-0.1-0.3l-0.1-0.3l0-0.1l-0.1-0.1
		l-0.2-0.3l-0.1-0.1l-0.1-0.1l-0.2-0.2l-0.3-0.1l-0.1,0l-0.1,0l-0.2,0l-0.2,0h-0.3l-0.1,0l-0.4,0.1l-0.1,0l-0.3,0.2l-0.2,0.2
		l-0.1,0.1l-0.2,0.2l-0.1,0.1l-0.1,0.1l-0.1,0.1l0,0.1l0,0.1l0,0.1l0,0.1l0,0.4v4.8h-1.4v-4.9l0-0.3l-0.1-0.3l-0.1-0.4l-0.1-0.1
		l-0.1-0.1l-0.2-0.2l-0.1-0.1l-0.2-0.2l-0.1-0.1l-0.3-0.1l-0.1,0l-0.3-0.1l-0.2,0h-0.3l-0.1,0l-0.2,0l-0.1,0l-0.1,0l-0.1,0l-0.3,0.1
		l-0.2,0.2l-0.3,0.3l-0.1,0.1l-0.1,0.3l-0.1,0.3l-0.1,0.3l0,0.1l0,0.3l0,0.2v4.8h-1.4V32.6z"/>
	<path fill="#1E3160" d="M383.1,29.6h1.6V31h-1.6V29.6z M383.2,32.6h1.4v8.1h-1.4V32.6z"/>
	<path fill="#1E3160" d="M387.4,32.6h1.4v1.4l0.1-0.1l0.2-0.2l0.2-0.2l0.2-0.2l0.1-0.1l0.1-0.1l0.1-0.1l0.1-0.1l0.1-0.1l0.2-0.1
		l0.1-0.1l0.2,0l0.4-0.1l0.1,0l0.2,0h0.3l0.1,0l0.3,0l0.4,0.1l0.1,0l0.1,0l0.4,0.2l0.1,0.1l0.1,0.1l0.2,0.2l0.1,0.1l0.1,0.1l0.2,0.2
		l0.1,0.1l0.1,0.1l0.2,0.4l0,0.1l0,0.1l0.1,0.3l0,0.2l0,0.1v0.2l0,0.1v5.2h-1.4v-4.9l0-0.3l0-0.2l0-0.2l-0.1-0.3l-0.1-0.1l-0.1-0.2
		l-0.1-0.1l-0.1-0.1l-0.1-0.1l-0.1-0.1l-0.2-0.2l-0.1-0.1l-0.1-0.1l-0.2,0l-0.1,0l-0.2,0l-0.2,0h-0.3l-0.2,0l-0.3,0.1l-0.3,0.1
		l-0.3,0.1l-0.2,0.2l-0.1,0.1l-0.2,0.2l-0.1,0.1l-0.1,0.1l-0.1,0.1L389,35l-0.1,0.1l-0.1,0.1l-0.1,0.4l0,0.3v4.8h-1.4V32.6z"/>
	<path fill="#1E3160" d="M403.8,40.7h-1.4v-1.2l-0.4,0.4l-0.1,0.1l-0.1,0.1l-0.1,0.1l-0.1,0.1l-0.3,0.1l-0.4,0.2l-0.3,0.1l-0.2,0
		l-0.3,0.1l-0.1,0l-0.2,0l-0.2,0h-0.3l-0.2,0l-0.1,0l-0.3,0l-0.3-0.1l-0.3-0.1l-0.2-0.1l-0.1-0.1l-0.1-0.1l-0.1-0.1l-0.1-0.1
		l-0.1-0.1l-0.1-0.1l-0.2-0.2l-0.2-0.2l-0.2-0.3l-0.1-0.1l-0.1-0.2l0-0.1l0-0.1l0-0.1l0-0.1v-0.3l0-0.2l0-0.1l0-0.2l0.1-0.4l0.1-0.1
		l0.1-0.1l0.1-0.1l0.2-0.2l0.1-0.1l0.2-0.2l0.3-0.2l0.3-0.1l0.1-0.1l0.4-0.1l0.4-0.1l0.1,0l0.2,0h0.2l0.2,0h0.5l0.1,0h0.2l0.6,0.1
		l0.4,0.1l0.2,0l0.2,0l0.4,0.1v-0.4l0-0.2l-0.1-0.3l0-0.1l-0.1-0.1l-0.1-0.1l-0.1-0.1l-0.1-0.1l-0.1-0.1l-0.1-0.1l-0.1-0.1l-0.1-0.1
		l-0.1-0.1l-0.1-0.1l-0.1-0.1l-0.1,0l-0.2,0l-0.1,0l-0.2,0l-0.3,0h-0.3l-0.1,0h-0.2l-0.3,0l-0.1,0l-0.1,0l-0.1,0l-0.1,0l-0.3,0.1
		l-0.3,0.1l-0.1,0l-0.1,0.1l-0.2,0.1l-0.1,0.1l0-0.1l-0.1-0.1l-0.1-0.3l-0.1-0.1l0-0.1l-0.1-0.2l0-0.1l0.3-0.1l0.1,0l0.1-0.1
		l0.3-0.1l0.1-0.1l0.1,0l0.1,0l0.1,0l0.4-0.1l0.1,0l0.8-0.1h0.5l0.2,0h0.2l0.2,0l0.2,0l0.2,0l0.1,0l0.2,0l0.1,0l0.3,0.1l0.1,0.1
		l0.1,0.1l0.2,0.1l0.2,0.2l0.1,0.1l0.2,0.2l0.2,0.2l0.1,0.2l0.1,0.2l0.1,0.1l0.1,0.3l0,0.2l0,0.1l0,0.2l0.1,0.6V40.7z M399.7,39.7
		h0.3l0.5,0l0.3-0.1l0.6-0.2l0.1-0.1l0.1-0.1l0.1-0.1l0.3-0.3l0.1-0.1l0.2-0.2l0.1-0.1l0.1-0.3l0-0.1l0-0.1V37l-0.1,0l-0.3-0.1
		l-0.1,0l-0.3-0.1l-0.3-0.1l-0.6-0.1l-0.2,0H400l-0.3,0l-0.1,0l-0.3,0.1l-0.4,0.1l-0.1,0.1l-0.1,0.1l-0.1,0.1l-0.1,0.1l-0.1,0.1
		l-0.2,0.2l-0.1,0.1l-0.1,0.1l-0.1,0.3v0.2l0,0.2l0,0.2l0,0.1l0.1,0.1l0.1,0.1l0.2,0.2l0.3,0.2l0.1,0.1l0.1,0.1l0.3,0.1l0.2,0l0.1,0
		L399.7,39.7z"/>
	<path fill="#1E3160" d="M406.7,33.8h-1.1v-1.2h1.1v-2.4h1.4v2.4h2.5v1.2h-2.5v4.7l0,0.2l0,0.1l0.1,0.3l0.1,0.1l0.1,0.1l0.1,0.1
		l0.1,0.1l0.1,0.1l0.1,0l0.1,0l0.1,0h0.3l0.1,0l0.4-0.1l0.1,0l0.1-0.1l0.2-0.1v1.2l-0.1,0.1l-0.1,0.1l-0.3,0.1l-0.1,0l-0.1,0l-0.1,0
		l-0.1,0h-0.1l-0.1,0h-0.3l-0.3,0l-0.4-0.1l-0.1-0.1l-0.1,0l-0.1-0.1l-0.2-0.2l-0.2-0.2l-0.1-0.1l-0.1-0.1l-0.1-0.1l-0.1-0.1
		l-0.1-0.2l-0.1-0.1l-0.1-0.4l0-0.3V33.8z"/>
	<path fill="#1E3160" d="M412.8,29.6h1.6V31h-1.6V29.6z M412.9,32.6h1.4v8.1h-1.4V32.6z"/>
	<path fill="#1E3160" d="M421,40.9h-0.3l-0.2,0h-0.1l-0.2,0l-0.1,0l-0.1,0l-0.2,0l-0.1,0l-0.1,0l-0.3-0.1l-0.1-0.1l-0.2-0.1
		l-0.1-0.1l-0.1-0.1l-0.3-0.2l-0.2-0.2l-0.1-0.1l-0.1-0.1l-0.3-0.3l-0.2-0.2l-0.2-0.2l-0.1-0.3l-0.1-0.1l-0.1-0.1l-0.2-0.4l-0.1-0.3
		l0-0.2l0-0.1l0-0.1l-0.1-0.6v-0.3l0.1-0.6l0-0.2l0-0.1l0-0.2l0-0.1l0.3-0.7l0.1-0.1l0.1-0.1l0.4-0.6l0.3-0.3l0.1-0.1l0.1-0.1
		l0.4-0.3l0.3-0.1l0.1-0.1l0.1-0.1l0.1-0.1l0.4-0.1l0.1,0l0.2,0l0.1,0l0.2,0l0.1,0h0.2h0.1l0.3,0l0.1,0l0.2,0l0.1,0l0.4,0.1l0.1,0
		l0.4,0.1l0.1,0.1l0.1,0.1l0.1,0.1l0.3,0.1l0.2,0.2l0.1,0.1l0.1,0.1l0.1,0.1l0.1,0.1l0.1,0.1l0.1,0.1l0.1,0.1l0.2,0.2l0.2,0.2
		l0.1,0.1l0.1,0.1l0.1,0.3l0.1,0.1l0.2,0.4l0,0.2l0,0.1l0,0.1l0.1,0.6v0.3l-0.1,0.6l0,0.2l0,0.1l0,0.2l-0.1,0.1l-0.1,0.1l0,0.1
		l-0.2,0.4l-0.1,0.1l-0.1,0.1l-0.1,0.1l-0.1,0.1l-0.1,0.1l-0.4,0.4l-0.1,0.1l-0.6,0.4l-0.3,0.1l-0.3,0.1l-0.1,0.1l-0.4,0.1l-0.6,0.1
		l-0.1,0h-0.2L421,40.9z M420.8,39.6h0.3l0.2,0l0.1,0l0.3-0.1l0.3-0.1l0.3-0.1l0.4-0.3l0.3-0.3l0.1-0.1l0.1-0.1l0.1-0.1l0.1-0.1
		l0.1-0.1l0.1-0.2l0.1-0.1l0-0.1l0-0.1l0-0.1l0-0.1l0-0.4v-0.3l0-0.3l0-0.2l0-0.1l0-0.2l0-0.1l0-0.2l-0.1-0.3l-0.3-0.5l-0.2-0.2
		l-0.2-0.2l-0.1-0.1l-0.3-0.2l-0.1-0.1l-0.1-0.1l-0.1-0.1l-0.3-0.1l-0.3-0.1l-0.1,0l-0.1,0h-0.3l-0.2,0l-0.4,0.1l-0.3,0.1l-0.3,0.1
		l-0.4,0.3l-0.1,0.1l-0.2,0.2l-0.2,0.2l-0.3,0.4l-0.1,0.3l-0.1,0.1l0,0.1l-0.1,0.3l0,0.4v0.3l0,0.3l0.1,0.3l0,0.2l0,0.1l0.1,0.1
		l0,0.1l0.1,0.1l0.3,0.5l0.3,0.3l0.1,0.1l0.1,0.1l0.4,0.3l0.3,0.1l0.3,0.1l0.2,0l0.1,0l0.2,0L420.8,39.6z"/>
	<path fill="#1E3160" d="M427.3,32.6h1.4v1.4l0.1-0.1l0.2-0.2l0.2-0.2l0.2-0.2l0.1-0.1l0.1-0.1l0.1-0.1l0.1-0.1l0.1-0.1l0.2-0.1
		l0.1-0.1l0.2,0l0.4-0.1l0.1,0l0.2,0h0.3l0.1,0l0.3,0l0.4,0.1l0.1,0l0.1,0l0.4,0.2l0.1,0.1l0.1,0.1l0.2,0.2l0.1,0.1l0.1,0.1l0.2,0.2
		l0.1,0.1l0.1,0.1l0.2,0.4l0,0.1l0,0.1l0.1,0.3l0,0.2l0,0.1v0.2l0,0.1v5.2h-1.4v-4.9l0-0.3l0-0.2l0-0.2l-0.1-0.3l-0.1-0.1l-0.1-0.2
		l-0.1-0.1l-0.1-0.1l-0.1-0.1l-0.1-0.1l-0.2-0.2l-0.1-0.1l-0.1-0.1l-0.2,0l-0.1,0l-0.2,0l-0.2,0h-0.3l-0.2,0l-0.3,0.1l-0.3,0.1
		l-0.3,0.1l-0.2,0.2l-0.1,0.1l-0.2,0.2l-0.1,0.1l-0.1,0.1l-0.1,0.1L429,35l-0.1,0.1l-0.1,0.1l-0.1,0.4l0,0.3v4.8h-1.4V32.6z"/>
</g>
<g>
	<path fill="#1E3160" d="M239.2,56.9h-0.5l-0.2,0h-0.1l-0.2,0l-0.1,0l-0.2,0l-0.1,0l-0.2,0l-0.1,0l-0.2,0l-0.1,0l-0.2,0l-0.3-0.1
		l-0.5-0.2l-0.3-0.2l-0.1-0.1l-0.5-0.3l-0.1-0.1l-0.2-0.2l-0.3-0.3l-0.4-0.6l-0.1-0.3l-0.1-0.1l-0.1-0.1l-0.3-0.7l-0.1-0.4l-0.1-0.6
		l0-0.5l0-0.1v-0.6l0-0.2l0-0.4l0.1-0.6l0.1-0.4l0.3-0.7l0.3-0.5l0.3-0.5l0.2-0.2l0.3-0.3l0.1-0.1l0.1-0.1l0.1-0.1l0.4-0.3l0.1-0.1
		l0.3-0.1l0.1-0.1l0.1-0.1l0.1-0.1l0.1-0.1l0.1,0l0.1-0.1l0.3-0.1l0.7-0.1l0.3,0h0.2l0.2,0h0.5l0.2,0l0.3,0l0.1,0l0.2,0l0.1,0l0.2,0
		l0.1,0l0.1,0l0.7,0.2l0.1,0.1l0.2,0.1l0.5,0.3l0.1,0.1l0.4,0.3l0.1,0.1l0.1,0.1l0.2,0.2l0.1,0.1l-0.4,0.5l-0.5,0.6l-0.2-0.2
		l-0.1-0.1l-0.5-0.4l-0.3-0.2l-0.1-0.1l-0.1-0.1l-0.1-0.1l-0.3-0.1l-0.1-0.1l-0.3-0.1l-0.3-0.1l-0.1,0l-0.2,0l-0.1,0h-0.2l-0.1,0
		h-0.3l-0.5,0L238,47l-0.1,0l-0.2,0l-0.3,0.1l-0.3,0.1l-0.1,0.1l-0.1,0.1l-0.1,0.1l-0.1,0.1l-0.1,0.1l-0.4,0.4l-0.3,0.3l-0.3,0.5
		l-0.1,0.1l-0.1,0.1l-0.1,0.1l-0.1,0.1l0,0.1l-0.1,0.2l-0.1,0.3l0,0.2l0,0.1l0,0.2l0,0.1l0,0.2l0,0.1l0,0.2v0.3l0,0.1v0.2l0,0.1
		l0,0.2l0,0.1l0,0.1l0,0.1l0,0.1l0,0.1l0,0.1l0.1,0.1l0,0.1l0.1,0.1l0.1,0.1l0.1,0.1l0.2,0.2l0.2,0.2l0.1,0.1l0.3,0.3l0.3,0.3
		l0.2,0.2L237,55l0.7,0.3l0.1,0l0.2,0l0.4,0.1l0.3,0l0.2,0h0.3l0.1,0h0.2l0.1,0l0.1,0l0.1,0l0.1,0l0.2,0l0.1,0l0.3-0.1l0.3-0.1
		l0.1-0.1l0.1-0.1l0.1-0.1l0.4-0.2l0.1-0.1l0.3-0.3l0.1-0.1l0.1-0.1l0.1-0.1l0.3,0.3l0.1,0.1l0.1,0.1l0.4,0.4l-0.1,0.1l-0.1,0.1
		l-0.2,0.2l-0.1,0.1l-0.1,0.1l-0.5,0.4l-0.5,0.3l-0.1,0.1l-0.1,0.1l-0.1,0.1l-0.1,0l-0.1,0.1l-0.3,0.1l-0.3,0.1l-0.3,0.1l-0.1,0
		l-0.5,0l-0.2,0L239.2,56.9z"/>
	<path fill="#1E3160" d="M249.1,56.9h-0.3l-0.1,0l-0.2,0l-0.3,0l-0.1,0l-0.1,0l-0.4-0.1l-0.3-0.1l-0.1-0.1l-0.3-0.1l-0.4-0.3
		l-0.1-0.1l-0.2-0.2l-0.1-0.1l-0.2-0.2l-0.1-0.1l-0.1-0.1l-0.1-0.1l-0.2-0.3l-0.2-0.5L245,54l0-0.1l0-0.1l0-0.1l0-0.1l0-0.2l0-0.1
		V53l0-0.2v-0.3l0-0.2v-0.1l0-0.2l0-0.1l0.1-0.5l0-0.1l0.1-0.3l0-0.1l0.1-0.3l0.1-0.1l0.1-0.1l0.1-0.1l0.1-0.1l0.1-0.1l0.2-0.2
		l0.1-0.1l0.2-0.2l0.1-0.1l0.4-0.3l0.2-0.2l0.1-0.1l0.3-0.1l0.4-0.1l0.4-0.1l0.3,0l0.2,0h0.3l0.2,0l0.3,0l0.4,0.1l0.3,0.1l0.3,0.1
		l0.1,0.1l0.1,0.1l0.5,0.3l0.1,0.1l0.1,0.1l0.3,0.3l0.1,0.1l0.2,0.3l0.1,0.1l0.2,0.4l0.1,0.3l0.1,0.3l0.1,0.4l0,0.2l0,0.1l0,0.2v0.2
		l0,0.2v0.4l0,0.2h-6.3l0,0.1l0,0.2l0,0.1l0,0.1l0.1,0.3l0,0.1l0.3,0.5l0.3,0.3l0.1,0.1l0.1,0.1l0.3,0.2l0.3,0.1l0.3,0.1l0.1,0
		l0.1,0l0.2,0l0.3,0h0.3l0.5,0l0.1,0l0.1,0l0.1,0l0.1,0l0.4-0.2l0.1-0.1l0.1-0.1l0.2-0.2l0.3-0.3l0.1-0.1l0.2,0.2l0.2,0.2l0.1,0.1
		l0.1,0.1l0.1,0.1l0.1,0.1l-0.3,0.3l-0.1,0.1l-0.1,0.1l-0.5,0.4l-0.1,0.1l-0.1,0.1l-0.1,0.1l-0.1,0.1l-0.1,0.1l-0.1,0.1l-0.3,0.1
		l-0.4,0.1l-0.2,0l-0.2,0h-0.2L249.1,56.9z M248.9,49.6h-0.3l-0.2,0l-0.2,0l-0.2,0.1l-0.1,0l-0.1,0.1l-0.3,0.1l-0.1,0.1l-0.1,0.1
		l-0.1,0.1l-0.3,0.3l-0.2,0.3l-0.2,0.3l-0.1,0.2l0,0.1l0,0.2l0,0.1l0,0.1l0,0.2l0,0.1h4.9l0-0.3l-0.1-0.3l0-0.1l0-0.1l0-0.1
		l-0.1-0.1l-0.1-0.2l-0.1-0.1l-0.3-0.4l-0.1-0.1l-0.1-0.1l-0.1-0.1l-0.3-0.2l-0.1-0.1l-0.4-0.1l-0.1,0L248.9,49.6z"/>
	<path fill="#1E3160" d="M254.7,48.6h1.4v1.4l0.1-0.1l0.2-0.2l0.2-0.2l0.2-0.2l0.1-0.1l0.1-0.1l0.1-0.1l0.1-0.1l0.1-0.1l0.2-0.1
		l0.1-0.1l0.2,0l0.4-0.1l0.1,0l0.2,0h0.3l0.1,0l0.3,0l0.4,0.1l0.1,0l0.1,0l0.4,0.2l0.1,0.1l0.1,0.1l0.2,0.2l0.1,0.1l0.1,0.1l0.2,0.2
		l0.1,0.1l0.1,0.1l0.2,0.4l0,0.1l0,0.1l0.1,0.3l0,0.2l0,0.1v0.2l0,0.1v5.2h-1.4v-4.9l0-0.3l0-0.2l0-0.2l-0.1-0.3l-0.1-0.1l-0.1-0.2
		l-0.1-0.1l-0.1-0.1l-0.1-0.1l-0.1-0.1l-0.2-0.2l-0.1-0.1l-0.1-0.1l-0.2,0l-0.1,0l-0.2,0l-0.2,0h-0.3l-0.2,0l-0.3,0.1l-0.3,0.1
		l-0.3,0.1l-0.2,0.2l-0.1,0.1l-0.2,0.2l-0.1,0.1l-0.1,0.1l-0.1,0.1l-0.1,0.1l-0.1,0.1l-0.1,0.1l-0.1,0.4l0,0.3v4.8h-1.4V48.6z"/>
	<path fill="#1E3160" d="M264.9,49.8h-1.1v-1.2h1.1v-2.4h1.4v2.4h2.5v1.2h-2.5v4.7l0,0.2l0,0.1l0.1,0.3l0.1,0.1l0.1,0.1l0.1,0.1
		l0.1,0.1l0.1,0.1l0.1,0l0.1,0l0.1,0h0.3l0.1,0l0.4-0.1l0.1,0l0.1-0.1l0.2-0.1v1.2l-0.1,0.1l-0.1,0.1l-0.3,0.1l-0.1,0l-0.1,0l-0.1,0
		l-0.1,0h-0.1l-0.1,0H267l-0.3,0l-0.4-0.1l-0.1-0.1l-0.1,0l-0.1-0.1l-0.2-0.2l-0.2-0.2l-0.1-0.1l-0.1-0.1l-0.1-0.1l-0.1-0.1
		l-0.1-0.2l-0.1-0.1l-0.1-0.4l0-0.3V49.8z"/>
	<path fill="#1E3160" d="M274.5,56.9h-0.3l-0.1,0l-0.2,0l-0.3,0l-0.1,0l-0.1,0l-0.4-0.1l-0.3-0.1l-0.1-0.1l-0.3-0.1l-0.4-0.3
		l-0.1-0.1l-0.2-0.2l-0.1-0.1l-0.2-0.2l-0.1-0.1l-0.1-0.1l-0.1-0.1l-0.2-0.3l-0.2-0.5l-0.1-0.3l0-0.1l0-0.1l0-0.1l0-0.1l0-0.2l0-0.1
		V53l0-0.2v-0.3l0-0.2v-0.1l0-0.2l0-0.1l0.1-0.5l0-0.1l0.1-0.3l0-0.1l0.1-0.3l0.1-0.1l0.1-0.1l0.1-0.1l0.1-0.1l0.1-0.1l0.2-0.2
		l0.1-0.1l0.2-0.2l0.1-0.1L272,49l0.2-0.2l0.1-0.1l0.3-0.1l0.4-0.1l0.4-0.1l0.3,0l0.2,0h0.3l0.2,0l0.3,0l0.4,0.1l0.3,0.1l0.3,0.1
		l0.1,0.1l0.1,0.1l0.5,0.3l0.1,0.1l0.1,0.1l0.3,0.3l0.1,0.1l0.2,0.3l0.1,0.1l0.2,0.4l0.1,0.3l0.1,0.3l0.1,0.4l0,0.2l0,0.1l0,0.2v0.2
		l0,0.2v0.4l0,0.2h-6.3l0,0.1l0,0.2l0,0.1l0,0.1l0.1,0.3l0,0.1l0.3,0.5l0.3,0.3l0.1,0.1l0.1,0.1l0.3,0.2l0.3,0.1l0.3,0.1l0.1,0
		l0.1,0l0.2,0l0.3,0h0.3l0.5,0l0.1,0l0.1,0l0.1,0l0.1,0l0.4-0.2l0.1-0.1l0.1-0.1l0.2-0.2l0.3-0.3l0.1-0.1l0.2,0.2l0.2,0.2l0.1,0.1
		l0.1,0.1l0.1,0.1l0.1,0.1l-0.3,0.3l-0.1,0.1l-0.1,0.1l-0.5,0.4l-0.1,0.1l-0.1,0.1l-0.1,0.1l-0.1,0.1l-0.1,0.1l-0.1,0.1l-0.3,0.1
		l-0.4,0.1l-0.2,0l-0.2,0h-0.2L274.5,56.9z M274.2,49.6h-0.3l-0.2,0l-0.2,0l-0.2,0.1l-0.1,0l-0.1,0.1l-0.3,0.1l-0.1,0.1l-0.1,0.1
		l-0.1,0.1l-0.3,0.3l-0.2,0.3l-0.2,0.3l-0.1,0.2l0,0.1l0,0.2l0,0.1l0,0.1l0,0.2l0,0.1h4.9l0-0.3l-0.1-0.3l0-0.1l0-0.1l0-0.1
		l-0.1-0.1l-0.1-0.2l-0.1-0.1l-0.3-0.4l-0.1-0.1l-0.1-0.1l-0.1-0.1l-0.3-0.2l-0.1-0.1l-0.4-0.1l-0.1,0L274.2,49.6z"/>
	<path fill="#1E3160" d="M280.1,48.6h1.4v1.9l0.1-0.1l0.1-0.1l0.1-0.1l0.1-0.1l0.1-0.1l0.1-0.1l0.1-0.1l0.1-0.1l0.1-0.1l0.1-0.1
		l0.1-0.1l0.1-0.1l0.1-0.1l0.1-0.1l0.2-0.1l0.1-0.1l0.1-0.1l0.1-0.1l0.4-0.1l0.2,0l0.1,0l0.2,0h0.5v1.3h-0.3l-0.3,0l-0.1,0l-0.3,0.1
		l-0.2,0l-0.1,0.1l-0.2,0.1l-0.1,0.1l-0.5,0.4l-0.2,0.2l-0.2,0.2l-0.1,0.1l-0.1,0.1l-0.1,0.1l-0.3,0.7l0,0.1l0,0.1l0,0.1l0,0.1
		l0,0.1l0,0.3v0.2l0,0.1v3.4h-1.4V48.6z"/>
</g>
<g>
	<path fill="#1E3160" d="M47.2,12.8h0.6h0.5h0.6h0.6h0.6h0.5h0.6h0.6h0.5H53h0.6h0.5h0.6h0.6h0.6h0.5h0.6l0.3,0.5l0.4,0.5l0.3,0.5
		l0.3,0.5l0.4,0.5l0.3,0.5l0.3,0.5l0.4,0.5l0.3,0.5l0.3,0.5l0.4,0.5l0.3,0.5l0.3,0.5l0.4,0.5l0.3,0.5l0.3,0.5l0.4,0.5l0.3,0.5
		l0.3,0.5l0.3,0.5l0.4,0.5l0.3,0.5l0.3,0.5l0.4,0.5l0.3,0.5l0.3,0.5l0.4,0.5l0.3,0.5l0.3,0.5l0.4,0.5l0.3,0.5l0.3,0.5l0.4,0.5
		l0.3,0.5l0.3,0.5l0.4,0.5l0.3,0.5l0.3-0.5l0.4-0.5l0.3-0.5l0.3-0.5l0.4-0.5l0.3-0.5l0.3-0.5l0.4-0.5l0.3-0.5l0.4-0.5l0.3-0.5
		l0.3-0.5l0.4-0.5l0.3-0.5l0.3-0.5l0.4-0.5l0.3-0.5l0.3-0.5L75,22l0.3-0.5l0.3-0.5l0.4-0.5l0.3-0.5l0.3-0.5l0.4-0.5l0.3-0.5l0.3-0.5
		l0.4-0.5l0.3-0.5l0.4-0.5l0.3-0.5l0.3-0.5l0.4-0.5l0.3-0.5l0.3-0.5l0.4-0.5l0.3-0.5h0.6h0.5h0.6h0.6h0.6h0.5h0.6h0.6H86h0.6h0.6
		h0.5h0.6h0.6h0.6H90h0.6v0.6V14v0.6v0.6v0.6v0.6V17v0.6v0.6v0.6v0.6V20v0.6v0.6v0.6v0.6V23v0.6v0.5v0.6v0.6v0.6v0.6v0.6v0.6v0.6
		v0.6v0.6v0.6v0.6v0.6v0.6v0.6v0.6v0.6v0.6v0.6v0.6v0.6v0.6v0.6v0.6v0.6v0.6v0.6v0.6v0.6v0.6v0.6v0.6v0.6v0.6v0.6v0.6v0.5v0.6v0.6
		v0.6v0.6v0.6v0.6v0.6v0.6v0.6v0.6v0.6v0.6v0.6v0.6v0.6v0.6v0.6v0.6H90h-0.6h-0.7h-0.6h-0.6H87h-0.6h-0.7h-0.6h-0.6H84h-0.6h-0.7
		h-0.6h-0.6v-0.6v-0.6v-0.6v-0.6v-0.5v-0.6v-0.6v-0.6v-0.6v-0.6v-0.6v-0.6v-0.6v-0.6v-0.5V47v-0.6v-0.6v-0.6v-0.6V44v-0.6v-0.6v-0.6
		v-0.5V41v-0.6v-0.6v-0.6v-0.6V38v-0.6v-0.6v-0.6v-0.5v-0.6v-0.6v-0.6v-0.6v-0.6v-0.6v-0.6v-0.6v-0.6v-0.5v-0.6v-0.6v-0.6v-0.6
		l-0.4,0.5l-0.3,0.5l-0.4,0.5l-0.3,0.5l-0.4,0.5l-0.3,0.5l-0.4,0.5l-0.3,0.5l-0.4,0.5l-0.3,0.5l-0.4,0.5l-0.3,0.5l-0.4,0.5l-0.3,0.5
		l-0.4,0.5l-0.3,0.5l-0.4,0.5l-0.3,0.5l-0.4,0.5l-0.4,0.5l-0.3,0.5l-0.4,0.5l-0.3,0.5l-0.4,0.5l-0.3,0.5l-0.4,0.5l-0.3,0.5l-0.4,0.5
		l-0.3,0.5l-0.4,0.5l-0.3,0.5l-0.4,0.5l-0.3,0.5l-0.4,0.5L69.9,45l-0.4,0.5L69.3,46l-0.4,0.5h-0.2L68.4,46L68,45.4L67.7,45l-0.4-0.5
		L67,44l-0.4-0.5L66.4,43L66,42.5l-0.3-0.5l-0.4-0.5L65.1,41l-0.4-0.5L64.4,40L64,39.5L63.7,39l-0.4-0.5L63.1,38l-0.4-0.5L62.4,37
		l-0.3-0.5L61.8,36l-0.3-0.5L61.1,35l-0.3-0.5L60.4,34l-0.3-0.5L59.8,33l-0.3-0.5L59.1,32l-0.3-0.5L58.5,31l-0.3-0.5L57.8,30
		l-0.3-0.5L57.1,29l-0.3-0.5L56.5,28l-0.3-0.5v0.6v0.6v0.6v0.6v0.6v0.6v0.6v0.6v0.6v0.6v0.6v0.6v0.7V36v0.6v0.6v0.6v0.6V39v0.6v0.6
		v0.6v0.6V42v0.6v0.6v0.6v0.6V45v0.6v0.6v0.6v0.6V48v0.6v0.6v0.7v0.6v0.6v0.6v0.6v0.6v0.6v0.6v0.6v0.6v0.6v0.6h-0.6H55h-0.6h-0.6
		h-0.6h-0.6H52h-0.6h-0.6h-0.6h-0.6H49h-0.6h-0.6h-0.6v-0.6v-0.6v-0.6v-0.6v-0.6v-0.6v-0.6v-0.6v-0.6v-0.6v-0.6v-0.6v-0.6v-0.6v-0.6
		v-0.6v-0.6v-0.6v-0.5v-0.6v-0.6v-0.6v-0.6v-0.6v-0.6v-0.6v-0.6v-0.6v-0.6v-0.6v-0.6v-0.6v-0.6v-0.6v-0.6v-0.6v-0.6v-0.6v-0.6v-0.6
		v-0.6v-0.6v-0.6v-0.6v-0.6v-0.6v-0.6v-0.6v-0.6v-0.6v-0.6v-0.6v-0.6v-0.6v-0.5V23v-0.6v-0.6v-0.6v-0.6V20v-0.6v-0.6v-0.6v-0.6V17
		v-0.6v-0.6v-0.6v-0.6V14v-0.6V12.8z"/>
	<path fill="#1E3160" d="M116.9,12.5h0.6h0.6h0.6h0.7h0.6h0.6h0.6h0.6h0.6h0.6h0.7h0.6h0.6h0.6l0.2,0.5l0.2,0.5l0.2,0.5l0.2,0.6
		l0.2,0.5l0.2,0.5l0.2,0.5l0.2,0.5l0.2,0.5l0.2,0.6l0.2,0.5l0.2,0.5l0.2,0.5l0.2,0.5l0.2,0.5l0.2,0.6l0.2,0.5l0.2,0.5l0.2,0.5
		l0.2,0.5l0.2,0.5l0.2,0.6l0.2,0.5l0.2,0.5l0.2,0.5l0.2,0.5l0.2,0.5l0.2,0.6l0.2,0.5l0.2,0.5l0.2,0.5l0.2,0.5l0.2,0.5l0.2,0.6
		l0.2,0.5l0.2,0.5l0.2,0.5l0.2,0.5l0.2,0.5l0.2,0.5l0.2,0.6l0.2,0.5l0.2,0.5l0.2,0.5l0.2,0.5l0.2,0.5l0.2,0.6l0.2,0.5l0.2,0.5
		l0.2,0.5l0.2,0.5l0.2,0.5l0.2,0.6l0.2,0.5l0.2,0.5l0.2,0.5l0.2,0.5l0.2,0.5l0.2,0.6l0.2,0.5l0.2,0.5l0.2,0.5l0.2,0.5l0.2,0.5
		l0.2,0.6l0.2,0.5l0.2,0.5l0.2,0.5l0.2,0.5l0.2,0.5l0.2,0.6l0.2,0.5l0.2,0.5l0.2,0.5l0.2,0.5l0.2,0.5l0.2,0.6l0.2,0.5l0.2,0.5
		l0.2,0.5h-0.6H143h-0.6h-0.6h-0.6h-0.6H140h-0.6h-0.7h-0.6h-0.6h-0.6h-0.6h-0.6h-0.6h-0.6l-0.2-0.5l-0.2-0.5l-0.2-0.6l-0.2-0.5
		l-0.2-0.5l-0.2-0.5l-0.2-0.6l-0.2-0.5l-0.2-0.5l-0.2-0.5l-0.2-0.5l-0.2-0.6l-0.2-0.5l-0.2-0.5l-0.2-0.5l-0.2-0.6l-0.2-0.5l-0.2-0.5
		h-0.6h-0.6h-0.6h-0.5h-0.6h-0.6h-0.6h-0.6h-0.6h-0.5H124h-0.6h-0.6h-0.6h-0.6H121h-0.6h-0.6h-0.6h-0.6H118h-0.6h-0.5h-0.6h-0.6
		h-0.6h-0.6h-0.6h-0.5h-0.6h-0.6h-0.6l-0.2,0.5l-0.2,0.5l-0.2,0.6l-0.2,0.5l-0.2,0.5l-0.2,0.5l-0.2,0.6l-0.2,0.5l-0.2,0.5l-0.2,0.5
		l-0.2,0.5l-0.2,0.6l-0.2,0.5l-0.2,0.5l-0.2,0.5l-0.2,0.6l-0.2,0.5l-0.2,0.5h-0.6h-0.6h-0.5h-0.6h-0.6h-0.6h-0.6h-0.5h-0.6h-0.6H101
		h-0.6h-0.6h-0.5h-0.6h-0.6l0.2-0.5l0.2-0.5l0.2-0.5l0.2-0.6l0.2-0.5l0.2-0.5l0.2-0.5l0.2-0.5l0.2-0.5l0.2-0.6l0.2-0.5l0.2-0.5
		l0.2-0.5l0.2-0.5l0.2-0.5l0.2-0.6l0.2-0.5l0.2-0.5l0.2-0.5l0.2-0.5L103,45l0.2-0.6l0.2-0.5l0.2-0.5l0.2-0.5l0.2-0.5l0.2-0.5
		l0.2-0.6l0.2-0.5l0.2-0.5l0.2-0.5l0.2-0.5l0.2-0.5l0.2-0.6l0.2-0.5l0.2-0.5l0.2-0.5l0.2-0.5l0.2-0.5l0.2-0.6l0.2-0.5l0.2-0.5
		l0.2-0.5l0.2-0.5l0.2-0.5l0.2-0.5l0.2-0.6l0.2-0.5l0.2-0.5l0.2-0.5l0.2-0.5l0.2-0.5l0.2-0.6l0.2-0.5l0.2-0.5l0.2-0.5l0.2-0.5
		l0.2-0.5L112,24l0.2-0.5l0.2-0.5l0.2-0.5l0.2-0.5l0.2-0.5l0.2-0.6l0.2-0.5l0.2-0.5l0.2-0.5l0.2-0.5l0.2-0.5l0.2-0.6l0.2-0.5
		l0.2-0.5l0.2-0.5l0.2-0.5l0.2-0.5l0.2-0.6l0.2-0.5l0.2-0.5L116.9,12.5z M127.2,38.3l-0.2-0.5l-0.2-0.5l-0.2-0.5l-0.2-0.6l-0.2-0.5
		l-0.2-0.5l-0.2-0.5l-0.2-0.5l-0.2-0.5l-0.2-0.5l-0.2-0.6l-0.2-0.5l-0.2-0.5l-0.2-0.5l-0.2-0.5l-0.2-0.5l-0.2-0.6l-0.2-0.5l-0.2-0.5
		l-0.2-0.5l-0.2-0.5l-0.2-0.5l-0.2-0.5l-0.2-0.6l-0.2-0.5l-0.2-0.5l-0.2-0.5l-0.2,0.5l-0.2,0.5l-0.2,0.5l-0.2,0.6l-0.2,0.5l-0.2,0.5
		l-0.2,0.5l-0.2,0.5l-0.2,0.5l-0.2,0.5l-0.2,0.6l-0.2,0.5l-0.2,0.5l-0.2,0.5l-0.2,0.5l-0.2,0.5l-0.2,0.6l-0.2,0.5l-0.2,0.5l-0.2,0.5
		l-0.2,0.5l-0.2,0.5l-0.2,0.5l-0.2,0.6l-0.2,0.5l-0.2,0.5l-0.2,0.5h0.6h0.6h0.5h0.6h0.6h0.6h0.5h0.6h0.6h0.6h0.5h0.6h0.6h0.6h0.5
		h0.6h0.6h0.6h0.5h0.6H127.2z"/>
	<path fill="#1E3160" d="M166.5,57.1h-0.6h-0.6l-0.5-0.1l-0.6-0.1h-0.6l-0.6-0.1l-0.5-0.1l-0.6-0.1l-0.6-0.1l-0.5-0.1l-0.6-0.1
		l-0.5-0.1l-0.6-0.2l-0.5-0.1l-0.5-0.2l-0.6-0.2l-0.5-0.2l-0.5-0.2l-0.5-0.2l-0.5-0.2l-0.5-0.2l-0.5-0.2l-0.5-0.2l-0.5-0.3l-0.5-0.3
		l-0.5-0.3l-0.5-0.4l-0.5-0.3l-0.5-0.4l-0.5-0.4l-0.5-0.4l-0.5-0.4l-0.5-0.4l-0.5-0.4l0.4-0.5l0.4-0.5l0.4-0.4l0.4-0.5l0.4-0.5
		l0.4-0.5l0.4-0.5l0.4-0.4l0.4-0.5l0.4-0.5l0.4-0.5l0.4-0.4l0.4-0.5l0.4-0.5L154,44l0.5,0.4l0.5,0.4l0.5,0.4l0.5,0.4l0.5,0.3
		l0.5,0.4l0.5,0.3l0.5,0.3l0.5,0.2l0.5,0.3l0.5,0.2l0.5,0.2l0.5,0.2l0.5,0.2l0.6,0.2l0.5,0.2l0.6,0.1l0.6,0.1l0.6,0.1l0.6,0.1
		l0.6,0.1L166,49h0.7h0.7l0.7-0.1l0.7-0.1l0.7-0.1l0.5-0.2l0.5-0.2l0.5-0.2l0.5-0.3l0.5-0.4l0.4-0.5l0.4-0.5l0.2-0.5l0.1-0.6
		l0.1-0.7v-0.1l-0.1-0.6l-0.1-0.6l-0.2-0.5l-0.3-0.5l-0.5-0.5l-0.5-0.5l-0.5-0.2l-0.5-0.2l-0.5-0.3l-0.6-0.2l-0.7-0.2l-0.5-0.2
		l-0.5-0.1l-0.5-0.2l-0.5-0.2l-0.6-0.1l-0.6-0.2l-0.7-0.2l-0.7-0.2l-0.7-0.2l-0.7-0.2l-0.7-0.2l-0.6-0.2l-0.6-0.2l-0.6-0.2l-0.6-0.2
		l-0.5-0.2l-0.5-0.2l-0.5-0.2l-0.6-0.2l-0.6-0.2l-0.5-0.2l-0.5-0.2l-0.5-0.3l-0.5-0.2l-0.5-0.3l-0.4-0.4l-0.4-0.3l-0.5-0.4l-0.4-0.4
		l-0.4-0.4l-0.4-0.5l-0.4-0.5l-0.4-0.5l-0.3-0.5l-0.2-0.5l-0.2-0.5l-0.2-0.5l-0.1-0.5l-0.2-0.6L150,28l-0.1-0.6l-0.1-0.7l-0.1-0.7
		v-0.7v-0.1v-0.7l0.1-0.6l0.1-0.7l0.1-0.6l0.1-0.6l0.1-0.5l0.2-0.6l0.2-0.5l0.2-0.5l0.2-0.5l0.3-0.5l0.3-0.5l0.4-0.5l0.4-0.5
		l0.4-0.4l0.4-0.4l0.4-0.4l0.5-0.4l0.4-0.4L155,15l0.5-0.3l0.5-0.3l0.5-0.3l0.5-0.3l0.5-0.2l0.6-0.2l0.7-0.2l0.5-0.1l0.5-0.2
		l0.6-0.1l0.6-0.1l0.6-0.1l0.7-0.1l0.6-0.1h0.7l0.7-0.1h0.7h0.7h0.6l0.6,0.1l0.7,0.1l0.6,0.1l0.6,0.1l0.6,0.1l0.5,0.1l0.6,0.1
		l0.6,0.1l0.5,0.2l0.5,0.1l0.6,0.2l0.5,0.1l0.5,0.2l0.5,0.2l0.5,0.2l0.6,0.2l0.5,0.2l0.5,0.2l0.5,0.3l0.5,0.2l0.5,0.3l0.5,0.4
		l0.5,0.3l0.5,0.4l0.5,0.4l0.5,0.4l0.5,0.4l-0.4,0.5l-0.4,0.5l-0.3,0.5l-0.4,0.5l-0.4,0.5l-0.4,0.5l-0.3,0.5l-0.4,0.5l-0.4,0.5
		l-0.4,0.5l-0.4,0.5l-0.3,0.5l-0.4,0.5l-0.4,0.5l-0.5-0.4l-0.5-0.4l-0.5-0.4l-0.5-0.3l-0.5-0.4l-0.5-0.2l-0.5-0.3l-0.5-0.2l-0.5-0.3
		l-0.5-0.2l-0.5-0.2l-0.6-0.2l-0.6-0.2l-0.5-0.2l-0.6-0.1l-0.5-0.1l-0.6-0.1l-0.5-0.1l-0.6-0.1l-0.5-0.1h-0.6h-0.7l-0.7,0.1
		l-0.6,0.1l-0.5,0.1l-0.5,0.2l-0.5,0.2l-0.4,0.2l-0.4,0.3l-0.5,0.4l-0.4,0.4l-0.3,0.5l-0.2,0.5l-0.1,0.5l-0.1,0.5v0.1l0.1,0.7
		l0.1,0.7l0.2,0.5l0.2,0.4l0.4,0.4l0.4,0.4l0.5,0.4l0.5,0.2l0.5,0.3l0.6,0.2l0.7,0.2l0.7,0.2l0.5,0.2l0.5,0.2l0.5,0.2l0.5,0.1
		l0.6,0.2l0.7,0.2l0.7,0.2l0.7,0.2l0.7,0.2l0.7,0.2l0.6,0.2l0.7,0.2l0.6,0.2l0.6,0.2l0.5,0.2l0.5,0.2l0.5,0.2l0.5,0.2l0.7,0.3
		l0.6,0.2l0.5,0.4l0.6,0.3l0.5,0.3l0.5,0.4l0.5,0.4l0.5,0.4l0.4,0.4l0.4,0.4l0.4,0.4l0.4,0.4l0.3,0.5l0.3,0.5l0.2,0.5l0.3,0.5
		l0.2,0.5l0.2,0.6l0.2,0.5l0.1,0.6l0.1,0.7l0.1,0.6l0.1,0.7v0.7v0.1v0.7l-0.1,0.6l-0.1,0.6l-0.1,0.6l-0.1,0.6l-0.1,0.5l-0.2,0.5
		l-0.1,0.5l-0.2,0.5l-0.2,0.5l-0.3,0.6l-0.3,0.5l-0.3,0.5l-0.4,0.5l-0.4,0.5l-0.4,0.4l-0.4,0.4l-0.4,0.4l-0.4,0.4l-0.5,0.4l-0.4,0.3
		l-0.5,0.3l-0.5,0.3l-0.5,0.3l-0.5,0.2l-0.5,0.2l-0.5,0.2l-0.5,0.2l-0.6,0.2l-0.5,0.2l-0.5,0.1l-0.5,0.1l-0.6,0.1l-0.5,0.1l-0.6,0.1
		L169,57l-0.6,0.1l-0.6,0.1h-0.7H166.5z"/>
	<path fill="#1E3160" d="M200.8,21.3h-0.6h-0.6H199h-0.6h-0.6h-0.6h-0.6H196h-0.7h-0.6h-0.6h-0.6h-0.6h-0.7h-0.6h-0.6h-0.6h-0.6
		h-0.6h-0.7H188h-0.6v-0.6v-0.6v-0.6v-0.7v-0.6v-0.6v-0.6v-0.6v-0.6v-0.6v-0.7V14v-0.6v-0.6h0.6h0.6h0.6h0.6h0.6h0.6h0.6h0.6h0.6
		h0.6h0.6h0.6h0.6h0.6h0.6h0.6h0.6h0.6h0.6h0.6h0.6h0.6h0.6h0.6h0.6h0.6h0.6h0.6h0.6h0.7h0.6h0.6h0.6h0.6h0.6h0.6h0.6h0.6h0.6h0.6
		h0.6h0.6h0.6h0.6h0.6h0.6h0.6h0.6h0.6h0.6h0.6h0.6h0.6h0.6h0.6h0.6h0.6h0.6h0.6h0.6v0.6V14v0.6v0.7v0.6v0.6v0.6v0.6v0.6v0.6v0.7
		v0.6v0.6v0.6h-0.6h-0.6h-0.6H221h-0.6h-0.6h-0.6h-0.6H218h-0.6h-0.6h-0.7h-0.6h-0.6h-0.6h-0.6h-0.6h-0.6h-0.7h-0.6h-0.6h-0.6v0.6
		v0.6v0.6v0.6v0.6v0.6v0.6v0.5v0.6v0.6v0.6v0.6v0.6v0.6v0.6v0.6v0.6v0.6v0.6v0.6v0.6v0.6V35v0.6v0.6v0.6v0.6V38v0.6v0.6v0.6v0.6V41
		v0.6v0.6v0.6v0.5v0.6v0.6v0.6v0.6v0.6v0.6v0.6v0.6v0.6v0.6v0.6v0.6v0.6v0.6v0.5v0.6v0.6v0.6v0.6v0.6v0.6v0.6h-0.6h-0.7h-0.6h-0.6
		H207h-0.7h-0.6h-0.6h-0.6h-0.7h-0.6h-0.6h-0.6h-0.7h-0.6v-0.6v-0.6v-0.6v-0.6v-0.6v-0.6v-0.6v-0.5v-0.6v-0.6v-0.6v-0.6v-0.6v-0.6
		v-0.6v-0.6v-0.6v-0.6v-0.6v-0.6v-0.6v-0.6v-0.5v-0.6v-0.6V41v-0.6v-0.6v-0.6v-0.6V38v-0.6v-0.6v-0.6v-0.6V35v-0.5v-0.6v-0.6v-0.6
		v-0.6v-0.6v-0.6v-0.6v-0.6v-0.6v-0.6v-0.6v-0.6v-0.6v-0.6v-0.5v-0.6v-0.6v-0.6v-0.6v-0.6v-0.6V21.3z"/>
</g>
<rect x="24.3" y="22.2" fill="#1E3160" width="8.4" height="34.2"/>
<rect x="12.1" y="30.3" fill="#1E3160" width="8.2" height="26.2"/>
<rect y="39.3" fill="#1E3160" width="7.5" height="17.1"/>
<path fill="#1E3160" d="M25.9,2.4c-0.5,0.5-3.8,3.8-3.5,8.8c0.2,5.4,4.2,8.4,4.8,8.8c0.7-0.1-0.1,0,0.7-0.1c0.8-1.3,2.7-4.9,2.4-8.8
	C29.7,6.1,25.9,2.4,25.9,2.4"/>
<path fill="#FFFFFF" d="M28.9,16.1c-2,2-3,4.1-2.3,4.8c0.7,0.7,2.8-0.4,4.8-2.3c2-2,3-4.1,2.3-4.8C33,13.1,30.9,14.1,28.9,16.1"/>
<path fill="#89D2D7" d="M29.9,12.7c-2.4,2.3-3.2,5.7-3.4,6.9c0.1-0.1,0.2-0.3,0.3-0.4l1.1-1.4c0.2-0.2,0.4-0.5,0.6-0.7
	c0.2-0.2,0.4-0.4,0.6-0.7c0.4-0.4,0.9-0.8,1.4-1.2c1-0.7,2-1.3,3.1-1.8c-0.9,0.7-1.8,1.5-2.7,2.3c-0.4,0.4-0.8,0.8-1.2,1.2
	c-0.4,0.4-0.8,0.9-1.1,1.3L28,19c-0.2,0.2-0.4,0.5-0.6,0.7c-0.1,0.1-0.2,0.2-0.3,0.4c1.3-0.2,4.6-0.8,6.9-3.1c3-2.9,3.4-7.4,3.4-7.4
	S32.9,9.8,29.9,12.7"/>
</svg>
