<?xml version="1.0" encoding="utf-8"?>
<!-- Generator: Adobe Illustrator 24.0.3, SVG Export Plug-In . SVG Version: 6.00 Build 0)  -->
<svg version="1.1" id="Layer_1" xmlns="http://www.w3.org/2000/svg" xmlns:xlink="http://www.w3.org/1999/xlink" x="0px" y="0px"
	 viewBox="0 0 1591.8 200.9" enable-background="new 0 0 1591.8 200.9" xml:space="preserve">
<g>
	<g>
		<path fill="#002D62" d="M761.7,13.1h5.9l0.6,1l1.7,2.5l0.4,0.5l0.3,0.6l1,1.4l0.3,0.5l1,1.5l0.3,0.5l1.3,2l0.4,0.5l0.3,0.5
			l0.3,0.6l0.7,0.9l1.7,2.5l0.3,0.5l0.4,0.5l0.3,0.6l0.4,0.5l0.3,0.5l0.4,0.5l0.3,0.5l0.4,0.5l0.3,0.5l0.4,0.5l0.3,0.5l0.4,0.5
			l0.3,0.5l0.4,0.5l0.3,0.5l1-1.5l0.4-0.5l1.3-2l0.3-0.5l1-1.4l0.3-0.6l0.4-0.5l0.9-1.5l0.4-0.5l0.9-1.5l0.4-0.5l0.3-0.6l1.3-2
			l0.3-0.5l1.3-2l0.4-0.5l0.3-0.5l0.4-0.5l0.3-0.5l0.4-0.5l0.3-0.6l0.4-0.5l0.3-0.5l0.4-0.5l0.3-0.5l1.3-2h6.1v44h-5.8V22.7
			l-0.4,0.5l-0.3,0.5l-0.7,1l-0.3,0.6l-0.7,0.9l-0.3,0.6l-0.7,1l-0.3,0.5l-1.7,2.5l-0.3,0.5l-0.4,0.5l-0.4,0.5l-0.3,0.5l-0.4,0.5
			l-0.4,0.5l-0.3,0.5l-0.4,0.5l-0.4,0.5l-0.7,1l-0.4,0.5l-0.6,1l-0.7,0.9l-0.4,0.6l-0.4,0.5l-0.3,0.5l-0.7,1l-0.3,0.6l-0.7,1
			l-0.3,0.5l-0.7,1l-0.3,0.5l-0.4,0.5h-0.2l-0.4-0.5l-0.3-0.5l-0.7-1l-0.3-0.5l-2.4-3.5l-1.3-2l-0.4-0.5l-0.7-1l-0.4-0.5l-0.7-1
			l-0.4-0.5l-2.7-4.1l-1-1.5l-0.4-0.5l-1.3-2l-0.4-0.5l-0.3-0.6l-0.7-0.9l-0.3-0.6l-0.4-0.5v34.3h-5.6V13.1z"/>
		<path fill="#002D62" d="M842.6,57.1H837v-4.7l-1.5,1.7l-0.4,0.4l-0.5,0.4l-0.5,0.4l-0.5,0.4l-1.1,0.6l-1.5,0.7l-1.1,0.4l-0.6,0.2
			l-1.2,0.2l-0.6,0.1l-0.7,0.1l-0.7,0.1H825l-0.6-0.1l-0.5-0.1l-1.1-0.1l-1.1-0.2l-1.1-0.4l-0.6-0.2l-0.5-0.2l-0.5-0.3l-0.6-0.3
			l-0.5-0.3l-0.5-0.4l-0.5-0.4l-0.9-0.8l-0.7-0.9l-0.7-1.1l-0.2-0.5l-0.4-1l-0.2-0.6l-0.1-0.6l-0.1-0.6l-0.1-0.6v-1.4l0.1-0.6
			l0.1-0.6l0.1-0.6l0.5-1.6l0.2-0.5l0.3-0.6l0.3-0.5l0.7-1l0.4-0.5l0.9-0.8l1.4-0.9l1-0.5l0.6-0.2l1.7-0.5l1.8-0.4l0.6-0.1l0.7-0.1
			h0.6l0.7-0.1h1.9l0.6,0.1h0.7l2.6,0.3l1.7,0.3l0.8,0.2l0.8,0.2l1.8,0.4v-1.8l-0.1-0.7l-0.2-1.2l-0.2-0.6l-0.2-0.5l-0.3-0.5
			l-0.3-0.5l-0.4-0.5l-0.4-0.4l-0.4-0.4l-0.4-0.3l-0.4-0.3l-0.5-0.2l-0.5-0.3l-0.6-0.2l-0.5-0.2l-0.6-0.2l-0.6-0.1l-0.7-0.1
			l-1.3-0.1h-1.4l-0.6,0.1h-0.6l-1.2,0.1l-0.6,0.1l-0.6,0.1l-0.5,0.1l-0.5,0.1l-1.1,0.4l-1.2,0.4l-0.6,0.2l-0.5,0.2l-0.6,0.2
			l-0.5,0.2l-0.2-0.5l-0.2-0.6l-0.4-1.1l-0.2-0.6l-0.2-0.5l-0.2-0.6l-0.2-0.5l1.1-0.5l0.5-0.2l0.5-0.2l1.1-0.4l0.6-0.2l0.5-0.2
			l0.5-0.2l0.6-0.2l1.6-0.4l0.6-0.1l3-0.3h2.1L830,24h0.7l0.7,0.1l0.7,0.1l0.7,0.1l0.6,0.1l0.6,0.2l0.5,0.1l1.2,0.4l0.5,0.2l0.6,0.2
			l0.9,0.5l0.9,0.7l0.4,0.4l0.7,0.7l0.7,0.8l0.6,0.9l0.5,1l0.3,0.5l0.4,1.1l0.2,0.6l0.1,0.5l0.1,0.6l0.2,2.6V57.1z M826.2,53.1h1.2
			l1.8-0.2l1.1-0.2l2.3-0.9l0.5-0.3l0.5-0.3l0.5-0.4l1.3-1.2l0.3-0.4l0.6-1l0.2-0.5l0.4-1.1l0.1-0.6l0.1-0.5v-3.3l-0.5-0.2l-1.1-0.2
			l-0.6-0.1l-1.2-0.3l-1.1-0.3l-2.5-0.2l-0.7-0.1h-2.1l-1.3,0.1l-0.6,0.1l-1.2,0.2l-1.5,0.5l-0.5,0.2l-0.4,0.2l-0.4,0.2l-0.6,0.4
			l-0.4,0.4l-0.7,0.9l-0.2,0.5l-0.2,0.5l-0.2,1.2v0.7l0.1,0.7l0.1,0.6l0.2,0.6l0.2,0.5l0.3,0.5l0.8,0.9l1.4,0.9l0.5,0.2l0.5,0.2
			l1.1,0.3l0.6,0.1l0.6,0.1L826.2,53.1z"/>
		<path fill="#002D62" d="M852.9,24.4h5.6v7.7l0.2-0.5l0.3-0.5l0.2-0.5l0.3-0.5l0.4-0.5l0.3-0.4l0.4-0.4l0.4-0.5l0.4-0.4l0.4-0.4
			l0.4-0.4l0.4-0.4l0.4-0.3l0.5-0.4l1-0.6l0.5-0.2l0.5-0.3l0.6-0.2l1.6-0.5l0.6-0.1l0.6-0.1l0.6-0.1h1.9v5.4h-1l-1.3,0.1l-0.6,0.2
			l-1.2,0.2l-0.6,0.2l-0.5,0.2l-0.6,0.2l-0.5,0.2l-1.9,1.4l-0.8,0.8l-0.7,0.9l-0.4,0.5l-0.3,0.5l-0.3,0.5l-1.2,2.8l-0.1,0.5
			l-0.2,0.5l-0.1,0.5l-0.1,0.6l-0.1,0.5l-0.1,1.2v0.6l-0.1,0.6v13.8h-5.6V24.4z"/>
		<path fill="#002D62" d="M878.9,24.4h5.6v7.7l0.2-0.5l0.3-0.5l0.2-0.5l0.3-0.5l0.4-0.5l0.3-0.4l0.4-0.4l0.4-0.5l0.4-0.4l0.4-0.4
			l0.4-0.4l0.4-0.4l0.4-0.3l0.5-0.4l1-0.6l0.5-0.2l0.5-0.3l0.6-0.2l1.6-0.5l0.6-0.1l0.6-0.1l0.6-0.1h1.9v5.4h-1l-1.3,0.1l-0.6,0.2
			l-1.2,0.2l-0.6,0.2l-0.5,0.2l-0.6,0.2l-0.5,0.2l-1.9,1.4l-0.8,0.8l-0.7,0.9l-0.4,0.5l-0.3,0.5l-0.3,0.5l-1.2,2.8l-0.1,0.5
			l-0.2,0.5l-0.1,0.5l-0.1,0.6l-0.1,0.5l-0.1,1.2v0.6l-0.1,0.6v13.8h-5.6V24.4z"/>
		<path fill="#002D62" d="M905.1,12.5h6.3v5.4h-6.3V12.5z M905.5,24.4h5.6v32.7h-5.6V24.4z"/>
		<path fill="#002D62" d="M949.1,57.1h-5.6v-4.7l-1.5,1.7l-0.4,0.4l-0.5,0.4l-0.5,0.4l-0.5,0.4l-1.1,0.6l-1.5,0.7l-1.1,0.4l-0.6,0.2
			l-1.2,0.2l-0.6,0.1l-0.7,0.1l-0.7,0.1h-1.2l-0.6-0.1l-0.5-0.1l-1.1-0.1l-1.1-0.2L927,57l-0.6-0.2l-0.5-0.2l-0.5-0.3l-0.6-0.3
			l-0.5-0.3l-0.5-0.4l-0.5-0.4l-0.9-0.8l-0.7-0.9l-0.7-1.1l-0.2-0.5l-0.4-1l-0.2-0.6l-0.1-0.6l-0.1-0.6l-0.1-0.6v-1.4l0.1-0.6
			l0.1-0.6l0.1-0.6l0.5-1.6l0.2-0.5l0.3-0.6l0.3-0.5l0.7-1l0.4-0.5l0.9-0.8l1.4-0.9l1-0.5l0.6-0.2l1.7-0.5l1.8-0.4l0.6-0.1l0.7-0.1
			h0.6l0.7-0.1h1.9l0.6,0.1h0.7l2.6,0.3l1.7,0.3l0.8,0.2l0.8,0.2l1.8,0.4v-1.8l-0.1-0.7l-0.2-1.2l-0.2-0.6l-0.2-0.5l-0.3-0.5
			l-0.3-0.5l-0.4-0.5l-0.4-0.4l-0.4-0.4l-0.4-0.3l-0.4-0.3l-0.5-0.2l-0.5-0.3l-0.6-0.2l-0.5-0.2l-0.6-0.2l-0.6-0.1l-0.7-0.1
			l-1.3-0.1h-1.4l-0.6,0.1h-0.6l-1.2,0.1l-0.6,0.1l-0.6,0.1l-0.5,0.1l-0.5,0.1L928,30l-1.2,0.4l-0.6,0.2l-0.5,0.2l-0.6,0.2l-0.5,0.2
			l-0.2-0.5l-0.2-0.6l-0.4-1.1l-0.2-0.6l-0.2-0.5l-0.2-0.6l-0.2-0.5l1.1-0.5l0.5-0.2l0.5-0.2l1.1-0.4l0.6-0.2l0.5-0.2l0.5-0.2
			l0.6-0.2l1.6-0.4l0.6-0.1l3-0.3h2.1l0.7,0.1h0.7l0.7,0.1l0.7,0.1l0.7,0.1l0.6,0.1l0.6,0.2l0.5,0.1l1.2,0.4l0.5,0.2l0.6,0.2
			l0.9,0.5l0.9,0.7l0.4,0.4l0.7,0.7l0.7,0.8l0.6,0.9l0.5,1l0.3,0.5l0.4,1.1l0.2,0.6l0.1,0.5l0.1,0.6l0.2,2.6V57.1z M932.8,53.1h1.2
			l1.8-0.2l1.1-0.2l2.3-0.9l0.5-0.3l0.5-0.3l0.5-0.4l1.3-1.2l0.3-0.4l0.6-1l0.2-0.5l0.4-1.1l0.1-0.6l0.1-0.5v-3.3l-0.5-0.2l-1.1-0.2
			l-0.6-0.1l-1.2-0.3l-1.1-0.3l-2.5-0.2l-0.7-0.1H934l-1.3,0.1l-0.6,0.1l-1.2,0.2l-1.5,0.5l-0.5,0.2l-0.4,0.2l-0.4,0.2l-0.6,0.4
			l-0.4,0.4l-0.7,0.9l-0.2,0.5l-0.2,0.5l-0.2,1.2v0.7l0.1,0.7l0.1,0.6l0.2,0.6l0.2,0.5l0.3,0.5l0.8,0.9l1.4,0.9l0.5,0.2l0.5,0.2
			l1.1,0.3l0.6,0.1l0.6,0.1L932.8,53.1z"/>
		<path fill="#002D62" d="M985.3,24.4h5.6v27.4l-0.1,0.7v0.7l-0.1,0.6l-0.1,0.7l-0.4,1.9l-0.4,1.2l-0.2,0.6l-0.2,0.5l-0.2,0.6
			l-0.3,0.5l-0.2,0.6l-1.3,1.8l-0.4,0.4l-0.4,0.4l-1.3,1.1l-0.4,0.4l-1,0.6l-1.1,0.6l-1.1,0.5l-0.5,0.2l-0.6,0.2l-0.5,0.2l-0.6,0.1
			l-1.8,0.4l-2.5,0.2h-2.6l-3-0.3l-1.8-0.4l-0.5-0.1l-0.6-0.1l-0.5-0.2l-2.2-0.7l-1.6-0.7l-0.6-0.2l-0.5-0.3l-0.5-0.3l-0.5-0.2
			l-1-0.6l0.3-0.6l0.9-1.6l0.3-0.6l0.6-1.1l0.3-0.6L962,59l1,0.6l1.1,0.6l1,0.5l1.1,0.5l0.5,0.2l0.6,0.3l0.5,0.1l0.6,0.2l0.6,0.1
			l1.7,0.4l1.2,0.1h0.6l0.6,0.1h1.3l1.9-0.2l1.2-0.2l1.2-0.4l0.5-0.3l0.5-0.2l0.9-0.5l0.5-0.4l0.8-0.7l0.4-0.4l0.7-0.9l0.3-0.5
			l0.3-0.5l0.2-0.5l0.2-0.5l0.4-1.1l0.1-0.6l0.1-0.6l0.1-0.7l0.1-0.6l0.1-0.7V48l-0.4,0.5l-0.4,0.4l-0.4,0.5l-0.4,0.4l-0.4,0.4
			l-0.4,0.4l-0.9,0.8l-0.4,0.4l-0.5,0.4l-1.5,0.9l-1.4,0.7l-1.1,0.4l-1.7,0.4l-1.9,0.2h-1.3l-2.2-0.2l-0.6-0.1l-0.5-0.2l-0.6-0.1
			l-0.5-0.2l-0.5-0.2l-0.6-0.2l-1.1-0.5l-1.4-0.9l-0.5-0.4l-0.5-0.3l-0.4-0.4l-1.3-1.2l-0.8-0.9l-0.3-0.5l-0.4-0.5l-0.6-1l-0.3-0.6
			l-0.5-1.1l-0.4-1.1l-0.1-0.6L958,43l-0.1-0.6l-0.2-2.4v-1.4l0.2-2.4l0.1-0.6l0.2-0.6l0.1-0.6l0.9-2.2l1.2-2.1l0.7-0.9l0.8-0.9
			l1.3-1.2l0.5-0.3l0.9-0.7l1-0.6l0.6-0.2l0.5-0.3l0.6-0.2l1.1-0.4l0.6-0.1l0.5-0.2l0.6-0.1l1.1-0.1l0.6-0.1l0.5-0.1h1.3l0.6,0.1
			l1.3,0.1l0.6,0.1l0.5,0.1l0.6,0.1l1.1,0.4l0.5,0.2l1,0.5l2.5,1.8l1,0.8l0.9,0.8l0.4,0.5l0.4,0.4l0.4,0.5V24.4z M973.6,49.6h1.2
			l1.2-0.1l1.2-0.2l0.6-0.2l0.6-0.3l0.6-0.2l0.5-0.2l0.6-0.3l1.4-1l0.9-0.8l0.8-0.9l0.3-0.4l0.4-0.5l0.6-1.1l0.2-0.5l0.2-0.6
			l0.2-0.6l0.2-1.2l0.1-0.6v-1.4l-0.1-0.6l-0.2-1.2l-0.2-0.6l-0.2-0.6l-0.2-0.6l-0.6-1.1l-0.4-0.5l-1.1-1.3l-0.4-0.4l-0.5-0.4
			l-2-1.3l-0.5-0.2l-0.6-0.2l-1.2-0.4l-0.6-0.1l-0.6-0.1l-1.2-0.1h-1.2l-1.2,0.1l-0.6,0.1l-0.6,0.1l-1.1,0.4l-0.6,0.2l-1,0.5
			l-0.9,0.6l-0.4,0.4l-0.8,0.8l-0.4,0.4l-0.6,0.9l-0.6,1l-0.5,1.1l-0.2,0.6l-0.4,1.8l-0.1,0.6v1.4l0.1,0.7l0.4,1.8l0.2,0.6l0.5,1.1
			l0.9,1.5l0.4,0.4l0.4,0.4l0.4,0.4l1.3,1.1l0.5,0.3l0.5,0.2l0.5,0.3l0.6,0.2l0.5,0.3l0.6,0.2l0.5,0.1l0.6,0.1L973.6,49.6z"/>
		<path fill="#002D62" d="M1017,57.9h-1.3l-0.6-0.1l-0.6-0.1l-1.2-0.1l-0.5-0.1l-0.6-0.1l-1.7-0.5l-1.2-0.5l-0.6-0.2l-1.1-0.6
			l-1.6-1.1l-0.5-0.4l-0.9-0.9l-0.4-0.4l-0.7-0.9l-0.4-0.4l-0.3-0.5l-0.4-0.5l-0.6-1l-0.9-2.2l-0.4-1.1l-0.1-0.5l-0.2-0.6l-0.1-0.6
			l-0.1-0.5l-0.1-0.6l-0.1-0.6v-0.6l-0.1-0.6v-1.3l0.1-0.7v-0.6l0.1-0.6l0.1-0.6l0.4-1.8l0.2-0.6l0.4-1.2l0.2-0.6l0.5-1.1l0.3-0.5
			l0.2-0.5l0.3-0.5l0.4-0.5l0.3-0.5l0.7-0.8l0.4-0.5l0.9-0.8l0.4-0.4l1.5-1.2l1-0.6l0.6-0.2l1.1-0.6l1.6-0.5l1.7-0.4l1.2-0.1
			l0.6-0.1h1.3l0.6,0.1l1.3,0.1l1.8,0.4l1.2,0.4l1.1,0.5l0.5,0.3l0.6,0.3l2,1.4l0.4,0.4l0.5,0.4l1.2,1.4l0.4,0.5l0.6,1l0.3,0.6
			l0.8,1.7l0.4,1.2l0.4,1.2l0.4,1.8l0.1,0.6l0.1,0.6l0.1,0.6v0.6l0.1,0.6V42l-0.1,0.9h-25.3l0.1,0.6l0.1,0.6l0.1,0.5l0.1,0.5
			l0.4,1.1l0.2,0.5l1.2,2l1.1,1.3l0.4,0.4l0.5,0.4l1.1,0.7l1.2,0.6l1.1,0.4l0.6,0.1l0.5,0.1l0.6,0.1l1.1,0.1h1.3l1.8-0.2l0.5-0.1
			l0.6-0.1l0.5-0.2l0.5-0.1l1.5-0.7l0.5-0.3l0.6-0.3l0.9-0.7l1.4-1.2l0.4-0.4l0.8,0.8l0.9,0.7l0.4,0.4l0.4,0.4l0.4,0.4l0.4,0.4
			l-1.3,1.3l-0.4,0.4l-0.5,0.4l-1.9,1.5l-0.5,0.3l-0.5,0.3l-0.6,0.2l-0.5,0.3l-0.6,0.2l-0.5,0.2l-1.1,0.4l-1.8,0.4l-0.7,0.1
			l-0.7,0.1h-0.6L1017,57.9z M1016.2,28.5h-1.3l-0.7,0.1l-0.6,0.1l-0.6,0.2l-0.6,0.2l-0.6,0.2l-1.2,0.6l-0.5,0.3l-0.5,0.4l-0.5,0.4
			l-1.3,1.4l-0.7,1.1l-0.6,1.2l-0.2,0.6l-0.2,0.5l-0.2,0.6l-0.2,0.5l-0.1,0.6l-0.1,0.7l-0.1,0.6h19.8l-0.1-1.2l-0.2-1.1l-0.2-0.6
			l-0.1-0.5l-0.2-0.6l-0.3-0.6l-0.2-0.6l-0.3-0.5l-1.1-1.6l-0.5-0.4l-0.4-0.4l-0.5-0.4l-1-0.7l-0.6-0.3l-1.6-0.6l-0.6-0.1
			L1016.2,28.5z"/>
		<path fill="#002D62" d="M1085.8,57.1h-5.6v-4.7l-1.5,1.7l-0.4,0.4l-0.5,0.4l-0.5,0.4l-0.5,0.4l-1.1,0.6l-1.5,0.7l-1.1,0.4
			l-0.6,0.2l-1.2,0.2l-0.6,0.1l-0.7,0.1l-0.7,0.1h-1.2l-0.6-0.1l-0.5-0.1l-1.1-0.1l-1.1-0.2l-1.2-0.4l-0.6-0.2l-0.5-0.2l-0.5-0.3
			l-0.6-0.3l-0.5-0.3l-0.5-0.4l-0.5-0.4l-0.9-0.8l-0.7-0.9l-0.7-1.1l-0.2-0.5l-0.4-1L1057,50l-0.1-0.6l-0.1-0.6l-0.1-0.6v-1.4
			l0.1-0.6l0.1-0.6l0.1-0.6l0.5-1.6l0.2-0.5l0.3-0.6l0.3-0.5l0.7-1l0.4-0.5l0.9-0.8l1.4-0.9l1-0.5l0.6-0.2l1.7-0.5l1.8-0.4l0.6-0.1
			l0.7-0.1h0.6l0.7-0.1h1.9l0.6,0.1h0.7l2.6,0.3l1.7,0.3l0.8,0.2l0.8,0.2l1.8,0.4v-1.8l-0.1-0.7l-0.2-1.2l-0.2-0.6l-0.2-0.5
			l-0.3-0.5l-0.3-0.5l-0.4-0.5l-0.4-0.4l-0.4-0.4l-0.4-0.3l-0.4-0.3l-0.5-0.2l-0.5-0.3l-0.6-0.2l-0.5-0.2l-0.6-0.2l-0.6-0.1
			l-0.7-0.1l-1.3-0.1h-1.4l-0.6,0.1h-0.6l-1.2,0.1l-0.6,0.1l-0.6,0.1l-0.5,0.1l-0.5,0.1l-1.1,0.4l-1.2,0.4l-0.6,0.2l-0.5,0.2
			l-0.6,0.2l-0.5,0.2l-0.2-0.5l-0.2-0.6l-0.4-1.1l-0.2-0.6l-0.2-0.5l-0.2-0.6l-0.2-0.5l1.1-0.5l0.5-0.2l0.5-0.2l1.2-0.4l0.6-0.2
			l0.5-0.2l0.5-0.2l0.6-0.2l1.6-0.4l0.6-0.1l3-0.3h2.1l0.7,0.1h0.7l0.7,0.1l0.7,0.1l0.7,0.1l0.6,0.1l0.6,0.2l0.5,0.1l1.2,0.4
			l0.5,0.2l0.6,0.2l0.9,0.5l0.9,0.7l0.4,0.4l0.7,0.7l0.7,0.8l0.6,0.9l0.5,1l0.3,0.5l0.4,1.1l0.2,0.6l0.1,0.5l0.1,0.6l0.2,2.6V57.1z
			 M1069.4,53.1h1.2l1.8-0.2l1.1-0.2l2.3-0.9l0.5-0.3l0.5-0.3l0.5-0.4l1.3-1.2l0.3-0.4l0.6-1l0.2-0.5l0.4-1.1l0.1-0.6l0.1-0.5v-3.3
			l-0.5-0.2l-1.1-0.2l-0.6-0.1l-1.2-0.3l-1.1-0.3l-2.5-0.2l-0.7-0.1h-2.1l-1.3,0.1l-0.6,0.1l-1.2,0.2l-1.5,0.5l-0.5,0.2l-0.4,0.2
			l-0.4,0.2l-0.6,0.4l-0.4,0.4l-0.7,0.9l-0.2,0.5l-0.2,0.5l-0.2,1.2v0.7l0.1,0.7l0.1,0.6l0.2,0.6l0.2,0.5l0.3,0.5l0.8,0.9l1.4,0.9
			l0.5,0.2l0.5,0.2l1.1,0.3l0.6,0.1l0.6,0.1L1069.4,53.1z"/>
		<path fill="#002D62" d="M1096,24.4h5.6v5.5l0.3-0.5l0.7-1l0.8-1l0.9-0.8l0.5-0.4l0.5-0.4l0.5-0.4l0.6-0.3l0.5-0.3l0.6-0.3l0.6-0.2
			l0.7-0.2l1.7-0.4l0.6-0.1l0.7-0.1h1.3l0.6,0.1l1.2,0.1l1.7,0.4l0.5,0.2l0.6,0.2l1.6,0.9l0.5,0.3l0.5,0.4l0.8,0.8l0.4,0.4l0.4,0.5
			l0.7,0.9l0.3,0.6l0.3,0.5l0.7,1.7l0.1,0.5l0.2,0.5l0.2,1.1l0.1,0.6l0.1,0.6v0.6l0.1,0.6v21.2h-5.6V37.5l-0.1-1.3l-0.1-0.6
			l-0.1-0.6l-0.4-1.1l-0.2-0.5l-0.5-1l-0.4-0.5l-0.3-0.4l-0.4-0.4l-0.5-0.4l-1-0.6l-0.5-0.3l-0.5-0.2l-0.6-0.2l-0.6-0.1l-0.7-0.1
			l-0.7-0.1h-1.4l-0.6,0.1l-1.2,0.2l-1.1,0.4l-1.1,0.5l-0.9,0.7l-0.4,0.4l-0.8,0.9l-0.4,0.5l-0.4,0.5l-0.3,0.5l-0.2,0.6l-0.3,0.5
			l-0.2,0.5l-0.4,1.7l-0.1,1.2v19.2h-5.6V24.4z"/>
		<path fill="#002D62" d="M1161.2,11.3h5.6v45.9h-5.6v-6.2l-0.3,0.5l-0.7,0.9l-0.4,0.5l-1.2,1.3l-0.4,0.4l-0.4,0.4l-0.5,0.4
			l-0.4,0.4l-1.5,0.9l-0.5,0.3l-0.6,0.2l-0.5,0.2l-0.6,0.2l-1.6,0.4l-0.5,0.1l-0.6,0.1l-0.6,0.1h-1.2l-0.6-0.1l-0.6-0.1l-0.6-0.1
			l-0.5-0.1l-0.6-0.1l-0.5-0.1l-1.2-0.4l-1.6-0.7l-0.6-0.3l-0.9-0.6l-0.6-0.4l-0.4-0.4l-0.5-0.4l-0.9-0.9l-0.8-0.9l-1-1.3l-0.6-0.9
			l-0.3-0.6l-0.3-0.5l-0.7-1.7l-0.2-0.5l-0.2-0.5l-0.1-0.6l-0.2-0.6l-0.1-0.6l-0.2-1.2l-0.1-0.6v-0.7l-0.1-0.6v-1.5l0.1-0.6v-0.7
			l0.1-0.6l0.1-0.6l0.1-0.6l0.1-0.6l0.2-0.6l0.1-0.5l0.4-1.2l0.7-1.7l0.9-1.6l0.3-0.5l0.7-0.9l1.2-1.3l0.9-0.9l0.5-0.4l0.4-0.4
			l1.5-1l2.2-1l0.6-0.2l0.5-0.2l0.5-0.1l0.6-0.1l0.5-0.1l1.2-0.1l0.6-0.1h1.2l0.6,0.1l0.6,0.1l0.5,0.1l1.6,0.4l0.6,0.2l0.5,0.2
			l0.6,0.2l0.5,0.3l0.6,0.2l0.9,0.6l0.5,0.4l0.5,0.3l0.9,0.7l1.5,1.7l0.4,0.5l0.4,0.4l0.3,0.4V11.3z M1149.7,52.9h1.2l0.6-0.1
			l0.6-0.1l1.2-0.2l1.7-0.7l0.5-0.3l0.6-0.3l0.9-0.7l1-0.9l0.4-0.4l1-1.3l0.3-0.5l0.3-0.5l0.2-0.6l0.3-0.5l0.6-1.7l0.2-1.2l0.1-1.3
			V40l-0.1-1.3l-0.2-1.2l-0.4-1.1l-0.2-0.6l-0.3-0.5l-0.2-0.6l-0.3-0.5l-0.3-0.5l-0.6-0.9l-0.4-0.4L1158,32l-1-0.9l-0.9-0.7
			l-0.6-0.3l-0.5-0.3l-0.6-0.3l-0.5-0.2l-0.6-0.2l-1.2-0.2l-0.6-0.1l-0.6-0.1h-1.2l-0.7,0.1l-0.6,0.1l-0.6,0.1l-1.1,0.4l-0.5,0.2
			L1145,30l-0.6,0.3l-0.9,0.7l-0.4,0.4l-1.3,1.4l-0.4,0.5l-0.9,1.7l-0.2,0.6l-0.5,1.7l-0.1,0.6l-0.1,0.6l-0.1,0.7l-0.1,0.6v1.5
			l0.1,0.6l0.1,0.7l0.4,1.8l0.2,0.5l0.2,0.6l0.2,0.6l0.9,1.7l0.4,0.5l0.4,0.5l0.4,0.4l0.4,0.5l0.4,0.4l1,0.7l0.5,0.3l0.5,0.3
			l0.6,0.2l0.5,0.2l0.6,0.2l1.2,0.2l0.6,0.1L1149.7,52.9z"/>
		<path fill="#002D62" d="M1197.9,13.1h19.8l0.7,0.1h0.6l1.3,0.1l0.6,0.1l0.6,0.1l0.6,0.1l0.6,0.2l0.6,0.1l1.1,0.4l1.2,0.5l0.5,0.3
			l0.6,0.3l1,0.7l0.5,0.3l0.9,0.8l1.2,1.3l1,1.4l0.3,0.6l0.7,1.7l0.2,0.6l0.4,1.9l0.1,1.3v1.4l-0.1,0.7l-0.1,0.6l-0.1,0.7l-0.1,0.6
			l-0.6,1.7l-0.2,0.6l-0.3,0.6l-0.3,0.5l-0.4,0.5l-0.4,0.6l-0.4,0.5l-0.4,0.5l-1.7,1.5l-1,0.6l-0.5,0.3l-1,0.5l-0.5,0.2l-0.6,0.2
			l-0.6,0.3l-0.6,0.2l-0.5,0.2l-0.7,0.2l-0.6,0.1l0.7,1l1.1,1.4l0.4,0.5l0.4,0.6l1.4,1.9l2.5,3.4l0.3,0.5l1.4,1.9l1.1,1.4l2.5,3.4
			l1.1,1.4h-7l-1.8-2.4l-0.3-0.5l-0.4-0.5l-0.4-0.5l-0.4-0.6l-2.5-3.4l-0.3-0.5l-1.4-1.9l-1.5-1.9l-2.1-2.9l-1.1-1.4h-11.7v16.5
			h-5.8V13.1z M1203.7,35.4h13.5l1.9-0.2l0.6-0.1l0.6-0.1l0.6-0.2l1.8-0.7l1-0.6l0.5-0.4l1.3-1.2l0.6-1l0.3-0.5l0.2-0.6l0.2-0.5
			l0.2-0.6l0.1-0.6l0.1-0.6V26l-0.1-0.6l-0.1-0.6l-0.1-0.5l-0.4-1.1l-0.3-0.5l-0.3-0.5l-0.7-0.8l-0.4-0.4l-0.4-0.4l-1.3-0.9
			l-0.5-0.2l-0.6-0.2l-0.5-0.2l-0.6-0.2l-1.2-0.2l-0.6-0.1l-2-0.2h-13.6V35.4z"/>
		<path fill="#002D62" d="M1257.6,57.9h-1.3l-0.6-0.1l-0.6-0.1l-1.2-0.1l-0.5-0.1l-0.6-0.1l-1.7-0.5l-1.2-0.5l-0.6-0.2l-1.1-0.6
			l-1.6-1.1l-0.5-0.4l-0.9-0.9l-0.4-0.4l-0.7-0.9l-0.4-0.4l-0.3-0.5l-0.4-0.5l-0.6-1l-0.9-2.2l-0.4-1.1l-0.1-0.5l-0.2-0.6l-0.1-0.6
			l-0.1-0.5l-0.1-0.6l-0.1-0.6v-0.6l-0.1-0.6v-1.3l0.1-0.7v-0.6l0.1-0.6l0.1-0.6l0.4-1.8l0.2-0.6l0.4-1.2l0.2-0.6l0.5-1.1l0.3-0.5
			l0.2-0.5l0.3-0.5l0.4-0.5l0.3-0.5l0.7-0.8l0.4-0.5l0.9-0.8l0.4-0.4l1.5-1.2l1-0.6l0.6-0.2l1.1-0.6l1.6-0.5l1.7-0.4l1.2-0.1
			l0.6-0.1h1.3l0.7,0.1l1.3,0.1l1.8,0.4l1.2,0.4l1.1,0.5l0.5,0.3l0.6,0.3l2,1.4l0.4,0.4l0.5,0.4l1.2,1.4l0.4,0.5l0.6,1l0.3,0.6
			l0.8,1.7l0.4,1.2l0.4,1.2l0.4,1.8l0.1,0.6l0.1,0.6l0.1,0.6v0.6l0.1,0.6V42l-0.1,0.9h-25.3l0.1,0.6l0.1,0.6l0.1,0.5l0.1,0.5
			l0.4,1.1l0.2,0.5l1.2,2l1.1,1.3l0.4,0.4l0.5,0.4l1.1,0.7l1.2,0.6l1.1,0.4l0.6,0.1l0.5,0.1l0.6,0.1l1.1,0.1h1.3l1.8-0.2l0.5-0.1
			l0.6-0.1l0.5-0.2l0.5-0.1l1.5-0.7l0.5-0.3l0.6-0.3l0.9-0.7l1.4-1.2l0.4-0.4l0.8,0.8l0.9,0.7l0.4,0.4l0.4,0.4l0.4,0.4l0.4,0.4
			l-1.3,1.3l-0.4,0.4l-0.5,0.4l-1.9,1.5l-0.5,0.3l-0.5,0.3l-0.6,0.2l-0.5,0.3l-0.6,0.2l-0.5,0.2l-1.1,0.4l-1.8,0.4l-0.7,0.1
			l-0.7,0.1h-0.6L1257.6,57.9z M1256.8,28.5h-1.3l-0.7,0.1l-0.6,0.1l-0.6,0.2L1253,29l-0.6,0.2l-1.2,0.6l-0.5,0.3l-0.5,0.4l-0.5,0.4
			l-1.3,1.4l-0.7,1.1l-0.6,1.2l-0.2,0.6l-0.2,0.5l-0.2,0.6l-0.2,0.5l-0.1,0.6l-0.1,0.7l-0.1,0.6h19.8l-0.1-1.2l-0.2-1.1l-0.2-0.6
			l-0.1-0.5l-0.2-0.6l-0.3-0.6l-0.2-0.6l-0.3-0.5l-1.1-1.6l-0.5-0.4l-0.4-0.4l-0.5-0.4l-1-0.7l-0.6-0.3l-1.6-0.6l-0.6-0.1
			L1256.8,28.5z"/>
		<path fill="#002D62" d="M1280.8,11.3h5.6v45.9h-5.6V11.3z"/>
		<path fill="#002D62" d="M1324.5,57.1h-5.6v-4.7l-1.5,1.7l-0.4,0.4l-0.5,0.4l-0.5,0.4l-0.5,0.4l-1.1,0.6l-1.5,0.7l-1.1,0.4
			l-0.6,0.2l-1.2,0.2l-0.6,0.1l-0.7,0.1l-0.7,0.1h-1.2l-0.6-0.1l-0.5-0.1l-1.1-0.1l-1.1-0.2l-1.2-0.4l-0.6-0.2l-0.5-0.2l-0.5-0.3
			l-0.6-0.3l-0.5-0.3l-0.5-0.4l-0.5-0.4l-0.9-0.8l-0.7-0.9l-0.7-1.1l-0.2-0.5l-0.4-1l-0.2-0.6l-0.1-0.6l-0.1-0.6l-0.1-0.6v-1.4
			l0.1-0.6l0.1-0.6l0.1-0.6l0.5-1.6l0.2-0.5l0.3-0.6l0.3-0.5l0.7-1l0.4-0.5l0.9-0.8l1.4-0.9l1-0.5l0.6-0.2l1.7-0.5l1.8-0.4l0.6-0.1
			l0.7-0.1h0.6l0.7-0.1h1.9l0.6,0.1h0.7l2.6,0.3l1.7,0.3l0.8,0.2l0.8,0.2l1.8,0.4v-1.8l-0.1-0.7l-0.2-1.2l-0.2-0.6l-0.2-0.5
			l-0.3-0.5l-0.3-0.5l-0.4-0.5l-0.4-0.4l-0.4-0.4l-0.4-0.3l-0.4-0.3l-0.5-0.2l-0.5-0.3l-0.6-0.2l-0.5-0.2l-0.6-0.2l-0.6-0.1
			l-0.7-0.1l-1.3-0.1h-1.4l-0.6,0.1h-0.6l-1.2,0.1l-0.6,0.1l-0.6,0.1l-0.5,0.1l-0.5,0.1l-1.1,0.4l-1.2,0.4l-0.6,0.2l-0.5,0.2
			l-0.6,0.2l-0.5,0.2l-0.2-0.5l-0.2-0.6l-0.4-1.1l-0.2-0.6l-0.2-0.5l-0.2-0.6l-0.2-0.5l1.1-0.5l0.5-0.2l0.5-0.2l1.2-0.4l0.6-0.2
			l0.5-0.2l0.5-0.2l0.6-0.2l1.6-0.4l0.6-0.1l3-0.3h2.1l0.7,0.1h0.7l0.7,0.1l0.7,0.1l0.7,0.1l0.6,0.1l0.6,0.2l0.5,0.1l1.2,0.4
			l0.5,0.2l0.6,0.2l0.9,0.5l0.9,0.7l0.4,0.4l0.7,0.7l0.7,0.8l0.6,0.9l0.5,1l0.3,0.5l0.4,1.1l0.2,0.6l0.1,0.5l0.1,0.6l0.2,2.6V57.1z
			 M1308.1,53.1h1.2l1.8-0.2l1.1-0.2l2.3-0.9l0.5-0.3l0.5-0.3l0.5-0.4l1.3-1.2l0.3-0.4l0.6-1l0.2-0.5l0.4-1.1l0.1-0.6l0.1-0.5v-3.3
			l-0.5-0.2l-1.1-0.2l-0.6-0.1l-1.2-0.3l-1.1-0.3l-2.5-0.2l-0.7-0.1h-2.1L1308,41l-0.6,0.1l-1.2,0.2l-1.5,0.5l-0.5,0.2l-0.4,0.2
			l-0.4,0.2l-0.6,0.4l-0.4,0.4l-0.7,0.9l-0.2,0.5l-0.2,0.5l-0.2,1.2v0.7l0.1,0.7l0.1,0.6l0.2,0.6l0.2,0.5l0.3,0.5l0.8,0.9l1.4,0.9
			l0.5,0.2l0.5,0.2l1.1,0.3l0.6,0.1l0.6,0.1L1308.1,53.1z"/>
		<path fill="#002D62" d="M1336.2,29.4h-4.4v-5h4.4v-9.6h5.6v9.6h9.9v5h-9.9v18.9l0.1,0.7l0.1,0.6l0.5,1l0.3,0.4l0.4,0.4l0.4,0.3
			l0.4,0.2l0.5,0.2l0.6,0.2l0.6,0.1l0.6,0.1h1.3l0.6-0.1l1.8-0.4l0.5-0.2l0.6-0.2l0.6-0.3v4.7l-0.6,0.3l-0.5,0.2l-1.1,0.4l-0.6,0.2
			l-0.5,0.1l-0.5,0.1l-0.6,0.1h-0.5l-0.6,0.1h-1.3l-1.3-0.1l-1.8-0.4l-0.5-0.2l-0.6-0.2l-0.5-0.2l-1-0.6l-0.9-0.7l-0.4-0.4l-0.4-0.5
			l-0.3-0.5l-0.3-0.5l-0.2-0.6l-0.2-0.5l-0.4-1.7l-0.1-1.3V29.4z"/>
		<path fill="#002D62" d="M1360.6,12.5h6.3v5.4h-6.3V12.5z M1361,24.4h5.6v32.7h-5.6V24.4z"/>
		<path fill="#002D62" d="M1393.8,57.9h-1.2l-0.6-0.1h-0.6l-0.6-0.1l-0.6-0.1l-0.5-0.1l-0.6-0.1l-0.5-0.2l-0.6-0.1l-1.1-0.4
			l-0.5-0.2l-0.6-0.3l-0.5-0.3l-0.5-0.2l-1-0.6l-1-0.7l-0.4-0.4l-0.5-0.4l-1.3-1.3l-0.7-0.8l-0.7-1l-0.6-1l-0.3-0.5l-0.3-0.6
			l-0.7-1.6l-0.4-1.2l-0.1-0.6l-0.2-0.6l-0.1-0.5l-0.2-2.5v-1.3l0.2-2.5l0.1-0.6l0.2-0.5l0.1-0.6l0.2-0.6l1.2-2.8l0.3-0.5l0.3-0.5
			l1.8-2.4l1.3-1.3l0.5-0.4l0.4-0.4l1.5-1l1.1-0.6l0.6-0.2l0.5-0.3l0.5-0.2l1.7-0.5l0.5-0.1l0.6-0.1l0.5-0.1l0.6-0.1l0.6-0.1h0.6
			h0.6l1.2-0.1l0.6,0.2l0.6-0.1l0.6,0.1l1.7,0.4l0.5,0.1l1.6,0.5l0.6,0.2l0.5,0.3l0.6,0.2l1.1,0.6l0.9,0.7l0.5,0.3l0.5,0.4l0.4,0.4
			l0.5,0.4l0.4,0.4l0.4,0.4l0.4,0.4l0.7,0.9l0.7,1l0.3,0.5l0.3,0.5l0.5,1.1l0.3,0.6l0.6,1.7l0.1,0.6l0.2,0.6l0.1,0.6l0.2,2.5v1.4
			l-0.2,2.5l-0.1,0.6l-0.2,0.5l-0.1,0.6l-0.2,0.6l-0.2,0.6l-0.2,0.5l-0.8,1.7l-0.3,0.5l-0.3,0.5l-0.4,0.5L1407,51l-0.3,0.5l-1.6,1.7
			l-0.4,0.4l-2.4,1.8l-1.1,0.6l-1.1,0.5l-0.6,0.3l-1.6,0.5l-2.3,0.5l-0.6,0.1h-0.6L1393.8,57.9z M1392.7,52.8h1.2l0.6-0.1l0.6-0.1
			l1.2-0.2l1.1-0.4l1.1-0.5l1.6-1l1.4-1.3l0.4-0.5l0.4-0.5l0.3-0.5l0.4-0.6l0.3-0.5l0.3-0.6l0.3-0.6l0.2-0.5l0.1-0.6l0.2-0.6
			l0.1-0.5l0.2-1.8v-1.3l-0.1-1.2l-0.1-0.6l-0.1-0.5l-0.1-0.6l-0.2-0.5l-0.2-0.6l-0.5-1l-1.2-1.9l-0.7-0.9l-0.9-0.9l-0.5-0.4
			l-1.1-0.7l-0.6-0.3l-0.6-0.3l-0.5-0.2l-1.1-0.4l-1.2-0.2l-0.6-0.1l-0.6-0.1h-1.2l-0.7,0.1l-1.7,0.3l-1.1,0.4l-1.1,0.5l-1.6,1
			l-0.5,0.4l-0.9,0.9l-0.8,1l-1,1.6l-0.5,1.2l-0.2,0.6l-0.1,0.5l-0.3,1.1l-0.2,1.7v1.4l0.1,1.2l0.3,1.1l0.1,0.6l0.2,0.5l0.2,0.6
			l0.2,0.5l0.2,0.5l1.2,1.9l1.2,1.3l0.5,0.5l0.5,0.4l1.6,1l1.1,0.5l1.1,0.4l0.6,0.1l0.5,0.1l0.6,0.1L1392.7,52.8z"/>
		<path fill="#002D62" d="M1419.3,24.4h5.6v5.5l0.3-0.5l0.7-1l0.8-1l0.9-0.8l0.5-0.4l0.5-0.4l0.5-0.4l0.6-0.3l0.5-0.3l0.6-0.3
			l0.6-0.2l0.7-0.2l1.7-0.4l0.6-0.1l0.7-0.1h1.3l0.6,0.1l1.2,0.1l1.7,0.4l0.5,0.2l0.6,0.2l1.6,0.9l0.5,0.3l0.5,0.4l0.8,0.8l0.4,0.4
			l0.4,0.5l0.7,0.9l0.3,0.6l0.3,0.5l0.7,1.7l0.1,0.5l0.2,0.5l0.2,1.1l0.1,0.6l0.1,0.6v0.6l0.1,0.6v21.2h-5.6V37.5l-0.1-1.3l-0.1-0.6
			l-0.1-0.6l-0.4-1.1l-0.2-0.5l-0.5-1l-0.4-0.5l-0.3-0.4l-0.4-0.4l-0.5-0.4l-1-0.6l-0.5-0.3l-0.5-0.2l-0.6-0.2l-0.6-0.1l-0.7-0.1
			l-0.7-0.1h-1.4l-0.6,0.1l-1.2,0.2l-1.1,0.4l-1.1,0.5l-0.9,0.7l-0.4,0.4l-0.8,0.9l-0.4,0.5l-0.4,0.5l-0.3,0.5l-0.2,0.6l-0.3,0.5
			l-0.2,0.5l-0.4,1.7l-0.1,1.2v19.2h-5.6V24.4z"/>
		<path fill="#002D62" d="M1470.1,57.7h-1.2l-0.6-0.1h-0.6l-0.6-0.1l-0.6-0.1l-0.6-0.1l-1.2-0.2l-0.6-0.2l-0.6-0.1l-0.6-0.2
			l-0.6-0.3l-0.6-0.2l-0.6-0.2l-0.5-0.2l-0.6-0.2l-1.6-0.9l-0.5-0.4l-2-1.4l0.7-1l0.3-0.5l0.7-0.9l0.7-1l0.4-0.5l0.6,0.4l0.5,0.4
			l0.6,0.3l0.5,0.4l1.1,0.6l0.5,0.3l1.1,0.5l0.6,0.2l0.6,0.2l1.9,0.6l0.6,0.1l1.9,0.2h1.3l0.6-0.1l1.2-0.2l0.6-0.2l0.9-0.5l0.5-0.3
			l0.4-0.4l0.7-0.9l0.2-0.5l0.2-0.5l0.1-0.5l0.1-0.6v-0.1l-0.1-0.7l-0.2-0.7l-0.3-0.6l-1.2-1.1l-0.6-0.4l-0.4-0.2l-1.5-0.6l-0.6-0.3
			l-3-0.9l-0.6-0.2l-2.7-0.8l-1.2-0.4l-1.7-0.9l-2-1.4l-0.8-0.9l-0.7-1l-0.2-0.4l-0.2-0.5l-0.2-0.6l-0.2-1.1l-0.1-0.6v-1.4l0.1-0.6
			l0.2-1.2l0.1-0.5l0.2-0.6l0.2-0.5l0.3-0.5l0.8-1.1l0.4-0.5l0.5-0.5l0.9-0.8l1-0.6l1.1-0.6l0.5-0.2l0.6-0.2l0.5-0.2l1.1-0.2
			l1.2-0.1l0.5-0.1l0.6-0.1h1.2l0.6,0.1h0.6l0.6,0.1l0.7,0.1l1.2,0.2l0.6,0.2l0.7,0.1l0.6,0.2l1.2,0.5l0.6,0.2l0.6,0.3l0.6,0.2
			l0.5,0.2l1.1,0.6l0.5,0.4l0.5,0.3l-0.3,0.6l-0.3,0.5l-1.6,2.6l-0.3,0.6l-1-0.6l-0.5-0.3l-0.5-0.2l-0.5-0.3l-0.6-0.3l-0.5-0.2
			l-0.5-0.2l-2.4-0.7l-0.6-0.1l-1.2-0.1l-0.5-0.1h-1.3l-0.7,0.1l-0.6,0.1l-1.2,0.4l-0.6,0.3l-0.4,0.3l-0.5,0.4l-0.4,0.5l-0.3,0.5
			l-0.2,0.6l-0.1,0.5l-0.1,0.6V33l0.1,0.6l0.2,0.7l0.3,0.5l0.3,0.4l0.8,0.7l0.9,0.6l0.4,0.2l0.6,0.2l0.5,0.2l1.8,0.6l0.6,0.2
			l1.8,0.6l0.5,0.2l0.5,0.2l0.5,0.2l0.5,0.2l0.6,0.2l0.5,0.2l0.6,0.2l1.7,0.9l0.5,0.4l0.6,0.3l0.4,0.4l0.5,0.4l0.4,0.4l1.1,1.4
			l0.5,1.1l0.2,0.6l0.1,0.6l0.1,0.7v1.5l-0.1,0.7l-0.2,1.3l-0.4,1.1l-0.2,0.5l-0.9,1.5l-0.4,0.4l-0.8,0.8l-0.4,0.4l-0.5,0.4
			l-1.6,0.9l-0.5,0.3l-1.8,0.5l-0.5,0.1l-0.6,0.1l-0.5,0.1l-0.6,0.1h-0.6L1470.1,57.7z"/>
		<path fill="#002D62" d="M1490.4,11.3h5.6v18.7l0.3-0.5l0.7-1l0.8-1l0.9-0.8l0.5-0.4l0.5-0.4l0.5-0.4l0.6-0.3l0.5-0.3l0.6-0.3
			l0.6-0.2l0.7-0.2l1.7-0.4l0.6-0.1l0.7-0.1h1.3l0.6,0.1l1.2,0.1l1.7,0.4l0.5,0.2l0.6,0.2l1.6,0.9l0.5,0.3l0.5,0.4l0.8,0.8l0.4,0.4
			l0.4,0.5l0.7,0.9l0.3,0.6l0.3,0.5l0.7,1.7l0.1,0.5l0.2,0.5l0.2,1.1l0.1,0.6l0.1,0.6v0.6l0.1,0.6v21.2h-5.6V37.5l-0.1-1.3l-0.1-0.6
			l-0.1-0.6l-0.4-1.1l-0.2-0.5l-0.5-1l-0.4-0.5l-0.3-0.4l-0.4-0.4l-0.5-0.4l-1-0.6l-0.5-0.3l-0.5-0.2l-0.6-0.2l-0.6-0.1l-0.7-0.1
			l-0.7-0.1h-1.4l-0.6,0.1l-1.2,0.2l-1.1,0.4l-1.1,0.5l-0.9,0.7l-0.4,0.4l-0.8,0.9l-0.4,0.5l-0.4,0.5l-0.3,0.5L1497,34l-0.3,0.5
			l-0.2,0.5l-0.4,1.7l-0.1,1.2v19.2h-5.6V11.3z"/>
		<path fill="#002D62" d="M1529.8,12.5h6.3v5.4h-6.3V12.5z M1530.2,24.4h5.6v32.7h-5.6V24.4z"/>
		<path fill="#002D62" d="M1547.2,24.4h5.6v6.2l0.3-0.5l0.4-0.5l0.7-0.8l0.4-0.5l0.9-0.8l0.4-0.4l0.9-0.7l0.4-0.4l0.6-0.3l0.9-0.6
			l0.6-0.3l1.2-0.5l0.6-0.2l1.7-0.4l0.5-0.1l0.6-0.1l0.6-0.1h1.2l0.5,0.1l0.6,0.1l0.5,0.1l1.7,0.4l1.2,0.4l0.5,0.2l0.5,0.3l0.6,0.2
			l1.6,0.9l0.5,0.4l0.5,0.4l0.9,0.8l0.4,0.4l0.4,0.4l0.4,0.4l1.3,1.8l0.9,1.6l0.5,1.1l0.2,0.6l0.4,1.1l0.1,0.5l0.2,0.6l0.1,0.6
			l0.1,0.6l0.1,0.6l0.1,0.6v0.7l0.1,0.6v1.5l-0.1,0.6v0.7l-0.1,0.6l-0.1,0.6l-0.1,0.6l-0.1,0.6l-0.2,0.6l-0.1,0.5l-0.2,0.6l-0.2,0.5
			l-0.2,0.5l-0.2,0.6l-0.3,0.6l-0.3,0.5l-0.3,0.5l-0.3,0.6l-1,1.4l-0.4,0.4L1576,53l-0.4,0.4l-1.3,1.2l-0.5,0.4l-0.5,0.4l-1.6,0.9
			l-0.6,0.2l-0.5,0.3l-0.5,0.2l-1.2,0.4l-1.1,0.2l-0.6,0.1l-0.5,0.1l-0.6,0.1l-0.5,0.1h-1.2l-0.7-0.1l-0.5-0.1l-0.6-0.1l-1.7-0.4
			l-0.6-0.2l-1.2-0.5l-1.1-0.5l-1-0.6l-0.5-0.4l-0.5-0.3l-0.8-0.7l-0.4-0.4l-0.5-0.5l-1.3-1.5l-0.4-0.6v16h-5.6V24.4z M1563.1,52.9
			h1.2l0.7-0.1l0.6-0.1l0.6-0.1l0.6-0.2l0.5-0.2l1.7-0.7l0.5-0.3l1-0.7l0.9-0.9l1.2-1.4l0.9-1.7l0.4-1.2l0.4-1.2l0.1-0.6l0.2-2v-1.5
			l-0.1-1.3l-0.4-1.8l-0.2-0.6l-0.2-0.5l-0.9-1.8l-0.3-0.6l-0.8-1l-0.4-0.5l-0.5-0.4l-0.4-0.4l-1-0.7l-1.1-0.6l-1.1-0.5l-0.6-0.2
			l-1.2-0.2l-0.6-0.1l-0.6-0.1h-1.2l-0.6,0.1l-0.6,0.1l-1.2,0.2l-0.6,0.2l-0.6,0.2l-1.6,0.9l-1,0.7l-1.3,1.3l-1,1.3l-0.6,1l-0.2,0.6
			l-0.3,0.5l-0.2,0.6l-0.4,1.1l-0.2,1.2l-0.1,1.3v1.5l0.1,1.3l0.2,1.2l0.2,0.6l0.2,0.5l0.2,0.6l0.3,0.5l0.2,0.6l0.6,1l0.6,0.9
			l0.4,0.4l1.3,1.3l1,0.7l1.1,0.6l1.1,0.5l0.6,0.2l1.2,0.2l0.6,0.1L1563.1,52.9z"/>
		<path fill="#002D62" d="M766.3,88.6v0.7l0.1,0.5l0.2,1l0.2,0.5l0.2,0.4l0.2,0.5l0.4,0.4l0.9,0.8l0.4,0.3l1.4,0.7l1.8,0.7l0.5,0.2
			l0.5,0.1l0.5,0.1l0.5,0.1l0.5,0.1l0.6,0.2l0.6,0.2l0.7,0.2l0.6,0.2l0.7,0.2l0.7,0.2l2.2,0.6l0.7,0.2l0.6,0.2l1.8,0.7l1.6,0.7
			l0.5,0.3l1,0.5l0.9,0.6l0.4,0.3l0.4,0.2l1.3,1.3l0.4,0.5l0.3,0.4l0.3,0.5l0.3,0.5l0.2,0.6l0.2,0.5l0.2,0.6l0.2,1.2l0.1,1.3v1.5
			l-0.1,1.2l-0.4,1.8l-0.2,0.6l-0.3,0.5l-0.2,0.5l-0.3,0.6l-0.4,0.5l-0.3,0.6l-0.4,0.5l-0.4,0.5l-1.4,1.3l-1.4,1l-1.1,0.6l-1.7,0.7
			l-1.2,0.4l-0.5,0.2l-1.2,0.2l-0.6,0.1l-0.6,0.1l-0.7,0.1h-0.6l-0.6,0.1h-1.9l-3-0.3l-2.9-0.6l-0.6-0.2l-1.6-0.6l-1.1-0.5l-0.6-0.2
			l-0.5-0.3l-0.6-0.2l-0.5-0.3l-0.5-0.2l-0.6-0.3l-0.5-0.4l-0.5-0.3l-0.5-0.4l-1.9-1.5l-0.9-0.9l0.4-0.5l0.4-0.5l0.4-0.4l0.4-0.5
			l0.8-0.9l0.4-0.4l0.4-0.5l0.4-0.5l0.9,0.8l0.5,0.4l0.5,0.4l0.5,0.4l0.5,0.3l0.5,0.4l1,0.6l2.5,1.3l0.5,0.2l0.6,0.2l0.5,0.2
			l0.6,0.2l0.5,0.2l1.2,0.2l0.6,0.1l0.6,0.1l0.6,0.1h0.6l0.7,0.1h1.3l1.3-0.1l0.6-0.1l0.6-0.1l1.6-0.5l0.5-0.3l1-0.5l0.9-0.7
			l0.8-0.9l0.4-0.5l0.3-0.5l0.2-0.5l0.2-0.6l0.3-1.1v-1.4l-0.1-0.6l-0.1-0.6l-0.2-0.6l-0.3-0.6l-0.4-0.5l-0.5-0.5l-0.5-0.5l-1.5-0.9
			l-1.9-0.8l-0.5-0.1l-1.1-0.3l-1.8-0.5l-0.7-0.2l-0.7-0.2l-0.7-0.2l-0.7-0.2l-0.7-0.2l-0.7-0.2l-1.8-0.5l-0.6-0.2l-1.7-0.4
			l-0.5-0.2l-0.6-0.2l-1.2-0.6l-0.5-0.3L766,99l-0.9-0.6l-1.4-1.1l-0.5-0.5l-0.4-0.5l-0.7-1l-0.8-1.6l-0.2-0.6l-0.2-1.2l-0.1-0.6
			l-0.1-1.3v-1.5l0.1-0.7l0.4-1.8l0.2-0.6l0.5-1.2l0.6-1.1l0.4-0.5l0.4-0.5l0.4-0.4l0.4-0.5l0.9-0.9l0.4-0.4l0.5-0.3l0.4-0.4
			l1.6-0.8l1.1-0.5l0.6-0.2l0.5-0.2l0.6-0.1l0.5-0.2l0.6-0.1l0.5-0.1l0.6-0.1l0.6-0.1h0.6l0.6-0.1h2l2.6,0.2l0.6,0.1l0.6,0.1
			l1.2,0.2l1.1,0.4l0.5,0.1l2.1,0.9l1,0.5l1.5,0.9l0.5,0.3l0.6,0.3l1.9,1.5L789,85l-0.4,0.5l-0.4,0.6l-0.7,0.9l-0.5-0.4l-1.6-1.1
			l-2.1-1.2l-1-0.5l-0.5-0.2l-0.5-0.2l-0.6-0.2l-0.5-0.2l-0.6-0.1l-0.5-0.2l-0.6-0.1l-1.2-0.2l-0.5-0.1h-0.6l-0.6-0.1h-1.3l-1.2,0.1
			l-1.2,0.2l-0.5,0.1l-1.2,0.5l-1.1,0.6l-0.4,0.3l-0.6,0.5l-0.5,0.5l-0.4,0.5l-0.4,0.5l-0.2,0.6l-0.2,0.7l-0.1,0.6L766.3,88.6z"/>
		<path fill="#002D62" d="M803,93.9h-4.4v-5h4.4v-9.6h5.6v9.6h9.9v5h-9.9v18.9l0.1,0.7l0.1,0.6l0.5,1l0.3,0.4l0.4,0.4l0.4,0.3
			l0.4,0.2l0.5,0.2l0.6,0.2l0.6,0.1l0.6,0.1h1.3l0.6-0.1l1.8-0.4l0.5-0.2l0.6-0.2l0.6-0.3v4.7l-0.6,0.3l-0.5,0.2l-1.1,0.4l-0.6,0.2
			l-0.5,0.1l-0.5,0.1l-0.6,0.1h-0.5l-0.6,0.1h-1.3l-1.3-0.1l-1.8-0.4l-0.5-0.2l-0.6-0.2l-0.5-0.2l-1-0.6l-0.9-0.7l-0.4-0.4l-0.4-0.5
			l-0.3-0.5l-0.3-0.5l-0.2-0.6l-0.2-0.5l-0.4-1.7l-0.1-1.3V93.9z"/>
		<path fill="#002D62" d="M827.3,88.9h5.6v7.7l0.2-0.5l0.3-0.5l0.2-0.5l0.3-0.5l0.4-0.5l0.3-0.4l0.4-0.4l0.4-0.5l0.4-0.4l0.4-0.4
			l0.4-0.4l0.4-0.4l0.4-0.3l0.5-0.4l1-0.6l0.5-0.2l0.5-0.3l0.6-0.2l1.6-0.5l0.6-0.1l0.6-0.1l0.6-0.1h1.9v5.4h-1l-1.3,0.1l-0.6,0.2
			l-1.2,0.2l-0.6,0.2l-0.5,0.2l-0.6,0.2l-0.5,0.2l-1.9,1.4l-0.8,0.8l-0.7,0.9l-0.4,0.5l-0.3,0.5l-0.3,0.5l-1.2,2.8l-0.1,0.5
			l-0.2,0.5l-0.1,0.5l-0.1,0.6l-0.1,0.5l-0.1,1.2v0.6l-0.1,0.6v13.8h-5.6V88.9z"/>
		<path fill="#002D62" d="M867.2,122.4h-1.3l-0.6-0.1l-0.6-0.1l-1.2-0.1l-0.5-0.1l-0.6-0.1l-1.7-0.5l-1.2-0.5l-0.6-0.2l-1.1-0.6
			l-1.6-1.1l-0.5-0.4l-0.9-0.9l-0.4-0.4l-0.7-0.9l-0.4-0.4l-0.3-0.5l-0.4-0.5l-0.6-1l-0.9-2.2l-0.4-1.1l-0.1-0.5l-0.2-0.6l-0.1-0.6
			l-0.1-0.5l-0.1-0.6l-0.1-0.6v-0.6l-0.1-0.6v-1.3l0.1-0.7v-0.6l0.1-0.6l0.1-0.6l0.4-1.8l0.2-0.6l0.4-1.2l0.2-0.6l0.5-1.1l0.3-0.5
			l0.2-0.5l0.3-0.5l0.4-0.5l0.3-0.5l0.7-0.8l0.4-0.5l0.9-0.8l0.4-0.4l1.5-1.2l1-0.6l0.6-0.2l1.1-0.6l1.6-0.5l1.7-0.4l1.2-0.1
			l0.6-0.1h1.3l0.6,0.1l1.3,0.1l1.8,0.4l1.2,0.4l1.1,0.5l0.5,0.3l0.6,0.3l2,1.4L876,92l0.5,0.4l1.2,1.4l0.4,0.5l0.7,1l0.3,0.6
			l0.8,1.7l0.4,1.2l0.4,1.2l0.4,1.8l0.1,0.6l0.1,0.6l0.1,0.6v0.6l0.1,0.6v1.5l-0.1,0.9h-25.3l0.1,0.6l0.1,0.6l0.1,0.5l0.1,0.5
			l0.4,1.1l0.2,0.5l1.2,2l1.1,1.3l0.4,0.4l0.5,0.4l1.1,0.7l1.2,0.6l1.1,0.4l0.6,0.1l0.5,0.1l0.6,0.1l1.1,0.1h1.3l1.8-0.2l0.5-0.1
			l0.6-0.1l0.5-0.2l0.5-0.1l1.5-0.7l0.5-0.3l0.6-0.3l0.9-0.7l1.4-1.2l0.4-0.4l0.8,0.8l0.9,0.7l0.4,0.4l0.4,0.4l0.4,0.4l0.4,0.4
			l-1.3,1.3l-0.4,0.4l-0.5,0.4l-1.9,1.5l-0.5,0.3l-0.5,0.3l-0.6,0.2l-0.5,0.3l-0.6,0.2l-0.5,0.2l-1.1,0.4l-1.8,0.4l-0.7,0.1
			l-0.7,0.1h-0.6L867.2,122.4z M866.4,93h-1.3l-0.7,0.1l-0.6,0.1l-0.6,0.2l-0.6,0.2l-0.6,0.2l-1.2,0.6l-0.5,0.3l-0.5,0.4l-0.5,0.4
			l-1.3,1.4l-0.7,1.1l-0.6,1.2l-0.2,0.6l-0.2,0.5l-0.2,0.6l-0.2,0.5l-0.1,0.6l-0.1,0.7l-0.1,0.6h19.8l-0.1-1.2l-0.2-1.1l-0.2-0.6
			l-0.1-0.5l-0.2-0.6l-0.3-0.6l-0.2-0.6l-0.3-0.5l-1.1-1.6l-0.5-0.4l-0.4-0.4l-0.5-0.4l-1-0.7l-0.6-0.3l-1.6-0.6l-0.6-0.1L866.4,93z
			"/>
		<path fill="#002D62" d="M889.9,88.9h5.6v5.5l0.3-0.5l0.7-1l0.8-1l0.9-0.8l0.5-0.4l0.5-0.4l0.5-0.4l0.6-0.3l0.5-0.3l0.6-0.3
			l0.6-0.2l0.7-0.2l1.7-0.4l0.6-0.1l0.7-0.1h1.3l0.6,0.1l1.2,0.1l1.7,0.4l0.5,0.2l0.6,0.2l1.6,0.9l0.5,0.3l0.5,0.4l0.8,0.8l0.4,0.4
			l0.4,0.5l0.7,0.9l0.3,0.6l0.3,0.5l0.7,1.7l0.1,0.5l0.2,0.5l0.2,1.1l0.1,0.6l0.1,0.6v0.6l0.1,0.6v21.2H913V102l-0.1-1.3l-0.1-0.6
			l-0.1-0.6l-0.4-1.1l-0.2-0.5l-0.5-1l-0.4-0.5l-0.3-0.4l-0.4-0.4l-0.5-0.4l-1-0.6l-0.5-0.3l-0.5-0.2l-0.6-0.2l-0.6-0.1l-0.7-0.1
			l-0.7-0.1h-1.4l-0.6,0.1l-1.2,0.2l-1.1,0.4l-1.1,0.5l-0.9,0.7l-0.4,0.4l-0.8,0.9l-0.4,0.5l-0.4,0.5l-0.3,0.5l-0.2,0.6l-0.3,0.5
			l-0.2,0.5l-0.4,1.7l-0.1,1.2v19.2h-5.6V88.9z"/>
		<path fill="#002D62" d="M955,88.9h5.6v27.4l-0.1,0.7v0.7l-0.1,0.6l-0.1,0.7L960,121l-0.4,1.2l-0.2,0.6l-0.2,0.5l-0.2,0.6l-0.3,0.5
			l-0.2,0.6l-1.3,1.8l-0.4,0.4l-0.4,0.4l-1.3,1.1l-0.4,0.4l-1,0.6l-1.1,0.6l-1.1,0.5l-0.5,0.2l-0.6,0.2l-0.5,0.2l-0.6,0.1l-1.8,0.4
			l-2.5,0.2h-2.6l-3-0.3l-1.8-0.4l-0.5-0.1l-0.6-0.1l-0.5-0.2l-2.2-0.7l-1.6-0.7l-0.6-0.2l-0.5-0.3l-0.5-0.3l-0.5-0.2l-1-0.6
			l0.3-0.6l0.9-1.6l0.3-0.6l0.6-1.1l0.3-0.6l0.5,0.4l1,0.6l1.1,0.6l1,0.5l1.1,0.5l0.5,0.2l0.6,0.3l0.5,0.1l0.6,0.2l0.6,0.1l1.7,0.4
			l1.2,0.1h0.6l0.6,0.1h1.3l1.9-0.2l1.2-0.2l1.2-0.4l0.5-0.3l0.5-0.2l0.9-0.5l0.5-0.4l0.8-0.7l0.4-0.4l0.7-0.9l0.3-0.5l0.3-0.5
			l0.2-0.5l0.2-0.5l0.4-1.1l0.1-0.6l0.1-0.6l0.1-0.7l0.1-0.6l0.1-0.7v-4.2l-0.4,0.5l-0.4,0.4l-0.4,0.5l-0.4,0.4l-0.4,0.4l-0.4,0.4
			l-0.9,0.8l-0.4,0.4l-0.5,0.4l-1.5,0.9l-1.4,0.7l-1.1,0.4l-1.7,0.4l-1.9,0.2H942l-2.2-0.2l-0.6-0.1l-0.5-0.2l-0.6-0.1l-0.5-0.2
			l-0.5-0.2l-0.6-0.2l-1.1-0.5l-1.4-0.9l-0.5-0.4l-0.5-0.3l-0.4-0.4l-1.3-1.2l-0.8-0.9l-0.3-0.5l-0.4-0.5l-0.6-1l-0.3-0.6l-0.5-1.1
			l-0.4-1.1l-0.1-0.6l-0.2-0.5l-0.1-0.6l-0.2-2.4V103l0.2-2.4l0.1-0.6l0.2-0.6l0.1-0.6l0.9-2.2l1.2-2.1l0.7-0.9l0.8-0.9l1.3-1.2
			l0.5-0.3l0.9-0.7l1-0.6l0.6-0.2l0.5-0.3l0.6-0.2l1.1-0.4l0.6-0.1l0.5-0.2l0.6-0.1l1.1-0.1l0.6-0.1l0.5-0.1h1.3l0.7,0.1l1.3,0.1
			l0.6,0.1l0.5,0.1l0.6,0.1l1.1,0.4l0.5,0.2l1,0.5l2.5,1.8l1,0.8l0.9,0.8l0.4,0.5l0.4,0.4l0.4,0.5V88.9z M943.3,114.1h1.2l1.2-0.1
			l1.2-0.2l0.6-0.2l0.6-0.3l0.6-0.2l0.5-0.2l0.6-0.3l1.4-1l0.9-0.8l0.8-0.9l0.3-0.4l0.4-0.5l0.6-1.1l0.2-0.5l0.2-0.6l0.2-0.6
			l0.2-1.2l0.1-0.6V103l-0.1-0.6l-0.2-1.2l-0.2-0.6l-0.2-0.6l-0.2-0.6l-0.6-1.1l-0.4-0.5l-1.1-1.3l-0.4-0.4l-0.5-0.4l-2-1.3
			l-0.5-0.2l-0.6-0.2l-1.2-0.4l-0.6-0.1l-0.6-0.1l-1.2-0.1h-1.2l-1.2,0.1l-0.6,0.1l-0.6,0.1l-1.1,0.4l-0.6,0.2l-1,0.5l-0.9,0.6
			l-0.4,0.4l-0.8,0.8l-0.4,0.4l-0.6,0.9l-0.6,1l-0.5,1.1l-0.2,0.6l-0.4,1.8l-0.1,0.6v1.4l0.1,0.7l0.4,1.8l0.2,0.6l0.5,1.1l0.9,1.5
			l0.4,0.4l0.4,0.4l0.4,0.4l1.3,1.1l0.5,0.3l0.5,0.2l0.5,0.3l0.6,0.2l0.5,0.3l0.6,0.2l0.5,0.1l0.6,0.1L943.3,114.1z"/>
		<path fill="#002D62" d="M973.3,93.9h-4.4v-5h4.4v-9.6h5.6v9.6h9.9v5h-9.9v18.9l0.1,0.7l0.1,0.6l0.5,1l0.3,0.4l0.4,0.4l0.4,0.3
			l0.4,0.2l0.5,0.2l0.6,0.2l0.6,0.1l0.6,0.1h1.3l0.6-0.1l1.8-0.4l0.5-0.2l0.6-0.2l0.6-0.3v4.7l-0.6,0.3l-0.5,0.2l-1.1,0.4l-0.6,0.2
			l-0.5,0.1l-0.5,0.1l-0.6,0.1h-0.5l-0.6,0.1h-1.3l-1.3-0.1l-1.8-0.4l-0.5-0.2l-0.6-0.2l-0.5-0.2l-1-0.6l-0.9-0.7l-0.4-0.4l-0.4-0.5
			l-0.3-0.5l-0.3-0.5l-0.2-0.6l-0.2-0.5l-0.4-1.7l-0.1-1.3V93.9z"/>
		<path fill="#002D62" d="M997.5,75.8h5.6v18.7l0.3-0.5l0.7-1l0.8-1l0.9-0.8l0.5-0.4l0.5-0.4l0.5-0.4l0.6-0.3l0.5-0.3l0.6-0.3
			l0.6-0.2l0.7-0.2l1.7-0.4l0.6-0.1l0.7-0.1h1.3l0.6,0.1l1.2,0.1l1.7,0.4l0.5,0.2l0.6,0.2l1.6,0.9l0.5,0.3l0.5,0.4l0.8,0.8l0.4,0.4
			l0.4,0.5l0.7,0.9l0.3,0.6l0.3,0.5l0.7,1.7l0.1,0.5l0.2,0.5l0.2,1.1l0.1,0.6l0.1,0.6v0.6l0.1,0.6v21.2h-5.6V102l-0.1-1.3l-0.1-0.6
			l-0.1-0.6l-0.4-1.1l-0.2-0.5l-0.5-1l-0.4-0.5l-0.3-0.4l-0.4-0.4l-0.5-0.4l-1-0.6l-0.5-0.3l-0.5-0.2l-0.6-0.2l-0.6-0.1l-0.7-0.1
			l-0.7-0.1h-1.4l-0.6,0.1l-1.2,0.2l-1.1,0.4l-1.1,0.5l-0.9,0.7l-0.4,0.4l-0.8,0.9l-0.4,0.5l-0.4,0.5l-0.3,0.5l-0.2,0.6l-0.3,0.5
			l-0.2,0.5l-0.4,1.7l-0.1,1.2v19.2h-5.6V75.8z"/>
		<path fill="#002D62" d="M1052.1,122.4h-1.3l-0.6-0.1l-0.6-0.1l-1.2-0.1l-0.5-0.1l-0.6-0.1l-1.7-0.5l-1.2-0.5l-0.6-0.2l-1.1-0.6
			l-1.6-1.1l-0.5-0.4l-0.9-0.9l-0.4-0.4l-0.7-0.9l-0.4-0.4l-0.3-0.5l-0.4-0.5l-0.6-1l-0.9-2.2l-0.4-1.1l-0.1-0.5l-0.2-0.6l-0.1-0.6
			l-0.1-0.5l-0.1-0.6l-0.1-0.6v-0.6l-0.1-0.6v-1.3l0.1-0.7v-0.6l0.1-0.6l0.1-0.6l0.4-1.8l0.2-0.6l0.4-1.2l0.2-0.6l0.5-1.1l0.3-0.5
			l0.2-0.5l0.3-0.5l0.4-0.5l0.3-0.5l0.7-0.8l0.4-0.5l0.9-0.8l0.4-0.4l1.5-1.2l1-0.6l0.6-0.2l1.1-0.6l1.6-0.5l1.7-0.4l1.2-0.1
			l0.6-0.1h1.3l0.7,0.1l1.3,0.1l1.8,0.4l1.2,0.4l1.1,0.5l0.5,0.3l0.6,0.3l2,1.4l0.4,0.4l0.5,0.4l1.2,1.4l0.4,0.5l0.6,1l0.3,0.6
			l0.8,1.7l0.4,1.2l0.4,1.2l0.4,1.8l0.1,0.6l0.1,0.6l0.1,0.6v0.6l0.1,0.6v1.5l-0.1,0.9h-25.3l0.1,0.6l0.1,0.6l0.1,0.5l0.1,0.5
			l0.4,1.1l0.2,0.5l1.2,2l1.1,1.3l0.4,0.4l0.5,0.4l1.1,0.7l1.2,0.6l1.1,0.4l0.6,0.1l0.5,0.1l0.6,0.1l1.1,0.1h1.3l1.8-0.2l0.5-0.1
			l0.6-0.1l0.5-0.2l0.5-0.1l1.5-0.7l0.5-0.3l0.6-0.3l0.9-0.7l1.4-1.2l0.4-0.4l0.8,0.8l0.9,0.7l0.4,0.4l0.4,0.4l0.4,0.4l0.4,0.4
			l-1.3,1.3l-0.4,0.4l-0.5,0.4l-1.9,1.5l-0.5,0.3l-0.5,0.3l-0.6,0.2l-0.5,0.3l-0.6,0.2l-0.5,0.2l-1.1,0.4l-1.8,0.4l-0.7,0.1
			l-0.7,0.1h-0.6L1052.1,122.4z M1051.3,93h-1.3l-0.7,0.1l-0.6,0.1l-0.6,0.2l-0.6,0.2l-0.6,0.2l-1.2,0.6l-0.5,0.3l-0.5,0.4l-0.5,0.4
			l-1.3,1.4l-0.7,1.1l-0.6,1.2l-0.2,0.6l-0.2,0.5l-0.2,0.6l-0.2,0.5l-0.1,0.6l-0.1,0.7l-0.1,0.6h19.8l-0.1-1.2l-0.2-1.1l-0.2-0.6
			l-0.1-0.5l-0.2-0.6l-0.3-0.6l-0.2-0.6l-0.3-0.5l-1.1-1.6l-0.5-0.4l-0.4-0.4l-0.5-0.4l-1-0.7l-0.6-0.3l-1.6-0.6l-0.6-0.1L1051.3,93
			z"/>
		<path fill="#002D62" d="M1074.8,88.9h5.6v5.5l0.3-0.5l0.7-1l0.8-1l0.9-0.8l0.5-0.4l0.5-0.4l0.5-0.4l0.6-0.3l0.5-0.3l0.6-0.3
			l0.6-0.2l0.7-0.2l1.7-0.4l0.6-0.1l0.7-0.1h1.3l0.6,0.1l1.2,0.1l1.7,0.4l0.5,0.2l0.6,0.2l1.6,0.9l0.5,0.3l0.5,0.4l0.8,0.8l0.4,0.4
			l0.4,0.5l0.7,0.9l0.3,0.6l0.3,0.5l0.7,1.7l0.1,0.5l0.2,0.5l0.2,1.1l0.1,0.6l0.1,0.6v0.6l0.1,0.6v21.2h-5.6V102l-0.1-1.3l-0.1-0.6
			l-0.1-0.6l-0.4-1.1l-0.2-0.5l-0.5-1l-0.4-0.5l-0.3-0.4l-0.4-0.4l-0.5-0.4l-1-0.6l-0.5-0.3l-0.5-0.2l-0.6-0.2l-0.6-0.1l-0.7-0.1
			l-0.7-0.1h-1.4l-0.6,0.1l-1.2,0.2l-1.1,0.4l-1.1,0.5l-0.9,0.7l-0.4,0.4l-0.8,0.9l-0.4,0.5l-0.4,0.5l-0.3,0.5l-0.2,0.6l-0.3,0.5
			l-0.2,0.5l-0.4,1.7l-0.1,1.2v19.2h-5.6V88.9z"/>
		<path fill="#002D62" d="M1114.2,77h6.3v5.4h-6.3V77z M1114.6,88.9h5.6v32.7h-5.6V88.9z"/>
		<path fill="#002D62" d="M1131.5,88.9h5.6v5.5l0.3-0.5l0.7-1l0.8-1l0.9-0.8l0.5-0.4l0.5-0.4l0.5-0.4l0.6-0.3l0.5-0.3l0.6-0.3
			l0.6-0.2l0.7-0.2l1.7-0.4l0.6-0.1l0.7-0.1h1.3l0.6,0.1l1.2,0.1l1.7,0.4l0.5,0.2l0.6,0.2l1.6,0.9l0.5,0.3l0.5,0.4l0.8,0.8l0.4,0.4
			l0.4,0.5l0.7,0.9l0.3,0.6l0.3,0.5l0.7,1.7l0.1,0.5l0.2,0.5l0.2,1.1l0.1,0.6l0.1,0.6v0.6l0.1,0.6v21.2h-5.6V102l-0.1-1.3l-0.1-0.6
			l-0.1-0.6l-0.4-1.1l-0.2-0.5l-0.5-1l-0.4-0.5l-0.3-0.4l-0.4-0.4l-0.5-0.4l-1-0.6l-0.5-0.3l-0.5-0.2l-0.6-0.2l-0.6-0.1l-0.7-0.1
			l-0.7-0.1h-1.4l-0.6,0.1l-1.2,0.2l-1.1,0.4l-1.1,0.5l-0.9,0.7l-0.4,0.4l-0.8,0.9l-0.4,0.5l-0.4,0.5l-0.3,0.5l-0.2,0.6l-0.3,0.5
			l-0.2,0.5l-0.4,1.7l-0.1,1.2v19.2h-5.6V88.9z"/>
		<path fill="#002D62" d="M1196.6,88.9h5.6v27.4l-0.1,0.7v0.7l-0.1,0.6l-0.1,0.7l-0.4,1.9l-0.4,1.2l-0.2,0.6l-0.2,0.5l-0.2,0.6
			l-0.3,0.5l-0.2,0.6l-1.3,1.8l-0.4,0.4l-0.4,0.4l-1.3,1.1l-0.4,0.4l-1,0.6l-1.1,0.6l-1.1,0.5l-0.5,0.2l-0.6,0.2l-0.5,0.2l-0.6,0.1
			l-1.8,0.4l-2.5,0.2h-2.6l-3-0.3l-1.8-0.4l-0.5-0.1l-0.6-0.1l-0.5-0.2l-2.2-0.7l-1.6-0.7l-0.6-0.2l-0.5-0.3l-0.5-0.3l-0.5-0.2
			l-1-0.6l0.3-0.6l0.9-1.6l0.3-0.6l0.6-1.1l0.3-0.6l0.5,0.4l1,0.6l1.1,0.6l1,0.5l1.1,0.5l0.5,0.2l0.6,0.3l0.5,0.1l0.6,0.2l0.6,0.1
			l1.7,0.4l1.2,0.1h0.6l0.6,0.1h1.3l1.9-0.2l1.2-0.2l1.2-0.4l0.5-0.3l0.5-0.2l0.9-0.5l0.5-0.4l0.8-0.7l0.4-0.4l0.7-0.9l0.3-0.5
			l0.3-0.5l0.2-0.5l0.2-0.5l0.4-1.1l0.1-0.6l0.1-0.6l0.1-0.7l0.1-0.6l0.1-0.7v-4.2l-0.4,0.5l-0.4,0.4l-0.4,0.5l-0.4,0.4l-0.4,0.4
			l-0.4,0.4l-0.9,0.8l-0.4,0.4l-0.5,0.4l-1.5,0.9l-1.4,0.7l-1.1,0.4l-1.7,0.4l-1.9,0.2h-1.3l-2.2-0.2l-0.6-0.1l-0.5-0.2l-0.6-0.1
			l-0.5-0.2l-0.5-0.2l-0.6-0.2l-1.1-0.5l-1.4-0.9l-0.5-0.4l-0.5-0.3l-0.4-0.4l-1.3-1.2l-0.8-0.9l-0.3-0.5l-0.4-0.5l-0.6-1l-0.3-0.6
			l-0.5-1.1l-0.4-1.1l-0.1-0.6l-0.2-0.5l-0.1-0.6l-0.2-2.4V103l0.2-2.4l0.1-0.6l0.2-0.6l0.1-0.6l0.9-2.2l1.2-2.1l0.7-0.9l0.8-0.9
			l1.3-1.2l0.5-0.3l0.9-0.7l1-0.6l0.6-0.2l0.5-0.3l0.6-0.2l1.1-0.4l0.6-0.1l0.5-0.2l0.6-0.1l1.1-0.1l0.6-0.1l0.5-0.1h1.3l0.6,0.1
			l1.3,0.1l0.6,0.1l0.5,0.1l0.6,0.1l1.1,0.4l0.5,0.2l1,0.5l2.5,1.8l1,0.8l0.9,0.8l0.4,0.5l0.4,0.4l0.4,0.5V88.9z M1184.9,114.1h1.2
			l1.2-0.1l1.2-0.2l0.6-0.2l0.6-0.3l0.6-0.2l0.5-0.2l0.6-0.3l1.4-1l0.9-0.8l0.8-0.9l0.3-0.4l0.4-0.5l0.6-1.1l0.2-0.5l0.2-0.6
			l0.2-0.6l0.2-1.2l0.1-0.6V103l-0.1-0.6l-0.2-1.2l-0.2-0.6l-0.2-0.6l-0.2-0.6l-0.6-1.1l-0.4-0.5l-1.1-1.3l-0.4-0.4l-0.5-0.4l-2-1.3
			l-0.5-0.2l-0.6-0.2l-1.2-0.4l-0.6-0.1l-0.6-0.1l-1.2-0.1h-1.2l-1.2,0.1l-0.6,0.1l-0.6,0.1l-1.1,0.4l-0.6,0.2l-1,0.5l-0.9,0.6
			l-0.4,0.4l-0.8,0.8l-0.4,0.4l-0.6,0.9l-0.6,1l-0.5,1.1l-0.2,0.6l-0.4,1.8l-0.1,0.6v1.4l0.1,0.7l0.4,1.8l0.2,0.6l0.5,1.1l0.9,1.5
			l0.4,0.4l0.4,0.4l0.4,0.4l1.3,1.1l0.5,0.3l0.5,0.2l0.5,0.3l0.6,0.2l0.5,0.3l0.6,0.2l0.5,0.1l0.6,0.1L1184.9,114.1z"/>
		<path fill="#002D62" d="M1233.4,77.6h19.8l0.7,0.1h0.6l1.3,0.1l0.6,0.1l0.6,0.1l0.6,0.1l0.6,0.2l0.6,0.1l1.1,0.4l1.2,0.5l0.5,0.3
			l0.6,0.3l1,0.7l0.5,0.3l0.9,0.8l1.2,1.3l1,1.4l0.3,0.6l0.7,1.7l0.2,0.6l0.4,1.9l0.1,1.3v1.4l-0.1,0.7l-0.1,0.6l-0.1,0.7l-0.1,0.6
			l-0.6,1.7l-0.2,0.6l-0.3,0.6l-0.3,0.5l-0.4,0.5l-0.4,0.6l-0.4,0.5l-0.4,0.5l-1.7,1.5l-1,0.6l-0.5,0.3l-1,0.5l-0.5,0.2l-0.6,0.2
			l-0.6,0.3l-0.6,0.2l-0.5,0.2l-0.7,0.2l-0.6,0.1l0.7,1l1.1,1.4l0.4,0.5l0.4,0.6l1.4,1.9l2.5,3.4l0.3,0.5l1.4,1.9l1.1,1.4l2.5,3.4
			l1.1,1.4h-7l-1.8-2.4l-0.3-0.5l-0.4-0.5l-0.4-0.5l-0.4-0.6l-2.5-3.4l-0.3-0.5l-1.4-1.9l-1.5-1.9l-2.1-2.9l-1.1-1.4h-11.7v16.5
			h-5.8V77.6z M1239.2,99.9h13.5l1.9-0.2l0.6-0.1l0.6-0.1l0.6-0.2l1.8-0.7l1-0.6l0.5-0.4l1.3-1.2l0.6-1l0.3-0.5l0.2-0.6l0.2-0.5
			l0.2-0.6l0.1-0.6l0.1-0.6v-1.5l-0.1-0.6l-0.1-0.6l-0.1-0.5l-0.4-1.1l-0.3-0.5l-0.3-0.5l-0.7-0.8l-0.4-0.4l-0.4-0.4l-1.3-0.9
			l-0.5-0.2l-0.6-0.2l-0.5-0.2l-0.6-0.2l-1.2-0.2l-0.6-0.1l-2-0.2h-13.6V99.9z"/>
		<path fill="#002D62" d="M1293.1,122.4h-1.3l-0.6-0.1l-0.6-0.1l-1.2-0.1l-0.5-0.1l-0.6-0.1l-1.7-0.5l-1.2-0.5l-0.6-0.2l-1.1-0.6
			l-1.6-1.1l-0.5-0.4l-0.9-0.9l-0.4-0.4l-0.7-0.9l-0.4-0.4l-0.3-0.5l-0.4-0.5l-0.6-1l-0.9-2.2l-0.4-1.1l-0.1-0.5l-0.2-0.6l-0.1-0.6
			l-0.1-0.5l-0.1-0.6l-0.1-0.6v-0.6l-0.1-0.6v-1.3l0.1-0.7v-0.6l0.1-0.6l0.1-0.6l0.4-1.8l0.2-0.6l0.4-1.2l0.2-0.6l0.5-1.1l0.3-0.5
			l0.2-0.5l0.3-0.5l0.4-0.5l0.3-0.5l0.7-0.8l0.4-0.5l0.9-0.8l0.4-0.4l1.5-1.2l1-0.6l0.6-0.2l1.1-0.6l1.6-0.5l1.7-0.4l1.2-0.1
			l0.6-0.1h1.3l0.7,0.1l1.3,0.1l1.8,0.4l1.2,0.4l1.1,0.5l0.5,0.3l0.6,0.3l2,1.4l0.4,0.4l0.5,0.4l1.2,1.4l0.4,0.5l0.6,1l0.3,0.6
			l0.8,1.7l0.4,1.2l0.4,1.2l0.4,1.8l0.1,0.6l0.1,0.6l0.1,0.6v0.6l0.1,0.6v1.5l-0.1,0.9h-25.3l0.1,0.6l0.1,0.6l0.1,0.5l0.1,0.5
			l0.4,1.1l0.2,0.5l1.2,2l1.1,1.3l0.4,0.4l0.5,0.4l1.1,0.7l1.2,0.6l1.1,0.4l0.6,0.1l0.5,0.1l0.6,0.1l1.1,0.1h1.3l1.8-0.2l0.5-0.1
			l0.6-0.1l0.5-0.2l0.5-0.1l1.5-0.7l0.5-0.3l0.6-0.3l0.9-0.7l1.4-1.2l0.4-0.4l0.8,0.8l0.9,0.7l0.4,0.4l0.4,0.4l0.4,0.4l0.4,0.4
			l-1.3,1.3l-0.4,0.4l-0.5,0.4l-1.9,1.5l-0.5,0.3l-0.5,0.3l-0.6,0.2l-0.5,0.3l-0.6,0.2l-0.5,0.2l-1.1,0.4l-1.8,0.4l-0.7,0.1
			l-0.7,0.1h-0.6L1293.1,122.4z M1292.3,93h-1.3l-0.7,0.1l-0.6,0.1l-0.6,0.2l-0.6,0.2l-0.6,0.2l-1.2,0.6l-0.5,0.3l-0.5,0.4l-0.5,0.4
			l-1.3,1.4l-0.7,1.1l-0.6,1.2l-0.2,0.6l-0.2,0.5l-0.2,0.6l-0.2,0.5l-0.1,0.6l-0.1,0.7l-0.1,0.6h19.8l-0.1-1.2l-0.2-1.1l-0.2-0.6
			l-0.1-0.5l-0.2-0.6l-0.3-0.6l-0.2-0.6l-0.3-0.5l-1.1-1.6l-0.5-0.4l-0.4-0.4l-0.5-0.4l-1-0.7l-0.6-0.3l-1.6-0.6l-0.6-0.1L1292.3,93
			z"/>
		<path fill="#002D62" d="M1327.3,122.2h-1.2l-0.6-0.1h-0.6l-0.6-0.1l-0.6-0.1l-0.6-0.1l-1.2-0.2l-0.6-0.2l-0.6-0.1l-0.6-0.2
			l-0.6-0.3l-0.6-0.2l-0.6-0.2l-0.5-0.2l-0.6-0.2l-1.6-0.9l-0.5-0.4l-2-1.4l0.7-1l0.3-0.5l0.7-0.9l0.7-1l0.4-0.5l0.6,0.4l0.5,0.4
			l0.6,0.3l0.5,0.4l1.1,0.6l0.5,0.3l1.1,0.5l0.6,0.2l0.6,0.2l1.9,0.6l0.6,0.1l1.9,0.2h1.3l0.6-0.1l1.2-0.2l0.6-0.2l0.9-0.5l0.5-0.3
			l0.4-0.4l0.7-0.9l0.2-0.5l0.2-0.5l0.1-0.5l0.1-0.6v-0.1l-0.1-0.7l-0.2-0.7l-0.3-0.6l-1.2-1.1l-0.6-0.4l-0.4-0.2l-1.5-0.6l-0.6-0.3
			l-3-0.9l-0.6-0.2l-2.7-0.8l-1.2-0.4l-1.7-0.9l-2-1.4l-0.8-0.9l-0.7-1l-0.2-0.4l-0.2-0.5l-0.2-0.6l-0.2-1.1l-0.1-0.6v-1.4l0.1-0.6
			l0.2-1.2l0.1-0.5l0.2-0.6l0.2-0.5l0.3-0.5l0.8-1.1l0.4-0.5l0.5-0.5l0.9-0.8l1-0.6l1.1-0.6l0.5-0.2l0.6-0.2l0.5-0.2l1.1-0.2
			l1.2-0.1l0.5-0.1l0.6-0.1h1.2l0.6,0.1h0.6l0.6,0.1l0.7,0.1l1.2,0.2l0.6,0.2l0.7,0.1l0.6,0.2l1.2,0.5l0.6,0.2l0.6,0.3l0.6,0.2
			l0.5,0.2l1.1,0.6l0.5,0.4l0.5,0.3l-0.3,0.6l-0.3,0.5l-1.6,2.6l-0.3,0.6l-1-0.6l-0.5-0.3l-0.5-0.2l-0.5-0.3l-0.6-0.3l-0.5-0.2
			l-0.5-0.2l-2.4-0.7l-0.6-0.1l-1.2-0.1l-0.5-0.1h-1.3l-0.7,0.1l-0.6,0.1l-1.2,0.4l-0.6,0.3l-0.4,0.3l-0.5,0.4l-0.4,0.5l-0.3,0.5
			l-0.2,0.6l-0.1,0.5l-0.1,0.6v0.1l0.1,0.6l0.2,0.7l0.3,0.5l0.3,0.4l0.8,0.7l0.9,0.6l0.4,0.2l0.6,0.2l0.5,0.2l1.8,0.6l0.6,0.2
			l1.8,0.6l0.5,0.2l0.5,0.2l0.5,0.2l0.5,0.2l0.6,0.2l0.5,0.2l0.6,0.2l1.7,0.9l0.5,0.4l0.6,0.3l0.4,0.4l0.5,0.4l0.4,0.4l1.1,1.4
			l0.5,1.1l0.2,0.6l0.1,0.6l0.1,0.7v1.5l-0.1,0.7l-0.2,1.3l-0.4,1.1l-0.2,0.5l-0.9,1.5l-0.4,0.4l-0.8,0.8l-0.4,0.4l-0.5,0.4
			l-1.6,0.9l-0.5,0.3l-1.8,0.5l-0.5,0.1l-0.6,0.1l-0.5,0.1l-0.6,0.1h-0.6L1327.3,122.2z"/>
		<path fill="#002D62" d="M1362.9,122.4h-1.3l-0.6-0.1l-0.6-0.1l-1.2-0.1l-0.5-0.1l-0.6-0.1l-1.7-0.5l-1.2-0.5l-0.6-0.2l-1.1-0.6
			l-1.6-1.1l-0.5-0.4l-0.9-0.9l-0.4-0.4l-0.7-0.9l-0.4-0.4l-0.3-0.5l-0.4-0.5l-0.6-1l-0.9-2.2l-0.4-1.1l-0.1-0.5l-0.2-0.6l-0.1-0.6
			l-0.1-0.5l-0.1-0.6l-0.1-0.6v-0.6l-0.1-0.6v-1.3l0.1-0.7v-0.6l0.1-0.6l0.1-0.6l0.4-1.8l0.2-0.6l0.4-1.2l0.2-0.6l0.5-1.1l0.3-0.5
			l0.2-0.5l0.3-0.5l0.4-0.5l0.3-0.5l0.7-0.8l0.4-0.5l0.9-0.8l0.4-0.4l1.5-1.2l1-0.6l0.6-0.2l1.1-0.6l1.6-0.5l1.7-0.4l1.2-0.1
			l0.6-0.1h1.3l0.7,0.1l1.3,0.1l1.8,0.4l1.2,0.4l1.1,0.5l0.5,0.3l0.6,0.3l2,1.4l0.4,0.4l0.5,0.4l1.2,1.4l0.4,0.5l0.6,1l0.3,0.6
			l0.8,1.7l0.4,1.2l0.4,1.2l0.4,1.8l0.1,0.6l0.1,0.6l0.1,0.6v0.6l0.1,0.6v1.5l-0.1,0.9h-25.3l0.1,0.6l0.1,0.6l0.1,0.5l0.1,0.5
			l0.4,1.1l0.2,0.5l1.2,2l1.1,1.3l0.4,0.4l0.5,0.4l1.1,0.7l1.2,0.6l1.1,0.4l0.6,0.1l0.5,0.1l0.6,0.1l1.1,0.1h1.3l1.8-0.2l0.5-0.1
			l0.6-0.1l0.5-0.2l0.5-0.1l1.5-0.7l0.5-0.3l0.6-0.3l0.9-0.7l1.4-1.2l0.4-0.4l0.8,0.8l0.9,0.7l0.4,0.4l0.4,0.4l0.4,0.4l0.4,0.4
			l-1.3,1.3l-0.4,0.4l-0.5,0.4l-1.9,1.5l-0.5,0.3l-0.5,0.3l-0.6,0.2l-0.5,0.3l-0.6,0.2l-0.5,0.2l-1.1,0.4l-1.8,0.4l-0.7,0.1
			l-0.7,0.1h-0.6L1362.9,122.4z M1362.1,93h-1.3l-0.7,0.1l-0.6,0.1l-0.6,0.2l-0.6,0.2l-0.6,0.2l-1.2,0.6l-0.5,0.3l-0.5,0.4l-0.5,0.4
			l-1.3,1.4l-0.7,1.1l-0.6,1.2l-0.2,0.6l-0.2,0.5l-0.2,0.6l-0.2,0.5l-0.1,0.6l-0.1,0.7l-0.1,0.6h19.8l-0.1-1.2l-0.2-1.1l-0.2-0.6
			l-0.1-0.5l-0.2-0.6l-0.3-0.6l-0.2-0.6l-0.3-0.5l-1.1-1.6l-0.5-0.4l-0.4-0.4l-0.5-0.4l-1-0.7l-0.6-0.3l-1.6-0.6l-0.6-0.1L1362.1,93
			z"/>
		<path fill="#002D62" d="M1412.3,121.6h-5.6v-4.7l-1.5,1.7l-0.4,0.4l-0.5,0.4l-0.5,0.4l-0.5,0.4l-1.1,0.6l-1.5,0.7l-1.1,0.4
			l-0.6,0.2l-1.2,0.2l-0.6,0.1l-0.7,0.1l-0.7,0.1h-1.2l-0.6-0.1l-0.5-0.1l-1.1-0.1l-1.1-0.2l-1.2-0.4l-0.6-0.2l-0.5-0.2l-0.5-0.3
			l-0.6-0.3l-0.5-0.3l-0.5-0.4l-0.5-0.4l-0.9-0.8l-0.7-0.9l-0.7-1.1l-0.2-0.5l-0.4-1l-0.2-0.6l-0.1-0.6l-0.1-0.6l-0.1-0.6v-1.4
			l0.1-0.6l0.1-0.6l0.1-0.6l0.5-1.6l0.2-0.5l0.3-0.6l0.3-0.5l0.7-1l0.4-0.5l0.9-0.8l1.4-0.9l1-0.5l0.6-0.2l1.7-0.5l1.8-0.4l0.6-0.1
			l0.7-0.1h0.6l0.7-0.1h1.9l0.6,0.1h0.7l2.6,0.3l1.7,0.3l0.8,0.2l0.8,0.2l1.8,0.4v-1.8l-0.1-0.7l-0.2-1.2l-0.2-0.6l-0.2-0.5
			l-0.3-0.5l-0.3-0.5l-0.4-0.5l-0.4-0.4l-0.4-0.4l-0.4-0.3l-0.4-0.3l-0.5-0.2l-0.5-0.3l-0.6-0.2l-0.5-0.2l-0.6-0.2l-0.6-0.1
			l-0.7-0.1l-1.3-0.1h-1.4l-0.6,0.1h-0.6l-1.2,0.1l-0.6,0.1l-0.6,0.1l-0.5,0.1l-0.5,0.1l-1.1,0.4l-1.2,0.4l-0.6,0.2l-0.5,0.2
			l-0.6,0.2l-0.5,0.2l-0.2-0.5l-0.2-0.6l-0.4-1.1l-0.2-0.6l-0.2-0.5l-0.2-0.6l-0.2-0.5l1.1-0.5l0.5-0.2l0.5-0.2l1.2-0.4l0.6-0.2
			l0.5-0.2l0.5-0.2l0.6-0.2l1.6-0.4l0.6-0.1l3-0.3h2.1l0.7,0.1h0.7l0.7,0.1l0.7,0.1l0.7,0.1l0.6,0.1l0.6,0.2l0.5,0.1l1.2,0.4
			l0.5,0.2l0.6,0.2l0.9,0.5l0.9,0.7l0.4,0.4l0.7,0.7l0.7,0.8l0.6,0.9l0.5,1l0.3,0.5l0.4,1.1l0.2,0.6l0.1,0.5l0.1,0.6l0.2,2.6V121.6z
			 M1395.9,117.6h1.2l1.8-0.2l1.1-0.2l2.3-0.9l0.5-0.3l0.5-0.3l0.5-0.4l1.3-1.2l0.3-0.4l0.6-1l0.2-0.5l0.4-1.1l0.1-0.6l0.1-0.5v-3.3
			l-0.5-0.2l-1.1-0.2l-0.6-0.1l-1.2-0.3l-1.1-0.3l-2.5-0.2l-0.7-0.1h-2.1l-1.3,0.1l-0.6,0.1l-1.2,0.2l-1.5,0.5l-0.5,0.2l-0.4,0.2
			l-0.4,0.2l-0.6,0.4l-0.4,0.4l-0.7,0.9l-0.2,0.5l-0.2,0.5l-0.2,1.2v0.7l0.1,0.7l0.1,0.6l0.2,0.6l0.2,0.5l0.3,0.5l0.8,0.9l1.4,0.9
			l0.5,0.2l0.5,0.2l1.1,0.3l0.6,0.1l0.6,0.1L1395.9,117.6z"/>
		<path fill="#002D62" d="M1422.6,88.9h5.6v7.7l0.2-0.5l0.3-0.5l0.2-0.5l0.3-0.5l0.4-0.5l0.3-0.4l0.4-0.4l0.4-0.5l0.4-0.4l0.4-0.4
			l0.4-0.4l0.4-0.4l0.4-0.3l0.5-0.4l1-0.6l0.5-0.2l0.5-0.3l0.6-0.2l1.6-0.5l0.6-0.1l0.6-0.1l0.6-0.1h1.9v5.4h-1l-1.3,0.1l-0.6,0.2
			l-1.2,0.2l-0.6,0.2l-0.5,0.2l-0.6,0.2l-0.5,0.2l-1.9,1.4l-0.8,0.8l-0.7,0.9l-0.4,0.5l-0.3,0.5l-0.3,0.5l-1.2,2.8l-0.1,0.5
			l-0.2,0.5l-0.1,0.5l-0.1,0.6l-0.1,0.5l-0.1,1.2v0.6l-0.1,0.6v13.8h-5.6V88.9z"/>
		<path fill="#002D62" d="M1462.9,122.4h-1.3l-0.7-0.1l-0.6-0.1l-0.6-0.1l-1.9-0.4l-1.7-0.5l-1.2-0.5l-0.5-0.3l-0.5-0.2l-0.6-0.3
			l-1.4-1l-1.3-1.2l-1.2-1.3l-0.4-0.4l-0.4-0.5l-0.6-1l-0.4-0.5l-0.6-1l-0.7-1.6l-0.4-1.2l-0.1-0.6l-0.2-0.6l-0.1-0.5l-0.2-2.5v-1.3
			l0.2-2.5l0.1-0.6l0.2-0.5l0.1-0.6l0.2-0.6l0.4-1.2l0.5-1.1l0.6-1l1-1.5l0.7-0.9l0.4-0.5l0.5-0.4l0.4-0.4l1.8-1.5l0.5-0.4l1-0.6
			l0.5-0.3l0.5-0.2l0.6-0.3l1.2-0.4l0.5-0.2l0.6-0.2l1.9-0.4l1.2-0.1l0.7-0.1h1.3l0.6,0.1h0.6l0.6,0.1l0.6,0.1l0.5,0.1l0.6,0.1
			l1.8,0.5l1.6,0.7l0.6,0.2l1.4,0.9l0.5,0.4l0.4,0.3l2.1,1.9l0.4,0.4l-0.4,0.4l-0.4,0.4l-0.9,0.8l-0.4,0.5l-0.9,0.8l-0.4,0.4
			l-0.4,0.4l-0.4-0.4l-0.4-0.4l-0.5-0.4l-0.4-0.4l-0.9-0.7l-0.5-0.4l-0.5-0.3l-0.5-0.4l-1.6-0.7l-0.5-0.2l-0.6-0.2l-0.6-0.1
			l-0.6-0.1l-0.6-0.1h-1.4l-0.7,0.1l-0.6,0.1l-0.7,0.1l-1.2,0.4l-1.2,0.5l-1.1,0.7l-0.5,0.4l-1.3,1.3l-0.4,0.5l-0.4,0.5l-0.4,0.5
			l-0.3,0.6l-0.3,0.5l-0.3,0.6l-0.2,0.6l-0.4,1.1l-0.2,0.6l-0.1,0.5l-0.1,0.6l-0.1,1.2v1.4l0.1,1.3l0.1,0.5l0.1,0.6l0.5,1.7l0.2,0.6
			l0.3,0.6l1,1.6l0.4,0.5l0.9,0.9l0.5,0.4l0.5,0.4l0.5,0.4l1.1,0.7l0.6,0.2l0.5,0.2l1,0.4l1.2,0.2l0.6,0.1l0.6,0.1h1.3l0.6-0.1
			l0.6-0.1l0.6-0.1l0.6-0.2l0.5-0.2l0.6-0.2l1-0.5l0.5-0.3l0.5-0.4l0.5-0.3l0.5-0.4l0.4-0.4l0.5-0.4l0.4-0.4l0.5-0.4l0.4-0.4
			l0.4,0.4l1.8,1.7l1.3,1.3l-1.3,1.3l-1.3,1.2l-0.5,0.4l-0.5,0.3l-0.5,0.4l-0.5,0.3l-1.1,0.6l-0.5,0.2l-0.6,0.3l-0.6,0.2l-0.6,0.2
			l-1.2,0.4l-0.6,0.1l-0.5,0.1l-0.6,0.1l-0.6,0.1h-0.6L1462.9,122.4z"/>
		<path fill="#002D62" d="M1483.7,75.8h5.6v18.7l0.3-0.5l0.7-1l0.8-1l0.9-0.8l0.5-0.4l0.5-0.4l0.5-0.4l0.6-0.3l0.5-0.3l0.6-0.3
			l0.6-0.2l0.7-0.2l1.7-0.4l0.6-0.1l0.7-0.1h1.3l0.6,0.1l1.2,0.1l1.7,0.4l0.5,0.2l0.6,0.2l1.6,0.9l0.5,0.3l0.5,0.4l0.8,0.8l0.4,0.4
			l0.4,0.5l0.7,0.9l0.3,0.6l0.3,0.5l0.7,1.7l0.1,0.5l0.2,0.5l0.2,1.1l0.1,0.6l0.1,0.6v0.6l0.1,0.6v21.2h-5.6V102l-0.1-1.3l-0.1-0.6
			l-0.1-0.6l-0.4-1.1l-0.2-0.5l-0.5-1l-0.4-0.5l-0.3-0.4l-0.4-0.4l-0.5-0.4l-1-0.6l-0.5-0.3l-0.5-0.2l-0.6-0.2l-0.6-0.1l-0.7-0.1
			l-0.7-0.1h-1.4l-0.6,0.1l-1.2,0.2l-1.1,0.4l-1.1,0.5l-0.9,0.7l-0.4,0.4l-0.8,0.9l-0.4,0.5l-0.4,0.5l-0.3,0.5l-0.2,0.6L1490,99
			l-0.2,0.5l-0.4,1.7l-0.1,1.2v19.2h-5.6V75.8z"/>
		<path fill="#002D62" d="M787.5,186.1h-5.6v-4.7l-1.5,1.7l-0.4,0.4l-0.5,0.4l-0.5,0.4l-0.5,0.4l-1.1,0.6l-1.5,0.7l-1.1,0.4
			l-0.6,0.2l-1.2,0.2l-0.6,0.1l-0.7,0.1l-0.7,0.1H770l-0.6-0.1l-0.5-0.1l-1.1-0.1l-1.1-0.2l-1.1-0.4l-0.6-0.2l-0.5-0.2l-0.5-0.3
			l-0.6-0.3l-0.5-0.3l-0.5-0.4l-0.5-0.4l-0.9-0.8l-0.7-0.9l-0.7-1.1l-0.2-0.5l-0.4-1l-0.2-0.6l-0.1-0.6l-0.1-0.6l-0.1-0.6v-1.4
			l0.1-0.6l0.1-0.6l0.1-0.6l0.5-1.6l0.2-0.5l0.3-0.6l0.3-0.5l0.7-1l0.4-0.5l0.9-0.8l1.4-0.9l1.1-0.5l0.6-0.2l1.7-0.5l1.8-0.4
			l0.6-0.1l0.7-0.1h0.6l0.7-0.1h1.9l0.6,0.1h0.7l2.6,0.3l1.7,0.3l0.8,0.2l0.8,0.2l1.8,0.4v-1.8l-0.1-0.7l-0.2-1.2l-0.2-0.6l-0.2-0.5
			l-0.3-0.5l-0.3-0.5l-0.4-0.5l-0.4-0.4l-0.4-0.4l-0.4-0.3l-0.4-0.3l-0.5-0.2l-0.5-0.3l-0.6-0.2l-0.5-0.2l-0.6-0.2l-0.6-0.1
			l-0.7-0.1l-1.3-0.1h-1.4l-0.6,0.1h-0.6l-1.2,0.1l-0.6,0.1l-0.6,0.1l-0.5,0.1l-0.5,0.1l-1.1,0.4l-1.2,0.4l-0.6,0.2l-0.5,0.2
			l-0.6,0.2l-0.5,0.2l-0.2-0.5l-0.2-0.6l-0.4-1.1l-0.2-0.6l-0.2-0.5l-0.2-0.6l-0.2-0.5l1.1-0.5l0.5-0.2l0.5-0.2l1.1-0.4l0.6-0.2
			l0.5-0.2l0.5-0.2l0.6-0.2l1.6-0.4l0.6-0.1l3-0.3h2.1l0.7,0.1h0.7l0.7,0.1l0.7,0.1l0.7,0.1l0.6,0.1l0.6,0.2l0.5,0.1l1.2,0.4
			l0.5,0.2l0.6,0.2l0.9,0.5l0.9,0.7l0.4,0.4l0.7,0.7l0.7,0.8l0.6,0.9l0.5,1l0.3,0.5l0.4,1.1l0.2,0.6l0.1,0.5l0.1,0.6l0.2,2.6V186.1z
			 M771.2,182.1h1.2l1.8-0.2l1.1-0.2l2.3-0.9l0.5-0.3l0.5-0.3l0.5-0.4l1.3-1.2l0.3-0.4l0.6-1l0.2-0.5l0.4-1.1l0.1-0.6l0.1-0.5v-3.3
			l-0.5-0.2l-1.1-0.2l-0.6-0.1l-1.2-0.3l-1.1-0.3l-2.5-0.2l-0.7-0.1h-2.1L771,170l-0.6,0.1l-1.2,0.2l-1.5,0.5l-0.5,0.2l-0.4,0.2
			l-0.4,0.2l-0.6,0.4l-0.4,0.4l-0.7,0.9l-0.2,0.5l-0.2,0.5l-0.2,1.2v0.7l0.1,0.7l0.1,0.6l0.2,0.6l0.2,0.5l0.3,0.5l0.8,0.9l1.4,0.9
			l0.5,0.2l0.5,0.2l1.1,0.3l0.6,0.1l0.6,0.1L771.2,182.1z"/>
		<path fill="#002D62" d="M797.8,153.4h5.6v5.5l0.3-0.5l0.7-1l0.8-1l0.9-0.8l0.5-0.4l0.5-0.4l0.5-0.4l0.6-0.3l0.5-0.3l0.6-0.3
			l0.6-0.2l0.7-0.2l1.7-0.4l0.6-0.1l0.7-0.1h1.3l0.6,0.1l1.2,0.1l1.7,0.4l0.5,0.2l0.6,0.2l1.6,0.9l0.5,0.3l0.5,0.4l0.8,0.8l0.4,0.4
			l0.4,0.5l0.7,0.9l0.3,0.6l0.3,0.5l0.7,1.7l0.1,0.5l0.2,0.5l0.2,1.1l0.1,0.6l0.1,0.6v0.6l0.1,0.6v21.2h-5.6v-19.6l-0.1-1.3
			l-0.1-0.6l-0.1-0.6l-0.4-1.1l-0.2-0.5l-0.5-1l-0.4-0.5l-0.3-0.4l-0.4-0.4l-0.5-0.4l-1-0.6l-0.5-0.3l-0.5-0.2l-0.6-0.2l-0.6-0.1
			l-0.7-0.1l-0.7-0.1h-1.4l-0.6,0.1l-1.2,0.2l-1.1,0.4l-1.1,0.5l-0.9,0.7l-0.4,0.4l-0.8,0.9l-0.4,0.5l-0.4,0.5l-0.3,0.5l-0.2,0.6
			l-0.3,0.5l-0.2,0.5l-0.4,1.7l-0.1,1.2v19.2h-5.6V153.4z"/>
		<path fill="#002D62" d="M863,140.3h5.6v45.9H863v-6.2l-0.3,0.5l-0.7,0.9l-0.4,0.5l-1.2,1.3l-0.4,0.4l-0.4,0.4l-0.5,0.4l-0.4,0.4
			l-1.5,0.9l-0.5,0.3l-0.6,0.2l-0.5,0.2l-0.6,0.2l-1.6,0.4l-0.5,0.1l-0.6,0.1l-0.6,0.1h-1.2l-0.6-0.1l-0.6-0.1l-0.6-0.1l-0.5-0.1
			l-0.6-0.1l-0.5-0.1l-1.2-0.4l-1.6-0.7l-0.6-0.3l-1-0.6L842,184l-0.4-0.4l-0.5-0.4l-0.9-0.9l-0.8-0.9l-1-1.3l-0.6-0.9l-0.3-0.6
			l-0.3-0.5l-0.7-1.7l-0.2-0.5l-0.2-0.5l-0.1-0.6l-0.2-0.6l-0.1-0.6l-0.2-1.2l-0.1-0.6v-0.7l-0.1-0.7v-1.5l0.1-0.6v-0.7l0.1-0.6
			l0.1-0.6l0.1-0.6l0.1-0.6l0.2-0.6l0.1-0.5l0.4-1.2l0.7-1.7l0.9-1.6l0.3-0.5l0.7-0.9l1.2-1.3l0.9-0.9l0.5-0.4l0.4-0.4l1.5-1l2.2-1
			l0.6-0.2l0.5-0.2l0.5-0.1l0.6-0.1l0.5-0.1l1.2-0.1l0.6-0.1h1.2l0.6,0.1l0.6,0.1l0.5,0.1l1.6,0.4l0.6,0.2l0.5,0.2l0.6,0.2l0.5,0.3
			l0.6,0.2l0.9,0.6l0.5,0.4l0.5,0.3l0.9,0.7l1.5,1.7l0.4,0.5l0.4,0.4l0.3,0.4V140.3z M851.4,181.9h1.2l0.6-0.1l0.6-0.1l1.2-0.2
			l1.7-0.7l0.5-0.3l0.6-0.3l0.9-0.7l1-0.9l0.4-0.4l1-1.3l0.3-0.5l0.3-0.5l0.2-0.6l0.3-0.5l0.6-1.7l0.2-1.2l0.1-1.3V169l-0.1-1.3
			l-0.2-1.2l-0.4-1.1l-0.2-0.6l-0.3-0.5l-0.2-0.6l-0.3-0.5l-0.3-0.5l-0.6-0.9l-0.4-0.4l-0.4-0.4l-1-0.9l-0.9-0.7l-0.6-0.3l-0.5-0.3
			l-0.6-0.3l-0.5-0.2l-0.6-0.2l-1.2-0.2l-0.6-0.1l-0.6-0.1h-1.2l-0.7,0.1l-0.6,0.1l-0.6,0.1l-1.2,0.4l-0.5,0.2l-1.1,0.5l-0.6,0.3
			l-0.9,0.7l-0.4,0.4l-1.3,1.4l-0.4,0.5l-0.9,1.7l-0.2,0.6l-0.5,1.7l-0.1,0.6l-0.1,0.6l-0.1,0.7l-0.1,0.6v1.5l0.1,0.6l0.1,0.7
			l0.4,1.8l0.2,0.5l0.2,0.6l0.2,0.6l0.9,1.7l0.4,0.5l0.4,0.5l0.4,0.4l0.4,0.5l0.4,0.4l1,0.7l0.5,0.3l0.5,0.3l0.6,0.2l0.5,0.2
			l0.6,0.2l1.2,0.2l0.6,0.1L851.4,181.9z"/>
		<path fill="#002D62" d="M899.7,186.1v-44h16.8l3.1,0.3l1.2,0.2l0.6,0.1l1.1,0.2l2.2,0.7l0.6,0.3l1.2,0.5l2.2,1.2l0.6,0.4l1.9,1.4
			l1.3,1.3l2,2.3l1,1.5l0.3,0.6l0.3,0.5l0.3,0.6l0.2,0.6l0.3,0.6l0.2,0.5l0.2,0.5l0.4,1.1l0.1,0.6l0.2,0.6l0.2,1.2l0.1,0.6l0.1,0.6
			l0.1,1.2v0.6l0.1,0.6v1.3l-0.1,0.6v0.6l-0.1,1.2l-0.1,0.6l-0.1,0.6l-0.1,0.5l-0.1,0.6l-0.2,0.5l-0.1,0.6l-0.2,0.5l-0.2,0.6
			l-0.2,0.5l-0.2,0.5l-0.3,0.6l-1.1,2.2l-0.7,1l-0.3,0.5l-1.1,1.4l-1.3,1.3l-0.4,0.4l-0.4,0.4l-0.4,0.4l-0.9,0.7l-0.5,0.4l-2,1.2
			l-0.5,0.3l-1,0.5l-0.6,0.2l-0.5,0.3l-0.5,0.2l-0.6,0.2l-0.5,0.2l-0.6,0.1l-0.6,0.2l-0.6,0.1l-0.6,0.1l-1.2,0.2l-2.4,0.2l-0.7,0.1
			H899.7z M905.5,147.4v33.5H916l0.6-0.1h0.7l0.6-0.1l0.6-0.1l0.6-0.1l1.2-0.3l2.2-0.7l0.6-0.2l1.1-0.6l0.5-0.2l0.5-0.3l0.5-0.4
			l0.5-0.3l1.4-1.1l0.9-0.8l0.8-1l0.4-0.5l0.4-0.5l1.2-2.3l0.2-0.6l0.2-0.6l0.3-0.5l0.1-0.6l0.2-0.6l0.1-0.5l0.1-0.6l0.1-0.6
			l0.1-0.6v-0.7l0.1-0.6v-1.4l-0.1-0.7v-0.6l-0.1-0.6l-0.1-0.6l-0.2-1.2l-0.2-0.5l-0.1-0.6l-0.3-0.5l-0.2-0.6l-0.7-1.6l-0.3-0.5
			l-0.3-0.6l-0.3-0.5l-0.4-0.4l-0.3-0.5l-1.2-1.3l-0.4-0.4l-1.4-1.1l-0.5-0.3l-0.5-0.4l-1-0.6l-1.1-0.5l-0.6-0.3l-1.6-0.5l-0.6-0.1
			l-0.5-0.2l-0.6-0.1l-0.6-0.1l-0.6-0.1l-0.6-0.1h-0.7l-0.6-0.1H905.5z"/>
		<path fill="#002D62" d="M948.6,141.5h6.3v5.4h-6.3V141.5z M949,153.4h5.6v32.7H949V153.4z"/>
		<path fill="#002D62" d="M977.5,186.7h-1.2l-0.6-0.1h-0.6l-0.6-0.1l-0.6-0.1l-0.6-0.1l-1.2-0.2l-0.6-0.2l-0.6-0.1l-0.6-0.2
			l-0.6-0.3l-0.6-0.2l-0.6-0.2l-0.5-0.2l-0.6-0.2l-1.6-0.9l-0.5-0.4l-2-1.4l0.7-1l0.3-0.5l0.7-0.9l0.6-1l0.4-0.5l0.6,0.4l0.5,0.4
			l0.6,0.3l0.5,0.4l1.1,0.6l0.5,0.3l1.1,0.5l0.6,0.2l0.6,0.2l1.9,0.6l0.6,0.1l1.9,0.2h1.3l0.6-0.1l1.2-0.2l0.6-0.2l0.9-0.5l0.5-0.3
			l0.4-0.4l0.7-0.9l0.2-0.5l0.2-0.5l0.1-0.5l0.1-0.6v-0.1l-0.1-0.7l-0.2-0.7l-0.3-0.6l-1.2-1.1l-0.6-0.4l-0.4-0.2l-1.5-0.6l-0.6-0.3
			l-3-0.9l-0.6-0.2l-2.7-0.8l-1.2-0.4l-1.7-0.9l-2-1.4l-0.8-0.9l-0.7-1l-0.2-0.4l-0.2-0.5l-0.2-0.6l-0.2-1.1l-0.1-0.6v-1.4l0.1-0.6
			l0.2-1.2l0.1-0.5l0.2-0.6l0.2-0.5l0.3-0.5l0.8-1.1l0.4-0.5l0.5-0.5l0.9-0.8l1-0.6l1.1-0.6l0.5-0.2l0.6-0.2l0.5-0.2l1.1-0.2
			l1.2-0.1l0.5-0.1l0.6-0.1h1.2l0.6,0.1h0.6l0.6,0.1l0.7,0.1l1.2,0.2l0.6,0.2l0.7,0.1l0.6,0.2l1.2,0.5l0.6,0.2l0.6,0.3l0.6,0.2
			l0.5,0.2l1.1,0.6l0.5,0.4l0.5,0.3l-0.3,0.6l-0.3,0.5l-1.6,2.6l-0.3,0.6l-1-0.6l-0.5-0.3l-0.5-0.2l-0.5-0.3l-0.6-0.3l-0.5-0.2
			l-0.5-0.2l-2.4-0.7l-0.6-0.1l-1.2-0.1l-0.5-0.1h-1.3l-0.7,0.1l-0.6,0.1l-1.2,0.4l-0.6,0.3l-0.4,0.3l-0.5,0.4l-0.4,0.5l-0.3,0.5
			l-0.2,0.6l-0.1,0.5l-0.1,0.6v0.1l0.1,0.6l0.2,0.7l0.3,0.5l0.3,0.4l0.8,0.7l0.9,0.6l0.4,0.2l0.6,0.2l0.5,0.2l1.8,0.6l0.6,0.2
			l1.8,0.6l0.5,0.2l0.5,0.2l0.5,0.2l0.5,0.2l0.6,0.2l0.5,0.2l0.6,0.2l1.7,0.9l0.5,0.4l0.6,0.3l0.4,0.4l0.5,0.4l0.4,0.4l1.1,1.4
			l0.5,1.1l0.2,0.6l0.1,0.6l0.1,0.7v1.5l-0.1,0.7l-0.2,1.3l-0.4,1.1l-0.2,0.5l-0.9,1.5l-0.4,0.4l-0.8,0.8l-0.4,0.4l-0.5,0.4
			l-1.6,0.9l-0.5,0.3l-1.8,0.5l-0.5,0.1l-0.6,0.1l-0.5,0.1l-0.6,0.1h-0.6L977.5,186.7z"/>
		<path fill="#002D62" d="M1008.7,186.7h-1.2l-0.6-0.1h-0.6l-0.6-0.1l-0.6-0.1l-0.6-0.1l-1.2-0.2l-0.6-0.2l-0.6-0.1l-0.6-0.2
			l-0.6-0.3l-0.6-0.2l-0.6-0.2l-0.5-0.2l-0.6-0.2l-1.6-0.9l-0.5-0.4l-2-1.4l0.7-1l0.3-0.5l0.7-0.9l0.6-1l0.4-0.5l0.6,0.4l0.5,0.4
			l0.6,0.3l0.5,0.4l1.1,0.6l0.5,0.3l1.1,0.5l0.6,0.2l0.6,0.2l1.9,0.6l0.6,0.1l1.9,0.2h1.3l0.6-0.1l1.2-0.2l0.6-0.2l0.9-0.5l0.5-0.3
			l0.4-0.4l0.7-0.9l0.2-0.5l0.2-0.5l0.1-0.5l0.1-0.6v-0.1l-0.1-0.7l-0.2-0.7l-0.3-0.6l-1.2-1.1l-0.6-0.4l-0.4-0.2l-1.5-0.6l-0.6-0.3
			l-3-0.9l-0.6-0.2l-2.7-0.8l-1.2-0.4l-1.7-0.9l-2-1.4l-0.8-0.9l-0.7-1l-0.2-0.4l-0.2-0.5l-0.2-0.6l-0.2-1.1l-0.1-0.6v-1.4l0.1-0.6
			l0.2-1.2l0.1-0.5l0.2-0.6l0.2-0.5l0.3-0.5l0.8-1.1l0.4-0.5l0.5-0.5l0.9-0.8l1-0.6l1.1-0.6l0.5-0.2l0.6-0.2l0.5-0.2l1.1-0.2
			l1.2-0.1l0.5-0.1l0.6-0.1h1.2l0.6,0.1h0.6l0.6,0.1l0.7,0.1l1.2,0.2l0.6,0.2l0.7,0.1l0.6,0.2l1.2,0.5l0.6,0.2l0.6,0.3l0.6,0.2
			l0.5,0.2l1.1,0.6l0.5,0.4l0.5,0.3l-0.3,0.6l-0.3,0.5l-1.6,2.6l-0.3,0.6l-1-0.6l-0.5-0.3l-0.5-0.2l-0.5-0.3l-0.6-0.3l-0.5-0.2
			l-0.5-0.2l-2.4-0.7l-0.6-0.1l-1.2-0.1l-0.5-0.1h-1.3l-0.7,0.1l-0.6,0.1l-1.2,0.4l-0.6,0.3l-0.4,0.3l-0.5,0.4l-0.4,0.5l-0.3,0.5
			l-0.2,0.6l-0.1,0.5l-0.1,0.6v0.1l0.1,0.6l0.2,0.7l0.3,0.5l0.3,0.4l0.8,0.7l0.9,0.6l0.4,0.2l0.6,0.2l0.5,0.2l1.8,0.6l0.6,0.2
			l1.8,0.6l0.5,0.2l0.5,0.2l0.5,0.2l0.5,0.2l0.6,0.2l0.5,0.2l0.6,0.2l1.7,0.9l0.5,0.4l0.6,0.3l0.4,0.4l0.5,0.4l0.4,0.4l1.1,1.4
			l0.5,1.1l0.2,0.6l0.1,0.6l0.1,0.7v1.5l-0.1,0.7l-0.2,1.3l-0.4,1.1l-0.2,0.5l-0.9,1.5l-0.4,0.4l-0.8,0.8l-0.4,0.4l-0.5,0.4
			l-1.6,0.9l-0.5,0.3l-1.8,0.5l-0.5,0.1l-0.6,0.1l-0.5,0.1l-0.6,0.1h-0.6L1008.7,186.7z"/>
		<path fill="#002D62" d="M1044.3,186.9h-1.3l-0.6-0.1l-0.6-0.1l-1.2-0.1l-0.5-0.1l-0.6-0.1l-1.7-0.5l-1.2-0.5l-0.6-0.2l-1.1-0.6
			l-1.6-1.1l-0.5-0.4l-0.9-0.9l-0.4-0.4l-0.7-0.9l-0.4-0.4l-0.3-0.5l-0.4-0.5l-0.6-1l-0.9-2.2l-0.4-1.1l-0.1-0.5l-0.2-0.6l-0.1-0.6
			l-0.1-0.5l-0.1-0.6l-0.1-0.6v-0.6l-0.1-0.6v-1.3l0.1-0.7v-0.6l0.1-0.6l0.1-0.6l0.4-1.8l0.2-0.6l0.4-1.2l0.2-0.6l0.5-1.1l0.3-0.5
			l0.2-0.5l0.3-0.5l0.4-0.5l0.3-0.5l0.7-0.8l0.4-0.5l0.9-0.8l0.4-0.4l1.5-1.2l1-0.6l0.6-0.2l1.1-0.6l1.6-0.5l1.7-0.4l1.2-0.1
			l0.6-0.1h1.3l0.7,0.1l1.3,0.1l1.8,0.4l1.2,0.4l1.1,0.5l0.5,0.3l0.6,0.3l2,1.4l0.4,0.4l0.5,0.4l1.2,1.4l0.4,0.5l0.6,1l0.3,0.6
			l0.8,1.7l0.4,1.2l0.4,1.2l0.4,1.8l0.1,0.6l0.1,0.6l0.1,0.6v0.7l0.1,0.6v1.5l-0.1,0.9h-25.3l0.1,0.6l0.1,0.6l0.1,0.5l0.1,0.5
			l0.4,1.1l0.2,0.5l1.2,2l1.1,1.3l0.4,0.4l0.5,0.4l1.1,0.7l1.2,0.6l1.1,0.4l0.6,0.1l0.5,0.1l0.6,0.1l1.1,0.1h1.3l1.8-0.2l0.5-0.1
			l0.6-0.1l0.5-0.2l0.5-0.1l1.5-0.7l0.5-0.3l0.6-0.3l0.9-0.7l1.4-1.2l0.4-0.4l0.8,0.8l0.9,0.7l0.4,0.4l0.4,0.4l0.4,0.4l0.4,0.4
			l-1.3,1.3l-0.4,0.4l-0.5,0.4l-1.9,1.5l-0.5,0.3l-0.5,0.3l-0.6,0.2l-0.5,0.3l-0.6,0.2l-0.5,0.2l-1.1,0.4l-1.8,0.4l-0.7,0.1
			l-0.7,0.1h-0.6L1044.3,186.9z M1043.5,157.5h-1.3l-0.7,0.1l-0.6,0.1l-0.6,0.2l-0.6,0.2l-0.6,0.2l-1.2,0.6l-0.5,0.3l-0.5,0.4
			l-0.5,0.4l-1.3,1.4l-0.7,1.1l-0.6,1.2l-0.2,0.6l-0.2,0.5l-0.2,0.6l-0.2,0.5l-0.1,0.6l-0.1,0.7l-0.1,0.6h19.8l-0.1-1.2l-0.2-1.1
			l-0.2-0.6l-0.1-0.5l-0.2-0.6l-0.3-0.6l-0.2-0.6l-0.3-0.5l-1.1-1.6l-0.5-0.4l-0.4-0.4l-0.5-0.4l-1-0.7l-0.6-0.3l-1.6-0.6l-0.6-0.1
			L1043.5,157.5z"/>
		<path fill="#002D62" d="M1067,153.4h5.6v5.3l0.3-0.5l0.4-0.4l0.4-0.5l0.4-0.4l0.4-0.5l1.3-1.2l0.4-0.4l1-0.7l0.6-0.3l0.5-0.2
			l1.3-0.5l1.1-0.2l0.6-0.1l0.6-0.1l0.6-0.1h1.3l0.7,0.1l0.6,0.1l1.3,0.2l0.5,0.2l0.6,0.2l0.5,0.2l0.5,0.2l0.5,0.3l0.5,0.3l0.5,0.4
			l0.5,0.4l1.3,1.3l0.7,0.9l0.3,0.6l0.3,0.5l0.3,0.5l0.4-0.5l0.4-0.5l0.4-0.5l1.3-1.4l0.5-0.4l0.5-0.4l1.6-1l1-0.5l1.6-0.5l0.6-0.1
			l0.5-0.1l0.7-0.1l0.6-0.1l0.7-0.1h1.3l0.7,0.1l0.6,0.1l1.9,0.4l0.6,0.2l0.5,0.2l0.6,0.2l1,0.6l0.5,0.3l0.4,0.4l0.5,0.4l0.4,0.4
			l0.4,0.4l0.3,0.4l0.4,0.4l0.3,0.4l0.3,0.5l0.3,0.5l0.5,1l0.2,0.5l0.2,0.6l0.2,0.5l0.1,0.6l0.1,0.6l0.1,0.7l0.2,2v21.2h-5.6v-19.6
			l-0.1-1.4l-0.2-1.3l-0.4-1.2l-0.2-0.5l-0.3-0.5l-0.9-1.4l-0.4-0.4l-0.4-0.4l-0.9-0.6l-1-0.5l-0.6-0.2l-0.5-0.1l-0.6-0.1l-0.7-0.1
			h-1.3l-0.5,0.1l-1.6,0.4l-0.5,0.2l-1.2,0.6l-1,0.8l-0.5,0.5l-0.7,0.8l-0.3,0.5l-0.3,0.5l-0.2,0.5l-0.2,0.6l-0.2,0.5l-0.2,0.6
			l-0.1,0.6l-0.2,1.8v19.4h-5.6v-19.8l-0.1-1.3l-0.2-1.2l-0.6-1.7l-0.2-0.5l-0.3-0.5l-0.6-0.8l-0.4-0.4l-0.9-0.7l-0.5-0.3l-1-0.5
			l-0.5-0.2l-1.2-0.2l-0.6-0.1h-1.3l-0.5,0.1l-0.6,0.1l-0.5,0.1l-0.6,0.2l-0.5,0.2l-1,0.6l-0.9,0.6l-1.2,1.2l-0.4,0.5l-0.6,1
			l-0.4,1.1l-0.4,1.1l-0.1,0.5l-0.1,1.1l-0.1,0.6v19.2h-5.6V153.4z"/>
		<path fill="#002D62" d="M1127.3,141.5h6.3v5.4h-6.3V141.5z M1127.7,153.4h5.6v32.7h-5.6V153.4z"/>
		<path fill="#002D62" d="M1144.7,153.4h5.6v5.5l0.3-0.5l0.7-1l0.8-1l0.9-0.8l0.5-0.4l0.5-0.4l0.5-0.4l0.6-0.3l0.5-0.3l0.6-0.3
			l0.6-0.2l0.7-0.2l1.7-0.4l0.6-0.1l0.7-0.1h1.3l0.6,0.1l1.2,0.1l1.7,0.4l0.5,0.2l0.6,0.2l1.6,0.9l0.5,0.3l0.5,0.4l0.8,0.8l0.4,0.4
			l0.4,0.5l0.7,0.9l0.3,0.6l0.3,0.5l0.7,1.7l0.1,0.5l0.2,0.5l0.2,1.1l0.1,0.6l0.1,0.6v0.6l0.1,0.6v21.2h-5.6v-19.6l-0.1-1.3
			l-0.1-0.6l-0.1-0.6l-0.4-1.1l-0.2-0.5l-0.5-1l-0.4-0.5l-0.3-0.4l-0.4-0.4l-0.5-0.4l-1-0.6l-0.5-0.3l-0.5-0.2l-0.6-0.2l-0.6-0.1
			l-0.7-0.1l-0.7-0.1h-1.4l-0.6,0.1l-1.2,0.2l-1.1,0.4l-1.1,0.5l-0.9,0.7l-0.4,0.4l-0.8,0.9l-0.4,0.5l-0.4,0.5l-0.3,0.5l-0.2,0.6
			l-0.3,0.5l-0.2,0.5l-0.4,1.7l-0.1,1.2v19.2h-5.6V153.4z"/>
		<path fill="#002D62" d="M1210.7,186.1h-5.6v-4.7l-1.5,1.7l-0.4,0.4l-0.5,0.4l-0.5,0.4l-0.5,0.4l-1.1,0.6l-1.5,0.7l-1.1,0.4
			l-0.6,0.2l-1.2,0.2l-0.6,0.1l-0.7,0.1l-0.7,0.1h-1.2l-0.6-0.1l-0.5-0.1l-1.1-0.1l-1.1-0.2l-1.2-0.4l-0.6-0.2l-0.5-0.2l-0.5-0.3
			l-0.6-0.3l-0.5-0.3l-0.5-0.4l-0.5-0.4l-0.9-0.8l-0.7-0.9l-0.7-1.1l-0.2-0.5l-0.4-1l-0.2-0.6l-0.1-0.6l-0.1-0.6l-0.1-0.6v-1.4
			l0.1-0.6l0.1-0.6l0.1-0.6l0.5-1.6l0.2-0.5l0.3-0.6l0.3-0.5l0.7-1l0.4-0.5l0.9-0.8l1.4-0.9l1-0.5l0.6-0.2l1.7-0.5l1.8-0.4l0.6-0.1
			l0.7-0.1h0.6l0.7-0.1h1.9l0.6,0.1h0.7l2.6,0.3l1.7,0.3l0.8,0.2l0.8,0.2l1.8,0.4v-1.8l-0.1-0.7l-0.2-1.2l-0.2-0.6l-0.2-0.5
			l-0.3-0.5l-0.3-0.5l-0.4-0.5l-0.4-0.4l-0.4-0.4l-0.4-0.3l-0.4-0.3l-0.5-0.2l-0.5-0.3l-0.6-0.2l-0.5-0.2l-0.6-0.2l-0.6-0.1
			l-0.7-0.1l-1.3-0.1h-1.4l-0.6,0.1h-0.6l-1.2,0.1l-0.6,0.1l-0.6,0.1l-0.5,0.1l-0.5,0.1l-1.1,0.4l-1.2,0.4l-0.6,0.2l-0.5,0.2
			l-0.6,0.2l-0.5,0.2l-0.2-0.5l-0.2-0.6l-0.4-1.1l-0.2-0.6l-0.2-0.5l-0.2-0.6l-0.2-0.5l1.1-0.5l0.5-0.2l0.5-0.2l1.2-0.4l0.6-0.2
			l0.5-0.2l0.5-0.2l0.6-0.2l1.6-0.4l0.6-0.1l3-0.3h2.1l0.7,0.1h0.7l0.7,0.1l0.7,0.1l0.7,0.1l0.6,0.1l0.6,0.2l0.5,0.1l1.2,0.4
			l0.5,0.2l0.6,0.2l0.9,0.5l0.9,0.7l0.4,0.4l0.7,0.7l0.7,0.8l0.6,0.9l0.5,1l0.3,0.5l0.4,1.1l0.2,0.6l0.1,0.5l0.1,0.6l0.2,2.6V186.1z
			 M1194.3,182.1h1.2l1.8-0.2l1.1-0.2l2.3-0.9l0.5-0.3l0.5-0.3l0.5-0.4l1.3-1.2l0.3-0.4l0.6-1l0.2-0.5l0.4-1.1l0.1-0.6l0.1-0.5v-3.3
			l-0.5-0.2l-1.1-0.2l-0.6-0.1l-1.2-0.3l-1.1-0.3l-2.5-0.2l-0.7-0.1h-2.1l-1.3,0.1l-0.6,0.1l-1.2,0.2l-1.5,0.5l-0.5,0.2l-0.4,0.2
			l-0.4,0.2l-0.6,0.4l-0.4,0.4l-0.7,0.9l-0.2,0.5l-0.2,0.5l-0.2,1.2v0.7l0.1,0.7l0.1,0.6l0.2,0.6l0.2,0.5l0.3,0.5l0.8,0.9l1.4,0.9
			l0.5,0.2l0.5,0.2l1.1,0.3l0.6,0.1l0.6,0.1L1194.3,182.1z"/>
		<path fill="#002D62" d="M1222.4,158.4h-4.4v-5h4.4v-9.6h5.6v9.6h9.9v5h-9.9v18.9l0.1,0.7l0.1,0.6l0.5,1l0.3,0.4l0.4,0.4l0.4,0.3
			l0.4,0.2l0.5,0.2l0.6,0.2l0.6,0.1l0.6,0.1h1.3l0.6-0.1l1.8-0.4l0.5-0.2l0.6-0.2l0.6-0.3v4.7l-0.6,0.3l-0.5,0.2l-1.1,0.3l-0.6,0.2
			l-0.5,0.1l-0.5,0.1l-0.6,0.1h-0.5l-0.6,0.1h-1.3l-1.3-0.1l-1.8-0.4l-0.5-0.2l-0.6-0.2l-0.5-0.2l-1-0.6l-0.9-0.7l-0.4-0.4l-0.4-0.5
			l-0.3-0.5l-0.3-0.5l-0.2-0.6l-0.2-0.5l-0.4-1.7l-0.1-1.3V158.4z"/>
		<path fill="#002D62" d="M1246.8,141.5h6.3v5.4h-6.3V141.5z M1247.2,153.4h5.6v32.7h-5.6V153.4z"/>
		<path fill="#002D62" d="M1280,186.9h-1.2l-0.6-0.1h-0.6l-0.6-0.1l-0.6-0.1l-0.5-0.1l-0.6-0.1l-0.5-0.2l-0.6-0.1l-1.1-0.4l-0.5-0.2
			l-0.6-0.3l-0.5-0.3l-0.5-0.2l-1-0.6l-1-0.7l-0.4-0.4l-0.5-0.4l-1.3-1.3l-0.7-0.8l-0.7-1l-0.6-1l-0.3-0.5l-0.3-0.6l-0.7-1.6
			l-0.4-1.2l-0.1-0.6l-0.2-0.6l-0.1-0.5l-0.2-2.5v-1.3l0.2-2.5l0.1-0.6l0.2-0.5l0.1-0.6l0.2-0.6l1.2-2.8l0.3-0.5l0.3-0.5l1.8-2.4
			l1.3-1.3l0.5-0.4l0.4-0.4l1.5-1l1.1-0.6l0.6-0.2l0.5-0.3l0.5-0.2l1.7-0.5l0.5-0.1l0.6-0.1l0.5-0.1l0.6-0.1l0.6-0.1h0.6h0.6
			l1.2-0.1l0.6,0.2l0.6-0.1l0.6,0.1l1.7,0.4l0.5,0.1l1.6,0.5l0.6,0.2l0.5,0.3l0.6,0.2l1.1,0.6l0.9,0.7l0.5,0.3l0.5,0.4l0.4,0.4
			l0.5,0.4l0.4,0.4l0.4,0.4l0.4,0.4l0.7,0.9l0.7,1l0.3,0.5l0.3,0.5l0.5,1.1l0.3,0.6l0.6,1.7l0.1,0.6l0.2,0.6l0.1,0.6l0.2,2.5v1.4
			l-0.2,2.5l-0.1,0.6l-0.2,0.5l-0.1,0.6l-0.2,0.6l-0.2,0.6l-0.2,0.5l-0.8,1.7l-0.3,0.5l-0.3,0.5l-0.4,0.5l-0.4,0.5l-0.3,0.5
			l-1.6,1.7l-0.4,0.4l-2.4,1.8l-1.1,0.6l-1.1,0.5l-0.6,0.3l-1.6,0.5l-2.3,0.5l-0.6,0.1h-0.6L1280,186.9z M1278.9,181.8h1.2l0.6-0.1
			l0.6-0.1l1.2-0.2l1.1-0.4l1.1-0.5l1.6-1l1.4-1.3l0.4-0.5l0.4-0.5l0.3-0.5l0.4-0.6l0.3-0.5l0.3-0.6l0.3-0.6l0.2-0.5l0.1-0.6
			l0.2-0.6l0.1-0.5l0.2-1.8v-1.3l-0.1-1.2l-0.1-0.6l-0.1-0.5l-0.1-0.6l-0.2-0.5l-0.2-0.6l-0.5-1l-1.2-1.9l-0.7-0.9l-0.9-0.9
			l-0.5-0.4l-1.1-0.7l-0.6-0.3l-0.6-0.3l-0.5-0.2l-1.1-0.4l-1.2-0.2l-0.6-0.1l-0.6-0.1h-1.2l-0.7,0.1l-1.7,0.3l-1.1,0.4l-1.1,0.5
			l-1.6,1l-0.5,0.4l-0.9,0.9l-0.8,1l-1,1.6l-0.5,1.2l-0.2,0.6l-0.1,0.5l-0.3,1.1l-0.2,1.7v1.3l0.1,1.2l0.3,1.1l0.1,0.6l0.2,0.5
			l0.2,0.6l0.2,0.5l0.2,0.5l1.2,1.9l1.2,1.3l0.5,0.5l0.5,0.4l1.6,1l1.1,0.5l1.1,0.4l0.6,0.1l0.5,0.1l0.6,0.1L1278.9,181.8z"/>
		<path fill="#002D62" d="M1305.5,153.4h5.6v5.5l0.3-0.5l0.7-1l0.8-1l0.9-0.8l0.5-0.4l0.5-0.4l0.5-0.4l0.6-0.3l0.5-0.3l0.6-0.3
			l0.6-0.2l0.7-0.2l1.7-0.4l0.6-0.1l0.7-0.1h1.3l0.6,0.1l1.2,0.1l1.7,0.4l0.5,0.2l0.6,0.2l1.6,0.9l0.5,0.3l0.5,0.4l0.8,0.8l0.4,0.4
			l0.4,0.5l0.7,0.9l0.3,0.6l0.3,0.5l0.7,1.7l0.1,0.5l0.2,0.5l0.2,1.1l0.1,0.6l0.1,0.6v0.6l0.1,0.6v21.2h-5.6v-19.6l-0.1-1.3
			l-0.1-0.6l-0.1-0.6l-0.4-1.1l-0.2-0.5l-0.5-1l-0.4-0.5l-0.3-0.4l-0.4-0.4l-0.5-0.4l-1-0.6l-0.5-0.3l-0.5-0.2l-0.6-0.2l-0.6-0.1
			l-0.7-0.1l-0.7-0.1h-1.4l-0.6,0.1l-1.2,0.2l-1.1,0.4l-1.1,0.5l-0.9,0.7l-0.4,0.4l-0.8,0.9l-0.4,0.5l-0.4,0.5l-0.3,0.5l-0.2,0.6
			l-0.3,0.5l-0.2,0.5l-0.4,1.7l-0.1,1.2v19.2h-5.6V153.4z"/>
		<path fill="#002D62" d="M1386.2,186.9h-1.9l-0.7-0.1h-0.6l-0.6-0.1l-0.6-0.1l-0.6-0.1l-0.6-0.1l-0.6-0.1l-0.5-0.1l-0.6-0.2
			l-0.5-0.2l-0.6-0.2l-1.1-0.4l-2.2-1l-1.1-0.6l-0.5-0.4l-2-1.4l-0.4-0.4l-0.9-0.8l-1.2-1.3l-1.7-2.5l-0.6-1l-0.3-0.6l-0.3-0.5
			l-1.1-2.8l-0.5-1.7l-0.4-2.3l-0.2-1.8l-0.1-0.6v-2.6l0.1-0.6l0.2-1.8l0.4-2.4l0.5-1.7l1.1-2.8l1.2-2.2l1.4-1.9l0.8-1l1.3-1.3
			l0.5-0.4l0.5-0.4l0.4-0.4l1.5-1l0.6-0.4l1.1-0.6l0.5-0.3l0.6-0.3l0.6-0.2l0.5-0.2l0.6-0.2l0.6-0.3l1.2-0.4l3-0.6l1.3-0.1h0.6
			l0.6-0.1h2l0.6,0.1l1.3,0.1l0.5,0.1l0.6,0.1l0.5,0.1l0.6,0.1l0.6,0.2l0.5,0.1l2.8,0.9l0.5,0.2l0.6,0.2l2.2,1.2l0.6,0.4l1.4,1.1
			l0.5,0.4l0.5,0.4l0.9,0.9l0.5,0.4l-1.7,1.9l-2.1,2.4l-1-0.8l-0.4-0.4l-2-1.4l-1-0.6l-0.5-0.3l-0.5-0.2l-0.5-0.3l-1-0.5l-0.5-0.2
			l-1.1-0.4l-1.1-0.2l-0.6-0.1l-0.6-0.1l-0.6-0.1h-0.7l-0.6-0.1h-1.3l-1.9,0.2l-1.2,0.2l-0.5,0.1l-0.6,0.2l-1.1,0.4l-1.1,0.5
			l-0.5,0.3l-0.5,0.2l-0.5,0.3l-0.5,0.4l-0.5,0.3l-1.7,1.5l-1.2,1.3l-1.3,1.9l-0.3,0.5l-0.2,0.6l-0.3,0.5l-0.3,0.6l-0.2,0.5
			l-0.2,0.6l-0.4,1.1l-0.2,0.6l-0.1,0.6l-0.1,0.6l-0.1,0.6l-0.1,0.7l-0.1,0.6l-0.1,0.7v1.4l0.1,0.6v0.6l0.1,0.5l0.1,0.6l0.1,0.5
			l0.1,0.6l0.1,0.6l0.2,0.6l0.1,0.5l0.2,0.6l0.2,0.5l0.2,0.6l0.3,0.6l0.3,0.5l0.2,0.6l0.6,1l0.7,1l0.3,0.4l1.2,1.3l1.3,1.1l0.9,0.7
			l1,0.6l2.7,1.3l0.5,0.2l0.6,0.2l1.7,0.4l1.2,0.1l0.7,0.1h1.2l0.6-0.1h0.6l0.6-0.1l0.6-0.1l0.5-0.1l0.5-0.1l0.6-0.2l0.6-0.1
			l1.2-0.4l1.1-0.5l0.6-0.3l0.5-0.2l0.5-0.4l1.5-1l0.4-0.4l1.3-1l0.4-0.4l0.4-0.4l0.4-0.4l1.3,1.3l0.4,0.4l0.4,0.4l1.7,1.7l-0.4,0.4
			l-0.5,0.4l-0.8,0.9l-0.5,0.4l-0.4,0.4l-1.9,1.5l-2,1.2l-0.5,0.2l-0.6,0.2l-0.5,0.3l-0.6,0.2l-0.5,0.2l-1.2,0.4l-1.2,0.4l-1.2,0.2
			l-0.5,0.1l-1.8,0.2l-0.6,0.1L1386.2,186.9z"/>
		<path fill="#002D62" d="M1425.8,186.9h-1.3l-0.6-0.1l-0.6-0.1l-1.2-0.1l-0.5-0.1l-0.6-0.1l-1.7-0.5l-1.2-0.5l-0.6-0.2l-1.1-0.6
			l-1.6-1.1l-0.5-0.4l-0.9-0.9l-0.4-0.4l-0.7-0.9l-0.4-0.4l-0.3-0.5l-0.4-0.5l-0.6-1l-0.9-2.2l-0.4-1.1l-0.1-0.5l-0.2-0.6l-0.1-0.6
			l-0.1-0.5l-0.1-0.6l-0.1-0.6v-0.6l-0.1-0.6v-1.3l0.1-0.7v-0.6l0.1-0.6l0.1-0.6l0.4-1.8l0.2-0.6l0.4-1.2l0.2-0.6l0.5-1.1l0.3-0.5
			l0.2-0.5l0.3-0.5l0.4-0.5l0.3-0.5l0.7-0.8l0.4-0.5l0.9-0.8l0.4-0.4l1.5-1.2l1-0.6l0.6-0.2l1.1-0.6l1.6-0.5l1.7-0.4l1.2-0.1
			l0.6-0.1h1.3l0.7,0.1l1.3,0.1l1.8,0.4l1.2,0.4l1.1,0.5l0.5,0.3l0.6,0.3l2,1.4l0.4,0.4l0.5,0.4l1.2,1.4l0.4,0.5l0.6,1l0.3,0.6
			l0.8,1.7l0.4,1.2l0.4,1.2l0.4,1.8l0.1,0.6l0.1,0.6l0.1,0.6v0.7l0.1,0.6v1.5l-0.1,0.9h-25.3l0.1,0.6l0.1,0.6l0.1,0.5l0.1,0.5
			l0.4,1.1l0.2,0.5l1.2,2l1.1,1.3l0.4,0.4l0.5,0.4l1.1,0.7l1.2,0.6l1.1,0.4l0.6,0.1l0.5,0.1l0.6,0.1l1.1,0.1h1.3l1.8-0.2l0.5-0.1
			l0.6-0.1l0.5-0.2l0.5-0.1l1.5-0.7l0.5-0.3l0.6-0.3l0.9-0.7l1.4-1.2l0.4-0.4l0.8,0.8l0.9,0.7l0.4,0.4l0.4,0.4l0.4,0.4l0.4,0.4
			l-1.3,1.3l-0.4,0.4l-0.5,0.4l-1.9,1.5l-0.5,0.3l-0.5,0.3l-0.6,0.2l-0.5,0.3l-0.6,0.2l-0.5,0.2l-1.1,0.4l-1.8,0.4l-0.7,0.1
			l-0.7,0.1h-0.6L1425.8,186.9z M1425,157.5h-1.3l-0.7,0.1l-0.6,0.1l-0.6,0.2l-0.6,0.2l-0.6,0.2l-1.2,0.6l-0.5,0.3l-0.5,0.4
			l-0.5,0.4l-1.3,1.4l-0.7,1.1l-0.6,1.2l-0.2,0.6l-0.2,0.5l-0.2,0.6l-0.2,0.5l-0.1,0.6l-0.1,0.7l-0.1,0.6h19.8l-0.1-1.2l-0.2-1.1
			l-0.2-0.6l-0.1-0.5l-0.2-0.6l-0.3-0.6l-0.2-0.6l-0.3-0.5l-1.1-1.6l-0.5-0.4l-0.4-0.4l-0.5-0.4l-1-0.7l-0.6-0.3l-1.6-0.6l-0.6-0.1
			L1425,157.5z"/>
		<path fill="#002D62" d="M1448.5,153.4h5.6v5.5l0.3-0.5l0.7-1l0.8-1l0.9-0.8l0.5-0.4l0.5-0.4l0.5-0.4l0.6-0.3l0.5-0.3l0.6-0.3
			l0.6-0.2l0.7-0.2l1.7-0.4l0.6-0.1l0.7-0.1h1.3l0.6,0.1l1.2,0.1l1.7,0.4l0.5,0.2l0.6,0.2l1.6,0.9l0.5,0.3l0.5,0.4l0.8,0.8l0.4,0.4
			l0.4,0.5l0.7,0.9l0.3,0.6l0.3,0.5l0.7,1.7l0.1,0.5l0.2,0.5l0.2,1.1l0.1,0.6l0.1,0.6v0.6l0.1,0.6v21.2h-5.6v-19.6l-0.1-1.3
			l-0.1-0.6l-0.1-0.6l-0.4-1.1l-0.2-0.5l-0.5-1l-0.4-0.5l-0.3-0.4l-0.4-0.4l-0.5-0.4l-1-0.6l-0.5-0.3l-0.5-0.2l-0.6-0.2l-0.6-0.1
			l-0.7-0.1l-0.7-0.1h-1.4l-0.6,0.1l-1.2,0.2l-1.1,0.4l-1.1,0.5l-0.9,0.7l-0.4,0.4l-0.8,0.9l-0.4,0.5l-0.4,0.5l-0.3,0.5l-0.2,0.6
			l-0.3,0.5l-0.2,0.5l-0.4,1.7l-0.1,1.2v19.2h-5.6V153.4z"/>
		<path fill="#002D62" d="M1489.5,158.4h-4.4v-5h4.4v-9.6h5.6v9.6h9.9v5h-9.9v18.9l0.1,0.7l0.1,0.6l0.5,1l0.3,0.4l0.4,0.4l0.4,0.3
			l0.4,0.2l0.5,0.2l0.6,0.2l0.6,0.1l0.6,0.1h1.3l0.6-0.1l1.8-0.4l0.5-0.2l0.6-0.2l0.6-0.3v4.7l-0.6,0.3l-0.5,0.2l-1.1,0.3l-0.6,0.2
			l-0.5,0.1l-0.5,0.1l-0.6,0.1h-0.5l-0.6,0.1h-1.3l-1.3-0.1l-1.8-0.4l-0.5-0.2l-0.6-0.2l-0.5-0.2l-1-0.6l-0.9-0.7l-0.4-0.4l-0.4-0.5
			l-0.3-0.5l-0.3-0.5l-0.2-0.6l-0.2-0.5l-0.4-1.7l-0.1-1.3V158.4z"/>
		<path fill="#002D62" d="M1528.1,186.9h-1.3l-0.6-0.1l-0.6-0.1l-1.2-0.1l-0.5-0.1l-0.6-0.1l-1.7-0.5l-1.2-0.5l-0.6-0.2l-1.1-0.6
			l-1.6-1.1l-0.5-0.4l-0.9-0.9l-0.4-0.4l-0.7-0.9l-0.4-0.4l-0.3-0.5l-0.4-0.5l-0.6-1l-0.9-2.2l-0.4-1.1l-0.1-0.5l-0.2-0.6l-0.1-0.6
			l-0.1-0.5l-0.1-0.6l-0.1-0.6v-0.6l-0.1-0.6v-1.3l0.1-0.7v-0.6l0.1-0.6l0.1-0.6l0.4-1.8l0.2-0.6l0.4-1.2l0.2-0.6l0.5-1.1l0.3-0.5
			l0.2-0.5l0.3-0.5l0.4-0.5l0.3-0.5l0.7-0.8l0.4-0.5l0.9-0.8l0.4-0.4l1.5-1.2l1-0.6l0.6-0.2l1.1-0.6l1.6-0.5l1.7-0.4l1.2-0.1
			l0.6-0.1h1.3l0.7,0.1l1.3,0.1l1.8,0.4l1.2,0.4l1.1,0.5l0.5,0.3l0.6,0.3l2,1.4l0.4,0.4l0.5,0.4l1.2,1.4l0.4,0.5l0.6,1l0.3,0.6
			l0.8,1.7l0.4,1.2l0.4,1.2l0.4,1.8l0.1,0.6l0.1,0.6l0.1,0.6v0.7l0.1,0.6v1.5l-0.1,0.9h-25.3l0.1,0.6l0.1,0.6l0.1,0.5l0.1,0.5
			l0.4,1.1l0.2,0.5l1.2,2l1.1,1.3l0.4,0.4l0.5,0.4l1.1,0.7l1.2,0.6l1.1,0.4l0.6,0.1l0.5,0.1l0.6,0.1l1.1,0.1h1.3l1.8-0.2l0.5-0.1
			l0.6-0.1l0.5-0.2l0.5-0.1l1.5-0.7l0.5-0.3l0.6-0.3l0.9-0.7l1.4-1.2l0.4-0.4l0.8,0.8l0.9,0.7l0.4,0.4l0.4,0.4l0.4,0.4l0.4,0.4
			l-1.3,1.3l-0.4,0.4l-0.5,0.4l-1.9,1.5l-0.5,0.3l-0.5,0.3l-0.6,0.2l-0.5,0.3l-0.6,0.2l-0.5,0.2l-1.1,0.4l-1.8,0.4l-0.7,0.1
			l-0.7,0.1h-0.6L1528.1,186.9z M1527.2,157.5h-1.3l-0.7,0.1l-0.6,0.1l-0.6,0.2l-0.6,0.2l-0.6,0.2l-1.2,0.6l-0.5,0.3l-0.5,0.4
			l-0.5,0.4l-1.3,1.4l-0.7,1.1l-0.6,1.2l-0.2,0.6l-0.2,0.5l-0.2,0.6l-0.2,0.5l-0.1,0.6l-0.1,0.7l-0.1,0.6h19.8l-0.1-1.2l-0.2-1.1
			l-0.2-0.6l-0.1-0.5l-0.2-0.6l-0.3-0.6l-0.2-0.6l-0.3-0.5l-1.1-1.6l-0.5-0.4l-0.4-0.4l-0.5-0.4l-1-0.7l-0.6-0.3l-1.6-0.6l-0.6-0.1
			L1527.2,157.5z"/>
		<path fill="#002D62" d="M1550.7,153.4h5.6v7.7l0.2-0.5l0.3-0.5l0.2-0.5l0.3-0.5l0.4-0.5l0.3-0.4l0.4-0.4l0.4-0.5l0.4-0.4l0.4-0.4
			l0.4-0.4l0.4-0.4l0.4-0.3l0.5-0.4l1-0.6l0.5-0.2l0.5-0.3l0.6-0.2l1.6-0.5l0.6-0.1l0.6-0.1l0.6-0.1h1.9v5.4h-1l-1.3,0.1l-0.6,0.2
			l-1.2,0.2l-0.6,0.2l-0.5,0.2l-0.6,0.2l-0.5,0.2l-1.9,1.4l-0.8,0.8l-0.7,0.9l-0.4,0.5l-0.3,0.5l-0.3,0.5l-1.2,2.8l-0.1,0.5
			l-0.2,0.5l-0.1,0.5l-0.1,0.6l-0.1,0.5l-0.1,1.2v0.6l-0.1,0.6v13.8h-5.6V153.4z"/>
	</g>
	<g>
		<path fill="#002D62" d="M8.7,9.2h2.4h2.2h2.4h2.4h2.4h2.2h2.4h2.4h2.2h2.4h2.4h2.2h2.4h2.4h2.4h2.2h2.4l1.2,2.2l1.4,1.9l1.2,2.2
			l1.2,1.9l1.4,2.2l1.2,1.9l1.2,2.2l1.5,1.9l1.2,2.2l1.2,1.9l1.4,2.2l1.2,1.9l1.2,2.2l1.5,1.9l1.2,2.2l1.2,1.9l1.4,2.2l1.2,1.9
			l1.2,2.2l1.2,1.9l1.5,2.2l1.2,1.9l1.2,2.2l1.4,1.9l1.2,2.2l1.2,1.9l1.5,2.2l1.2,1.9l1.2,2.2l1.4,1.9l1.2,2.2l1.2,1.9l1.5,2.2
			l1.2,1.9l1.2,2.2l1.4,1.9l1.2,2.2l1.2-2.2l1.4-1.9L100,79l1.2-1.9l1.5-2.2l1.2-1.9l1.2-2.2l1.4-1.9l1.2-2.2l1.4-1.9l1.2-2.2
			l1.2-1.9l1.5-2.2l1.2-1.9l1.2-2.2l1.4-1.9l1.2-2.2l1.2-1.9l1.4-2.2l1.2-1.9l1.2-2.2l1.5-1.9l1.2-2.2L127,36l1.4-2.2l1.2-1.9
			l1.2-2.2l1.5-1.9l1.2-2.2l1.5-1.9l1.2-2.2l1.2-1.9l1.4-2.2l1.2-1.9l1.2-2.2l1.4-1.9l1.2-2.2h2.4h2.2h2.4h2.4h2.4h2.2h2.4h2.4h2.2
			h2.4h2.4h2.2h2.4h2.4h2.4h2.2h2.4v2.4V14v2.4v2.4v2.4v2.4v2.4v2.4V31v2.4v2.4v2.4v2.4v2.4v2.4v2.4v2.4v2.4v2.2v2.4v2.4v2.4v2.4V67
			v2.4v2.4v2.4v2.4v2.4v2.4v2.4v2.4v2.4v2.4v2.4V96v2.4v2.4v2.4v2.4v2.4v2.4v2.4v2.4v2.4v2.4v2.4v2.4v2.4v2.4v2.4v2.4v2.4v2.4v2.2
			v2.4v2.4v2.4v2.4v2.4v2.4v2.4v2.4v2.4v2.4v2.4v2.4v2.4v2.4v2.4v2.4v2.4v2.4h-2.4H179h-2.6H174h-2.4h-2.4h-2.4h-2.6h-2.4h-2.4h-2.4
			h-2.4h-2.6h-2.4H147v-2.4v-2.4V178v-2.4v-2.2V171v-2.4v-2.4v-2.4v-2.4v-2.4v-2.4V154v-2.4v-2.2V147v-2.4v-2.4v-2.4v-2.4v-2.4v-2.4
			v-2.4v-2.4v-2.2v-2.4v-2.4v-2.4v-2.4v-2.4v-2.4v-2.4v-2.4v-2.4v-2.2v-2.4v-2.4v-2.4v-2.4v-2.4V87v-2.4v-2.4v-2.4v-2.2v-2.4v-2.4
			v-2.4v-2.4l-1.5,1.9l-1.2,2.2l-1.5,1.9l-1.2,1.9l-1.5,2.2l-1.2,1.9l-1.5,2.2l-1.2,1.9l-1.5,1.9l-1.2,2.2l-1.5,1.9l-1.2,1.9
			l-1.5,2.2l-1.2,1.9l-1.5,2.2l-1.2,1.9l-1.5,1.9l-1.2,2.2l-1.5,1.9l-1.5,1.9l-1.2,2.2l-1.5,1.9l-1.2,1.9l-1.5,2.2l-1.2,1.9
			l-1.5,2.2l-1.2,1.9l-1.5,1.9l-1.2,2.2l-1.5,1.9l-1.2,1.9l-1.5,2.2l-1.2,1.9l-1.5,2.2l-1.2,1.9l-1.5,1.9l-1.2,2.2l-1.5,1.9h-1
			l-1.2-1.9l-1.5-2.2l-1.2-1.9l-1.5-1.9l-1.2-1.9l-1.5-2.2l-1.2-1.9l-1.5-1.9l-1.2-2.2l-1.5-1.9l-1.2-1.9l-1.5-1.9l-1.2-2.2
			l-1.5-1.9l-1.2-1.9l-1.5-2.2l-1.2-1.9l-1.5-1.9l-1.2-2.2l-1.2-1.9l-1.5-1.9l-1.2-1.9l-1.5-2.2l-1.2-1.9l-1.5-1.9l-1.2-2.2
			l-1.5-1.9l-1.2-1.9l-1.5-1.9l-1.2-2.2l-1.5-1.9l-1.2-1.9l-1.5-2.2l-1.2-1.9l-1.5-1.9l-1.2-1.9l-1.5-2.2L45,68.6V71v2.4v2.4v2.4
			v2.4v2.4v2.4v2.4v2.4v2.4v2.4v2.4v2.7v2.4v2.4v2.4v2.4v2.4v2.4v2.4v2.4v2.4v2.4v2.4v2.4v2.4v2.4v2.4v2.4v2.4v2.4v2.4v2.4v2.4v2.4
			v2.4v2.7v2.4v2.4v2.4v2.4v2.4v2.4v2.4v2.4v2.4v2.4v2.4h-2.4h-2.4h-2.4h-2.4h-2.4h-2.4H28h-2.4h-2.4h-2.4h-2.4h-2.4h-2.4h-2.4H8.7
			v-2.4v-2.4V178v-2.4v-2.4v-2.4v-2.4v-2.4v-2.4v-2.4v-2.4v-2.4v-2.4v-2.4V149v-2.4v-2.4v-2.4v-2.2v-2.4v-2.4v-2.4v-2.4v-2.4v-2.4
			v-2.4v-2.4v-2.4v-2.4V113v-2.4v-2.4v-2.4v-2.4v-2.4v-2.4V96v-2.4v-2.4v-2.4v-2.4v-2.4v-2.4v-2.4v-2.4v-2.4v-2.4v-2.4V67v-2.4v-2.4
			v-2.4v-2.4v-2.4v-2.2v-2.4v-2.4v-2.4v-2.4v-2.4v-2.4v-2.4v-2.4V31v-2.4v-2.4v-2.4v-2.4v-2.4v-2.4V14v-2.4V9.2z"/>
		<path fill="#002D62" d="M289.8,8h2.4h2.4h2.4h2.7h2.4h2.4h2.4h2.4h2.4h2.4h2.7h2.4h2.4h2.4l1,2.2l1,2.2l1,2.2l1,2.4l1,2.2l0.7,2.2
			l1,2.2l1,2.2l1,2.2l1,2.4l1,2.2l1,2.2l1,2.2l1,2.2l1,2.2l1,2.4l1,2.2l0.7,2.2l1,2.2l1,2.2l1,2.2l1,2.4l1,2.2l1,2.2l1,2.2l1,2.2
			l1,2.2l1,2.4l0.7,2.2l1,2.2l1,2.2l1,2.2l1,2.2l1,2.4l1,2.2l1,2.2l1,2.2l1,2.2l1,2.2l1,2.2l0.7,2.4l1,2.2l1,2.2l1,2.2l1,2.2l1,2.2
			l1,2.4l1,2.2l1,2.2l1,2.2l1,2.2l0.7,2.2l1,2.4l1,2.2l1,2.2l1,2.2l1,2.2l1,2.2l1,2.4l1,2.2l1,2.2l1,2.2l0.7,2.2l1,2.2l1,2.4l1,2.2
			l1,2.2l1,2.2l1,2.2l1,2.2l1,2.4l1,2.2l1,2.2l1,2.2l0.7,2.2l1,2.2l1,2.4l1,2.2l1,2.2l1,2.2h-2.4H395h-2.4h-2.4h-2.4h-2.4h-2.4h-2.4
			h-2.7h-2.4H373h-2.4h-2.4h-2.4h-2.4h-2.4l-1-2.2l-1-2.2l-0.7-2.4l-1-2.2l-1-2.2l-1-2.2l-0.7-2.4l-1-2.2l-1-2.2l-1-2.2l-1-2.2
			l-0.7-2.4l-1-2.2l-1-2.2l-1-2.2l-0.7-2.4l-1-2.2l-1-2.2H342h-2.4h-2.4H335h-2.4h-2.4h-2.4h-2.4h-2.4h-2.2h-2.4h-2.4h-2.4H311h-2.4
			h-2.2H304h-2.4h-2.4h-2.4h-2.4h-2.4h-2.2h-2.4h-2.4h-2.4h-2.4h-2.4h-2.2h-2.4h-2.4h-2.4l-1,2.2l-1,2.2l-0.7,2.4l-1,2.2l-1,2.2
			l-1,2.2l-0.7,2.4l-1,2.2l-1,2.2l-1,2.2l-1,2.2l-0.7,2.4l-1,2.2l-1,2.2l-1,2.2l-0.7,2.4l-1,2.2l-1,2.2h-2.4h-2.4h-2.2h-2.4h-2.4
			h-2.4h-2.4h-2.2h-2.4h-2.4h-2.4h-2.4h-2.4h-2.2h-2.4h-2.4l1-2.2l1-2.2l1-2.2l1-2.4l1-2.2l1-2.2l0.7-2.2l1-2.2l1-2.2l1-2.4l1-2.2
			l1-2.2l1-2.2l1-2.2l1-2.2l1-2.4l1-2.2l1-2.2l1-2.2l1-2.2l0.7-2.2l1-2.4l1-2.2l1-2.2l1-2.2l1-2.2l1-2.2l1-2.4l1-2.2l1-2.2l1-2.2
			l1-2.2l1-2.2l0.7-2.4l1-2.2l1-2.2l1-2.2l1-2.2l1-2.2l1-2.4l1-2.2l1-2.2l1-2.2l1-2.2l1-2.2l1-2.2l0.7-2.4l1-2.2l1-2.2l1-2.2l1-2.2
			l1-2.2l1-2.4l1-2.2l1-2.2l1-2.2l1-2.2l1-2.2l1-2.4l1-2.2l0.7-2.2l1-2.2l1-2.2l1-2.2l1-2.4l1-2.2l1-2.2l1-2.2l1-2.2l1-2.2l1-2.4
			l1-2.2l1-2.2l0.7-2.2l1-2.2l1-2.2l1-2.4l1-2.2l1-2.2L289.8,8z M331.1,112l-1-2.2l-1-2.2l-0.7-2.2l-1-2.4l-1-2.2l-1-2.2l-0.7-2.2
			l-1-2.2l-1-2.2l-1-2.2l-1-2.4l-0.7-2.2l-1-2.2l-1-2.2l-1-2.2l-0.7-2.2l-1-2.4l-1-2.2l-1-2.2l-1-2.2l-0.7-2.2l-1-2.2l-1-2.2l-1-2.4
			l-0.7-2.2l-1-2.2l-1-2.2l-1,2.2l-1,2.2l-0.7,2.2l-1,2.4l-1,2.2l-1,2.2l-1,2.2l-1,2.2l-0.7,2.2l-1,2.2l-1,2.4l-1,2.2l-1,2.2
			l-0.7,2.2l-1,2.2l-1,2.2l-1,2.4l-1,2.2l-0.7,2.2l-1,2.2l-1,2.2l-1,2.2l-1,2.2l-1,2.4l-0.7,2.2l-1,2.2l-1,2.2h2.4h2.4h2.2h2.4h2.4
			h2.4h2.2h2.4h2.4h2.4h2.2h2.4h2.4h2.4h2.2h2.4h2.4h2.4h2.2h2.4H331.1z"/>
		<path fill="#002D62" d="M489.6,187.7h-2.4h-2.4l-2.2-0.2l-2.4-0.2h-2.4l-2.4-0.5l-2.2-0.2l-2.4-0.2l-2.4-0.5l-2.2-0.5l-2.4-0.5
			l-2.2-0.5l-2.4-0.7l-2.2-0.5l-2.2-0.7l-2.4-0.7l-2.2-1l-2.2-0.7l-2.2-1l-2.2-1l-2.2-1l-2.2-1l-2.2-1l-2.2-1.2l-1.9-1.2l-2.2-1.2
			l-1.9-1.5l-2.2-1.2l-1.9-1.5l-1.9-1.5l-1.9-1.5l-1.9-1.7l-1.9-1.5l-1.9-1.7l1.7-1.9l1.5-1.9l1.7-1.7l1.5-1.9l1.7-1.9l1.5-1.9
			l1.7-1.9l1.5-1.7l1.7-1.9l1.5-1.9l1.7-1.9l1.5-1.7l1.5-1.9l1.7-1.9l1.9,1.7l2.2,1.5l1.9,1.7l2.2,1.5l1.9,1.5l2.2,1.2l1.9,1.5
			l2.2,1.2l2.2,1.2l1.9,1l2.2,1.2l2.2,1l2.2,1l2.2,0.7l2.2,0.7l2.4,0.7l2.2,0.7l2.4,0.5l2.4,0.5l2.4,0.2l2.4,0.2l2.4,0.2l2.4,0.2
			h2.7h2.9l2.9-0.2l2.7-0.5l2.7-0.5l2.2-0.7l2.2-0.7l2.2-1l1.9-1.2l2.2-1.7l1.7-1.9l1.5-2.2l1-2.2l0.5-2.4l0.2-2.7v-0.5l-0.2-2.4
			l-0.5-2.4l-0.7-2.2l-1.2-1.9l-1.9-1.9l-2.2-1.9l-1.9-1l-1.9-1l-2.2-1.2l-2.4-1l-2.7-1l-1.9-0.7l-1.9-0.5l-2.2-0.7l-2.2-0.7
			l-2.4-0.5l-2.4-0.7l-2.7-0.7l-2.7-0.7l-2.7-0.7l-2.7-0.7l-2.7-0.7l-2.4-0.7l-2.4-0.7l-2.4-0.7l-2.4-0.7l-2.2-0.7l-2.2-0.7
			l-2.2-0.7l-2.4-1l-2.4-1l-2.2-1l-1.9-1l-2.2-1.2l-1.9-1l-1.9-1.2l-1.7-1.5l-1.7-1.2l-1.9-1.5l-1.7-1.7l-1.7-1.7l-1.5-1.9l-1.5-1.9
			l-1.5-1.9l-1.2-1.9l-1-2.2l-1-1.9l-0.7-2.2l-0.5-2.2l-0.7-2.4l-0.5-2.4l-0.2-2.4l-0.2-2.7l-0.2-2.7v-2.9v-0.5v-2.7l0.2-2.4
			l0.2-2.7l0.5-2.4l0.5-2.4l0.5-2.2l0.7-2.4l1-2.2l1-2.2l1-2.2l1.2-1.9l1.2-1.9l1.4-1.9l1.4-1.9l1.4-1.7l1.4-1.7l1.7-1.7l1.9-1.7
			l1.7-1.5l1.9-1.5l1.9-1.2l2.2-1.2l2.2-1.2l2.2-1.2l2.2-1l2.4-1l2.6-1l2.2-0.5l2.2-0.7l2.4-0.5l2.4-0.5l2.4-0.5l2.7-0.5l2.4-0.2
			h2.7l2.7-0.2h2.7h2.7h2.4l2.4,0.2l2.7,0.2l2.4,0.2l2.4,0.2l2.4,0.2l2.2,0.5l2.4,0.2l2.4,0.5l2.2,0.7l2.2,0.5l2.4,0.7l2.2,0.5
			l2.2,0.7l2.2,1l2.2,1l2.4,1l2.2,1l2.2,1l2.2,1.2l1.9,1l2.2,1.2l2.2,1.5l1.9,1.2l2.2,1.5l1.9,1.5l1.9,1.5l1.9,1.5l-1.5,1.9
			l-1.5,2.2l-1.2,1.9l-1.5,1.9l-1.5,1.9l-1.5,2.2l-1.2,1.9l-1.5,1.9l-1.5,2.2l-1.5,1.9l-1.5,1.9l-1.2,1.9l-1.5,2.2l-1.5,1.9
			l-2.2-1.5l-1.9-1.5l-2.2-1.5l-2.2-1.2l-2.2-1.5l-1.9-1l-2.2-1.2l-2.2-1l-1.9-1.2l-2.2-0.7l-1.9-1l-2.4-1l-2.4-0.7l-2.2-0.7
			l-2.4-0.5l-2.2-0.5l-2.4-0.5l-2.2-0.2l-2.4-0.2l-2.2-0.2h-2.4h-2.9l-2.7,0.2l-2.4,0.5l-2.2,0.5l-2.2,0.7l-1.9,0.7l-1.7,1l-1.7,1.2
			l-1.9,1.7l-1.5,1.7l-1.2,1.9l-0.7,1.9l-0.5,2.2l-0.2,2.2v0.5l0.2,2.9l0.5,2.7l1,2.2l1,1.5l1.5,1.5l1.7,1.5l1.9,1.5l1.9,1l1.9,1.2
			l2.4,1l2.7,1l2.9,1l1.9,0.7l2.2,0.7l2.2,0.7l2.2,0.5l2.4,0.7l2.7,0.7l2.7,0.7l2.9,0.7l2.7,0.7l2.7,0.7l2.4,0.7l2.7,0.7l2.4,0.7
			l2.4,0.7l2.2,1l2.2,0.7l2.2,0.7l2.2,1l2.7,1.2l2.4,1l2.2,1.5l2.4,1.2l1.9,1.2l2.2,1.5l1.9,1.5l1.9,1.5l1.7,1.7l1.5,1.7l1.7,1.7
			l1.5,1.7l1.2,1.9l1.2,1.9l1,1.9l1.2,1.9l0.7,2.2l0.7,2.4l0.7,2.2l0.5,2.4l0.5,2.7l0.2,2.4l0.2,2.7v2.9v0.5v2.7l-0.2,2.4l-0.2,2.4
			l-0.2,2.4l-0.5,2.4L552,148l-0.7,2.2l-0.5,2.2l-1,2.2l-0.7,1.9l-1.2,2.4l-1.2,1.9l-1.2,2.2L544,165l-1.4,1.9l-1.7,1.7l-1.7,1.7
			l-1.7,1.7l-1.7,1.5l-1.9,1.5l-1.7,1.2l-1.9,1.2l-1.9,1.2l-1.9,1.2l-2.2,1l-2.2,1l-2.2,0.7l-2.2,1l-2.4,0.7l-2.2,0.7l-2.2,0.5
			l-2.2,0.5l-2.4,0.5l-2.2,0.5l-2.4,0.2l-2.4,0.2l-2.4,0.2l-2.4,0.2H492H489.6z"/>
		<path fill="#002D62" d="M627.9,43.5h-2.4h-2.4h-2.7H618h-2.4h-2.4h-2.4h-2.4h-2.7h-2.4h-2.4h-2.4H596h-2.7h-2.4h-2.4h-2.4h-2.4
			h-2.4h-2.7h-2.4h-2.4v-2.4v-2.4v-2.4v-2.7v-2.4v-2.4v-2.4v-2.4v-2.4v-2.4v-2.7V14v-2.4V9.2h2.4h2.4h2.4h2.4h2.4h2.4h2.4h2.4h2.4
			h2.4h2.4h2.4h2.4h2.4h2.4h2.4h2.4h2.4h2.4h2.4h2.4h2.4h2.4h2.4h2.4h2.4h2.4h2.4h2.4h2.7h2.4h2.4h2.4h2.4h2.4h2.4h2.4h2.4h2.4h2.4
			h2.4h2.4h2.4h2.4h2.4h2.4h2.4h2.4h2.4h2.4h2.4h2.4h2.4h2.4h2.4h2.4h2.4h2.4h2.4h2.4v2.4V14v2.4v2.7v2.4v2.4v2.4v2.4v2.4v2.4v2.7
			v2.4v2.4v2.4h-2.4h-2.4h-2.4h-2.7h-2.4h-2.4h-2.4h-2.4h-2.4h-2.4h-2.4h-2.7h-2.4h-2.4h-2.4h-2.4h-2.4h-2.4h-2.7H670h-2.4h-2.4V46
			v2.4v2.4v2.4v2.4v2.4v2.4v2.2v2.4v2.4v2.4v2.4v2.4v2.4v2.4V82v2.4v2.4v2.4v2.4v2.4v2.4v2.2v2.4v2.4v2.4v2.4v2.4v2.4v2.4v2.4v2.4
			v2.4v2.4v2.4v2.4v2.2v2.4v2.4v2.4v2.4v2.4v2.4v2.4v2.4v2.4v2.4v2.4v2.4v2.4v2.4v2.2v2.4v2.4v2.4v2.4v2.4v2.4v2.4h-2.4h-2.7h-2.4
			h-2.4h-2.4h-2.7h-2.4h-2.4h-2.4h-2.7h-2.4h-2.4H633h-2.7h-2.4v-2.4v-2.4V178v-2.4v-2.4v-2.4v-2.4v-2.2v-2.4v-2.4v-2.4v-2.4v-2.4
			v-2.4v-2.4v-2.4v-2.4V142v-2.4v-2.4v-2.4v-2.4v-2.2v-2.4v-2.4v-2.4v-2.4V118v-2.4v-2.4v-2.4v-2.4v-2.4v-2.4v-2.4v-2.4v-2.2v-2.4
			v-2.4v-2.4v-2.4v-2.4V82v-2.4v-2.4v-2.4v-2.4v-2.4v-2.4v-2.4v-2.4v-2.2v-2.4v-2.4v-2.4v-2.4v-2.4V46V43.5z"/>
	</g>
</g>
</svg>
