<?xml version="1.0" encoding="utf-8"?>
<!-- Generator: Adobe Illustrator 24.1.0, SVG Export Plug-In . SVG Version: 6.00 Build 0)  -->
<svg version="1.1" id="Layer_1" xmlns="http://www.w3.org/2000/svg" xmlns:xlink="http://www.w3.org/1999/xlink" x="0px" y="0px"
	 viewBox="0 0 442.3 60.2" enable-background="new 0 0 442.3 60.2" xml:space="preserve">
<g>
	<path fill="#FFFFFF" d="M234,12.1h1.5l0.2,0.3l0.4,0.6l0.1,0.1l0.1,0.1l0.3,0.4l0.1,0.1l0.3,0.4l0.1,0.1l0.3,0.5l0.1,0.1l0.1,0.1
		l0.1,0.1l0.2,0.2l0.4,0.6l0.1,0.1l0.1,0.1l0.1,0.1l0.1,0.1l0.1,0.1l0.1,0.1l0.1,0.1l0.1,0.1l0.1,0.1l0.1,0.1l0.1,0.1l0.1,0.1
		l0.1,0.1l0.1,0.1l0.1,0.1l0.2-0.4l0.1-0.1l0.3-0.5l0.1-0.1l0.3-0.4l0.1-0.1l0.1-0.1l0.2-0.4l0.1-0.1l0.2-0.4L241,15l0.1-0.1
		l0.3-0.5l0.1-0.1l0.3-0.5l0.1-0.1l0.1-0.1l0.1-0.1l0.1-0.1l0.1-0.1l0.1-0.1l0.1-0.1l0.1-0.1l0.1-0.1l0.1-0.1l0.3-0.5h1.5V23h-1.4
		v-8.5l-0.1,0.1l-0.1,0.1l-0.2,0.2l-0.1,0.1l-0.2,0.2l-0.1,0.1l-0.2,0.3l-0.1,0.1l-0.4,0.6l-0.1,0.1l-0.1,0.1l-0.1,0.1l-0.1,0.1
		l-0.1,0.1l-0.1,0.1l-0.1,0.1l-0.1,0.1l-0.1,0.1l-0.2,0.2l-0.1,0.1l-0.2,0.3l-0.2,0.2l-0.1,0.1l-0.1,0.1l-0.1,0.1l-0.2,0.2l-0.1,0.1
		l-0.2,0.2l-0.1,0.1l-0.2,0.2l-0.1,0.1l-0.1,0.1h-0.1l-0.1-0.1l-0.1-0.1l-0.2-0.2l-0.1-0.1l-0.6-0.9l-0.3-0.5l-0.1-0.1l-0.2-0.3
		l-0.1-0.1l-0.2-0.3l-0.1-0.1l-0.7-1l-0.3-0.4l-0.1-0.1l-0.3-0.5l-0.1-0.1l-0.1-0.1l-0.2-0.2l-0.1-0.1l-0.1-0.1V23H234V12.1z"/>
	<path fill="#FFFFFF" d="M254,23h-1.4v-1.2l-0.4,0.4l-0.1,0.1l-0.1,0.1l-0.1,0.1l-0.1,0.1l-0.3,0.1l-0.4,0.2l-0.3,0.1l-0.2,0
		l-0.3,0.1l-0.1,0l-0.2,0l-0.2,0h-0.3l-0.2,0l-0.1,0l-0.3,0l-0.3-0.1l-0.3-0.1l-0.2-0.1l-0.1-0.1l-0.1-0.1l-0.1-0.1l-0.1-0.1
		l-0.1-0.1l-0.1-0.1l-0.2-0.2l-0.2-0.2l-0.2-0.3l-0.1-0.1l-0.1-0.2l0-0.1l0-0.1l0-0.1l0-0.1v-0.3l0-0.2l0-0.1l0-0.2l0.1-0.4l0.1-0.1
		l0.1-0.1l0.1-0.1l0.2-0.2l0.1-0.1l0.2-0.2l0.3-0.2l0.3-0.1l0.1-0.1l0.4-0.1l0.4-0.1l0.1,0l0.2,0h0.2l0.2,0h0.5l0.1,0h0.2l0.6,0.1
		l0.4,0.1l0.2,0l0.2,0l0.4,0.1v-0.4l0-0.2l-0.1-0.3l0-0.1l-0.1-0.1l-0.1-0.1l-0.1-0.1l-0.1-0.1l-0.1-0.1l-0.1-0.1l-0.1-0.1l-0.1-0.1
		l-0.1-0.1l-0.1-0.1l-0.1-0.1l-0.1,0l-0.2,0l-0.1,0l-0.2,0l-0.3,0h-0.3l-0.1,0h-0.2l-0.3,0l-0.1,0l-0.1,0l-0.1,0l-0.1,0l-0.3,0.1
		l-0.3,0.1l-0.1,0l-0.1,0.1l-0.2,0.1l-0.1,0.1l0-0.1l-0.1-0.1l-0.1-0.3l-0.1-0.1l0-0.1l-0.1-0.2l0-0.1l0.3-0.1l0.1,0l0.1-0.1
		l0.3-0.1l0.1-0.1l0.1,0l0.1,0l0.1,0l0.4-0.1l0.1,0l0.8-0.1h0.5l0.2,0h0.2l0.2,0l0.2,0l0.2,0l0.1,0l0.2,0l0.1,0l0.3,0.1l0.1,0.1
		l0.1,0.1l0.2,0.1l0.2,0.2l0.1,0.1l0.2,0.2l0.2,0.2l0.1,0.2l0.1,0.2l0.1,0.1l0.1,0.3l0,0.2l0,0.1l0,0.2l0.1,0.6V23z M250,22h0.3
		l0.5,0l0.3-0.1l0.6-0.2l0.1-0.1l0.1-0.1l0.1-0.1l0.3-0.3l0.1-0.1l0.2-0.2l0.1-0.1l0.1-0.3l0-0.1l0-0.1v-0.8l-0.1,0l-0.3-0.1l-0.1,0
		l-0.3-0.1l-0.3-0.1L251,19l-0.2,0h-0.5l-0.3,0l-0.1,0l-0.3,0.1l-0.4,0.1l-0.1,0.1l-0.1,0.1l-0.1,0.1l-0.1,0.1l-0.1,0.1l-0.2,0.2
		l-0.1,0.1l-0.1,0.1l-0.1,0.3v0.2l0,0.2l0,0.2l0,0.1l0.1,0.1l0.1,0.1l0.2,0.2l0.3,0.2l0.1,0.1l0.1,0l0.3,0.1l0.2,0l0.1,0L250,22z"/>
	<path fill="#FFFFFF" d="M256.6,14.9h1.4v1.9l0.1-0.1l0.1-0.1l0.1-0.1l0.1-0.1l0.1-0.1l0.1-0.1l0.1-0.1l0.1-0.1l0.1-0.1l0.1-0.1
		l0.1-0.1l0.1-0.1l0.1-0.1l0.1-0.1l0.2-0.1l0.1-0.1l0.1-0.1l0.1-0.1l0.4-0.1l0.2,0l0.1,0l0.2,0h0.5v1.3h-0.3l-0.3,0l-0.1,0l-0.3,0.1
		l-0.2,0l-0.1,0.1l-0.2,0.1l-0.1,0.1l-0.5,0.4l-0.2,0.2l-0.2,0.2l-0.1,0.1l-0.1,0.1l-0.1,0.1l-0.3,0.7l0,0.1l0,0.1l0,0.1l0,0.1
		l0,0.1l0,0.3v0.2l0,0.1V23h-1.4V14.9z"/>
	<path fill="#FFFFFF" d="M263.1,14.9h1.4v1.9l0.1-0.1l0.1-0.1l0.1-0.1l0.1-0.1l0.1-0.1l0.1-0.1l0.1-0.1l0.1-0.1l0.1-0.1l0.1-0.1
		l0.1-0.1l0.1-0.1l0.1-0.1l0.1-0.1l0.2-0.1L266,15l0.1-0.1l0.1-0.1l0.4-0.1l0.2,0l0.1,0l0.2,0h0.5v1.3h-0.3l-0.3,0l-0.1,0l-0.3,0.1
		l-0.2,0l-0.1,0.1l-0.2,0.1l-0.1,0.1l-0.5,0.4l-0.2,0.2l-0.2,0.2l-0.1,0.1l-0.1,0.1l-0.1,0.1l-0.3,0.7l0,0.1l0,0.1l0,0.1l0,0.1
		l0,0.1l0,0.3v0.2l0,0.1V23h-1.4V14.9z"/>
	<path fill="#FFFFFF" d="M269.5,11.9h1.6v1.3h-1.6V11.9z M269.6,14.9h1.4V23h-1.4V14.9z"/>
	<path fill="#FFFFFF" d="M280.5,23h-1.4v-1.2l-0.4,0.4l-0.1,0.1l-0.1,0.1l-0.1,0.1l-0.1,0.1l-0.3,0.1l-0.4,0.2l-0.3,0.1l-0.2,0
		l-0.3,0.1l-0.1,0l-0.2,0l-0.2,0h-0.3l-0.2,0l-0.1,0l-0.3,0l-0.3-0.1l-0.3-0.1l-0.2-0.1l-0.1-0.1l-0.1-0.1l-0.1-0.1l-0.1-0.1
		l-0.1-0.1l-0.1-0.1l-0.2-0.2l-0.2-0.2l-0.2-0.3l-0.1-0.1l-0.1-0.2l0-0.1l0-0.1l0-0.1l0-0.1v-0.3l0-0.2l0-0.1l0-0.2l0.1-0.4l0.1-0.1
		l0.1-0.1l0.1-0.1l0.2-0.2l0.1-0.1l0.2-0.2l0.3-0.2l0.3-0.1l0.1-0.1l0.4-0.1l0.4-0.1l0.1,0l0.2,0h0.2l0.2,0h0.5l0.1,0h0.2l0.6,0.1
		l0.4,0.1l0.2,0l0.2,0l0.4,0.1v-0.4l0-0.2l-0.1-0.3l0-0.1l-0.1-0.1l-0.1-0.1l-0.1-0.1l-0.1-0.1l-0.1-0.1l-0.1-0.1l-0.1-0.1l-0.1-0.1
		l-0.1-0.1l-0.1-0.1l-0.1-0.1l-0.1,0l-0.2,0l-0.1,0l-0.2,0l-0.3,0h-0.3l-0.1,0h-0.2l-0.3,0l-0.1,0l-0.1,0l-0.1,0l-0.1,0l-0.3,0.1
		l-0.3,0.1l-0.1,0l-0.1,0.1l-0.2,0.1l-0.1,0.1l0-0.1l-0.1-0.1l-0.1-0.3l-0.1-0.1l0-0.1l-0.1-0.2l0-0.1l0.3-0.1l0.1,0l0.1-0.1
		l0.3-0.1l0.1-0.1l0.1,0l0.1,0l0.1,0l0.4-0.1l0.1,0l0.8-0.1h0.5l0.2,0h0.2l0.2,0l0.2,0l0.2,0l0.1,0l0.2,0l0.1,0l0.3,0.1l0.1,0.1
		l0.1,0.1l0.2,0.1l0.2,0.2l0.1,0.1l0.2,0.2l0.2,0.2l0.1,0.2l0.1,0.2l0.1,0.1l0.1,0.3l0,0.2l0,0.1l0,0.2l0.1,0.6V23z M276.4,22h0.3
		l0.5,0l0.3-0.1l0.6-0.2l0.1-0.1l0.1-0.1l0.1-0.1l0.3-0.3l0.1-0.1l0.2-0.2l0.1-0.1l0.1-0.3l0-0.1l0-0.1v-0.8l-0.1,0l-0.3-0.1l-0.1,0
		l-0.3-0.1L278,19l-0.6-0.1l-0.2,0h-0.5l-0.3,0l-0.1,0l-0.3,0.1l-0.4,0.1l-0.1,0.1l-0.1,0.1l-0.1,0.1l-0.1,0.1l-0.1,0.1l-0.2,0.2
		l-0.1,0.1l-0.1,0.1l-0.1,0.3v0.2l0,0.2l0,0.2l0,0.1l0.1,0.1l0.1,0.1l0.2,0.2l0.3,0.2l0.1,0.1l0.1,0l0.3,0.1l0.2,0l0.1,0L276.4,22z"
		/>
	<path fill="#FFFFFF" d="M289.4,14.9h1.4v6.8l0,0.2V22l0,0.2l0,0.2l-0.1,0.5l-0.1,0.3l-0.1,0.1l-0.1,0.1l0,0.1l-0.1,0.1l-0.1,0.1
		l-0.3,0.4l-0.1,0.1l-0.1,0.1l-0.3,0.3l-0.1,0.1l-0.2,0.1l-0.3,0.1l-0.3,0.1l-0.1,0l-0.2,0l-0.1,0l-0.1,0l-0.4,0.1l-0.6,0.1h-0.6
		l-0.8-0.1l-0.4-0.1l-0.1,0l-0.2,0l-0.1,0l-0.6-0.2l-0.4-0.2l-0.1-0.1l-0.1-0.1l-0.1-0.1l-0.1-0.1l-0.3-0.2l0.1-0.1l0.2-0.4l0.1-0.2
		l0.2-0.3l0.1-0.1l0.1,0.1l0.3,0.2l0.3,0.1l0.3,0.1l0.3,0.1l0.1,0l0.2,0.1l0.1,0l0.1,0l0.1,0l0.4,0.1l0.3,0h0.2l0.2,0h0.3l0.5,0
		l0.3-0.1l0.3-0.1L288,24l0.1,0l0.2-0.1l0.1-0.1l0.2-0.2l0.1-0.1l0.2-0.2l0.1-0.1l0.1-0.1l0.1-0.1l0.1-0.1l0.1-0.3l0-0.2l0-0.1
		l0-0.2l0-0.2l0-0.2v-1l-0.1,0.1l-0.1,0.1l-0.1,0.1l-0.1,0.1l-0.1,0.1l-0.1,0.1l-0.2,0.2l-0.1,0.1l-0.1,0.1L288,22l-0.4,0.2
		l-0.3,0.1l-0.4,0.1l-0.5,0h-0.3l-0.5-0.1l-0.2,0l-0.1,0l-0.1,0l-0.1,0l-0.1-0.1l-0.1,0l-0.3-0.1l-0.4-0.2l-0.1-0.1l-0.1-0.1
		l-0.1-0.1l-0.3-0.3l-0.2-0.2l-0.1-0.1l-0.1-0.1l-0.2-0.3l-0.1-0.1l-0.1-0.3l-0.1-0.3l0-0.1l0-0.1l0-0.2l-0.1-0.6v-0.4l0.1-0.6
		l0-0.1l0-0.1l0-0.1l0.2-0.5l0.3-0.5l0.2-0.2l0.2-0.2l0.3-0.3l0.1-0.1l0.2-0.2l0.2-0.1l0.1-0.1l0.1-0.1l0.1-0.1l0.3-0.1l0.1,0l0.1,0
		l0.2,0l0.3,0l0.1,0l0.1,0h0.3l0.2,0l0.3,0l0.2,0l0.1,0l0.1,0l0.3,0.1l0.1,0l0.2,0.1l0.6,0.4l0.2,0.2l0.2,0.2l0.1,0.1l0.1,0.1
		l0.1,0.1V14.9z M286.5,21.1h0.3l0.3,0l0.3-0.1l0.2,0l0.1-0.1l0.2,0l0.1-0.1l0.1-0.1l0.4-0.2l0.2-0.2l0.2-0.2L289,20l0.1-0.1
		l0.1-0.3l0.1-0.1l0.1-0.2l0-0.1l0.1-0.3l0-0.2v-0.4l0-0.2l-0.1-0.3l0-0.2l-0.1-0.1l-0.1-0.1l-0.1-0.3l-0.1-0.1l-0.3-0.3l-0.1-0.1
		l-0.1-0.1l-0.5-0.3l-0.1-0.1l-0.2-0.1l-0.3-0.1l-0.1,0l-0.2,0l-0.3,0h-0.3l-0.3,0l-0.2,0l-0.1,0l-0.3,0.1l-0.2,0.1l-0.3,0.1
		l-0.2,0.1l-0.1,0.1l-0.2,0.2l-0.1,0.1l-0.2,0.2l-0.2,0.3l-0.1,0.3l0,0.1l-0.1,0.5l0,0.2v0.4l0,0.2l0.1,0.4l0,0.1l0.1,0.3l0.2,0.4
		l0.1,0.1l0.1,0.1l0.1,0.1l0.3,0.3l0.1,0.1l0.1,0.1l0.1,0.1l0.1,0l0.1,0.1l0.2,0l0.1,0l0.2,0L286.5,21.1z"/>
	<path fill="#FFFFFF" d="M297.3,23.2H297l-0.1,0l-0.2,0l-0.3,0l-0.1,0l-0.1,0l-0.4-0.1l-0.3-0.1l-0.1-0.1l-0.3-0.1l-0.4-0.3
		l-0.1-0.1l-0.2-0.2l-0.1-0.1l-0.2-0.2l-0.1-0.1l-0.1-0.1l-0.1-0.1l-0.2-0.3l-0.2-0.5l-0.1-0.3l0-0.1l0-0.1l0-0.1l0-0.1l0-0.2l0-0.1
		v-0.2l0-0.2v-0.3l0-0.2v-0.1l0-0.2l0-0.1l0.1-0.5l0-0.1l0.1-0.3l0-0.1l0.1-0.3l0.1-0.1l0.1-0.1l0.1-0.1l0.1-0.1l0.1-0.1l0.2-0.2
		l0.1-0.1l0.2-0.2l0.1-0.1l0.4-0.3l0.2-0.2l0.1-0.1l0.3-0.1l0.4-0.1l0.4-0.1l0.3,0l0.2,0h0.3l0.2,0l0.3,0l0.4,0.1l0.3,0.1l0.3,0.1
		l0.1,0.1l0.1,0.1l0.5,0.3l0.1,0.1l0.1,0.1l0.3,0.3l0.1,0.1l0.2,0.3l0.1,0.1l0.2,0.4l0.1,0.3l0.1,0.3l0.1,0.4l0,0.2l0,0.1l0,0.2v0.2
		l0,0.2v0.4l0,0.2h-6.3l0,0.1l0,0.2l0,0.1l0,0.1l0.1,0.3l0,0.1l0.3,0.5l0.3,0.3l0.1,0.1l0.1,0.1l0.3,0.2l0.3,0.1l0.3,0.1l0.1,0
		l0.1,0l0.2,0l0.3,0h0.3l0.5,0l0.1,0l0.1,0l0.1,0l0.1,0l0.4-0.2l0.1-0.1l0.1-0.1l0.2-0.2l0.3-0.3l0.1-0.1l0.2,0.2l0.2,0.2l0.1,0.1
		l0.1,0.1l0.1,0.1l0.1,0.1l-0.3,0.3l-0.1,0.1l-0.1,0.1l-0.5,0.4l-0.1,0.1l-0.1,0.1l-0.1,0.1l-0.1,0.1l-0.1,0.1l-0.1,0.1l-0.3,0.1
		l-0.4,0.1l-0.2,0l-0.2,0h-0.2L297.3,23.2z M297.1,15.9h-0.3l-0.2,0l-0.2,0l-0.2,0.1l-0.1,0l-0.1,0.1l-0.3,0.1l-0.1,0.1l-0.1,0.1
		l-0.1,0.1l-0.3,0.3l-0.2,0.3l-0.2,0.3l-0.1,0.2l0,0.1l0,0.2l0,0.1l0,0.1l0,0.2l0,0.1h4.9l0-0.3l-0.1-0.3l0-0.1l0-0.1l0-0.1
		l-0.1-0.1l-0.1-0.2l-0.1-0.1l-0.3-0.4l-0.1-0.1l-0.1-0.1l-0.1-0.1l-0.3-0.2l-0.1-0.1l-0.4-0.1l-0.1,0L297.1,15.9z"/>
	<path fill="#FFFFFF" d="M309.1,14.8v0.2l0,0.1l0.1,0.2l0,0.1l0.1,0.1l0.1,0.1l0.1,0.1l0.2,0.2l0.1,0.1l0.3,0.2l0.4,0.2l0.1,0l0.1,0
		l0.1,0l0.1,0l0.1,0l0.2,0l0.1,0l0.2,0l0.2,0l0.2,0l0.2,0l0.5,0.1l0.2,0l0.2,0l0.5,0.2l0.4,0.2l0.1,0.1l0.2,0.1l0.2,0.1l0.1,0.1
		l0.1,0.1l0.3,0.3l0.1,0.1l0.1,0.1l0.1,0.1l0.1,0.1l0.1,0.1l0.1,0.1l0,0.2l0.1,0.3l0,0.3v0.4l0,0.3l-0.1,0.4l0,0.1l-0.1,0.1l0,0.1
		l-0.1,0.1l-0.1,0.1l-0.1,0.1l-0.1,0.1l-0.1,0.1l-0.3,0.3l-0.4,0.3l-0.3,0.1l-0.4,0.2l-0.3,0.1l-0.1,0l-0.3,0.1l-0.1,0l-0.2,0
		l-0.2,0H312l-0.2,0h-0.5l-0.7-0.1l-0.7-0.1l-0.1,0l-0.4-0.1l-0.3-0.1l-0.1,0l-0.1-0.1l-0.1-0.1l-0.1-0.1l-0.1-0.1l-0.1-0.1
		l-0.1-0.1l-0.1-0.1l-0.1-0.1l-0.5-0.4l-0.2-0.2l0.1-0.1l0.1-0.1l0.1-0.1l0.1-0.1l0.2-0.2l0.1-0.1l0.1-0.1l0.1-0.1l0.2,0.2l0.1,0.1
		l0.1,0.1l0.1,0.1l0.1,0.1l0.1,0.1l0.2,0.1l0.6,0.3l0.1,0.1l0.1,0l0.1,0.1l0.2,0l0.1,0l0.3,0.1l0.2,0l0.2,0l0.2,0h0.2l0.2,0h0.3
		l0.3,0l0.1,0l0.2,0l0.4-0.1l0.1-0.1l0.2-0.1l0.2-0.2l0.2-0.2l0.1-0.1l0.1-0.1l0-0.1l0-0.1l0.1-0.3v-0.3l0-0.2l0-0.2l0-0.1l-0.1-0.1
		l-0.1-0.1l-0.1-0.1l-0.1-0.1l-0.4-0.2l-0.5-0.2l-0.1,0l-0.3-0.1l-0.5-0.1l-0.2-0.1l-0.2,0l-0.2,0l-0.2,0l-0.2,0l-0.2,0l-0.5-0.1
		l-0.1,0l-0.4-0.1l-0.1,0l-0.2,0l-0.3-0.1l-0.1-0.1l-0.1-0.1l-0.2-0.1l-0.3-0.3l-0.1-0.1l-0.1-0.1l-0.2-0.3l-0.2-0.4l-0.1-0.1
		l-0.1-0.3l0-0.2l0-0.3v-0.4l0-0.2l0.1-0.4l0.1-0.2l0.1-0.3l0.1-0.3l0.1-0.1l0.1-0.1l0.1-0.1l0.1-0.1l0.2-0.2l0.1-0.1l0.1-0.1
		l0.1-0.1l0.4-0.2l0.3-0.1l0.1,0l0.1,0l0.1,0l0.1,0l0.2,0l0.1,0l0.2,0l0.1,0h0.2l0.1,0h0.5l0.6,0.1l0.1,0l0.2,0l0.3,0.1l0.3,0.1
		l0.1,0l0.5,0.2l0.3,0.1l0.4,0.2l0.1,0.1l0.1,0.1l0.5,0.4l-0.4,0.6l-0.1,0.1l-0.1,0.1l-0.2,0.2l-0.1-0.1l-0.4-0.3l-0.5-0.3l-0.2-0.1
		l-0.1,0l-0.1-0.1l-0.1-0.1l-0.1,0l-0.2,0l-0.1,0l-0.1,0l-0.3-0.1l-0.1,0h-0.1l-0.2,0h-0.3l-0.3,0l-0.3,0.1l-0.1,0l-0.3,0.1
		l-0.3,0.1l-0.1,0.1l-0.1,0.1l-0.1,0.1l-0.1,0.1l-0.1,0.1l-0.1,0.1l0,0.2l0,0.1L309.1,14.8z"/>
	<path fill="#FFFFFF" d="M318.2,16.1h-1.1v-1.2h1.1v-2.4h1.4v2.4h2.5v1.2h-2.5v4.7l0,0.2l0,0.1l0.1,0.3l0.1,0.1l0.1,0.1l0.1,0.1
		l0.1,0.1l0.1,0.1l0.1,0l0.1,0l0.1,0h0.3l0.1,0l0.4-0.1l0.1,0l0.1-0.1l0.2-0.1v1.2l-0.1,0.1l-0.1,0.1l-0.3,0.1l-0.1,0l-0.1,0l-0.1,0
		l-0.1,0h-0.1l-0.1,0h-0.3l-0.3,0l-0.4-0.1l-0.1-0.1l-0.1,0l-0.1-0.1l-0.2-0.2l-0.2-0.2l-0.1-0.1l-0.1-0.1l-0.1-0.1l-0.1-0.1
		l-0.1-0.2l-0.1-0.1l-0.1-0.4l0-0.3V16.1z"/>
	<path fill="#FFFFFF" d="M324.2,14.9h1.4v1.9l0.1-0.1l0.1-0.1l0.1-0.1l0.1-0.1l0.1-0.1L326,16l0.1-0.1l0.1-0.1l0.1-0.1l0.1-0.1
		l0.1-0.1l0.1-0.1l0.1-0.1l0.1-0.1l0.2-0.1l0.1-0.1l0.1-0.1l0.1-0.1l0.4-0.1l0.2,0l0.1,0l0.2,0h0.5v1.3h-0.3l-0.3,0l-0.1,0l-0.3,0.1
		l-0.2,0l-0.1,0.1l-0.2,0.1l-0.1,0.1l-0.5,0.4l-0.2,0.2l-0.2,0.2l-0.1,0.1l-0.1,0.1l-0.1,0.1l-0.3,0.7l0,0.1l0,0.1l0,0.1l0,0.1
		l0,0.1l0,0.3v0.2l0,0.1V23h-1.4V14.9z"/>
	<path fill="#FFFFFF" d="M334.1,23.2h-0.3l-0.1,0l-0.2,0l-0.3,0l-0.1,0l-0.1,0l-0.4-0.1l-0.3-0.1l-0.1-0.1l-0.3-0.1l-0.4-0.3
		l-0.1-0.1l-0.2-0.2l-0.1-0.1l-0.2-0.2l-0.1-0.1l-0.1-0.1l-0.1-0.1l-0.2-0.3l-0.2-0.5l-0.1-0.3l0-0.1l0-0.1l0-0.1l0-0.1l0-0.2l0-0.1
		v-0.2l0-0.2v-0.3l0-0.2v-0.1l0-0.2l0-0.1l0.1-0.5l0-0.1l0.1-0.3l0-0.1l0.1-0.3l0.1-0.1l0.1-0.1l0.1-0.1l0.1-0.1l0.1-0.1l0.2-0.2
		l0.1-0.1l0.2-0.2l0.1-0.1l0.4-0.3l0.2-0.2l0.1-0.1l0.3-0.1l0.4-0.1l0.4-0.1l0.3,0l0.2,0h0.3l0.2,0l0.3,0l0.4,0.1l0.3,0.1l0.3,0.1
		l0.1,0.1l0.1,0.1l0.5,0.3l0.1,0.1l0.1,0.1l0.3,0.3l0.1,0.1l0.2,0.3l0.1,0.1l0.2,0.4l0.1,0.3l0.1,0.3l0.1,0.4l0,0.2l0,0.1l0,0.2v0.2
		l0,0.2v0.4l0,0.2h-6.3l0,0.1l0,0.2l0,0.1l0,0.1l0.1,0.3l0,0.1l0.3,0.5l0.3,0.3l0.1,0.1l0.1,0.1l0.3,0.2l0.3,0.1l0.3,0.1l0.1,0
		l0.1,0l0.2,0l0.3,0h0.3l0.5,0l0.1,0l0.1,0l0.1,0l0.1,0l0.4-0.2l0.1-0.1l0.1-0.1l0.2-0.2l0.3-0.3l0.1-0.1l0.2,0.2l0.2,0.2l0.1,0.1
		l0.1,0.1l0.1,0.1l0.1,0.1L337,22l-0.1,0.1l-0.1,0.1l-0.5,0.4l-0.1,0.1l-0.1,0.1l-0.1,0.1l-0.1,0.1l-0.1,0.1l-0.1,0.1l-0.3,0.1
		l-0.4,0.1l-0.2,0l-0.2,0h-0.2L334.1,23.2z M333.9,15.9h-0.3l-0.2,0l-0.2,0l-0.2,0.1l-0.1,0l-0.1,0.1l-0.3,0.1l-0.1,0.1l-0.1,0.1
		l-0.1,0.1l-0.3,0.3l-0.2,0.3l-0.2,0.3l-0.1,0.2l0,0.1l0,0.2l0,0.1l0,0.1l0,0.2l0,0.1h4.9l0-0.3l-0.1-0.3l0-0.1l0-0.1l0-0.1
		l-0.1-0.1l-0.1-0.2l-0.1-0.1l-0.3-0.4l-0.1-0.1l-0.1-0.1l-0.1-0.1l-0.3-0.2l-0.1-0.1l-0.4-0.1l-0.1,0L333.9,15.9z"/>
	<path fill="#FFFFFF" d="M339.7,14.9h1.4v1.4l0.1-0.1l0.2-0.2l0.2-0.2l0.2-0.2l0.1-0.1l0.1-0.1l0.1-0.1l0.1-0.1l0.1-0.1l0.2-0.1
		l0.1-0.1l0.2,0l0.4-0.1l0.1,0l0.2,0h0.3l0.1,0l0.3,0l0.4,0.1l0.1,0l0.1,0l0.4,0.2l0.1,0.1l0.1,0.1l0.2,0.2l0.1,0.1l0.1,0.1l0.2,0.2
		l0.1,0.1l0.1,0.1l0.2,0.4l0,0.1l0,0.1l0.1,0.3l0,0.2l0,0.1v0.2l0,0.1V23h-1.4v-4.9l0-0.3l0-0.2l0-0.2l-0.1-0.3l-0.1-0.1l-0.1-0.2
		l-0.1-0.1l-0.1-0.1l-0.1-0.1l-0.1-0.1l-0.2-0.2l-0.1-0.1l-0.1-0.1l-0.2,0l-0.1,0l-0.2,0l-0.2,0h-0.3l-0.2,0l-0.3,0.1l-0.3,0.1
		l-0.3,0.1l-0.2,0.2l-0.1,0.1l-0.2,0.2l-0.1,0.1l-0.1,0.1l-0.1,0.1l-0.1,0.1l-0.1,0.1l-0.1,0.1l-0.1,0.4l0,0.3V23h-1.4V14.9z"/>
	<path fill="#FFFFFF" d="M355.9,14.9h1.4v6.8l0,0.2V22l0,0.2l0,0.2l-0.1,0.5l-0.1,0.3l-0.1,0.1l-0.1,0.1l0,0.1l-0.1,0.1l-0.1,0.1
		l-0.3,0.4l-0.1,0.1l-0.1,0.1l-0.3,0.3l-0.1,0.1l-0.2,0.1l-0.3,0.1l-0.3,0.1l-0.1,0l-0.2,0l-0.1,0l-0.1,0l-0.4,0.1l-0.6,0.1h-0.6
		l-0.8-0.1l-0.4-0.1l-0.1,0l-0.2,0l-0.1,0l-0.6-0.2l-0.4-0.2l-0.1-0.1l-0.1-0.1l-0.1-0.1l-0.1-0.1l-0.3-0.2l0.1-0.1l0.2-0.4l0.1-0.2
		l0.2-0.3l0.1-0.1l0.1,0.1l0.3,0.2l0.3,0.1l0.3,0.1l0.3,0.1l0.1,0l0.2,0.1l0.1,0l0.1,0l0.1,0l0.4,0.1l0.3,0h0.2l0.2,0h0.3l0.5,0
		l0.3-0.1l0.3-0.1l0.1-0.1l0.1,0l0.2-0.1l0.1-0.1l0.2-0.2l0.1-0.1l0.2-0.2l0.1-0.1l0.1-0.1l0.1-0.1l0.1-0.1l0.1-0.3l0-0.2l0-0.1
		l0-0.2l0-0.2l0-0.2v-1l-0.1,0.1l-0.1,0.1l-0.1,0.1l-0.1,0.1l-0.1,0.1l-0.1,0.1l-0.2,0.2l-0.1,0.1l-0.1,0.1l-0.4,0.2l-0.4,0.2
		l-0.3,0.1l-0.4,0.1l-0.5,0h-0.3l-0.5-0.1l-0.2,0l-0.1,0l-0.1,0l-0.1,0l-0.1-0.1l-0.1,0l-0.3-0.1l-0.4-0.2l-0.1-0.1l-0.1-0.1
		l-0.1-0.1l-0.3-0.3l-0.2-0.2l-0.1-0.1l-0.1-0.1l-0.2-0.3l-0.1-0.1l-0.1-0.3l-0.1-0.3l0-0.1l0-0.1l0-0.2l-0.1-0.6v-0.4l0.1-0.6
		l0-0.1l0-0.1l0-0.1l0.2-0.5l0.3-0.5l0.2-0.2l0.2-0.2l0.3-0.3l0.1-0.1l0.2-0.2l0.2-0.1l0.1-0.1l0.1-0.1l0.1-0.1l0.3-0.1l0.1,0l0.1,0
		l0.2,0l0.3,0l0.1,0l0.1,0h0.3l0.2,0l0.3,0l0.2,0l0.1,0l0.1,0l0.3,0.1l0.1,0l0.2,0.1l0.6,0.4l0.2,0.2l0.2,0.2l0.1,0.1l0.1,0.1
		l0.1,0.1V14.9z M353,21.1h0.3l0.3,0l0.3-0.1l0.2,0l0.1-0.1l0.2,0l0.1-0.1l0.1-0.1l0.4-0.2l0.2-0.2l0.2-0.2l0.1-0.1l0.1-0.1l0.1-0.3
		l0.1-0.1l0.1-0.2l0-0.1l0.1-0.3l0-0.2v-0.4l0-0.2l-0.1-0.3l0-0.2l-0.1-0.1l-0.1-0.1l-0.1-0.3l-0.1-0.1l-0.3-0.3l-0.1-0.1l-0.1-0.1
		l-0.5-0.3l-0.1-0.1l-0.2-0.1l-0.3-0.1l-0.1,0l-0.2,0l-0.3,0H353l-0.3,0l-0.2,0l-0.1,0l-0.3,0.1l-0.2,0.1l-0.3,0.1l-0.2,0.1
		l-0.1,0.1l-0.2,0.2l-0.1,0.1l-0.2,0.2l-0.2,0.3l-0.1,0.3l0,0.1l-0.1,0.5l0,0.2v0.4l0,0.2l0.1,0.4l0,0.1l0.1,0.3l0.2,0.4l0.1,0.1
		l0.1,0.1l0.1,0.1l0.3,0.3l0.1,0.1l0.1,0.1l0.1,0.1l0.1,0l0.1,0.1l0.2,0l0.1,0l0.2,0L353,21.1z"/>
	<path fill="#FFFFFF" d="M360.4,16.1h-1.1v-1.2h1.1v-2.4h1.4v2.4h2.5v1.2h-2.5v4.7l0,0.2l0,0.1l0.1,0.3l0.1,0.1l0.1,0.1l0.1,0.1
		l0.1,0.1l0.1,0.1l0.1,0l0.1,0l0.1,0h0.3l0.1,0l0.4-0.1l0.1,0l0.1-0.1l0.2-0.1v1.2l-0.1,0.1l-0.1,0.1l-0.3,0.1l-0.1,0l-0.1,0l-0.1,0
		l-0.1,0H363l-0.1,0h-0.3l-0.3,0l-0.4-0.1l-0.1-0.1l-0.1,0l-0.1-0.1l-0.2-0.2l-0.2-0.2l-0.1-0.1l-0.1-0.1l-0.1-0.1l-0.1-0.1
		l-0.1-0.2l-0.1-0.1l-0.1-0.4l0-0.3V16.1z"/>
	<path fill="#FFFFFF" d="M366.4,11.6h1.4v4.6l0.1-0.1l0.2-0.2l0.2-0.2l0.2-0.2l0.1-0.1l0.1-0.1l0.1-0.1l0.1-0.1l0.1-0.1l0.2-0.1
		l0.1-0.1l0.2,0l0.4-0.1l0.1,0l0.2,0h0.3l0.1,0l0.3,0l0.4,0.1l0.1,0l0.1,0l0.4,0.2l0.1,0.1l0.1,0.1l0.2,0.2l0.1,0.1l0.1,0.1l0.2,0.2
		l0.1,0.1l0.1,0.1l0.2,0.4l0,0.1l0,0.1l0.1,0.3l0,0.2l0,0.1v0.2l0,0.1V23h-1.4v-4.9l0-0.3l0-0.2l0-0.2l-0.1-0.3l-0.1-0.1l-0.1-0.2
		l-0.1-0.1l-0.1-0.1l-0.1-0.1l-0.1-0.1l-0.2-0.2l-0.1-0.1l-0.1-0.1l-0.2,0l-0.1,0l-0.2,0l-0.2,0h-0.3l-0.2,0l-0.3,0.1l-0.3,0.1
		l-0.3,0.1l-0.2,0.2l-0.1,0.1l-0.2,0.2l-0.1,0.1l-0.1,0.1l-0.1,0.1l-0.1,0.1l-0.1,0.1l-0.1,0.1l-0.1,0.4l0,0.3V23h-1.4V11.6z"/>
	<path fill="#FFFFFF" d="M380,23.2h-0.3l-0.1,0l-0.2,0l-0.3,0l-0.1,0l-0.1,0l-0.4-0.1l-0.3-0.1l-0.1-0.1l-0.3-0.1l-0.4-0.3l-0.1-0.1
		l-0.2-0.2l-0.1-0.1l-0.2-0.2l-0.1-0.1l-0.1-0.1l-0.1-0.1l-0.2-0.3l-0.2-0.5l-0.1-0.3l0-0.1l0-0.1l0-0.1l0-0.1l0-0.2l0-0.1v-0.2
		l0-0.2v-0.3l0-0.2v-0.1l0-0.2l0-0.1l0.1-0.5l0-0.1l0.1-0.3l0-0.1l0.1-0.3l0.1-0.1l0.1-0.1l0.1-0.1l0.1-0.1l0.1-0.1l0.2-0.2l0.1-0.1
		l0.2-0.2l0.1-0.1l0.4-0.3l0.2-0.2l0.1-0.1l0.3-0.1l0.4-0.1l0.4-0.1l0.3,0l0.2,0h0.3l0.2,0l0.3,0l0.4,0.1l0.3,0.1l0.3,0.1l0.1,0.1
		l0.1,0.1l0.5,0.3l0.1,0.1l0.1,0.1l0.3,0.3l0.1,0.1l0.2,0.3l0.1,0.1l0.2,0.4l0.1,0.3l0.1,0.3l0.1,0.4l0,0.2l0,0.1l0,0.2v0.2l0,0.2
		v0.4l0,0.2h-6.3l0,0.1l0,0.2l0,0.1l0,0.1l0.1,0.3l0,0.1l0.3,0.5l0.3,0.3l0.1,0.1l0.1,0.1l0.3,0.2l0.3,0.1l0.3,0.1l0.1,0l0.1,0
		l0.2,0l0.3,0h0.3l0.5,0l0.1,0l0.1,0l0.1,0l0.1,0l0.4-0.2l0.1-0.1l0.1-0.1l0.2-0.2l0.3-0.3l0.1-0.1l0.2,0.2l0.2,0.2l0.1,0.1l0.1,0.1
		l0.1,0.1l0.1,0.1l-0.3,0.3l-0.1,0.1l-0.1,0.1l-0.5,0.4l-0.1,0.1l-0.1,0.1l-0.1,0.1l-0.1,0.1l-0.1,0.1l-0.1,0.1l-0.3,0.1l-0.4,0.1
		l-0.2,0l-0.2,0h-0.2L380,23.2z M379.8,15.9h-0.3l-0.2,0l-0.2,0L379,16l-0.1,0l-0.1,0.1l-0.3,0.1l-0.1,0.1l-0.1,0.1l-0.1,0.1
		l-0.3,0.3l-0.2,0.3l-0.2,0.3l-0.1,0.2l0,0.1l0,0.2l0,0.1l0,0.1l0,0.2l0,0.1h4.9l0-0.3l-0.1-0.3l0-0.1l0-0.1l0-0.1l-0.1-0.1
		l-0.1-0.2l-0.1-0.1l-0.3-0.4l-0.1-0.1l-0.1-0.1l-0.1-0.1l-0.3-0.2l-0.1-0.1l-0.4-0.1l-0.1,0L379.8,15.9z"/>
	<path fill="#FFFFFF" d="M385.6,14.9h1.4v1.4l0.1-0.1l0.2-0.2l0.2-0.2l0.2-0.2l0.1-0.1l0.1-0.1l0.1-0.1l0.1-0.1l0.1-0.1l0.2-0.1
		l0.1-0.1l0.2,0l0.4-0.1l0.1,0l0.2,0h0.3l0.1,0l0.3,0l0.4,0.1l0.1,0l0.1,0l0.4,0.2l0.1,0.1l0.1,0.1l0.2,0.2l0.1,0.1l0.1,0.1l0.2,0.2
		l0.1,0.1l0.1,0.1l0.2,0.4l0,0.1l0,0.1l0.1,0.3l0,0.2l0,0.1v0.2l0,0.1V23h-1.4v-4.9l0-0.3l0-0.2l0-0.2l-0.1-0.3l-0.1-0.1l-0.1-0.2
		l-0.1-0.1l-0.1-0.1l-0.1-0.1l-0.1-0.1l-0.2-0.2l-0.1-0.1l-0.1-0.1l-0.2,0l-0.1,0l-0.2,0l-0.2,0h-0.3l-0.2,0l-0.3,0.1l-0.3,0.1
		l-0.3,0.1l-0.2,0.2l-0.1,0.1l-0.2,0.2l-0.1,0.1l-0.1,0.1l-0.1,0.1l-0.1,0.1l-0.1,0.1l-0.1,0.1l-0.1,0.4l0,0.3V23h-1.4V14.9z"/>
	<path fill="#FFFFFF" d="M395.4,11.9h1.6v1.3h-1.6V11.9z M395.5,14.9h1.4V23h-1.4V14.9z"/>
	<path fill="#FFFFFF" d="M399.7,14.9h1.4v1.4l0.1-0.1l0.2-0.2l0.2-0.2l0.2-0.2l0.1-0.1l0.1-0.1l0.1-0.1l0.1-0.1l0.1-0.1l0.2-0.1
		l0.1-0.1l0.2,0l0.4-0.1l0.1,0l0.2,0h0.3l0.1,0l0.3,0l0.4,0.1l0.1,0l0.1,0l0.4,0.2l0.1,0.1l0.1,0.1l0.2,0.2l0.1,0.1l0.1,0.1l0.2,0.2
		l0.1,0.1l0.1,0.1l0.2,0.4l0,0.1l0,0.1l0.1,0.3l0,0.2l0,0.1v0.2l0,0.1V23h-1.4v-4.9l0-0.3l0-0.2l0-0.2l-0.1-0.3l-0.1-0.1l-0.1-0.2
		l-0.1-0.1l-0.1-0.1l-0.1-0.1l-0.1-0.1l-0.2-0.2l-0.1-0.1l-0.1-0.1l-0.2,0l-0.1,0l-0.2,0l-0.2,0h-0.3l-0.2,0l-0.3,0.1l-0.3,0.1
		l-0.3,0.1l-0.2,0.2l-0.1,0.1l-0.2,0.2l-0.1,0.1l-0.1,0.1l-0.1,0.1l-0.1,0.1l-0.1,0.1l-0.1,0.1l-0.1,0.4l0,0.3V23h-1.4V14.9z"/>
	<path fill="#FFFFFF" d="M415.8,14.9h1.4v6.8l0,0.2V22l0,0.2l0,0.2l-0.1,0.5l-0.1,0.3l-0.1,0.1l-0.1,0.1l0,0.1l-0.1,0.1l-0.1,0.1
		l-0.3,0.4l-0.1,0.1l-0.1,0.1l-0.3,0.3l-0.1,0.1l-0.2,0.1l-0.3,0.1l-0.3,0.1l-0.1,0l-0.2,0l-0.1,0l-0.1,0l-0.4,0.1l-0.6,0.1h-0.6
		l-0.8-0.1l-0.4-0.1l-0.1,0l-0.2,0l-0.1,0l-0.6-0.2l-0.4-0.2l-0.1-0.1l-0.1-0.1l-0.1-0.1l-0.1-0.1l-0.3-0.2l0.1-0.1l0.2-0.4l0.1-0.2
		l0.2-0.3l0.1-0.1l0.1,0.1l0.3,0.2l0.3,0.1l0.3,0.1l0.3,0.1l0.1,0l0.2,0.1l0.1,0l0.1,0l0.1,0l0.4,0.1l0.3,0h0.2l0.2,0h0.3l0.5,0
		l0.3-0.1l0.3-0.1l0.1-0.1l0.1,0l0.2-0.1l0.1-0.1l0.2-0.2l0.1-0.1l0.2-0.2l0.1-0.1l0.1-0.1l0.1-0.1l0.1-0.1l0.1-0.3l0-0.2l0-0.1
		l0-0.2l0-0.2l0-0.2v-1l-0.1,0.1l-0.1,0.1l-0.1,0.1l-0.1,0.1l-0.1,0.1l-0.1,0.1l-0.2,0.2l-0.1,0.1l-0.1,0.1l-0.4,0.2l-0.4,0.2
		l-0.3,0.1l-0.4,0.1l-0.5,0h-0.3l-0.5-0.1l-0.2,0l-0.1,0l-0.1,0l-0.1,0l-0.1-0.1l-0.1,0l-0.3-0.1l-0.4-0.2l-0.1-0.1l-0.1-0.1
		l-0.1-0.1l-0.3-0.3l-0.2-0.2l-0.1-0.1l-0.1-0.1l-0.2-0.3l-0.1-0.1l-0.1-0.3l-0.1-0.3l0-0.1l0-0.1l0-0.2l-0.1-0.6v-0.4l0.1-0.6
		l0-0.1l0-0.1l0-0.1l0.2-0.5l0.3-0.5l0.2-0.2l0.2-0.2l0.3-0.3l0.1-0.1l0.2-0.2l0.2-0.1l0.1-0.1l0.1-0.1l0.1-0.1l0.3-0.1l0.1,0l0.1,0
		l0.2,0l0.3,0l0.1,0l0.1,0h0.3l0.2,0l0.3,0l0.2,0l0.1,0l0.1,0l0.3,0.1l0.1,0l0.2,0.1l0.6,0.4l0.2,0.2l0.2,0.2l0.1,0.1l0.1,0.1
		l0.1,0.1V14.9z M412.9,21.1h0.3l0.3,0l0.3-0.1l0.2,0l0.1-0.1l0.2,0l0.1-0.1l0.1-0.1l0.4-0.2l0.2-0.2l0.2-0.2l0.1-0.1l0.1-0.1
		l0.1-0.3l0.1-0.1l0.1-0.2l0-0.1l0.1-0.3l0-0.2v-0.4l0-0.2l-0.1-0.3l0-0.2l-0.1-0.1l-0.1-0.1l-0.1-0.3l-0.1-0.1l-0.3-0.3l-0.1-0.1
		l-0.1-0.1l-0.5-0.3l-0.1-0.1l-0.2-0.1l-0.3-0.1l-0.1,0l-0.2,0l-0.3,0h-0.3l-0.3,0l-0.2,0l-0.1,0l-0.3,0.1l-0.2,0.1l-0.3,0.1
		l-0.2,0.1l-0.1,0.1l-0.2,0.2l-0.1,0.1l-0.2,0.2l-0.2,0.3l-0.1,0.3l0,0.1l-0.1,0.5l0,0.2v0.4l0,0.2l0.1,0.4l0,0.1l0.1,0.3l0.2,0.4
		l0.1,0.1l0.1,0.1l0.1,0.1l0.3,0.3l0.1,0.1l0.1,0.1l0.1,0.1l0.1,0l0.1,0.1l0.2,0l0.1,0l0.2,0L412.9,21.1z"/>
</g>
<g>
	<path fill="#FFFFFF" d="M234,28.1h4.9l0.2,0h0.2l0.3,0l0.1,0l0.2,0l0.1,0l0.1,0.1l0.1,0l0.3,0.1l0.3,0.1l0.1,0.1l0.2,0.1l0.3,0.2
		l0.1,0.1l0.2,0.2l0.3,0.3l0.3,0.4l0.1,0.1l0.2,0.4l0.1,0.1l0.1,0.5l0,0.3v0.4l0,0.2l0,0.1l0,0.2l0,0.1l-0.1,0.4l-0.1,0.1l-0.1,0.2
		l-0.1,0.1l-0.1,0.1l-0.1,0.1l-0.1,0.1l-0.1,0.1l-0.4,0.4l-0.2,0.1l-0.1,0.1l-0.3,0.1l-0.1,0.1l-0.1,0l-0.1,0.1l-0.2,0l-0.1,0
		l-0.2,0l-0.1,0l0.2,0.2l0.3,0.4l0.1,0.1l0.1,0.1l0.4,0.5l0.6,0.8l0.1,0.1l0.4,0.5l0.3,0.4l0.6,0.9l0.3,0.4h-1.7l-0.5-0.6l-0.1-0.1
		l-0.1-0.1l-0.1-0.1l-0.1-0.1l-0.6-0.8l-0.1-0.1l-0.4-0.5l-0.4-0.5l-0.5-0.7l-0.3-0.4h-2.9V39H234V28.1z M235.4,33.6h3.4l0.5,0
		l0.1,0l0.2,0l0.1,0l0.5-0.2l0.3-0.2l0.1-0.1l0.3-0.3l0.1-0.2l0.1-0.1l0.1-0.1l0-0.1l0-0.2l0-0.1l0-0.2v-0.4l0-0.1l0-0.2l0-0.1
		l-0.1-0.3l-0.1-0.1l-0.1-0.1l-0.2-0.2l-0.1-0.1l-0.1-0.1l-0.3-0.2l-0.1-0.1l-0.1,0l-0.1,0l-0.1,0l-0.3-0.1l-0.1,0l-0.5,0h-3.4V33.6
		z"/>
	<path fill="#FFFFFF" d="M248.8,39.2h-0.3l-0.1,0l-0.2,0l-0.3,0l-0.1,0l-0.1,0l-0.4-0.1l-0.3-0.1l-0.1-0.1l-0.3-0.1l-0.4-0.3
		l-0.1-0.1l-0.2-0.2l-0.1-0.1l-0.2-0.2l-0.1-0.1l-0.1-0.1l-0.1-0.1l-0.2-0.3l-0.2-0.5l-0.1-0.3l0-0.1l0-0.1l0-0.1l0-0.1l0-0.2l0-0.1
		v-0.2l0-0.2v-0.3l0-0.2v-0.1l0-0.2l0-0.1l0.1-0.5l0-0.1l0.1-0.3l0-0.1l0.1-0.3l0.1-0.1l0.1-0.1l0.1-0.1l0.1-0.1l0.1-0.1l0.2-0.2
		l0.1-0.1l0.2-0.2l0.1-0.1l0.4-0.3l0.2-0.2l0.1-0.1l0.3-0.1l0.4-0.1l0.4-0.1l0.3,0l0.2,0h0.3l0.2,0l0.3,0l0.4,0.1l0.3,0.1l0.3,0.1
		l0.1,0.1l0.1,0.1l0.5,0.3l0.1,0.1l0.1,0.1l0.3,0.3l0.1,0.1l0.2,0.3l0.1,0.1l0.2,0.4l0.1,0.3l0.1,0.3l0.1,0.4l0,0.2l0,0.1l0,0.2v0.2
		l0,0.2v0.4l0,0.2H246l0,0.1l0,0.2l0,0.1l0,0.1l0.1,0.3l0,0.1l0.3,0.5l0.3,0.3l0.1,0.1l0.1,0.1l0.3,0.2l0.3,0.1l0.3,0.1l0.1,0l0.1,0
		l0.2,0l0.3,0h0.3l0.5,0l0.1,0l0.1,0l0.1,0l0.1,0l0.4-0.2l0.1-0.1l0.1-0.1l0.2-0.2L251,37l0.1-0.1l0.2,0.2l0.2,0.2l0.1,0.1l0.1,0.1
		l0.1,0.1l0.1,0.1l-0.3,0.3l-0.1,0.1l-0.1,0.1l-0.5,0.4l-0.1,0.1l-0.1,0.1l-0.1,0.1l-0.1,0.1l-0.1,0.1l-0.1,0.1l-0.3,0.1l-0.4,0.1
		l-0.2,0l-0.2,0H249L248.8,39.2z M248.6,31.9h-0.3l-0.2,0l-0.2,0l-0.2,0.1l-0.1,0l-0.1,0.1l-0.3,0.1l-0.1,0.1l-0.1,0.1l-0.1,0.1
		l-0.3,0.3l-0.2,0.3l-0.2,0.3l-0.1,0.2l0,0.1l0,0.2l0,0.1l0,0.1l0,0.2l0,0.1h4.9l0-0.3l-0.1-0.3l0-0.1l0-0.1l0-0.1l-0.1-0.1
		l-0.1-0.2l-0.1-0.1l-0.3-0.4l-0.1-0.1l-0.1-0.1l-0.1-0.1l-0.3-0.2l-0.1-0.1l-0.4-0.1l-0.1,0L248.6,31.9z"/>
	<path fill="#FFFFFF" d="M257.3,39.1H257l-0.1,0h-0.1l-0.2,0l-0.1,0l-0.1,0L256,39l-0.1,0l-0.2,0l-0.1,0l-0.2-0.1l-0.1,0l-0.2-0.1
		l-0.1-0.1l-0.2-0.1l-0.4-0.2l-0.1-0.1l-0.5-0.3l0.2-0.3l0.1-0.1l0.2-0.2l0.2-0.3l0.1-0.1l0.1,0.1l0.1,0.1l0.1,0.1l0.1,0.1l0.3,0.1
		l0.1,0.1l0.3,0.1l0.2,0l0.1,0.1l0.5,0.1l0.1,0l0.5,0h0.3l0.2,0l0.3-0.1l0.1-0.1l0.2-0.1l0.1-0.1l0.1-0.1l0.2-0.2l0.1-0.1l0-0.1
		l0-0.1l0-0.2v0l0-0.2l-0.1-0.2l-0.1-0.2l-0.3-0.3l-0.1-0.1l-0.1-0.1l-0.4-0.1l-0.1-0.1l-0.7-0.2l-0.1,0l-0.7-0.2l-0.3-0.1l-0.4-0.2
		l-0.5-0.3l-0.2-0.2l-0.2-0.2l-0.1-0.1l-0.1-0.1l0-0.1l-0.1-0.3l0-0.1v-0.3l0-0.2l0.1-0.3l0-0.1l0-0.1l0.1-0.1l0.1-0.1l0.2-0.3
		l0.1-0.1l0.1-0.1l0.2-0.2l0.3-0.1l0.3-0.1l0.1-0.1l0.2,0l0.1,0l0.3-0.1l0.3,0l0.1,0l0.2,0h0.3l0.1,0h0.2l0.1,0l0.2,0l0.3,0.1l0.1,0
		l0.2,0l0.1,0l0.3,0.1l0.2,0l0.1,0.1l0.2,0.1l0.1,0.1l0.3,0.2l0.1,0.1l0.1,0.1l-0.1,0.1l-0.1,0.1l-0.4,0.6l-0.1,0.1l-0.3-0.2
		l-0.1-0.1l-0.1-0.1l-0.1-0.1l-0.1-0.1l-0.1,0l-0.1-0.1l-0.6-0.2l-0.2,0l-0.3,0l-0.1,0h-0.3l-0.2,0l-0.2,0l-0.3,0.1l-0.1,0.1
		l-0.1,0.1l-0.1,0.1l-0.1,0.1l-0.1,0.1l0,0.1l0,0.1l0,0.2v0l0,0.2l0.1,0.2l0.1,0.1l0.1,0.1l0.2,0.2l0.2,0.1l0.1,0.1l0.1,0l0.1,0
		l0.4,0.1l0.2,0l0.4,0.1l0.1,0l0.1,0l0.1,0.1l0.1,0l0.1,0.1l0.1,0l0.2,0.1l0.4,0.2l0.1,0.1l0.1,0.1l0.1,0.1l0.1,0.1l0.1,0.1l0.3,0.3
		L260,36l0,0.2l0,0.1l0,0.2v0.4l0,0.2l-0.1,0.3l-0.1,0.3l-0.1,0.1l-0.2,0.4l-0.1,0.1l-0.2,0.2l-0.1,0.1l-0.1,0.1l-0.4,0.2l-0.1,0.1
		l-0.4,0.1l-0.1,0l-0.2,0l-0.1,0l-0.2,0h-0.1L257.3,39.1z"/>
	<path fill="#FFFFFF" d="M266.1,39.2h-0.3l-0.1,0l-0.2,0l-0.3,0l-0.1,0l-0.1,0l-0.4-0.1l-0.3-0.1l-0.1-0.1l-0.3-0.1l-0.4-0.3
		l-0.1-0.1L263,38l-0.1-0.1l-0.2-0.2l-0.1-0.1l-0.1-0.1l-0.1-0.1l-0.2-0.3l-0.2-0.5l-0.1-0.3l0-0.1l0-0.1l0-0.1l0-0.1l0-0.2l0-0.1
		v-0.2l0-0.2v-0.3l0-0.2v-0.1l0-0.2l0-0.1l0.1-0.5l0-0.1l0.1-0.3l0-0.1l0.1-0.3l0.1-0.1l0.1-0.1l0.1-0.1l0.1-0.1l0.1-0.1l0.2-0.2
		l0.1-0.1l0.2-0.2l0.1-0.1l0.4-0.3l0.2-0.2l0.1-0.1l0.3-0.1l0.4-0.1l0.4-0.1l0.3,0l0.2,0h0.3l0.2,0l0.3,0l0.4,0.1l0.3,0.1l0.3,0.1
		l0.1,0.1l0.1,0.1l0.5,0.3l0.1,0.1l0.1,0.1l0.3,0.3l0.1,0.1l0.2,0.3l0.1,0.1l0.2,0.4l0.1,0.3l0.1,0.3l0.1,0.4l0,0.2l0,0.1l0,0.2v0.2
		l0,0.2v0.4l0,0.2h-6.3l0,0.1l0,0.2l0,0.1l0,0.1l0.1,0.3l0,0.1l0.3,0.5l0.3,0.3l0.1,0.1l0.1,0.1l0.3,0.2l0.3,0.1l0.3,0.1l0.1,0
		l0.1,0l0.2,0l0.3,0h0.3l0.5,0l0.1,0l0.1,0l0.1,0l0.1,0l0.4-0.2l0.1-0.1l0.1-0.1l0.2-0.2l0.3-0.3l0.1-0.1l0.2,0.2l0.2,0.2l0.1,0.1
		l0.1,0.1l0.1,0.1l0.1,0.1L269,38l-0.1,0.1l-0.1,0.1l-0.5,0.4l-0.1,0.1l-0.1,0.1l-0.1,0.1l-0.1,0.1l-0.1,0.1l-0.1,0.1l-0.3,0.1
		l-0.4,0.1l-0.2,0l-0.2,0h-0.2L266.1,39.2z M265.9,31.9h-0.3l-0.2,0l-0.2,0l-0.2,0.1l-0.1,0l-0.1,0.1l-0.3,0.1l-0.1,0.1l-0.1,0.1
		l-0.1,0.1l-0.3,0.3l-0.2,0.3l-0.2,0.3l-0.1,0.2l0,0.1l0,0.2l0,0.1l0,0.1l0,0.2l0,0.1h4.9l0-0.3l-0.1-0.3l0-0.1l0-0.1l0-0.1
		l-0.1-0.1l-0.1-0.2l-0.1-0.1l-0.3-0.4l-0.1-0.1l-0.1-0.1l-0.1-0.1l-0.3-0.2l-0.1-0.1l-0.4-0.1l-0.1,0L265.9,31.9z"/>
	<path fill="#FFFFFF" d="M278.4,39H277v-1.2l-0.4,0.4l-0.1,0.1l-0.1,0.1l-0.1,0.1l-0.1,0.1l-0.3,0.1l-0.4,0.2l-0.3,0.1l-0.2,0
		l-0.3,0.1l-0.1,0l-0.2,0l-0.2,0H274l-0.2,0l-0.1,0l-0.3,0l-0.3-0.1l-0.3-0.1l-0.2-0.1l-0.1-0.1l-0.1-0.1l-0.1-0.1l-0.1-0.1
		l-0.1-0.1l-0.1-0.1l-0.2-0.2l-0.2-0.2l-0.2-0.3l-0.1-0.1l-0.1-0.2l0-0.1l0-0.1l0-0.1l0-0.1v-0.3l0-0.2l0-0.1l0-0.2l0.1-0.4l0.1-0.1
		l0.1-0.1l0.1-0.1l0.2-0.2l0.1-0.1l0.2-0.2l0.3-0.2l0.3-0.1l0.1-0.1l0.4-0.1l0.4-0.1l0.1,0l0.2,0h0.2l0.2,0h0.5l0.1,0h0.2l0.6,0.1
		l0.4,0.1l0.2,0l0.2,0l0.4,0.1v-0.4l0-0.2l-0.1-0.3l0-0.1l-0.1-0.1l-0.1-0.1l-0.1-0.1l-0.1-0.1l-0.1-0.1l-0.1-0.1l-0.1-0.1l-0.1-0.1
		l-0.1-0.1l-0.1-0.1l-0.1-0.1l-0.1,0l-0.2,0l-0.1,0l-0.2,0l-0.3,0h-0.3l-0.1,0h-0.2l-0.3,0l-0.1,0l-0.1,0l-0.1,0l-0.1,0l-0.3,0.1
		l-0.3,0.1l-0.1,0l-0.1,0.1l-0.2,0.1l-0.1,0.1l0-0.1l-0.1-0.1l-0.1-0.3l-0.1-0.1l0-0.1l-0.1-0.2l0-0.1l0.3-0.1l0.1,0l0.1-0.1
		l0.3-0.1l0.1-0.1l0.1,0l0.1,0l0.1,0l0.4-0.1l0.1,0l0.8-0.1h0.5l0.2,0h0.2l0.2,0l0.2,0l0.2,0l0.1,0l0.2,0l0.1,0l0.3,0.1l0.1,0.1
		l0.1,0.1l0.2,0.1l0.2,0.2l0.1,0.1l0.2,0.2l0.2,0.2l0.1,0.2l0.1,0.2l0.1,0.1l0.1,0.3l0,0.2l0,0.1l0,0.2l0.1,0.6V39z M274.3,38h0.3
		l0.5,0l0.3-0.1l0.6-0.2l0.1-0.1l0.1-0.1l0.1-0.1l0.3-0.3l0.1-0.1l0.2-0.2l0.1-0.1l0.1-0.3l0-0.1l0-0.1v-0.8l-0.1,0l-0.3-0.1l-0.1,0
		l-0.3-0.1l-0.3-0.1l-0.6-0.1l-0.2,0h-0.5l-0.3,0l-0.1,0l-0.3,0.1l-0.4,0.1l-0.1,0.1l-0.1,0.1l-0.1,0.1l-0.1,0.1l-0.1,0.1l-0.2,0.2
		l-0.1,0.1l-0.1,0.1l-0.1,0.3v0.2l0,0.2l0,0.2l0,0.1l0.1,0.1l0.1,0.1l0.2,0.2l0.3,0.2l0.1,0.1l0.1,0.1l0.3,0.1l0.2,0l0.1,0L274.3,38
		z"/>
	<path fill="#FFFFFF" d="M280.9,30.9h1.4v1.9l0.1-0.1l0.1-0.1l0.1-0.1l0.1-0.1l0.1-0.1l0.1-0.1l0.1-0.1l0.1-0.1l0.1-0.1l0.1-0.1
		l0.1-0.1l0.1-0.1l0.1-0.1l0.1-0.1l0.2-0.1l0.1-0.1L284,31l0.1-0.1l0.4-0.1l0.2,0l0.1,0l0.2,0h0.5v1.3h-0.3l-0.3,0l-0.1,0l-0.3,0.1
		l-0.2,0l-0.1,0.1l-0.2,0.1l-0.1,0.1l-0.5,0.4l-0.2,0.2l-0.2,0.2l-0.1,0.1l-0.1,0.1l-0.1,0.1l-0.3,0.7l0,0.1l0,0.1l0,0.1l0,0.1
		l0,0.1l0,0.3v0.2l0,0.1V39h-1.4V30.9z"/>
	<path fill="#FFFFFF" d="M290.9,39.2h-0.3l-0.2,0l-0.1,0l-0.2,0l-0.5-0.1l-0.4-0.1l-0.3-0.1l-0.1-0.1l-0.1-0.1l-0.1-0.1l-0.4-0.3
		l-0.3-0.3l-0.3-0.3l-0.1-0.1l-0.1-0.1l-0.1-0.2l-0.1-0.1l-0.1-0.3l-0.2-0.4l-0.1-0.3l0-0.2l0-0.1l0-0.1l-0.1-0.6v-0.3l0.1-0.6
		l0-0.2l0-0.1l0-0.2l0-0.1l0.1-0.3L287,33l0.1-0.3l0.2-0.4l0.2-0.2l0.1-0.1l0.1-0.1l0.1-0.1l0.4-0.4l0.1-0.1l0.3-0.2l0.1-0.1
		l0.1-0.1l0.1-0.1l0.3-0.1l0.1,0l0.2,0l0.5-0.1l0.3,0l0.2,0h0.3l0.1,0h0.2l0.1,0l0.2,0l0.1,0l0.2,0l0.4,0.1l0.4,0.2l0.1,0.1l0.4,0.2
		l0.1,0.1l0.1,0.1l0.5,0.5l0.1,0.1l-0.1,0.1l-0.1,0.1l-0.2,0.2l-0.1,0.1l-0.2,0.2l-0.1,0.1l-0.1,0.1L293,33l-0.1-0.1l-0.1-0.1
		l-0.1-0.1l-0.2-0.2l-0.1-0.1l-0.1-0.1l-0.1-0.1l-0.4-0.2l-0.1,0l-0.2,0l-0.2,0l-0.2,0l-0.2,0h-0.3l-0.2,0l-0.1,0l-0.2,0l-0.3,0.1
		l-0.3,0.1l-0.3,0.2l-0.1,0.1l-0.3,0.3l-0.1,0.1l-0.1,0.1l-0.1,0.1l-0.1,0.1l-0.1,0.1l-0.1,0.2l-0.1,0.1l-0.1,0.3l0,0.2l0,0.1l0,0.2
		l0,0.3v0.3l0,0.3l0,0.1l0,0.1l0.1,0.4l0.1,0.1l0.1,0.2l0.3,0.4l0.1,0.1l0.2,0.2l0.1,0.1l0.1,0.1l0.1,0.1l0.3,0.2l0.2,0.1l0.1,0.1
		l0.3,0.1l0.3,0.1l0.1,0l0.2,0h0.3l0.2,0l0.2,0l0.1,0l0.2,0l0.1,0l0.2,0l0.3-0.1l0.1-0.1l0.1-0.1l0.1-0.1l0.1-0.1l0.1-0.1l0.1-0.1
		L293,37l0.1-0.1l0.1-0.1l0.1,0.1l0.4,0.4l0.3,0.3l-0.3,0.3l-0.3,0.3l-0.1,0.1l-0.1,0.1l-0.1,0.1l-0.1,0.1l-0.3,0.1l-0.1,0.1
		l-0.1,0.1l-0.1,0l-0.2,0.1l-0.3,0.1l-0.2,0l-0.1,0l-0.2,0l-0.1,0h-0.2L290.9,39.2z"/>
	<path fill="#FFFFFF" d="M296.1,27.6h1.4v4.6l0.1-0.1l0.2-0.2l0.2-0.2l0.2-0.2l0.1-0.1l0.1-0.1l0.1-0.1l0.1-0.1l0.1-0.1l0.2-0.1
		l0.1-0.1l0.2,0l0.4-0.1l0.1,0l0.2,0h0.3l0.1,0l0.3,0l0.4,0.1l0.1,0l0.1,0l0.4,0.2l0.1,0.1l0.1,0.1l0.2,0.2l0.1,0.1l0.1,0.1l0.2,0.2
		l0.1,0.1l0.1,0.1l0.2,0.4l0,0.1l0,0.1l0.1,0.3l0,0.2l0,0.1v0.2l0,0.1V39h-1.4v-4.9l0-0.3l0-0.2l0-0.2l-0.1-0.3l-0.1-0.1l-0.1-0.2
		l-0.1-0.1l-0.1-0.1l-0.1-0.1l-0.1-0.1l-0.2-0.2l-0.1-0.1l-0.1-0.1l-0.2,0l-0.1,0l-0.2,0l-0.2,0h-0.3l-0.2,0l-0.3,0.1l-0.3,0.1
		l-0.3,0.1l-0.2,0.2l-0.1,0.1l-0.2,0.2l-0.1,0.1l-0.1,0.1l-0.1,0.1l-0.1,0.1l-0.1,0.1l-0.1,0.1l-0.1,0.4l0,0.3V39h-1.4V27.6z"/>
	<path fill="#FFFFFF" d="M313.7,39.1h-0.3l-0.2,0l-0.1,0l-0.2,0l-0.1,0l-0.2,0l-0.1,0l-0.1,0l-0.1-0.1l-0.2,0l-0.2-0.1l-0.1-0.1
		l-0.1-0.1l-0.1-0.1l-0.1-0.1l-0.4-0.3l-0.1-0.1l-0.1-0.1l-0.1-0.1l-0.2-0.2l-0.1-0.1l-0.1-0.3l-0.1-0.4l0-0.1l0-0.4v-0.3l0-0.2
		l0-0.1l0-0.1l0-0.2l0-0.1l0.2-0.4l0.2-0.4l0.3-0.3l0.3-0.3l0.4-0.3l0.3-0.1l0.1-0.1l0.2-0.1l0.3-0.1l0.2-0.1l-0.2-0.3l-0.1-0.1
		l-0.1-0.1l-0.1-0.1l-0.2-0.2l-0.1-0.3l-0.1-0.1l-0.1-0.3l0-0.1l0-0.2l0-0.3v-0.4l0-0.1l0.1-0.3l0-0.1l0.1-0.2l0.1-0.3l0.1-0.3
		l0.3-0.3l0.1-0.1l0.4-0.3l0.1-0.1l0.2-0.1l0.1-0.1l0.3-0.1l0.3-0.1l0.2,0l0.1,0l0.2,0l0.2,0h0.3l0.2,0l0.3,0l0.3,0.1l0.3,0.1
		l0.3,0.1l0.1,0.1l0.1,0.1l0.1,0.1l0.1,0.1l0.2,0.2l0.1,0.1l0.1,0.1l0.3,0.5l0.1,0.4l0,0.1l0,0.3v0.3l0,0.3l0,0.2l-0.1,0.4l-0.1,0.1
		l-0.2,0.2l-0.2,0.2l-0.2,0.2l-0.5,0.4l-0.3,0.2l-0.1,0.1l-0.1,0.1l-0.6,0.3l-0.2,0.1l0.2,0.2l0.3,0.3l0.1,0.1l0.2,0.2l0.3,0.3
		l0.1,0.1l0.2,0.2l0.1,0.1l0.1,0.1l0.1,0.1l0.4,0.4l0.1,0.1l0.2-0.3l0.1-0.1l0.1-0.3l0.3-0.5L318,34l0.1-0.3l0.1-0.1l0.1-0.1
		l0.1-0.1l0.1,0.1l0.1,0.1l0.1,0.1l0.1,0.1l0.4,0.2l0.1,0.1l-0.1,0.3l-0.1,0.1l-0.1,0.3l-0.1,0.1l-0.1,0.1l-0.1,0.1l-0.1,0.1
		l-0.1,0.1l-0.1,0.1l-0.1,0.1l-0.1,0.1l-0.1,0.1l-0.1,0.1l-0.1,0.1l-0.1,0.1l-0.2,0.2l-0.1,0.1l-0.1,0.1l0.3,0.3l0.1,0.1l0.1,0.1
		l0.2,0.2l0.1,0.1l0.2,0.2l0.2,0.2l0.1,0.1l0.1,0.1l0.4,0.4l-0.8,0.6l-0.1,0.1l-0.1,0.1l-0.1-0.1l-0.1-0.1l-0.2-0.2l-0.2-0.2
		l-0.1-0.1l-0.1-0.1l-0.8-0.8l-0.2,0.2l-0.4,0.3l-0.1,0.1l-0.1,0.1l-0.3,0.2l-0.3,0.2l-0.5,0.3l-0.6,0.2l-0.3,0.1L313.7,39.1z
		 M313.5,37.9h0.3l0.2,0l0.1,0l0.3-0.1l0.2,0l0.3-0.1l0.1-0.1l0.4-0.2l0.4-0.3l0.2-0.2l0.1-0.1l0.1-0.1l-0.6-0.7l-0.2-0.2l-0.1-0.1
		l-0.2-0.2l-0.1-0.1l-0.2-0.2l-0.1-0.1l-0.2-0.2l-0.1-0.1l-0.1-0.1l-0.1-0.1l-0.6-0.7l-0.2,0.1l-0.2,0.1l-0.1,0.1l-0.2,0.1l-0.1,0.1
		l-0.1,0.1l-0.2,0.2l-0.1,0.1l-0.2,0.2l-0.1,0.1l-0.2,0.3l-0.1,0.3l-0.1,0.3l0,0.1l0,0.1v0.3l0.1,0.3l0,0.1l0.1,0.1l0.1,0.1l0.1,0.1
		l0.1,0.1l0.2,0.2l0.1,0.1l0.3,0.2l0.3,0.1l0.3,0.1l0.1,0l0.1,0L313.5,37.9z M315.9,30.6v-0.3l-0.1-0.3l0-0.1l-0.1-0.1l-0.1-0.1
		l-0.2-0.2l-0.1-0.1l-0.1-0.1l-0.1-0.1l-0.3-0.1l-0.3-0.1h-0.3l-0.2,0l-0.1,0l-0.2,0.1l-0.1,0.1l-0.1,0.1l-0.1,0.1l-0.1,0.1
		l-0.2,0.2l-0.1,0.1l-0.1,0.1l0,0.1l-0.1,0.3v0.4l0,0.1l0,0.1l0,0.2l0,0.1l0.1,0.2l0.2,0.3l0.1,0.1l0.3,0.4l0.1,0.1l0.2-0.1l0.2-0.1
		l0.3-0.2l0.2-0.1l0.1-0.1l0.4-0.3l0.2-0.2l0.1-0.1l0.1-0.1l0.1-0.1l0.1-0.1l0-0.1l0.1-0.2L315.9,30.6z"/>
	<path fill="#FFFFFF" d="M326.6,39V28.1h4.2l0.8,0.1l0.3,0.1l0.1,0l0.3,0.1l0.5,0.2l0.1,0.1l0.3,0.1l0.5,0.3l0.1,0.1l0.5,0.4
		l0.3,0.3l0.5,0.6l0.2,0.4l0.1,0.1l0.1,0.1l0.1,0.1l0.1,0.1l0.1,0.1l0,0.1l0.1,0.1l0.1,0.3l0,0.1l0.1,0.1l0.1,0.3l0,0.1l0,0.1l0,0.3
		v0.1l0,0.2v0.3l0,0.1V34l0,0.3l0,0.1l0,0.2l0,0.1l0,0.2L336,35l0,0.1l0,0.1l0,0.2l-0.1,0.1l0,0.1l-0.1,0.2l-0.3,0.5l-0.2,0.2
		l-0.1,0.1l-0.3,0.3l-0.3,0.3l-0.1,0.1l-0.1,0.1l-0.1,0.1l-0.2,0.2l-0.1,0.1l-0.5,0.3l-0.1,0.1l-0.3,0.1l-0.2,0.1l-0.1,0.1l-0.1,0
		l-0.1,0.1l-0.1,0l-0.1,0l-0.1,0l-0.1,0l-0.1,0l-0.3,0.1L331,39l-0.2,0H326.6z M328.1,29.4v8.3h2.6l0.1,0h0.2l0.1,0l0.2,0l0.1,0
		l0.3-0.1l0.6-0.2l0.2-0.1l0.3-0.1l0.1-0.1l0.1-0.1l0.1-0.1l0.1-0.1l0.3-0.3l0.2-0.2l0.2-0.2L334,36l0.1-0.1l0.3-0.6l0.1-0.1l0-0.1
		l0.1-0.1l0-0.1l0-0.2l0-0.1l0-0.2l0-0.1l0-0.2v-0.2l0-0.2v-0.3l0-0.2V33l0-0.1l0-0.2l-0.1-0.3l0-0.1l0-0.2l-0.1-0.1l0-0.2l-0.2-0.4
		l-0.1-0.1l-0.1-0.1l-0.1-0.1L334,31l-0.1-0.1l-0.3-0.3l-0.1-0.1l-0.3-0.3l-0.1-0.1l-0.1-0.1l-0.3-0.1l-0.3-0.1l-0.2-0.1l-0.4-0.1
		l-0.2,0l-0.1,0l-0.2,0l-0.1,0l-0.2,0l-0.1,0h-0.2l-0.1,0H328.1z"/>
	<path fill="#FFFFFF" d="M338.7,27.9h1.6v1.3h-1.6V27.9z M338.8,30.9h1.4V39h-1.4V30.9z"/>
	<path fill="#FFFFFF" d="M345.9,39.1h-0.3l-0.1,0h-0.1l-0.2,0l-0.1,0l-0.1,0l-0.3-0.1l-0.1,0l-0.2,0l-0.1,0l-0.2-0.1l-0.1,0
		l-0.2-0.1l-0.1-0.1l-0.2-0.1l-0.4-0.2l-0.1-0.1l-0.5-0.3l0.2-0.3l0.1-0.1l0.2-0.2l0.2-0.3l0.1-0.1l0.1,0.1l0.1,0.1l0.1,0.1l0.1,0.1
		l0.3,0.1l0.1,0.1l0.3,0.1l0.2,0l0.1,0.1l0.5,0.1l0.1,0l0.5,0h0.3l0.2,0l0.3-0.1l0.1-0.1l0.2-0.1l0.1-0.1l0.1-0.1l0.2-0.2l0.1-0.1
		l0-0.1l0-0.1l0-0.2v0l0-0.2l-0.1-0.2l-0.1-0.2l-0.3-0.3l-0.1-0.1l-0.1-0.1l-0.4-0.1l-0.1-0.1l-0.7-0.2l-0.1,0l-0.7-0.2l-0.3-0.1
		l-0.4-0.2l-0.5-0.3l-0.2-0.2l-0.2-0.2l-0.1-0.1l-0.1-0.1l0-0.1l-0.1-0.3l0-0.1v-0.3l0-0.2l0.1-0.3l0-0.1l0-0.1l0.1-0.1l0.1-0.1
		l0.2-0.3l0.1-0.1l0.1-0.1l0.2-0.2l0.3-0.1l0.3-0.1l0.1-0.1l0.2,0l0.1,0l0.3-0.1l0.3,0l0.1,0l0.2,0h0.3l0.1,0h0.2l0.1,0l0.2,0
		l0.3,0.1l0.1,0l0.2,0l0.1,0l0.3,0.1l0.2,0l0.1,0.1l0.2,0.1l0.1,0.1l0.3,0.2l0.1,0.1l0.1,0.1l-0.1,0.1l-0.1,0.1l-0.4,0.6l-0.1,0.1
		l-0.3-0.2l-0.1-0.1l-0.1-0.1l-0.1-0.1l-0.1-0.1l-0.1,0l-0.1-0.1l-0.6-0.2l-0.2,0l-0.3,0l-0.1,0h-0.3l-0.2,0l-0.2,0l-0.3,0.1
		l-0.1,0.1l-0.1,0.1l-0.1,0.1l-0.1,0.1l-0.1,0.1l0,0.1l0,0.1l0,0.2v0l0,0.2l0.1,0.2l0.1,0.1l0.1,0.1l0.2,0.2l0.2,0.1l0.1,0.1l0.1,0
		l0.1,0l0.4,0.1l0.2,0l0.4,0.1l0.1,0l0.1,0l0.1,0.1l0.1,0l0.1,0.1l0.1,0l0.2,0.1l0.4,0.2l0.1,0.1l0.1,0.1l0.1,0.1l0.1,0.1l0.1,0.1
		l0.3,0.3l0.1,0.3l0,0.2l0,0.1l0,0.2v0.4l0,0.2l-0.1,0.3l-0.1,0.3l-0.1,0.1l-0.2,0.4l-0.1,0.1l-0.2,0.2l-0.1,0.1l-0.1,0.1l-0.4,0.2
		l-0.1,0.1l-0.4,0.1l-0.1,0l-0.2,0l-0.1,0l-0.2,0h-0.1L345.9,39.1z"/>
	<path fill="#FFFFFF" d="M353.7,39.1h-0.3l-0.1,0h-0.1l-0.2,0l-0.1,0l-0.1,0l-0.3-0.1l-0.1,0l-0.2,0l-0.1,0l-0.2-0.1l-0.1,0
		l-0.2-0.1l-0.1-0.1l-0.2-0.1l-0.4-0.2l-0.1-0.1l-0.5-0.3l0.2-0.3l0.1-0.1l0.2-0.2l0.2-0.3l0.1-0.1L351,37l0.1,0.1l0.1,0.1l0.1,0.1
		l0.3,0.1l0.1,0.1l0.3,0.1l0.2,0l0.1,0.1l0.5,0.1l0.1,0l0.5,0h0.3l0.2,0l0.3-0.1l0.1-0.1l0.2-0.1l0.1-0.1l0.1-0.1l0.2-0.2l0.1-0.1
		l0-0.1l0-0.1l0-0.2v0l0-0.2l-0.1-0.2l-0.1-0.2l-0.3-0.3l-0.1-0.1l-0.1-0.1l-0.4-0.1l-0.1-0.1l-0.7-0.2l-0.1,0l-0.7-0.2l-0.3-0.1
		l-0.4-0.2l-0.5-0.3l-0.2-0.2l-0.2-0.2l-0.1-0.1l-0.1-0.1l0-0.1l-0.1-0.3l0-0.1v-0.3l0-0.2l0.1-0.3l0-0.1l0-0.1l0.1-0.1l0.1-0.1
		l0.2-0.3l0.1-0.1l0.1-0.1l0.2-0.2l0.3-0.1L352,31l0.1-0.1l0.2,0l0.1,0l0.3-0.1l0.3,0l0.1,0l0.2,0h0.3l0.1,0h0.2l0.1,0l0.2,0
		l0.3,0.1l0.1,0l0.2,0l0.1,0l0.3,0.1l0.2,0l0.1,0.1l0.2,0.1l0.1,0.1l0.3,0.2l0.1,0.1l0.1,0.1l-0.1,0.1l-0.1,0.1l-0.4,0.6l-0.1,0.1
		l-0.3-0.2l-0.1-0.1l-0.1-0.1l-0.1-0.1l-0.1-0.1l-0.1,0l-0.1-0.1l-0.6-0.2l-0.2,0l-0.3,0l-0.1,0h-0.3l-0.2,0l-0.2,0l-0.3,0.1
		l-0.1,0.1l-0.1,0.1l-0.1,0.1l-0.1,0.1l-0.1,0.1l0,0.1l0,0.1l0,0.2v0l0,0.2l0.1,0.2l0.1,0.1l0.1,0.1l0.2,0.2l0.2,0.1l0.1,0.1l0.1,0
		l0.1,0l0.4,0.1l0.2,0l0.4,0.1l0.1,0l0.1,0l0.1,0.1l0.1,0l0.1,0.1l0.1,0l0.2,0.1l0.4,0.2l0.1,0.1l0.1,0.1l0.1,0.1l0.1,0.1l0.1,0.1
		l0.3,0.3l0.1,0.3l0,0.2l0,0.1l0,0.2v0.4l0,0.2l-0.1,0.3l-0.1,0.3l-0.1,0.1l-0.2,0.4l-0.1,0.1l-0.2,0.2l-0.1,0.1l-0.1,0.1l-0.4,0.2
		l-0.1,0.1l-0.4,0.1l-0.1,0l-0.2,0l-0.1,0l-0.2,0h-0.1L353.7,39.1z"/>
	<path fill="#FFFFFF" d="M362.5,39.2h-0.3l-0.1,0l-0.2,0l-0.3,0l-0.1,0l-0.1,0l-0.4-0.1l-0.3-0.1l-0.1-0.1l-0.3-0.1l-0.4-0.3
		l-0.1-0.1l-0.2-0.2l-0.1-0.1l-0.2-0.2l-0.1-0.1l-0.1-0.1l-0.1-0.1l-0.2-0.3l-0.2-0.5l-0.1-0.3l0-0.1l0-0.1l0-0.1l0-0.1l0-0.2l0-0.1
		v-0.2l0-0.2v-0.3l0-0.2v-0.1l0-0.2l0-0.1l0.1-0.5l0-0.1l0.1-0.3l0-0.1l0.1-0.3l0.1-0.1l0.1-0.1l0.1-0.1l0.1-0.1l0.1-0.1l0.2-0.2
		l0.1-0.1l0.2-0.2l0.1-0.1l0.4-0.3l0.2-0.2l0.1-0.1l0.3-0.1l0.4-0.1l0.4-0.1l0.3,0l0.2,0h0.3l0.2,0l0.3,0l0.4,0.1l0.3,0.1l0.3,0.1
		l0.1,0.1l0.1,0.1l0.5,0.3l0.1,0.1l0.1,0.1l0.3,0.3l0.1,0.1l0.2,0.3l0.1,0.1l0.2,0.4l0.1,0.3l0.1,0.3l0.1,0.4l0,0.2l0,0.1l0,0.2v0.2
		l0,0.2v0.4l0,0.2h-6.3l0,0.1l0,0.2l0,0.1l0,0.1l0.1,0.3l0,0.1l0.3,0.5l0.3,0.3l0.1,0.1l0.1,0.1l0.3,0.2l0.3,0.1l0.3,0.1l0.1,0
		l0.1,0l0.2,0l0.3,0h0.3l0.5,0l0.1,0l0.1,0l0.1,0l0.1,0l0.4-0.2l0.1-0.1l0.1-0.1l0.2-0.2l0.3-0.3l0.1-0.1l0.2,0.2l0.2,0.2l0.1,0.1
		l0.1,0.1l0.1,0.1l0.1,0.1l-0.3,0.3l-0.1,0.1l-0.1,0.1l-0.5,0.4l-0.1,0.1l-0.1,0.1l-0.1,0.1l-0.1,0.1l-0.1,0.1l-0.1,0.1l-0.3,0.1
		l-0.4,0.1l-0.2,0l-0.2,0h-0.2L362.5,39.2z M362.3,31.9H362l-0.2,0l-0.2,0l-0.2,0.1l-0.1,0l-0.1,0.1l-0.3,0.1l-0.1,0.1l-0.1,0.1
		l-0.1,0.1l-0.3,0.3l-0.2,0.3l-0.2,0.3l-0.1,0.2l0,0.1l0,0.2l0,0.1l0,0.1l0,0.2l0,0.1h4.9l0-0.3l-0.1-0.3l0-0.1l0-0.1l0-0.1
		l-0.1-0.1l-0.1-0.2l-0.1-0.1l-0.3-0.4l-0.1-0.1l-0.1-0.1l-0.1-0.1l-0.3-0.2l-0.1-0.1l-0.4-0.1l-0.1,0L362.3,31.9z"/>
	<path fill="#FFFFFF" d="M368.1,30.9h1.4v1.3l0.1-0.1l0.1-0.1l0.1-0.1l0.1-0.1l0.1-0.1l0.3-0.3l0.1-0.1l0.2-0.2l0.1-0.1l0.1-0.1
		l0.3-0.1l0.3-0.1l0.2,0l0.1,0l0.2,0h0.3l0.2,0l0.2,0l0.3,0.1l0.1,0l0.2,0l0.1,0.1l0.1,0.1l0.1,0.1l0.1,0.1l0.1,0.1l0.1,0.1l0.3,0.3
		l0.2,0.2l0.1,0.1l0.1,0.1l0.1,0.1l0.1-0.1l0.1-0.1l0.1-0.1l0.3-0.3l0.1-0.1l0.1-0.1l0.4-0.3l0.2-0.1l0.4-0.1l0.2,0l0.1,0l0.2,0
		l0.1,0l0.2,0h0.3l0.2,0l0.2,0l0.5,0.1l0.2,0l0.1,0l0.1,0.1l0.3,0.1l0.1,0.1l0.1,0.1l0.1,0.1l0.1,0.1l0.1,0.1l0.1,0.1l0.1,0.1
		l0.1,0.1l0.1,0.1l0.1,0.1l0.1,0.3l0,0.1l0,0.2l0,0.1l0,0.2l0,0.1l0,0.2l0,0.5V39H379v-4.9l0-0.3l-0.1-0.3l-0.1-0.3l0-0.1l-0.1-0.1
		l-0.2-0.3l-0.1-0.1l-0.1-0.1l-0.2-0.2l-0.3-0.1l-0.1,0l-0.1,0l-0.2,0l-0.2,0h-0.3l-0.1,0l-0.4,0.1l-0.1,0l-0.3,0.2l-0.2,0.2
		l-0.1,0.1l-0.2,0.2l-0.1,0.1l-0.1,0.1l-0.1,0.1l0,0.1l0,0.1l0,0.1l0,0.1l0,0.4V39h-1.4v-4.9l0-0.3l-0.1-0.3l-0.1-0.4l-0.1-0.1
		l-0.1-0.1l-0.2-0.2l-0.1-0.1l-0.2-0.2l-0.1-0.1l-0.3-0.1l-0.1,0l-0.3-0.1l-0.2,0h-0.3l-0.1,0l-0.2,0l-0.1,0l-0.1,0l-0.1,0l-0.3,0.1
		l-0.2,0.2l-0.3,0.3l-0.1,0.1l-0.1,0.3l-0.1,0.3l-0.1,0.3l0,0.1l0,0.3l0,0.2V39h-1.4V30.9z"/>
	<path fill="#FFFFFF" d="M383.1,27.9h1.6v1.3h-1.6V27.9z M383.2,30.9h1.4V39h-1.4V30.9z"/>
	<path fill="#FFFFFF" d="M387.4,30.9h1.4v1.4l0.1-0.1l0.2-0.2l0.2-0.2l0.2-0.2l0.1-0.1l0.1-0.1l0.1-0.1l0.1-0.1l0.1-0.1l0.2-0.1
		l0.1-0.1l0.2,0l0.4-0.1l0.1,0l0.2,0h0.3l0.1,0l0.3,0l0.4,0.1l0.1,0l0.1,0l0.4,0.2l0.1,0.1l0.1,0.1l0.2,0.2l0.1,0.1l0.1,0.1l0.2,0.2
		l0.1,0.1l0.1,0.1l0.2,0.4l0,0.1l0,0.1l0.1,0.3l0,0.2l0,0.1v0.2l0,0.1V39h-1.4v-4.9l0-0.3l0-0.2l0-0.2l-0.1-0.3l-0.1-0.1l-0.1-0.2
		l-0.1-0.1l-0.1-0.1l-0.1-0.1l-0.1-0.1l-0.2-0.2l-0.1-0.1l-0.1-0.1l-0.2,0l-0.1,0l-0.2,0l-0.2,0h-0.3l-0.2,0l-0.3,0.1l-0.3,0.1
		l-0.3,0.1l-0.2,0.2l-0.1,0.1l-0.2,0.2l-0.1,0.1l-0.1,0.1l-0.1,0.1l-0.1,0.1l-0.1,0.1l-0.1,0.1l-0.1,0.4l0,0.3V39h-1.4V30.9z"/>
	<path fill="#FFFFFF" d="M403.8,39h-1.4v-1.2l-0.4,0.4l-0.1,0.1l-0.1,0.1l-0.1,0.1l-0.1,0.1l-0.3,0.1l-0.4,0.2l-0.3,0.1l-0.2,0
		l-0.3,0.1l-0.1,0l-0.2,0l-0.2,0h-0.3l-0.2,0l-0.1,0l-0.3,0l-0.3-0.1l-0.3-0.1l-0.2-0.1l-0.1-0.1l-0.1-0.1l-0.1-0.1l-0.1-0.1
		l-0.1-0.1l-0.1-0.1l-0.2-0.2L397,38l-0.2-0.3l-0.1-0.1l-0.1-0.2l0-0.1l0-0.1l0-0.1l0-0.1v-0.3l0-0.2l0-0.1l0-0.2l0.1-0.4l0.1-0.1
		l0.1-0.1l0.1-0.1l0.2-0.2l0.1-0.1l0.2-0.2l0.3-0.2l0.3-0.1l0.1-0.1l0.4-0.1l0.4-0.1l0.1,0l0.2,0h0.2l0.2,0h0.5l0.1,0h0.2l0.6,0.1
		l0.4,0.1l0.2,0l0.2,0l0.4,0.1v-0.4l0-0.2l-0.1-0.3l0-0.1l-0.1-0.1l-0.1-0.1l-0.1-0.1l-0.1-0.1l-0.1-0.1l-0.1-0.1l-0.1-0.1l-0.1-0.1
		l-0.1-0.1l-0.1-0.1l-0.1-0.1l-0.1,0l-0.2,0l-0.1,0l-0.2,0l-0.3,0h-0.3l-0.1,0h-0.2l-0.3,0l-0.1,0l-0.1,0l-0.1,0l-0.1,0l-0.3,0.1
		l-0.3,0.1l-0.1,0l-0.1,0.1l-0.2,0.1l-0.1,0.1l0-0.1l-0.1-0.1l-0.1-0.3l-0.1-0.1l0-0.1l-0.1-0.2l0-0.1l0.3-0.1l0.1,0l0.1-0.1
		l0.3-0.1l0.1-0.1l0.1,0l0.1,0l0.1,0l0.4-0.1l0.1,0l0.8-0.1h0.5l0.2,0h0.2l0.2,0l0.2,0l0.2,0l0.1,0l0.2,0l0.1,0L402,31l0.1,0.1
		l0.1,0.1l0.2,0.1l0.2,0.2l0.1,0.1l0.2,0.2l0.2,0.2l0.1,0.2l0.1,0.2l0.1,0.1l0.1,0.3l0,0.2l0,0.1l0,0.2l0.1,0.6V39z M399.7,38h0.3
		l0.5,0l0.3-0.1l0.6-0.2l0.1-0.1l0.1-0.1l0.1-0.1l0.3-0.3l0.1-0.1l0.2-0.2l0.1-0.1l0.1-0.3l0-0.1l0-0.1v-0.8l-0.1,0l-0.3-0.1l-0.1,0
		l-0.3-0.1l-0.3-0.1l-0.6-0.1l-0.2,0H400l-0.3,0l-0.1,0l-0.3,0.1l-0.4,0.1l-0.1,0.1l-0.1,0.1l-0.1,0.1l-0.1,0.1l-0.1,0.1l-0.2,0.2
		l-0.1,0.1L398,36l-0.1,0.3v0.2l0,0.2l0,0.2l0,0.1l0.1,0.1l0.1,0.1l0.2,0.2l0.3,0.2l0.1,0.1l0.1,0.1l0.3,0.1l0.2,0l0.1,0L399.7,38z"
		/>
	<path fill="#FFFFFF" d="M406.7,32.1h-1.1v-1.2h1.1v-2.4h1.4v2.4h2.5v1.2h-2.5v4.7l0,0.2l0,0.1l0.1,0.3l0.1,0.1l0.1,0.1l0.1,0.1
		l0.1,0.1l0.1,0.1l0.1,0l0.1,0l0.1,0h0.3l0.1,0l0.4-0.1l0.1,0l0.1-0.1l0.2-0.1v1.2l-0.1,0.1l-0.1,0.1L410,39l-0.1,0l-0.1,0l-0.1,0
		l-0.1,0h-0.1l-0.1,0h-0.3l-0.3,0l-0.4-0.1l-0.1-0.1l-0.1,0l-0.1-0.1l-0.2-0.2l-0.2-0.2l-0.1-0.1l-0.1-0.1l-0.1-0.1L407,38l-0.1-0.2
		l-0.1-0.1l-0.1-0.4l0-0.3V32.1z"/>
	<path fill="#FFFFFF" d="M412.8,27.9h1.6v1.3h-1.6V27.9z M412.9,30.9h1.4V39h-1.4V30.9z"/>
	<path fill="#FFFFFF" d="M421,39.2h-0.3l-0.2,0h-0.1l-0.2,0l-0.1,0l-0.1,0l-0.2,0l-0.1,0l-0.1,0l-0.3-0.1l-0.1-0.1l-0.2-0.1
		l-0.1-0.1l-0.1-0.1l-0.3-0.2l-0.2-0.2l-0.1-0.1l-0.1-0.1l-0.3-0.3l-0.2-0.2l-0.2-0.2l-0.1-0.3l-0.1-0.1l-0.1-0.1l-0.2-0.4l-0.1-0.3
		l0-0.2l0-0.1l0-0.1l-0.1-0.6v-0.3l0.1-0.6l0-0.2l0-0.1l0-0.2l0-0.1l0.3-0.7l0.1-0.1l0.1-0.1l0.4-0.6l0.3-0.3l0.1-0.1l0.1-0.1
		l0.4-0.3l0.3-0.1l0.1-0.1l0.1-0.1l0.1-0.1l0.4-0.1l0.1,0l0.2,0l0.1,0l0.2,0l0.1,0h0.2h0.1l0.3,0l0.1,0l0.2,0l0.1,0l0.4,0.1l0.1,0
		l0.4,0.1l0.1,0.1l0.1,0.1l0.1,0.1l0.3,0.1l0.2,0.2l0.1,0.1l0.1,0.1l0.1,0.1l0.1,0.1l0.1,0.1L424,32l0.1,0.1l0.2,0.2l0.2,0.2
		l0.1,0.1l0.1,0.1l0.1,0.3l0.1,0.1l0.2,0.4l0,0.2l0,0.1l0,0.1l0.1,0.6v0.3l-0.1,0.6l0,0.2l0,0.1l0,0.2l-0.1,0.1l-0.1,0.1l0,0.1
		l-0.2,0.4l-0.1,0.1l-0.1,0.1l-0.1,0.1l-0.1,0.1l-0.1,0.1l-0.4,0.4l-0.1,0.1l-0.6,0.4l-0.3,0.1l-0.3,0.1l-0.1,0.1L422,39l-0.6,0.1
		l-0.1,0h-0.2L421,39.2z M420.8,37.9h0.3l0.2,0l0.1,0l0.3-0.1l0.3-0.1l0.3-0.1l0.4-0.3l0.3-0.3l0.1-0.1l0.1-0.1l0.1-0.1l0.1-0.1
		l0.1-0.1l0.1-0.2l0.1-0.1l0-0.1l0-0.1l0-0.1l0-0.1l0-0.4v-0.3l0-0.3l0-0.2l0-0.1l0-0.2l0-0.1l0-0.2l-0.1-0.3l-0.3-0.5l-0.2-0.2
		l-0.2-0.2l-0.1-0.1l-0.3-0.2l-0.1-0.1l-0.1-0.1l-0.1-0.1l-0.3-0.1l-0.3-0.1l-0.1,0l-0.1,0h-0.3l-0.2,0l-0.4,0.1l-0.3,0.1l-0.3,0.1
		l-0.4,0.3l-0.1,0.1l-0.2,0.2l-0.2,0.2l-0.3,0.4l-0.1,0.3l-0.1,0.1l0,0.1l-0.1,0.3l0,0.4v0.3l0,0.3l0.1,0.3l0,0.2l0,0.1l0.1,0.1
		l0,0.1l0.1,0.1l0.3,0.5l0.3,0.3l0.1,0.1l0.1,0.1l0.4,0.3l0.3,0.1l0.3,0.1l0.2,0l0.1,0l0.2,0L420.8,37.9z"/>
	<path fill="#FFFFFF" d="M427.3,30.9h1.4v1.4l0.1-0.1l0.2-0.2l0.2-0.2l0.2-0.2l0.1-0.1l0.1-0.1l0.1-0.1l0.1-0.1l0.1-0.1l0.2-0.1
		l0.1-0.1l0.2,0l0.4-0.1l0.1,0l0.2,0h0.3l0.1,0l0.3,0l0.4,0.1l0.1,0l0.1,0l0.4,0.2l0.1,0.1l0.1,0.1l0.2,0.2l0.1,0.1l0.1,0.1l0.2,0.2
		L434,32l0.1,0.1l0.2,0.4l0,0.1l0,0.1l0.1,0.3l0,0.2l0,0.1v0.2l0,0.1V39h-1.4v-4.9l0-0.3l0-0.2l0-0.2l-0.1-0.3l-0.1-0.1l-0.1-0.2
		l-0.1-0.1l-0.1-0.1l-0.1-0.1l-0.1-0.1l-0.2-0.2l-0.1-0.1l-0.1-0.1l-0.2,0l-0.1,0l-0.2,0l-0.2,0h-0.3l-0.2,0l-0.3,0.1l-0.3,0.1
		l-0.3,0.1l-0.2,0.2l-0.1,0.1l-0.2,0.2l-0.1,0.1l-0.1,0.1l-0.1,0.1l-0.1,0.1l-0.1,0.1l-0.1,0.1l-0.1,0.4l0,0.3V39h-1.4V30.9z"/>
</g>
<g>
	<path fill="#FFFFFF" d="M239.2,55.2h-0.5l-0.2,0h-0.1l-0.2,0l-0.1,0l-0.2,0l-0.1,0l-0.2,0l-0.1,0l-0.2,0l-0.1,0l-0.2,0l-0.3-0.1
		l-0.5-0.2l-0.3-0.2l-0.1-0.1l-0.5-0.3l-0.1-0.1l-0.2-0.2l-0.3-0.3l-0.4-0.6l-0.1-0.3l-0.1-0.1l-0.1-0.1l-0.3-0.7l-0.1-0.4l-0.1-0.6
		l0-0.5l0-0.1v-0.6l0-0.2l0-0.4l0.1-0.6l0.1-0.4l0.3-0.7l0.3-0.5l0.3-0.5l0.2-0.2l0.3-0.3l0.1-0.1l0.1-0.1l0.1-0.1l0.4-0.3l0.1-0.1
		l0.3-0.1l0.1-0.1l0.1-0.1l0.1-0.1l0.1-0.1l0.1,0l0.1-0.1l0.3-0.1l0.7-0.1l0.3,0h0.2l0.2,0h0.5l0.2,0l0.3,0l0.1,0l0.2,0l0.1,0l0.2,0
		l0.1,0l0.1,0l0.7,0.2l0.1,0.1l0.2,0.1l0.5,0.3l0.1,0.1l0.4,0.3l0.1,0.1l0.1,0.1l0.2,0.2l0.1,0.1l-0.4,0.5l-0.5,0.6l-0.2-0.2
		l-0.1-0.1l-0.5-0.4l-0.3-0.2l-0.1-0.1l-0.1-0.1l-0.1-0.1l-0.3-0.1l-0.1-0.1l-0.3-0.1l-0.3-0.1l-0.1,0l-0.2,0l-0.1,0h-0.2l-0.1,0
		h-0.3l-0.5,0l-0.3,0.1l-0.1,0l-0.2,0l-0.3,0.1l-0.3,0.1l-0.1,0.1l-0.1,0.1l-0.1,0.1l-0.1,0.1l-0.1,0.1l-0.4,0.4l-0.3,0.3l-0.3,0.5
		l-0.1,0.1l-0.1,0.1l-0.1,0.1l-0.1,0.1l0,0.1l-0.1,0.2l-0.1,0.3l0,0.2l0,0.1l0,0.2l0,0.1l0,0.2l0,0.1l0,0.2v0.3l0,0.1V50l0,0.1
		l0,0.2l0,0.1l0,0.1l0,0.1l0,0.1l0,0.1l0,0.1l0.1,0.1l0,0.1l0.1,0.1l0.1,0.1l0.1,0.1l0.2,0.2l0.2,0.2l0.1,0.1l0.3,0.3l0.3,0.3
		l0.2,0.2l0.2,0.2l0.7,0.3l0.1,0l0.2,0l0.4,0.1l0.3,0l0.2,0h0.3l0.1,0h0.2l0.1,0l0.1,0l0.1,0l0.1,0l0.2,0l0.1,0l0.3-0.1l0.3-0.1
		l0.1-0.1l0.1-0.1l0.1-0.1l0.4-0.2l0.1-0.1l0.3-0.3l0.1-0.1l0.1-0.1l0.1-0.1l0.3,0.3l0.1,0.1l0.1,0.1l0.4,0.4l-0.1,0.1l-0.1,0.1
		l-0.2,0.2l-0.1,0.1l-0.1,0.1l-0.5,0.4l-0.5,0.3l-0.1,0.1l-0.1,0.1l-0.1,0.1l-0.1,0l-0.1,0.1l-0.3,0.1l-0.3,0.1l-0.3,0.1l-0.1,0
		l-0.5,0l-0.2,0L239.2,55.2z"/>
	<path fill="#FFFFFF" d="M249.1,55.2h-0.3l-0.1,0l-0.2,0l-0.3,0l-0.1,0l-0.1,0l-0.4-0.1l-0.3-0.1l-0.1-0.1l-0.3-0.1l-0.4-0.3
		l-0.1-0.1L246,54l-0.1-0.1l-0.2-0.2l-0.1-0.1l-0.1-0.1l-0.1-0.1l-0.2-0.3l-0.2-0.5l-0.1-0.3l0-0.1l0-0.1l0-0.1l0-0.1l0-0.2l0-0.1
		v-0.2l0-0.2v-0.3l0-0.2v-0.1l0-0.2l0-0.1l0.1-0.5l0-0.1l0.1-0.3l0-0.1l0.1-0.3l0.1-0.1l0.1-0.1l0.1-0.1l0.1-0.1l0.1-0.1l0.2-0.2
		l0.1-0.1l0.2-0.2l0.1-0.1l0.4-0.3l0.2-0.2l0.1-0.1l0.3-0.1l0.4-0.1l0.4-0.1l0.3,0l0.2,0h0.3l0.2,0l0.3,0l0.4,0.1l0.3,0.1l0.3,0.1
		l0.1,0.1l0.1,0.1l0.5,0.3l0.1,0.1l0.1,0.1l0.3,0.3l0.1,0.1l0.2,0.3l0.1,0.1l0.2,0.4l0.1,0.3l0.1,0.3l0.1,0.4l0,0.2l0,0.1l0,0.2v0.2
		l0,0.2v0.4l0,0.2h-6.3l0,0.1l0,0.2l0,0.1l0,0.1l0.1,0.3l0,0.1l0.3,0.5l0.3,0.3l0.1,0.1l0.1,0.1l0.3,0.2l0.3,0.1l0.3,0.1l0.1,0
		l0.1,0l0.2,0l0.3,0h0.3l0.5,0l0.1,0l0.1,0l0.1,0l0.1,0l0.4-0.2l0.1-0.1l0.1-0.1l0.2-0.2l0.3-0.3l0.1-0.1l0.2,0.2l0.2,0.2l0.1,0.1
		l0.1,0.1l0.1,0.1l0.1,0.1l-0.3,0.3l-0.1,0.1l-0.1,0.1l-0.5,0.4l-0.1,0.1l-0.1,0.1l-0.1,0.1l-0.1,0.1l-0.1,0.1l-0.1,0.1l-0.3,0.1
		l-0.4,0.1l-0.2,0l-0.2,0h-0.2L249.1,55.2z M248.9,47.9h-0.3l-0.2,0l-0.2,0l-0.2,0.1l-0.1,0l-0.1,0.1l-0.3,0.1l-0.1,0.1l-0.1,0.1
		l-0.1,0.1l-0.3,0.3l-0.2,0.3l-0.2,0.3l-0.1,0.2l0,0.1l0,0.2l0,0.1l0,0.1l0,0.2l0,0.1h4.9l0-0.3l-0.1-0.3l0-0.1l0-0.1l0-0.1
		l-0.1-0.1l-0.1-0.2l-0.1-0.1l-0.3-0.4l-0.1-0.1l-0.1-0.1l-0.1-0.1l-0.3-0.2l-0.1-0.1l-0.4-0.1l-0.1,0L248.9,47.9z"/>
	<path fill="#FFFFFF" d="M254.7,46.9h1.4v1.4l0.1-0.1l0.2-0.2l0.2-0.2l0.2-0.2l0.1-0.1l0.1-0.1l0.1-0.1l0.1-0.1l0.1-0.1l0.2-0.1
		l0.1-0.1l0.2,0l0.4-0.1l0.1,0l0.2,0h0.3l0.1,0l0.3,0l0.4,0.1l0.1,0l0.1,0l0.4,0.2l0.1,0.1l0.1,0.1l0.2,0.2l0.1,0.1l0.1,0.1l0.2,0.2
		l0.1,0.1l0.1,0.1l0.2,0.4l0,0.1l0,0.1l0.1,0.3l0,0.2l0,0.1v0.2l0,0.1V55h-1.4v-4.9l0-0.3l0-0.2l0-0.2l-0.1-0.3l-0.1-0.1l-0.1-0.2
		l-0.1-0.1l-0.1-0.1l-0.1-0.1l-0.1-0.1l-0.2-0.2l-0.1-0.1l-0.1-0.1l-0.2,0l-0.1,0l-0.2,0l-0.2,0h-0.3l-0.2,0l-0.3,0.1l-0.3,0.1
		l-0.3,0.1l-0.2,0.2l-0.1,0.1l-0.2,0.2l-0.1,0.1l-0.1,0.1l-0.1,0.1l-0.1,0.1l-0.1,0.1l-0.1,0.1l-0.1,0.4l0,0.3V55h-1.4V46.9z"/>
	<path fill="#FFFFFF" d="M264.9,48.1h-1.1v-1.2h1.1v-2.4h1.4v2.4h2.5v1.2h-2.5v4.7l0,0.2l0,0.1l0.1,0.3l0.1,0.1l0.1,0.1l0.1,0.1
		l0.1,0.1l0.1,0.1l0.1,0l0.1,0l0.1,0h0.3l0.1,0l0.4-0.1l0.1,0l0.1-0.1l0.2-0.1v1.2l-0.1,0.1l-0.1,0.1l-0.3,0.1l-0.1,0l-0.1,0l-0.1,0
		l-0.1,0h-0.1l-0.1,0H267l-0.3,0l-0.4-0.1l-0.1-0.1l-0.1,0l-0.1-0.1l-0.2-0.2l-0.2-0.2l-0.1-0.1l-0.1-0.1l-0.1-0.1l-0.1-0.1
		l-0.1-0.2l-0.1-0.1l-0.1-0.4l0-0.3V48.1z"/>
	<path fill="#FFFFFF" d="M274.5,55.2h-0.3l-0.1,0l-0.2,0l-0.3,0l-0.1,0l-0.1,0l-0.4-0.1l-0.3-0.1l-0.1-0.1l-0.3-0.1l-0.4-0.3
		l-0.1-0.1l-0.2-0.2l-0.1-0.1l-0.2-0.2l-0.1-0.1l-0.1-0.1l-0.1-0.1l-0.2-0.3l-0.2-0.5l-0.1-0.3l0-0.1l0-0.1l0-0.1l0-0.1l0-0.2l0-0.1
		v-0.2l0-0.2v-0.3l0-0.2v-0.1l0-0.2l0-0.1l0.1-0.5l0-0.1l0.1-0.3l0-0.1l0.1-0.3l0.1-0.1l0.1-0.1l0.1-0.1l0.1-0.1l0.1-0.1l0.2-0.2
		l0.1-0.1l0.2-0.2l0.1-0.1l0.4-0.3l0.2-0.2l0.1-0.1l0.3-0.1l0.4-0.1l0.4-0.1l0.3,0l0.2,0h0.3l0.2,0l0.3,0l0.4,0.1l0.3,0.1l0.3,0.1
		l0.1,0.1l0.1,0.1l0.5,0.3l0.1,0.1l0.1,0.1l0.3,0.3l0.1,0.1l0.2,0.3l0.1,0.1l0.2,0.4l0.1,0.3l0.1,0.3l0.1,0.4l0,0.2l0,0.1l0,0.2v0.2
		l0,0.2v0.4l0,0.2h-6.3l0,0.1l0,0.2l0,0.1l0,0.1l0.1,0.3l0,0.1l0.3,0.5l0.3,0.3l0.1,0.1l0.1,0.1l0.3,0.2l0.3,0.1l0.3,0.1l0.1,0
		l0.1,0l0.2,0l0.3,0h0.3l0.5,0l0.1,0l0.1,0l0.1,0l0.1,0l0.4-0.2l0.1-0.1l0.1-0.1l0.2-0.2l0.3-0.3l0.1-0.1l0.2,0.2l0.2,0.2l0.1,0.1
		l0.1,0.1l0.1,0.1l0.1,0.1l-0.3,0.3l-0.1,0.1l-0.1,0.1l-0.5,0.4l-0.1,0.1l-0.1,0.1l-0.1,0.1l-0.1,0.1l-0.1,0.1l-0.1,0.1l-0.3,0.1
		l-0.4,0.1l-0.2,0l-0.2,0h-0.2L274.5,55.2z M274.2,47.9h-0.3l-0.2,0l-0.2,0l-0.2,0.1l-0.1,0l-0.1,0.1l-0.3,0.1l-0.1,0.1l-0.1,0.1
		l-0.1,0.1l-0.3,0.3l-0.2,0.3l-0.2,0.3l-0.1,0.2l0,0.1l0,0.2l0,0.1l0,0.1l0,0.2l0,0.1h4.9l0-0.3l-0.1-0.3l0-0.1l0-0.1l0-0.1
		l-0.1-0.1l-0.1-0.2l-0.1-0.1l-0.3-0.4l-0.1-0.1l-0.1-0.1l-0.1-0.1l-0.3-0.2l-0.1-0.1l-0.4-0.1l-0.1,0L274.2,47.9z"/>
	<path fill="#FFFFFF" d="M280.1,46.9h1.4v1.9l0.1-0.1l0.1-0.1l0.1-0.1l0.1-0.1l0.1-0.1l0.1-0.1l0.1-0.1l0.1-0.1l0.1-0.1l0.1-0.1
		l0.1-0.1l0.1-0.1l0.1-0.1l0.1-0.1l0.2-0.1l0.1-0.1l0.1-0.1l0.1-0.1l0.4-0.1l0.2,0l0.1,0l0.2,0h0.5v1.3h-0.3l-0.3,0l-0.1,0l-0.3,0.1
		l-0.2,0l-0.1,0.1l-0.2,0.1l-0.1,0.1l-0.5,0.4l-0.2,0.2l-0.2,0.2l-0.1,0.1l-0.1,0.1l-0.1,0.1l-0.3,0.7l0,0.1l0,0.1l0,0.1l0,0.1
		l0,0.1l0,0.3v0.2l0,0.1V55h-1.4V46.9z"/>
</g>
<g>
	<path fill="#FFFFFF" d="M47.2,11.1h0.6h0.5h0.6h0.6h0.6h0.5h0.6h0.6h0.5H53h0.6h0.5h0.6h0.6h0.6h0.5h0.6l0.3,0.5l0.4,0.5l0.3,0.5
		l0.3,0.5l0.4,0.5l0.3,0.5l0.3,0.5l0.4,0.5l0.3,0.5l0.3,0.5l0.4,0.5l0.3,0.5l0.3,0.5l0.4,0.5l0.3,0.5l0.3,0.5l0.4,0.5l0.3,0.5
		l0.3,0.5l0.3,0.5l0.4,0.5l0.3,0.5l0.3,0.5l0.4,0.5l0.3,0.5l0.3,0.5l0.4,0.5l0.3,0.5l0.3,0.5l0.4,0.5l0.3,0.5l0.3,0.5l0.4,0.5
		l0.3,0.5l0.3,0.5l0.4,0.5l0.3,0.5l0.3-0.5l0.4-0.5l0.3-0.5l0.3-0.5l0.4-0.5l0.3-0.5l0.3-0.5l0.4-0.5l0.3-0.5l0.4-0.5l0.3-0.5
		l0.3-0.5l0.4-0.5l0.3-0.5l0.3-0.5l0.4-0.5l0.3-0.5l0.3-0.5l0.4-0.5l0.3-0.5l0.3-0.5l0.4-0.5l0.3-0.5l0.3-0.5l0.4-0.5l0.3-0.5
		l0.3-0.5l0.4-0.5l0.3-0.5l0.4-0.5l0.3-0.5l0.3-0.5l0.4-0.5l0.3-0.5l0.3-0.5l0.4-0.5l0.3-0.5h0.6h0.5h0.6h0.6h0.6h0.5h0.6h0.6H86
		h0.6h0.6h0.5h0.6h0.6h0.6H90h0.6v0.6v0.6v0.6v0.6v0.6v0.6v0.6v0.6v0.6v0.6v0.6v0.6v0.6v0.6v0.6v0.6v0.6v0.6v0.5V23v0.6v0.6v0.6v0.6
		V26v0.6v0.6v0.6v0.6V29v0.6v0.6v0.6v0.6V32v0.6v0.6v0.6v0.6V35v0.6v0.6v0.6v0.6V38v0.6v0.6v0.6v0.6V41v0.6v0.6v0.6v0.6V44v0.6v0.6
		v0.6v0.6V47v0.6v0.6v0.6v0.6V50v0.6v0.6v0.6v0.6V53v0.6v0.6v0.6H90h-0.6h-0.7h-0.6h-0.6H87h-0.6h-0.7h-0.6h-0.6H84h-0.6h-0.7h-0.6
		h-0.6v-0.6v-0.6V53v-0.6v-0.5v-0.6v-0.6V50v-0.6v-0.6v-0.6v-0.6V47v-0.6v-0.5v-0.6v-0.6v-0.6v-0.6v-0.6v-0.6v-0.6v-0.6v-0.6v-0.5
		v-0.6v-0.6v-0.6v-0.6v-0.6v-0.6v-0.6v-0.6v-0.6V34v-0.6v-0.6v-0.6v-0.6V31v-0.6v-0.6v-0.6v-0.6V28v-0.6v-0.6v-0.6v-0.6l-0.4,0.5
		l-0.3,0.5l-0.4,0.5l-0.3,0.5l-0.4,0.5l-0.3,0.5l-0.4,0.5l-0.3,0.5l-0.4,0.5l-0.3,0.5l-0.4,0.5l-0.3,0.5l-0.4,0.5l-0.3,0.5l-0.4,0.5
		l-0.3,0.5l-0.4,0.5l-0.3,0.5l-0.4,0.5l-0.4,0.5l-0.3,0.5l-0.4,0.5l-0.3,0.5l-0.4,0.5l-0.3,0.5l-0.4,0.5l-0.3,0.5l-0.4,0.5l-0.3,0.5
		l-0.4,0.5l-0.3,0.5l-0.4,0.5l-0.3,0.5l-0.4,0.5l-0.3,0.5l-0.4,0.5l-0.3,0.5l-0.4,0.5h-0.2l-0.3-0.5L68,43.7l-0.3-0.5l-0.4-0.5
		L67,42.3l-0.4-0.5l-0.3-0.5L66,40.8l-0.3-0.5l-0.4-0.5l-0.3-0.5l-0.4-0.5l-0.3-0.5L64,37.8l-0.3-0.5l-0.4-0.5l-0.3-0.5l-0.4-0.5
		l-0.3-0.5l-0.3-0.5l-0.4-0.5l-0.3-0.5l-0.4-0.5l-0.3-0.5l-0.4-0.5l-0.3-0.5l-0.4-0.5l-0.3-0.5l-0.4-0.5l-0.3-0.5l-0.4-0.5l-0.3-0.5
		l-0.4-0.5l-0.3-0.5l-0.4-0.5l-0.3-0.5l-0.4-0.5l-0.3-0.5v0.6V27v0.6v0.6v0.6v0.6V30v0.6v0.6v0.6v0.6V33v0.7v0.6v0.6v0.6v0.6v0.6
		v0.6v0.6v0.6v0.6v0.6v0.6v0.6v0.6v0.6v0.6v0.6v0.6v0.6v0.6v0.6v0.6v0.6v0.6v0.7v0.6v0.6V50v0.6v0.6v0.6v0.6V53v0.6v0.6v0.6h-0.6H55
		h-0.6h-0.6h-0.6h-0.6H52h-0.6h-0.6h-0.6h-0.6H49h-0.6h-0.6h-0.6v-0.6v-0.6V53v-0.6v-0.6v-0.6v-0.6V50v-0.6v-0.6v-0.6v-0.6V47v-0.6
		v-0.6v-0.6v-0.6V44v-0.5v-0.6v-0.6v-0.6V41v-0.6v-0.6v-0.6v-0.6V38v-0.6v-0.6v-0.6v-0.6V35v-0.6v-0.6v-0.6v-0.6V32v-0.6v-0.6v-0.6
		v-0.6V29v-0.6v-0.6v-0.6v-0.6V26v-0.6v-0.6v-0.6v-0.6V23v-0.6v-0.5v-0.6v-0.6v-0.6v-0.6v-0.6v-0.6v-0.6v-0.6v-0.6v-0.6v-0.6v-0.6
		v-0.6v-0.6v-0.6v-0.6v-0.6V11.1z"/>
	<path fill="#FFFFFF" d="M116.9,10.8h0.6h0.6h0.6h0.7h0.6h0.6h0.6h0.6h0.6h0.6h0.7h0.6h0.6h0.6l0.2,0.5l0.2,0.5l0.2,0.5l0.2,0.6
		l0.2,0.5l0.2,0.5l0.2,0.5l0.2,0.5l0.2,0.5l0.2,0.6l0.2,0.5l0.2,0.5l0.2,0.5l0.2,0.5L129,19l0.2,0.6l0.2,0.5l0.2,0.5l0.2,0.5
		l0.2,0.5l0.2,0.5l0.2,0.6l0.2,0.5l0.2,0.5l0.2,0.5l0.2,0.5l0.2,0.5l0.2,0.6l0.2,0.5l0.2,0.5l0.2,0.5l0.2,0.5l0.2,0.5l0.2,0.6
		l0.2,0.5l0.2,0.5l0.2,0.5l0.2,0.5l0.2,0.5l0.2,0.5l0.2,0.6l0.2,0.5l0.2,0.5l0.2,0.5l0.2,0.5l0.2,0.5l0.2,0.6l0.2,0.5l0.2,0.5
		l0.2,0.5l0.2,0.5l0.2,0.5l0.2,0.6l0.2,0.5l0.2,0.5l0.2,0.5l0.2,0.5l0.2,0.5l0.2,0.6l0.2,0.5l0.2,0.5l0.2,0.5l0.2,0.5l0.2,0.5
		l0.2,0.6l0.2,0.5l0.2,0.5l0.2,0.5l0.2,0.5l0.2,0.5l0.2,0.6l0.2,0.5l0.2,0.5l0.2,0.5L143,52l0.2,0.5l0.2,0.6l0.2,0.5l0.2,0.5
		l0.2,0.5h-0.6H143h-0.6h-0.6h-0.6h-0.6H140h-0.6h-0.7h-0.6h-0.6h-0.6h-0.6h-0.6h-0.6h-0.6l-0.2-0.5l-0.2-0.5l-0.2-0.6l-0.2-0.5
		l-0.2-0.5l-0.2-0.5l-0.2-0.6l-0.2-0.5l-0.2-0.5l-0.2-0.5l-0.2-0.5l-0.2-0.6l-0.2-0.5l-0.2-0.5l-0.2-0.5l-0.2-0.6l-0.2-0.5l-0.2-0.5
		h-0.6h-0.6h-0.6h-0.5h-0.6h-0.6h-0.6h-0.6h-0.6h-0.5H124h-0.6h-0.6h-0.6h-0.6H121h-0.6h-0.6h-0.6h-0.6H118h-0.6h-0.5h-0.6h-0.6
		h-0.6h-0.6h-0.6h-0.5h-0.6h-0.6h-0.6l-0.2,0.5l-0.2,0.5l-0.2,0.6l-0.2,0.5l-0.2,0.5l-0.2,0.5l-0.2,0.6l-0.2,0.5l-0.2,0.5l-0.2,0.5
		l-0.2,0.5l-0.2,0.6l-0.2,0.5l-0.2,0.5l-0.2,0.5l-0.2,0.6l-0.2,0.5l-0.2,0.5h-0.6h-0.6h-0.5h-0.6h-0.6h-0.6h-0.6h-0.5h-0.6h-0.6H101
		h-0.6h-0.6h-0.5h-0.6h-0.6l0.2-0.5l0.2-0.5l0.2-0.5l0.2-0.6l0.2-0.5l0.2-0.5l0.2-0.5l0.2-0.5l0.2-0.5l0.2-0.6l0.2-0.5l0.2-0.5
		l0.2-0.5l0.2-0.5l0.2-0.5l0.2-0.6l0.2-0.5l0.2-0.5l0.2-0.5l0.2-0.5l0.2-0.5l0.2-0.6l0.2-0.5l0.2-0.5l0.2-0.5l0.2-0.5l0.2-0.5
		l0.2-0.6l0.2-0.5l0.2-0.5l0.2-0.5l0.2-0.5l0.2-0.5L106,36l0.2-0.5l0.2-0.5l0.2-0.5l0.2-0.5l0.2-0.5l0.2-0.6l0.2-0.5l0.2-0.5
		l0.2-0.5l0.2-0.5l0.2-0.5l0.2-0.5l0.2-0.6l0.2-0.5l0.2-0.5l0.2-0.5l0.2-0.5l0.2-0.5l0.2-0.6l0.2-0.5l0.2-0.5l0.2-0.5l0.2-0.5
		l0.2-0.5l0.2-0.6l0.2-0.5l0.2-0.5l0.2-0.5l0.2-0.5l0.2-0.5l0.2-0.6l0.2-0.5l0.2-0.5l0.2-0.5l0.2-0.5l0.2-0.5l0.2-0.6l0.2-0.5
		l0.2-0.5l0.2-0.5l0.2-0.5l0.2-0.5l0.2-0.6l0.2-0.5l0.2-0.5L116.9,10.8z M127.2,36.6l-0.2-0.5l-0.2-0.5l-0.2-0.5l-0.2-0.6l-0.2-0.5
		l-0.2-0.5l-0.2-0.5l-0.2-0.5l-0.2-0.5l-0.2-0.5l-0.2-0.6l-0.2-0.5l-0.2-0.5l-0.2-0.5l-0.2-0.5l-0.2-0.5l-0.2-0.6l-0.2-0.5l-0.2-0.5
		l-0.2-0.5l-0.2-0.5l-0.2-0.5l-0.2-0.5l-0.2-0.6l-0.2-0.5l-0.2-0.5l-0.2-0.5l-0.2,0.5l-0.2,0.5l-0.2,0.5l-0.2,0.6l-0.2,0.5l-0.2,0.5
		l-0.2,0.5l-0.2,0.5l-0.2,0.5l-0.2,0.5l-0.2,0.6l-0.2,0.5l-0.2,0.5l-0.2,0.5l-0.2,0.5l-0.2,0.5l-0.2,0.6l-0.2,0.5l-0.2,0.5l-0.2,0.5
		l-0.2,0.5l-0.2,0.5l-0.2,0.5l-0.2,0.6l-0.2,0.5l-0.2,0.5l-0.2,0.5h0.6h0.6h0.5h0.6h0.6h0.6h0.5h0.6h0.6h0.6h0.5h0.6h0.6h0.6h0.5
		h0.6h0.6h0.6h0.5h0.6H127.2z"/>
	<path fill="#FFFFFF" d="M166.5,55.4h-0.6h-0.6l-0.5-0.1l-0.6-0.1h-0.6l-0.6-0.1l-0.5-0.1l-0.6-0.1l-0.6-0.1l-0.5-0.1l-0.6-0.1
		l-0.5-0.1l-0.6-0.2l-0.5-0.1l-0.5-0.2l-0.6-0.2l-0.5-0.2l-0.5-0.2l-0.5-0.2l-0.5-0.2l-0.5-0.2l-0.5-0.2l-0.5-0.2l-0.5-0.3l-0.5-0.3
		l-0.5-0.3l-0.5-0.4l-0.5-0.3l-0.5-0.4L150,50l-0.5-0.4l-0.5-0.4l-0.5-0.4l-0.5-0.4l0.4-0.5l0.4-0.5l0.4-0.4l0.4-0.5l0.4-0.5
		l0.4-0.5l0.4-0.5l0.4-0.4l0.4-0.5l0.4-0.5l0.4-0.5l0.4-0.4l0.4-0.5l0.4-0.5l0.5,0.4l0.5,0.4l0.5,0.4l0.5,0.4l0.5,0.4l0.5,0.3
		l0.5,0.4l0.5,0.3l0.5,0.3l0.5,0.2l0.5,0.3l0.5,0.2l0.5,0.2l0.5,0.2l0.5,0.2l0.6,0.2l0.5,0.2l0.6,0.1l0.6,0.1l0.6,0.1l0.6,0.1
		l0.6,0.1l0.6,0.1h0.7h0.7l0.7-0.1l0.7-0.1l0.7-0.1l0.5-0.2l0.5-0.2l0.5-0.2l0.5-0.3l0.5-0.4l0.4-0.5l0.4-0.5l0.2-0.5l0.1-0.6
		l0.1-0.7v-0.1l-0.1-0.6l-0.1-0.6l-0.2-0.5l-0.3-0.5l-0.5-0.5l-0.5-0.5l-0.5-0.2l-0.5-0.2l-0.5-0.3l-0.6-0.2l-0.7-0.2l-0.5-0.2
		l-0.5-0.1l-0.5-0.2l-0.5-0.2l-0.6-0.1l-0.6-0.2l-0.7-0.2l-0.7-0.2l-0.7-0.2l-0.7-0.2l-0.7-0.2l-0.6-0.2l-0.6-0.2l-0.6-0.2l-0.6-0.2
		l-0.5-0.2l-0.5-0.2l-0.5-0.2l-0.6-0.2l-0.6-0.2l-0.5-0.2l-0.5-0.2l-0.5-0.3l-0.5-0.2l-0.5-0.3l-0.4-0.4l-0.4-0.3l-0.5-0.4l-0.4-0.4
		l-0.4-0.4l-0.4-0.5l-0.4-0.5l-0.4-0.5l-0.3-0.5l-0.2-0.5l-0.2-0.5l-0.2-0.5l-0.1-0.5l-0.2-0.6l-0.1-0.6l-0.1-0.6l-0.1-0.7l-0.1-0.7
		v-0.7v-0.1v-0.7l0.1-0.6l0.1-0.7L150,21l0.1-0.6l0.1-0.5l0.2-0.6l0.2-0.5l0.2-0.5l0.2-0.5l0.3-0.5l0.3-0.5l0.4-0.5l0.4-0.5l0.4-0.4
		l0.4-0.4l0.4-0.4l0.5-0.4l0.4-0.4l0.5-0.4l0.5-0.3l0.5-0.3l0.5-0.3l0.5-0.3l0.5-0.2l0.6-0.2l0.7-0.2l0.5-0.1l0.5-0.2l0.6-0.1
		l0.6-0.1l0.6-0.1l0.7-0.1l0.6-0.1h0.7l0.7-0.1h0.7h0.7h0.6l0.6,0.1l0.7,0.1l0.6,0.1l0.6,0.1l0.6,0.1l0.5,0.1l0.6,0.1l0.6,0.1
		l0.5,0.2l0.5,0.1l0.6,0.2l0.5,0.1l0.5,0.2l0.5,0.2l0.5,0.2l0.6,0.2l0.5,0.2l0.5,0.2l0.5,0.3l0.5,0.2l0.5,0.3l0.5,0.4l0.5,0.3
		l0.5,0.4l0.5,0.4l0.5,0.4l0.5,0.4l-0.4,0.5l-0.4,0.5l-0.3,0.5l-0.4,0.5l-0.4,0.5L179,19l-0.3,0.5l-0.4,0.5l-0.4,0.5l-0.4,0.5
		l-0.4,0.5l-0.3,0.5l-0.4,0.5l-0.4,0.5l-0.5-0.4l-0.5-0.4l-0.5-0.4l-0.5-0.3l-0.5-0.4l-0.5-0.2l-0.5-0.3l-0.5-0.2l-0.5-0.3L171,20
		l-0.5-0.2l-0.6-0.2l-0.6-0.2l-0.5-0.2l-0.6-0.1l-0.5-0.1l-0.6-0.1l-0.5-0.1l-0.6-0.1l-0.5-0.1h-0.6h-0.7l-0.7,0.1l-0.6,0.1
		l-0.5,0.1l-0.5,0.2l-0.5,0.2l-0.4,0.2l-0.4,0.3l-0.5,0.4l-0.4,0.4l-0.3,0.5l-0.2,0.5l-0.1,0.5l-0.1,0.5v0.1l0.1,0.7l0.1,0.7
		l0.2,0.5l0.2,0.4l0.4,0.4l0.4,0.4l0.5,0.4l0.5,0.2l0.5,0.3l0.6,0.2l0.7,0.2l0.7,0.2l0.5,0.2l0.5,0.2l0.5,0.2l0.5,0.1l0.6,0.2
		l0.7,0.2l0.7,0.2l0.7,0.2l0.7,0.2l0.7,0.2l0.6,0.2l0.7,0.2l0.6,0.2l0.6,0.2l0.5,0.2l0.5,0.2l0.5,0.2l0.5,0.2l0.7,0.3l0.6,0.2
		l0.5,0.4l0.6,0.3l0.5,0.3l0.5,0.4l0.5,0.4l0.5,0.4l0.4,0.4l0.4,0.4l0.4,0.4l0.4,0.4l0.3,0.5l0.3,0.5l0.2,0.5l0.3,0.5l0.2,0.5
		l0.2,0.6l0.2,0.5l0.1,0.6l0.1,0.7l0.1,0.6l0.1,0.7v0.7v0.1v0.7l-0.1,0.6l-0.1,0.6l-0.1,0.6l-0.1,0.6l-0.1,0.5l-0.2,0.5l-0.1,0.5
		l-0.2,0.5l-0.2,0.5l-0.3,0.6l-0.3,0.5l-0.3,0.5l-0.4,0.5l-0.4,0.5l-0.4,0.4l-0.4,0.4l-0.4,0.4l-0.4,0.4l-0.5,0.4l-0.4,0.3l-0.5,0.3
		l-0.5,0.3l-0.5,0.3l-0.5,0.2l-0.5,0.2l-0.5,0.2l-0.5,0.2l-0.6,0.2l-0.5,0.2l-0.5,0.1l-0.5,0.1l-0.6,0.1l-0.5,0.1l-0.6,0.1l-0.6,0.1
		l-0.6,0.1l-0.6,0.1h-0.7H166.5z"/>
	<path fill="#FFFFFF" d="M200.8,19.6h-0.6h-0.6H199h-0.6h-0.6h-0.6h-0.6H196h-0.7h-0.6h-0.6h-0.6h-0.6h-0.7h-0.6h-0.6h-0.6h-0.6
		h-0.6h-0.7H188h-0.6V19v-0.6v-0.6v-0.7v-0.6v-0.6v-0.6v-0.6v-0.6v-0.6v-0.7v-0.6v-0.6v-0.6h0.6h0.6h0.6h0.6h0.6h0.6h0.6h0.6h0.6
		h0.6h0.6h0.6h0.6h0.6h0.6h0.6h0.6h0.6h0.6h0.6h0.6h0.6h0.6h0.6h0.6h0.6h0.6h0.6h0.6h0.7h0.6h0.6h0.6h0.6h0.6h0.6h0.6h0.6h0.6h0.6
		h0.6h0.6h0.6h0.6h0.6h0.6h0.6h0.6h0.6h0.6h0.6h0.6h0.6h0.6h0.6h0.6h0.6h0.6h0.6h0.6v0.6v0.6v0.6v0.7v0.6v0.6v0.6v0.6v0.6v0.6v0.7
		v0.6V19v0.6h-0.6h-0.6h-0.6H221h-0.6h-0.6h-0.6h-0.6H218h-0.6h-0.6h-0.7h-0.6h-0.6h-0.6h-0.6h-0.6h-0.6h-0.7h-0.6h-0.6h-0.6v0.6
		v0.6v0.6V22v0.6v0.6v0.6v0.5v0.6v0.6v0.6v0.6v0.6v0.6v0.6v0.6v0.6v0.6v0.6v0.6v0.6v0.6v0.5v0.6v0.6v0.6v0.6v0.6v0.6v0.6v0.6v0.6
		v0.6v0.6v0.6v0.6v0.5v0.6v0.6v0.6V44v0.6v0.6v0.6v0.6V47v0.6v0.6v0.6v0.6V50v0.5v0.6v0.6v0.6V53v0.6v0.6v0.6h-0.6h-0.7h-0.6h-0.6
		H207h-0.7h-0.6h-0.6h-0.6h-0.7h-0.6h-0.6h-0.6h-0.7h-0.6v-0.6v-0.6V53v-0.6v-0.6v-0.6v-0.6V50v-0.6v-0.6v-0.6v-0.6V47v-0.6v-0.6
		v-0.6v-0.6V44v-0.6v-0.6v-0.6v-0.6v-0.5v-0.6v-0.6v-0.6v-0.6v-0.6v-0.6v-0.6v-0.6v-0.6v-0.6v-0.6v-0.6v-0.6v-0.5v-0.6v-0.6v-0.6
		v-0.6v-0.6v-0.6v-0.6v-0.6v-0.6v-0.6v-0.6v-0.6v-0.6v-0.6v-0.5v-0.6v-0.6V22v-0.6v-0.6v-0.6V19.6z"/>
</g>
<rect x="24.3" y="20.5" fill="#FFFFFF" width="8.4" height="34.2"/>
<rect x="12.1" y="28.6" fill="#FFFFFF" width="8.2" height="26.2"/>
<rect y="37.6" fill="#FFFFFF" width="7.5" height="17.1"/>
<path fill="#FFFFFF" d="M37.4,7.9c0,0-4.2,0.2-7.2,2.9c0-0.4,0-0.9,0-1.3c-0.4-5-4.3-8.7-4.3-8.7c-0.5,0.5-3.8,3.8-3.5,8.8
	c0.2,4.4,2.9,7.2,4.2,8.4c0,0,0,0,0,0.1c0,0,0,0,0,0c0.3,0.2,0.4,0.4,0.5,0.4c0,0,0,0,0,0c0,0,0,0,0,0c0,0,0,0,0,0
	c0.7-0.1-0.1,0,0.7-0.1l0,0c1.6-0.3,4.2-1,6.2-3C37,12.4,37.4,7.9,37.4,7.9 M30.9,14.1c-0.4,0.4-0.8,0.8-1.2,1.2
	c-0.3,0.3-0.6,0.6-0.8,1c0.2-0.5,0.5-1.2,0.7-1.8c0.3-0.3,0.6-0.6,1-0.8c1-0.7,2-1.3,3.1-1.8C32.6,12.5,31.7,13.3,30.9,14.1z"/>
</svg>
