<?xml version="1.0" encoding="utf-8"?>
<!-- Generator: Adobe Illustrator 24.0.1, SVG Export Plug-In . SVG Version: 6.00 Build 0)  -->
<svg version="1.1" id="Layer_1" xmlns="http://www.w3.org/2000/svg" xmlns:xlink="http://www.w3.org/1999/xlink" x="0px" y="0px"
	 viewBox="0 0 154 118" enable-background="new 0 0 154 118" xml:space="preserve">
<g>
	<path d="M69.17,73.63c-2.04-1.11-4.9-3.14-8.6-6.11l-2.78-1.94C35.03,48.93,19.58,37.46,11.44,31.17L9.5,29.78
		C7.83,28.49,7,26.73,7,24.51v-5.27c0-3.7,1.29-6.84,3.89-9.44c2.59-2.59,5.73-3.89,9.44-3.89h115.45c3.7,0,6.84,1.3,9.44,3.89
		c2.59,2.59,3.89,5.74,3.89,9.44v5.27c0,2.22-0.83,3.98-2.5,5.27l-1.39,1.11c-7.96,6.29-23.59,17.86-46.9,34.69l-2.78,1.94
		c-3.7,2.96-6.57,5-8.6,6.11c-3.52,2.22-6.48,3.33-8.88,3.33C75.64,76.96,72.68,75.85,69.17,73.63z M103.58,72.52l-2.78,2.22
		c-4.26,3.33-7.77,5.74-10.55,7.22c-4.44,2.59-8.51,3.89-12.21,3.89c-3.7,0-7.77-1.2-12.21-3.61c-2.59-1.48-6.11-3.88-10.55-7.22
		l-2.78-2.5C30.13,56.24,15.88,45.79,9.78,41.16c-0.56-0.37-1.16-0.42-1.8-0.14C7.32,41.3,7,41.81,7,42.55v56.62
		c0,3.7,1.29,6.85,3.89,9.44c2.59,2.59,5.73,3.89,9.44,3.89h115.45c3.7,0,6.84-1.29,9.44-3.89c2.59-2.59,3.89-5.73,3.89-9.44V42.55
		c0-0.74-0.33-1.29-0.97-1.67c-0.65-0.37-1.25-0.28-1.8,0.28C139.66,46.34,125.41,56.8,103.58,72.52z"/>
</g>
</svg>
